<?xml version="1.0" encoding="utf-8"?>
<!-- Generator: Adobe Illustrator 22.0.1, SVG Export Plug-In . SVG Version: 6.00 Build 0)  -->
<svg version="1.1" id="Layer_1" xmlns="http://www.w3.org/2000/svg" xmlns:xlink="http://www.w3.org/1999/xlink" x="0px" y="0px"
	 viewBox="0 0 255.1 255.1" style="enable-background:new 0 0 255.1 255.1;" xml:space="preserve">
<style type="text/css">
	.st0{fill:#4E5D44;}
</style>
<g>
	<path class="st0" d="M73.3,76.2c-2.1,2.6,1.8,2.6,1.3,4.6c1.3-1.1,2.6-0.9,3.9-1.1c2.6-0.3,5-1.1,7.6-1.1c3.9-0.2,7.6-1.6,11.4-2.1
		c3.1-0.3,5.9-1.9,8.7-1.8c3.9,0.3,6.5-1.9,9.2-3.5c3.1-2.1,6.3-2.6,9.8-3.3c3.1-0.4,6.1-1.1,9.2-1.3c3-0.2,6.1-0.3,8.6,1.3
		c1.3,0.9,3.1,1.6,3.9,3.4c0.3,1.1,1.1,1.3,2.2,1.1c3.3-0.7,6.7-1.3,10-1.8c2.6-0.3,4.8-0.7,7.2-1.1c2.6-0.4,5.4,0,8-0.6
		c0.6-0.2,1.1,0.2,1.8,0.2c3.4,0,6.7-0.6,10,0c2.8,0.6,5.9,0.2,8.6,1.1c2.1,0.7,4.4,0.4,6.1,2.4c0.6,0.6,2.1,0,2.4,1.1
		c0.9,3,3.4,5.6,1.9,9.1c-0.3,0.6-0.2,1.3-1.1,1.5c-0.2,0-0.3,0.3-0.3,0.3c1.1,2.2-0.7,4.1-0.4,6.3c0,0.4-0.2,1.1,0,1.1
		c1.6,1.5,0,2.6-0.3,4c-0.4,1.9-1.1,3.9-1.1,5.8c0,3.4-1.1,6.7-1.6,10c-0.3,2.4-1.1,4.8-1.1,7.2c0.2,1.9-1.1,3.7-1.1,5.6
		c0,1.9-0.3,4-0.7,5.9c-1.1,5.4-1.8,10.8-2.8,16.3c-0.7,3.7-0.9,7.6-1.6,11.3c-0.9,4-0.4,8.1-1.5,12c-1.3,4.6-0.6,9.5-1.5,14.1
		c-0.3,1.6-0.9,3.5-0.2,5.2c0.4,1.1-1.1,1.6-0.7,3c0.2,1.1,0.7,2.8,0,4.3c-0.3,0.6-1.1,1.1-0.9,2.2c0.2,0.6-0.9-0.2-1.3-0.2
		c-0.6,0.2-0.4-0.3-0.3-0.7c1.3-3.5,1.1-7.2,1.5-10.8c0.3-3.7,0.3-7.4,0.7-11.1c0.3-2.2,0.4-4.4,0.6-6.7c0.2-2.8,1.3-5.5,0.7-8.5
		c-0.2-0.4,0.3-1.1,0.4-1.6c1.1-3.9,1.1-7.7,1.5-11.5c0.4-3.4,1.1-7,1.8-10.4c0.4-2.6,0.7-5.4,1.1-8c0.6-3.3,0.6-6.8,1.6-10
		c0.3-0.7,0-1.5,0.2-2.2c0.6-3.9,1.8-7.7,2.1-11.5c0.2-3.1,1.1-5.9,1.1-9.1c0-0.6,0-1.1-0.9-1.1c-4.6-0.6-9.2-0.9-13.7,0
		c-2.1,0.4-4.1,0.6-6.3,0.6c-0.7,0-1.1,0.2-0.7,0.7c1.1,4.1,0.2,8.3-0.6,12.3c-0.6,3.3-1.9,6.3-2.8,9.6c-0.6,2.4-1.3,4.8-1.3,7.4
		c0,2.1-1.1,3.5-1.3,5.4c-0.4,4.3-2.4,8.3-3.5,12.3c-0.4,1.5-0.7,3.9-3,4.4c0.4,1.1-0.6,1.6-1.1,2.4c-2.2,3-4.3,6.1-6.8,8.5
		c-1.1,1.1-2.6,3.1-4.8,3c-0.4,0-0.6,0.3-0.6,0.6c-1.1,4.3-3.9,7.2-7.8,9.5c-2.6,1.3-5,2.6-7.4,4c-0.7,0.4-1.8,0.2-2.6,0.4
		c-3.7,0.7-7.2,0.6-10.9,0.3c-1.9-0.2-3.9-0.9-5.6-0.9c-2.2,0-4.4-1.1-6.7-0.4c-0.7,0.3-1.3-0.4-2.1-0.6c-3.4-0.7-6.8-1.8-9.6-3.9
		c-2.6-2.1-5.2-4.4-7.2-7.4c-1.3-1.9-2.6-3.5-3.7-5.8c-1.5-3.4-3.1-6.7-4.1-10.2c-1.1-4.3-1.3-8.6-1.1-13c0.3-2.6-0.6-5.2-1.1-7.7
		c-0.4-2.1-0.4-4-0.9-6.1c-0.3-1.6-1.3-3-1.1-4.6c0-0.4-0.3-0.7-0.7-0.7c-4.1,0.6-8.5-0.3-12.6,1.1c-4.8,1.6-10,2.1-15.2,1.6
		c-4-0.3-7.8-0.7-11.9-0.6c-2.2,0.2-4.3-1.3-6.5-1.3c-3.5,0-7-1.3-10.7-1.1c-3.3,0.2-6.7,0-9.6-1.8c-0.4-0.3-0.9-0.3-1.1,0
		s0,0.6,0.2,0.9c1.5,3.1,2.1,6.5,2.6,9.8c0.3,1.8,0.7,3.5,0.6,5.2c-0.2,2.1,0.2,4-0.2,6.1c-0.3,3-0.2,5.9-0.9,8.9
		c-0.6,2.1-0.4,4.4-0.4,6.7c-0.2,3.5-0.6,7.1-0.3,10.5c0.3,4.8,0.3,9.8,0.9,14.6c0.2,1.3,0.4,3,0,4.3c-0.7,2.6,0.2,5,0.2,7.6
		c0,4.8,1.3,9.5,0.7,14.2c0,0.3,0.2,0.7,0.3,1.1c2.6,3.5,4.8,7.4,7.6,10.8c2.6,3.1,4.8,6.5,7.8,9.6c2.6,2.8,5.4,5.5,8.6,7.4
		c0.9,0.4,1.8,0.9,2.6,1.3c1.9,0.9,3.4,2.6,4.6,4.3c0.4,0.6,0.3,0.4,1.1,0.2c0.6-0.4,1.1,0.2,1.5,0.6c1.6,1.6,3.9,1.9,5.8,0.7
		c0.4-0.3,1.1-0.2,1.5-0.6c1.1-1.1,2.1-2.4,3.7-3.1c0.9-0.4,1.8-0.6,2.6-0.9c3.4-0.9,6.5-2.6,10-3.4c1.1-0.3,1.6,0.7,2.8,0.4
		c2.2-0.6,4.3-1.3,6.5-1.6c3.4-0.4,6.5-1.9,10-2.1c1.3-0.2,2.6-0.6,3.9-1.1c0.9-0.4,2.1-0.2,3.1-0.2c0.6,0,1.3,0,1.9-0.2
		c3.1-0.7,6.3-1.1,9.5-1.9c2.6-0.7,5.5-0.7,8.1-1.6c2.6-0.9,5.4-1.3,7.8-1.9c4-0.9,7.7-3,11.7-3.5c2.6-0.3,4.8-1.1,7.4-1.1
		c2.6,0,5.5,0.3,8.3,0.6c2.2,0.2,4.4,0.9,6.7-0.3c1.5,1.3,3-0.2,4.4-0.2c1.6,0.2,3.3-0.3,4.8-0.2c2.8,0.3,5.6,0.4,8.5,0.2
		c3.5-0.4,4.6-1.3,5.5-4.8c0.3-1.1,0.9-1.3,1.8-1.1c0.3,0,0.9,0.4,0.4,0.9c-0.9,0.7-0.9,1.8-1.1,2.6c-0.6,2.6-2.6,3.4-4.3,4.8
		c-0.2,0.2-0.4,0.2-0.6,0c-2.6-0.7-5.2,0.2-7.7-0.2c-2.8-0.3-5.6-0.4-8.5-0.6c-1.6-0.2-3.1,0.3-4.8,0.4c-1.9,0.2-3.9,0.2-5.8-0.2
		c-3.1-0.3-6.3-0.2-9.3,0c-5.6,0.3-10.7,2.4-15.9,4.3c-2.2,0.9-4.8,1.1-7.2,1.6c-4.8,1.1-9.6,1.3-14.4,2.8c-1.8,0.6-3.5,0.4-5.5,0.7
		c-4.3,0.4-8.5,1.6-12.6,2.6c-5.6,1.1-11.3,2.6-16.9,4.1c-0.7,0.2-1.5,0.7-2.2-0.3c-0.3-0.4-0.7,0-1.1,0.2c-2.4,0.6-3.5,2.6-5.5,3.9
		c-1.3,0.9-3,1.1-4.3,2.1c-1.8-1.3-2.8,0.7-4.3,1.1c-2.1,0.6-4,0.9-5.6-0.9c-0.2-0.2-0.2-0.4-0.6-0.3c-2.1,1.1-3-0.6-3.9-1.6
		c-1.5-1.5-3.1-2.6-4.8-3.7c-2.1-1.3-4.4-2.6-6.1-4.8c-0.3-0.4-0.7-0.7-1.1-1.1c-2.6-2.4-4.8-4.8-6.7-7.8c-0.6-0.9-1.3-1.5-1.9-2.1
		c-2.1-1.8-3.1-4.4-5-6.3c-2.1-2.1-3-4.8-4.8-6.8c-0.7-0.9-1.1-2.2-0.7-3.4c0.4-2.6,0-5.4-0.3-7.8c-0.4-3.5,0-7-0.7-10.5
		c-0.3-1.8-0.4-3.9,0-5.9c0.3-1.5,0.2-3.5-0.4-5.2c-0.6-1.8,0-3.4-0.2-5c-0.6-4.3-0.3-8.6,0-12.9c0.2-4,0.4-8,1.1-11.9
		c0.4-2.8,0.2-5.6,0.4-8.5c0.4-4.8-0.3-9.5-1.1-14.2c-0.4-2.6-2.1-4.8-2.8-7.4c-1.1-3.4-3-6.5-2.6-10.2c0.2-0.6,0.4-1.1,0.3-1.9
		c-0.3-1.3,0.2-2.6-0.9-3.9c-1.1-1.2-0.3-5,0.9-5.9c0.2-0.2,0.6-0.2,0.9-0.3c2.8-0.6,5.8-0.4,8.7-0.3c2.1,0,4.1-0.9,6.1-1.1
		c1.6-0.2,2.8-1.1,4.3-1.5c2.1-0.6,4.4-0.6,6.5-1.6c1.3-0.7,3.3-0.3,4.8-0.7c0.4-0.2,0.7,0,0.6-0.7c-0.2-1.9,1.1-3.7,1.6-5.5
		c0.2-0.6,0.9-0.7,1.5-0.9c2.1-0.4,4.1-0.6,6.1-0.9c1.6-0.3,3.3-1.3,5-1.1c1.6,0.2,2.8-0.7,4.3-1.1c3.3-0.9,6.7-1.6,10-1.3
		c0.9,0.2,1.9,0.7,2.6,1.3C71.5,76.1,72.1,76.6,73.3,76.2z M165.6,121.9c3.5-4,5-12,2.6-15.9c1.1,3.3,0.2,6.3-0.7,9.5
		C166.8,117.4,165.8,119.5,165.6,121.9c-0.7,1.1-1.5,2.4-1.5,3.7C164.7,124.4,165.8,123.3,165.6,121.9z M202.1,85
		c-0.9,1.1-1.8,1.6-3.3,1.5c-1.1,0-2.1,0.3-3.1,0.6c-1.3,0.4-2.8,0.6-4,0.3c-5.4-1.1-10.5-0.6-15.7,0.7c0.7,2.1,1.9,4,2.4,6.1
		c0.2,0.6,0.4,0.7,1.1,0.4c1.6-1.1,3.7-0.7,5.4-1.3c3-1.1,5.9-0.2,8.9-0.7c2.1-0.4,4.4,0.3,6.7,0c1.1-0.2,1.1-0.4,1.1-1.1
		c0-1.3,0.2-2.6,0.6-3.9C201.9,86.8,202.3,85.9,202.1,85c1.5-2.1,2.4-4.1,1.6-6.8c-0.3-1.1-1.1-1.3-1.6-0.6
		c-0.7,1.1-1.5,1.5-2.6,1.9c-2.2,0.7-4.1,1.9-6.5,1.3c-0.3,0-0.3,0-0.3,0.2c-1.1,1.6-2.8,1.1-4.3,0.9c-0.7-0.2-1.5-0.3-2.2-0.2
		c-1.1,0.3-2.1,0.3-3.3,0c-0.6-0.3-1.3-0.9-1.8-0.7c-0.6,0.2-0.9,0.2-1.5,0.2c-2.2,0.2-4.4-0.2-6.7,0.4c-0.2,0-0.9-0.6-0.7,0.3
		c0.2,0.4-0.4,1.1,0.2,1.3c1.1,0.3,1.1,1.3,1.6,2.1c0.4,0.7,0.2,1.6,1.6,0.7c1.3-0.7,3.3-0.6,4.8-1.1c1.5-0.3,3-0.2,4.4-0.9
		c1.1-0.6,1.3,0.2,0.9,1.5c0.6-1.3,1.8-1.5,2.6-1.1c3.7,1.1,7.1,0.3,10.7-0.4c0.9-0.2,1.9-0.3,2.2-1.6C201.8,83.2,202.3,84,202.1,85
		z M161.5,128.3c0-0.3-0.2-0.4,0-0.6c1.8-3.9,2.6-8.1,4.3-12.2c1.3-3.3,1.6-6.7,0.4-10.2c-1.1-3.1-3.3-5.5-4.8-8.3
		c-0.3-0.7-1.1-0.4-1.6-0.3c-4.6,0.4-9.3,0.9-13.9,1.8c-3.5,0.6-7.1,1.5-10.7,2.6c-2.6,0.9-5,2.6-7.6,3.9c-0.6,0.3-1.3-0.2-1.3,0
		c-1.5,1.5-3.4,2.6-5.2,3.1c-3.4,1.1-6.7,2.6-10,3.9c-3.3,1.1-6.3,2.4-9.8,3.3c-1.1,0.3-1.6-0.7-2.4-0.3c-1.1,0.6-2.2,1.1-3.5,1.1
		c-1.1,0-1.6,0.6-1.6,1.8c0.2,2.4,0.2,4.8,0.3,7.2c0.2,2.2,0,4.4,1.3,6.3c0.3,0.4,0.4,0.9,0.6,1.5c0.7,3.3,1.3,6.5,2.6,9.6
		c0.7,1.8,1.1,3.7,1.8,5.5c1.1,3.9,1.5,8,2.8,11.9c0.9,2.8,1.9,5.6,3.1,8.3c1.1,2.2,2.4,4.6,5.2,5.2c1.1,0.3,1.9-0.4,2.8-0.4
		c3.4,0.2,6.1-1.9,9.2-2.6c2.1-0.4,3.7-1.8,5.8-2.2c1.9-0.4,4-0.7,5.8-1.5c2.6-1.1,5.6-1.1,8.3-2.1c2.4-1.1,5-1.3,7.2-3.4
		c2.4-2.4,2.6-5.4,3.3-8.1c0.4-2.6,2.1-4.3,3-6.3c0-0.2,0.6-0.2,0.7-0.2c0.4,0.2,0.2,0.4,0.2,0.7c-0.4,1.3-0.6,2.6-1.5,3.7
		c-0.2,0.2-0.9,0.4-0.3,0.7c0.9,0.4,0.3,0.9,0.2,1.3c-0.4,1.3-1.1,2.6-1.1,4.4c0.9-0.6,1.6-1.1,2.8-0.4c-0.9-1.1-1.1-1.3-0.2-1.3
		c0.6-0.2,0.6-0.4,0.9-0.7c1.8-2.1,3.7-4.1,5.2-6.5c1.8-2.8,3.4-5.6,4-8.9c0.4-2.4,1.3-4.8,2.4-7c1.1-2.6,1.5-5,1.9-7.7
		c0.4-2.4,0.4-4.8,1.1-7.1c1.1-4.6,2.6-9.1,3.4-13.7c0.9-6.5-0.2-12.2-4.3-17.4c-1.8-2.2-3.4-4.1-6.5-4.6c-2.2-0.3-4.3,0.2-6.3-0.3
		c-0.6-0.2-1.5-0.4-1.6-0.3c-1.1,1.9-2.8,1.1-4.8,1.5c1.6,0.9,3,1.5,4.1,2.2c1.1,0.7,2.6,1.5,3.3,2.8c0.7,1.8,1.6,3.5,2.4,5.4
		c0.4,1.1,0.3,2.6,1.1,3.3c2.2,2.2,3.3,5.2,5,7.6c2.1,2.8,2.6,6.3,2.4,9.8c-0.2,1.6-1.1,3-1.8,4.4c-1.5,3.3-2.8,6.5-4.8,9.5
		c-0.7,1.1-1.5,2.6-1.8,4c-0.3,1.3-1.1,2.6-1.6,4.1c-0.4,1.5-1.5,2.6-1.9,4c-0.4,1.4-0.4,3-0.7,4.4c-0.2,1.1-0.9,1.3-1.8,1.3
		s-0.6-0.7-0.4-1.1c0.7-2.8,1.5-5.6,2.6-8.5c0.6-1.5,0.6-3.4,2.6-3.9c0.3,0,0.6-0.4,0.3-0.7c-1.1-1.1-0.4-1.6,0.3-2.6
		c0.7-0.9,1.5-1.8,1.1-3.1C162.8,127,162.4,127.8,161.5,128.3z M124.9,79.4c-1.1-0.7-1.1-0.7-1.1-1.5c-0.4-1.9-1.1-2.4-3.1-2.4
		c-1.1,0-2.2,0.4-3.1-0.4c-0.2-0.2-0.6-0.2-0.6,0c-0.4,1.1-1.3,0.4-1.9,0.3c-0.7-0.2-1.3-0.2-2.1,0.3c-2.1,1.1-4.4,1.1-6.5,1.5
		c-2.4,0.2-4.6,0.9-6.8,1.5c-2.8,0.7-5.6,1.1-8.5,1.6c-3.5,0.4-7.1,0.7-10.7,1.5c-1.9,0.4-3.7,0.9-5.5,1.3c-1.6,0.4-3.4,0.4-4.8,1.1
		c-0.7,0.3-1.5,0.4-2.1,0.3c-1.3-0.3-1.3,0.6-1.6,1.3c-0.2,0.3,0,0.7-0.2,1.1c-0.6,1.6-0.2,1.9,1.5,1.9c2.8,0,5.5-0.9,8.3-1.3
		c3.9-0.6,7.7-1.1,11.4-2.4c0.4-0.2,0.9-0.3,1.3-0.3c2.4-0.4,4.8-1.1,7.2-1.1c1.8-0.2,3.3-1.1,5-0.9c4.3,0.3,8.5-0.3,12.6-1.1
		c2.4-0.4,4.8-0.3,7.2-0.4c0.9,0,2.1-0.2,2.6,0.9c0.2,0.3,0.9,0.2,0.9,0.7c-0.2,0.4-0.6,0.4-1.1,0.6c-2.6,0.6-5.2,0.4-7.7,0.6
		c-2.6,0.2-5.5,0.7-8.1,0.9c-2.6,0.2-5.5,0.2-8.1,0.6c-2.6,0.4-5.2,0.9-7.7,1.3c-2.4,0.4-4.8,0.3-7,1.1c-2.8,1.1-5.6,1.1-8.5,1.8
		c-3.3,0.7-6.5,1.1-9.8,1.1c-0.7,0-1.3,0.3-1.3,0.9c0.2,1.1-0.3,1.9-0.4,2.8c-0.4,2.2,1.1,3.7,3.3,3.1c1.6-0.4,3.4,0.6,4.8-0.7
		c0.2-0.2,0.6,0.2,0.9,0.2c3.5,0.9,5.6,0.4,8.9-1.1c0.9-0.4,2.2-2.2,3.7-0.4c0,0,0.4-0.2,0.7-0.3c1.1-0.4,2.4-0.9,3.5-1.5
		c0.4-0.2,0.9-0.4,1.3-0.3c1.3,0.4,2.6,0.4,3.7-0.7c0.7,1.1,1.3-1.1,1.9-0.2c0.6,1.1,1.3,0.3,1.8,0c1.3-0.7,2.6-1.5,4.1-1.1
		c1.1,0.2,1.9,0.3,3,0.3c2.2,0.2,4.1-0.9,5.8-1.9c1.8-1.1,3.5-1.6,5.5-1.9c2.2-0.2,4.4-0.4,6.7-0.7c2.1-0.2,4.3-0.7,6.5-1.6
		c2.4-1.1,5-1.1,7.6-2.1c2.8-1.1,5.8-1.3,8.6-2.1c-1.6-0.3-3.4,0.3-5,0c-0.3,0-0.7,0.3-0.9-0.2c-0.2-0.4,0.2-1.1,0.4-1.1
		c1.5-0.2,2.6-1.3,3.9-1.5c1.6,0,1.5-0.9,1.3-1.9c0-1.3-1.3-2.1-1.5-3.3c-0.4-2.2-1.8-3.5-3.7-4.3c-2.6-1.1-5.2-1.1-8-0.9
		c-4.8,0.4-9.6,1.8-14.4,2.4c1.9,0.6,2.6,3.3,5.2,2.8c0.3,0,0.6,0.3,0.4,0.4C124.3,76,125.2,77.5,124.9,79.4z M107.3,172.7
		c-1.3-1.3-2.2-2.4-2.6-3.9c-0.3-1.3-0.6-2.6-1.3-3.9c-1.8-3.4-2.8-7-3.1-10.8c-0.2-2.1-0.7-4.1-1.6-6.3c-1.1-2.6-2.6-4.8-2.8-8
		c-0.2-2.6-1.1-5-2.1-7.6c-0.7-2.1-1.9-3.9-1.6-6.3c0.2-1.1,0.9-2.4-0.3-3.4c-0.2-0.2,0-0.7,0.3-1.1c0.4-0.4,0.4-0.9,0.3-1.5
		c-0.3-1.1-0.2-2.1-0.2-3.1c-0.2-3.5,0-7.2,0-10.9c0-1.6,0.7-3.3,0.2-5c-0.3-0.9-0.9-1.6-1.6-1.1c-2.2,0.9-4.4-0.3-6.7,0.3
		c-1.6,0.4-3.4,0-5-0.3c-0.7-0.2-1.1,0.3-1.6,0.7c-0.6,0.6,0.3,0.9,0.4,1.1c1.1,1.9,1.9,4.1,2.6,6.3c1.1,3.7,2.8,7.1,3.5,10.9
		c0.7,4.3,1.5,8.6,2.1,13c0.4,3,0,5.9,0,8.9c0,1.5,0.2,3,0.6,4.3c1.1,3.5,2.4,7,3.9,10.4c1.5,3.5,4,6.1,6.3,9.1
		c2.1,2.8,5.2,4.8,8.1,6.7C105.2,172.2,105.9,172.5,107.3,172.7z M160.8,94.4c0.2-1.3-1.3-2.2-1.6-3.7c0-0.3-0.6-0.3-0.9-0.2
		c-1.5,0-3,0.2-4.4,0c-4.4-0.6-8.7-0.2-12.9,1.8c-3.1,1.5-6.5,2.1-9.8,3.3c-3.5,1.3-7.2,1.9-10.7,3.9c-2.4,1.3-4.8,2.8-7.4,3.7
		c-4.8,1.8-10,3.1-15,4.8c-1.9,0.6-2.4,0.3-3.1-1.8c1.3-0.2,2.8-0.3,4-0.9c4-1.5,8.1-2.6,12.2-3.7c1.3-0.3,3-0.7,3.7-1.5
		c1.6-1.8,4-1.8,5.8-3.1c0.9-0.6,1.9-1.6,3.3-1.6c3-0.2,5.6-1.8,8.5-2.6c2.4-0.6,4.6-1.5,6.8-2.4c1.1-0.6,2.6-1.5,4-0.9
		c3.1-2.6,6.8-1.1,10.4-1.1c1.1,0,2.4,0.2,3.9-0.3c-1.9-1.1-3.7-1.9-5.2-3c-1.3-1.1-2.6-1.1-4.1-0.9c-1.9,0.3-3.9,0.4-5.8,0.9
		c-6.2,1.5-12.2,3.3-18.1,5c-1.9,0.6-4.1,0.6-5.9,1.6c-3.5,2.1-7.7,3.1-11.4,4.8c-3.7,1.8-7.7,2.8-11.5,3.9
		c-0.9,0.3-1.1,0.6-0.9,1.3c0.2,3.1-0.2,6.3-0.3,9.3c0,0.7-0.3,2.4,0.9,2.2c1.3,0,2.8-0.3,4-0.6c2.8-0.6,5.6-1.5,8.3-2.4
		c1.9-0.7,4-1.3,5.9-2.4c2.2-1.1,4.8-2.2,7.1-3.3c3-1.1,6.3-1.5,8.9-3.9c2.1-1.9,5-2.6,7.8-3.1c4.8-1.1,10-2.4,15-3.1
		C154.8,94.6,157.8,94.8,160.8,94.4z M44.1,80.8c-0.4-0.2-0.6,0.2-0.7,0.4c-1.1,2.4-1.8,5.2-1.3,7.7c0.6,3.9,1.3,7.7,1.8,11.5
		c0.2,1.1,0.6,1.3,1.5,1.3c2.6,0,5.2-0.9,7.8-0.6c1.1,0.2,2.6,0,3.3-0.6c0.7-0.6,1.9-1.1,2.4-1.1c1.5,0,2.6-0.6,3.3-1.8
		c0.6-1.1,0.4-2.6,0.3-3.9c-0.2-1.8,0.2-3.3,0.7-4.8c0.2-0.4,0.4-0.7,0.2-1.1c-0.6-1.5,0-3.1-0.4-4.6c1.9-1.1,1.5-3.7,2.6-5.4
		c0.4-0.6,0.3-1.5-1.1-1.1c-2.6,0.6-5.4,1.1-7.8,1.8C52.6,79.7,48.4,80.3,44.1,80.8z M9.1,104.4c0.2,2.1,0.6,3.7,1.5,5.4
		c0.7,1.3,1.3,2.6,3.1,2.4c0.4,0,0.9,0,1.1,0.2c1.9,1.1,4.3,1.3,6.3,1.3c4.1,0,8.3,1.1,12.4,1.3c3.1,0.3,6.3,1.3,9.5,0.7
		c0.4,0,0.9,0,1.1,0c3,0.3,5.8,0.7,8.7,0.7c4.4,0,8.7-0.2,13-1.1c4.1-0.9,8.1-1.8,12.4-1.5c1.1,0,1.1-0.4,0.7-1.1
		c-0.4-1.1-1.1-2.4-1.1-3.7c-0.2-1.1-0.4-0.9-1.1-0.7c-1.1,0.3-2.6,0.7-3.9,0.4c-5.5-1.1-10.8,0.6-16.3,0.6c-5,0-10,1.1-15.2,1.3
		c-8.5,0.3-16.7-0.4-24.9-1.8c-1.1-0.2-2.1-0.6-3-1.3C12.4,106.4,10.8,105.5,9.1,104.4z M74.8,106.6c2.4-0.2,2.4-0.2,1.3-2.4
		c-0.4-0.7-0.7-1.5-1.1-2.2c-1.5-2.6-3.4-2.8-5.2-0.4c-0.3,0.4-0.7,0.4-1.1,0.4c-4.3-0.2-8.7,0.3-13,1.1c-3,0.6-5.8,1.1-8.7,1.5
		c-2.4,0.3-4.8,1.1-7.4-0.2c-0.9-0.4-2.4-0.3-3.5-0.2c-2.4,0.3-4.8,0.7-7.1,0.2c-3-0.7-6.1-1.5-9.1-2.1c-2.8-0.6-5.8-1.1-8.3-2.6
		C11,99.5,10,99.3,10,99.9c0,1.1-1.1,2.4-0.2,3c2.2,1.3,4,3.3,6.7,3.9c1.5,0.3,3.1,0.6,4.6,0.9c2.8,0.6,5.6,1.1,8.6,1.3
		c3.7,0.4,7.2-0.3,10.9-0.3c3.4,0,6.7,0,10-0.6c1.6-0.3,3.3-1.1,4.8-0.7c1.9,0.6,3.5,0.2,5.4-0.3c0.6-0.2,1.1-0.6,1.8-0.6
		C66.3,106.6,70.6,106.6,74.8,106.6z M177.6,70.5c0.2,0.7,1.1,0.3,1.1,1.1c0,0.3-0.6,0.6-0.7,0.6c-1.9-0.7-3.7,1.1-5.8,0.4
		c-0.7-0.2-1.9-0.4-3.1,0c-2.8,1.1-5.9,0.2-9.1,0.6c-3,0.4-6.1,0.4-9.1,1.1c-1.9,0.4-1.9,1.1-2.1,2.6c-0.2,1.3,0.3,1.5,1.3,1.3
		c4.1-0.7,8.3-1.1,12.3-2.4c2.4-0.7,5-0.9,7.7-1.1c3.4-0.4,6.7-0.4,10-0.4c1.1,0,1.9,0.7,3.1,0.6c1.8-0.3,3.5,0.9,5.6,0.7
		c1.5-0.2,3.3,0.6,4.8,0.7c1.5,0.2,3-0.6,4.4,0.3c0.3,0.2,0.4,0.6,0.9,0.3c0.3-0.3,0.6-0.9,0.2-1.3c-1.5-1.6-3-3.1-5.5-3.4
		c-3-0.4-6.1-0.2-9.1-1.1c-0.6-0.2-1.1-0.4-1.1,0.4c0,0.3-4.1,0.4-4.4,0.3c0-0.2,0-0.3-0.2-0.3C178.6,70.1,178.6,70.1,177.6,70.5z
		 M8.1,94.5c1.3,1.5,2.4,3.3,4.4,3.9c2.1,0.6,4.1,1.3,6.3-0.3c1.1-1.1,2.6-2.1,4.3-2.1c1.6,0,3.3-0.2,4.8-0.7c1.5-0.4,3-1.3,4.4-1.5
		c2.4-0.2,4.4-1.1,6.7-1.1c0.3,0,1.1-0.3,0.9-0.9c-0.3-1.1,0-1.9-0.2-3c-0.3-1.1-0.6-1.1-1.5-0.9C38,88,37.5,88,37.2,88.1
		c-4.6,0.9-9.3,1.8-13.7,3.4c-3,1.1-5.9,1.8-9.2,1.1c-2.1-0.4-4-0.6-5.4,1.6C9.1,94.5,8.5,94.4,8.1,94.5z M119.1,174.4
		c8.5,4.6,27.4-1.6,30.7-9.8c-0.3-0.2-0.4,0-0.6,0c-2.6,0.9-5.2,2.2-8,2.8c-4.1,0.9-8.3,1.9-12.3,3.4
		C125.6,172,122.5,173.3,119.1,174.4z M39.8,98.3c0.6,0.3,0.2,0.9,0.4,1.1c0.2,0.2,0.4,0.3,0.6,0.2c0.2,0,0.3-0.3,0.3-0.4
		c0-1.3-0.2-2.6-0.3-4c0-0.4-0.6-0.7-1.1-0.6c-1.1,0.2-2.1,0.3-3,0.6c-4,1.3-8.3,1.9-12.4,2.8c-2.2,0.6-4.4,0.9-6.3,2.6
		c1.5,0,2.8,0.2,4.1,0.4c0.7,0.2,0.4,0.9,0.7,0.9c1.1,0,2.1-0.3,3.1-0.2c1.3,0.3,2.4,0,3.7-0.2c2.6-0.3,4.6-1.8,7.2-1.5
		C38.1,100.3,39.8,100.1,39.8,98.3z M191.1,78.6c-2.6-1.5-5.5-0.7-8-1.3c-1.5-0.3-3.1-1.9-4.8-0.3H178c-2.4-0.9-4.8-0.7-7.1-0.2
		c-0.6,0.2-2.1,0.2-1.9,1.5c0.2,1.1,1.5,1.6,2.2,1.5c3.9-0.6,7.7,0,11.5-0.3C185.6,79.4,188.3,79.4,191.1,78.6z M104.3,93.3
		c-0.2,0-0.3,0-0.4,0c-4.3,0.6-8.3,2.4-12.8,2.8c-0.9,0-1.1,1.1-0.3,1.5c0.6,0.4,1.6,0.9,2.2,0.6c2.4-0.9,5-0.4,7.2-1.1
		c2.6-1.1,5.5-2.2,8.1-3.4c0.3-0.2,0.6-0.2,0.4-0.6c-0.2-0.3-0.3-0.3-0.7-0.2C106.9,93.4,105.6,93.1,104.3,93.3z M148.3,80.5
		c0.4,0.6,0.9,0.4,1.1,0.4c4.3-0.2,8.5-0.9,12.8-0.6c1.5,0,3,0.3,4.4-0.4c1.1-0.6,0.2,0.6,0.6,0.7c0.4-0.3-0.3-1.8,1.1-1.3
		c0.2,0,0.2-0.6,0-0.9c-0.2-0.3-0.2-0.4-0.7-0.4c-2.4,0.6-4.8-0.2-7.1,1.1c-0.9,0.6-2.2,0.7-3.3,0.6
		C154.3,79.4,151.4,80.7,148.3,80.5z M90.1,98.8c-0.3-0.3-1.1,0.2-1.1-0.7c0-1.6-0.9-1.5-2.1-1.1c-0.9,0.3-1.9,0.4-2.6,0.7
		c-0.6,0.3-1.9,0.2-1.8,0.9c0.2,1.1,1.1-0.2,1.8,0c1.5,0.4,3.1,0,4.6,0.7C89.1,99.5,89.6,99,90.1,98.8z M35.4,102
		c2.1,1.1,3.7-0.2,5.4,0.3c0.2,0,0.4-0.3,0.3-0.7c-0.2-0.3-0.4-0.4-0.7-0.3C38.9,101.9,37.3,102,35.4,102z"/>
	<path class="st0" d="M187.7,205.1c0.4,1.8-0.2,2.8-0.3,3.9c0,0.6-0.4,0.7-1.1,0.7c-0.4,0-0.9,0.2-1.1-0.3c-0.2-0.4-0.3-0.7,0.3-1.1
		c0.6-0.3,0.6-1.3,0.4-1.8c-0.3-2.1,0.6-4,0.6-6.1c0-0.6,0.2-1.1,0.9-1.1c0.6,0.2,0.4,0.6,0.6,1.1
		C188.6,202.4,186.9,204,187.7,205.1z"/>
</g>
<g>
	<path class="st0" d="M214.4,56c1.8-1.7,3.3-3.4,5.1-5.1c8.2-7.5,16-15.2,22.1-24.7c3.9-6,7-12.2,8.1-19.4c0.1-0.7,0.4-1.4,1.3-1.3
		c0.8,0,1.1,0.7,1.1,1.4c0.3,1.6-0.1,3.1-0.4,4.6c-1.3,6.9-4.6,12.9-8.5,18.6c-4.1,5.9-8.8,11.3-13.9,16.3c-2.9,2.7-5.9,5.5-9.3,7.5
		c-1.6,1-3.3,1.6-5.1,2.2C214.8,56.2,214.7,56.3,214.4,56z"/>
	<path class="st0" d="M217.9,60.6c-2.9-0.2-5.8-0.2-8.6-1.1c-1.4-0.4-1.6-0.8-1.4-2.3c0.2-1,0.4-1.9,1.1-2.7
		c2.4-3.3,4.1-6.8,5.9-10.3c0.1-0.3,0.3-0.5,0.4-0.8c0.4-0.4,0.8-0.5,1.3-0.4c0.4,0.2,0.7,0.6,0.7,1.1c0,0.5-0.2,1-0.4,1.4
		c-1.7,3.3-3.3,6.7-5.5,9.7c-0.4,0.5-0.7,1.1-1,1.7c-0.3,0.5-0.2,0.7,0.4,0.7c1.1,0,2.2,0.1,3.3,0.2c2.2,0.1,4.3,0.1,6.5,0.2
		c0.7,0,1.4,0.1,2.1,0.4c0.4,0.2,0.8,0.3,0.8,0.7s-0.4,0.6-0.7,0.8c-1.1,0.6-2.3,0.7-3.5,0.8C218.8,60.6,218.3,60.6,217.9,60.6z"/>
</g>
</svg>
