<?xml version="1.0" encoding="utf-8"?>
<!-- Generator: Adobe Illustrator 22.0.1, SVG Export Plug-In . SVG Version: 6.00 Build 0)  -->
<svg version="1.1" id="Layer_1" xmlns="http://www.w3.org/2000/svg" xmlns:xlink="http://www.w3.org/1999/xlink" x="0px" y="0px"
	 viewBox="0 0 126.5 131.7" style="enable-background:new 0 0 126.5 131.7;" xml:space="preserve">
<style type="text/css">
	.st0{fill:#4E5D44;}
</style>
<g>
	<path class="st0" d="M72.9,53.6c-14.2,0-25.8-11.6-25.8-25.8S58.7,2.1,72.9,2.1s25.8,11.6,25.8,25.8S87.2,53.6,72.9,53.6z
		 M72.9,6.8c-11.6,0-21.1,9.5-21.1,21.1s9.5,21.1,21.1,21.1S94,39.5,94,27.9S84.6,6.8,72.9,6.8z"/>
</g>
<g>
	<path class="st0" d="M70.1,36.5c-0.6,0-1.2-0.2-1.6-0.7l-8-7.8c-0.9-0.9-0.9-2.4,0-3.3c0.9-0.9,2.4-0.9,3.3,0l6.3,6.2l11.9-12
		c0.9-0.9,2.4-0.9,3.3,0c0.9,0.9,0.9,2.4,0,3.3L71.7,35.8C71.3,36.2,70.7,36.5,70.1,36.5z"/>
</g>
<path class="st0" d="M19.1,77.7c2.6,0,5.2,0,7.7,0c2.8,0.1,5.3,1,6.5,3.8c0.5,1.1,1.3,1.2,2.2,1.1c7.8-0.5,15.2,1.1,22.3,4.3
	c3.1,1.4,6.5,1.9,10,1.8c3.1-0.1,6.2,0,9.2,0c3.1,0,6,0.7,8,3.3c0.7,0.9,1.6,1,2.6,0.7c6.5-1.3,13.1-2.5,19.6-3.8
	c4.5-0.9,8.5,1.3,10,5.4c1.5,4.1-0.1,8.3-4.2,10.3c-13.4,6.5-26.8,13-40.3,19.4c-3.3,1.6-6.9,0.8-10.3,0c-8-1.9-15.4-5.2-23.1-7.9
	c-1.3-0.5-2.7-0.9-4.1-1.2c-0.9-0.2-1.8-0.3-2.5,0.6c-1.6,2.2-4,2.6-6.4,2.7c-5,0-10-0.1-15,0c-2.3,0-2.8-1-2.8-3
	c0-2.1,0.8-2.7,2.8-2.7c6.9,0,6.9-0.1,6.9-7.2c0-6.4-0.1-12.8,0-19.2c0-2-0.6-3-2.7-2.8c-1.3,0.1-2.7-0.1-4,0
	c-2.2,0.2-3.1-0.6-3.1-2.9c0-2.2,0.9-2.9,3-2.8C14.1,77.8,16.6,77.7,19.1,77.7z M68.7,100.1C68.7,100.1,68.7,100.1,68.7,100.1
	c3.2,0,6.3,0,9.5,0c1.6,0,3-0.8,3.2-2.6c0.1-1.9-1.3-2.8-3-3c-1.6-0.2-3.2-0.2-4.7-0.1c-7.5,0.4-14.8-0.3-21.7-3.6
	c-5.1-2.4-10.4-2.6-15.9-2.5c-1.6,0-2.2,0.7-2.2,2.2c0,5.4,0,10.8,0,16.2c0,1.5,0.6,2.2,2.2,2.4c1.8,0.2,3.5,0.8,5.3,1.5
	c6.9,2.5,13.8,4.9,20.7,7.3c4.2,1.4,8.1,1.3,12.2-0.9c7.8-4.1,15.8-7.8,23.8-11.6c4.1-1.9,8.1-3.8,12.2-5.8c1.4-0.7,2.2-1.8,1.6-3.5
	c-0.6-1.6-1.9-2-3.4-1.6c-6.4,1.3-12.7,2.5-19.1,3.8c-1.1,0.2-1.9,0.6-2.5,1.8c-1.7,3.9-4.8,5.8-9,5.8c-5.4,0-10.8,0-16.2,0
	c-0.9,0-2.1-0.3-2.6,0.6c-1.1,1.9-2.9,1.3-4.4,1.5c-1.5,0.2-1.9-0.6-1.7-1.9c0.3-3.3,3-5.8,6.9-5.9C62.7,100,65.7,100.1,68.7,100.1z
	 M27.8,98.1c0-4.1,0-8.1,0-12.2c0-1.2,0.1-2.4-1.7-2.4c-1.7,0-1.8,1.1-1.8,2.3c0,8.1,0,16.3,0,24.4c0,1.2-0.1,2.4,1.7,2.4
	c1.9,0,1.8-1.3,1.8-2.6C27.9,106,27.9,102,27.8,98.1z"/>
<g>
	<path class="st0" d="M51.9,80c-0.6,0-1.1-0.2-1.6-0.6c-0.7-0.6-1.1-1.6-0.8-2.6l7.9-28.5c0.4-1.3,1.7-2.1,3.1-1.7
		c1.3,0.4,2.1,1.7,1.7,3.1l-6.4,23.2l16.1-7.7c0.7-0.3,1.5-0.3,2.1,0l16.1,7.7l-6.4-23.2c-0.4-1.3,0.4-2.7,1.7-3.1
		c1.3-0.4,2.7,0.4,3.1,1.7l7.9,28.5c0.3,0.9-0.1,2-0.8,2.6c-0.8,0.6-1.8,0.8-2.7,0.3l-20-9.5l-20,9.5C52.6,79.9,52.2,80,51.9,80z"/>
</g>
</svg>
