<?xml version="1.0" encoding="utf-8"?>
<!-- Generator: Adobe Illustrator 22.0.1, SVG Export Plug-In . SVG Version: 6.00 Build 0)  -->
<svg version="1.1" id="Layer_1" xmlns="http://www.w3.org/2000/svg" xmlns:xlink="http://www.w3.org/1999/xlink" x="0px" y="0px"
	 viewBox="0 0 200.5 170.4" style="enable-background:new 0 0 200.5 170.4;" xml:space="preserve">
<style type="text/css">
	.st0{fill:#4E5D44;}
	.st1{fill:#E4D3B6;}
	.st2{fill:none;stroke:#000000;stroke-miterlimit:10;}
	.st3{fill:#D0D0D0;}
</style>
<path class="st0" d="M102.9,159.8c-3.1-0.4-6.1-0.8-9.2-1.2c-6-0.8-12.1-1.6-17.6-4.1c-4.7-2.1-8.7-5.2-12.7-8.4
	c-3.3-2.7-7.4-2.3-10.6-5.9c-2.2-2.5-3.9-5.5-6.4-7.7c-0.8-0.7-1.6-1.3-2.4-2c-1.4-1.2-2.6-2.7-3.8-4.1c-4-4.8-7.9-9.6-11.9-14.4
	c-4.5-5.4-5.1-15.6-6.2-22.6c-0.2-1-0.3-2-0.4-3c0-0.1,0-0.2,0-0.3c-0.1-0.3-0.1-0.5-0.1-0.8c-1.4-9.7-0.1-16.8-0.1-16.8l0.1-0.2
	c0-0.1,0-0.2,0-0.3c0.4-1.9,2.5-6.1,3.8-7.9c0.8-2.2,2.4-5.1,4.2-7.5c1.4-2.1,3-4.2,5.3-5.4c1.8-0.9,5.8-1.2,4.6-4.6
	c-0.2-0.7-0.8-1.4-0.5-2c0.2-0.4,0.7-0.6,1.2-0.7c5-1.4,10.2-1.4,15.2-3c4.6-1.4,9-3.9,13-6.5c-1.3-0.3-2.7-0.6-4-0.9
	c0.3-2.4,3.1-3.5,5.5-3.7c2.7-0.3,5.5-0.1,8.3-0.5c2.7-0.4,5.5-1.4,7.3-3.5c0.6-0.7,1-1.5,1.6-2.2c1.5-1.5,3.9-1.8,6-2
	c7.2-0.7,12.9-4.6,20-6.1c5.1-1.1,9.5-3.8,14.9-3.5c14.8,0.9,19.3,21.9,27.4,31.5c2.9,3.3,6.1,6.4,8.8,9.9
	c5.1,6.5,8.6,14.3,9.9,22.5c1.8,11.6-1,22.2-2.9,33.5c-0.7,4.4-0.3,8.6-1.3,13c-1.2,5.2-3.2,9.9-5.5,14.7
	c-2.7,5.7-6.4,14.5-11.2,18.8c-6.7,6-18.1,8-26.7,8.6C118.8,161.3,110.8,160.7,102.9,159.8z"/>
<g>
	<path class="st1" d="M133.9,68.3c6.2-4.7,10.2-12.1,10.2-20.5c0-14.2-11.6-25.8-25.8-25.8c-14.2,0-25.8,11.6-25.8,25.8
		c0,8.3,4,15.8,10.1,20.5l-7.9,28.4c-0.3,0.9,0,1.9,0.8,2.6c0.5,0.4,1,0.6,1.6,0.6c0.4,0,0.7-0.1,1.1-0.2l20-9.5l20,9.5
		c0.9,0.4,1.9,0.3,2.7-0.4s1.1-1.6,0.8-2.6L133.9,68.3z M97.2,47.9c0-11.6,9.5-21.1,21.1-21.1s21.1,9.5,21.1,21.1S129.9,69,118.3,69
		S97.2,59.5,97.2,47.9z M119.3,85.2c-0.7-0.3-1.5-0.3-2.1,0l-16.1,7.7l6-21.8c3.4,1.6,7.2,2.6,11.2,2.6s7.8-0.9,11.2-2.6l6,21.8
		L119.3,85.2z"/>
</g>
<g>
	<path class="st1" d="M115.4,56.5c-0.6,0-1.2-0.2-1.6-0.7l-8-7.8c-0.9-0.9-0.9-2.4,0-3.3c0.9-0.9,2.4-0.9,3.3,0l6.3,6.2l11.9-12
		c0.9-0.9,2.4-0.9,3.3,0c0.9,0.9,0.9,2.4,0,3.3l-13.6,13.7C116.6,56.2,116,56.5,115.4,56.5z"/>
</g>
<path class="st1" d="M64.4,97.7c2.6,0,5.2,0,7.7,0c2.8,0.1,5.3,1,6.5,3.8c0.5,1.1,1.3,1.2,2.2,1.1c7.8-0.5,15.2,1.1,22.3,4.3
	c3.1,1.4,6.5,1.9,10,1.8c3.1-0.1,6.2,0,9.2,0c3.1,0,6,0.7,8,3.3c0.7,0.9,1.6,1,2.6,0.7c6.5-1.3,13.1-2.5,19.6-3.8
	c4.5-0.9,8.5,1.3,10,5.4c1.5,4.1-0.1,8.3-4.2,10.3c-13.4,6.5-26.8,13-40.3,19.4c-3.3,1.6-6.9,0.8-10.3,0c-8-1.9-15.4-5.2-23.1-7.9
	c-1.3-0.5-2.7-0.9-4.1-1.2c-0.9-0.2-1.8-0.3-2.5,0.6c-1.6,2.2-4,2.6-6.4,2.7c-5,0-10-0.1-15,0c-2.3,0-2.8-1-2.8-3
	c0-2.1,0.8-2.7,2.8-2.7c6.9,0,6.9-0.1,6.9-7.2c0-6.4-0.1-12.8,0-19.2c0-2-0.6-3-2.7-2.8c-1.3,0.1-2.7-0.1-4,0
	c-2.2,0.2-3.1-0.6-3.1-2.9c0-2.2,0.9-2.9,3-2.8C59.4,97.8,61.9,97.7,64.4,97.7z M114.1,120.1C114.1,120.1,114.1,120.1,114.1,120.1
	c3.2,0,6.3,0,9.5,0c1.6,0,3-0.8,3.2-2.6c0.1-1.9-1.3-2.8-3-3c-1.6-0.2-3.2-0.2-4.7-0.1c-7.5,0.4-14.8-0.3-21.7-3.6
	c-5.1-2.4-10.4-2.6-15.9-2.5c-1.6,0-2.2,0.7-2.2,2.2c0,5.4,0,10.8,0,16.2c0,1.5,0.6,2.2,2.2,2.4c1.8,0.2,3.5,0.8,5.3,1.5
	c6.9,2.5,13.8,4.9,20.7,7.3c4.2,1.4,8.1,1.3,12.2-0.9c7.8-4.1,15.8-7.8,23.8-11.6c4.1-1.9,8.1-3.8,12.2-5.8c1.4-0.7,2.2-1.8,1.6-3.5
	c-0.6-1.6-1.9-2-3.4-1.6c-6.4,1.3-12.7,2.5-19.1,3.8c-1.1,0.2-1.9,0.6-2.5,1.8c-1.7,3.9-4.8,5.8-9,5.8c-5.4,0-10.8,0-16.2,0
	c-0.9,0-2.1-0.3-2.6,0.6c-1.1,1.9-2.9,1.3-4.4,1.5c-1.5,0.2-1.9-0.6-1.7-1.9c0.3-3.3,3-5.8,6.9-5.9
	C108.1,120,111.1,120.1,114.1,120.1z M73.2,118.1c0-4.1,0-8.1,0-12.2c0-1.2,0.1-2.4-1.7-2.4c-1.7,0-1.8,1.1-1.8,2.3
	c0,8.1,0,16.3,0,24.4c0,1.2-0.1,2.4,1.7,2.4c1.9,0,1.8-1.3,1.8-2.6C73.2,126,73.2,122,73.2,118.1z"/>
<g>
	<g>
		<path class="st2" d="M186.2,23.1"/>
	</g>
</g>
<g>
	<g>
		<path class="st2" d="M232.2-18.9"/>
	</g>
</g>
<path class="st3" d="M143-15.8v0.1C143-15.7,143-15.7,143-15.8C143-15.8,143-15.8,143-15.8z"/>
</svg>
