<?xml version="1.0" encoding="utf-8"?>
<!-- Generator: Adobe Illustrator 22.0.1, SVG Export Plug-In . SVG Version: 6.00 Build 0)  -->
<svg version="1.1" id="Layer_1" xmlns="http://www.w3.org/2000/svg" xmlns:xlink="http://www.w3.org/1999/xlink" x="0px" y="0px"
	 viewBox="0 0 255.1 255.1" style="enable-background:new 0 0 255.1 255.1;" xml:space="preserve">
<style type="text/css">
	.st0{fill:#4E5D44;}
</style>
<g>
	<path class="st0" d="M195.6,120.4c0.5-0.2,1.1-0.3,1.4,0.2c0.2,0.3,0.6,0.3,1.1,0.3c1.3,0.1,2.2,0.6,2.2,2c0,0.2,0.1,0.5,0.2,0.8
		c1.7,2.3,2.2,5,2.9,7.5c0.2,0.9,0.8,2.2,0.1,3.4c-0.3,0.8,0,1.4,1.1,0.8c0.5-0.2,1.1-0.2,1.7-0.5c2.8-0.8,4.4-2.9,5.9-5.2
		c0.3-0.5,0.6-1.3,1.3-1.4c0-0.8-1.3-0.3-0.8-1.1c0.2-0.5,0.6-1.1,1.4-0.9c0.3,0.1,0.5-0.2,0.5-0.5c0.5-1.6,1.1-3.1,0.8-4.7
		c-0.3-1.3,0.3-2.1,1.3-2.5c1.1-0.6,2-1.7,3.1-2.3c1.1-0.6,0.9-2,0.8-3.1c0-0.5-0.1-0.8-0.1-1.3c0-0.3-0.2-0.8,0.2-0.8
		c0.5-0.1,0.5,0.5,0.5,0.6c1.1,2.5,0.2,5.8-2.1,6.6c-1.3,0.5-1.7,1.6-2.7,2c-0.5,0.2-0.2,1.1-0.1,1.6c0.6,2.3-0.3,4.4-1.3,6.3
		c-0.5,0.9-1.1,2.1-2,2.7c-2,1.4-3.3,3.8-5.7,4.7c-1.1,0.5-2.1,0.5-3.1,0.9c-0.8,0.3-1.1,0.6-1.1,1.4c-0.2,2.5-0.5,5-0.8,7.4
		c-0.1,0.5-0.3,0.9-0.8,1.3c-2.9,1.9-5.3,4.2-8.2,6c-2.3,1.4-4.6,2.9-6.9,4.4c-3.5,2.2-6.9,4.4-10.5,6.6c-3.1,1.9-6.3,3.8-9.4,5.7
		c-2,1.3-4.1,2.2-6,3.5c-2.2,1.4-4.4,2.8-6.6,4.1c-1.6,0.9-3.3,1.4-4.9,2.4c-1.1,0.6-2.4,0.3-3.5,0c-2.2-0.6-4.4-0.6-6.6-1.4
		c-2.8-1.1-5.7-1.7-8.6-2.3c-1.3-0.3-2.6-0.8-3.9-0.8c-0.5,0-1.1-0.5-1.7-0.6c-1.6-0.8-3.3-0.9-5-1.4c-1.4-0.5-2.7-0.8-4.1-0.9
		c-0.9-0.1-1.7-0.2-2.7-0.5c-6.3-1.7-12.7-3.2-19.1-4.9c-2.8-0.8-5.7-1.6-8.4-2.5c-0.9-0.3-1.1,0.1-1.1,0.8c0,4.4-1.3,8.7-2.3,13
		c-0.5,1.7-0.8,3.2-1.4,4.9c0.1-1.1,0-2.2,0.3-3.1c0.8-2.5,0.6-5.2,1.1-7.7c0.3-2,1.1-3.8,1.1-5.8c0-0.6,0-1.4,0.1-2
		c0-0.2-0.1-0.5-0.2-0.5c-1.1-0.1-1.7-0.9-2.6-1.1c-1.7-0.1-2.6-1.3-3.9-1.9c-0.5-0.2-0.5-0.6-0.3-1.1c0.3-1.7-0.5-3.3-0.9-4.9
		c-0.6-2.3-0.5-4.4-0.8-6.7c-0.5-4.4-0.2-9-1.1-13.4c-0.3-1.7-0.5-3.3-0.2-5c0.1-0.6-0.2-1.4-0.5-2c-0.2-0.5,0.1-0.8,0.3-1.1
		c0.5-0.3,0.5,0,0.8,0.3c0.1,0.2,0.3,0.2,0.5,0.1c1.6-0.9,3.5-1.1,4.7-2.7c0.1-0.1,0.3-0.2,0.5-0.2c2.3-0.1,4.1-1.1,6.1-2.2
		c1.1-0.6,2.3-1.1,3.6-1.1c0.8,0,0.3-0.6,0-1.1c0.8,0,1.4,0.5,2.1-0.1c-0.1-0.3-0.5-0.5-0.8-0.5c-1.4,0.1-1.6-0.9-1.7-2
		c-0.2-1.7-0.2-1.7-1.9-1.3c-1.7,0.6-3.6,0.9-5.3,1.7c-2.1,0.9-4.1,2.1-6.3,2.6c-1.1,0.3-2.4,0.5-3.5,1.3c0,0-0.1,0.1-0.1,0
		c-0.9-0.6-2-0.9-3.2-0.9c-0.2,0-0.2-0.3,0-0.5c1.3-1.4,3-1.7,4.7-2.3c0.3-0.1,0.5,0.2,0.6,0.5c0.6,0.5,1.3,0.8,2.1,0.8
		c1.1,0,1.4-0.6,1.1-1.7c-0.2-0.5,0.2-0.8,0.6-1.1c1.1-0.3,1.6-1.4,2.7-1.6c0.5-0.1,0.6-0.6,0.5-1.3c-0.5-0.9-0.5-1.9-0.8-3
		c1.1,0.3,0.8,1.4,1.4,1.7c0.1-0.6-0.1-1.1-0.2-1.6c-0.1-0.2,0.1-0.5,0.3-0.5c0.3,0,0.3,0.1,0.3,0.5c0.1,1.1,0.3,2.3-0.1,3.5
		c0.8-0.3,1.3-0.3,1.4,0.3c-0.2,0.5-0.9,0.3-1.1,1.1c1.3,0.2,2.4-0.3,3.3-0.8c1.1-0.5,2.3-0.5,3.4-0.8c1.4-0.5,3-0.5,4.6-0.8
		c0.8-0.1,2.4,1.4,2.6,2.2c0.5,1.4,0.2,2.1-1.1,2.9c-1.4,0.9-2.7,2.2-4.4,2.6c-0.8,0.2-0.8,0.8-0.8,1.3c1.1,4.4,0.5,8.9,1.1,13.4
		c0.1,0.5,0.2,1.1,0.2,1.4c-0.3,2.5,0.9,3.3,3.1,3.9c6,1.6,11.8,3.8,17.7,5.6c4.7,1.4,9.3,3.1,13.8,4.7c1.1,0.5,2.4,0.8,3.6,0.6
		c0.3,0,1.1-0.1,1.1,0.6c-0.1,0.6-0.8,0.8-1.3,0.6c-3-0.9-6.3-1.6-9.3-2.7c-1.7-0.6-3.5-0.9-5.2-1.4c-2.4-0.8-4.9-1.6-7.2-2.5
		c-1.4-0.5-2.9-0.9-4.4-1.6c-0.6-0.2-1.3-0.3-2-0.5c-0.2,0-0.6,0-0.8-0.1c-1.7-1.7-4.1-1.1-5.9-2.2c-0.8-0.5-1.4-0.8-2.3-0.9
		c-2.4-0.5-2.4-0.6-2.6-3.1c-0.3-4.7,0-9.3-0.8-14c-0.1-0.5-0.1-0.8-0.3-1.3c-0.3-0.5,0.5-0.8,0.5-1.4c-1.4,1.6-3.8,1.1-5.3,2.3
		c-0.6,0.5-1.7,0.8-2.6,0.9c-1.1,0.3-2.1,0.9-3,1.4c-0.8,0.5-1.6,0.5-2.3,0.8c-1.4,0.5-1.7,1.6-1.6,2.6c0.3,1.3-0.1,2.5,0.1,3.6
		c0.5,2.8,0.6,5.6,0.9,8.5c0.3,2.6,0.3,5.2,0.5,7.8c0.3,3,0.8,6,1.1,9c0.1,1.4,1.1,2.1,2.3,2.4c3.8,0.8,7.4,2.3,11.2,3
		c1.7,0.3,3.4,1.1,5.2,1.7c1.4,0.5,2.8,0.6,4.2,0.9c1.7,0.5,3.5,1.1,5.2,1.7c1.1,0.5,2.1,0.8,3.2,0.9c3.8,0.6,7.2,2,11,2.8
		c2.9,0.6,6,0.9,8.8,2c4.6,1.7,9.3,2.1,14,3.2c0.8,0.2,1.7,0.2,2.5,0.5c1.4,0.5,2.1,0,2.2-1.4c0.1-0.8,0.1-1.7-0.1-2.6
		c-0.5-1.6,0.2-3.1-0.3-4.7c-0.1-0.2,0.3-0.5,0.5-0.8c0.5-0.5,0.3-1.6,0-1.6c-1.7-0.1-0.3-1.1-0.3-1.4c0.3-1.6,0-3,0-4.6
		c0-1.7-0.3-3.4,0.1-5.3c0.2-0.8-0.1-1.9,0.1-2.7c0.3-1.6-0.2-3,0.1-4.6c0.2-1.3,0.3-2.6,0.1-3.8c-0.3-2.2,0-4.2,0-6.4
		c0-1.4,0-2.8,0-4.1c0-1.3,0.2-2.6,0.2-3.8c0.1-1.9-0.3-3.8,0.1-5.5c0.5-1.7-0.1-3.5,0.2-5.2c0.3-1.7,0-3.8,0.1-5.6
		c0.1-2.6,0.3-5.2,0.2-7.9c-0.1-1.4,0.3-2.9,0.5-4.4c0.1-0.8-0.5-1.3-0.3-2c0.2-2,0.5-4.1,0.5-6c0.1-2-0.2-4.1-0.2-6.1
		c0-2.2-0.1-4.2,0.1-6.4c0.1-0.8-0.3-1.7-0.2-2.6c0.3-2.7-0.5-5.3,0-8c0.2-0.9-0.1-2,0.5-2.8c0-0.1,0.1-0.2,0.1-0.2
		c-1.3-0.6,0.1-1.7-0.5-2.4c-0.1-0.1-0.2-0.5-0.1-0.6c0.8-1.7-0.3-3.4,0.1-5c0.1-0.5-0.1-0.9,0.5-1.3c0.1-0.1,0.2-0.3,0.1-0.3
		c-0.8-0.8-0.5-1.7-0.5-2.7c0-1.1-0.5-2.4-0.1-3.5c0.1-0.8,0-1.6,0.3-2.3c0.1-0.3-0.1-0.6-0.5-0.8c-0.5-0.2-0.8-0.6-0.6-1.1
		c0.5-1.1-0.6-0.9-0.8-0.8c-0.9,0.8-2,0.5-2.8,0.3c-3.9-0.5-7.9-0.8-11.8-1.1c-2.5-0.2-5-0.1-7.7-0.5c-4.1-0.5-8.3-1.1-12.4-1.6
		c-2.2-0.3-4.4-0.5-6.6-0.8c-3.8-0.5-7.5-1.1-11.3-1.7c-4.6-0.2-9.3-0.7-14-1.4c-4.1-0.6-8.1-1.4-12.1-2.1C66.2,37,64.9,37,63.7,37
		c-0.5,2,0.5,3.8,0.8,5.7c0.8,5.5,1.6,10.9,2.4,16.3c0.5,3.1,1.1,6.1,1.4,9.3c0.2,1.7,0.5,3.3,0.5,5c0.1,1.9,0.6,3.8,1.1,5.7
		c0.5,2.4,0.6,4.7,1.3,7.1c0.1,0.5,0.1,1.4-0.9,1.4c2.3,0.8,4.4,0.1,6.6,0.1c-0.3,0.8-0.8,0.8-1.4,0.9c-0.3,0.1-0.6,0-0.8,0.1
		c-1.9,0.2-2,0.5-1.3,2.2c0.3,0.6,0.5,1.4,0.1,2.1c-0.1,0.2-0.2,0.5-0.5,0.5s-0.3-0.5-0.1-0.6c0.5-0.8-0.1-1.4-0.3-2
		c-0.2-0.5-0.8-0.8-1.1-0.5c-0.5,0.2-0.5,0.6-0.1,1.1c0.1,0.1,0.1,0.3,0.1,0.5c-0.5,1.1,0,1.9,0.5,2.7c0.1,0.3,0.5,0.5,0.1,0.8
		s-0.6-0.1-0.9-0.5c-0.5-0.8-0.9-1.4-0.9-2.4c0-0.5-0.1-0.9-0.3-1.4c-0.5-0.8-1.1-0.8-1.4-0.2c-0.9,1.4-2.2,2.6-3.4,3.8
		c-1.3,1.3-2.6,2.4-3.8,3.8c-0.2,0.2-0.5,0.5-0.8,0.2c-0.2-0.2,0-0.5,0.1-0.8c0.8-1.4,2.2-2.2,3-3.4c0.8-1.3,2.2-1.7,2.9-3
		c0.6-1.1,1.4-2,2.5-2.7c1.1-0.8,1.1-2.1,0.8-3.2c-0.2-2.2-0.5-4.2-1.1-6.3c-0.9-3.9-1.4-8.1-1.7-12.1c-0.1-2.1-0.8-3.9-0.9-6
		c-0.2-2.4-0.5-4.7-0.9-7.2c-0.2-1.6-0.5-3.1-0.9-4.7c-0.5-2-0.8-3.9-0.9-6c-0.1-2.5-0.2-5-0.8-7.4c-0.2-0.8-0.1-1.1,0.6-1.3
		c2-0.3,3.8-0.8,5.9-0.2c1.6,0.5,3.2,0.8,4.7,0.3c0.2-0.1,0.5-0.1,0.6-0.1c3.4,1.1,6.9,0.8,10.5,1.4c4.6,0.8,9.1,1.3,13.7,1.7
		c6.6,0.8,13.3,1.7,20,2.3c2.7,0.3,5.5,0.3,8.2,0.8c1.4,0.2,2.8-0.1,4.1,0.3c1.1,0.3,2.2,0.1,3.2,0.3c3.8,0.5,7.4,0.9,11.2,1.1
		c1.1,0.1,2.3-0.2,3.4-0.1c1.6,0.2,2.7-0.6,3.6-1.4c0.9-0.8,1.7-0.6,2.6-0.5c1.1,0.3,2.2-0.1,3-0.8c0.6-0.5,1.4-0.3,2.1-0.8
		c2.1-1.1,4.1-2.2,6.3-3.1c1.7-0.8,3.8-1.4,5.3-2.5c2-1.4,4.2-2.5,6.1-4.1c1.1-0.9,2.8-1.4,4.2-2.2c2.5-1.4,5.2-2.7,7.7-4.1
		c2.4-1.4,5-2.6,7.5-3.8c1.1-0.5,2-1.1,2.9-1.7c0.3-0.2,0.8-0.5,1.1,0.1c0.2,0.5-0.2,0.8-0.6,0.9c-3.1,1.4-6,3.3-9.1,4.7
		c-4.4,2.2-8.6,4.7-12.9,7.2c-4.4,2.5-8.7,5-13.3,7.2c0.9,0,3-0.6,3.8-1.1c1.1-0.5,2.3-0.6,3.4-1.1c2.5-1.1,5-1.9,7.5-2.7
		c2.8-0.9,5.7-1.4,8.4-2.7c0.9-0.5,1.9-1.3,2.8-1.3c1.7,0,2.9-1.3,4.4-1.4c0.2,0,0.1-1.3,0.6-0.2c0.5,0.8-0.2,1.1-0.9,1.4
		c-5.2,2.2-10.4,4.1-15.7,5.7c-5.2,1.4-10.2,3.6-15.1,5.4c-2,0.8-3.8,1.9-5.7,2.6c-0.5,0.1-0.9,0-1.4,0.5c0.5,0.6,1.1,0.6,1.9,0.5
		c5-1.7,9.9-3.3,14.9-5.2c2.8-1.1,5.7-2.2,8.5-3.2c3.1-1.3,6.3-2,9.4-3.4c3.8-1.7,7.8-2.7,11.4-4.7c1.9-1.1,4.1-1.7,6.1-2.5
		c0.3-0.1,0.6-0.2,0.9-0.8c-0.8,0.2-1.4,0.3-2.1,0.5c-0.8,0.2-1.7,0.8-2.6,0.1c-0.1,0.3-0.8-0.6-0.8,0.5c0.1,0.5-0.5-0.1-0.8,0l0,0
		c0.1-1.1,0.9-1.4,2.4-0.8c-0.6-0.8,0.1-1.3,0.5-1.4c1.3-0.5,2.2-1.4,3.3-1.7c1.4-0.5,2.1,0.2,2.1,1.6c-0.1,0.9-0.2,1.9-0.2,2.8
		c0,0.5,0.3,1.7-0.9,1.7c0,0-0.1,0.2-0.1,0.3c0.3,1.1,0,2.4-0.2,3.4c-0.5,1.7-0.1,3.3-0.5,5c-0.3,1.7-0.1,3.5-0.5,5.2
		c-0.5,3.1-0.5,6.3-0.6,9.4c-0.2,4.4-0.5,8.9-0.3,13.5c0,3,0.1,5.9-0.2,8.9c-0.1,0.6-0.1,1.4-0.6,1.9c0.8-0.1,1.3,0.2,1.6,0.5
		c0.8,0.8,1.4,1.7,2.1,2.6c0.1,0.2,0.2,0.5,0.1,0.5c-0.2,0.2-0.3,0-0.5-0.1c-0.5-0.2-1.1-0.3-1.1-0.8c-0.5-1.1-1.3-1.7-2.5-1.7
		c-0.5,0-0.6-0.1-1.1,0.2c-0.5,0.5-1.4,0.6-2.2,0.5c0.2-0.8,2.2-0.5,1.1-2c2-0.2,1.9-0.2,2-1.9c0.5-4.4,0-8.7,0.2-13
		c0.2-2.9,0.5-5.8,0.5-8.7c0-2.2,0.2-4.4,0.1-6.6c-0.1-1.7,0.5-3.4,0.5-5.2c-0.1-2.9,0.2-5.8,0-8.8c-0.1-0.8-0.1-1.6,0.8-2.3
		c0.5-0.5,0.6-1.7,0.3-2.8c-2.8,0.8-5.3,2.1-7.9,3.3c-2,0.9-3.8,1.9-5.9,2.6c-2.1,0.8-4.1,1.7-6.3,2.5c-2.2,0.8-4.4,1.1-6.6,2.1
		c-3,1.4-6.3,2.6-9.3,3.8c-2.9,1.1-5.7,2.4-8.7,3.1c-1.4,0.5-2.9,1.3-4.4,1.6c-1.1,0.2-2.1,1.1-3.5,1.1c-1.1-0.1-2.5,1.1-3.8,0.9
		c-1.1-0.2-1.4,0.6-1.6,1.1c-0.2,0.8-0.1,1.7-0.1,2.7c0,2.4,0.2,4.7,0,7.2c-0.2,2.3-0.2,4.4-0.3,6.7c0,2.1,0.1,4.1,0.1,6.1
		c-0.1,3.6,0.1,7.2,0,10.9c0,1.4,0,2.8,0,4.1c0,1.1,0.1,2.4,0.1,3.6c0.1,2.3-0.1,4.4-0.2,6.7c-0.1,2.1,0,4.1-0.1,6.1
		c-0.1,2.2,0.1,4.4,0,6.6c-0.2,2.6-0.3,5.3,0.1,8c0.1,0.8-0.1,1.4-0.1,2.1c-0.3,2.9-0.3,5.8-0.3,8.7c0,0.9-0.2,1.7,0,2.7
		c0.2,0.8-0.3,1.1-1.1,1.1c-0.8,0-0.5-0.6-0.5-1.1c0.1-0.6,0.1-1.3,0.1-1.9c0-0.2-0.1-0.5,0-0.5c1.3-1.1-0.1-2.2,0-3.2
		c0.1-0.9,0.2-1.9,0.5-2.8c0-0.1,0.1-0.2,0.1-0.3c-0.5-3.5,0-7.1-0.3-10.5c-0.1-1.7,0.3-3.3,0.1-4.9c-0.5-3.1,0.1-6.3,0.1-9.4
		c0-1.7-0.1-3.8,0.3-5.5c0.1-0.2,0.1-0.5,0-0.6c-0.6-2.7,0-5.5-0.5-8.2c-0.2-1.4,0-2.8,0-4.2c0-4.2-0.1-8.5,0.1-12.7
		c0.1-2.7,0-5.4,0.3-8c0.1-0.8-0.2-1.7-0.2-2.3c0.2-1.7-0.6-3.3,0-5c0.2-0.6,0-1.1-0.3-1.7c0-0.1-0.3-0.1-0.3-0.1
		c-0.3,0.5-0.5,0.9-0.5,1.4c0,2.8-0.1,5.5,0.1,8.3c0.1,2.9-0.1,5.8-0.1,8.7c0,3,0,5.9,0,8.9c0,3,0.3,6.1,0,9.1
		c-0.1,1.3,0.5,2.5-0.1,3.8c-0.1,0.3-0.3,0.9,0.3,1.3c0.5,0.2-0.5,0.5-0.3,0.9c0,1.1-0.5,2.9,0.2,3.4c1.1,1.1-0.3,1.1-0.2,1.6
		c0.3,2,0.1,3.9,0.3,5.9c0.1,1.1-0.5,2.4-0.3,3.5c0.1,1.7,0.2,3.3,0,4.9c-0.2,1.7,0,3.5-0.3,5.3c-0.1,0.8,0.3,1.7-0.1,2.3
		c-0.5,0.9,0.2,1.9,0,2.8c-0.2,1.1,0,2.2-0.1,3.3c-0.2,3.2-0.1,6.3-0.6,9.6c-0.3,2.4-0.1,4.7-0.1,7.2c0,2.3,0.1,4.6,0,6.9
		c-0.2,7.5-0.1,15.1-0.3,22.5c-0.1,2.3,0.2,4.7,0,6.9c0,0.5,0.2,0.9,0.8,0.9c0.6,0,0.5-0.6,0.5-0.9c0.8-2.5,0.1-5,0.5-7.5
		c0.1-1.1-0.1-2.3,0.5-3.4c0.1-0.2,0-0.5,0.3-0.5c0.5,0,0.5,0.3,0.5,0.6c0,0.1,0,0.2,0,0.2c-0.9,2.9-0.1,6-0.5,8.9
		c0,0.2,0.1,0.5,0,0.6c0,0.8-0.5,1.7,0.6,2c0.9,0.2,2-0.3,2.5-1.1c0.8-1.3,2.2-1.7,3.4-2.5c1.1-0.8,2.1-1.7,3.4-2.4
		c1.7-0.8,3.1-1.7,4.7-2.5c0.9-0.5,1.7-1.1,2.7-1.7c0.9-0.6,2-1.3,2.9-1.9c1.4-0.8,2.7-1.9,4.1-2.6c2-0.9,3.3-2.6,5.4-3.4
		c1.1-0.5,2.4-0.9,3.2-1.6c1.1-0.9,2.4-1.6,3.5-2.5c1.3-1.1,2.5-2,4.2-2.3c0.6-0.1,0.8-0.9,1.4-1.3c1.3-0.6,2.4-1.4,3.4-2.2
		c0.9-0.8,2.4-1.4,3-2.5c0.1-0.3,0.3-0.5,0.6-0.6c1.7-0.2,2-1.6,2-2.9c0-4.1,1.4-8.2,0.6-12.4c-0.5-2.5-0.6-5.2-2.2-7.5
		c-0.9-1.4-2-2.4-3.4-3C195.9,120.9,195.7,120.7,195.6,120.4L195.6,120.4z M66.2,35.8c0.5,0.5,0.9,0.6,1.6,0.6
		c1.6,0.2,3,0.3,4.6,0.6c2,0.5,3.8,0.8,5.8,0.9c2.3,0.2,4.6,0.9,6.9,0.8c1.1,0,2.4,0.2,3.5,0.5c2.4,0.5,4.9,0.8,7.2,1.1
		c1.7,0.2,3.4,0.9,5,0.8c2-0.1,3.8,0.6,5.7,0.6c1.3,0.1,2.5,0,3.8,0.3c0.8,0.2,1.7,0.8,2.6,0.6c1.7-0.5,3.3,0.3,4.9,0.5
		c1.7,0.2,3.2,0.8,4.9,0.8c1.7,0.1,3.6,0.8,5.3,0.1c0.9-0.3,1.6-0.1,2.3,0.1c0.5,0.2,1.1,0.2,1.7,0.3c1.4,0.3,2.8-0.5,4.1,0.1
		c1.1,0.5,2.3,0,3.4,0.2c0.6,0.1,1.3-0.1,1.7,0.2c1.4,0.8,2.7,0.3,4.1,0.2c0.3,0,0.5-0.1,0.5-0.5c0-0.3-0.2-0.5-0.5-0.5
		c-0.2-0.1-0.5-0.2-0.8-0.2c-3.3-0.1-6.6-0.8-9.9-1.1c-2.7-0.2-5.4-0.2-8-0.6c-2.2-0.3-4.4-0.6-6.6-1.1c-2.4-0.5-4.9-0.3-7.4-0.6
		c-3.6-0.5-7.2-0.8-10.8-1.4c-3.2-0.5-6.4-0.8-9.6-1.4c-2.7-0.5-5.3-0.6-8-0.9c-3.9-0.5-7.9-1.1-11.9-1.4
		C70.5,36,68.3,35.9,66.2,35.8z M89.6,116.9c1.3,1.4,2.6,0.6,3.8,0.1c0.6-0.2,0.8-0.8,0.8-1.3c0-0.3-0.2-0.8-0.8-0.6
		C92.1,115.6,90.5,115.6,89.6,116.9z M147.2,45.5c0.5,0,1.1,0.1,1.4,0.3c0.8,0.3,2.2-0.5,2-0.6c-0.5-0.5-0.5-1.4-1.1-1.6
		s-1.1,0-1.7,0.5C147.5,44.5,147.7,45,147.2,45.5z M153.8,43.1c-0.2,0.3-0.9,0-1.1,0.5c-0.1,0.3,0.3,0.5,0.6,0.5
		c0.5-0.1,1.1-0.1,1.1-0.6C154.5,43.1,154.1,43.3,153.8,43.1z"/>
	<path class="st0" d="M80.8,94.8c0.1-0.5,0.5-0.5,0.9-0.6c1.1-0.2,2.2-0.5,3.2-0.6c0.2,0,0.5-0.2,0.5-0.5c-0.1-0.5-0.3-0.2-0.5-0.1
		c-1.4,0.2-2.1-0.3-2.3-1.7c-0.1-0.8-0.5-1.4-0.2-2.2c0.3-1.1-0.3-1.1-1.1-1.1c-0.6,0-1.3,0.3-2-0.3c0.9-0.5,1.9-0.3,2.7-0.3
		c0.8,0,0.9-0.3,0.8-0.8c-0.9-1.9-0.2-3.8-0.5-5.7c-0.3-2.8,0.2-5.6-0.5-8.3c-0.3-1.4-0.5-2.9-0.2-4.4c0.2-0.9,1.3-2.1,2.2-2.1
		c2.9,0,5.8,0.1,8.7,0.6c5.8,0.9,11.6,2.2,17.3,3.6c3.6,0.8,7.4,1.1,11.1,1.7c1.9,0.2,3.8,0.8,5.6,1.4c0.3,0.1,0.6,0.3,0.8,0.2
		c1.6-0.3,1.7,0.5,1.6,1.7c-0.1,1.1,0.2,2.2,0.5,3.3c0.2,1.1,0.5,2.4,0.3,3.5c-0.1,2.8,0.1,5.6,0.1,8.4c0.1,3,0,5.9,0,8.9
		c0,2.9,0.8,5.8,0.5,8.8c-0.2,3.6,0.5,7.2,0.1,10.9c-0.2,2.3,0.1,4.6,0.2,6.7c0,3.8,0,7.5,0.2,11.3c0.2,4.2,0.5,8.4,0.8,12.6
		c0.1,0.8,0,1.4-0.3,1.9c-0.1,0.3-0.5,0.5-0.8,0.5c-0.5-0.1-0.1-0.5-0.1-0.8c0-1.4-0.2-2.7-0.2-3.9c0-2.7-0.8-5.3-0.6-8.1
		c0.1-2.8,0.1-5.7,0-8.5c-0.1-3.4-0.2-6.9-0.5-10.4c-0.1-1.4-0.1-2.8,0.1-4.1c0.2-1.9-0.2-3.8-0.2-5.7c0-2.8-0.1-5.7-0.3-8.5
		c-0.3-4.1-0.1-8.4-0.2-12.6c-0.1-4.1-0.5-8.2-0.6-12.4c-0.1-1.6-0.6-2.3-2.3-2.5c-3.2-0.5-6.3-1.1-9.6-1.6c-3.6-0.5-7.2-1.3-10.8-2
		c-2.6-0.5-5.2-1.3-7.8-1.9c-4.7-1-9.3-1.7-14.2-1.7c-0.3,0-0.6,0-0.6,0.5c0.1,0.8-0.3,1.6-0.2,2.4c0.5,4.1,0.6,8.1,0.8,12.1
		c0,1.1,0,2.4,0.5,3.5c0.1,0.5,0.2,0.9-0.5,1.4c1.1,0,2.1,0,3.1,0c0.2,0,0.5-0.1,0.5,0.3c0,0.3-0.2,0.5-0.5,0.5
		c-0.5-0.1-0.8,0.5-1.4,0.2c-0.3-0.2-0.8-0.2-0.9,0.2c-0.2,0.3-0.3,0.8-0.1,1.1c0.3,0.5,0.6,1.1,0.6,1.9c-0.5-0.3-0.5-0.9-1.1-1.1
		c-0.1,0.8-0.2,1.4,0.5,1.7c0.5,0.2,0.5-0.3,0.6-0.8c0.8,0.6,1.4,0.3,2.2,0c0.5-0.2,1.1-0.3,0.6-1.1c-0.2-0.6-0.1-1.6-0.2-2.3
		c0-0.5,0.3-0.6,0.8-0.5c0.2,0.1,0.5,0.1,0.5,0.3c0.8,1.1,1.9,1.3,3.1,1.1c0.3,0,0.8-0.1,0.8,0.5c-0.1,0.5-0.5,0.3-0.8,0.3
		c-1.3,0.1-2.5,0.2-3.1-1.4c0.5,0.8-0.1,2,1.4,2.2c0.3,0,0.5-1.1,0.8-0.1c0.1,0.6-0.1,0.9-0.8,1.3c-0.6,0.3-1.1,1.1-2,1.1
		c0.9,0.5,1.9,0.1,2.8,0.2c0.5,0,0.9,0,0.9,0.5s-0.5,0.3-0.9,0.3c-0.6,0-1.4,0-2,0c-0.2,0.5,0.2,0.5,0.3,0.8c0,0.6-0.8,1.7,0.5,1.7
		c0.6,0,1.3,0.1,1.9-0.1c1.4-0.3,2.9-0.1,2.2-2.5c-0.3-1.1,0.5-2.4,0.5-3.6c0-0.3,0.1-0.5,0.5-0.5c0.5,0,0.9,0.5,1.1,0.8
		c0.5,1.1,1.4,2.1,2.1,3.1c0.5,0.8,0.9,1.3,1.6,1.7c0.3,0.2,0.6,0.3,0.9,0.2c0.3-0.2,0.1-0.5,0.1-0.8c0-1.1,0.1-2.2,0.1-3.3
		c0-0.3,0-0.8,0.5-0.8s0.6,0.5,0.5,0.9c-0.2,1.9-0.1,3.6,0,5.4c0,0.5,0,0.9,0.1,1.4c0.1,0.8,0,1.4-0.8,1.7c-0.9,0.3-1.1,1.7-2.4,1.6
		c-0.2,0-0.2,0.3-0.1,0.5c0.1,0.2,0.3,0.3,0.5,0.2c0.5-0.3,1.1-0.2,1.6-0.3c0.9-0.2,1.7,0,2.2,0.9c0.3,0.6,0.6,1.4,0.9,2
		c0.5,0.9,0.2,1.4-0.8,1.7c0.3-0.9-0.1-1.7-0.3-2.6c-0.1-0.2-0.1-0.5-0.5-0.5c-0.3,0.1-0.5,0.5-0.2,0.5c0.9,1.1,0,2.2,0.5,3.2
		c0,0.1-0.2,0.3-0.3,0.3c-0.8-0.2-1.1,0.6-1.6,1.1c-0.5,0.5-0.8,0.9-1.6,0.2c-0.2-0.2-0.5-0.1-0.8-0.2c-1.3-0.1-1.4-0.5-0.9-1.4
		c0.1-0.1,0.3-0.3,0.3-0.3c1.7,0.8,2.3-0.8,3.3-1.4c0.2-0.1,0.8-0.2,0.6-0.8c-0.2-0.5-0.6-0.5-1.1-0.5c-0.8,0-1.4,0.1-2.2,0.2
		c-0.6,0.1-0.5,0.8-0.5,1.1c0,0.3,0.1,0.8-0.5,0.8c-0.5,0-0.5-0.5-0.5-0.8c0-0.8-0.1-0.9-1.1-0.8c-2.9,0.3-5.5,1.6-8.2,2.4
		c-2.6,0.8-5,1.7-7.5,2.5c-3.8,1.1-7.4,2.8-11.1,3.9c-0.6,0.2-1.3,0.3-1.7,0.8c-0.3,0.3-1.4,0.8-1.1-0.6c0.1-0.6-0.5-0.8-0.9-1.3
		c0.5-0.5,1.1-0.5,1.4-0.5c2.3-0.5,4.1-1.7,6-2.7c1.1-0.6,2.2-1.4,3.4-1.7c2.5-0.5,4.7-1.6,7.2-2.1c0.8-0.2,1.4-0.8,2.2-1.1
		c1.7-0.6,3.5-0.8,5.2-1.4c1.7-0.8,3.6-1.6,5.8-1.6c-0.6-0.6-1.4-0.5-1.9-0.5c-1.4-0.1-2.3-1.1-1.7-2.4c0.2-0.5,0.6-0.9,0.3-1.3
		c-0.3-0.5-1.1-0.2-1.6-0.1c-0.6,0.1-1.3,0.2-1.9-0.2c-0.8-0.5-2.5,0.9-2.3,1.9c0,0.2,0.1,0.3,0.1,0.5c-0.2,0.5,0.9,1.1,0.1,1.4
		c-0.5,0.2-0.9-0.6-1.4-0.9c-0.2-0.1-0.3-0.5,0-0.6c0.5-0.3,0.5-0.6,0.3-1.1c-0.3-0.6-0.8,0.5-1.1-0.2c-1.7,0.8-3.6,0.9-5.3,1.9
		c-0.9,0.5-0.8,1.3-0.8,2c-0.1,0.5-0.1,1.1,0.6,1.3c0.5-0.5-0.5-0.8,0.1-1.4c0.5,0.6,0.5,1.3,0.5,1.9c-0.1,0.5-0.5,0.5-0.8,0.1
		c-0.5-0.5-0.8-0.9-1.4-1.6c-0.2,0.9,0.1,1.7,0.6,2.5c-1.4-0.5-1.4-0.5-1.4-2.7c-0.5-0.1-0.3,0.8-0.8,0.8c-0.2-1.6-0.9-0.8-1.7-0.5
		c-2.7,1.4-5.3,3.1-8.2,4.1c-0.2,0.1-0.5,0.2-0.5,0.3c-0.8,1.1-1.4,0.3-2-0.3c-0.6-0.8-0.5-0.9,0.5-1.1c0.5-0.1,0.6-0.5,0.5-0.8
		c-0.1-0.8,0.3-1.1,0.8-1.4c1.1-0.5,1.6-1.6,2.4-2.4c1.4-1.3,2.4-2.7,3.3-4.2c0.3-0.5,0.6-0.6,1.1-0.6c2.2,0,4.2-0.8,6.4-1.1
		C79.9,94.5,80.3,94.5,80.8,94.8c0.2,0.5,0,0.8-0.6,0.9c-1.4,0.1-2.4,0.8-3.6,1.1C76,97,75.3,97,74.7,97c-0.5,0.1-0.5-0.6-1.1-0.5
		c-0.9,0.3,0.5,0.5,0,0.8c-0.1,0.1-0.2,0.2-0.3,0.2c-1.1,0.8-1.4,1.7-0.8,2.9c0.2,0.5,0.1,0.8-0.1,1.4c0.8-0.5,1.9-0.6,2.7-0.9
		c2-0.8,3.6-1.9,5.7-2.4c0.8-0.2,1.4-0.5,2.1-0.9c0.6-0.3,0.9-0.9,0.8-1.7c-0.1-0.5-0.6-1.1-0.8-0.9C82.1,95.7,81.6,94.8,80.8,94.8z
		 M98.1,99.4c0.6,0.1,1.1,0.1,1.6-0.2c0.3-0.2,0.9-0.5,0.8-0.8c-0.3-0.5-0.3-1.1-1.1-1.3c-1.4-0.1-2.8-0.2-4.2-0.2
		c-0.8,0-1.4,1.1-1.3,1.9c0.2,0.8,0.6,1.4,1.7,1.1C96.4,99.4,97.3,99.3,98.1,99.4z M67.1,104.5c1.6-0.1,2.7-0.8,3.8-1.6
		c0.8-0.5,0.2-1.3-0.2-1.7c-0.5-0.6-0.8,0.1-1.1,0.3C68.9,102.3,67.9,103.1,67.1,104.5z M98.2,95.1c-0.9-1.1-2-2.1-2.7-3.3
		c-0.8,2.4-0.8,2.4-0.5,3.4c0.1,0.3,0.2,0.5,0.5,0.5C96.4,95.3,97.3,95.6,98.2,95.1z M89.7,104.8c-0.3-0.5-0.8-0.2-1.1,0
		c-1.7,0.6-3.3,1.9-5.3,1.9c-0.1,0-0.2,0-0.3,0.1c-0.5,1.1-1.9,0.3-2.5,1.1c-0.1,0.1-0.5-0.5-0.5,0c-0.1,0.2,0,0.5,0.2,0.8
		c0.2,0.2,0.5,0,0.6-0.1c1.4-0.5,2.8-0.9,4.1-1.7c1.3-0.6,2.8-0.9,4.1-1.4C89.4,105.3,89.6,105.1,89.7,104.8z M85.1,96.5
		c0.5-0.8,0.9-0.8,1.6-0.1c0.6,0.8,1.1,0.6,1.7,0.1c-0.3-0.2-0.8,0.3-1.1-0.2c-0.2-0.5,0.3-0.5,0.5-0.6c0.2-0.5,0.1-1.1,0-1.7
		c-0.3,0.5,0.1,0.8-0.3,0.9c-0.6-0.8-1.4-1.1-2.4-0.5C84.4,95.1,85,95.7,85.1,96.5z"/>
	<path class="st0" d="M60.1,99.7c-1.1,0.9-1.1,2.4-2.1,3.3c-0.8,0.8-0.8,2.3-0.1,3.3c0.5,0.6,0.5,1.4-0.1,1.7
		c-1.1,0.5-1.3,1.4-1.7,2.3c-1.1,2.1,0,4.4,2.1,5c0.2,0.1,0.5,0,0.6,0.3c0.1,0.5-0.3,0.5-0.5,0.8c-1.1,0.9-1.7,2.2-2.1,3.5
		c-0.5,2.1,0.9,3,2.5,3.4c1.1,0.2,1.7,1.1,1.1,2.2c-0.5,0.9-0.2,1.7-0.1,2.5c0.1,0.8,0.5,1.4,0.6,2.2c0.5,1.4,1.3,1.7,2.6,1.1
		c0.8-0.3,1.7,0.2,2.4,0.6c0.5,0.2,0.8,0.6,1.4,0.8c-0.5,0.8-0.9,0.5-1.6,0.2c0.1,0.2,0.1,0.3,0.2,0.3c1.7,1.1,2.5,2.9,3.1,4.7
		c0.6,1.7,2.2,2.9,2.4,4.9c-1.7-0.3-1.7-2.3-3.1-3c0.5,1.1,0.2,2.2-0.1,3c-0.6,1.9-0.8,3.8-1.1,5.7c-0.5,2.7-0.8,5.3-1.1,8
		c-0.2,3.2-0.8,6.3-1.4,9.6c-0.5,2.5-0.6,5-0.9,7.5c-0.2,1.7-0.5,3.3-0.3,5c0,0.3-0.1,0.8-0.6,0.8s-0.5-0.5-0.5-0.8
		c-0.2-2.4,0-4.9,0.3-7.2c0.3-2.3,0.6-4.7,1.1-6.9c0.3-1.7,0.5-3.5,0.6-5.3c0-0.3,0.3-0.8-0.3-1.1c-0.5-0.1-0.1-0.3,0.1-0.5
		c0.8-0.3,0.8-1.1,0.8-1.7c0.5-3,0.5-5.9,0.9-8.9c0.3-2.9,0.3-5.9,1.1-8.8c0-0.1,0.1-0.3,0-0.3c-0.8-1.4-0.8-3.3-2.1-4.4
		c-0.5-0.5-1.1-0.8-2-0.8c-1.7,0.1-3.4-1.7-3.5-3.8c0-1.1-0.5-2-0.5-3c0-0.3-0.2-0.5-0.5-0.8c-1.4-0.8-2.6-2-2.9-3.6
		c-0.2-1.4-0.5-2.9,0.8-4.1c0.2-0.2,0.8-0.8,0.2-1.3c-2.1-1.9-2.2-4.1-1.1-6.4c0.9-1.7,1.1-3.5,1.1-5.4c0-1.1,1.1-2.6,2.1-2.9
		c0.3-0.1,0.5-0.3,0.5-0.5C59.1,100,59.4,99.6,60.1,99.7z"/>
	<path class="st0" d="M185.4,86c0.5-0.5,0.8-0.5,1.4-0.3c1.3,0.6,2.7,0.8,4.1,0.8c1.1,0,2,0.3,2.9,0.9c0.8,0.5,1.7,0.5,2.6,0.5
		c2,0,3.9,0.5,5.8,1.3c0.5,0.2,1.1,0.5,1.7,0.5c0.2,0,0.3-0.1,0.5,0c0.6,0.1,0.8-0.3,1.1-0.9c0.5-1.1-0.5-2.3,0.6-3.2
		c0.3-0.3-0.2-0.5-0.5-0.6c-1.1-1.1-2.2-2.4-2.6-4.1c1.6,2.3,4.4,3.2,5.9,5.6c-0.6,0-1.1-0.5-1.6-0.6c-0.3-0.1-0.6-0.5-0.6,0.5
		c0.1,1.1-0.5,2.3-0.3,3.5c0.1,0.3-0.1,0.8,0.2,0.9c1.3,0.9,2.5,1.9,3.9,2.5c-0.6-1.7-1.6-3.1-1.6-4.9c0-0.3-0.3-0.3-0.5-0.5
		c-0.5-0.2-0.9-0.5-1.1-1.1c1.1-0.2,1.6,0.5,2.2,1.1c1.1,0.9,0.5,2.3,1.1,3.3c0.8,1.9,2.1,3.4,3.6,4.7c1.7,1.4,3.1,3,5,4.1
		c0.5,0.2,0.1,0.8,0.6,0.9c0.8,0.2,1.6,0.8,2.1,0.2c0.6-0.5,1.1-1.4,1.4-2.2c0.6-2.2-1.1-3.4-2-4.7c-1.6-2.4-3.2-4.7-4.4-7.5
		c-0.5-1.1-1.6-1.4-2-2.4c-0.1-0.1-0.8-0.1-0.8,0.5c0.1,0.6-0.5,0.8-0.6,1.3c-0.1,0.2-0.2,0.8-0.8,0.5c-0.3-0.2-0.5-0.5-0.3-0.8
		c0.2-0.6,0.5-1.3,0.8-1.7c0.5-0.8,0.3-1.6-0.5-2.2c-0.6-0.5-1.1-1.4-1.3-2.3c0.8,0.8,1.6,1.4,2.4,2.2c2.2,2.3,3.8,5,5.4,7.5
		c1.9,3,3.8,5.9,5,9.3c0.3,0.9,0.5,1.7-0.8,2.2c-0.8,0.3-1.1,1.1-0.6,2c1.3,1.7,1.3,2.7,0,4.4c-0.8,1.1-1.7,2.1-2.3,3.3
		c-0.2,0.5-0.6,0.8-1.1,0.5c-0.5-0.4,0-0.8,0.3-1.1c0.6-0.5,0.6-1.3,0.9-1.7c0.5-1.1,1.7-1.6,2.1-2.6c0.6-1.4,0.2-2-1.3-2.4
		c-1.6-0.5-3-1.3-4.2-2.3c-1.3-1.1-2.7-2-3.9-3c-0.9-0.8-1.4-1.7-2.5-2.3c-0.8-0.5-1.6-1.1-2.5-1.3c-0.3-0.1-0.6-0.5-0.9-0.6
		c-0.3-0.3-0.5,0-0.8,0c-1.7,0.2-1.9,2.2-3.2,2.9c-0.2,0.1-0.5,0.3-0.6,0c-0.2-0.5-0.5-0.8-0.5-1.3c0.1-0.5,0.3-0.8,0.5-1.3
		c0.8-2.1-1.1-4.4-3.5-4.2c-2.3,0-4.6-0.8-6.7-1.4c-0.5-0.1-0.5-0.8-1.1-0.8c-0.3,0-0.8-0.5-0.6,0.5c0.1,0.8-0.8,0.5-0.9,0.3
		c-1.7-0.8-3.8-0.8-5.5-1.7C185.4,86.3,185.4,86.1,185.4,86z"/>
	<path class="st0" d="M162.6,64.2c0,2-0.1,3.8,0,5.4c0.1,2.2-0.3,4.2-0.5,6.3c0,0.6-0.6,0.8-1.1,1.1c-0.5-0.5-0.2-0.9-0.2-1.4
		c0-3.2,0-6.6-0.1-9.7c-0.1-1.4-0.3-2.9,0-4.4c0-0.2-0.2-0.5,0.2-0.6c0.5,0,0.9,0,1.1,0.5c0.9,1.7,2.4,2.8,3.6,4.2
		c0.6,0.8,0.9,0.9,1.4-0.3c0.5-1.6,1.4-3.1,2.1-4.7c0.5-0.8,0.8-1.7,2-1.4c0.9,0.3,1.7,0.9,1.7,2.2c0.3,4.1,0.8,8.1,1.1,12.1
		c0,0.5,0.2,0.8-0.5,0.9c-0.6,0-0.9-0.2-1.1-0.8c0-1.7,0.1-3.4-0.1-5c-0.3-2.5-0.5-5-1.3-7.4c-0.1-0.2,0-0.6-0.3-0.5
		c-0.2,0-0.5,0.3-0.5,0.5c-0.8,2-2.2,3.6-2.8,5.6c-0.5,1.4-0.8,1.4-1.7,0.5C164.8,66.3,163.9,65.3,162.6,64.2z"/>
	<path class="st0" d="M106.7,119.4c-0.3,2.1-2,2.5-3.3,3.2c-1.1,0.5-2.2,0.2-3.3,0c-0.3-0.1-0.3-0.5-0.5-0.8
		c-0.5-2.3,0.1-4.6,0.3-6.9c0-0.5,2.3-1.1,2.8-0.8c1.6,0.8,3.1,1.7,3.4,3.8c0,0.2,0.1,0.5,0.5,0.5c0.1,0,0.3-0.3,0.3-0.5
		c0.2-0.5,0.5-0.9,0.3-1.4c-0.2-1.1,0.3-1.4,1.4-1.4s2.2-0.3,3.2,0.2c0.2,0.1,0.6,0,0.8,0.5c0,0.5-0.5,0.3-0.6,0.5
		c-0.6,0.5-1.4,0.1-2.1,0.3c-0.5,0.1-0.8,0-1.1,0.5c-0.3,0.8-0.8,1.6,0.8,1.4c0.5-0.1,0.9,0.1,0.9,0.8c0,0.8-0.5,0.5-1.1,0.5
		c-0.5,0-1.1-0.2-1.3,0.2c-0.2,0.6,0.1,1.4,0.5,1.9c0.3,0.5,0.8,0.2,1.3,0.1c0.3-0.1,0.6-0.2,0.9-0.3c0.3-0.1,0.8-0.3,1.1,0.1
		c0.2,0.5,0.1,0.9-0.5,1.1c-1.1,0.6-2.2,1.1-3.3,0.5c-1.1-0.5-1.1-1.4-1.1-2.4C107.1,120.5,107.3,120.1,106.7,119.4z M101,120.2
		c0,0.3,0,0.6-0.1,1.1c-0.1,0.8,0.8,0.8,0.8,0.6c0.5-0.6,1.3-0.5,1.7-0.8c2-1.1,2.4-3.2,0.9-4.7c-0.6-0.6-1.4-0.9-2.2-0.8
		c-0.8,0.1-1.3,1.1-1.1,1.6C101.2,118.2,100.6,119.1,101,120.2z"/>
	<path class="st0" d="M162.8,54.1c0.3-1.1,1.4-1.4,2.2-1.7c1.7-0.6,3.5-0.9,5.2-1.7c3.6-1.9,7.7-2.3,11.3-3.8c2.7-1.1,5.5-2,8.2-2.9
		c2.8-0.8,5.7-1.7,8.4-2.7c1.3-0.5,2.6-0.8,3.8-1.4c0.5-0.2,0.8,0,0.9,0.3c0.2,0.5-0.1,0.8-0.5,0.9c-3.2,0.8-6.3,2.1-9.3,3.2
		c-4.6,1.7-9.3,2.9-13.9,4.7c-0.3,0.1-0.6,0.2-0.9,0.3c-4.4,0.6-8.5,2.5-12.7,3.9C164.5,53.8,163.7,54.3,162.8,54.1L162.8,54.1z"/>
	<path class="st0" d="M179.4,97.3c2.4,0.6,4.7,1.4,7.2,1.9c0.8,0.2,1.7,0,2.5,0.2c1.7,0.5,3.5,0.8,5.3,1.4c1.6,0.5,3.3,0.5,5,0.8
		c1.1,0.2,2.1,0.5,2.9,1.3c0.2,0.2,0.5,0.3,0.8,0.5c1.3,0.3,1.9,1.6,1.4,2.7c-0.3,0.8-0.9,1.4-1.4,2c-0.2,0.2-0.5,0.5-0.8,0.2
		c-0.3-0.2-0.2-0.5,0-0.8c0.5-0.5,0.8-1.1,1.1-1.6c0.2-0.3,0.5-0.6,0.1-0.9c-0.3-0.3-0.5,0.1-0.8,0.3c-0.9,0.8-1.4,1.7-1.9,2.7
		c-0.1,0.3-0.2,0.9-0.8,0.8c-0.5-0.2-0.3-0.6-0.1-1.1c0.3-0.8,0.3-1.7,0.1-2.7c-0.2-0.9-0.8-1.3-1.6-1.3c-1.4,0-2.3-0.8-3.4-1.4
		c-1.4-0.8-3.2-1.3-4.7-1.9c-2-0.8-4.1-0.1-6.1-0.6c-0.8-0.2-1.7-0.8-2.5-0.5C180,99.8,180.3,97.9,179.4,97.3z M200.7,104.4
		c0.5,0.3,0,0.9,0.5,1.1c0.5-0.2,0.8-0.5,0.6-0.8C201.7,104.2,201.1,104.4,200.7,104.4z"/>
	<path class="st0" d="M175.2,99.5c0.8,1.1,2.1,1.3,3,2.1c0.1,0.1,0.2,0.2,0.3,0.2c0.3,0.1,0.8-0.5,0.8,0.2c0,0.8-0.6,0.5-1.1,0.5
		c-1.3,0.2-2.2-0.6-3.4-1.1c0.6,1.4,1.7,1.6,2.8,2c3.2,1.3,6.6,1.4,9.7,2.8c3.8,1.6,7.9,2.4,11.4,4.6c0.9,0.5,1.9,1.1,2.8,1.7
		s1.7,1.3,2.8,1.7c1.3,0.5,1.4,1.7,1.6,2.9c0.1,0.9-0.6,1.1-1.3,1.6c-0.9,0.6-1.4,0-1.9-0.5c-0.1-0.2-0.1-1.1,0.8-1.4
		c1.1-0.3,0.5-1.1,0-1.6c-0.9-0.8-2-1.7-3-2.4c-2.8-1.7-5.8-3.1-8.8-4.2c-1.1-0.5-2.3-0.5-3.3-0.8c-3.2-1.4-6.6-2.3-10.2-2.9
		c-0.8-0.1-1.4-1.1-2.1-1.1c-1.7,0-1.6-1.4-2-2.3c-0.1-0.3-0.2-0.8,0.3-0.8C175.5,100.7,174.7,99.7,175.2,99.5z"/>
	<path class="st0" d="M185.4,86c0,0.1,0,0.2,0,0.3c-0.2,1.1-0.5,2.1-1.4,2.8c-0.2,0.1-0.3,0.3,0,0.5c0.5,0.5,0.5,0.5-0.1,0.6
		c-0.8,0.2-1.4,0.5-2.3,0.5c-0.2,0-0.5,0-0.6,0.3c-0.1,0.3,0.1,0.5,0.3,0.6c1.1,0.5,2,1.3,3.1,1.6c1.1,0.3,2.1,0.8,3.2,1.1
		c0.5,0.1,1.1,0.5,1.6,0.3c2.2-0.1,4.2,0.8,6.4,1.1c0.3,0,0.6,0.2,0.9,0.5c0.9,0.6,1.7,1.7,3.2,1.7c-1.3,0.5-2.1,0.5-2.6-0.3
		c-0.9-1.3-2.4-1.4-3.6-1.4c-4.7-0.2-9.1-1.7-13.3-3.8c-0.8-0.5-1.6-1.1-2.3-1.6c-1.4-0.9-1.4-3.6-0.3-4.7c0.2-0.2,0.5-0.6,0.8-0.5
		c0.3,0.2,0.5,0.6,0.2,0.9c-1.4,1.7,0.3,2,1.1,2.3c0.9,0.3,1.9,1.4,2.7,1.1c0.8-0.3,1.1-1.4,1.7-2.3c0.5-0.6,0.2-1.1-0.5-1.4
		c-0.8-0.2-1.4-0.3-2.2-0.5c-0.3-0.1-0.8,0-0.8-0.5c0.1-0.5,0.6-0.8,1.1-0.6C183.2,85.3,184.3,85.5,185.4,86z"/>
	<path class="st0" d="M120.2,78.6c0.3-1.6,1.7-1.9,2.7-2.5c0.5-0.3,1.1-0.1,1.4,0.5c0.8,1.6,0.8,1.9-0.5,3.3
		c-0.8,0.8-1.1,1.7-2.2,2.1c-0.5,0.1-0.6,0.6-0.6,1.1s0.5,0.5,0.8,0.5c1.7,0.3,2.8,1.4,4.1,2.5c-0.8,0.5-1.3,0.8-2.1,0.1
		c-0.8-0.6-1.7-1.3-2.8-0.8c-0.5,0.2-0.5-0.5-0.8-0.6c-0.3,0.3-0.1,1.1-0.8,0.9c-0.6-0.1-0.8-0.8-0.8-1.4c0-2.5,0.5-5,0.2-7.5
		c0-0.3,0.1-0.5,0.5-0.5c0.5,0,0.5,0.2,0.8,0.5C120.3,77.4,119.6,78,120.2,78.6z M121.8,80.2c0.1,0,0.2-0.1,0.2-0.2
		c0.1-0.8,0.8-1.1,1.1-1.7c0.1-0.2,0.2-0.5,0-0.6c-0.2-0.2-0.5,0-0.8,0.1c-0.8,0.5-0.8,1.3-1.1,2C121.3,79.9,121.5,80.1,121.8,80.2z
		"/>
	<path class="st0" d="M176.7,68.5c-0.3-1.9-0.8-4.4-1.3-6.9c-0.1-0.8,0-1.7-0.5-2.4c-0.2-0.3-0.1-0.6,0.5-0.6c1.7-0.1,3-1.1,4.6-1.4
		c0.2,0,0.5-0.2,0.8-0.2c0.5,0.1,1.1-0.2,1.1,0.5c0.1,0.6-0.5,0.6-0.9,0.8c-1.4,0.3-2.4,1.1-3.8,1.4c-1.1,0.1-0.5,1.6-0.5,2.4
		c0,0.5,0.2,1.1,0.5,1.7c0.2,0.6-0.1,1.7,0.5,1.7c0.8,0.1,1.7-0.3,2.5-0.8c0.2-0.1,0.5-0.3,0.6-0.5c0.5-0.1,0.9,0.3,1.1,0.6
		c0.2,0.5-0.3,0.6-0.6,0.8c-0.9,0.5-1.7,0.8-2.8,1.1c-0.5,0-0.8,0.1-0.8,0.6c0.1,1.4,0.3,3,0.5,4.4c0.1,0.6,0.3,0.8,0.9,0.5
		c0.9-0.5,1.9-0.9,2.9-1.4c0.5-0.2,0.9-0.3,1.1,0.2c0.3,0.6-0.1,0.8-0.6,1.1c-1.4,0.3-2.7,1.1-3.8,2.2c-0.6,0.5-0.9,0.1-1.1-0.5
		C177,71.9,176.6,70.6,176.7,68.5z"/>
	<path class="st0" d="M188.7,110.9c-0.6,0.1-1.1-0.3-1.7-0.5c-1.6-0.8-2.3-0.6-3.2,0.5c-0.9,1.4-2.5,1.7-3.8,2.6
		c0.9,0.8,2.2,0.8,3.2,1.6c1.1,0.8,2.5,1.1,3.8,1.7c0.8,0.5,1.6,0.5,2.3,0.8c0.3,0.1,0.5,0,0.5,0.5c-0.1,0.5-0.5,0.3-0.6,0.2
		c-2.3-0.5-4.6-1.3-6.6-2.5c-0.8-0.5-1.4-0.5-2.1-0.6c-2.5-0.8-3.5-2.7-2.8-5c0.1-0.2,0.1-0.5,0.2-0.6c0.3-0.6,0-1.6,0.8-1.7
		c1.1-0.3,2.3-0.5,3.3,0.1c1.4,0.8,2.9,1.4,4.4,1.7C187.4,109.8,188.2,110.2,188.7,110.9L188.7,110.9z M183.3,110.1
		c-0.5-0.8-1.4-0.1-1.9-0.8c-0.5-0.6-0.8-1.4-1.6-0.8c-0.8,0.6-1.7,1.3-1.1,2.5c0.3,0.8,0.6,1.4,1.7,0.9
		C181.7,111.6,182.8,111.4,183.3,110.1z"/>
	<path class="st0" d="M192,63.8c0.3-2.9-0.2-5.5-0.9-8.1c-0.1-0.6-0.8-1.4,0.1-1.7c0.9-0.3,0.8,0.8,1.1,1.4c0.8,3,0.8,6.1,1.1,9.3
		c0.1,0.3,0.2,0.8-0.2,1.1c-0.3,0.2-0.6-0.1-0.9-0.2c-2.1-1.1-3.3-3-4.7-4.7c-0.5-0.6-0.9-1.3-1.7-1.7c-0.5,1.6,0,3.1,0,4.7
		c0.1,1.4,0.5,2.8,0.8,4.1c0.1,0.5,0,1.1-0.1,1.6c0,0.1-0.2,0.2-0.5,0.2c-0.5,0-0.6-0.3-0.6-0.6c-0.1-0.9-0.3-2-0.3-2.9
		c-0.1-2.9-1.1-5.8-1.1-8.7c0-0.3-0.3-0.9,0.2-1.1c0.3-0.1,0.8,0.2,0.9,0.6c0.5,0.8,1.3,1.4,1.9,2.1c1.1,1.1,2.3,2.3,3.2,3.6
		C190.8,63.2,191.5,63.4,192,63.8z"/>
	<path class="st0" d="M194.5,53.3c0.8,0.2,1.1,0.5,1.3,1.3c0.5,2.1,0.6,4.1,0.9,6.1c0.2,1.1,0.2,2.2,1.1,2.9c0.3,0.3,0.5,0.5,0.8,0
		c0.2-0.3,0.8-0.5,1.1-0.6c1.1-0.5,1.6-1.4,1.6-2.4c0-2.1,0.1-4.1-0.2-6.3c-0.1-0.8-0.3-1.3-0.6-1.9c-0.3-0.5-0.5-0.9-0.3-1.4
		c0.1-0.2,0.3-0.3,0.5-0.2c0.5,0.2,0.8,0.6,1.1,1.1c1.1,2.2,0.5,4.4,0.8,6.7c0.2,1.7-0.5,3.4-1.4,4.7c-0.8,1.1-2.4,2.1-3.8,1.1
		c-0.6-0.5-1.1-1.1-1.4-1.9c-0.5-1.3-0.6-2.6-0.8-3.8C195.1,57,194.9,55.2,194.5,53.3z"/>
	<path class="st0" d="M99.5,79.7c0.5,1.6,0.1,2.9-1.1,4.1c-0.2,0.2-0.5,0.5-0.8,0.6c-1.7,0.6-4.1-0.6-4.6-2.4
		c-0.8-2.5-0.1-5,0.2-7.5c0-0.3,0.2-0.8,0.6-0.8c0.5,0.1,0.2,0.5,0.2,0.8c0.1,1.9,0.2,3.6,0.2,5.5c0,0.5,0.2,1.1-0.2,1.7
		c-0.3,0.3,0,0.8,0.2,0.8c0.8,0.1,1.4,0.6,2.2,0.2c0.8-0.3,1.1-0.8,1.1-1.7c0-1.1,0.2-2.1,0.5-3.2c0.1-0.6-0.3-1.3-0.5-1.9
		c-0.1-0.5-0.2-1.1,0.3-1.3c0.5-0.1,0.8,0.5,0.8,0.9C99.5,77,99.6,78.3,99.5,79.7z"/>
	<path class="st0" d="M113.2,76.1c-0.5,0-0.9-0.1-1.4-0.1c-0.6,0-1.1,0.2-1.1,1.1c-0.2,2.4-0.2,2.4,2.1,2c0.5-0.1,0.8-0.1,1.3-0.1
		c0.3,0,0.8-0.1,0.8,0.5c0,0.5,0,0.8-0.5,0.8c-0.8,0.1-1.7,0.2-2.6,0.3c-0.8,0.1-1.7,0.1-1.6,1.3c0.1,1.1,0.5,1.6,1.7,1.4
		c0.6,0,1.1-0.1,1.7-0.3s1.1-0.2,1.4,0.5c0.2,0.8-0.5,1.1-0.9,1.1c-0.8,0-1.7,0.2-2.6,0.3c-1.3,0.2-2-0.5-2.2-2.1
		c-0.3-1.6,0-3,0.5-4.4c0.2-0.9,0.2-1.7,0-2.6c-0.1-0.6,0.1-0.9,0.8-0.9c1.4,0,2.8,0.1,4.2,0.2c0.5,0,1.1,0.1,1.1,0.6
		c0,0.6-0.6,0.5-1.1,0.5C114.1,76.2,113.6,76.2,113.2,76.1L113.2,76.1z"/>
	<path class="st0" d="M169,82.5c1.1-0.5,2.1-0.8,3.1-1.1c1.1-0.5,2.2-0.8,3.3-0.9c1.7-0.3,3.4-0.9,5.2-1.4c2.5-0.8,5-1.7,7.5-2.5
		c0.3-0.1,0.8-0.3,1.1,0.3c0.2,0.6-0.5,0.6-0.8,0.8c-3,0.9-6.1,1.9-9.3,2.8c-2.9,0.8-5.8,1.7-8.7,2.6c-2.5,0.8-5,1.7-7.5,2.2
		c-0.3,0-0.8,0.3-0.8-0.2c0-0.5,0.5-0.6,0.8-0.5c0.5,0.2,0.6-0.1,0.8-0.3C165.4,83.2,167.3,83,169,82.5z"/>
	<path class="st0" d="M106.7,132.4c0-0.3,0-0.8-0.1-1.1c-0.1-0.5-0.3-1.3,0.2-1.3c0.6-0.1,1.3,0.5,1.3,1.3c0,1.4,0,2.6-0.1,3.9
		c-0.1,0.8-0.1,1.7,0.2,2.6c0.2,0.8-0.1,1.3-0.8,1.4c-0.8,0.1-0.8-0.5-0.8-1.1c-0.1-2-0.5-2.2-2.3-2c-0.8,0.1-0.8,0.3-0.8,0.9
		c0,0.8,0.3,1.9-0.8,1.9c-0.8,0-0.8-1.3-0.6-1.9c0.3-2,0.2-3.8-0.3-5.7c-0.1-0.5,0.2-0.5,0.5-0.5c0.5,0.2,0.8,0.5,0.9,1.1
		c0,0.3,0,0.6,0.1,1.1c0.3,1.7,0.5,1.9,2.2,1.7C107,134.5,106.6,133.3,106.7,132.4z"/>
	<path class="st0" d="M108.7,138.5c0-2.5,1.1-4.7,0.9-7.2c0-0.2,0.1-0.6,0.5-0.5c1.1,0.8,2.2-0.1,3.3,0.3c0.5,0.1,1.1,0,1.1,0.6
		s-0.6,0.6-1.1,0.6c-0.5,0-1.1,0-1.4,0.1c-0.9,0.2-1.4,0.9-1.4,1.9c0,1.1,0.9,0.5,1.4,0.6c0.1,0.1,0.5-0.1,0.8-0.1s0.8-0.2,0.8,0.2
		s-0.1,0.8-0.5,0.8c-0.6,0.2-1.1,0.6-1.7,0.5c-1.4-0.2-1.3,0.8-1.3,1.6c0,0.5,0.3,0.8,0.8,0.8c0.5-0.1,1.1-0.2,1.6-0.3
		c0.5-0.1,0.9-0.3,1.1,0.5c0.1,0.5,0.1,1.1-0.6,1.1c-1.1,0.1-2.1,0.5-3,0.5C108.7,140.4,108.8,139.2,108.7,138.5z"/>
	<path class="st0" d="M97.8,129.4c0.3,0.1,0.8,0.2,1.1,0.3c0.3,0.1,0.8,0.3,0.6,0.8c-0.1,0.5-0.5,0.2-0.8,0.2
		c-1.9,0.2-2.2,1.9-2.8,3.1c-0.5,0.9-0.1,2.1,0.9,2.7c0.8,0.5,1.7,0.8,2.5,1.1c0.5,0.2,0.8-0.2,1.1-0.5c0.2-0.1,0.3-0.3,0.5-0.2
		c0.3,0.1,0.2,0.5,0.2,0.6c-0.1,1.4-1.7,2.3-2.9,1.9c-3.1-1.1-4.2-4.1-3.8-6.6C94.8,131.4,96.6,129.4,97.8,129.4z"/>
	<path class="st0" d="M106.4,81.9c-0.8-0.3-1.4-0.3-2.2-0.2c-0.3,0-0.8,0.3-0.9-0.2c-0.1-0.5,0.1-0.8,0.5-1.1
		c0.5-0.3,0.8-0.5,1.3-0.3c0.3,0.1,0.8,0.1,1.1,0.2c0.8,0.2,1.7-0.3,1.9,1.1c0.1,1.1-1.1,2.6-2.1,2.8c-1.3,0.2-2.4,0.6-3.4-0.8
		c-1.4-1.7-1.7-3.5-0.8-5.5c0.5-0.9,1.1-1.9,1.9-2.6c0.8-0.6,1.6-0.5,2.4-0.3c0.2,0,0.5,0.2,0.5,0.5c0,0.3-0.3,0.5-0.5,0.5
		c-0.8-0.2-1.4-0.5-1.9,0.5c-0.8,1.3-1.7,2.4-1.4,3.9c0.1,0.5,0.2,1.1,0.5,1.7c0.3,0.6,0.8,1.4,1.6,1.3
		C105.3,83.1,106.1,82.8,106.4,81.9z"/>
	<path class="st0" d="M204.3,43.1c1.1,3.8,0.3,7.8,0.8,11.6s-0.1,7.7-0.1,11.4c0,0.8,0,1.4,0,2.3c0,0.5-0.2,0.8-0.6,0.8
		c-0.5,0-0.3-0.5-0.3-0.8c0.1-2.5,0.2-5,0.2-7.5c0-6.1-0.1-12.4-0.8-18.5c0-0.2,0-0.5,0-0.8c0-0.2,0.1-0.5,0.3-0.5
		c0.3,0,0.5,0.2,0.5,0.5C204.3,42.2,204.3,42.7,204.3,43.1z"/>
	<path class="st0" d="M90.4,74.3c-0.8,0-0.8-0.8-1.4-0.8c-1.6-0.3-2,0.9-2.7,1.7c-0.8,0.8-0.5,1.6,0.2,2.2c1.3,1.4,2.3,2.9,3.3,4.4
		c0.6,1.1,0.5,1.7-0.6,2.2c-1.7,0.8-2.9,0.3-4.1-1.4c-0.3-0.5-0.6-1.1-0.8-1.4c-0.2-0.3-0.2-0.5,0.1-0.8c0.3-0.2,0.5,0,0.8,0.3
		c0.5,0.8,1.1,1.4,1.6,2.1c0.5,0.6,1.4,0.9,2.1,0.5c0.8-0.6,0.3-1.3-0.1-1.9c-0.8-1.4-2-2.6-3-3.9c-0.8-1.1-0.9-2.3-0.2-3.3
		c1.1-1.6,1.9-2,3.3-1.7C89.9,72.5,90.1,73.4,90.4,74.3z"/>
	<path class="st0" d="M114.7,98.2c0.5-2,0.2-4.2,2.1-5.9c0.8-0.6,1.1-0.6,1.4,0.3c0.5,1.1,0.3,2.2,0.8,3.2c0,0.1,0.1,0.1,0.1,0.2
		c-0.3,1.7-0.2,2.8,0.3,4.1c0.1,0.5,0.1,0.6-0.2,0.8c-0.5,0.2-0.8,0-0.8-0.5c-0.1-0.9-0.3-1.7-0.5-2.7c-0.1-0.5-0.1-1.1-0.6-0.9
		c-0.5,0-1.1,0.3-1.3,0.8c-0.1,0.2,0,0.5-0.1,0.6c-0.1,0.5,0,1.1-0.6,1.1C114.7,99.4,114.6,98.9,114.7,98.2z M116.3,95.9
		c1.4,0.2,1.4-0.5,1.1-1.4c-0.1-0.2,0-0.5-0.3-0.6c-0.3,0-0.3,0.3-0.3,0.5C116.6,94.8,116.4,95.4,116.3,95.9z"/>
	<path class="st0" d="M116.6,134.4c0.5,0.3,0.2,0.8,0.6,0.8c0-0.6,0.2-1.3-0.6-1.7c-0.3-0.2-0.3-0.6-0.2-1.1
		c0.1-0.3,0.3-0.5,0.6-0.5c1.4,0,2.7,0,4.1,0c0.3,0,0.8,0.1,0.8,0.5c0,0.5-0.5,0.5-0.8,0.3c-0.5-0.1-0.9,0.1-1.4,0.2
		c-0.5,0.1-1.4,0.1-1.3,0.9c0.1,0.6-0.2,1.7,1.1,1.7c0.3,0,0.5,0.2,0.5,0.5c0,0.2-0.1,0.3-0.5,0.5c-1.3,0.3-1.4,1.3-1.4,2.3
		c0,0.2,0,0.3,0.1,0.5c0,0.6-0.5,0.9-0.9,0.9c-0.6,0.1-0.6-0.5-0.6-0.8C116.6,137.9,116.6,136.2,116.6,134.4z"/>
	<path class="st0" d="M150.5,144.5c-0.8-0.3-0.5-1.1-0.8-1.7c-0.1-0.8-0.5-1.6,1.1-1.7c-1.9-0.8-0.6-2.1-1.1-3.1
		c-0.6-2,0.2-3.9-0.1-5.9c-0.2-1.1,0.8-0.6,1.1-0.8c0.8-0.1,0.3,0.5,0.3,0.8c0,0.9,0,1.7-0.1,2.7c-0.2,3,0.5,6.1-0.2,9
		C150.9,144.2,150.8,144.4,150.5,144.5L150.5,144.5z"/>
	<path class="st0" d="M192.3,73.4c0.6,0.8,1.1,1.4,1.1,2.2c0,0.6,0.5,0.5,0.9,0.5c1.6-0.5,2.9,0.8,4.4,0.2c-0.1,0.8-0.5,0.8-0.8,0.8
		c-1.3,0.1-2.5-0.1-3.6-0.5c-0.9-0.2-2.3-0.2-1.9-1.9c-0.2,0.3-0.3,0.5-0.5,0.8c-0.5-0.9-0.6-1.7-0.1-2.6c0.1-0.2,0.2-0.5,0.3-0.5
		c2.3-0.6,4.4-2.2,6.9-0.8c0.6,0.3,1.4,0.3,2.2,0.5c0.2,0,0.5,0.2,0.3,0.5c-0.1,0.3-0.3,0.2-0.5,0.2c-1.4-0.5-2.8,0-4.1-0.5
		c-0.9-0.2-1.7,0.1-2.5,0.5C193.7,73.4,193.2,73.8,192.3,73.4z"/>
	<path class="st0" d="M209,106.9c-1.1-0.2-1.9-0.6-2.5-1.3c-0.3-0.3-0.8-0.6-0.5-1.1c0.3-0.5,0.8-0.2,1.4,0c-0.6-0.6-0.9-1.4-2-1.4
		c-0.5,0-0.2-0.5-0.3-0.8c-0.5-0.6-0.9-1.1-1.4-1.7c-0.2-0.2-0.6-0.5-0.2-0.8c0.3-0.3,0.6-0.2,0.9,0.1c0.9,0.9,2.1,1.7,2.6,3
		c0,0.1,0.2,0.2,0.3,0.2c1.9,0.8,3,2.8,5,3.3c0.1,0,0.2,0.1,0.3,0.2c0.5,0.3,1.4,0.8,0.9,1.4c-0.3,0.5-1.1-0.2-1.4-0.5
		c-1.1-0.8-2.5-1.1-3.4-2.1c-0.2-0.2-0.5-0.3-0.8,0c-0.3,0.5,0.2,0.5,0.3,0.6C208.3,106.4,208.6,106.4,209,106.9z"/>
	<path class="st0" d="M200,116c-0.5-0.2-0.8,0.1-1.1,0.5c-0.5,0.5-0.8,0.9-1.3,1.4c-0.3,0.3-0.5,0.8-1.1,0.5
		c-0.5-0.3-0.5-0.8-0.3-1.4c0-0.1,0.1-0.2,0.1-0.2c0.8-2,0.6-2.2-1.4-3c-0.6-0.3-2-0.5-1.7-1.1c0.3-0.8,1.3,0.2,1.9,0.5
		c1.1,0.3,2.1,0.8,3.1,0.9c1,0.2,1.4,1.3,2.4,1.6c0.1,0,0.2,0.2,0.2,0.5C200.4,116.2,200.1,116.1,200,116z"/>
	<path class="st0" d="M109.3,99.2c-0.2,0.6-0.5,1.1-1.1,1.1c-0.8,0-1.7-0.1-2.2-0.8c-0.3-0.5-0.8-1.1-1.1-1.6
		c-0.6-1.1-0.9-2.2-0.5-3.4c0.5-1.1,0.8-2.1,1.4-2.9c0.6-0.6,1.7-0.6,2.3,0c0.1,0.1,0.1,0.2,0.1,0.3c-0.1,0.2-0.3,0.3-0.5,0.2
		c-1.3-0.6-1.4,0.5-1.7,1.3c-1.3,2.7-0.5,4.9,2,6.3C108.6,99.7,108.8,99,109.3,99.2z"/>
	<path class="st0" d="M201.5,26.2c0,0.5-0.2,0.8-0.5,0.8c-1.4,0.2-2.7,1.1-4.1,1.7c-0.2,0.1-0.5,0.1-0.5-0.1c-0.2-0.3,0-0.5,0.1-0.8
		c0.2-0.3,0.5-0.3,0.8-0.3c0.5,0,1.3,0.3,1.4,0c0.5-0.9,1.4-1.9,1.4-3c-0.1-0.9,0.1-1.9,0-2.8c0-0.5-0.5-1.1,0.5-1.1
		c0.5,0,1.1,0.6,1.1,1.4c-0.1,1.3-0.1,2.5-0.1,3.8C201.3,25.7,201.4,25.9,201.5,26.2z"/>
	<path class="st0" d="M116.1,123.7c-2,0-2.1-0.2-1.9-2.3c0.1-1.4,0.6-2.6,0.5-3.9c-0.1-0.3-0.1-0.9,0.3-0.9c0.5,0,1.1,0.2,1.1,0.8
		c-0.2,1.4,0.2,3.1-0.8,4.4c-0.2,0.3-0.2,0.6,0.5,0.6c0.7,0,1.1,0.1,1.7,0.2c0.3,0,0.6,0.1,0.6,0.5c0,0.3-0.3,0.5-0.5,0.5
		C116.9,123.7,116.6,123.7,116.1,123.7z"/>
	<path class="st0" d="M121.1,96.3c2,0.8,3.9,1.4,5.4,3c0.8,0.9,0.6,2.1-0.5,2.6c-0.9,0.5-2,0.8-2.9,1.1c-0.5,0.1-0.8,0.1-0.9-0.3
		c-0.1-0.3-0.6-0.5-0.5-0.8c0.2-0.3,0.5-0.1,0.8,0c0.5,0.2,1.1,0.2,1.6,0c0.8-0.3,1.7-0.6,1.7-1.7s-0.8-1.4-1.7-1.7
		C123,97.9,121.8,97.3,121.1,96.3L121.1,96.3z"/>
	<path class="st0" d="M150.5,144.5c1.1,1.1,0.2,2.5,0.3,3.8c0.1,1.6-0.1,3.1-0.2,4.7c0,0.2,0.1,0.5-0.2,0.6
		c-0.3,0.1-0.8,0.2-1.1-0.1c-0.3-0.2-0.2-0.5,0-0.8c0.3-0.6-0.1-1.7,0.8-2.1c0.1,0,0.1-0.3,0.1-0.3c-1.1-0.8-0.3-1.7-0.5-2.7
		c-0.2-0.8-0.3-1.4,0.8-1.3c-0.1-0.6-1.1-0.5-0.8-1.3C149.9,144.7,150.2,144.5,150.5,144.5L150.5,144.5z"/>
	<path class="st0" d="M201.9,80c-1.9-0.1-3.4-1.3-5.6-1.1c0.6,0.2,1.1,0.3,1.6,0.5c-2.7,0.5-4.6-0.9-6.4-2.2
		c1.3-0.1,2.2,0.8,3.4,0.8c1.9,0.1,3.8,0.2,5.5,0.8c0.1,0,0.3,0,0.5,0C202.3,78.6,202.3,78.6,201.9,80z"/>
	<path class="st0" d="M111.1,96.4c0-1.3,0-2.4,0-3.6c0-0.3-0.1-0.8,0.5-0.8c0.5,0,0.8,0.3,0.6,0.8c-0.1,2.4,0,4.7,0.2,7.2
		c0,0.5-0.2,0.6-0.6,0.8c-0.5,0-0.6-0.3-0.8-0.8C111.1,98.8,111.1,97.6,111.1,96.4L111.1,96.4z"/>
	<path class="st0" d="M211.3,107.9c0.1,0,0.2,0,0.3,0.1c1.1,1.4,2.9,1.4,4.1,2.5c0.5,0.5,1.1,1.1,1.7,1.6c0.3,0.1,0.2,0.5,0.1,0.6
		c-0.1,0.2-0.3,0.3-0.5,0.2c-0.8-0.3-1.7-0.5-2.3-1.1c-0.8-0.9-1.7-1.6-2.8-2.1c-0.6-0.3-0.6-0.8-0.8-1.4
		C211.1,108.3,211.3,108,211.3,107.9z"/>
	<path class="st0" d="M150,156c-1.4-0.2-0.5-1.3-0.5-1.9c0-0.3,0.6-0.3,0.9,0s0.3,0.8,0.2,1.1c-0.3,1.6-0.2,3-0.1,4.6
		c0,0.6,0,1.3-0.6,1.7c-0.2-0.6-1.4-0.9,0-1.6c-0.3-0.5-0.2-0.9-0.5-1.4C149,157.6,149.3,156.8,150,156z"/>
	<path class="st0" d="M157.6,72.5c0-4.7,0-9.3,0-13.9c0.5,0.5,0.5,0.5,0.5,1.3c-0.1,2.8-0.1,5.5,0.1,8.3c0.1,1.4-0.1,2.9-0.2,4.4
		C157.9,72.5,157.7,72.5,157.6,72.5z"/>
	<path class="st0" d="M178.6,97c-0.8,0.5-1.6,0.1-2.2,0.1c-1.7,0-2.4,0.8-2.1,2.4c0,0.2,0.5,0.5,0,0.8c-0.5,0.1-0.5-0.1-0.8-0.5
		c-0.9-2.5-0.1-3.8,2.1-3.5c0.5,0,0.8,0.1,1.1,0.2C177.3,96.5,177.8,96.7,178.6,97z"/>
	<path class="st0" d="M162.7,54.1c-1.1,1.4-2.6,1.6-3.9,2.2c-0.3,0.1-0.5-0.3-0.6-0.6c-0.1-0.5,0-0.8,0.3-0.9
		C159.9,54.3,161.2,53.5,162.7,54.1C162.8,54.1,162.7,54.1,162.7,54.1z"/>
	<path class="st0" d="M158.2,80.7c0,1.7,0,3.3,0,5c0.8,0,1.4-0.1,2-0.5c0.3-0.1,0.6-0.2,0.8,0.1c0.2,0.5-0.2,0.5-0.5,0.5
		c-0.6,0.2-1.1,0.5-1.6,1.1c-0.2,0.3-0.6,0.5-1.1,0.3c-0.5-0.1-0.2-0.5-0.2-0.8c-0.2-2,0.1-3.8,0.1-5.8
		C158,80.7,158.2,80.7,158.2,80.7z"/>
	<path class="st0" d="M121.2,96.2c-0.8-0.5-0.5-1.4-0.2-1.9c0.8-1.1,1.9-2.1,3.3-2.4c0.5-0.1,0.9-0.1,1.1,0.5
		c0.1,0.6-0.5,0.5-0.8,0.6c-1.1,0.2-2,0.9-3,1.6C121,94.8,121.2,95.7,121.2,96.2C121.1,96.3,121.2,96.2,121.2,96.2z"/>
	<path class="st0" d="M204.7,74.5c-1.4-0.2-2.8-0.2-4.2-0.5c-0.8-0.2-1.1,0.1-1.3,0.8c-0.1,0.6-0.5,1.1-0.9,1.4
		c-0.2,0.1-0.3,0.2-0.5,0c-0.2-0.2-0.1-0.5,0-0.5c0.5-0.6,1.4-1.1,0.8-2.3c-0.1-0.2,0.3-0.3,0.5-0.2c1.9,0.3,3.8,1.1,5.7,1.1
		C204.7,74.3,204.7,74.4,204.7,74.5z"/>
	<path class="st0" d="M98.4,109.6c-1.1,0.5-1.7,0.9-2.7,0.8c-0.5-0.1-1.1,0.5-1.6,0.9c-0.1,0.2-0.5,0.5-0.5,0.2
		c0-0.3-0.5-0.8-0.2-0.9c1.4-0.5,2.5-1.6,4.1-1.4C97.6,109.2,97.9,109.2,98.4,109.6z"/>
	<path class="st0" d="M195.6,120.4c-1.9,0.1-3.4-1.1-5-1.4c-0.3-0.1-0.3-0.5-0.1-0.8c0.1-0.2,0.5-0.3,0.5-0.1
		c0.8,1.4,2.4,0.6,3.4,1.4C194.8,119.7,195.5,119.6,195.6,120.4L195.6,120.4z"/>
	<path class="st0" d="M196.3,50.8c-0.5,0-0.5-0.3-0.5-0.6c0.1-0.9,0.8-1.4,1.4-2c0.3-0.2,0.5,0,0.6,0.2
		C198.1,49,196.8,50.8,196.3,50.8z"/>
	<path class="st0" d="M201.4,122.2c0.3,0.2,0.6,0.3,0.9,0.5c0.5,0.3,0.8,0.8,1.3,1.1c0.3,0.2,0.5,0.8,0.2,0.9
		c-0.3,0.5-0.5-0.1-0.8-0.3c-0.6-0.5-0.9-1.4-1.7-1.7c-0.1,0-0.1-0.2-0.1-0.3C201.1,122.3,201.3,122.2,201.4,122.2z"/>
	<path class="st0" d="M204.7,70.4c-0.6,0.9-1.6,0.9-2.5,1.1c-0.2,0-0.5,0-0.5-0.3c0-0.1,0.1-0.5,0.1-0.5
		C202.8,70.7,203.6,69.8,204.7,70.4z"/>
	<path class="st0" d="M188.7,110.9c1.3-0.3,2.3,0.5,3.4,0.8c0.3,0.1,0.5,0.5,0.8,0.8C191.3,112.2,189.9,111.6,188.7,110.9
		L188.7,110.9z"/>
	<path class="st0" d="M188,103.1c-0.1,0.3,0.1,0.6-0.3,0.8c-0.3,0-0.5-0.3-0.5-0.5c-0.2-0.5-0.5-1.1-0.6-1.7c0-0.1,0.1-0.5,0.2-0.5
		c0.2,0.1,0.5,0.1,0.5,0.2C187.7,101.8,187.9,102.5,188,103.1z"/>
	<path class="st0" d="M201.5,26.2c-0.1-0.2-0.2-0.5-0.3-0.8c0.8-0.2,1.6-0.2,2.4-0.1l0,0C203.1,26.3,202.3,26.3,201.5,26.2z"/>
	<path class="st0" d="M89.9,113c0.5-0.9,1.1-0.9,1.7-1.1c0.3-0.1,0.5-0.1,0.6,0.2c0.1,0.3-0.1,0.5-0.3,0.5
		C91.2,112.7,90.6,112.8,89.9,113z"/>
	<path class="st0" d="M90.6,109.5c-1.4,0.2-1.6-0.6-1.9-1.3c-0.3-0.8,0.5-0.8,1.1-1.3C89.3,108,89.6,108.7,90.6,109.5z"/>
	<path class="st0" d="M83.1,117.7c1.1,0.6,2,0.9,2.2,2.2C84.5,119.3,83.3,119.1,83.1,117.7z"/>
	<path class="st0" d="M150.5,162.7c0,0.5,0,0.8-0.5,0.8c-0.3,0-0.6-0.1-0.5-0.5c0.1-0.5,0.3-0.8,0.8-0.9
		C150.8,162.1,150.5,162.5,150.5,162.7z"/>
	<path class="st0" d="M79.3,120.8c0.5,0,0.5,0.3,0.5,0.6c0.1,0.5-0.3,0.6-0.8,0.8c-0.3,0.1-0.5-0.1-0.5-0.5
		C78.7,121.3,79,121,79.3,120.8z"/>
	<path class="st0" d="M157.9,74.3c0.3,1.4,0.2,2.7,0,4.1C157.9,77,157.9,75.6,157.9,74.3z"/>
</g>
<path class="st0" d="M123.7,189.6c-0.6,0.8-1.3,1.5-1.9,2.3c-1.2,1.6-2.3,3.2-3.1,5c-1,2.1-2,4.3-2.9,6.5c-0.2,0.7-0.3,1.4,0.4,1.8
	c0.7,0.4,1.2,0,1.7-0.5c1-0.9,1.6-2,2.1-3.2c0.8-1.9,1.6-3.8,2.6-5.7c0.3-0.6,0.7-1.1,1.1-1.7c0.2,0,0.2,0.1,0.2,0.2
	c-1.4,5.2-1.7,10.5-1.7,15.8c-0.1,7.8,1.1,15.4,2.9,22.9c0.6,2.8,1.3,5.5,2.4,8.1c0.8,1.7,1.6,3.5,2.8,5c0.3,0.4,0.8,1.1,1.1,0.9
	c0.5-0.2,0.1-0.9,0-1.4c-0.5-3.2-1.5-6.1-2.3-9.1c-2.9-11.2-4.7-22.4-3.8-34c0.2-2.5,0.4-4.9,0.7-7.3c0-0.3,0-0.7,0.2-0.8
	c0.3-0.2,0.5,0.3,0.6,0.5c1.8,2,3.5,4.1,5.7,5.8c0.2,0.1,0.3,0.2,0.5,0.3c0.6,0.5,1.3,0.8,1.8,0.2c0.6-0.7,0.1-1.4-0.4-1.8
	c-2.1-2-3.8-4.4-5.7-6.6c-0.7-0.8-1.4-1.7-1.9-2.6c-0.5-1.1-1.4-1.6-2.6-1.3C124.2,189.3,124,189.5,123.7,189.6z"/>
</svg>
