<?xml version="1.0" encoding="utf-8"?>
<!-- Generator: Adobe Illustrator 22.0.1, SVG Export Plug-In . SVG Version: 6.00 Build 0)  -->
<svg version="1.1" id="Layer_1" xmlns="http://www.w3.org/2000/svg" xmlns:xlink="http://www.w3.org/1999/xlink" x="0px" y="0px"
	 viewBox="0 0 173.2 151.1" style="enable-background:new 0 0 173.2 151.1;" xml:space="preserve">
<style type="text/css">
	.st0{fill:#4E5D44;}
	.st1{fill:#E4D3B6;}
</style>
<path class="st0" d="M152.9,40.9c12.2,22.1,8.5,54.3-9.2,72.7c-6.9,13.4-21.9,19.2-35.5,25.7c-12.1,5.9-25.2,5.4-38.7-1.2
	c-6.7-3.2-13.2-9.3-19.3-10.1c-14.7-1.8-19.5-12.6-25.4-22.4c-8.6-14.3-12.4-30.3-12.1-47c0.1-6.1,7.6-15.5,13-17.1
	c2.6-0.8,5-1.3,4.7,2.7c-0.1,1.3-0.9,2.9,1,3.2c1.6,0.3,3.4-0.3,4.3-1.8c1.1-1.8,1.9-3.8,2.9-5.8C44,29.5,51.8,22,62.5,16.9
	c7.2-3.4,16.7-0.6,22.1-8.3c0.1-0.1,0.5-0.1,0.8,0c12.5,2.8,26,0,37.9,4.9C136.4,18.6,146.1,28.6,152.9,40.9z"/>
<g>
	<path class="st1" d="M52.3,64.9c-0.1,0.7-0.1,1.2,0.5,1.4c0.6,0.2,1.2,0.1,1.4-0.5c0.3-0.8,0.5-1.6,0.8-2.4
		c2.9-10.7,8.6-19.3,19.4-23.7c2.3-1,4.6-2,7-2.9c0.6-0.3,1.2-0.6,0.9-1.3c-0.2-0.7-0.8-0.4-1.3-0.3c-9.2,2.5-17.2,6.8-22.7,15
		C55.3,54.6,53.4,59.7,52.3,64.9 M86.8,71c-11.8,0-23.6,0-35.4,0c-2.4,0-3.2-0.8-2.9-3.1c1-8,3.6-15.3,8.7-21.7
		c4.2-5.2,9.7-8.6,15.7-11.2c1.7-0.8,3.5-1.4,5.3-2.2c1.8-0.7,3.2-1.6,4.2-3.5c1.9-3.6,7.1-3.6,9,0.1c1.2,2.3,3,3.1,5.1,3.7
		c3.8,1,7.2,2.7,10.6,4.6c9.2,5.2,14,13.4,16.8,23.1c0.6,2.1,1.1,4.2,1.3,6.5c0.3,3-0.2,3.7-3.3,3.7C110.2,71,98.5,71,86.8,71"/>
	<path class="st1" d="M63,78.9c3,1.8,5.7,3.4,8.6,5.1C70.8,79.4,68.4,77.9,63,78.9 M81.2,87.2c0.3-2,0.6-3.6,0.8-5.2
		c0.5-3.4,0-3.9-3.5-3.4c-0.9,0.1-1.1,0.4-0.6,1.2C79.2,82,80,84.4,81.2,87.2 M98.1,78.6c-2.5,0-4.9,0-7.4,0c-2.3,0-2.4,0.2-2.6,2.5
		c-0.2,3.5-0.3,7.1-0.9,10.6c-0.6,3.1,0.8,4.9,2.9,6.5c4.5,3.4,11,1.3,12.7-3.9c0.7-2,1.1-4.1,1.4-6.2c0.4-2.9,0.5-6,2.6-8.4
		c0.9-1-0.2-1-0.9-1C103.4,78.6,100.7,78.6,98.1,78.6 M86.5,72.6c11.1,0,22.3,0,33.4,0c1.4,0,2.7,0,4.1,0.1c3.2,0.1,4.2,1.7,3.2,4.8
		c-0.4,1.1-1.2,1.1-2.1,1.1c-3.2,0-6.4,0.1-9.6,0c-1.3,0-2,0.5-2.3,1.7c-1.2,4.1-3.3,8.1-2.6,12.6c0.5,3.3,0.8,6.5,1.3,9.8
		c0.2,1.6-0.1,2.6-1.4,3.6c-4.4,3.3-8.8,6.7-13.1,10.1c-0.7,0.5-1.3,0.8-2.2,0.4c-4.7-1.9-9.4-4-13.6-7c-1.9-1.4-3.4-3.2-4.4-5.3
		c-1.4-2.7-2.9-5.4-3.9-8.3c-0.4-1.1-1.1-1.9-2-2.6c-5.9-4.6-11.8-9.2-17.4-14.2c-0.8-0.7-1.7-1.1-2.9-1c-0.8,0-1.6,0-2.4,0
		c-1,0-2.2,0.2-2.7-0.8c-0.6-1.4-0.6-2.9-0.1-4.3c0.2-0.5,0.8-0.6,1.2-0.7c0.9-0.1,1.8-0.1,2.8-0.1C62.2,72.7,74.4,72.7,86.5,72.6
		L86.5,72.6z"/>
	<path class="st1" d="M118.1,111.1c0,0.6-0.5,0.9-0.8,1.2c-4.9,3.9-9.9,7.8-14.8,11.8c-0.9,0.7-1.6,0.8-2.3-0.2
		c-1-1.3-2-2.6-3.1-3.9c-0.6-0.7-0.5-1.3,0.2-1.8c5.1-4,10.2-8.1,15.3-12.1c0.5-0.4,1-0.8,1.6-0.2c1.4,1.5,2.6,3.1,3.7,4.8
		C118,110.8,118.1,110.9,118.1,111.1"/>
</g>
</svg>
