<?xml version="1.0" encoding="utf-8"?>
<!-- Generator: Adobe Illustrator 22.0.1, SVG Export Plug-In . SVG Version: 6.00 Build 0)  -->
<svg version="1.1" id="Layer_1" xmlns="http://www.w3.org/2000/svg" xmlns:xlink="http://www.w3.org/1999/xlink" x="0px" y="0px"
	 viewBox="0 0 126.5 110.4" style="enable-background:new 0 0 126.5 110.4;" xml:space="preserve">
<style type="text/css">
	.st0{fill:#4E5D44;}
</style>
<path class="st0" d="M29,44.6c-0.1,0.7-0.1,1.2,0.5,1.4c0.6,0.2,1.2,0.1,1.4-0.5c0.3-0.8,0.5-1.6,0.8-2.4
	c2.9-10.7,8.6-19.3,19.4-23.7c2.3-1,4.6-2,7-2.9c0.6-0.3,1.2-0.6,0.9-1.3c-0.2-0.7-0.8-0.4-1.3-0.3c-9.2,2.5-17.2,6.8-22.7,15
	C31.9,34.3,30.1,39.4,29,44.6 M63.5,50.6c-11.8,0-23.6,0-35.4,0c-2.4,0-3.2-0.8-2.9-3.1c1-8,3.6-15.3,8.7-21.7
	c4.2-5.2,9.7-8.6,15.7-11.2c1.7-0.8,3.5-1.4,5.3-2.2c1.8-0.7,3.2-1.6,4.2-3.5c1.9-3.6,7.1-3.6,9,0.1c1.2,2.3,3,3.1,5.1,3.7
	c3.8,1,7.2,2.7,10.6,4.6c9.2,5.2,14,13.4,16.8,23.1c0.6,2.1,1.1,4.2,1.3,6.5c0.3,3-0.2,3.7-3.3,3.7C86.9,50.6,75.2,50.6,63.5,50.6"
	/>
<path class="st0" d="M39.7,58.6c3,1.8,5.7,3.4,8.6,5.1C47.4,59,45,57.6,39.7,58.6 M57.9,66.8c0.3-2,0.6-3.6,0.8-5.2
	c0.5-3.4,0-3.9-3.5-3.4c-0.9,0.1-1.1,0.4-0.6,1.2C55.8,61.6,56.7,64,57.9,66.8 M74.7,58.3c-2.5,0-4.9,0-7.4,0
	c-2.3,0-2.4,0.2-2.6,2.5c-0.2,3.5-0.3,7.1-0.9,10.6c-0.6,3.1,0.8,4.9,2.9,6.5c4.5,3.4,11,1.3,12.7-3.9c0.7-2,1.1-4.1,1.4-6.2
	c0.4-2.9,0.5-6,2.6-8.4c0.9-1-0.2-1-0.9-1C80,58.2,77.4,58.3,74.7,58.3 M63.2,52.3c11.1,0,22.3,0,33.4,0c1.4,0,2.7,0,4.1,0.1
	c3.2,0.1,4.2,1.7,3.2,4.8c-0.4,1.1-1.2,1.1-2.1,1.1c-3.2,0-6.4,0.1-9.6,0c-1.3,0-2,0.5-2.3,1.7c-1.2,4.1-3.3,8.1-2.6,12.6
	c0.5,3.3,0.8,6.5,1.3,9.8c0.2,1.6-0.1,2.6-1.4,3.6c-4.4,3.3-8.8,6.7-13.1,10.1c-0.7,0.5-1.3,0.8-2.2,0.4c-4.7-1.9-9.4-4-13.6-6.9
	c-1.9-1.4-3.4-3.2-4.4-5.3C52.6,81.6,51,78.9,50,76c-0.4-1.1-1.1-1.9-2-2.6c-5.9-4.6-11.8-9.2-17.4-14.2c-0.8-0.7-1.7-1.1-2.9-1
	c-0.8,0-1.6,0-2.4,0c-1,0-2.2,0.2-2.7-0.8c-0.6-1.4-0.6-2.9-0.1-4.3c0.2-0.5,0.8-0.6,1.2-0.7c0.9-0.1,1.8-0.1,2.8-0.1
	C38.8,52.3,51,52.3,63.2,52.3L63.2,52.3z"/>
<path class="st0" d="M94.8,90.7c0,0.6-0.5,0.9-0.8,1.2c-4.9,3.9-9.9,7.8-14.8,11.8c-0.9,0.7-1.6,0.8-2.3-0.2c-1-1.3-2-2.6-3.1-3.9
	c-0.6-0.7-0.5-1.3,0.2-1.8c5.1-4,10.2-8.1,15.3-12.1c0.5-0.4,1-0.8,1.6-0.2c1.4,1.5,2.6,3.1,3.7,4.8C94.7,90.4,94.7,90.6,94.8,90.7"
	/>
</svg>
