<?xml version="1.0" encoding="utf-8"?>
<!-- Generator: Adobe Illustrator 22.0.1, SVG Export Plug-In . SVG Version: 6.00 Build 0)  -->
<svg version="1.1" id="Layer_1" xmlns="http://www.w3.org/2000/svg" xmlns:xlink="http://www.w3.org/1999/xlink" x="0px" y="0px"
	 viewBox="0 0 142.1 129.9" style="enable-background:new 0 0 142.1 129.9;" xml:space="preserve">
<style type="text/css">
	.st0{fill:#4E5D44;}
</style>
<g>
	<path class="st0" d="M50.5,17.7c-1.4,1.7,1.2,1.7,0.9,3.1c0.9-0.7,1.8-0.6,2.6-0.7c1.7-0.2,3.4-0.7,5.1-0.8
		c2.6-0.1,5.1-1.1,7.7-1.4c2.1-0.2,4-1.3,5.9-1.2c2.6,0.2,4.4-1.3,6.2-2.4c2.1-1.4,4.2-1.8,6.6-2.2c2.1-0.3,4.1-0.8,6.2-0.9
		c2-0.1,4.1-0.2,5.8,0.9c0.9,0.6,2.1,1.1,2.6,2.3c0.2,0.7,0.7,0.9,1.5,0.7c2.2-0.5,4.5-0.9,6.7-1.2c1.7-0.2,3.3-0.5,4.9-0.8
		c1.8-0.3,3.6,0,5.4-0.4c0.4-0.1,0.8,0.1,1.2,0.1c2.3,0,4.5-0.4,6.8,0c1.9,0.4,4,0.1,5.8,0.8c1.4,0.5,3,0.3,4.1,1.6
		c0.4,0.4,1.4,0,1.6,0.7c0.6,2,2.3,3.8,1.3,6.1c-0.2,0.4-0.1,0.9-0.7,1c-0.1,0-0.2,0.2-0.2,0.2c0.7,1.5-0.5,2.8-0.3,4.2
		c0,0.3-0.1,0.7,0,0.8c1.1,1,0,1.8-0.2,2.7c-0.3,1.3-0.7,2.6-0.7,3.9c0,2.3-0.8,4.5-1.1,6.8c-0.2,1.6-0.8,3.2-0.7,4.9
		c0.1,1.3-0.8,2.5-0.8,3.8s-0.2,2.7-0.5,4c-0.8,3.6-1.2,7.3-1.9,11c-0.5,2.5-0.6,5.1-1.1,7.6c-0.6,2.7-0.3,5.5-1,8.1
		c-0.9,3.1-0.4,6.4-1,9.5c-0.2,1.1-0.6,2.4-0.1,3.5c0.3,0.8-0.7,1.1-0.5,2c0.1,0.8,0.5,1.9,0,2.9c-0.2,0.4-0.7,0.8-0.6,1.5
		c0.1,0.4-0.6-0.1-0.9-0.1c-0.4,0.1-0.3-0.2-0.2-0.5c0.9-2.4,0.8-4.9,1-7.3c0.2-2.5,0.2-5,0.5-7.5c0.2-1.5,0.3-3,0.4-4.5
		c0.1-1.9,0.9-3.7,0.5-5.7c-0.1-0.3,0.2-0.7,0.3-1.1c0.8-2.6,0.7-5.2,1-7.8c0.3-2.3,0.8-4.7,1.2-7c0.3-1.8,0.5-3.6,0.8-5.4
		c0.4-2.2,0.4-4.6,1.1-6.8c0.2-0.5,0-1,0.1-1.5c0.4-2.6,1.2-5.2,1.4-7.8c0.1-2.1,0.7-4,0.8-6.1c0-0.4,0-0.7-0.6-0.7
		c-3.1-0.4-6.2-0.6-9.3,0c-1.4,0.3-2.8,0.4-4.2,0.4c-0.5,0-0.7,0.1-0.5,0.5c0.8,2.8,0.1,5.6-0.4,8.3c-0.4,2.2-1.3,4.3-1.9,6.5
		c-0.4,1.6-0.9,3.3-0.9,5c0,1.4-0.8,2.4-0.9,3.6c-0.3,2.9-1.6,5.6-2.4,8.3c-0.3,1-0.5,2.6-2,3c0.3,0.8-0.4,1.1-0.8,1.6
		c-1.5,2-2.9,4.1-4.6,5.7c-0.8,0.8-1.7,2.1-3.2,2c-0.3,0-0.4,0.2-0.4,0.4c-0.8,2.9-2.6,4.9-5.3,6.4c-1.7,0.9-3.4,1.7-5,2.7
		c-0.5,0.3-1.2,0.1-1.8,0.3c-2.5,0.5-4.9,0.4-7.4,0.2c-1.3-0.1-2.6-0.6-3.8-0.6c-1.5,0-3-0.8-4.5-0.3c-0.5,0.2-0.9-0.3-1.4-0.4
		c-2.3-0.5-4.6-1.2-6.5-2.6c-1.8-1.4-3.5-3-4.9-5c-0.9-1.3-1.8-2.4-2.5-3.9c-1-2.3-2.1-4.5-2.8-6.9c-0.8-2.9-0.9-5.8-0.7-8.8
		c0.2-1.8-0.4-3.5-0.7-5.2c-0.3-1.4-0.3-2.7-0.6-4.1c-0.2-1.1-0.9-2-0.8-3.1c0-0.3-0.2-0.5-0.5-0.5c-2.8,0.4-5.7-0.2-8.5,0.8
		c-3.3,1.1-6.8,1.4-10.3,1.1c-2.7-0.2-5.3-0.5-8-0.4c-1.5,0.1-2.9-0.9-4.4-0.9c-2.4,0-4.7-0.9-7.2-0.8c-2.2,0.1-4.5,0-6.5-1.2
		c-0.3-0.2-0.6-0.2-0.7,0s0,0.4,0.1,0.6c1,2.1,1.4,4.4,1.8,6.6c0.2,1.2,0.5,2.4,0.4,3.5c-0.1,1.4,0.1,2.7-0.1,4.1
		c-0.2,2-0.1,4-0.6,6c-0.4,1.4-0.3,3-0.3,4.5c-0.1,2.4-0.4,4.8-0.2,7.1c0.2,3.3,0.2,6.6,0.6,9.9c0.1,0.9,0.3,2,0,2.9
		c-0.5,1.7,0.1,3.4,0.1,5.1c0,3.2,0.9,6.4,0.5,9.6c0,0.2,0.1,0.5,0.2,0.7c1.7,2.4,3.2,5,5.1,7.3c1.8,2.1,3.3,4.4,5.3,6.5
		c1.8,1.9,3.6,3.7,5.8,5c0.6,0.3,1.2,0.6,1.8,0.9c1.3,0.6,2.3,1.7,3.1,2.9c0.3,0.4,0.2,0.3,0.7,0.1c0.4-0.3,0.7,0.1,1,0.4
		c1.1,1.1,2.6,1.3,3.9,0.5c0.3-0.2,0.7-0.1,1-0.4c0.7-0.8,1.4-1.6,2.5-2.1c0.6-0.3,1.2-0.4,1.7-0.6c2.3-0.6,4.4-1.8,6.8-2.3
		c0.8-0.2,1.1,0.5,1.9,0.3c1.5-0.4,2.9-0.9,4.4-1.1c2.3-0.3,4.4-1.3,6.7-1.4c0.9-0.1,1.8-0.4,2.6-0.8c0.6-0.3,1.4-0.1,2.1-0.1
		c0.4,0,0.9,0,1.3-0.1c2.1-0.5,4.3-0.7,6.4-1.3c1.7-0.5,3.7-0.5,5.5-1.1s3.6-0.9,5.3-1.3c2.7-0.6,5.2-2,7.9-2.4
		c1.7-0.2,3.3-0.8,5-0.8c1.8,0,3.7,0.2,5.6,0.4c1.5,0.1,3,0.6,4.5-0.2c1,0.9,2-0.1,3-0.1c1.1,0.1,2.2-0.2,3.3-0.1
		c1.9,0.2,3.8,0.3,5.7,0.1c2.4-0.3,3.1-0.9,3.7-3.3c0.2-0.8,0.6-0.9,1.2-0.8c0.2,0,0.6,0.3,0.3,0.6c-0.6,0.5-0.6,1.2-0.7,1.8
		c-0.4,1.7-1.8,2.3-2.9,3.3c-0.1,0.1-0.3,0.1-0.4,0c-1.7-0.5-3.5,0.1-5.2-0.1c-1.9-0.2-3.8-0.3-5.7-0.4c-1.1-0.1-2.1,0.2-3.2,0.3
		c-1.3,0.1-2.6,0.1-3.9-0.1c-2.1-0.2-4.2-0.1-6.3,0c-3.8,0.2-7.2,1.6-10.7,2.9c-1.5,0.6-3.3,0.8-4.9,1.1c-3.2,0.7-6.5,0.9-9.7,1.9
		c-1.2,0.4-2.4,0.3-3.7,0.5c-2.9,0.3-5.7,1.1-8.5,1.7c-3.8,0.8-7.6,1.8-11.4,2.8c-0.5,0.1-1,0.5-1.5-0.2c-0.2-0.3-0.5,0-0.7,0.1
		c-1.6,0.4-2.4,1.8-3.7,2.6c-0.9,0.6-2,0.7-2.9,1.4c-1.2-0.9-1.9,0.5-2.9,0.7c-1.4,0.4-2.7,0.6-3.8-0.6c-0.1-0.1-0.1-0.3-0.4-0.2
		c-1.4,0.8-2-0.4-2.6-1.1c-1-1-2.1-1.8-3.2-2.5c-1.4-0.9-3-1.7-4.1-3.2c-0.2-0.3-0.5-0.5-0.7-0.8c-1.8-1.6-3.3-3.3-4.5-5.3
		c-0.4-0.6-0.9-1-1.3-1.4c-1.4-1.2-2.1-3-3.4-4.2c-1.4-1.4-2-3.2-3.3-4.6c-0.5-0.6-0.7-1.5-0.5-2.3c0.3-1.8,0-3.6-0.2-5.3
		c-0.3-2.4,0-4.7-0.5-7.1c-0.2-1.2-0.3-2.6,0-4c0.2-1,0.1-2.4-0.3-3.5c-0.4-1.2,0-2.3-0.1-3.4c-0.4-2.9-0.2-5.8,0-8.7
		c0.1-2.7,0.3-5.4,0.7-8c0.3-1.9,0.1-3.8,0.3-5.7c0.3-3.3-0.2-6.4-0.7-9.6c-0.3-1.8-1.4-3.2-1.9-5c-0.7-2.3-2-4.4-1.7-6.9
		c0.1-0.4,0.3-0.8,0.2-1.3c-0.2-0.9,0.1-1.8-0.6-2.6S5,27.6,5.8,27c0.1-0.1,0.4-0.1,0.6-0.2c1.9-0.4,3.9-0.3,5.9-0.2
		c1.4,0,2.8-0.6,4.1-0.7c1.1-0.1,1.9-0.7,2.9-1c1.4-0.4,3-0.4,4.4-1.1c0.9-0.5,2.2-0.2,3.2-0.5c0.3-0.1,0.5,0,0.4-0.5
		c-0.1-1.3,0.7-2.5,1.1-3.7c0.1-0.4,0.6-0.5,1-0.6c1.4-0.3,2.8-0.4,4.1-0.6c1.1-0.2,2.2-0.9,3.4-0.8c1.1,0.1,1.9-0.5,2.9-0.7
		c2.2-0.6,4.5-1.1,6.8-0.9c0.6,0.1,1.3,0.5,1.8,0.9C49.3,17.6,49.7,17.9,50.5,17.7z M112.8,48.5c2.4-2.7,3.4-8.1,1.8-10.7
		c0.7,2.2,0.1,4.3-0.5,6.4C113.6,45.5,112.9,46.9,112.8,48.5c-0.5,0.8-1,1.6-1,2.5C112.2,50.2,112.9,49.5,112.8,48.5z M137.4,23.6
		c-0.6,0.7-1.2,1.1-2.2,1c-0.7,0-1.4,0.2-2.1,0.4c-0.9,0.3-1.9,0.4-2.7,0.2c-3.6-0.7-7.1-0.4-10.6,0.5c0.5,1.4,1.3,2.7,1.6,4.1
		c0.1,0.4,0.3,0.5,0.7,0.3c1.1-0.7,2.5-0.5,3.6-0.9c2-0.7,4-0.1,6-0.5c1.4-0.3,3,0.2,4.5,0c0.8-0.1,0.8-0.3,0.7-0.7
		c0-0.9,0.1-1.7,0.4-2.6C137.3,24.8,137.5,24.2,137.4,23.6c1-1.4,1.6-2.8,1.1-4.6c-0.2-0.7-0.8-0.9-1.1-0.4c-0.5,0.8-1,1-1.8,1.3
		c-1.5,0.5-2.8,1.3-4.4,0.9c-0.2,0-0.2,0-0.2,0.1c-0.8,1.1-1.9,0.8-2.9,0.6c-0.5-0.1-1-0.2-1.5-0.1c-0.8,0.2-1.4,0.2-2.2,0
		c-0.4-0.2-0.9-0.6-1.2-0.5c-0.4,0.1-0.6,0.1-1,0.1c-1.5,0.1-3-0.1-4.5,0.3c-0.1,0-0.6-0.4-0.5,0.2c0.1,0.3-0.3,0.8,0.1,0.9
		c0.8,0.2,0.8,0.9,1.1,1.4s0.1,1.1,1.1,0.5c0.9-0.5,2.2-0.4,3.3-0.7c1-0.2,2-0.1,3-0.6c0.7-0.4,0.9,0.1,0.6,1c0.4-0.9,1.2-1,1.7-0.8
		c2.5,0.8,4.8,0.2,7.2-0.3c0.6-0.1,1.3-0.2,1.5-1.1C137.2,22.4,137.5,22.9,137.4,23.6z M110,52.8c0-0.2-0.1-0.3,0-0.4
		c1.2-2.6,1.8-5.5,2.9-8.2c0.9-2.2,1.1-4.5,0.3-6.9c-0.7-2.1-2.2-3.7-3.2-5.6c-0.2-0.5-0.7-0.3-1.1-0.2c-3.1,0.3-6.3,0.6-9.4,1.2
		c-2.4,0.4-4.8,1-7.2,1.8c-1.8,0.6-3.4,1.8-5.1,2.6c-0.4,0.2-0.9-0.1-0.9,0c-1,1-2.3,1.7-3.5,2.1c-2.3,0.7-4.5,1.8-6.8,2.6
		c-2.2,0.7-4.3,1.6-6.6,2.2c-0.7,0.2-1.1-0.5-1.6-0.2c-0.8,0.4-1.5,0.7-2.4,0.8c-0.7,0-1.1,0.4-1.1,1.2c0.1,1.6,0.1,3.2,0.2,4.9
		c0.1,1.5,0,3,0.9,4.3c0.2,0.3,0.3,0.6,0.4,1c0.5,2.2,0.9,4.4,1.7,6.5c0.5,1.2,0.8,2.5,1.2,3.7c0.8,2.6,1,5.4,1.9,8
		c0.6,1.9,1.3,3.8,2.1,5.6c0.7,1.5,1.6,3.1,3.5,3.5c0.8,0.2,1.3-0.3,1.9-0.3c2.3,0.1,4.1-1.3,6.2-1.7c1.4-0.3,2.5-1.2,3.9-1.5
		c1.3-0.3,2.7-0.5,3.9-1c1.8-0.8,3.8-0.7,5.6-1.4c1.6-0.7,3.4-0.9,4.9-2.3c1.6-1.6,1.8-3.6,2.2-5.5c0.3-1.7,1.4-2.9,2-4.3
		c0-0.1,0.4-0.1,0.5-0.1c0.3,0.1,0.1,0.3,0.1,0.5c-0.3,0.9-0.4,1.8-1,2.5c-0.1,0.1-0.6,0.3-0.2,0.5c0.6,0.3,0.2,0.6,0.1,0.9
		c-0.3,0.9-0.7,1.8-0.7,3c0.6-0.4,1.1-0.8,1.9-0.3c-0.6-0.8-0.7-0.9-0.1-0.9c0.4-0.1,0.4-0.3,0.6-0.5c1.2-1.4,2.5-2.8,3.5-4.4
		c1.2-1.9,2.3-3.8,2.7-6c0.3-1.6,0.9-3.2,1.6-4.7c0.8-1.7,1-3.4,1.3-5.2c0.3-1.6,0.3-3.2,0.7-4.8c0.8-3.1,1.8-6.1,2.3-9.3
		c0.6-4.4-0.1-8.2-2.9-11.7c-1.2-1.5-2.3-2.8-4.4-3.1c-1.5-0.2-2.9,0.1-4.3-0.2c-0.4-0.1-1-0.3-1.1-0.2c-0.7,1.3-1.9,0.8-3.3,1
		c1.1,0.6,2,1,2.8,1.5s1.8,1,2.2,1.9c0.5,1.2,1.1,2.4,1.6,3.6c0.3,0.7,0.2,1.7,0.7,2.2c1.5,1.5,2.2,3.5,3.4,5.1
		c1.4,1.9,1.7,4.2,1.6,6.6c-0.1,1.1-0.8,2-1.2,3c-1,2.2-1.9,4.4-3.2,6.4c-0.5,0.8-1,1.7-1.2,2.7c-0.2,0.9-0.8,1.8-1.1,2.8
		s-1,1.7-1.3,2.7s-0.3,2-0.5,3c-0.1,0.7-0.6,0.9-1.2,0.9c-0.6,0-0.4-0.5-0.3-0.8c0.5-1.9,1-3.8,1.7-5.7c0.4-1,0.4-2.3,1.8-2.6
		c0.2,0,0.4-0.3,0.2-0.5c-0.8-0.7-0.3-1.1,0.2-1.7c0.5-0.6,1-1.2,0.7-2.1C110.9,52,110.6,52.5,110,52.8z M85.3,19.8
		c-0.7-0.5-0.7-0.5-0.8-1c-0.3-1.3-0.8-1.6-2.1-1.6c-0.7,0-1.5,0.3-2.1-0.3c-0.1-0.1-0.4-0.1-0.4,0c-0.3,0.7-0.9,0.3-1.3,0.2
		c-0.5-0.1-0.9-0.1-1.4,0.2c-1.4,0.7-3,0.8-4.4,1c-1.6,0.1-3.1,0.6-4.6,1c-1.9,0.5-3.8,0.8-5.7,1.1c-2.4,0.3-4.8,0.5-7.2,1
		c-1.3,0.3-2.5,0.6-3.7,0.9c-1.1,0.3-2.3,0.3-3.3,0.7c-0.5,0.2-1,0.3-1.4,0.2C46,23,46,23.6,45.8,24.1c-0.1,0.2,0,0.5-0.1,0.8
		c-0.4,1.1-0.1,1.3,1,1.3c1.9,0,3.7-0.6,5.6-0.9c2.6-0.4,5.2-0.7,7.7-1.6c0.3-0.1,0.6-0.2,0.9-0.2c1.6-0.3,3.3-0.7,4.9-0.8
		c1.2-0.1,2.2-0.7,3.4-0.6c2.9,0.2,5.7-0.2,8.5-0.8c1.6-0.3,3.3-0.2,4.9-0.3c0.6,0,1.4-0.1,1.8,0.6c0.1,0.2,0.6,0.1,0.6,0.5
		c-0.1,0.3-0.4,0.3-0.7,0.4c-1.7,0.4-3.5,0.3-5.2,0.4c-1.8,0.1-3.7,0.5-5.5,0.6s-3.7,0.1-5.5,0.4c-1.7,0.3-3.5,0.6-5.2,0.9
		c-1.6,0.3-3.3,0.2-4.7,0.8c-1.9,0.8-3.8,0.7-5.7,1.2c-2.2,0.5-4.4,0.7-6.6,0.7c-0.5,0-0.9,0.2-0.9,0.6c0.1,0.7-0.2,1.3-0.3,1.9
		c-0.3,1.5,0.7,2.5,2.2,2.1c1.1-0.3,2.3,0.4,3.3-0.5c0.1-0.1,0.4,0.1,0.6,0.1c2.4,0.6,3.8,0.3,6-0.7c0.6-0.3,1.5-1.5,2.5-0.3
		c0,0,0.3-0.1,0.5-0.2c0.8-0.3,1.6-0.6,2.4-1c0.3-0.1,0.6-0.3,0.9-0.2c0.9,0.3,1.8,0.3,2.5-0.5c0.5,0.7,0.9-0.8,1.3-0.1
		c0.4,0.7,0.9,0.2,1.2,0c0.9-0.5,1.8-1,2.8-0.8c0.7,0.1,1.3,0.2,2,0.2c1.5,0.1,2.8-0.6,3.9-1.3c1.2-0.8,2.4-1.1,3.7-1.3
		c1.5-0.1,3-0.3,4.5-0.5c1.4-0.1,2.9-0.5,4.4-1.1c1.6-0.7,3.4-0.8,5.1-1.4c1.9-0.7,3.9-0.9,5.8-1.4c-1.1-0.2-2.3,0.2-3.4,0
		c-0.2,0-0.5,0.2-0.6-0.1s0.1-0.7,0.3-0.7c1-0.1,1.7-0.9,2.6-1c1.1,0,1-0.6,0.9-1.3c0-0.9-0.9-1.4-1-2.2c-0.3-1.5-1.2-2.4-2.5-2.9
		c-1.7-0.7-3.5-0.7-5.4-0.6c-3.3,0.3-6.5,1.2-9.7,1.6c1.3,0.4,1.8,2.2,3.5,1.9c0.2,0,0.4,0.2,0.3,0.3C84.9,17.5,85.5,18.6,85.3,19.8
		z M73.4,82.8c-0.9-0.9-1.5-1.6-1.7-2.6c-0.2-0.9-0.4-1.8-0.9-2.6c-1.2-2.3-1.9-4.7-2.1-7.3c-0.1-1.4-0.5-2.8-1.1-4.2
		c-0.7-1.7-1.8-3.3-1.9-5.4c-0.1-1.7-0.8-3.4-1.4-5.1c-0.5-1.4-1.3-2.6-1.1-4.2c0.1-0.8,0.6-1.6-0.2-2.3c-0.1-0.1,0-0.5,0.2-0.7
		c0.3-0.3,0.3-0.6,0.2-1c-0.2-0.7-0.1-1.4-0.1-2.1c-0.1-2.4,0-4.9,0-7.4c0-1.1,0.5-2.2,0.1-3.4c-0.2-0.6-0.6-1.1-1.1-0.8
		c-1.5,0.6-3-0.2-4.5,0.2c-1.1,0.3-2.3,0-3.4-0.2c-0.5-0.1-0.8,0.2-1.1,0.5c-0.4,0.4,0.2,0.6,0.3,0.8c0.8,1.3,1.3,2.8,1.7,4.3
		c0.7,2.5,1.9,4.8,2.4,7.4c0.5,2.9,1,5.8,1.4,8.8c0.3,2,0,4,0,6c0,1,0.1,2,0.4,2.9c0.7,2.4,1.6,4.7,2.6,7c1,2.4,2.7,4.1,4.2,6.1
		c1.4,1.9,3.5,3.2,5.5,4.5C72,82.5,72.5,82.7,73.4,82.8z M109.5,29.9c0.1-0.9-0.9-1.5-1.1-2.5c0-0.2-0.4-0.2-0.6-0.1c-1,0-2,0.1-3,0
		c-3-0.4-5.9-0.1-8.7,1.2c-2.1,1-4.4,1.4-6.6,2.2c-2.4,0.9-4.9,1.3-7.2,2.6c-1.6,0.9-3.2,1.9-5,2.5C74,37,70.6,37.9,67.2,39
		c-1.3,0.4-1.6,0.2-2.1-1.2c0.9-0.1,1.9-0.2,2.7-0.6c2.7-1,5.5-1.7,8.2-2.5c0.9-0.2,2-0.5,2.5-1c1.1-1.2,2.7-1.2,3.9-2.1
		c0.6-0.4,1.3-1.1,2.2-1.1c2-0.1,3.8-1.2,5.7-1.7c1.6-0.4,3.1-1,4.6-1.6c0.8-0.4,1.7-1,2.7-0.6c2.1-1.7,4.6-0.7,7-0.8
		c0.8,0,1.6,0.1,2.6-0.2c-1.3-0.7-2.5-1.3-3.5-2c-0.9-0.7-1.8-0.8-2.8-0.6c-1.3,0.2-2.6,0.3-3.9,0.6c-4.1,1.1-8.1,2.3-12.1,3.5
		c-1.3,0.4-2.8,0.4-4,1.1c-2.4,1.4-5.2,2.1-7.7,3.3s-5.2,1.9-7.8,2.6c-0.6,0.2-0.7,0.4-0.6,0.9c0.1,2.1-0.1,4.2-0.2,6.3
		c0,0.5-0.2,1.6,0.6,1.5c0.9,0,1.9-0.2,2.7-0.4c1.9-0.4,3.8-1,5.6-1.6c1.3-0.5,2.7-0.9,4-1.6c1.5-0.8,3.2-1.5,4.8-2.2
		c2-0.8,4.2-1,6-2.6c1.4-1.3,3.4-1.7,5.3-2.1c3.3-0.7,6.7-1.6,10.1-2.1C105.5,30.1,107.5,30.2,109.5,29.9z M30.8,20.8
		c-0.3-0.1-0.4,0.1-0.5,0.3c-0.8,1.6-1.2,3.5-0.9,5.2c0.4,2.6,0.9,5.2,1.2,7.8c0.1,0.7,0.4,0.9,1,0.9c1.8,0,3.5-0.6,5.3-0.4
		c0.7,0.1,1.7,0,2.2-0.4s1.3-0.7,1.6-0.7c1,0,1.8-0.4,2.2-1.2s0.3-1.8,0.2-2.6c-0.1-1.2,0.1-2.2,0.5-3.2c0.1-0.3,0.3-0.5,0.1-0.8
		c-0.4-1,0-2.1-0.3-3.1c1.3-0.8,1-2.5,1.7-3.6c0.3-0.4,0.2-1-0.7-0.8c-1.8,0.4-3.6,0.7-5.3,1.2C36.5,20,33.7,20.4,30.8,20.8z
		 M7.1,36.7c0.1,1.4,0.4,2.5,1,3.6c0.5,0.9,0.9,1.7,2.1,1.6c0.3,0,0.6,0,0.8,0.1c1.3,0.8,2.9,0.9,4.3,0.9c2.8,0,5.6,0.7,8.4,0.9
		c2.1,0.2,4.2,0.9,6.4,0.5c0.3,0,0.6,0,0.8,0c2,0.2,3.9,0.5,5.9,0.5c3,0,5.9-0.1,8.8-0.7c2.8-0.6,5.5-1.2,8.4-1
		c0.8,0,0.7-0.3,0.5-0.8c-0.3-0.8-0.7-1.6-0.8-2.5c-0.1-0.7-0.3-0.6-0.8-0.5c-0.8,0.2-1.8,0.5-2.6,0.3c-3.7-0.7-7.3,0.4-11,0.4
		c-3.4,0-6.7,0.8-10.2,0.9c-5.7,0.2-11.3-0.3-16.8-1.2c-0.7-0.1-1.4-0.4-2-0.9C9.4,38.1,8.3,37.4,7.1,36.7z M51.5,38.2
		c1.6-0.1,1.6-0.1,0.9-1.6c-0.3-0.5-0.5-1-0.8-1.5c-1-1.8-2.3-1.9-3.5-0.3c-0.2,0.3-0.5,0.3-0.8,0.3c-2.9-0.1-5.9,0.2-8.8,0.7
		c-2,0.4-3.9,0.8-5.9,1c-1.6,0.2-3.3,0.8-5-0.1c-0.6-0.3-1.6-0.2-2.4-0.1c-1.6,0.2-3.2,0.5-4.8,0.1c-2-0.5-4.1-1-6.1-1.4
		c-1.9-0.4-3.9-0.7-5.6-1.7c-0.3-0.2-1-0.3-1,0.1c0,0.7-0.8,1.6-0.1,2c1.5,0.9,2.7,2.2,4.5,2.6c1,0.2,2.1,0.4,3.1,0.6
		c1.9,0.4,3.8,0.7,5.8,0.9c2.5,0.3,4.9-0.2,7.4-0.2c2.3,0,4.5,0,6.8-0.4c1.1-0.2,2.2-0.8,3.2-0.5c1.3,0.4,2.4,0.1,3.6-0.2
		c0.4-0.1,0.7-0.4,1.2-0.4C45.8,38.2,48.6,38.2,51.5,38.2z M120.9,13.8c0.1,0.5,0.8,0.2,0.8,0.7c0,0.2-0.4,0.4-0.5,0.4
		c-1.3-0.5-2.5,0.7-3.9,0.3c-0.5-0.1-1.3-0.3-2.1,0c-1.9,0.8-4,0.1-6.1,0.4c-2,0.3-4.1,0.3-6.1,0.7c-1.3,0.3-1.3,0.8-1.4,1.8
		c-0.1,0.9,0.2,1,0.9,0.9c2.8-0.5,5.6-0.7,8.3-1.6c1.6-0.5,3.4-0.6,5.2-0.8c2.3-0.3,4.5-0.3,6.8-0.3c0.7,0,1.3,0.5,2.1,0.4
		c1.2-0.2,2.4,0.6,3.8,0.5c1-0.1,2.2,0.4,3.3,0.5c1,0.1,2-0.4,3,0.2c0.2,0.1,0.3,0.4,0.6,0.2c0.2-0.2,0.4-0.6,0.1-0.9
		c-1-1.1-2-2.1-3.7-2.3c-2-0.3-4.1-0.1-6.1-0.7c-0.4-0.1-0.7-0.3-0.7,0.3c0,0.2-2.8,0.3-3,0.2c0-0.1,0-0.2-0.1-0.2
		C121.6,13.6,121.6,13.6,120.9,13.8z M6.5,30c0.9,1,1.6,2.2,3,2.6c1.4,0.4,2.8,0.9,4.2-0.2c0.8-0.7,1.7-1.4,2.9-1.4
		c1.1,0,2.2-0.1,3.3-0.5c1-0.3,2-0.9,3-1c1.6-0.1,3-0.8,4.5-0.8c0.2,0,0.8-0.2,0.6-0.6c-0.2-0.7,0-1.3-0.1-2c-0.2-0.7-0.4-0.8-1-0.6
		c-0.2,0.1-0.5,0.1-0.7,0.2c-3.1,0.6-6.3,1.2-9.3,2.3c-2,0.7-4,1.2-6.2,0.8c-1.4-0.3-2.7-0.4-3.6,1.1C7.1,30,6.7,29.9,6.5,30z
		 M81.4,84c5.7,3.1,18.5-1.1,20.7-6.6c-0.2-0.1-0.3,0-0.4,0c-1.8,0.6-3.5,1.5-5.4,1.9c-2.8,0.6-5.6,1.3-8.3,2.3
		C85.8,82.3,83.7,83.2,81.4,84z M27.9,32.6c0.4,0.2,0.1,0.6,0.3,0.8c0.1,0.1,0.3,0.2,0.4,0.1c0.1,0,0.2-0.2,0.2-0.3
		c0-0.9-0.1-1.8-0.2-2.7c0-0.3-0.4-0.5-0.7-0.4c-0.7,0.1-1.4,0.2-2,0.4c-2.7,0.9-5.6,1.3-8.4,1.9c-1.5,0.4-3,0.6-4.2,1.7
		c1,0,1.9,0.1,2.8,0.3c0.5,0.1,0.3,0.6,0.5,0.6c0.7,0,1.4-0.2,2.1-0.1c0.9,0.2,1.6,0,2.5-0.1c1.7-0.2,3.1-1.2,4.9-1
		C26.7,33.9,27.9,33.8,27.9,32.6z M130,19.3c-1.8-1-3.7-0.5-5.4-0.9c-1-0.2-2.1-1.3-3.3-0.2h-0.1c-1.6-0.6-3.2-0.5-4.8-0.1
		c-0.4,0.1-1.4,0.1-1.3,1c0.1,0.8,1,1.1,1.5,1c2.6-0.4,5.2,0,7.8-0.2C126.3,19.8,128.1,19.8,130,19.3z M71.4,29.2
		c-0.1,0-0.2,0-0.3,0c-2.9,0.4-5.6,1.6-8.6,1.9c-0.6,0-0.7,0.7-0.2,1c0.4,0.3,1.1,0.6,1.5,0.4c1.6-0.6,3.4-0.3,4.9-0.8
		c1.8-0.7,3.7-1.5,5.5-2.3c0.2-0.1,0.4-0.1,0.3-0.4c-0.1-0.2-0.2-0.2-0.5-0.1C73.2,29.3,72.3,29.1,71.4,29.2z M101.1,20.6
		c0.3,0.4,0.6,0.3,0.8,0.3c2.9-0.1,5.7-0.6,8.6-0.4c1,0,2,0.2,3-0.3c0.7-0.4,0.1,0.4,0.4,0.5c0.3-0.2-0.2-1.2,0.8-0.9
		c0.1,0,0.1-0.4,0-0.6c-0.1-0.2-0.1-0.3-0.5-0.3c-1.6,0.4-3.2-0.1-4.8,0.8c-0.6,0.4-1.5,0.5-2.2,0.4
		C105.2,19.8,103.2,20.7,101.1,20.6z M61.8,32.9c-0.2-0.2-0.7,0.1-0.7-0.5c0-1.1-0.6-1-1.4-0.7c-0.6,0.2-1.3,0.3-1.8,0.5
		c-0.4,0.2-1.3,0.1-1.2,0.6c0.1,0.7,0.7-0.1,1.2,0c1,0.3,2.1,0,3.1,0.5C61.1,33.4,61.5,33.1,61.8,32.9z M24.9,35.1
		c1.4,0.7,2.5-0.1,3.6,0.2c0.1,0,0.3-0.2,0.2-0.5c-0.1-0.2-0.3-0.3-0.5-0.2C27.3,35,26.2,35.1,24.9,35.1z"/>
	<path class="st0" d="M127.7,104.7c0.3,1.2-0.1,1.9-0.2,2.6c0,0.4-0.3,0.5-0.7,0.5c-0.3,0-0.6,0.1-0.7-0.2c-0.1-0.3-0.2-0.5,0.2-0.8
		c0.4-0.2,0.4-0.9,0.3-1.2c-0.2-1.4,0.4-2.7,0.4-4.1c0-0.4,0.1-0.8,0.6-0.7c0.4,0.1,0.3,0.4,0.4,0.8
		C128.3,102.8,127.2,103.9,127.7,104.7z"/>
</g>
</svg>
