<?xml version="1.0" encoding="utf-8"?>
<!-- Generator: Adobe Illustrator 22.0.1, SVG Export Plug-In . SVG Version: 6.00 Build 0)  -->
<svg version="1.1" id="Layer_1" xmlns="http://www.w3.org/2000/svg" xmlns:xlink="http://www.w3.org/1999/xlink" x="0px" y="0px"
	 viewBox="0 0 151.5 225.5" style="enable-background:new 0 0 151.5 225.5;" xml:space="preserve">
<style type="text/css">
	.st0{fill:#4E5D44;}
</style>
<g>
	<path class="st0" d="M116.8,55.8c-0.5,0.1-0.4,0.5-0.4,0.8s0.3,0.6-0.1,0.7c-0.6,0.1-0.2-0.5-0.4-0.7s0-0.5-0.1-0.7
		c-0.1-0.7,0.2-1.4-0.2-2.2c-0.2-0.3,0-1,0.1-1.1c0.8-0.3,0.6-1,0.5-1.4c-0.2-0.7-0.1-1.5-0.3-2.2c-0.6-2.7-2.1-3.5-4.8-2.7
		c-0.8,0.2-1.6,0.6-2.6,0.6c-1.1,0-2.1,0.7-2.6,1.7c-0.8,1.6-2.3,2.3-3.7,3c-0.8,0.4-1.6,0.7-2.3,1.2c-0.1,0.1-0.2,0.2-0.3,0.2
		c-1.7-0.7-2.6,0.9-3.9,1.4c-1.2,0.5-2.5,0.3-3.7,0.3c-0.4,0-0.7-0.7-1.4-0.8c-1.4-0.2-2.7-0.2-4.1-0.2c-1.4,0-2.5-0.6-3.3-1.6
		c-0.4-0.5-0.8-1-1.4-1.3c0.5-0.4,0.8,0.3,1.3,0c-2.9-1.2-6-1.5-8.3-3.8c1.4,0.6,2.7,1.3,4.2,1.7c3.1,0.9,6.2,2,9.1,3.5
		c2.6,1.3,5,0.6,7.5,0.2c0.5-0.1,1.1-0.1,1.7-0.2c1.9-0.3,3.2-1.5,4.6-2.6c0.3-0.2,0.3-0.4,0-0.5c-0.8-0.4-0.9-1-0.6-1.8
		c0.3-0.9,1-1.4,1.7-1.4c1.5-0.1,2.9-0.7,4.4-1c0.6-0.1,1.2-0.1,1.8,0.1c0.3,0.1,0.4,0.8,0.8,0.3c0.3-0.4,0.5-0.9,0.1-1.4
		c0,0-0.1,0-0.1-0.1c-0.1-0.1-2.2-0.5-2.4-0.4c-0.8,0.3-1.7,0.2-2.5,0s-1.5-0.5-2.3-0.6c-1.4-0.2-1.7-1.2-1.8-2.3
		c-0.1-0.8,0.6-1,1.1-1.4c0.5-0.3,1-0.4,1.5-0.7c-1.2-1.1-2-1.1-3.4-0.3c-0.2,0.1-0.4,0.2-0.5,0c-1.7-1.4-2.2-1.5-4.1-0.2
		c-0.3,0.2-1.7-0.1-1,1.2c0.1,0.2-0.3,0.2-0.4,0.2c-0.8-0.3-1.4,0.3-2.2,0.3c-0.3,0-0.6,0.2-0.7,0.6c0,0.5,0.4,0.3,0.7,0.4
		c1.2,0.4,2.3,0.1,3.5-0.2c1.4-0.3,2.4,0.2,3,1.5c0.2,0.4,0.4,0.6,0.7,0.7c1.3,0.5,1.6,1.3,1.2,2.6c-0.3,0.8-0.5,1.6-0.5,2.5
		c0,0.8-0.3,1.3-1.1,1.4c-0.2,0-0.5,0.1-0.7,0.2c-3.1,2.4-6.6,1.8-10,1.4c-0.8-0.1-1.5-0.7-1.9-1.5c-0.8-1.4-1.5-2.9-1-4.6
		c0.1-0.3,0.3-0.6-0.1-0.9c-0.8-0.5-0.5-0.7,0.1-1.2c1.2-0.8,2.4-1.5,3.6-2.1c0.4-0.2,0.7-0.5,0.5-0.9s0.1-1.1-0.6-1.3
		c-0.6-0.2-1.4-0.1-1.5-1.1c0,0-0.3-0.1-0.5-0.1c-0.1,0-0.2,0-0.1,0.2c0.1,0.5-0.1,0.7-0.7,0.5C84,37,82,36.8,80.2,36
		c-1.3-0.5-2.7-0.2-3.9-1c-0.2-0.1-0.8,0.2-0.6-0.4c0.1-0.3,0.3-0.7,0.8-0.5c0.3,0.1,0.7,0.2,1,0.3c1.5,0.6,3.1,0.8,4.7,1.2
		c2.4,0.6,4.9,0.8,7.4,1.2c1.6,0.3,2.9,0.2,4.2-0.6c0.3-0.2,1.2-0.8,1.2,0.4c0,0.3,0.2,0.3,0.4,0.2c1.6-0.7,3.3-0.7,5-0.8
		c-3.7-3.2-8-5.1-12.5-6.5c-1.7-0.5-3.2-0.9-4.9,0c-0.4,0.2-1.2-0.1-1.8,0.2c-0.3,0.1-0.4,0.2-0.4,0.6c0.1,0.8-0.5,1.1-1.2,0.9
		c-0.8-0.3-1.5,0.3-1.9,1c-0.4,0.8-1.1,0.9-1.8,1.1c-0.4,0.1-0.9,0.3-1.2,0.5c-1.2,1-2.8,1.5-3.8,2.8c-0.4,0.5-1.2,0.7-1.9,0.5
		c-0.5-0.1-1,0.1-1.1,0.5c-0.1,0.5,0.5,0.2,0.7,0.4c0.4,0.5,1.2,0.9,0.2,1.6c0.2-0.1,0.4-0.1,0.7-0.2c-0.1,0.2-0.1,0.3-0.1,0.3
		c-0.3,0.2-0.5,0.6-0.9,0.1c-0.5-0.6-1.3-1-1.6-1.7c-1-1.8-2.6-2.6-4.4-3.3c-1.4-0.5-2.4-2.1-3.9-2c-2.6,0.1-5-0.7-7.5-1.3
		c-2.5-0.6-5-0.9-7.6-1.4c-0.9-0.2-1.9-0.1-2.7,0.1c-0.8,0.2-1.9,0.3-1.8,1.7c0,0.5-0.5,1.1-0.9,1.5c-1.1,1-2.4,1.9-3.9,2.3
		c-1,0.3-1.9,0.5-2.8,1.1c-0.5,0.3-1.1,0.6-1.7,0.3c-0.6-0.3-1,0.4-1.5,0.4c0,0.5,0.4,0.3,0.5,0.5c0.4,0.5,0.8,1,1.2,1.5
		c-0.6,0.5-0.9-0.4-1.5-0.4c-1.2,0-2.4-0.9-3.5-0.7c-1.3,0.2-2.6-0.1-3.9,0.2c-1.3,0.3-1.6,0-1.1-1.4c-1,0.1-1.6,0.9-2.2,1.5
		c-0.6,0.5-0.6,1.6-1.7,1.6c-0.1,0-0.2,0.4-0.2,0.6C15.6,43,15.5,45,14.6,47c-0.8,1.8-0.5,3.8-0.7,5.8c-0.4,3.8-0.7,7.7-0.9,11.5
		c-0.2,4.3,0.2,8.6,0.5,12.9c0.1,1,0.3,1.9,0.4,2.8c0.4,2.4,1.8,4.1,3.6,5.6c3.1,2.7,6.8,4.1,10.6,5.5c3.2,1.2,6.2,2.9,9.5,3.9
		c0.6,0.2,0.6,0.9,1,1.5c0.1-0.6,0.4-1,1-0.6c1.1,0.8,2.7,0.5,3.5,1.9c0.2,0.3,0.8,0.2,1,0c0.9-1,0.8,0.5,1.3,0.5
		c0.1,0-0.4,0.5,0.1,0.5c0.2,0,0.5-0.1,0.6-0.4c0.2-0.7,0.7-0.4,0.8-0.1c0.2,1,1.2,0.8,1.7,1.2c0.3,0.3,1.4-0.3,1,0.9
		c0,0,0.8,0.1,1.3,0.4c0.4,0.3,0.8,0.3,1-0.4c0.1-0.3,0.5-0.3,0.5,0c0.1,1.4,1.4,1.1,2.2,1.5c0.9,0.5,2,0.5,3,0.7
		c0.4,0.1,0.8,0.2,1.1-0.1c0.3-0.2,0.7-0.6,0.6,0.3c-0.1,0.5,0.7,0.3,1,0.5c0.3-0.5-0.5-0.3-0.3-0.6c0.2-0.3,0.4-0.1,0.6,0.1
		c0.9,0.6,1.9,0.7,2.9,0.1c0.2-0.1,0.5-0.3,0.8-0.1c0.3,0.2-0.1,0.4-0.1,0.6c-0.1,0.8,0.7,0.9,1,0.9c0.9,0.1,1.5,0.6,2.3,1
		c0.9,0.5,2.2,0.4,3.2,0.9c1.5,0.6,3.2,0.4,4.4,1.3c1,0.8,2.1,1.1,3.2,1.5c0.7,0.3,1.2,0,1.8,0.1c2,0.4,3.9,0.9,5.9,1.3
		c0.3,0.1,0.7,0.2,0.9,0.1c2-0.7,4.1-0.9,5.9-2.3c1.7-1.4,3.6-2.5,5.6-3.8c-0.1,1-1.1,0.9-1.4,1.5c-0.2,0.3-0.8,0.4-0.4,0.8
		c0.3,0.3,0.7,0.1,1-0.1c1.3-0.9,2.5-1.9,3.8-2.9c0.1-0.1,0.2,0,0.7-0.1c-0.9,0.8-1.6,1.4-2.2,2c-0.8,0.8-1.9,1.4-2.8,2
		c-0.3,0.2-0.6,0.3-1,0c-0.6-0.4-1.4,0.2-1.8,0.5c-3.4,2.5-7.1,3.4-11.2,3.3c-1.2,0-2.3,0-3.5-0.4c-0.6-0.2-1.1-0.4-1.6-0.9
		c0.6,0,1,0.5,1.6,0.2c-3.2-1-6.3-2.4-10.1-2.5c1.1,1,0.7,2.2,1.1,3.2c0.5,1.3,1.1,2.4,2.4,3.1c0.2,0.1,0.3,0.3,0.4,0.4
		c3.6,6.2,7.8,11.9,11.7,17.8c1.6,2.4,3,4.9,4.5,7.3c1.8,2.8,3.7,5.4,5.6,8.2c0.3,0.4,0.5,0.8,0.7,1.2c0.1,0.2,0.1,0.4-0.1,0.5
		c-0.2,0.1-0.4,0-0.5-0.2c-0.3-0.4-0.5-0.8-0.8-1.2c-2.5-3.1-4.4-6.6-6.7-9.9c-0.5-0.7-0.9-1.4-1.4-2c-0.6-0.7-1-1.4-1.3-2.3
		c-0.1-0.5-0.4-0.9-0.7-1.4c-1.3-2-2.7-3.8-4-5.9c-1.5-2.5-3.2-4.9-5-7.2c-2.4-2.9-4.2-6.2-6.4-9.2c-0.6-0.8-1.2-1.6-1.8-2.4
		c-0.9-1.1-2.3-1.2-3.3-2.2c-0.1-0.1-0.3,0-0.4,0c-1.2,0.8-2.7,0.8-4,0.7c-1.3-0.1-2.6-0.1-3.9-0.2c-0.3,0-0.6-0.2-0.7,0.2
		c-0.1,0.2,0,0.4,0.3,0.6c0.5,0.4,0.4,0.9,0.5,1.5c0.4,1.9,0.4,3.8,0.7,5.6c0.4,2,0.9,4.1,1,6.2c0,0.8,0.5,1.5,0.7,2.3
		c0.5,2.2,1.3,4.5,1.3,6.8c0.1,4.2,1.2,8.1,1.9,12.1c0.5,3.1,1.2,6.2,1.7,9.3c0.1,0.4,0.1,0.8-0.1,1.1l0,0c-0.7,0-0.6-0.7-0.7-1.1
		c-0.4-3.6-1.2-7.1-1.9-10.6c-0.7-3.9-1.3-7.8-2.1-11.7c-0.9-4.6-1.6-9.2-2.5-13.7c-0.6-2.8-1.2-5.6-1.9-8.4
		c-0.2-0.8-1.2-0.7-1.8-1.3c1.5,0.1,2.9,0.2,4.3,0.4c1,0.2,1.1-0.4,1.3-1c0.2-0.7-0.5-0.7-0.9-0.8c-3.4-1.1-6.9-2-10.2-3.3
		c-1.6-0.6-3.2-0.7-4.8-0.9c-0.7-0.1-0.9,0.4-1.1,0.9c-0.3,0.7,0.4,0.5,0.7,0.7c1.3,0.6,2.7,1,3.9,1.8c0.2,0.1,0.4,0.3,0.6,0.3
		c1.5-0.1,2.7,1.3,4.2,1.2c0.1,0,0.2,0.2,0.5,0.4c-1.2,0.1-2.2-0.1-3.1-0.4c-2.8-0.9-5.6-1.4-8.4-2.3c-0.5-0.2-0.7,0.1-0.9,0.5
		c-1.4,3.1-3,6.2-4,9.5c-1.4,4.6-3.5,9-5.2,13.5c-0.6,1.5-1.4,2.9-2.2,4.4c-1.4,2.6-2.1,5.5-3.5,8.1c-1.3,2.6-2.1,5.4-3.1,8.1
		c-0.3,0.6-0.3,1.3-0.5,2c-1,3.8-2.7,7.4-4.2,11.1c-1.3,3.4-2.7,6.8-4,10.3c-0.5,1.2-0.8,2.5-1,3.8s-0.5,2.6-1.7,3.4
		c-0.4,0.2-0.5,0.8-0.8,1.2c-0.1,0.2-0.2,0.4-0.5,0.3c-0.2-0.1-0.2-0.3-0.2-0.5s0-0.4,0.1-0.6c1.8-3.7,3-7.6,4.3-11.5
		c1.6-4.5,3.1-9,5-13.3c2.5-5.8,4.4-11.9,6.9-17.8c1.6-3.7,3.2-7.4,4.6-11.2c2-5.6,4.8-10.9,6.8-16.5c0.7-1.8,1.6-3.5,2.5-5.3
		c-2,0.7-2-1.2-2.8-2.1c-0.5-0.6-0.6-1.5-0.5-2.3c0.1-0.9-0.3-1.3-1.1-1.5c-0.8-0.2-2-0.5-2.2-1c-0.5-1.4-1.7-1.3-2.5-1.6
		c-2.1-0.8-4.2-1.6-6.2-2.5c-0.3-0.1-0.6-0.2-0.7-0.6c0.7-0.5,1.1,0.8,1.8,0.3c-0.3-0.7-1.1-0.6-1.7-0.8c-1.2-0.4-2.2-1-3.3-1.5
		c-1.3-0.6-2-1.7-2.9-2.8c-1.1-1.5-2-3-2.4-4.7c-0.9-3.7-1.7-7.3-1.4-11.2c0.2-2.3,0-4.6,0.1-6.9c0.1-2,0.2-3.9,0.4-5.8
		c0.3-3.9,0.8-7.8,1.5-11.7c0.3-1.8,0.8-3.5,1.1-5.3c0.2-1.1,1.2-1.7,1.8-2.5c1.2-1.5,2.6-2.7,4.2-3.8c0.4-0.3,0.9-0.5,1.4-0.6
		c0.6-0.1,1.2-0.3,1.7-0.7c0.4-0.3,1.1-1,1.7-0.1c0.2,0.3,0.5,0.1,0.8,0c1.2-0.9,2.3-1.8,3.4-2.8c-1.7,0.3-2.9,1.4-4.3,2.3
		c1-2.3,3.1-2.8,5.2-3.3c3-0.6,5.9-0.7,8.9-0.8c0.9,0,1.4-0.5,1.8-1c0.7-0.8,1.5-1.1,2.4-1.2c1.7-0.3,3.4-0.7,5.1-0.9
		c1-0.1,1.5-1.1,2.6-1.2c1.2-0.1,2.4,0,3.5,0c2.6,0.1,5.1-0.3,7.7-0.3c0.5,0,1.1-0.2,1.6,0.3c0.1,0.1,0.4,0.1,0.4,0.1
		c0.4-1.2,1.4-0.3,2.1-0.5c0.6-0.2,1.3-0.2,1.8-0.8c0.3-0.4,0.8-0.2,1.2-0.3c1-0.1,2.1,0.4,3-0.5c0.2-0.1,0.4-0.1,0.5,0.1
		c0.1,0.1,0.3,0.4,0.4,0.4c1.8-0.3,2.9,1,4.3,1.6c0.9,0.4,1.7,0.7,1.5,2c0,0.3,0.2,0.6,0.3,0.9c0.4-0.2,0.9-0.1,1.3-0.5
		c0.9-0.9,2-1.6,3.2-2c0.8-0.2,1.5-0.4,2.1,0.3c0.3,0.3,0.8,0.3,1.1,0c1.1-1.4,2.9-1.6,4.2-2.7c2.4-2.3,5.5-3.3,8.6-4.5
		c1.1-0.4,2.4-0.2,3.6-0.4c0.5-0.1,0.9-0.1,1.3-0.4c0.8-0.6,1.8-0.6,2.8-0.8c1.2-0.1,2.6,0.4,3.8-0.7c0.3-0.3,1.4-0.2,2.1-0.3
		c0.4-0.1,0.7-0.2,1.1-0.5c2.4-1.8,5.3-2.4,7.9-3.7c2-1,4.1-1.6,6.4-1.5c0.2,0,0.4,0,0.5-0.1c1.9-1.5,3.7-0.5,5.5,0.1
		c1.7,0.6,3.1,1.6,4.3,3c1.3,1.5,2.7,2.9,4.3,4.1c0.2,0.2,0.3,0.4,0.4,0.6c2,4.5,3.4,9.1,3.4,14c0,1.9-0.7,3.7-1.4,5.4
		c-0.6,1.5-1.5,2.9-2.1,4.5c-0.1,0.2-0.3,0.4-0.4,0.6c-0.3,0.8-1.7,0.7-1.4,2c0.1,0.2-1,0.7-1.5,1c-2.3,1.1-4.5,2.4-6.9,3.2
		c-1.6,0.6-3.2,1.3-4.8,2c-1.3,0.6-3,1.1-3.3,2.7c-0.6,2.5-2.7,2.9-4.5,3.7c-1.1,0.5-2.2,1.2-3.5,1.1c-0.5,0-0.6,0.4-0.6,1
		c0,1.3-0.1,2.6-0.2,3.9c0,0.2-0.1,0.3-0.4,0.3C117,59.7,117,57.7,116.8,55.8c0.9-0.2,1.8-0.2,2.1-1.4c0.1-0.3,0.4-0.5,0.8-0.5
		c1.1,0,1.9-0.9,3-1.2c0.6-0.2,1.1-0.7,1.4-1.4c-0.6,0.2-0.7,0.9-1.5,0.7c0.3-0.6,0.7-1,0.8-1.6c0.6-2.8,1.5-5.6,1.3-8.6
		c-0.1-2.5-0.3-4.9-1.9-6.9c-0.3-0.4-0.7-0.7-0.8-1.2c-0.7-2.2-2-4-3.4-5.8c-1.9-2.4-4.1-4.2-6.7-5.6c-1.2-0.6-2.3-1.1-3.6-1.3
		c-1.1-0.2-2.3-0.4-3.4-0.6c-0.9-0.2-0.9-0.3-0.5-1.2c-0.7-0.1-1.6,0.3-2.2-0.3c-0.4-0.5-0.7-0.3-1.2-0.2c-3.3,1-6.2,3-9.6,3.7
		c-0.2,0-0.5,0.1-0.5,0.2c-0.3,0.4-0.8,1-0.5,1.4c0.4,0.4,1.1,0.7,1.7,0.8c2.2,0.2,4.2,1.1,6.1,1.9c0.9,0.4,2,0.6,2.8,1.3
		c2.5,2.2,4.9,4.5,7.1,6.9c1.1,1.2,2.3,2.2,3,3.8c-0.5,0-0.6-0.3-0.8-0.5c-0.4-0.2-0.8-0.7-1.1-0.2c-0.3,0.4,0.4,0.4,0.6,0.7
		c0.1,0.1,0.3,0.2,0.3,0.3c-0.2,1.8,1.4,1.7,2.3,2.3c1.1,0.8,1.9,1.9,2.8,2.9c0.9,1.1,1.5,2.3,1.5,3.6c0.1,1.8,0.9,3.4,0.7,5.2
		C117.2,54.1,118,55.2,116.8,55.8z M100.7,33.8c-0.2-0.9,0.5-1.1,1.4-1.5c-1.5-0.2-2.7-0.5-3.9-0.2C99.3,32.5,99.9,33.3,100.7,33.8
		c0.5,0.5,0.9,1.1,1.4,1.6s1.1,1.1,1.8,1.3c0.2,0.1,0.8-0.9,1.1-1.3c0,0,0-0.1,0-0.2C103.6,34.7,102.2,34.2,100.7,33.8z M143.7,21.2
		c-1-0.1-1.4-0.7-1.4-1.6c-0.6,0.6-0.6,0.6-0.4,1.1c1,2.1,1.9,4.2,2.6,6.4c0.5,1.4,0.6,2.8,0.3,4.2c-0.3,1.1,0.8,2.5-0.8,3.3
		c-0.1,0,0.1,0.3,0.3,0.3c-1.1,0.9-0.7,2.4-1.4,3.5c1-0.8,2-1.6,2.2-2.9c0.5-0.3,0.7-0.7,0.8-1.2c0.1-0.9-0.2-1.9,0.6-2.7
		c0.2-0.2,0.1-0.7,0-1c-0.2-0.5-0.5,0.4-0.8,0c-0.3-0.6,1.5-1.3-0.2-1.8c0.6-0.1,0.9-0.5,1.4-0.9c-0.8,0.5-0.9-0.1-0.8-0.4
		c0.2-0.7,0.1-1.4,0-2.2c-0.3-1.5-0.6-3-1.7-4.2C144.1,20.9,143.9,20.9,143.7,21.2L143.7,21.2z M125.2,30.6
		c-0.2,1.3,0.5,2.3,1.2,3.3c0.1-0.4,0.1-0.8-0.1-1C125.8,32.2,126.4,31,125.2,30.6c-0.1-1.8-2.5-1.8-2.7-3.4c-1.5-0.4-1.7-2-2.8-2.8
		c-0.4-0.3-1.2-0.4-1.2-0.7c-0.3-1.5-1.7-1.5-2.5-2.3c-1.7-1.5-4-1.4-5.9-2.2c0.9,0.5,1.8,1.1,2.8,1.6c-2.4-0.3-4.6-1.9-7.2-1.7
		c0.7,1.1,1.7,1,2.7,1.2c2.7,0.5,5,1.7,7.2,3.3c2.2,1.5,3.9,3.4,5.3,5.4c1.7,2.4,2.6,5.4,3.9,8.2c0.5,1.1,0.5,2.5,1.6,3.4
		c0.2,0.1,0.3,0.7,0,0.7c-1.1-0.1-0.6,0.7-0.6,1.1c-0.2,1.2,0.2,2.4,0.1,3.6c-0.1,1.2-0.7,2.3-0.9,3.5c2.1-1.4,3.2-5.1,2.2-7.2
		c-0.1-0.2-0.2-0.6-0.1-0.8c0.4-0.7,0.2-1.4,0.2-2.1c0-1.2-0.2-2.4-0.4-3.6c-0.1-0.6-0.4-0.8-0.8-0.5c-0.5,0.4-0.6,0.4-0.7-0.1
		c-0.2-1.1-0.4-2.2-0.9-3.3C124.4,31.3,124.5,30.7,125.2,30.6z M127.6,47.8c3.4-0.6,6.2-2.3,9.1-3.7c0.2-0.1,0.4-0.3,0.4-0.4
		c-0.3-1,0.5-1.1,1-1.5c1.4-1.1,2.6-2.4,3.4-3.9c1.7-3.6,1.7-7.4,1.3-11.2c-0.1-1.2-1-2.3-1.1-3.3c-0.3-2.2-2.1-3.3-2.9-5
		c-0.6-1.2-1.8-2.1-2.8-3c-1.4-1.4-3-2.5-5.1-2.8c-2.5-0.3-4.9-1-7.4-0.4c-1.6,0.4-3.5,0.2-4.7,1.8c-0.3,0.3-0.8,0.4-1.2,0.6
		c-1.4,0.6-2.8,1.3-4.1,2c1.6,1.8,3.6,2.8,5.6,3.8c1.9,1,3.6,2.3,4.8,4.2c1.3,2,3,6.9,3.3,9.5c0,0.1,0.1,0.2,0.2,0.2
		c0.9,0.4,0.9,1.2,1.2,2c0.3,0.7,0,1.4,0.4,2.1c1.2,1.9,1.2,4,0,6C128.5,45.6,127.8,46.6,127.6,47.8z M60.3,31.8
		c1.2,0.7,2.5,1,3.9,1c1.4,0.1,2.2-1,3.3-1.4c0.1,0,0.2-0.2,0.1-0.2c-0.6-0.9,0.3-1.2,0.7-1.7c0.3-0.5,0.3-1.4,0.1-1.4
		c-1.2-0.1-1.5-1.2-2.4-1.6c-1.9-0.9-4-1.2-6-1.9c-0.7-0.2-1.7-0.6-2.2-0.3c-0.8,0.4-1.4,0.3-2,0.1c-1.9-0.6-3.6-0.2-5.4,0.5
		c-0.7,0.3-1.3,0.5-2.1,0.6c-1.5,0.1-3.1,0.5-4.5,1.1c0,0.3,0.2,0.2,0.4,0.3c2.8,0.6,5.6,1,8.3,1.9c1.3,0.4,2.7,0.8,4,1
		c2.1,0.4,4,1.3,6.1,1.5c0.3,0,0.5,0.2,0.5,0.4c0,0.4-0.4,0.4-0.6,0.4C61.7,32.2,61,32,60.3,31.8z M72.9,31.8
		c-0.2-0.3-0.7-0.3-0.7-0.7c0.1-0.4,0.5-0.3,0.8-0.4c0.8-0.1,1.5-0.1,2.2-0.2c0.8-0.2,1.7-0.5,2.5-0.9c0.4-0.2,0.8-0.7,0.6-1.2
		c-0.2-0.6-0.7-0.2-1-0.2c-1.2,0.2-2.3,0.5-3.5,0.6c-1.5,0-2.5,0.8-3.3,1.8c-0.3,0.4-0.6,0.7-1.1,1c-1,0.6-1.9,1.5-2.2,2.8
		c-0.1,0.5-0.3,1.3,0.2,1.5c0.6,0.2,1.3,0,1.8-0.6c0.2-0.3,0.4-0.5,0.6-0.7C70.7,33.6,71.6,32.5,72.9,31.8z M68.8,23
		c1.2,1.1,2.4,1.4,3.8,1.6c0.5,0.1,0.9,0.1,1.1,0.6c0.2,0.5-0.1,0.9-0.4,1.3c-0.2,0.2-0.7,0.3-0.5,0.7c0.3,0.4,0.7,0.4,1.2,0.3
		c1-0.3,2-0.6,3-0.8c0.4-0.1,0.9-0.3,0.6-0.8c-0.5-0.8,0.3-0.7,0.6-0.9c0.2-0.1,0.5,0.3,0.6-0.1c0.1-0.3-0.2-0.5-0.4-0.7
		c-0.8-0.6-1.7-0.7-2.6-1c-0.8-0.3-1.7-0.9-1.6,1c-0.4-0.5-0.7-0.9-1-1.2c-0.3-0.2-0.9-0.4-0.9-0.2c-0.1,1.5-1,0.3-1.3,0.3
		C70.3,23.1,69.7,22.9,68.8,23z M32.1,30.6c-0.8-0.7-1.5-0.3-2.1,0.1c-1.8,1.3-3.3,3-4.9,4.5c-0.2,0.2-0.8,0.4-0.5,0.8
		c0.2,0.3,0.6,0.4,1,0.5c1.4,0.2,2.7-0.2,4-0.3c2.1-0.1,3.3-1.4,4.5-2.9c-0.9,0.4-1.9,0.5-2.5,1.3c-1,1.3-2.3,0.5-3.4,0.8
		c-0.3,0.1-0.5-0.3-0.4-0.7c0.6-1.5,1.6-2.6,3.1-3.3C31.4,31.2,31.9,31.1,32.1,30.6z M91.5,42.1c-0.7-0.2-1.5,0.1-2.1,0.4
		s-1.5,0.6-1.4,1.6c0.1,0.9,0.4,1.6,1.4,2c2.3,0.8,4.6,0.7,6.8-0.1c0.7-0.3,1.2-1.1,1.3-1.8c0.1-0.7-0.6-1.2-1.2-1.5
		C94.8,41.8,93.1,42,91.5,42.1z M32.1,29.8c0.7,0.5,2,0.6,2.2,1.1c0.5,1.4,1.1,0.6,1.5,0.3c0.9-0.8,1.9-1.4,3-1.9
		c0.3-0.2,0.6-0.4,0.7-0.9c-0.5,0.2-1,0.5-1.4,0.5c-1.4,0-2.7-0.5-4.2,0.3C33.4,29.4,32.6,29.3,32.1,29.8z M65.9,24.6
		c1.2,0.5,2,1.7,3.3,2c0.5,0.1,1.4,0,0.7,1c-0.2,0.3,0.3,0.8,0.7,1s1.3,0.2,1.4,0c0.3-0.5-0.4-0.6-0.7-0.8c-0.5-0.4-1-0.9,0-1.3
		c0.5-0.2,0.4-0.7,0.5-1c0.1-0.4-0.5-0.3-0.8-0.4C69.3,24.6,67.7,24.3,65.9,24.6z M91,28.3c2.4,2,5,2.9,8,1.4
		c-2-1.2-4.2-0.6-6.6-0.8c1.1-0.8,2.1-0.4,2.9-0.9C93.8,27.8,92.4,27.8,91,28.3z M87.5,47.5c0.6,0.5,1,0.7,1.5,0.7
		c0.8,0,1.5,0.1,2,0.8c0.1,0.2,0.4,0.3,0.6,0.4c1.6,0.1,3.2-0.3,4.7-0.6c0.3-0.1,0.3-0.3,0.3-0.6c-0.1-0.3-0.4-0.4-0.5-0.3
		c-0.7,0.6-1.6,0.1-2.4,0.4c-1.3,0.5-2.5,0.2-3.7-0.5C89.3,47.5,88.6,47.4,87.5,47.5z M124.6,28.2c0.1-1.9-2.8-5.4-4.5-5.8
		C121.4,24.5,122.8,26.5,124.6,28.2z M26.9,32.5c-2,0.7-3.7,1.6-5.2,2.7c-0.4,0.3-0.4,0.7,0.1,0.8c0.5,0.1,1.2,0.3,1.6-0.1
		C24.3,34.6,25.8,34,26.9,32.5z M37.3,97.5c0.7,0.6,0.5,1.6,1.1,2.3c0.5,0.6,1.2,0.2,1.7,0.6c0.3-0.4,0.5-0.9,0.3-1.3
		C40.2,98.3,38.4,97.4,37.3,97.5z M107.4,46.6c-0.4-0.7-0.9-0.8-1.6-0.3c-0.6,0.4-1.1,1-2,1.1c-0.4,0-0.7,0.6-0.6,1.2
		c0.1,0.5,0.4,0.8,0.8,0.4C104.9,47.7,106.4,47.6,107.4,46.6z M32.9,32.4c-0.1-0.2-0.2-0.3-0.4-0.3c-0.9,0.1-1.6,0.7-2.4,1.2
		c-0.2,0.1,0,0.4,0.1,0.5c0.1,0.3,0.4,0.2,0.6,0.1c0.6-0.3,1.1-0.7,1.7-1.1C32.6,32.8,32.9,32.7,32.9,32.4z M66.9,36.4
		c-0.5-0.9,0.6-1.7-0.4-2.2c-0.3-0.1-1.3,0-1.4,0.6C65.1,35.5,65.9,35.8,66.9,36.4z M91,26.2c-0.7-0.3-1.8,0.2-3,1.3
		c0.4,0,0.7,0.2,1,0.4c0.2,0.1,0.7,0.2,0.6-0.2C89.4,26.6,90.5,26.7,91,26.2z M138,14c-0.1,0.1-0.1,0.2-0.1,0.2
		c1.2,1.1,2.4,2.3,3.6,3.4C140.4,16.4,139.5,14.9,138,14z M134.5,9.2c0,0.1-0.1,0.2-0.1,0.3c1.2,0.5,2.4,1.1,3.6,1.6
		C137,10.1,135.8,9.5,134.5,9.2z M101.8,33.3c0.9,0.3,1.8,0.5,2.9,0.9C103.9,32.8,102.8,32.9,101.8,33.3z M96.7,31.2
		c1.3-0.2,2.7,0,4.1-0.1C99.5,30.7,98.1,31,96.7,31.2z M105.1,36.5c0.8,0.2,1.4,0.3,2,0.5C106.8,35.7,106.3,35.6,105.1,36.5z
		 M133,11c-0.9-0.4-1.5-0.2-2.2,0.2C131.7,11.6,131.8,11.6,133,11z M82.6,26.6c-0.1-0.1-0.1-0.2-0.2-0.3c-0.6,0.2-1.3,0.2-1.3,1.3
		C81.7,27.2,82.1,26.9,82.6,26.6z"/>
	<path class="st0" d="M52.5,44.3c-1.3-0.4-2.4-1.5-3.9-1.7c-1.9-0.2-3.7-0.6-5.5-1c-0.5-0.1-1-0.2-1.3-0.5c-0.3-0.4-0.6-0.8-1-0.1
		c-0.2,0.3-0.5-0.1-0.7-0.3c-0.5-0.6-1-1.2-1-2c0-1.8,0.1-3.6,1.3-5c1.4-1.8,4.7-2.3,6.9-1.5c1.8,0.6,3.7,0.8,5.6,1.1
		c2,0.3,4,0.4,5.9,1.2c2.1,0.8,2.9,2,2.9,4.3c0,1.5-0.4,3,0,4.5c0.2,0.8,0.1,1.7,1.2,1.8c0.2,0,0.4,0.3,0.2,0.4
		c-0.2,0.2-0.5,0.4-0.7,0.4c-0.5,0-1-0.2-1.5-0.3c-0.1,0-0.3-0.2-0.3-0.2c0.4-0.6-0.1-0.9-0.3-1.4c-0.2-0.6,0.1-1.3,0.2-2
		c0.5-2.1,0.2-4.2-0.6-6.2c-0.1-0.3-0.4-0.5-0.8-0.5c-0.1,0-0.3,0.1-0.4,0.2c-0.2,0.3,0.2,0.5,0.3,0.7c0.3,0.8,0.7,1.5,0.7,2.3
		c0.2,1.7,0,3.5-0.2,5.2c0,0.3-0.2,0.7-0.5,0.5c-0.6-0.4-0.6-0.1-0.7,0.3c0,0.2-0.1,0.4-0.4,0.4c-0.3,0-0.3-0.3-0.3-0.5
		c-0.3-1.4,0.1-2.8,0.3-4.1c0-0.2,0.1-0.5,0.2-0.7c0.1-0.7,0.5-1.8,0.1-2.1c-0.8-0.7-1.6-1.8-2.8-2c-4.2-0.7-8.5-1.3-12.8-2
		c-0.1,0-0.2,0-0.4,0c0.4,0.5,1.1,0.1,1.5,0.7c-0.6,0.3-1.1,0.1-1.6,0.1c-1,0-1.5,0.4-1,1.3c0.3,0.6,0.2,1.1,0.2,1.7
		c0,1-0.4,0.1-0.7,0.1c0,0.5,0.1,1,0,1.5s0.1,0.7,0.5,0.8c0.3,0.1,0.6,0.4,0.9,0.1s0.1-0.7,0-1c-0.4-1.2,0.1-3.1,1-3.8
		c0.3-0.2,0.6-0.1,0.9-0.1c2.5,0.5,5.1,0.6,7.6,0.8c1,0.1,2.2-0.1,2.8,1.1c0.1,0.2,0.9,0.3,1.4,0.5c0.8,0.3,1.1,1,1,1.6
		c-0.2,1.5-0.7,3-1.1,4.5c0,0.1-0.2,0.3-0.3,0.3C54.5,43.8,53.6,44.5,52.5,44.3L52.5,44.3z M53.3,41.1c-0.5,0.2-0.7,0.9-1.4,0.8
		c-2.4-0.2-4.8-0.8-7.1-1.7c-0.4-0.2-0.6-0.6-0.5-1c0-0.4,0.1-0.8,0.1-1.2c0-0.2,0.3-0.6-0.2-0.7c-0.4,0-0.5,0.3-0.5,0.7
		c0,0.6,0,1.3,0,1.9c0,0.4,0.3,0.5,0.6,0.6c1.5,0.4,2.9,0.9,4.4,1.3c1.1,0.3,2.4,0.2,3.4,0.9c0.3,0.2,0.4,0.6,0.8,0.4
		c0.4-0.2,0.4-0.6,0.4-0.9C53.4,41.9,53.3,41.5,53.3,41.1z M50.5,40.5c0.3-0.1,0.7-0.2,1.1-0.1c0.3,0.1,0.5-0.1,0.6-0.4
		c0-0.4,0-0.6-0.5-0.7c-1.9-0.2-3.7-0.4-5.6-0.6c-0.3,0-0.5,0.1-0.5,0.4c-0.1,0.3,0.2,0.4,0.4,0.5C47.5,39.9,49,40.2,50.5,40.5z
		 M53.6,38.6c-2.7-0.4-5.5-1.1-8.3-1C48.1,38.2,50.8,38.4,53.6,38.6z M54.2,41.4c0.1,0.4-0.1,0.9,0.4,1s0.7-0.4,0.8-0.8
		c0.3-0.8-0.3-1.3-0.4-1.9c0-0.2,0-0.4-0.3-0.4s-0.3,0.2-0.3,0.4C54.4,40.2,54.3,40.8,54.2,41.4z"/>
	<path class="st0" d="M79.4,85.3c0.3,1.2,1.1,1.2,2,0.8c0.3-0.1,0.6-0.3,0.7,0.1c0.1,0.3,0,0.5-0.3,0.6c-0.8,0.4-0.7,1-0.6,1.7
		c0.4,2.7-0.2,5-2.5,6.8C77.8,96,76.5,96.7,76,98c-0.1,0.4-0.8,0.6-1.3,0.7c-2.6,0.3-4.8-0.8-6.8-2.2c-1.1-0.7-0.8-2,0.3-2.6
		c0.1-0.1,0.3-0.2,0.2-0.3c-0.2-0.3-0.3-0.8-0.8-0.8c-0.6,0-1.3,0.7-1.9-0.1c-0.7-1-1-2.2-1-3.4c-0.1-1.6,0.3-3.1,1.1-4.5
		c0.6-1,1.4-1.1,2.1-0.1c0.5-1.2,1.8-1.6,2.2-2.9c0.1-0.5,0.8-0.7,1.4-0.8c1.4-0.4,2.9-0.5,4.4-0.5c1.4,0.1,2.5,0.7,3,2.1
		c0.1,0.4,0.2,0.7,0.6,1C80.3,84.2,79.2,84.8,79.4,85.3c-0.3,0-0.5,0-0.8,0c-0.9-0.2-0.8,0.4-0.6,0.8s0.8,0.2,1.2,0.5
		c0.1,0.1,0.1-0.4,0.1-0.7C79.3,85.7,79.4,85.5,79.4,85.3z M70.7,95.7c0.7,0.9,1.5,1.4,2.6,1.1c-0.4-0.3-1.1-0.3-1.4-0.8
		C71.6,95.3,71.2,95.5,70.7,95.7c-0.5-0.5-1.5-1-1.6-0.8c-0.4,0.8,0.4,1.2,0.9,1.6c0.2,0.1,0.3,0.4,0.5,0.3c0.3-0.2,0.1-0.4-0.1-0.7
		C70.1,95.6,70.5,95.7,70.7,95.7z M71.5,85.5c0.1,0.7-0.1,1.1-0.9,0.9c-0.3-0.1-0.6,0-0.8,0.3c-0.5,1-1.3,2-1.1,3.3
		c0.1,0.7,0.5,1.7,0.1,2.1c-0.5,0.7,0,0.8,0.2,1.1c1.4,1.4,3.3,1.6,5.1,2c0.7,0.2,1.1-0.2,1.3-1c0.3-1.3,0.2-2.7,0.7-4
		c0.1-0.2,0-0.5-0.1-0.7c-0.5-1,0-1.6,0.6-2.3c0.2-0.2,0.6-0.2,0.4-0.6c-0.2-0.3-0.4-0.7-0.7-0.7c-0.9,0.1-1.3-0.3-1.2-1.5
		c-0.5,0.9-0.7,1.7-1.5,0.8c-0.1-0.1-0.5-0.1-0.5,0C72.8,86.2,72.2,85.6,71.5,85.5z M74.6,82.3c-1.3,0-2.2,0.4-3.1,0.6
		c-0.3,0.1-0.6,0.3-0.5,0.7c0.1,0.5,0.4,0.5,0.8,0.4c0.5-0.1,0.9-0.3,1.4-0.3c1,0.1,2.2-0.9,3.1,0.4c0.2,0.3,0.4,0.8,0.9,0.5
		c0.4-0.2,0.9-0.4,0.9-1s-0.3-0.8-0.8-1.1C76.3,82.1,75.3,81.8,74.6,82.3z M76.6,93.6c1.9,0.2,1.9,0.1,2.2-1.7
		c0.2-1.1-0.4-2.1-0.4-3.2c0.7,0.4,0.8,1,1.1,1.6c0.1-0.5,0-1,0.1-1.4c0.1-0.8,0-1.2-1.1-1.1c-1,0.1-1.7,0.1-0.9,1.4
		c0.1,0.2,0.1,0.5,0,0.8C77.6,91.2,77.6,92.5,76.6,93.6z M66.8,85.1c-0.4,1.2-0.8,2.2-1,3.2c-0.1,0.9-0.3,1.8,0.1,2.7
		c0.2,0.4,0.5,0.8,1,0.6c0.5-0.2,0.3-0.7,0.2-1c-0.3-0.4-0.2-0.9-0.4-1.3c-0.1-0.2-0.1-0.4,0.1-0.5c0.2-0.1,0.3,0,0.4,0.1
		c0.1,0.1,0.1,0.5,0.4,0.2c0.3-0.5,0.3-1.1,0.3-1.6c0-0.2-0.2-0.3-0.4-0.2c-0.8,0.3-0.6-0.1-0.4-0.5C67.4,86.2,67.5,85.7,66.8,85.1z
		 M69.7,84c-0.5,0.4-0.9,0.8-1.3,1.2c-0.2,0.2-0.1,0.5,0,0.7c0.3,0.3,0.7,0.2,1.1,0.1c0.2-0.1,0.3-0.2,0.3-0.4
		c-0.1-0.6-0.6,0.2-0.7-0.3C69.1,84.8,70,84.8,69.7,84z M75.1,96.4c0.6-0.3,1.3-0.5,1.9-0.8c0.3-0.1,0.3-0.4,0.1-0.6
		s-0.6-0.3-0.7-0.1C76.3,95.7,75.6,95.9,75.1,96.4z"/>
	<path class="st0" d="M109.6,86.1c0.2-2.6,0.3-5.2-0.1-7.8c-0.2-1.6,0-3.3,0.1-5c0-0.6,0.1-1.3,0.1-1.9c0-0.4-1-0.3-0.6-1.2
		c-1.7,1-1.4,2.5-1.3,3.8c0.2,2,0,3.9-0.7,5.8c0.5,0,0.6-0.4,0.9-0.6c0.3-0.2,0.5-0.2,0.8,0c0.2,0.3,0.1,0.5-0.2,0.7
		c-0.1,0-0.1,0.1-0.2,0.1c-0.6,0.2-1,1.3-1.7,0.5c-0.6-0.6-0.8-1.5-0.1-2.3c0.4-0.5,0.3-1.1,0.3-1.7c0-2.3-0.8-4.5-0.5-6.7
		c0.1-1.1,0.8-2.3,1.9-2.4c1.5-0.1,1.6-1,1.5-2.1c-0.1-2,0.2-4-0.6-5.9c-0.1-0.3,0.1-0.6,0.2-0.9c-0.9-0.2-1.5,0.3-2.1,0.6
		c-1.5,0.6-3.2,0.5-4.8,0.7c-2,0.3-3.7,1.2-5.6,1.7c-0.7,0.2-0.4,1.2-0.6,1.8c-0.6,2.5-0.2,5.1-0.3,7.7c-0.2,5.1,0.4,10.3,0.2,15.4
		c0,0.9,0,1.9,0,2.8c0,0.3,0,0.5-0.4,0.6c-0.5-1.3-0.3-2.7-0.4-4c0-1.7-0.2-3.4-0.3-5c-0.3-3.4-0.3-6.9-0.4-10.3
		c0-2.4,0.2-4.9,0.1-7.3c0-0.3-0.4-1.1,0.5-0.7c0,0,0.1-0.2,0.1-0.3c-0.2-0.5-0.3-0.9,0.1-1.3c0.6-0.6,1.3-1.2,2.1-1.2
		c2.6,0.1,4.8-1,7.2-1.7c0.3-0.1,0.6,0,0.8-0.1s0.8,0.2,0.3-0.5c-0.2-0.3,0.5-0.4,0.8-0.4c0.8,0.1,1.7,0.1,2.5,0.1
		c1.2,0,1.6,0.7,1.2,2.3c-0.4,1.5-0.2,2.9-0.1,4.4c0.1,3.4-0.2,6.8-0.3,10.1c-0.1,3.8,0,7.6-0.1,11.4
		C110.4,85.7,110.8,86.8,109.6,86.1L109.6,86.1z"/>
	<path class="st0" d="M21.1,49.9c-1.5,0.3-1.4,1.6-1.3,2.5c0.1,1.7-0.5,3.3-0.3,5c0.1,0.5,0.3,0.9-0.2,1.3C18.7,58.2,19,57.6,19,57
		c-0.2-2.2-0.3-4.3,0.6-6.4c0.2-0.6,0.4-1.2,0.9-1.5c1.2-1.1,1.6-2.4,1.3-4c0-0.1,0-0.2,0-0.2c0.2-0.6,0.9-0.5,1.2-1.1
		c0.3-0.7,1-0.8,1.6-0.5c0.8,0.4,1.1-1,2-0.3c0-0.8-0.7-0.4-0.9-0.8c1-0.6,2.1-0.4,3-0.1c0.6,0.2,0.4,0.7-0.7,1.4
		c1.1,0.8,2.5,1.2,3.7,1.6c3.1,1.1,6.2,2.1,9.3,2.9c1,0.3,2.2,0.5,3.3,0.7c0.7,0.1,2,0,2.6,0.9c0.1,0.2,0.3,0.1,0.4,0
		c1.1-0.4,2.1,0.3,3.1,0.6c2.5,0.7,4.8,1.8,7.3,2.5c2.2,0.7,4.4,1.3,6.7,1.8c0.5,0.1,1,0.1,1.5,0.1c1.1,0.1,1.7,1.1,2.8,1.1
		c0.2,0,0.5,0.2,0.7,0.1c2.1-0.8,3.9,0.4,5.8,0.7c0.7,0.1,1.3,0.3,1.2,1.3c-0.2,1.7,0.7,3.2,0.9,4.9c0.5,3,1,5.9-0.1,8.9
		c-0.5,1.4-0.7,2.9-0.9,4.3c-0.1,0.4-0.1,0.9-0.7,1c-0.3-1.9,0.2-3.6,0.8-5.3c0.5-1.5,1.2-3.2,0.8-4.8c-0.7-2.7-1-5.5-1.8-8.3
		c-0.2-0.8-0.8-1-1.5-1.1c-0.9-0.1-1.8-0.1-2.7-0.2c-0.7-0.1-1-0.7-1.6-0.9c-1.2-0.3-2.3-0.1-3.5-0.4c-3.2-0.9-6.5-1.8-9.7-2.8
		c-4.3-1.3-8.7-2.3-12.9-3.8c-3.3-1.1-6.7-1.8-9.9-3.1c-2-0.8-4.1-1.3-6-2.2c-0.3-0.1-0.5-0.1-0.8,0.1c-0.4,0.4-0.8,0.7-1.5,0.5
		c-0.1,0-0.3,0.1-0.3,0.2c-0.6,1.5-2.2,2.5-2.6,4.1c-0.1,0.7-0.4,0.6-0.9,0.5C21.2,49.8,21.2,49.9,21.1,49.9z"/>
	<path class="st0" d="M44,104.4c-0.3,0.8-0.7,1.6-0.9,2.5c-0.7,3.2-2,6.3-3.1,9.4c-2.2,6.2-4.7,12.3-6.9,18.5
		c-1.2,3.5-2.7,6.8-3.7,10.4c-0.8,2.6-2.1,5.1-3.1,7.7c-0.5,1.4-0.9,2.9-1.4,4.3c-0.6,1.7-1.1,3.5-2,5.1c-0.5,0.9-0.1,2.1-1.3,2.6
		c0.1,2.2-1,4-1.7,5.9c-0.4,1.1-0.9,2.1-1.3,3.2c-0.8,1.9-1.9,3.7-2.6,5.6c-0.2,0.4-0.1,0.7,0.3,0.8c0.4,0.2,0.2,0.4,0.1,0.7
		c-0.2,0.3-0.5,0.4-0.6,0.1c-0.3-0.8-0.5-0.2-0.7,0c-0.1,0.1-0.2,0.3-0.2,0.4c0,0.4-0.2,0.7-0.6,0.8c-0.2,0.1-0.3,0-0.4-0.2
		c-0.2-0.4,0-0.7,0.2-1c0.9-1.1,1.4-2.4,1.9-3.7c1-2.3,1.7-4.7,2.4-7.1c0.9-3,2.1-5.9,3.1-8.8c1.6-5,4.4-9.5,6.1-14.5
		c1.6-4.9,3.4-9.8,5.2-14.7c0.7-1.8,1.8-3.5,2.3-5.4c0.9-3,1.8-5.9,2.9-8.8c1.8-4.6,3.2-9.3,4.9-13.9c0.1-0.4,0.2-0.9,0.7-0.8
		C44,103.8,44.1,104.1,44,104.4z"/>
	<path class="st0" d="M64.5,129.5c-1.8-2.9-2.1-6.2-2.9-9.4c-0.3-1.1-0.2-2.4-0.5-3.6c-0.5-2.4-0.3-5-1.1-7.3
		c-0.1-0.4-0.2-1,0.2-1.2c0.6-0.3,0.5,0.5,0.7,0.7c1.2,1.8,2.4,3.6,3.6,5.5c2,3.3,4.1,6.5,6.3,9.7c0.9,1.4,2,2.7,2.9,4
		c1.2,1.7,2.3,3.5,3.5,5.1c1.2,1.7,2.2,3.6,3.6,5.2c1.7,1.8,2.5,4.2,3.8,6.4c0.4,0.7,1.3,1.1,1.2,2.2c-0.8-0.1-1.2-0.7-1.5-1.2
		c-2-3.6-4.4-6.8-6.6-10.3c-4.4-6.8-9.3-13.3-13.4-20.3c-0.4-0.6-0.9-1.2-1.3-1.9c-0.2-0.2-0.2-0.6-0.6-0.4
		c-0.3,0.1-0.4,0.3-0.4,0.7c0,1.3-0.2,2.6,0.1,3.8c0.6,2.7,1.1,5.4,1.6,8.1c0,0.1,0,0.2,0,0.2c0.3,0.6,0.9,0.9,1.2,1.6
		s-0.8,1.1,0,1.8C65.1,129.1,64.4,129.2,64.5,129.5z"/>
	<path class="st0" d="M103.4,102.6c1.5-1.6,3.2-2.7,4.9-3.8c0.6-0.4,1.2-0.7,1.5-1.4c0.4-0.8,1.1-1.3,1.8-1.8
		c1.8-1.3,2.4-3.4,3.3-5.2c0.4-0.9-0.6-1.8-0.1-2.8c0.3,0,0.2,0.4,0.4,0.5c0.2-0.5,0.5-0.8-0.2-1.3c-0.3-0.2-0.6-1.1,0.1-1.4
		c1-0.4,0.5-1.2,0.3-1.6c-0.9-1.2-0.4-2.5-0.2-3.7c0.1-0.9,0.4-1.7,0.1-2.6c0-0.1-0.1-0.3-0.1-0.3c0.8-1.7,0.1-3.4,0.1-5.1
		c0-1.9,0.2-3.8,0.1-5.7c-0.1-1.9-0.1-3.8-0.1-5.7c0-0.4,0-0.7,0.1-1.1c1.1,1.4,0.4,3.2,1.2,4.9c0-0.8,0.1-1.5,0.1-2.2
		c0-0.2,0.1-0.4,0.3-0.4c0.3,0,0.2,0.2,0.2,0.5c-0.2,5-0.5,9.9-0.6,14.9c-0.1,3-0.4,5.9-0.5,8.9c0,1.3,0,2.5-0.2,3.8
		c-0.3,2.3-1.7,3.8-3.3,5.2c-0.6,0.5-1.3,1-1.7,1.7c-1.3,2.1-3.3,3.4-5.4,4.6C105,101.9,104.5,102.5,103.4,102.6z"/>
	<path class="st0" d="M53.2,91.5c0.1-0.5-0.8-0.5-0.4-0.9c0.3-0.3,0.8-0.1,1.1,0.2c1,1,2.4,1.1,3.7,1.4c0.4,0.1,0.6-0.2,0.9-0.2
		c1.2-0.4,2.2-1.2,3.6-0.8c0.4,0.1,0.5-0.2,0.5-0.5c0-0.4-0.1-0.9-0.1-1.3c0-0.3-0.4-0.6-0.1-0.7c0.4-0.2,0.7,0.2,0.8,0.5
		c0.4,0.7,0.1,2.2-0.6,2.6c-0.6,0.3-1.1,0.6-1.7,0.8c-1.1,0.3-2,0.9-2.9,1.5c-0.5,0.3-0.8,0.5-1.2-0.2c-0.7-1.1-2-1.2-3.1-1.6
		c-3-1-6-1.9-8.9-3.1c-1.6-0.7-3.4-1.3-5.2-1.8c-4.6-1.4-9.2-3-13.6-5.1c-1.3-0.6-2.7-1.2-4.1-1.7c-0.9-0.3-1.5-1.2-2.5-1.2
		c-0.1,0-0.3-0.2-0.3-0.4C19,77.8,19,76.5,19,75.3c0-0.2,0-0.4,0.3-0.4c0.2,0,0.3,0.2,0.3,0.4v0.1c-0.5,2.4,1.3,3.2,3,4.2
		c3,1.9,6.4,2.6,9.6,3.8c6.4,2.4,12.9,4.8,19.3,7.3C52,90.9,52.6,91.2,53.2,91.5z"/>
	<path class="st0" d="M74.7,172.3c-0.4,0.2-0.7,0-0.8-0.4c-0.7-4.1-1.5-8.2-2.3-12.3c-0.2-0.9-0.3-1.9-0.4-2.9
		c0-0.6-0.6-1.3-0.7-2.1c-0.4-2.5-1-5-1.5-7.5c-0.8-3.5-1.5-6.9-2.4-10.4c-0.3-1.1-1.1-2.2-0.6-3.5c0-0.1-0.1-0.4-0.2-0.4
		c-1-0.6-0.2-1.4-0.5-2.1c0.6-0.1,0.6,0.4,0.6,0.6c0.6,2.1,1.4,4.2,1.5,6.5c0,0.6,0.2,1.4,0.5,2c0.6,1.4,0.5,2.9,1,4.2
		c0.3,0.9,0.6,1.8,0.8,2.7c0.2,0.6,0,1.3,0.3,1.8c0.5,0.8-0.2,1.9,0.3,2.2c0.8,0.5-0.1,1.6,0.9,1.8v0.1c-1.3,0.5-0.5,1,0,1.6
		c0.4,0.5-0.3,1.5,0.7,1.8l-0.1,1.4c-0.2,0.5,0.4,0.8,0.4,1.2c0.3,1.8,0.6,3.6,1,5.3c0.1,0.5-0.1,1.2,0.7,1.3c0.1,0,0.2,0.1,0.2,0.1
		c-0.9,2.4,0.8,4.5,0.8,6.7C74.9,172.1,74.8,172.2,74.7,172.3C74.8,172.4,74.8,172.3,74.7,172.3z"/>
	<path class="st0" d="M83.2,63.5c-0.9-0.6-1.1-1.5-1-2.4c0-1,0.2-2.1,0.3-3.1c0.1-0.7,0.5-1.3,1.2-1.2c0.7,0,1.1-0.5,1.7-0.7
		c2-0.4,2.8,1.6,4.4,1.8c-1.6,0.6-3.2-1.5-4.6,0.4c1.3,0.1,2.6,1.1,4.2,0.2c-0.5,1-0.8,1.1-2,1.2c-0.4,0-1-0.2-1.3,0.3
		c-0.3,0.6,0.3,0.9,0.7,1.2c0.7,0.7,0.6,2-0.2,2.5c-0.4,0.3-1.6-0.4-1.8-1.1c-0.3-0.9-0.7-1.7,0.3-2.5c0.3-0.2,0.5-0.7,0-1
		c-0.4-0.2-0.7-0.3-1.1,0.3c-0.7,1.3-0.1,2.4,0.4,3.5c0.8,1.5,1.3,1.7,3,1.3c0.3-0.1,0.6-0.1,0.9,0c0.2,0,0.4,0.2,0.3,0.4
		c-0.1,0.2-2,1-2.2,1c-1.1-0.1-2-0.9-2.9-1.4C83.3,64.1,83.2,63.8,83.2,63.5c0.3-0.1,0.5,0.5,1,0.2C83.7,62.9,83.3,62,83,61
		C82.6,62,83.6,62.7,83.2,63.5z M86.4,56.7c-0.8,0-1.7,0.1-2.6,0.8C84.9,57.4,85.7,57.3,86.4,56.7z"/>
	<path class="st0" d="M76.6,178.9c0.3,1.3,0.6,2.5,0.9,3.8c0.4,1.7,0.8,3.4,1.2,5c0.5,2.1,1,4.2,1.4,6.3c0.5,2.5,1.3,5,1.6,7.5
		c0.5,4.1,1.8,8.1,2.8,12.1c0.1,0.2,0.3,0.6-0.1,0.7c-0.4,0.1-0.4-0.3-0.5-0.5c-1-3.8-1.9-7.6-2.8-11.4c-0.5-2.1-1-4.3-1.7-6.4
		c-0.8-2.2-1.5-4.6-1.9-7c-0.2-1.5-0.4-3-0.8-4.4c-0.5-1.8-0.7-3.6-1.3-5.4c-0.4-1,0.5-0.9,0.9-1C76.8,178.2,76.5,178.7,76.6,178.9z
		"/>
	<path class="st0" d="M88.2,77.7c-0.3,1-0.8,2.3-0.7,3.6c0,0,0,0.1-0.1,0.1c-1.3-0.3-1,1.1-1.7,1.6s-1.2,0.1-1.4-0.4
		c-0.8-2-2.5-3.3-3.4-5.1c-0.4-0.7-0.8-1.8,0.6-2.2c0.1,0,0.3-0.2,0.3-0.3c0.2-0.8,0.5-1.7,1.3-1.7c1.3,0,2.6-0.4,3.9,0.1
		c0.4,0.2,0.6,0.5,0.7,0.9C87.8,75.4,87.9,76.4,88.2,77.7z M82,77.2c1.1,1.6,2.4,3.1,3.1,4.9c0.7-0.3-0.1-0.9,0.3-1.1
		c1.1-0.5,0.7-1.5,0.6-2.3c0-1.3-0.2-2.5-0.1-3.8c0-0.3,0.1-0.5-0.3-0.7c-1.1-0.6-3.2,0.3-3.5,1.6C82.2,76.3,82,76.8,82,77.2z"/>
	<path class="st0" d="M69,59.9c0.2-1,1-1.2,1.7-1.4c0.6-0.2,1,0.5,1.4,0.9c1.4,1.4,1.9,3.2,2.5,4.9c0.4,1,0,2.2-0.5,3.3
		c-0.6,1.4-1.4,1.6-2.8,1c-0.5-0.2-1,0-1.5,0s-0.9-0.1-0.8-0.7c0.4-2.1,0.1-4.3,0.2-6.4c0-0.5-0.1-1.2,0.5-1.1
		c0.4,0,0.9,0.6,0.8,1.3c-0.2,1.7-0.3,3.4-0.5,5.1c-0.1,0.7,0.2,0.9,0.8,1c0.4,0.1,0.9-0.2,1.3,0.4c0.2,0.2,0.9-0.2,0.8-0.7
		c-0.2-0.9,0.7-1.9-0.1-2.7c0.8-2.1-0.9-3.3-1.6-4.8c-0.3-0.6-0.6-0.6-1-0.2C69.8,60,69.5,60.1,69,59.9z"/>
	<path class="st0" d="M63.9,84.8c-0.7-0.6-0.6-1.5-0.4-2.2c0.9-2.8,0.6-5.7,1-8.6c0.3-2,0.2-4,0.3-6c0.1-1.7,0.6-3.2,1.1-4.8
		c0.1-0.4,0-0.5-0.2-0.8c-0.1-0.3-0.1-0.7,0-1c0-0.1,0.3-0.1,0.4,0.1c0.3,0.3,0.9,0.2,0.8,0.9c-0.1,1.5,0,3.1-0.4,4.6
		c-0.9,3-1,6.1-1.3,9.2c-0.2,2.1-0.5,4.3-0.5,6.4C64.8,83.4,64.9,84.3,63.9,84.8z"/>
	<path class="st0" d="M70.8,69.8c0.5,0.1,1.3,0,1.7,0.7c0.1,0.1,0.1,0.2,0.2,0.3c2.1,0.6,2.5,1.8,1.4,3.8c-0.4,0.7-0.7,1.5-1,2.3
		c-0.2,0.7-0.6,1.2-1.5,0.9c-0.5-0.2-1.1-0.1-1.5,0.1c-0.7,0.4-1.3,0-1.9-0.2c-0.4-0.1-0.5-0.5-0.3-0.8c0.8-1.3,0.3-2.8,0.5-4.1
		c0-0.1,0-0.2,0-0.4C68.2,70.3,68.6,69.8,70.8,69.8z M72.8,72.7c-0.2-0.4,0.1-1-0.5-1.1c-0.9-0.2-1.7-1-2.7-0.6
		c-0.2,0.1-0.3,0.4-0.3,0.6c0.2,1.4-0.1,2.8-0.4,4.1c-0.1,0.3-0.1,0.6,0.2,0.9c0.7,0.6,3.2-0.4,3.4-1.3
		C72.6,74.3,72.5,73.5,72.8,72.7z"/>
	<path class="st0" d="M63.5,155.4c0.6,0,0.8,0.3,1,0.8c0.7,2.8,1.2,5.7,1.6,8.6c0.3,1.8,0.6,3.5,1.1,5.2c0.7,2.6,1.1,5.3,1.7,7.9
		c0.2,0.9,0.4,1.9,0.4,2.8c-0.2-0.8-0.8-1.5-0.7-2.5c0.1-0.8-0.2-1.8-0.5-2.5c-0.8-1.6-0.6-3.5-1.4-5.1c-0.9-1.9-1.1-4.1-1.5-6.1
		c-0.2-1.1-0.5-2.2-0.9-3.3c-0.2-0.6,0.4-1.1-0.2-1.7c-0.4-0.4-0.4-1.4-0.7-2.1C63.1,156.9,63.1,156.1,63.5,155.4L63.5,155.4z"/>
	<path class="st0" d="M109.6,86.1c0.1,0.9-0.3,1.6-0.8,2.2c-0.8,1-1.8,1.9-2.4,2.9c-1.3,2-3,3.4-5.1,4.5c-1.2,0.6-1.9,1.7-3,2.3
		c-0.8,0.4-1.7,0-2.4,0.5c-0.3,0.2-0.4-0.2-0.4-0.4c0-1.2,0-2.5,0.1-3.7c0-0.2,0.1-0.3,0.3-0.3c0.3,0,0.3,0.2,0.3,0.4c0,1,0,1.9,0,3
		c2-1.2,4-2.3,5.8-3.6c2-1.5,3.6-3.3,5.4-5c0.7-0.7,1-1.6,1.5-2.4C109.1,86,109.3,86,109.6,86.1L109.6,86.1z"/>
	<path class="st0" d="M55.7,61.1c0.8,0.1,1.6,0.3,2.3,0.7c1.1,0.5,2.1,0.5,3.2-0.2c1.1-0.7,2.3-0.4,3.7-0.5c-0.7,0.9-1.4,1-2.3,1
		c-1.2,0-1.8,0.9-1.4,2c0.2,0.6,0.4,1.1-0.3,1.7c-0.4,0.3-0.7,1.1,0,1.6c0.6,0.4,0.2,1,0.2,1.4c-0.2,3.4,0,6.9-0.5,10.3
		c-0.1,1-0.5,2-0.3,3.1c0,0.2,0,0.4-0.2,0.4c-0.3,0-0.4-0.2-0.4-0.5c-0.1-0.9,0.2-1.7,0.3-2.6c0.1-2,0.1-3.9,0.2-5.9
		c0-1.1,0.4-2.3,0.1-3.4c-0.3-0.9,0.4-2-0.6-2.8c0.7-1.2,0.2-2.5,0.6-3.7c0.2-0.6,0-0.8-0.6-1c-1-0.3-2-0.6-3-1
		C56.3,61.7,55.9,61.7,55.7,61.1z"/>
	<path class="st0" d="M21.1,49.9c0.1-0.1,0.1-0.1,0.2-0.2c1.5,0.9,3.3,1,5,1.5c2.7,0.9,5.4,1.6,8.4,2.5c-0.8,0.3-1.3,0.3-1.9,0.1
		c0.1,0.4,0.6,0.3,0.7,0.7l-0.1,0.1c-1.7-0.2-3.1-1-4.7-1.5c-1.2-0.3-2.4-0.8-3.6-1.2c-0.4-0.1-0.9-0.3-1.1-0.2
		c-1.2,0.6-2.2-0.5-3.3-0.4c-0.2,0-0.3,0-0.3-0.2s0.1-0.3,0.3-0.3C21.3,50.8,21.1,50.3,21.1,49.9z"/>
	<path class="st0" d="M33.4,54.6l0.1-0.1h0.1c1.8-0.8,3.5,0,5.1,0.6c2.7,1,5.3,2.1,8,3c1,0.3,1.9,0.8,2.9,0.9
		c-0.1,0.5-0.4,0.6-0.5,0.5c-1.2-0.6-2.6-0.7-3.9-1.2c-0.5-0.2-1.1-0.6-1.7-0.6c-0.5,0-1,0-1.4-0.4c-0.6-0.6-0.3,0.7-0.9,0.4
		c-0.6-0.2,0.1-1.2-0.6-1c-1.2,0.5-1.7-0.7-2.5-0.9c-0.3-0.1-0.5-0.3-0.7-0.4c-0.4-0.2-0.5,0.1-1,0.2c-0.5,0.2-1.2,0-1.7-0.3
		c-0.4-0.2-0.5-0.3-1-0.2C33,55.4,33.5,54.8,33.4,54.6z"/>
	<path class="st0" d="M76,206.8c-0.3,0-0.4-0.1-0.5-0.4c-0.4-3.1-1.4-6.1-1.8-9.3c-0.1-0.9-0.7-1.8-1-2.6c-0.1-0.3-0.3-0.8,0.2-0.9
		c0.4-0.1,0.4,0.4,0.5,0.7c0.9,2.2,1.3,4.5,1.7,6.8c0.3,1.5,0.4,3.1,1.1,4.5C76.5,206,76.3,206.4,76,206.8L76,206.8z"/>
	<path class="st0" d="M19.3,74.5c-0.4-0.5-0.2-1.1-0.1-1.5c0.2-1.1-0.5-1.9-0.6-2.9c0-1.1,0.3-2.1-0.1-3.2c-0.1-0.2,0.2-0.4,0.3-0.3
		c0.4,0.3,1,0.4,0.8,1c-0.3,1,0,2,0,2.9c0,1,0,2,0,3C19.6,73.8,19.7,74.2,19.3,74.5z"/>
	<path class="st0" d="M77.1,46.9c-2.6-0.3-4.5-2.3-6.4-6.5C72.9,42.7,74.3,45.5,77.1,46.9z"/>
	<path class="st0" d="M70.7,50.1c2.8,0.5,5.4,1.2,8.1,2c0.5,0.2,0.4,0.5,0.3,0.9c-0.1,0.4-0.4,0.2-0.7,0.2c-1,0.1-1.3-1-2.1-1.2
		c-1.4-0.4-2.9-0.7-4.3-1.1C71.5,50.7,71,50.5,70.7,50.1z"/>
	<path class="st0" d="M74.7,172.3c0.1,0,0.1,0,0.2,0c0.8,0.9,0.6,2.1,1,3.2c0.3,0.7-0.2,1.4,0.2,2.1c0.1,0.2-0.1,0.4-0.3,0.4
		c-0.4,0.1-0.6-0.1-0.7-0.5c-0.1-1-0.5-2-0.5-3C74.7,173.9,74,173.1,74.7,172.3z"/>
	<path class="st0" d="M91.7,155.6c-1.1-0.1-1.2-1.2-1.7-1.9c-1.2-1.8-2.2-3.6-3.4-5.4c-0.1-0.2-0.4-0.3-0.2-0.6
		c0.3-0.2,0.5,0,0.7,0.2c0.9,0.9,1.1,2.1,1.8,3C90,152.4,91,154,91.7,155.6L91.7,155.6z"/>
	<path class="st0" d="M78.5,215.3c0.1,0.3-0.1,0.4-0.3,0.5c-0.3,0-0.2-0.2-0.3-0.4c-0.3-2.1-0.9-4.1-1.6-6.1
		c-0.1-0.2-0.1-0.4,0.2-0.5s0.5-0.1,0.6,0.2C77.5,211.1,78,213.2,78.5,215.3z"/>
	<path class="st0" d="M19.7,40.9c0.1,0.9,0,1.7-0.4,2.5c-0.1,0.2-0.1,0.6-0.4,0.5c-0.4-0.1-0.3-0.4-0.3-0.7c0.1-1,0.3-2,0.4-3.1
		c0-0.3,0.1-0.8,0.5-0.7c0.5,0.1,0.1,0.5,0.2,0.8C19.7,40.5,19.7,40.7,19.7,40.9z"/>
	<path class="st0" d="M20.7,44.7c-0.4-1.3,0.7-3.4,1.5-3.6c0.2,0,0.7-0.1,0.7,0.2c0,0.3-0.2,0.9-0.5,1
		C21.4,42.6,20.8,43.3,20.7,44.7z"/>
	<path class="st0" d="M63.6,155.4c-0.8-0.6-1-2.5-0.5-3.4l0,0C63.8,152.8,64,154.4,63.6,155.4C63.5,155.4,63.6,155.4,63.6,155.4z"/>
	<path class="st0" d="M91.6,155.7c1,0.8,1.8,1.7,2.3,3C92.8,158.4,91.5,156.5,91.6,155.7C91.7,155.6,91.6,155.7,91.6,155.7z"/>
	<path class="st0" d="M52.5,44.3c-0.3,0.3,0,0.6,0.1,0.9c-0.7,0-1.4-0.4-2,0.2c-0.1,0.1-0.4,0.1-0.5-0.2c-0.1-0.3-0.2-0.5-0.2-0.8
		c0-0.2,0.4-0.2,0.5-0.1C51.3,44.8,51.9,44,52.5,44.3L52.5,44.3z"/>
	<path class="st0" d="M70.6,186.9c0.8,1,0.7,2.3,1.3,3.4c0.1,0.2,0,0.3-0.1,0.4c-0.3,0.1-0.4-0.2-0.5-0.4
		C71.1,189.2,70.6,188.1,70.6,186.9z"/>
	<path class="st0" d="M18.7,61.6c0.8,0.5,1,1.7,0.6,2.2C19.2,63.9,19,64,18.9,64c-0.2,0-0.3-0.2-0.3-0.4
		C18.7,62.9,19,62.4,18.7,61.6z"/>
	<path class="st0" d="M19.4,65.1c0,0.4,0.7,0.9-0.2,1.1c-0.5,0.1-0.6-0.5-0.4-0.7c0.3-0.4-0.4-1.2,0.5-1.2
		C19.7,64.3,19.7,64.7,19.4,65.1z"/>
	<path class="st0" d="M61.4,47.4c0.9,0.2,1.9,0.4,2.8,0.7c0.2,0.1,0.4,0.3,0.3,0.5c-0.1,0.2-0.3,0-0.5,0c-0.9-0.3-1.8-0.6-2.7-0.9
		C61.3,47.6,61.4,47.5,61.4,47.4z"/>
	<path class="st0" d="M18.9,60.1c0-0.3,0-0.5-0.1-0.7c0-0.2,0-0.4,0.3-0.4s0.4,0.1,0.5,0.4c0.1,0.6-0.3,1.2-0.1,1.8l-0.2,0.2
		c-0.1,0-0.3-0.1-0.3-0.3C18.7,60.7,19.2,60.4,18.9,60.1z"/>
	<path class="st0" d="M69.9,182.7c0,0.1,0.1,0.1,0.2,0.2c0.2,0.7,0.3,1.4,0.5,2.2c0,0.1,0.1,0.4-0.1,0.4c-0.1,0-0.3-0.1-0.4-0.2
		c-0.2-0.7-0.3-1.5-0.5-2.2C69.5,182.9,69.7,182.8,69.9,182.7z"/>
	<path class="st0" d="M85.5,216.2c0,0.3-0.1,0.6-0.4,0.5c-0.6-0.3-0.5-1-0.7-1.5c-0.1-0.2,0.1-0.5,0.3-0.4
		C85.4,215,85.2,215.7,85.5,216.2z"/>
	<path class="st0" d="M76.1,206.8c0.1,0,0.2,0,0.2,0.1c0.2,0.4,0.7,0.8,0.5,1.3c-0.1,0.2-0.3,0.3-0.5,0.1
		C75.7,207.9,75.8,207.4,76.1,206.8C76,206.8,76.1,206.8,76.1,206.8z"/>
	<path class="st0" d="M95.7,91.3c0.1-0.3-0.2-0.9,0.3-1c0.3-0.1,0.3,0.3,0.2,0.5c-0.1,0.5,0.1,1.3-0.3,1.4
		C95.4,92.3,95.9,91.6,95.7,91.3z"/>
	<path class="st0" d="M143.7,21.3c0.7,0.4,0.8,1.2,1.2,1.8c0.1,0.2,0.1,0.4-0.2,0.5c-0.1,0-0.3,0-0.4-0.1
		C144.6,22.6,143.1,22.2,143.7,21.3C143.7,21.2,143.7,21.3,143.7,21.3z"/>
	<path class="st0" d="M92.5,42.7c0.8-0.2,1.6,0,2.3,0.2c0.5,0.1,1.1,0.4,1.2,1c0.1,0.6-0.3,1.1-0.7,1.3c-1.5,0.7-3,1.4-4.8,0.9
		c-0.6-0.2-1.3-0.3-1.3-1.1c0-0.8,0.2-1.6,1.1-2C91.1,42.7,91.8,42.6,92.5,42.7z M90.7,44.8c1,0.5,1.8,0.3,2.6,0.1
		c0.3-0.1,0.8-0.1,0.6-0.5c-0.1-0.3-0.5-0.7-0.9-0.6C92.3,44,91.5,44,90.7,44.8z"/>
	<path class="st0" d="M75.3,90c-0.7,1-1.1,2.5-2.4,3.4c-0.4,0.3-0.7,0.2-1.1-0.1c-2.1-1.3-2.4-4.5-0.4-6c0.5-0.4,1.1-0.7,1.8-0.3
		C74.2,87.6,75.2,88.4,75.3,90z M71.7,90.5c0,0.5-0.1,1,0.4,1.2c0.5,0.3,0.6-0.4,0.9-0.6c0.7-0.4,0.7-0.8,0.4-1.4
		c-0.2-0.4-0.6-0.8-1.1-0.6C71.7,89.4,71.8,90,71.7,90.5z"/>
</g>
</svg>
