<?xml version="1.0" encoding="utf-8"?>
<!-- Generator: Adobe Illustrator 22.0.1, SVG Export Plug-In . SVG Version: 6.00 Build 0)  -->
<svg version="1.1" id="Layer_1" xmlns="http://www.w3.org/2000/svg" xmlns:xlink="http://www.w3.org/1999/xlink" x="0px" y="0px"
	 viewBox="0 0 255.1 255.1" style="enable-background:new 0 0 255.1 255.1;" xml:space="preserve">
<style type="text/css">
	.st0{fill:#4E5D44;}
</style>
<g>
	<path class="st0" d="M95.1,127c-0.2-0.1-0.8,0.1-0.7-0.2c0.3-1.1-0.8-1.3-1.2-1.9c-0.4-0.5-1-0.3-1.4,0.2c-0.1,0.2,0,0.8-0.5,0.4
		c-0.2-0.1-0.2-0.4,0-0.7c0.1-0.2,0.4-0.4,0.3-0.7c-0.2-0.4-0.4,0.1-0.7,0.1c-0.4-0.1-0.4-0.4-0.3-0.7c1-1.8,0.1-4.1,1.6-5.7
		c0.1-0.2,0.1-0.9-0.3-1c-1.5-0.4-1.3-1.5-1.1-2.7c0-0.2,0.3-0.5-0.2-0.9c-0.2,0.7-0.7,1.1-0.5,1.9c-1-1-1.1-2.6-0.2-3.5
		c0.5-0.7,0.8-1-0.2-1.3c0.5-0.4,1.2-0.4,1.8-0.8c-0.9,0.2-0.9-0.3-1-0.8l0,0c0.2-0.3,0.7-0.8,0.4-1.1c-0.3-0.7-0.9,0-1.5-0.1
		c0.5-1.5,0-3.5,1.6-4.6c0.1-0.1,0.3-0.4,0.2-0.5c-0.8-1.8,0.4-3.6-0.2-5.4c0-0.1-0.1-0.2-0.1-0.3c-1.3-0.3-2.1-1.4-1.5-2.7
		c0.1-0.3-0.1-0.3-0.2-0.4c-0.2-0.2-0.3-0.2-0.4,0.1c-0.1,0.4-0.4,1-0.4,1.1c0.2,2-0.7,3.4-2,4.6l0,0c-1.2-0.1-1.6-1.4-1.1-2.7
		c0.1-0.1,0.2-0.3,0.2-0.4c-1-2.1,0.4-3.6,0.8-5.5c0.2-1.2,0.8-2.3,1.3-3.4c0.1-0.2,0.2-0.5-0.1-0.8c-0.1,0-0.2,0-0.2-0.1
		c-0.3-0.9,0.5-1.2,1-1.8c-1.1-0.3-0.8-1.3-0.3-1.5s0.4-0.2,0.1-0.5s0.3-0.7,0-1.3c-1.4,4-2,7.9-3.3,11.9c-0.5-1.2-0.9-2.2-1-3.4
		c-0.3-2.7,0.7-5.5,0.7-8.2c0-0.1,0-0.2,0-0.4c0.7-1.8,0.7-1.8-1.2-1.5c-0.4,0.1-0.5,0.4-0.5,0.7c0.1,1.9-0.2,3.7-0.2,5.6
		c0,1.8-0.1,3.5-0.4,5.3c-0.2,1.1,0.1,2.2-0.1,3.2c0,0.2,0.1,0.4,0,0.7c-0.3,0.7,0.1,2.1-1,2c-0.7,0-0.2-1.2-0.2-1.9
		c-0.2-3.2,0.9-6.3,0.5-9.3c-0.3-3.3,0.7-6.5,0.5-9.8c-0.1-1.8,0.5-3.8-1-5.4c-0.1-0.1-0.1-0.1-0.1-0.2c0.2-2.9-2.3-3.8-4.1-4.5
		c-2.6-1-4.9-2.6-7.4-3.7c-1-0.4-2.1-0.9-3.2-1.3c-2.7-0.9-5.3-2.1-7.7-3.6c-1.9-1.2-4.2-1.8-5.9-3.4c0.5,1.4,1.6,2.5,2.6,3.6
		c1.2,1.2,2.5,2.4,4.1,3.3c1.5,0.9,1.9,4,1.2,5.7c-1.1,2.9-3.2,5.1-5.2,7.4s-4,4.7-5.4,7.6c-0.3,0.7-0.8,1-1.5,1.1
		c-0.3,0-0.7,0-1.1,0.4c0.7-0.1,1.1-0.1,1.8,0.1c-2.5,2-3.2,5.1-4.9,7.4c-0.5,0.8-0.8,1.5-1.2,2.3c-0.5,0.9-0.8,2-1.5,2.7
		c-0.8,0.7-0.8,1.8-1.4,2.4c-1.1,1.2-1.5,2.9-2.4,4.2c-0.5,0.9-1.3,1.8-1.6,2.7c-0.2,0.9-1,0.7-1.4,1.3c-1,1.8-1.5,3.6-2.3,5.5
		c-1,2.4-2.3,4.6-3.4,6.9c-2,4.1-4.4,8-5.9,12.3c-0.9,2.6-1.8,5.2-2.9,7.7c-0.1,0.2-0.3,0.5-0.5,0.8c-0.2,0.1-0.4,0.2-0.5-0.2
		c-0.2-1.3,0.3-2.3,0.9-3.4c0.7-1.3,1.1-2.7,1.5-4.2c0.4-1.8,1.4-3.3,2.2-4.9c0.8-1.9,1.4-3.7,2.5-5.5c1.9-3,3.1-6.3,4.6-9.3
		c1.2-2.4,2.4-4.9,3.4-7.5c0.4-1.2,1.1-2.5,2.1-3.5c0.4-0.5,0.8-1.1,1.1-1.8c0.4-0.8,0.2-1.9,1.3-2.4c0.3-0.2,0.4-1.3,0.8-2.1
		c0.3-1.2,1.4-1.9,1.9-3.1c1.2-3,3.1-5.6,4.9-8.2c1.2-1.8,2.9-3,4-4.7c0.4-0.7,0.9-1.4,1.2-2.1c0.2-0.3,0.2-0.8-0.2-0.9
		c-0.4-0.1-0.8,0.1-0.8,0.5c0.1,0.8-0.4,0.7-0.8,0.8c-0.2,0.1-0.4,0-0.4-0.3c0-0.3,0-0.8,0.4-1c0.2-0.1,0.9-0.3,0.3-0.9
		c-0.1-0.1,0.1-0.2,0.3-0.3c0.3,0,0.8-0.1,1,0.3c0.2,0.3,0.4,0.3,0.4-0.1c0-0.5,1.2-0.3,0.7-1.1c0.4-0.5,1.2-0.1,1.6-0.4
		c0.7-0.1,1.1-0.4,1.5-1c1.6-2.1,3.1-4.3,4.1-6.7c0.4-1-0.2-3.1-1.2-3.7c-0.2-0.2-0.5-0.3-0.8-0.4c-1.3-1.1-1.3-1-2,0.5
		c-1.1,2.4-1.9,5.1-3.7,7c-0.2,0.2-0.1,0.8-0.2,1.1c-0.1,0.3-0.4,0.5-0.8,0.4c-0.4-0.1-0.3-0.4-0.2-0.8c0.4-2.6,0.4-2.6,1.9-3.3
		c-1-0.1-0.8-0.9-0.4-1.3c0.7-1.1,1.1-2.2,1.5-3.4c0.2-0.5,0.8-0.9,0.5-1.6c-0.1-0.3,0.9-0.2,1.3-0.3c-2.2-2.4-4.3-4.7-6.4-7.1
		c-0.2-0.2-0.5-0.4-0.9-0.7c-0.3-0.2-0.7-0.4-1-0.7c-0.3-0.2,0.2-1.2-0.7-1c-0.7,0.1-0.2,0.8-0.3,1.2c-0.8,2.7-2,5.3-2.5,8
		c-0.1,0.3-0.1,0.5-0.3,0.9c-0.2,0.3-0.5,0.2-0.9,0.1c-0.2-0.1-0.3-0.2-0.3-0.4c0.3-1.1,0.2-2.3,0.4-3.5c0.1-1,0.7-1.5,1-2.4
		c0.5-1.2,1.2-2.5,0.8-4c-0.1-0.2,0.2-0.7,0.4-1.1c0.2-0.4-0.1-0.9-0.5-1c-0.5-0.1-0.5,0.2-0.7,0.7c-0.3,1.2-0.2,2.5-0.7,3.7
		c-0.4,1.1-0.9,2.1-1.3,3.1c-0.3,0.9-0.3,1.9-1.2,2.5c-0.2,0.1-0.3,0.4-0.7,0.3c-0.2-0.1-0.3-0.5-0.1-0.7c1.1-1.1,0.4-2.9,1.3-4
		c0.8-1,0.5-2,0.7-3.1c0.1-1,0.3-2.1,1.1-3c-0.8-0.3-1.5-0.5-2.4-0.8c-2-0.4-2.4-0.4-3,1.4c-0.3,1.2-1.3,2.1-1.1,3.6
		c0.1,0.8-0.5,2-1,3c-0.2,0.4-0.3,1-0.4,1.5c0,0.3,0,0.8-0.5,0.8c-0.3,0-0.8-0.3-0.7-0.9c0.1-0.7-0.2-1.3,0.3-2.2
		c-1.1,0.5-0.7,1.6-1.5,2c0-1.2,0-2.3,0.4-3.5c0.5-1.6,1.6-3.1,1.5-4.9c0-0.5,0.8-1.5,1.8-2c-0.9-0.5-1.8-0.9-2.5-1.8
		c-0.2,0.9-0.4,1.5-0.4,2.2c0,3.5-1.8,6.7-1.8,10.2c0,0.4-0.3,0.8-0.8,0.7c-0.8-0.2,0.2-0.3,0.1-0.7c-0.8-1.2,0-2.4-0.1-4
		c-0.5,0.8-0.3,1.4-0.7,2c-1,0-0.5-1.1-1.1-1.4c-0.3,0.2-0.4,0.5-0.4,1c0.3,2.9-0.1,5.6,0,8.5c0,0.3,0,0.9-0.7,0.8
		c-0.5-0.1-0.4-0.5-0.3-0.9c0.3-1,0-2-0.1-3c-0.2-3.3,0.4-6.6,0.3-9.8c-0.1-3.4-0.2-7-3-9.7c-1.3-1.3-3.1-2.3-4.6-3.5
		c-0.3-0.2-0.5-0.4-0.8-0.7c-0.8-1.3-2.1-2.1-3.3-3c-0.3-0.2-0.7-0.3-0.4-0.8c0.2-0.4,0.8-0.3,1-0.1c0.8,0.5,1.5,1,2.1,1.8
		c1.3,1.5,3,2.5,4.5,3.7s3.5,1.5,5.3,2.3c1.5,0.7,3.2,1.1,4.4,2.2c1.5,1.4,3.3,2.4,5.4,3.2c1.8,0.7,3.5,1,5.3,1.3
		c0.9,0.2,1.5,0.7,2.1,1.3c0.8,1,1.9,1.5,2.5,2.4c0.5,0.7,1.5,0.7,2.3,1.1c0.5,0.3,0.5,0.3,0.1,0.8c0.1,0,0.1,0.1,0.2,0.1
		c1.8,0.8,3.4,1.4,5.1,2.2c2,0.9,3.5,2.5,5.7,2.9c0.7,0.1,1.4,0.4,1.6,1.3c0.4-0.3,0.5,0.3,0.9,0.3c1.8,0,3.1,1.4,4.7,1.9
		c1.3,0.4,2.6,1,3.8,1.6c1.9,1.1,3.7,2,5.7,3c2,0.9,3.3,2.7,5.2,3.5c1.2,0.5,1.3,2.1,2.7,2.2c0.2,0,0.3,0.3,0.4,0.7
		c0.8,2.1,1.6,4.2,2.2,6.4c0.5,2,1,4.1,0.8,6.2c-0.2,3,0.1,5.6,1.4,8.2c0.8,1.5,1.5,3.4,1.9,5.2c0.1,0.5,0.1,1.3,1.1,1.5
		c1.1,0.3,0.7,1.5,0.4,2.1c-0.3,1.3,0,2.6,0.4,3.7c0.8,2,0.9,4,1.4,5.9c0.3,1.2,0.8,2.3,1,3.5c0.3,2.2,1.8,4,2,6.3
		c0,0.4,0.5,1.1,0.9,1.5c1,1.5,1.1,3.3,1.2,5.1c0,0.9,0,1.9,0.3,2.7c0.4,1,0.5,2.2,0.8,3.3v0.1c0.2,1,0.5,2,0.4,3.1
		c0,1-0.1,2.4,1,3.2c-0.7,1,0.7,0.9,0.9,1.4c0.3,0.7,0.1,1.5,1.1,1.8c-0.8,0.5,1,1,0.1,1.6c1.1,0.8,0.9,2.3,2,3
		c1,0.5,0.9,1.5,1.2,2.2c0.4,1.2,0.7,2.5,0.3,4c-0.1,0.3,0.1,0.4,0.3,0.7c0.3,0.4,0.5,1,0.5,1.5c0,0.2-0.3,0.5-0.1,0.9
		c0.3-0.5,0.9,0.1,1.2-0.2c0.3-0.3,0.7-0.9,1.3-0.4h0.2c0-1.6,2.1-1.4,2.5-2.9c0.1-0.4,0.7-0.9,1.3-1c0.3-0.1,0.7-0.3,0.9-0.7
		c1.6-4,4.9-6.6,7.4-10c1.2-1.8,2.6-3.3,3.5-5.3c0.1-0.1,0.2-0.3,0.3-0.4c1-0.8,1.9-1.4,2.6-2.6c0.7-1.1,2-2.1,2.9-3.1
		c1.8-2,3.5-4,5.7-5.5c1.1-0.9,2-1.9,3.2-2.6c0.9-0.7,1.6-1.6,2.3-2.6c0.4-0.7,1-1.1,1.6-1.2c0.9-0.1,1-0.7,0.8-1.3
		c-0.5-3.1,1.2-5.5,1.9-8.2c0.1-0.7,0.4-1.2,0.4-1.9c0-0.5,0.1-1.1,0.4-1.4c1.3-1.9,1.6-4.3,3.7-5.7c0.2-0.2,0-0.4,0-0.5
		c0-2.5-0.2-5.2-0.1-7.7c0.1-1.9-0.9-3.4-1-5.3c0-0.3-0.2-0.8-0.2-1.2c0.2-2.3-1.5-4-2.1-5.9c-0.1-0.4-1.1-0.7-1.8-0.8
		c-0.9-0.1-1.8-0.3-2.6-0.3c-1.4,0-2.5-0.7-3.3-1.8c-1.1-1.3-2.5-2-4.1-2.2c-1.9-0.2-3.5-0.8-5.3-1.3c-2.1-0.7-4.1-1.2-6.2-1.9
		c-1.2-0.4-1.4-1.1-0.4-2c0.5-0.4,1.1-0.9,1.9-0.9c1.9,0.1,3.7-0.3,5.6-0.4c3-0.2,5.9,0.1,8.9-0.1c2.7-0.2,5.4-0.3,8.1-0.4
		c1.3,0,2.6,0,4,0.2c1.2,0.1,2.3,0.1,3.4-0.2c0.5-0.1,1-0.2,1.5-0.2c4-0.2,8-0.5,12-1c2.6-0.3,5.3-0.1,7.9-0.4
		c0.4,0,0.9,0.2,1.2,0.3c0.8,0.2,1.5,0.4,2.1-0.4c0-0.1,0.2-0.1,0.2-0.1c1.9,0.7,3.8-0.4,5.8,0.1c1.6,0.3,3.4,0,5.2-0.1
		c1.2,0,2.3-0.2,3.5,0c0.5,0.1,1.2-0.2,1.8-0.2c2,0.1,3.8,0.3,5.8,0.3c5.2,0,10.3,0.5,15.5,0.3c2.3-0.1,4.7-0.2,7.1,0.1
		c2,0.2,4-0.1,5.9,0c1.1,0,2.2,0.1,3.2,0.3c0.9,0.2,1.5,0.7,2.5,0.2c0.3-0.2,0.9,0.1,1.1,0.5c0.2,0.4,0.4,0.9-0.1,1.3
		c-2,1.6-4.2,3.3-6.6,4c-1.3,0.3-3,0.9-4.7,0.5c-1.6-0.3-4-0.2-5.2,1.9c-0.1,0.2-0.7,0.4-1,0.4c-2.3,0.2-4.5,0.7-6.8,0.8
		c-2.9,0.1-5.8,0-8.7,0.3c-1.8,0.2-3.5-0.4-5.4,0.1c-0.5,0.1-0.7-0.7-1.3-0.5c0,0.3,1.1,0.9-0.2,1c-0.7,0-1.3,0.3-2.1,0.1
		c-1.3-0.4-2.5-0.1-3,1.2c-0.7,1.8-2,3.2-3.1,4.6s-1.9,3.1-3,4.6c-1.2,1.6-2.5,3.2-4.1,4.5c-0.1,0.1-0.2,0.4-0.4,0.3
		c-0.2-0.2-0.2-0.4-0.1-0.7c0.3-0.7,0.7-1.3,1.1-1.9c1.6-1.9,2.6-4.2,4.1-6.2c0.9-1.2,2.3-2.1,2.9-3.6c0.4-1,0.8-2,1.2-3
		c0.1-0.2,0.1-0.3-0.1-0.4c-0.1-0.1-0.2-0.1-0.3,0.1c-0.5,1.1-1.5,0.4-2.4,0.4c-0.2,0-0.4-0.1-0.7-0.2c-1-0.3-1.6,0-2.3,0.9
		c-2.6,4.1-5.7,7.9-10,10.6c-0.9,0.5-1.4,1.4-1.9,2.3c-0.5,0.8-1.4,1.3-1.9,2.1c-0.2,0.4-0.8,0.5-1.3,0.3c-1.1-0.2-2.2-0.1-3.2-0.7
		c-0.3-0.2-0.4,0.1-0.7,0.2c-1.9,1.1-3.3,0.3-3.4-1.8c-0.1-2.3-0.3-4.6-0.2-6.9c0-1.4,0.3-2.7,0.1-4.2c-0.1-1-0.3-1.5-1.2-1.8
		c-1-0.2-1.8,0-2.3,1c-0.7,1.3-1,2.6-1,4.1c-0.1,2.5-0.7,5.2-0.4,7.7c0.2,2,0.2,4,0,5.8c-0.2,2-0.5,3.8-1.5,5.5
		c-2.5,4.5-5.3,9-7.9,13.5c-0.2,0.4-0.7,0.8-1.1,0.5c-0.7-0.3-0.1-0.8,0.1-1.1c0.7-1.1,1.4-2.3,2.2-3.4c0.2-0.3,0.4-0.7,0.7-1
		c1-2.6,2.7-4.8,4.1-7.3c2.1-4,3.2-8.1,2.1-12.6c-0.3-1.1,0.1-2.3,0.2-3.3c0.1-1.6-0.4-2.9-1.1-4.1c-0.7-1.1-1-2.2-1.3-3.4
		c-0.4-1.5-0.8-2-2.3-1.6c-0.9,0.2-1.9,0-2.7,0.3c-0.9,0.3-1,0.8-0.5,1.4c1.3,2.7,2,5.7,2.4,8.8c0.4,2.6,0.1,5.4,0.4,8.1
		c0.2,1.9-0.3,4.1-2.1,5.5c-1.3,1.1-1.5,2.7-2.2,4.2c-1,2.1-1.1,4.6-2.2,6.7c-0.4,0.9-0.4,1.9-0.4,2.9c0.1,1.6,0,3.3-0.5,4.9
		c-0.1,0.4-0.1,1.1,0.1,1.4c1.2,2.1,2.3,4.3,4.4,5.9c2.5,2.1,5.5,3.6,7.9,5.8c0.8,0.8,1.9,0.3,2.6,1c0.9-1.6,1.6-3.3,2.4-4.8
		c0.5-1.1,0.9-2.4,1.3-3.7c0.9-3.1,2.9-5.6,4.5-8.4c1.8-2.9,4.1-5.3,5.7-8.2c0.4-0.9,1.4-1.5,2.1-2.2c1.9-1.8,3.4-4,4.9-6
		c0.5-0.7-0.2-1.1-0.2-1.4c0.2-1-0.1-1.9-0.1-2.7c0-0.4-0.1-0.8-0.1-1.2l0,0c0.8,0.3,2.1,0.2,1.3,1.8c-0.3,0.5,0.7,0.3,0.5,0.9
		c0.8-1.5,0.9-3.2,1.6-4.7c0.5-1.2,1.4-2.1,2.2-3.1c1.3-1.9,3.1-3.5,4.4-5.5c1-1.4,2-3.1,3.6-4.3c1.8-1.2,3.2-2.9,4.7-4.3
		c0.3-0.3,0.7-0.7,1.1-0.3c0.4,0.3,0,0.8,0,1.1c0,0.2-0.2,0.4-0.3,0.5c-2.1,1.2-3,3.7-5.5,4.6c-0.7,0.2-1,1.3-1.4,2
		c-0.8,1.2-1.3,2.7-2.4,3.7c-1.3,1.2-2.4,2.6-3.7,4s-2.2,3.1-2.5,5.2c-0.3,2-1.3,3.7-2.6,5.4c-1.5,1.9-3.1,3.6-4.6,5.5
		c-0.5,0.8-1.3,1.3-1.9,2.1c-1,1.3-2.1,2.6-2.9,4.2c-0.1,0.2-0.2,0.7-0.4,0.8c-1.5,0.9-2.1,2.6-2.9,4.1c-0.8,1.4-1.6,2.7-2.5,4.1
		c-1,1.4-0.8,2.7-0.3,4.3c0.8,2.2,0.5,4.5,0.7,6.7c0,0.5-0.1,1.1-0.5,1.4c-0.8,0.7-0.8,1.3-0.2,2c1,1.3,0.8,3,1.4,4.5
		c0.5,1.3,1.2,2.7,1.5,4.2c0.5,2.1,1.4,4,2.3,5.9c0.5,1.2-0.5,1.9-1.2,2.3c-0.7,0.4-1.3,0.9-1.9,1.5c-1,1.3-2.6,2.1-4,3
		c-0.9,0.7-1.6,2-3.1,1.9c-0.1,0-0.1,0.3-0.2,0.4c-1.4,1.5-2.9,3.1-4.8,4.1c-0.4,0.2-0.8,0.4-1,0.9c-0.2,0.3-0.4,0.8-1,0.7
		c-0.1,0-0.3,0-0.3,0c-0.4,2-2.3,2-3.5,2.9c-0.5,0.3-0.9,0.9-1.4,1.3c-3.2,2.4-6.5,4.7-9.5,7.6c-0.3-0.5-0.5-1-0.8-1.5l0,0
		c1.2,0,1.9-0.7,2-1.8c0.1-0.1,0.1-0.1,0.2-0.2c0.5,0,1.1-0.5,1.2-0.5c1.6-0.2,1.9-2,3.2-2.6c2-0.9,3.4-2.6,5.2-4
		c1.5-1.2,3.1-2.5,4.8-3.4c0.5-0.2,1.2-0.1,1.3-1.1c0-0.3,0.9-0.8,1.4-0.9c0.8-0.1,0.7-0.1,0.4-0.8c-0.1-0.4,0.3-0.9,0.9-1.2
		c2.2-1.3,4.3-2.7,6-4.6c0.2-0.2,0.3-0.3,0.7-0.2c0.4,0.2,0.7-0.3,0.8-0.7c0.1-0.2,0.2-0.4,0-0.5c-0.3-0.1-0.7-0.2-1,0
		c-0.7,0.2-1.3,0.3-2-0.3c-0.9-0.8-2.1-1.3-3.3-1.4c-0.9-0.1-1.6-0.3-2.2-0.9c-0.8-0.8-1.9-0.5-2.7-1.1c-0.4-0.2-0.7-0.7-1.1-1
		c-1.6-1-3.5-1.8-4.9-3.2c-1.2-1.1-1.9-2.7-3.1-3.7c-1.6-1.3-2.3-3.5-4.2-4.8c-0.4-0.3-0.5-0.9-0.9-1.4c-0.8-1.5-1.3-3.2-2.2-4.7
		c-0.4-0.8-0.2-1.9-0.4-2.9c-0.4-1.3-0.8-2.6-0.8-4.1c0-0.5-0.4-0.4-0.8-0.1c-1.8,1.8-4,3.2-5.4,5.4c-0.4,0.7-1.1,1.2-1.8,1.5
		c-1.1,0.8-1.6,1.9-2.3,3c-0.4,0.7-1.2,1-1.8,1.6c-1.3,1.6-2.3,3.6-3.7,5.2c-1.5,1.9-2.5,4.1-4.3,5.7c-0.5,0.5-1.1,1.1-1.1,2.1
		c0,0.7-1,1.4-1.6,1.9c-1.6,1.3-2.2,3.3-3.1,4.9c-0.7,1.2-1.3,2.4-2.3,3.5c-1.2,1.3-2.4,2.7-3.7,4.1c-1.6,1.8-3.4,3.3-4.9,5.2
		c-1,1.2-2.1,2.1-3.5,2.7c-0.5,0.2-0.9,0.8-1.1,1.4c-0.7,1.5-2.7,1.9-3.6,0.7c1.3-1.1,3.3-1.5,4-3.5c0.1-0.4,0.7-0.4,1-0.8
		c2.1-1.4,3.6-3.4,5.5-5.1c1.5-1.3,2.9-2.6,4.2-4.1c1-1,1.6-2.2,2.5-3.3c0.3-0.3,0.4-0.8,0.2-1.1c-0.2-0.4-0.7-0.2-1,0
		c-2.3,1.1-4.6,2.1-6.8,3.3c-0.8,0.4-1.4,1-2.1,1.5c-1.8,1.2-3.7,2.1-5.4,3.5c-1.8,1.5-3.5,3.2-5.6,4.3c-1.5,0.9-3,1.8-4.4,2.6
		c-1,0.5-2,0.4-3.1,0.5c-1.2,0.1-2.5-1.4-2.4-2.6c0.1-2.2,1-4.4,0.9-6.6c0-0.1-0.1-0.8,0.4-0.8c0.2,0.2,0.3,0.4,0.5,0.5
		c0.8,2.3-0.3,4.4-0.5,6.7c-0.1,1.2,0.4,1.5,1.6,1.4c1.4-0.1,2.5-0.9,3.6-1.8c1-0.8,2.3-1.2,3.5-2c1.1-0.8,2.3-1.3,3.1-2.5
		c0.4-0.7,1.1-1.1,1.9-1.4c1.3-0.5,2.4-1.3,3.3-2.4c0.7-0.8,1.6-1,2.4-1.4c1.4-0.9,2.6-2.1,4.3-2.4c1-0.2,1.1-0.8,0.7-1.4
		c-0.8-1.2-0.7-2.6-0.3-3.8c0.1-0.4-1.1-1.1,0.2-1.2l-0.1-0.1c-1.1,0.1-0.8-1-1.2-1.4c-0.8-0.7-0.8-1.2,0-2.1
		c-1.9,0.9-2-0.5-2.1-1.5c-0.1-0.8-0.4-1.3-0.7-2c-0.2-0.4-0.7-0.9-0.4-1.4c0-0.1,0-0.8-0.3-0.8c-1.2,0.1-1.3-1.1-1.4-1.6
		c-0.2-1.3-0.9-2.6-0.8-4.1c0-0.2,0.1-0.3-0.1-0.4c-1.9-1-1.2-3.1-2-4.5c-0.5-1.1-1.1-2.1-1.4-3.3l0,0c0.7,0,1.1,0.3,1.4,0.8
		c0.1,0.2,0.3,0.3,0.5,0.1c0.1-0.1,0.2-0.3,0.2-0.4c-0.5-0.8-0.1-1.5,0-2.3c0.2-1.2-1-1.6-1.2-2.6c-0.1-0.5,0.2-1.2-0.1-1.5
		c-1.3-1.3-1.3-3.2-2.2-4.6c-0.5-0.9,0.1-1.9-0.4-2.9c-0.3-0.5-0.4-1.1-0.7-1.8c-0.3-1.3-0.9-2.5-1.2-3.8c-0.1-0.3-0.4-0.2-0.4-0.1
		c0.4,0.7-0.7,1.4,0,2c0.7,0.4,0.3,0.8,0.1,1.1c-0.1,0.2-0.4,0.4-0.2,0.7c1.1,1.1,0.4,2.3,0.2,3.4c0.7,0.2,1.5,0.2,1.4,1
		c-0.2,1.1,0.1,2.2-0.1,3.3c-0.1,0.5,0.1,1.2-0.3,1.6s-1.2,0.7-0.5,1.8c0.3,0.5,0,1.5,0.7,2.1C95.4,126.2,95.4,126.5,95.1,127z
		 M171.2,73.3c0.3-0.8,0.8-0.5,1.1,0c0.4,0.8,0.7,0.4,1.1,0c0.3,0.2,0.7,0.3,1.1,0.2c2.2-0.2,4.4-0.2,6.5-0.1c0.1,0,0.4-0.2,0.4,0
		c0.8,1.8,1.8,0.7,2.7,0.1c0.2-0.1,0.3-0.5,0.7-0.3c0.3,0.2,0.2,0.4,0,0.8s0.2,0.5,0.4,0.7c0.2,0.2,0.4,0.1,0.5,0
		c0.3-0.3,0.2-0.5-0.1-0.8c-0.2-0.1-0.2-0.3-0.1-0.4c0.2-0.1,0.4-0.1,0.8,0.1c1.2,0.7,2.4,1.3,3.8,0.4c0.4-0.3,1.2-0.3,1.6,0.3
		c0.3,0.4,0.8,0.3,1,0.1c0.3-0.3,0.8-0.3,1.2-0.3c0.8,0.1,1.6,0,2.4,0c1.6-0.1,3.4,0,4.9,0.3c1.4,0.2,2.6,0.4,4.1,0
		c0.2-0.1,0.4-0.1,0.7,0c2,0.7,4,0.4,5.8,0c2-0.3,3.8,0,5.8-0.2c1.4-0.1,2.7-0.9,4.1-0.4c1,0.4,1.4-0.3,2-0.5
		c0.2-0.1,0.3-0.3,0.2-0.5c-0.1-0.3-0.3-0.3-0.5-0.3c-1.1,0.2-2.2,0.2-3.3,0.1c-0.8,0-1.1-0.8-1.9-0.5c-2.4,0.7-4.8,0.3-7.3,0.1
		c-1.4-0.1-2.7-0.4-4.2,0.2c-1.3,0.7-3,0.8-4.4-0.2c-0.3-0.2-0.9-0.3-1.5-0.1c-1.6,0.5-3.3,1.6-5.1,0.2c-0.1-0.1-0.2-0.1-0.3,0
		c-0.5,0.7-1.2,0.1-1.9,0.1c-1.5,0-3.1-0.2-4.6,0c-0.5,0.1-1.2,0.7-1.4-0.5c0-0.1-0.3-0.1-0.5-0.1c-1,0-2.1,1.1-3.1-0.2
		c-0.2-0.3-0.9-0.3-1.2,0c-0.3,0.3,0.4,0.4,0.4,0.8c-0.8,0.3-1.4-0.2-2.1-0.4c-1.1-0.2-1.6,0.8-2.6,0.5c-0.9-0.1-1.8,0.1-2.6,0.1
		c-0.7,0-1.5-0.5-1.9,0.5c0,0-0.3-0.1-0.5-0.1c-0.3,0-0.2,0.2-0.3,0.4c-0.7-0.1-1.1-1-2-0.7C170.6,72.8,170.6,73,171.2,73.3
		c-0.2,0.4-0.7,0.3-1,0.2c-1.2-0.2-2.4,0.4-3.5-0.2c-1.2,1.2-2.7,0.3-4.1,0.7c-0.5,0.1-0.9,0.1-1.1,0.8c1.6,0,3.2-0.4,4.6-0.5
		c1.8-0.1,3.5-0.1,5.2-0.2c0.3,0,0.7,0,0.5-0.4C171.7,73.1,171.4,73.2,171.2,73.3z M169.5,144.4c-0.1-2-1-3.7-1.8-5.5
		c-0.1-0.2-0.3-0.3-0.5-0.2c-0.3,0.2-0.2,0.4,0,0.7c0.7,0.5,1,1.3,0.5,2.2c-0.1,0.2-0.1,0.5,0,0.5
		C168.9,142.5,168.7,143.8,169.5,144.4c0,0.7-1.1,1.3,0,2.2c0.3,0.2,0,1.1-0.4,1.3c-1.9,1.4-3.1,3.4-5.2,4.9
		c0.8,0.1,1.4,0.1,1.9,0.2c1,0.3,1,0.3,1-0.7c0-0.3,0.1-0.7,0.4-0.8c0.8-0.4,0.7-1.4,1.3-1.9c0.4-0.3,1.2-0.2,0.9-1.2
		c-0.1-0.3,0.5,0.1,0.8,0c0.3-0.2,1.3,0.1,0.8-0.9C170.3,146.6,170.2,145.4,169.5,144.4z M146.9,119.4c-0.9,1.5-1.8,3-3.1,3.8
		c-1.2,0.9-1.2,1.9-1.2,3.1c0.3,3.7,1.5,7.1,3.1,10.6c0.5,1.1,1.5,1.9,2.2,2.9c0.7,1.1,1.2,2.1,2.3,2.7c0.3,0.2,0.5,0.4,0.7,0.8
		c1,2.2,2.7,3.5,4.5,4.9c0.9,0.7,1.5,0.7,2.2-0.2c0.8-1.1,1.5-2.1,2.5-3c2-1.5,3.1-3.6,3.6-5.9c0.3-1.4-0.1-2.1-1.3-2.9
		c-0.9-0.5-1.9-0.2-2.6-0.8c-1.4-1.1-2.9-2.2-4.3-3.3c-1.1-0.9-2.2-1.8-3.3-2.6c-1.1-0.9-2.6-1.4-2.9-3.2c0-0.2-0.2-0.4-0.3-0.5
		c-0.9-0.8-1.1-1.9-1.3-2.9C147.3,121.8,146.8,120.7,146.9,119.4z M130.6,69.8c1.5,0.5,2.7,1.2,4,1.4c1.6,0.4,3.5,0.3,5.1,1.3
		c0.2,0.1,0.8,0.1,0.8-0.1c0-1.1,0.8-0.7,1.2-0.8c1.1-0.2,2.2-0.1,3.3-0.4c2.6-0.7,5.3-0.5,7.9-1c3.3-0.5,6.6-0.8,9.9-0.4
		c1.1,0.1,2.2-0.5,3.3-0.2c1.8,0.4,3.4,0,5.2-0.1c3-0.2,5.8,0,8.8,0c0.8,0,1.5,0.3,2.3,0.2c1.5-0.2,3-0.7,4.6-0.1
		c0.4,0.1,1.1,0.4,1.6,0.1c2.2-1.5,4.6-0.8,6.9-0.7c0.9,0,1.9,0.1,2.7,0.2c1.1,0.1,2.2,0.2,3.4,0.1c1.6-0.2,3.5-0.3,5.1,0.7
		c0.3,0.2,0.5,0.1,0.8-0.1c0.9-0.8,1.9-0.4,2.7-0.3c2.5,0.5,5.1,1,7.7,0.7c2.5-0.3,5.2,0.3,7.7,0.1c0.8-0.1,0.8,0.5,0.8,1.3
		c0.4-0.4,0.2-1.2,1-1.1c0.5,0,0.7,0.3,0.9,0.8s0.7,0.5,1,0.1s1-0.4,1.4-0.7c1.2-0.7,2.7-0.4,3.6-1.6c0.1-0.2,0.5-0.3,0.8-0.2
		c1.2,0.2,2-0.5,3.3-1c-0.9,0-1.4,0-1.9,0c-3.6-0.2-7.3-0.5-11-0.7c-6.6-0.2-13.2-0.2-19.8-0.3c-1.4,0-2.7,0.2-4.2,0.2
		c-2,0-4.1-0.3-6,0c-1.6,0.2-3.5,0.4-5.2,0.2c-1.9-0.2-3.6-0.1-5.5-0.2c-4-0.1-8,0.3-12,0.5c-2.9,0.1-5.6,0.4-8.5,0.5
		c-2.2,0.1-4.4,0.8-6.6,0.7c-2.3-0.2-4.6-0.1-6.8-0.1c-3.5-0.1-6.9,0.4-10.4,0.4c-1,0-1.9-0.3-2.9-0.3
		C135.2,69.2,133.1,69.5,130.6,69.8z M167.8,77.5c0.9,1.3,0.8,2.5,0.5,3.5c-0.5,3.2-0.2,6.3,0,9.5c0.1,1.1,0.4,1.4,1.5,1.1
		c0.5-0.2,1.1-0.4,1.6-0.1c1.9,1,3.3,0.5,4.4-1.1c0.2-0.3,0.5-0.7,0.8-1c0.9-1.2,2-2.4,3.4-3c1.5-0.5,2.7-1.6,3.5-3
		c1.2-1.9,2.7-3.5,3.8-5.4c0.3-0.7,0.3-0.8-0.3-0.9c-1.1-0.3-2.4,0-3.3-1.1c-0.2,0.4,0.4,0.5,0.1,0.9c-0.1,0.1-0.5,0.1-0.7,0
		c-0.7-0.8-1.8,0.4-2.2-0.7c0,0-0.2,0-0.2,0.1c-0.7,1.1-1.9,0.5-2.7,0.7c-2.6,0.1-5.2-0.1-7.7,0.5C169.8,77.7,168.9,78,167.8,77.5z
		 M168,129.3c-1.3,2.9-3,5.5-2.6,8.7c2.5-1,3.6-2.7,3.3-5.5C168.5,131.5,167.8,130.5,168,129.3z M169.1,152.5
		c0.3,0.3,0.7,0.2,0.9,0.1c0.5-0.2,1-0.2,1.2,0.3c0.2,0.7-0.3,0.7-0.8,0.8s-0.2,0.7-0.1,0.7c0.7,0.3,1.3,0.1,2-0.2
		c0.5-0.2,0.7-0.9,0.5-1.3c-0.4-1.3-0.9-2.5-1.5-3.7C170.5,150.3,169.8,151.4,169.1,152.5z M160.8,82.7c0.5-1.4,0.8-2.5,1.3-3.6
		c0.1-0.3,0.5-1.2-0.1-1.3c-0.8-0.2-1.6,0-2.4,0.1c-0.2,0-0.3,0.4-0.2,0.5C160.2,79.6,160.3,81.1,160.8,82.7z M28.2,45.9
		c0.7-2.6-0.5-5.8-2.3-6C26.8,41.9,27.9,43.7,28.2,45.9z M141.4,73.3c1.1,0.1,2,0.9,2.9,1.4c0.5,0.3,1.3,0.5,1.5,0.2
		c0.7-1.2,1.9-0.4,2.6-1c0.3-0.2,0.7-0.3,0.9-0.5c-0.8,0.4-1.6,0.2-2.5,0.5c-0.5,0.2-1.6,0.4-2.3-0.2
		C143.6,73,142.5,73.3,141.4,73.3z M29.1,41c0.2,0.9,0.1,1.5,1.3,1.5c0.5,0,0.8,0.5,0.7,1.2c-0.2,1.4-0.3,2.7-0.1,4.2
		c0.4-1.3,0.2-2.7,0.8-4.1c0.3-0.8,0.1-1.4-0.4-1.8C30.6,41.7,30.1,41.1,29.1,41z M94.3,118.5c-0.9,0-0.7,2-1.9,0.7
		c-0.2-0.2-0.4,0.1-0.4,0.3c0,0.8,1,1.2,0.8,2c0,0,0.7,0.2,1.1,0.3c0.1-0.4,0.2-0.9-0.2-1.1c-0.2-0.1-0.5-0.2-0.2-0.5
		c0.2-0.1,0.3-0.3,0.7-0.2c0.2,0.1,0.1,0.5,0.5,0.4C95,119.7,93.6,119.4,94.3,118.5z M152.8,76c1.8-0.5,3.6-0.3,5.4-0.1
		c0-0.4-0.5-0.2-0.4-0.7c0.8-0.1,1.4-0.2,2.1-0.2C157.4,74.9,155.1,75.1,152.8,76z M147.4,76.2c0.7-0.4,1.5-0.7,2.3-0.5
		c0.4,0,0.9,0,0.8-0.5c-0.1-0.5-0.5-0.3-0.9-0.2c-0.8,0.1-1.5,0.3-2.3,0.5c-0.2,0.1-0.7-0.7-0.9,0.1
		C146.3,76.3,147.2,75.7,147.4,76.2z M160,147.9c-0.5,0.4-1,0.8-1.4,1.1c-0.3,0.3-0.2,0.5,0.1,0.9c0.3,0.3,0.5,0.2,0.8-0.2
		C159.7,149.2,159.7,148.7,160,147.9z M92,114.3c-0.1,0-0.2,0.1-0.3,0.2c0.5,0.4,0.1,1.1,0.4,1.6c0,0.1,0.3,0.1,0.3,0
		c0.3-0.4-0.3-1,0-1.5C92.5,114.6,92.3,114.3,92,114.3z"/>
	<path class="st0" d="M128.6,187.4c1.6-0.3,2.1-2.1,2.9-3.2c0.7-0.9,1.2-1.8,2.5-1.6c0.4,0.1,0.9-0.1,1.1-0.5
		c0.8-1.1,1.6-2.2,2.2-3.3c0.3-0.5,0.9-0.7,1-0.5c1,0.8,1.4-0.3,1.5-0.5c0.4-1.3,2.1-1.3,2.6-2.6c0,0,0.1-0.1,0.2-0.1
		c0.8,0,1-0.1,1.5-1c0.4-0.9,1.2-2.2,2.4-2.6c1-0.3,1.6-1,2.3-1.9c0.5-0.8,1.6-1,2.5-1.5c0.5-0.3,1-1,1.8-1.1c0.3,0,0.8-0.3,1.1,0.1
		c0.2,0.4-0.2,0.7-0.4,0.8c-1.8,1.3-3.6,2.6-5.3,4.2c-1.5,1.3-3.2,2.5-4.3,4.3c-0.1,0.1-0.1,0.1-0.2,0.2c-1,0.2-1.8,0.7-2,1.8l0,0
		c-0.4,0.2-0.3,0.4-0.1,0.7c0.8,0.7,0.4,1.3,0,1.8c-1.3,1.1-2.5,2.4-4,3.5c-0.8,0.5-1.6,1.5-2.2,2.5c-1.1,2-2.3,4-3.6,5.8
		c-1.4,2-3.2,3.7-5.3,5.2c-1.8,1.2-3.6,2.6-5.4,3.8c-1.5,1-3,2.4-4.9,2.7c-0.5,0.1-1,0.5-1.4,0.9c-1.9,1.2-4.2,1.9-5.8,3.6
		c-0.7,0.7-1,1.4-1.6,2.1c-1.4,1.6-3,3.2-4.2,5.1c-0.7,0.9-3.3,1.3-4.3,0.8c-1.4-0.9-2.9-1.6-4.6-1.8c-0.9-0.1-1.4-1-2.4-1.1
		c-0.4,0-0.8-0.9-1.5-0.3c-0.1,0.1-0.7,0-0.9-0.4c-0.2-0.7-0.9-0.9-1.3-1.3c-0.9-0.7-1.6-1.3-2.6-1.8c-0.8-0.3-1.8-1.1-1.2-2.3
		c0.1-0.2,0-0.2-0.1-0.2c-1.5,0.2-2.1-1.2-2.5-2.1c-0.5-1.1-1.6-0.8-2.3-1.4c-0.4-0.4-1.2-0.5-1-1.4c0-0.1-0.1-0.3-0.2-0.4
		c-1.2-0.9-1.6-2.4-2.5-3.5c-1.5-2.1-2.9-4.4-4-6.8c-0.1-0.1-0.2-0.3-0.4-0.2c0,0.9,0.9,1.3,1,2.1c-1.1-0.4-2.7-2.6-2.4-3.5
		c0.3-1-1.3-1.5-0.1-2.4h0.1h0.1c0.9,0.1,1.2,0.9,1.5,1.5c0.2,0.4,0.3,1,0.8,0.9c0.4-0.1,0.3-0.9,0.3-1.3c-0.2-1.5,0.7-2.7,0.5-4.3
		c0-0.2,0.3-0.4,0.7-0.2c0.2,0.2,0.3,0.3,0.2,0.8c-0.8,1.5-0.7,3.3-0.5,4.9c0.2,3,1.6,5.5,3.5,7.8c0.3,0.3,0.9,0.5,1.3,0.9
		c0.1,0.5-0.9-0.1-0.5,0.5c0.8,1.6,2.3,2.6,3.6,3.8c-0.3-1.4-0.9-2.7-1.8-4c-0.1-0.1-0.4-0.2-0.3-0.5c0.1-1-0.1-2-0.3-3
		c-0.1-0.3,0.2-0.8,0.3-1.1c0.1-0.2,0.2-0.5,0.5-0.4c0.2,0.1,0.4,0.3,0.3,0.5c-0.5,2.2,0.8,3.8,1.4,5.7c0.4,1.3,1.1,2.6,1.6,4
		c0.2,0.4,0.4,1,1.1,1.2c-0.7-2.4-1.3-4.7-2.3-6.9c-0.1-0.2-0.2-0.5-0.1-0.8c0.2-0.3,0.4,0,0.7,0.1c1.2,0.4,2.1,1.6,1.9,3
		c-0.2,1.2,0.5,2.1,0.9,3.1c0.4,1.4,1.2,2.7,1.8,4.1c0.2,0.4,0.3,0.9,0.9,0.9c-0.5-2.4-1.4-4.7-2.2-7.1c-0.1-0.4,0-0.8,0.3-0.9
		c0.5-0.1,0.7,0.2,0.8,0.7c0.5,2,1.3,4,2,5.9c0.5,1.5,1.5,2.7,2.3,4.1c0.3,0.5,1.2,0.4,1.6,0.8c-0.1-1.8-1.4-3-2-4.6
		c-0.2-0.5-0.5-1.2-0.9-1.8c-0.2-0.3-0.4-0.7,0.1-0.9c0.4-0.2,0.9,0.1,1,0.4c0.2,1.1,1.2,1.6,1.5,2.6c0.1,0.4,0.4,0.5,0.8,0.4
		c0.3-0.1,0.3-0.5,0.3-0.8c0-0.4-0.3-0.9-0.1-1.4c0.1-0.2-0.4-0.7,0.1-0.8c0.3-0.1,0.7,0.1,0.9,0.4c0.1,0.1,0.1,0.3,0.1,0.5
		c0,1.1,1.1,1.9,1.2,3c0,0.1,0,0.2,0.1,0.2c1.3-0.1,1.6,1.2,2.7,1.8c-0.2-1.2-1-2-1.6-2.6c-0.9-0.9-1.5-2-2.1-3
		c-0.3-0.5-0.5-1-0.1-1.4s1.2-0.4,1.8,0c0.8,0.7,1.6,0.9,2.5,1.2c0.8,0.3,1-0.1,1.3-0.4c0.1-0.2,0.1-0.5,0.4-0.7
		c1.2-0.1,2.3-0.5,3.5-0.5s2.1-0.2,2.9-1.2c0.7-1,1.3-0.9,1.9,0.1c0.8-1.6,2.1-2.6,3.3-3.8c0.2-0.2,0.5-0.4,0.8-0.3
		c0.4,0.1,0.1,0.5,0.2,0.8c0.1,0.1-0.4,0.3,0,0.5c0.2,0.1,0.3,0.1,0.4-0.1c0.7-1,1.1-2.2,2.5-2.4c0.1,0-0.2-0.8,0.1-1
		c0.5-0.3,0.7-1.1,1.6-0.9c1.3,0.3,1.8-1,2.4-1.6c0.7-0.8,1.5-1.4,2.1-2.2c1-1.1,2.3-2.1,3-3.5C126.7,186.9,127.3,186.7,128.6,187.4
		c-0.7,0.3-1.2,1-1.5,1.5c-0.8,1.8-2,3.2-3,4.8c-1.1,1.8-2.6,3.2-3.4,5.2c-0.2,0.4-1,1.2-1.2,1c-1.2-0.8-2.4,1.2-3.5,0
		c0,0-0.2,0.1-0.3,0.2c-0.9,1.2-1.9,2.3-2.6,3.6c-0.3,0.5-0.7,0.7-1.2,0.7c-0.3,0-0.5-0.1-0.5-0.4c-0.2-0.7,0.5-0.5,0.8-0.9
		c-0.3-0.3-0.7-0.3-0.9,0c-0.5,0.8-1.2,1.4-1.8,2.2c-0.7,0.9-1,1.9-2.2,2.3c-0.7,0.2-0.7,1.3-0.8,2.1c0,0.1,0.1,0.2,0.2,0.2
		c0.2,0,0.3-0.1,0.4-0.3c0.3-0.7,0.7-1.3,1.1-1.9c1.1-1.2,2.6-1.9,4.1-2.7c1.9-1.1,3.7-2.1,5.7-3.2c1.8-1,3.6-1.6,4.6-3.6
		c0.1-0.2,0.7,0,0.8-0.3c-0.2-0.3-1-0.5-0.7-0.8c1-0.7,0.9-1.8,1.5-2.5c1.3-1.8,2.3-3.7,3.8-5.3
		C128.4,188.8,128.8,188.1,128.6,187.4z M133.8,186.6c-2.6,2.4-3.8,5.8-6.5,8.5c0.3,0.1,0.4,0.1,0.5,0.1c2-1.4,3.4-3.2,4.2-5.6
		c0.1-0.2,0.2-0.5,0.3-0.5C134,188.8,133,187.2,133.8,186.6z M100.5,213.3c-0.4,0.1-0.9-0.4-0.9,0.2c0,1,1.2,0.9,1.6,1.5
		c0.2,0.3,0.7,0.3,0.9,0c1-1,2-1.9,3-3c0.1-0.2,0.7-0.7,0.1-1c-0.3-0.2-0.8-0.7-1-0.2c-0.2,0.4-0.9,0.7-0.9,1
		C103,214,101.8,214.1,100.5,213.3z M94.7,209.4c-0.5,0.7-0.1,1,0,1.3c0.1,0.2,0.5,0.5,0.3,0.8c-0.8,0.7-0.1,1,0.3,1.1
		c1,0.4,2.1,0.9,3.4-0.1C96.4,212.7,95.4,211.4,94.7,209.4z M102.3,206.5c-0.8,0-0.8,0.4-1,0.5c-0.9,0.4-0.9,0.4-0.4,1.1
		c0,0.1,0,0.3,0,0.3c-1.2,0.9,0.2,1.9-0.1,2.9C101,209.8,101.6,208.2,102.3,206.5z M99.1,208.6c0.2-1.4-0.9-2.6-2.2-2.7
		C97.6,206.8,97.9,208.1,99.1,208.6z M104.4,204.8c-0.7,0.5-1.4,0.7-2.3,0.5c1.4,0,1.4,0.7,1,1.5c-0.1,0.3-0.1,0.7,0.1,1
		C104.1,207.1,103.9,205.9,104.4,204.8z M125,196.9c1-0.1,1.6-0.4,1.5-1.4c0-0.2,0.3-0.5-0.1-0.7c-0.2-0.1-0.7,0-0.7,0.3
		C125.8,195.8,125,196.2,125,196.9z"/>
	<path class="st0" d="M64.8,128.7c0-0.5-0.7-0.4-0.7-1.2c0.1-1.9,0.5-3.7,0.2-5.6c-0.2-1.2-0.3-2.5-0.5-3.7s0.5-2,1-2.9
		c0.2,0.1,0.3,0.1,0.3,0.1c-0.3,2.2,0.7,4.3,0.8,6.5c0.1,3-0.2,5.8-0.7,8.7c-0.4,3-1.2,6-0.7,9.1c0.1,0.8-0.3,1.8-0.3,2.6
		c0.1,3-1.1,5.6-1.5,8.5c-0.5,3.2-1.3,6.4-1.6,9.7c-0.2,1.8-0.5,3.4-0.7,5.2c-0.1,2.2,0.5,4.4,0.8,6.7c0.2,2.4,0.7,4.7,0.8,7.1
		c0.1,1.9,0.3,3.7,0.4,5.6c0,0.3,0.3,1.1-0.3,1c-0.5,0-1.3-0.3-1.2-1.1c0.2-3.2-0.8-6.4-0.5-9.6c0.1-0.9-0.2-1.8-0.2-2.7
		c0-0.3-0.5-0.8,0.2-1c0,0,0-0.1,0.1-0.2c-2-0.4-0.5-2-0.9-3c-0.7-1.5-0.5-3.3,0.1-4.9c0.2-0.7,0.3-1.5-0.1-2.3
		c-0.1-0.1,0-0.5,0.1-0.8c1.3-1.4,0.7-3.4,1.2-5.1c0.2-0.8,0.3-1.5,0.2-2.3c-0.1-1.8,1-3.4,1.2-5.2c0.1-1.1,0.4-2.2,0.7-3.1
		c0.5-1.8-0.2-3.3,0.3-5.1c0.3-0.9,0-2.4,0.3-3.5c0.3-1.3-0.9-2.9,0.5-4c0.2-0.1-0.2-0.9-0.1-1.4c0-0.3,0.9-0.8-0.1-1.1
		C63.7,129.6,63.8,128.4,64.8,128.7z"/>
	<path class="st0" d="M72.7,164.2c0-0.7-0.9-1.4,0.2-1.9c0.2-0.1,0-0.4,0-0.5c0.2-0.8-0.5-1.6,0.2-2.3c0,0,0-0.3-0.1-0.3
		c-1.3-0.7-0.2-1.5-0.4-2.3c-0.2-1.1,0-2.1-0.1-3.2c-0.2-3.5,0.9-6.7,2.2-9.8c0.8-1.8,1.1-3.5,1.8-5.3c0.5-1.4,0.7-3.1,1.1-4.5
		c0.2-0.9,0.1-1.6,0.2-2.5c0.2-1.4,0.3-2.9,0.4-4.3c0.3-2.2,0.9-4.4,1-6.7c0-1.6,0.1-3.2,0.2-4.8c0.1-1.5,0-3,0.3-4.5
		c0.2-1.2,0.4-2.6,0-4.1c-0.3-1,0.2-2.1,0.2-3.3c0-0.9,0-1.8-0.1-2.5c-0.1-1.2,0.3-2.3,0.1-3.5c-0.1-0.9,0.4-0.4,0.8-0.5
		c0.4,0,0.7,0,0.5,0.5c-0.2,1.2-0.3,2.5,0.1,3.7c0.2,0.7-0.2,1.3-0.3,2c-0.2,3.1-0.1,6.2-0.4,9.2c-0.2,1.6,0,3.5-0.1,5.3
		c-0.2,2.6,0,5.4-0.8,7.9c-0.7,2.1-0.5,4.3-1.1,6.5c-0.5,1.9-0.5,3.8-0.9,5.8c-0.1,1-0.4,1.5-1.1,2c0.8,0.4,0.7,0.4,0.2,1
		c-0.2,0.3-0.4,0.9-0.3,1.1c0.1,0.5,0.3,0.7-0.4,0.7c-0.4,0,0.1,0.4,0.2,0.7c0.2,0.7,0.4,1.1-0.7,1.3c-1.2,0.2-1,1.3-1.1,2.2
		c0.7-0.1,0.4-0.4,0.4-0.7s0-0.7,0.4-0.7c0.3,0,0.4,0.4,0.3,0.8c-0.3,0.8-0.3,1.6-0.7,2.4c-0.3,0.8-0.8,1.5-0.7,2.5
		c0.1,1-0.8,0.7-1.2,0.9c0.1,0.7,0.9,0.1,1.1,0.5c0,0.5-0.4,0.3-0.7,0.3s-0.5,0.1-0.5,0.3c0,0.4,0.3,0.3,0.5,0.3
		c0.5-0.1,0.7,0.1,0.5,0.5c-0.2,1.2-0.1,2.4-0.5,3.6c-0.2,0.7-0.4,1.3-0.2,1.9c0.5,1.4-0.8,2.6-0.7,4
		C73.2,164.1,72.9,164.1,72.7,164.2C72.6,164.2,72.7,164.2,72.7,164.2z"/>
	<path class="st0" d="M66.1,230.4c-1-0.5-1.4-2.3-0.9-3.6c0.2-0.5,0.3-1,0-1.6c-0.5-0.9,0-2,0-2.9c0-1.3-0.1-2.7-0.1-4.1
		c-0.1-1.9-1.1-3.6-1-5.6c0-0.9-0.2-1.9,0-2.6c0.1-0.7-0.5-0.5-0.7-1.2c-0.2-1.8-0.1-3.4-0.5-5.2c-0.5-1.9-1.1-3.7-0.2-5.7
		c0.2-0.7-0.1-2,0-2.9c0.3-2.4,0.4-4.9,1.5-7.3c0.4-0.9,0.5-2.1,1.8-2.4c0.1,0,0.3,0,0.4,0c0.3,1.1-0.4,2-1,2.6
		c-0.2,0.2-0.5,0.3-0.7,0.8c-0.2,3.3-1,6.6-1.2,10c-0.1,2.5,0.7,4.8,0.9,7.4c0.2,3.1,0.9,6.2,1.2,9.1c0.3,2.5,0.5,5.2,0.7,7.7
		c0.1,2.4,0.2,4.8,0.2,7.3C66.7,230.5,66.4,230.4,66.1,230.4L66.1,230.4z"/>
	<path class="st0" d="M70.3,187.4L70.3,187.4h-0.2c-1-0.7-0.7-1.8-0.8-2.5c-0.3-1.8-0.9-3.5-0.7-5.4c0.1,1.5-0.7,2.1-2,2.2l-0.1-0.1
		c0.9-2.3,1.8-4.7,2.2-7.1c0-0.3,0.1-0.8,0.3-0.9c2.1-1,1.5-3.1,1.9-4.7c0.2-1.1,0-2.3,1.1-3.2c0.2-0.1-0.4-0.8,0-1.2
		c0.2-0.2,0.3-0.2,0.5-0.2l0,0c0.5,0.5,0.5,1.1,0.4,2c-0.3,1.6-1.2,3.1-1.3,4.8c-0.1,0.9,0,2.2-1.2,3c-0.2,0.1-0.1,1.4-0.3,2.2
		c-0.9,2.5-0.1,5.2,0.1,7.7c0.1,1,0.2,1.9,0.5,2.9C71,186.8,71,187.4,70.3,187.4z"/>
	<path class="st0" d="M53.5,73c-0.5,0.3-1.2-0.1-1.6,0.4c-0.5,0.5-1.2,0.5-2,0.3c0.9-0.7,0.4-2.2,2-2.3c-0.1-0.1-0.2-0.2-0.2-0.3
		c-0.1-0.5-0.1-1.2,0.4-1.4c2-0.8,1.6-2.6,2.1-4.1c0.2-0.8,0.4-1.1,1.3-0.3c-0.9-1.3,0-1.4,0.8-1.6c0.4-0.1,0.9-0.1,1.1,0.3
		c0.2,0.4-0.3,0.4-0.5,0.8c-0.7,0.8-1.1,1.6-1.3,2.5c0.3,0.1,0.4-0.1,0.5-0.2c0.2-0.3-0.1-1.1,0.8-0.7c0.4,0.3,0.8,0.7,0.4,1.3
		c-0.5,1.1-1.5,1.8-2,2.9c-0.3,1-1.1,1.6-2.5,1.2C53.1,72.4,53.6,72.5,53.5,73z"/>
	<path class="st0" d="M183.8,96.5c-0.9,1.2-1.8,2.3-2.7,3.5c-0.7,0.8-0.7,1.8-1.2,2.5c-1,1.2-1.5,2.6-2.2,4.1
		c-0.4,1.1-1.6,2-2.6,3.2c-0.7-1.4,0-2.1,0.7-2.5c0.5-0.4,0.8-0.9,1-1.4c0.8-1.5,1.6-3.1,2.3-4.6s1.4-3.1,2.6-4.4
		c0.7-0.7,1.4-1.2,2.2-1.6c0.2-0.1,0.4-0.5,0.8-0.1c0.2,0.2,0.1,0.5-0.1,0.8C184.3,96,184.1,96.2,183.8,96.5L183.8,96.5z"/>
	<path class="st0" d="M46.3,68.9c0.4-0.9,0.8-2.3,1.4-3.4c0.3-0.7,0.7-1.2,0.5-1.9c0-0.3,0-0.7,0.4-0.7c0.5-0.1,0.5-0.3,0.2-0.7
		c-0.2-0.2-0.2-0.4,0-0.5c1.1-1.1,0.7-3,2-4c0.3-0.2,0.5-0.8,1-0.5c0.4,0.2,0.3,0.7,0.1,1c-0.7,1.2-1.1,2.5-1.3,3.8
		c-0.4,2.3-1.8,4.2-2.5,6.4c-0.2,0.5-1.1,0.8-1.5,1.3C46.5,70.1,46.1,69.7,46.3,68.9z"/>
	<path class="st0" d="M50.3,55.5c-0.5,1.3-1.1,2.5-1.4,3.8c-0.4,1.9-1.6,3.2-2.3,4.9c-0.1,0.3-0.3,0.8-0.9,0.5
		c-0.5-0.2-0.3-0.5-0.1-1c0.4-0.9,0.4-2,0.9-2.9c0.5-1,0.7-2.2,1.1-3.2c0.4-1.1,1-2.1,1.1-3.3c0-0.4,0.4-0.5,0.7-0.3
		C49.8,54.5,50.6,54.5,50.3,55.5z"/>
	<path class="st0" d="M43.4,64.1c-0.3-0.1-0.8-0.1-0.8-0.5c-0.1-0.4,0.3-0.4,0.5-0.5c1.2-0.4-0.5-0.4-0.1-0.8
		c1.1-0.8,0.5-2.2,1.2-3.3c0.4-0.8,0.9-2.1,0.8-3.2c-0.1-1.1,0.5-1.5,1.3-2c0.2-0.1,0.5-0.1,0.8,0c0.3,0.2,0.2,0.5,0.1,0.9
		c-0.7,1.2-0.8,2.6-1.1,4c0,0.2-0.1,0.5-0.3,0.7c-0.7,0.5-0.8,1.1-0.9,1.9c-0.1,0.9-0.7,1.8-1,2.6C43.8,64.1,43.6,64.1,43.4,64.1z"
		/>
	<path class="st0" d="M36.6,58c0-0.9-0.7-1.6,0-2.7c0.4-0.7,0-1.9,0.3-2.6c0.5-1.3,0.3-3,1.5-4.1c0.1-0.1,0.1-0.2,0-0.3
		c-0.2-0.2-0.3-0.5-0.1-0.7c0.3-0.1,0.8,0.1,1.1,0.2c0.2,0.1,0.2,0.3,0.1,0.5c-0.8,3.1-1.4,6.3-2.6,9.3C37,57.9,36.9,58,36.6,58z"/>
	<path class="st0" d="M90.8,96.5c0,0.1,0.1,0.2,0.1,0.3c-0.2,0.1-0.7,0.2-0.7,0.3c0.3,1.3-0.8,2.4-0.8,3.8c0,1.1-0.4,2.4-0.7,3.6
		c-0.1,0.3-0.8-0.1-0.9,0.4c-0.1,0.4,0.2,0.7,0.2,1c-1,0.1-1.3-0.4-1.2-1.2c0-0.4,0-1,0.2-1.4c0.8-1.4,0.4-3.4,1.8-4.6
		c0.1-0.1,0.1-0.3,0-0.5C88.5,96.4,89.7,96.5,90.8,96.5z"/>
	<path class="st0" d="M95.1,127c0.3-0.3,0.3-0.8,0-1.1c0.5-0.8,0.4-1.6,0.5-2.5c0.1-1-0.1-2,0.2-2.9c0.1-0.3,0.3-0.5,0.7-0.3
		c0.2,0.1,0.5,0.1,0.5,0.4c0,0.2-0.1,0.3-0.3,0.3c-0.2,0-0.3-0.3-0.5,0c-0.1,0.3,0.1,0.4,0.3,0.7c0.5,0.3,0.9,0.5-0.1,0.8
		c-0.4,0.1-0.4,1.6-0.2,1.9c0.4,0.2,0.5,0.8,0.2,1.1c-0.8,1-0.8,1.6,0.2,2.3c0.3,0.2,0.9,0.2,1.1,0.7l0,0c-0.9,1.5-1.5,0.3-2.2-0.2
		C95.5,127.8,95.1,127.5,95.1,127z"/>
	<path class="st0" d="M66.5,185.2c-0.1,0-0.3,0-0.4,0c-1.1-0.1-0.1-1-0.4-1.3c0.7-0.7,0.8-1.5,1.1-2.3l0.1,0.1
		c1.2,0.1,1.4,0.5,0.8,1.6C67,183.9,67,184.6,66.5,185.2z"/>
	<path class="st0" d="M86.2,99.2c0.5,0.2,1.6,0.2,0.3,1c-0.2,0.1-0.2,0.2-0.2,0.4c0,0.3,0.2,0.8-0.3,0.8c-0.3,0-0.7-0.2-0.8-0.5
		c-0.1-0.3-0.2-0.8,0.2-1C85.6,99.6,86.1,99.6,86.2,99.2L86.2,99.2z"/>
	<path class="st0" d="M84.8,163.8c-0.2-0.2-0.3-0.4-0.5-0.5c-0.2-1,0.8-1.2,1.2-1.6c0.1-0.1,0.4-0.1,0.5,0.1c0.2,0.2,0,0.4-0.1,0.5
		C85.6,162.8,85.2,163.4,84.8,163.8z"/>
	<path class="st0" d="M66,230.4c0.1,0.4,0.9,0.7,0.5,1.2c-0.2,0.3-0.5,0.2-0.9,0c-0.2-0.1-0.5,0.4-0.7-0.2c-0.1-0.5,0.1-0.8,0.5-0.8
		C65.8,230.5,65.9,230.4,66,230.4S66,230.4,66,230.4z"/>
	<path class="st0" d="M90.3,108.7c-0.3,0.5-1.2,0.2-1.5,1c-0.4-0.7-0.1-1.2,0.2-1.6C89.4,108.5,90.3,107.9,90.3,108.7L90.3,108.7z"
		/>
</g>
<path class="st0" d="M211.4,121.9c1.3,0.2,2.6,0.4,3.8,0.7c2.6,0.5,5,1.3,7.4,2.4c2.8,1.3,5.7,2.6,8.4,4.2c0.8,0.5,1.5,1.2,1.1,2.2
	c-0.3,1-1.2,1-2.2,1c-1.8-0.1-3.4-0.7-4.9-1.5c-2.5-1.2-4.9-2.5-7.5-3.5c-0.8-0.3-1.7-0.6-2.5-0.8c-0.2,0.2-0.1,0.2,0,0.3
	c5.8,4.1,10.7,9.2,15.2,14.6c6.6,7.9,11.9,16.6,16.6,25.8c1.7,3.4,3.4,6.7,4.4,10.4c0.7,2.5,1.4,5,1.5,7.5c0,0.7,0.1,1.7-0.4,1.9
	c-0.6,0.2-0.8-0.8-1.2-1.3c-2.2-3.6-3.6-7.5-5.4-11.3c-6.6-13.8-14.3-26.8-25-37.9c-2.3-2.4-4.6-4.7-7-6.9c-0.3-0.3-0.5-0.7-0.9-0.6
	c-0.4,0.2-0.2,0.7-0.2,1c-0.1,3.6-0.1,7.2-0.9,10.7c-0.1,0.2-0.1,0.4-0.2,0.7c-0.2,1-0.6,1.9-1.8,1.7c-1.2-0.2-1.2-1.3-1.1-2.2
	c0.4-3.8,0.1-7.7,0.2-11.5c0-1.4,0-2.8-0.3-4.2c-0.3-1.6,0.1-2.7,1.5-3.4C210.6,121.9,211,121.9,211.4,121.9z"/>
</svg>
