<?xml version="1.0" encoding="utf-8"?>
<!-- Generator: Adobe Illustrator 22.0.1, SVG Export Plug-In . SVG Version: 6.00 Build 0)  -->
<svg version="1.1" id="Layer_1" xmlns="http://www.w3.org/2000/svg" xmlns:xlink="http://www.w3.org/1999/xlink" x="0px" y="0px"
	 viewBox="0 0 283.5 283.5" style="enable-background:new 0 0 283.5 283.5;" xml:space="preserve">
<style type="text/css">
	.st0{fill:#4E5D44;}
</style>
<g>
	<path class="st0" d="M164.8,161.5c1.2,1.2,2.3,2.3,4,2.7c0.1,0,0.2,0,0.2,0c1.6,0.7,1.7,0.7,2.9-0.5c1.8-1.8,3.2-4,4.8-6.1
		c0.7-1,0.6-2.7,0.8-4c0.6-2.8,1.9-5.4,2.9-8.1c1.6-4.4,3.8-8.6,6.3-12.7c0.6-1,1.3-1.8,1.8-2.8c0.8-1.6,2.3-1.1,3.4-0.6
		c3.1,1.3,5.4-0.1,8-1.3c1.8-0.8,2.8-1.1,4.2,0.7c0.7,1,1.6,1.8,1.7,3.5c1.1-1.3,2.3-1.2,3.5-1c2.8,0.5,4.4,2.4,4.2,5.3
		c-0.1,1.8-0.8,3.4-1.3,5.1c-0.1,0.3-0.2,0.7-0.1,1.1c0.8,1.7-0.1,3.3-0.8,4.8c-1.8,3.4-4.8,5.9-8,8c-2.1,1.3-4.3,2.7-6.4,4.2
		c-1.3,1-3.1,1.7-4.8,2.1c-1.9,0.3-3.8,1.1-5.6,1.9c-1.1,0.5-2.3,0.5-3.4,0.7c-0.8,0.1-0.8-0.6-1.3-0.8c-2.2,2.3-4.5,4.7-6.6,7.2
		c-0.5,0.6-0.8,1.2-1.6,1.6c-0.5,0.2,0.2,1.2-0.1,1.1c-1.2-0.3-1.1,1-1.7,1.2s-0.6,0.8-1.1,1.1c-0.6,0.6-1.2,1.1-0.7,2.1
		c0.3,0.6,0.2,1.5,1.1,1.9c0.8,0.3,1,2.6,0.6,3.4c-1.1,2.3-2.6,4.4-3.7,6.8c-0.3,0.6,0,0.7,0.3,1c1.2,1,2.4,1.9,3.8,2.9
		c0.7,0.5,1,1.2,1.3,1.8c0.1,0.2,0.2,0.7-0.2,0.8c-0.3,0.1-0.7,0.5-1,0c-1.1-2.1-3.3-2.8-4.7-4.3c-1-1-1.8-0.5-2.4,0.3
		c-1.3,1.7-3.1,2.3-5,2.4c-0.8,0-1.8,0.1-2.7,0.1c-1.9-0.1-3.7,0.7-5.5,1.1c-1.2,0.2-2.4,0.8-3.7,1.3c1.3,0.3,2.4,1,3.7,1.5
		c3.7,1.1,7.1,3.2,10.9,3.8c2.9,0.5,5.9,1.7,9.1,1.1c0.8-0.1,1.3-1,1.9-1c1.2-0.1,0.7-1,1-1.6c0.5-1.3,1-2.7,1.3-4
		c0.8-3.1,0.8-6.1,1.2-9.2c0.3-3.3-0.3-6.4-1.5-9.5c-0.3-0.8-0.6-1.8-1.6-2.3c-0.7-0.3-0.5-1-0.1-1.3c0.5-0.6,0.7,0.1,1,0.3
		c1.6,1.7,2.1,4,2.8,6.3c1.2,3.5,1.2,7.4,0.5,10.9c-0.3,2.3-0.2,5-1.7,7.2c-0.5,0.7-0.2,1.7-0.5,2.6c-1.1,3.9-2.7,4.7-6.4,4
		c-2.8-0.5-5.6-1.1-8.4-1.9c-4.2-1.3-8.4-2.6-12.3-4.4c-4-1.9-8.2-2.2-12.5-1.5c-4.4,0.8-8.8,1.5-13.3,0.8c0.2,2.6,1.2,4.7,1.1,7
		c0,0.8,0.8,1.7,0.1,2.7c-0.1,0.1,0.1,0.5,0.6,0.5c0.2,0,0.6-0.1,0.8,0c0.6,0.2,1.6,0,1.5,1.2c-0.1,1.2-1,0.6-1.7,0.5
		c-0.1,0-0.2,0-0.5,0.1c0.5,1,0.5,1.9,1.2,2.9c0.7,1.1-0.1,1.8-1,2.4c-0.5,0.3-1.1,0.6-1.7,1c-0.3,0.2-0.5,0.7-0.2,1.1
		c0.2,0.5,0.6,0.1,0.8,0c5-2.6,10.6-3.4,15.9-4.7c2.8-0.6,5.5-1.3,8.4-1.5c5-0.1,10,0,14.6,2.3c0.6,0.2,1.2,0.5,1.8,0.8
		c0.5,0.2,0.8,0.5,1.5,0c0.7-0.5,1.5-0.6,2.4-0.2c-0.6-2.2,0.2-4.4-1-6.4c0.1-0.1,0.6-0.1,0.8-0.6c0.1-0.2,0.2-1,0.8-0.7
		c0.5,0.2,0.6,0.7,0.5,1.2c-0.2,1.9-0.1,3.9-0.1,5.9c0,1.3,0.2,2.6,1.1,3.8c1.6,2.3,2.1,5,2.7,7.7c0.7,3.8,1.2,7.6,2.2,11.3
		c0.2,1.1,0.6,2.2,0.2,3.4c-0.3,1,0.5,2.1,0.6,3.1c0.2,1,0,1.9-0.3,2.8c-0.1,0.5-0.5,0.6-0.8,0.6c-0.6-0.1-0.3-0.5-0.3-0.8
		c0.5-2.4-0.5-4.8-0.6-7.1c-0.1-2.7-0.7-5.5-1.3-8.1c-0.8-4-1.3-8.2-3.4-11.8c-1.3,0.8-3.2,0.3-4.3-1.3c-0.6-1-1.5-1.3-2.4-1.7
		c-2.4-0.8-4.8-1.8-7.4-2.3c-3.1-0.5-6-0.5-9.1-0.1c-5.3,0.7-10.3,2.4-15.6,3.2c-1.6,0.2-3.2,1-4.4,2.1c-0.3,0.2-0.7,0.2-1.1,0.3
		c-1.3,0.3-2.7,0.8-3.7,1.8c-0.7,0.7-1.9,0.7-2.8,1.1c-2.2,0.8-4.5,0.6-6.8,0.1c-0.7-0.1-1.5-0.3-2.2-0.7c-1.1-0.3-1.5-1.2-1.5-2.1
		c0-1.1,0.3-2.3,1.6-2.8c1.7-0.6,3.3-1.2,5-1.9c-1.6-1.1-2.4-2.8-3.7-4.2c-0.6-0.7,0-1.7,1.2-1.8c2.4-0.2,4.8-0.1,7.1,0.2
		c0.5,0.1,0.8,0.2,1.3,0.2c1.1,0,1.6-0.1,1.5-1.6c-0.1-1.3-0.1-2.8-0.1-4.2c0-0.3,0-0.7,0-1c-0.3-2.9-0.6-3.2-3.7-3.7
		c-1.6-0.2-3.3-0.1-5-0.3c-2.8-0.3-3.9-1.8-3.3-4.5c0.6-2.8,1.2-4.4,2.7-6.1c-1.1-0.3-2.3-0.2-3.3-1.1s-1.2-1.6-0.3-2.6
		c0.2-0.2,0.3-0.2,0.2-0.7c-0.1-0.7,0.5-1.2,1.2-1.3c-1.5-1.5-1-3.7,0.3-4.7c1.5-1,2.8-1.8,4.7-1.6c0.5,0.1,1,0,1.3-0.6
		c-1.3-0.3-2.4-1-3.1-2.3c-0.5-1.1-0.1-1.9,1-2.2c1.1-0.1,1.8-0.6,2.7-1.5c2.3-2.3,4.4-4.8,7-6.9c1.7-1.5,3.8-1.9,5.8-2.9
		c0.5-0.2,0.8-0.2,1.1,0.5c0.1,0.2,0.3,0.6,0.6,0.8c1.7,0.8,2.4,2.8,4,3.9c0.6,0.5,1.3,0.8,1.9,1.2c2.4,1.3,4.9,2.8,7.6,3.7
		c0.5,0.2,1,0.1,1.2-0.1c2.3-1.6,4.7-3.3,7-5c0.6-0.3,1-1.1,1.3-1.6c-2.7-0.2-5.5-0.6-8.4-0.3c-2.6,0.2-5.1-0.5-7.6-1.1
		c-1.7-0.3-3.4-1.2-5.3,0.1c-0.2-1.6-0.3-2.9-1.1-4.3c2.4,0.2,1.5-1.6,1.8-2.6c0.2-0.8-0.5-1.9,0.3-2.8c0.2-0.2-0.1-0.5-0.3-0.5
		c-1.8-0.7-2.6-2.6-3.7-3.9c-0.8-1.1-1.9-2.2-3.1-3.1c-1-0.8-1.8-1.8-1.6-3.3c0.1-1.1,0-1.9-1.5-2.4c-2.6-1-4.3-3.1-5.9-5.1
		c-1.7-2.4-1.7-6.3,0-8.6c1.2-1.6,2.9-1.3,4.5-1.1c0.8,0.1,1.6,0.5,2.4,0.2c-0.7-2.4-0.7-5-0.7-7.6c0-2.4,0.8-4.9,0.2-7.4
		c-0.1-0.6,0.6-1.3,0.6-2.2c0.1-2.7,0.6-5.4,0.5-8.2c0-0.3,0.1-0.7,0.3-1.1c0.2-0.2,0.3-0.6,0.1-0.8c-1.6-1.7-2.4-4.3-5.1-4.8
		c-5.8-1.1-10-4.4-13.4-9.2c-2.9-4-2.6-8.5-1.8-12.8c0.3-2.7,1-5.4,2.4-7.9c0.6-1-0.1-1.2-0.8-1.5c-1.6-0.5-3.3-0.8-4.8-1.8
		c-2.2-1.5-3.9-3.3-3.7-6c0.2-4,1.3-8,3.2-11.6c1-1.9,2.6-3.3,3.7-5c1.1-1.6,2.3-3.1,3.7-4.3c1.7-1.6,3.5-3.3,5.6-4.4
		c1.6-0.8,3.3-1.5,5-2.3c1.9-1,3.8-2.2,5.4-3.7c1-0.8,2.3-1.2,3.1-2.3c0.1-0.2,0.3-0.5,0.5-0.8c0.3-0.8,1-1.6,2.2-1.5
		c1.2,0.1,2.6,0,3.8,0.1c1.6,0.1,3.3,0.3,4.3,1.9c0.8,1.3,1.9,2.7,2.7,4c0.3,0.7,0.7,0.3,1.1,0.2c1.8-1,3.1-2.6,4.4-4
		c2.8-3.1,6.3-5.4,9.7-7.7c1.7-1.2,3.8-1.5,6.1-1.3c1.5,0.1,2.7,0.3,3.8,1.2c1.5,1.2,2.4,2.8,3.3,4.5c0.8,1.9,0.6,4.3,1.7,6
		c1.8,3.1,4,5.6,7.9,6.3c0.5,0.1,1.1,0.2,1.5,0.5c2.7,1.8,5.5,3.4,7.7,5.8c1,1,1.5,2.4,2.4,3.4c1.9,1.9,2.9,4.5,4.5,6.8
		c1.9,2.7,3.4,5.5,4.3,8.8c0.2,1.1,0.2,2.2,0.7,3.3c0.3,0.7-0.1,1.3-0.3,1.9c-0.5,1.1,0.1,2.3-0.3,3.5c-1.1,3.1-3.3,4.9-6,6.5
		c-3.1,1.8-6.5,3.2-9.6,5c-0.5,0.2-0.1,1.9-1.7,0.5c0.3,1.8,1.5,2.7,2.2,3.8c1.1,1.6,1,2.3-0.5,3.5c-1.1,1-2.3,1.9-3.2,3.1
		c-1.5,2.2-3.9,2.6-6.1,3.3c-1.7,0.5-3.7,1-5.4,0.7c-1.2-0.1-2.3-0.1-3.4-0.1c-1.3,0-3.1,0-4.2,0.8c-0.7,0.6-0.8,1.8-0.8,2.8
		c0,4.3,0.1,8.5,0.2,12.8c0,0.7-0.1,1.6-0.1,2.3c-0.5,0.1-0.6-0.1-0.6-0.3c-0.7-2.7-2.3-4.9-2.6-8c-0.2-2.2,0.1-4.3-0.3-6.5
		c-0.5-1.6,0.6-3.2,0.6-4.8c0-0.7,1.2-1,1.8-1.2c2.7-0.8,5.4-1.7,8.5-1.1c4,0.8,7.5-1,10.7-3.2c1.2-0.8,2.9-1.2,3.4-2.9
		c0.1-0.5,0.2-0.6-0.2-0.8c-0.8-0.6-1.7-1.3-2.7-1.9c-0.5-0.2-0.3-0.7-0.7-1.1c-1,0.8-1.3,2.2-1.9,3.3c-1.2,1.8-2.8,2.6-4.8,2.7
		c-0.8,0.1-1.5-0.3-1.9-1.1c3.3-0.2,5.5-2.2,7-4.8c0.7-1.1,1.6-1.6,2.7-2.1c4.4-1.7,8.7-3.7,12.7-6c2.3-1.3,4.3-3.2,5.3-5.9
		c0.7-1.7,0.5-3.4,0.3-5.1c-0.1-3.4-1.2-6.6-3.7-9.2c-1.6-1.6-2.6-3.8-3.9-5.6c-1.6-2.1-2.4-4.7-4.5-6.3c-2.3-1.8-4.7-3.8-7.2-5.3
		c-0.1,0-0.2-0.1-0.2-0.1c-2.2,0.2-3.8-0.8-5.6-2.2c-1.9-1.6-3.3-3.4-4-5.6c-0.7-1.9-1.1-3.9-1.8-5.9c-1-2.8-3.8-4.2-6.8-3.5
		c-2.2,0.3-3.9,1.5-5.6,2.6c-1.6,1-2.8,2.7-4.3,3.9c-1.7,1.3-3.2,2.9-4.9,4.4c-1.2,1.1-2.7,1.9-3.9,3.1c-1,0.8-1.7,0.2-2.6,0
		c-0.8-0.2-0.7-0.8-0.7-1.5c0.1-2.2-0.8-3.9-2.3-5.4c-1.2-1.2-4.3-1.2-6,0c-0.9,0.9-1.9,1.8-2.9,2.8c-0.8,0.8-2.1,1.5-3.2,2.2
		c-3.4,2.1-7.4,3.3-10.6,5.9c-3.3,2.7-6.5,5.5-8.8,9.2c-0.6,1-1.6,1.9-2.3,2.9c-2.4,3.5-2.8,7.5-2.1,11.7c0.5,2.4,2.7,4.7,5,4.7
		c1.5,0,2.7,0.6,4.2,0.6c0.6,0,1.5,1.6,1.1,2.2c-1.5,2.2-2.4,4.5-3.1,7.1c-0.8,4.2-2.3,8.7,0.3,12.8c2.9,4.4,6.6,7.9,12.2,9
		c1.6,0.3,2.8,1.2,4.2,1.9c0.7,0.3,1.1,1.2,1.2,2.1c0.8,4,1.1,8.1,0.6,12.3c-0.1,1-0.2,1.3,1.1,1c3.4-0.8,6.6-2.3,10.1-3.1
		c1.6-0.3,3.3-0.8,4.9-0.6c1.9,0.2,3.9-0.2,5.8-0.3c4.8-0.2,8.8,1.2,12.5,4.2c1.2,1,2.6,1.6,3.9,2.3c1.8,1.1,3.4,2.6,4.7,4.4
		c0.6,0.8,0.6,1.9,0.7,2.9c0,0.6,0,1.5-1.1,1.6c-0.6,0.1-0.7,0.7-0.5,1.3c0.2,0.5,0.3,1.1,1.1,0.6c0.5-0.2,1-0.2,1.6-0.3
		c1.6-0.2,2.9,0.7,3.3,2.3c0.1,0.8,0.3,1.7,0.6,2.6c0.6,1.7-0.3,3.3-0.8,4.8c-0.5,1.6-1.5,2.9-2.2,4.4c-0.2,0.5-0.6,1.1-1.1,1.3
		c-2.9,1.6-3.9,4.7-5.4,7.2c-1.2,2.1-2.7,3.9-4.8,5.3c-2.2,1.5-4.3,2.9-6.5,4.5c-1.1,0.7-1,3.5,0.1,3.8c0.8,0.1,1.9,1,2.8,0
		c1.1-1.2,2.6-1.7,4-2.1c2.2-0.6,3.8-1.8,5.3-3.5c1.2-1.3,3.2-1.8,4-3.5c0.1-0.1,0.8,0,1.3,0c-0.1,0.6,0.6,1.5,0,1.9
		c-1.7,1.3-2.8,3.4-5,4.3c-0.2,0.1-0.6,0.3-0.8,0.6c-1,1.6-2.6,2.6-3.9,3.8c-0.5,0.3-1.1,0.7-1.7,0.8c-1.1,0.5-1.1,0.3-0.8,1.6
		c0.1,0.5-0.2,0.5-0.5,0.6c-0.5,0.1-0.8,0.1-1.3,0.1c-0.3,0-0.6,0-0.6,0.5c0,0.3,0.1,0.5,0.6,0.5c0.6-0.1,1,0.2,1.1,0.7
		c0.1,0.5-0.2,0.8-0.6,1.2c-4.4,3.4-8.2,7.4-12.3,11.3c-0.7,0.7-2.3,0.5-3.3-0.3c-3.5-3.1-6.9-6.4-10.9-8.7
		c-1.5-0.8-2.7-1.9-3.5-3.4c-0.3-0.6-0.7-0.7-1.5-0.3c-1.9,0.8-3.3,2.4-4.8,3.8c-1.5,1.3-2.7,2.8-4.2,4.4c2.2,0.3,4.3,0.8,6.5,1.1
		c0.6,0.1,1.1-0.1,0.7-1c-0.1-0.3-0.2-0.7-0.1-1.1c0.1-0.2,0.2-0.5,0.5-0.5c0.2-0.1,0.3,0.2,0.5,0.3c0.8,0.8,1.1,2.1,1.7,2.9
		c1,1.5,2.4,2.2,3.5,3.7c1.6,2.3,3.1,4.5,3.9,7.2c0.2,0.8,1,0.6,1.5,0.3c2.9-1.6,6.3-1,9.5-1.3c3.1-0.3,5.9-1.1,8.1-3.4
		c1.8-1.8,3.8-3.2,6.3-4.3c1.7-0.7,2.7-2.7,4.2-3.8c1.3-1,1.9-2.4,2.9-3.8c0.5-0.7,0.6-1.3-0.3-1.8c-1.2-0.7-2.6-1.2-3.7-2.3
		C164.7,163,164.6,162.3,164.8,161.5z M136.1,112.4L136.1,112.4c-0.1-1.2,1-1.6,1.7-2.4c-3.1,0.2-6,3.1-6.5,6
		c-0.1,0.5,0.1,1.3-0.6,1.2c-0.6-0.1-1.6-0.3-1.9-1.2c-0.2-0.6-0.3-1.3,0.2-1.8c1.3-1.2,2.3-2.9,3.8-4c0.5-0.3,1.2-0.8,1.3-1.7
		c-0.8-0.1-1.5,0.3-2.1,0.6c-2.4,0.8-4.2,2.4-4.3,5.1c-0.1,2.1-0.2,4-0.1,6.1c0,1.2,0.1,2.4,1,3.7c0.3-0.7,0.7-1.5,1.1-2.1
		c0.1-0.3,0.3-0.8,0.8-0.5c0.3,0.2,0.1,0.6,0,0.8c-0.8,1.5-2.2,2.8-1.5,4.8c-0.5-0.2-0.7-0.5-1-0.6c-3.4-1.3-6.9-1.6-8.1,2.6
		c-0.5,1.8,0.5,4.4,2.3,5.6s3.7,2.4,5.5,3.7c0.7,0.5,1.1,1,1,1.7c-0.6,2.1,0.3,3.5,2.1,4.5c1.2,0.8,2.3,1.8,3.1,3.1
		c0.6,1,1.5,1.3,2.4,1.7c2.1,0.8,4.3,1.7,6.3,2.9c1.1,0.7,1.8,1.8,2.9,2.6c2.1,1.5,4.4,1.3,6.3-0.3c1.2-1.1,1.8-2.7,3.3-3.5
		c4.9-2.6,9.6-5.3,12.5-10.3c1.5-2.6,2.9-5.1,5.5-6.9c0.1-0.1,0.1-0.2,0.1-0.3c1.1-2.3,1.8-4.7,1.6-7.2c-0.2-3.5-0.1-3.7-3.2-1.7
		c-1.6,1-1.8,0.7-2.9-0.8c-2.2-3.2-3.7-7.1-7-9.6c-1.5-1.1-3.1-2.3-4.4-3.8c-0.5-0.5-1-1-1.6-1.2c-2.7-1.1-5.3-2.2-8.2-2.2
		c-1.3,0-2.8-0.8-3.9,0.3c-0.1,0.1-0.2,0.1-0.3,0c-1.7-0.7-3.4-0.2-4.3,1.2c0.1,0,0.1,0.1,0.2,0.1c0.3,0,0.7-0.7,1,0.1
		c0.2,0.6,0.1,0.7-0.5,1c-0.7,0.2-1.2,1.1-1.8,1.6C137.2,111.7,137.1,112.5,136.1,112.4z M167.1,179.2c-0.7-0.3-1.5,0-1.8,0.5
		c-1.9,2.4-4.4,4.5-6.5,7c-0.7,0.8-1.2,0.5-1.8,0c-1-0.7-0.2-1,0.2-1.3c0.2-0.2,0.6-0.5,0.8-0.8c1.2-1.5,2.9-2.6,3.7-4.4
		c0.2-0.5,0.7-1.1,0.1-1.6c-0.5-0.3-1.1,0-1.6,0.3c-1.1,0.7-2.2,1.5-3.4,2.3c-0.6,0.5-1.5,0.7-1.7,1.5c-0.5,1.2-1.5,1.8-2.3,2.6
		c-0.6,0.6-2.1,0.8-2.9,0.3c-0.6-0.2-1.2-0.3-1.3-0.1c-1.2,1.1-2.8,1-4.2,0.8c-4-0.1-8.1,0.2-12,0.5c-3.4,0.2-6.8,1.8-10.2,2.1
		c-0.6,0-0.7,0.3-0.8,1c-0.1,1-0.5,1.8-0.7,2.8c-0.1,0.3-0.3,1-0.8,0.8c-0.5-0.1-0.7-0.6-0.7-1.1c0-0.2,0.1-0.6,0.1-0.8
		c0-1.3,1.1-2.3,1.1-3.7c0-0.2,0.5-0.6-0.1-0.6c-0.2,0-0.5-0.1-0.5,0.2c-0.1,1.3-1.1,1.3-2.2,1.2c-0.6-0.1-1.2-0.2-1.8-0.3
		c-0.3-0.1-0.7-0.1-0.7,0.3c0.1,2.2-1.2,3.9-1.7,6c-0.3,1.5,0,2.2,1.5,2.3c1.1,0.1,2.2,0.1,3.3,0.1c3.8,0.1,7.5,0.1,11.3-0.1
		c4.4-0.3,8.7-1,13.2-1c3.2,0,6.3-0.3,9.2-1.2c2.9-1,5.9-1.8,9.1-1.8c0.8,0,1.6-0.2,2.2-0.8c2.7-2.4,4.5-5.5,6.8-8.5
		c0.2-0.3,0.5-0.8,0.5-1.5c-0.3,0-0.8-0.1-1,0.1c-0.6,1.5-2.4,1.9-3.2,3.3c-1.1,1.9-3.1,3.1-4.4,4.8c-0.5,0.5-1.1,1.1-1.8,0.5
		c-0.7-0.7-0.7-1.5-0.1-2.3c0.8-1.2,2.1-2.2,3.2-3.2C164.2,183.5,166.4,181.9,167.1,179.2z M131.4,184.6c0.3,0,0.7,0,1.2,0
		c0.3,0,0.7,0,1.2,0c1.5-0.2,1.7-0.6,1-1.9c-0.8-1.9-2.1-3.7-3.5-5.1c-1.6-1.6-3.2-3.3-5.6-3.5c-0.7-0.1-1.5-0.2-2.2-0.2
		c-1.8-0.2-3.5-0.5-5.4-0.7c-0.3,0-0.8,0-1,0.5c-0.1,0.5,0.1,0.8,0.7,1c0.3,0.1,0.8,0.2,1.2,0.3c1.5,0.2,2.9,0.2,4.4,1
		c0.5,0.2,1.1,0.3,1.1,1c0,0.7-0.7,0.7-1.2,0.6c-2.3-0.1-4.5,0.5-6.9,0.7c-1.2,0.1-2.4,0.2-3.4,1c-0.5,0.3-1,0.6-0.8,1.2
		c0.2,0.7,0.8,0.1,1.3,0.2c0.1,0,0.3-0.1,0.6-0.1c3.1-0.3,6.1-1.3,9.3-1.3c0.6,0,1.3,0,1.5,0.7c0.1,1-0.6,1-1.2,1
		c-2.2-0.1-4.4,0.5-6.5,0.8c-1.5,0.2-3.2,0.3-4.2,1.7c-0.1,0.2-0.6,0.2-0.3,0.6c0.1,0.2,0.3,0.3,0.7,0.2c1.6-0.3,3.2-0.5,4.7-1.1
		c2.3-0.8,4.4-1,6.6,0.1c0.6,0.2,1.7,0.7,1.3,1.3c-0.2,0.6-1.3,0.3-2.1,0c-1-0.5-2.1-0.5-3.2-0.2c-3.1,0.7-6,1.9-9.3,1
		c-0.3-0.1-0.7,0.1-0.8,0.3c-0.1,0.5,0.2,0.6,0.6,0.7c1.9,0.7,4.2,1.1,6,0.2c1.7-0.8,3.3-0.6,4.8-0.1c1.2,0.3,2.3,0.2,3.2-0.1
		C127.3,185,129.2,184.5,131.4,184.6z M167.9,177.1c-1.3-0.8-0.5-1.5,0-1.8c0.3-0.2,0.5-0.6,0.7-1c1.2-1.6,2.4-3.2,3.8-4.5
		c2.2-2.3,4.8-4.3,6.6-7c0.6-0.8,1.7-2.1,1.2-3.1c-0.5-1.2,0-2.2,0.3-2.8c1.3-2.4,2.7-4.9,3.8-7.6c1.2-2.9,2.4-5.8,3.8-8.7
		c1.2-2.7,3.2-5,5-7.4c0.5-0.6,1.7-0.8,1.3-1.8c-0.2-0.7-1.3-0.1-1.9-0.3h-0.1c-2.2-0.5-2.6-0.3-3.7,1.5c-0.2,0.5-0.6,0.8-0.8,1.3
		c-2.6,3.7-4.4,7.7-6,11.9c-0.5,1.3,0.2,3.3-1.6,4.2v0.1c0.7,0.7,0,1.5,0,2.2c0,1,0,2.2-1.1,3.1c-0.2,0.2-0.3,0.5-0.1,0.7
		c0.8,1.3,0.1,2.9,0.6,4.4c0.1,0.2-0.1,0.7-0.3,0.7c-1.5,0.3-1.8,1.7-2.6,2.7c-1.1,1.5-3.2,1.5-4,3.3c-0.5,1-0.3,2.3-1.5,2.9
		c-2.2,1.2-3.3,3.4-5,5.1c-0.3,0.5-1.3,0.8-1,1.6C165.9,177.7,166.8,177,167.9,177.1z M154.9,155.9c-1,0.8-1.9,1.1-2.8,1.5
		c-2.8,1.5-7.1,0.8-9.1-1.7c-1.3-1.7-3.4-2.1-4.9-3.4c-0.5-0.5-1.2-0.3-1.5,0.7c-0.3,1.7,0,3.5-0.3,5.3c-0.1,0.6,0.3,1,0.8,1
		c3.1,0.5,6,1.6,9.2,1.6c2.4,0,5,0.1,7.5,0.2c0.7,0,1.5,0.3,1.9-0.3c0.6-1,0.7-1.9-0.1-2.8C155.2,157.5,154.8,157,154.9,155.9z
		 M197.9,132.8c0-0.3-0.2-0.8-0.6-0.7c-0.7,0.3-1.7,0.2-2.3,1.2c-1.2,2.1-2.4,4.2-3.9,6c-0.8,1.1-1.8,2.2-2.2,3.7
		c-0.2,1.1-0.8,1.9-1,3.1c-0.2,1.5-1,2.4-1.8,3.7c-0.2,0.2-0.3,0.7,0.1,0.8c0.3,0.1,0.5-0.2,0.6-0.3c0.7-0.6,0.8-1.5,1.5-2.2
		c1.8-2.4,4.2-4.5,6.4-6.6c0.8-0.8,1.8-1.7,2.2-2.7C197.6,136.8,197.4,134.7,197.9,132.8z M193.8,154.8c0.2,0.2,0.5,0.1,0.6,0.1
		c3.1-1.5,5.8-3.3,8.4-5.6c1.8-1.7,3.8-3.3,5.4-5.3c0.3-0.3,1-0.8,0.6-1.5c-0.3-0.5-1-0.2-1.5-0.2c-1.9,0.1-3.4,1.3-5,2.4
		c-0.5,0.2-1,0.5-1.3,1.1c-1,2.1-2.2,4-3.8,5.6C196.2,152.5,195,153.6,193.8,154.8z M115.2,221.8c1.6,0.2,2.8-0.6,4.2-1.1
		c1.5-0.5,3.2-0.5,3.3-2.7c0-0.3,0.6-0.6,0.2-1c-0.2-0.3-0.7-0.1-1.1,0c-0.5,0-1,0.1-1.5,0.3c-1.1,0.3-2.3,0.6-3.4,0.1
		c-2.3-1-4.3,0-6.4,0.7c-0.7,0.2-0.8,1.1-1,1.7s0.6,0.7,1,1C112.1,221.6,113.7,221.5,115.2,221.8z M203.9,141.3
		c1.9-0.7,3.7-1.9,5.8-0.7c0.3,0.2,0.6,0,0.8-0.3c1.2-1.5,1.5-3.3,1.5-5.1c0-0.2-0.2-0.5-0.3-0.7c-0.7-1.2-1.8-1.5-3.1-1.1
		c-1.3,0.3-2.8,0.8-3.3,2.3C204.7,137.2,204.4,139.2,203.9,141.3z M116.1,210.2c-0.6,0-1.3,0-2.2,0.1c-0.2,0-0.8,0.1-0.5,0.7
		c1.9,2.9,5.4,5.6,9.6,3.5c0.8-0.3,1.3-1.1,1.2-1.9c-0.1-0.7-0.2-1.5-1.3-1.7C120.8,210.6,118.5,210.5,116.1,210.2z M184,159.6
		c1.8-0.1,2.1-1.8,3.3-2.6c3.9-2.3,7.5-5.1,10.4-8.8c0.3-0.5,0.3-0.8,0.2-1.5C192.2,149.9,187.7,154.3,184,159.6z M199.1,136.7
		c0.7-0.6,1.3-1.5,2.4-1.7c1.1-0.2,2.2-0.7,2.4-2.1c0.3-1.6-0.2-3.1-1.5-3.8c-1.3-0.7-2.2,0.2-3.2,0.7c-0.8,0.3-0.7,1-0.6,1.7
		C198.9,133.2,198.2,135,199.1,136.7z M166.1,110.8c0.2,1.5-0.3,1.1-1,0.5c-1.6-1.5-3.4-2.4-5.5-3.2c-0.8-0.2-1.8-0.7-2.8-0.2
		c0.8,1.1,2.3,0.5,2.9,1.1c1,0.8,2.1,1.6,3.2,2.2c2.4,1.3,3.9,3.5,5.5,5.6c0.1,0.2,0.1,0.5,0.6,0.3c0.7-0.3,1.3-1.7,0.8-2.3
		C169,113.3,167.9,111.8,166.1,110.8z M194.9,145.5c0.3,0,0.6,0.1,0.7,0c2.7-1.5,5.6-2.8,6.6-6c0.2-0.7,0.8-1.7,0.1-2.4
		C199,139,197.1,142.2,194.9,145.5z M210.6,143.8c-0.7,1.6-1.9,2.6-2.9,3.8c-3.2,3.3-6.6,6.5-11.1,8.1c-0.5,0.2-0.5,0.7-0.8,1.1
		c0,0,0.1,0.3,0.3,0.3c0.3,0.2,0.8-0.1,1.1-0.2c1.2-1,2.7-1.7,3.8-2.8c0.6-0.6,1.6-1.2,2.6-1.1c0.5,0.1,0.7-0.2,1-0.5
		c1.9-2.2,4.5-4,5.9-6.9C210.8,145,211,144.5,210.6,143.8z M155.3,166.2c-3.2,2.3-6.6,4-10.1,6c-0.6,0.3-0.5,0.8-0.2,1.3
		c0.6,1.2,2.7,1.2,3.4,0.2C150.6,171.1,153.1,168.7,155.3,166.2z M195,157.3c-0.2-0.7-0.8-0.3-1.2-0.1c-1.6,1-3.3,1.8-5.1,2.6
		c-0.2,0.1-0.3,0.2-0.2,0.3c0,0.2,0.2,0.2,0.5,0.2c2.2-0.2,4.2-1.6,6.1-2.6C195,157.7,195,157.6,195,157.3z M139.9,169.6
		c1.3,0.8,2.6,1,3.3,2.1C143.3,170.6,142.3,169.9,139.9,169.6z M169,218.2c-0.3-0.5-0.7-1-1.3-1.1c-0.2-0.1-0.3,0.1-0.2,0.5
		c0.2,0.6,0.7,1,1.3,1.1C168.9,218.7,169,218.4,169,218.2z"/>
	<path class="st0" d="M129.6,74.8c0.6-3.5,0.6-7.1,2.3-10.7c1.7-3.3,3.2-7,3.3-10.9c0-0.7,0.3-1.5,0.7-2.1c0.3-0.6,0.8-0.6,1.5-0.3
		c0.7,0.2,0.3,0.7,0.2,1.1c-0.2,1.8-1.1,3.5-1.7,5.3c-1,3.3-2.6,6.5-3.7,9.8c-1.2,3.8-1.9,7.7-0.7,11.7c0.5,1.7,1.8,2.3,3.5,1.7
		c2.3-0.7,4.2-2.3,6.4-3.2c1.9-0.7,3.1-0.3,4.2,1.3c2.1,3.3,4.9,4.5,8.7,3.9c1.2-0.2,2.6,0,3.8,0c0.3,0,0.7,0.1,0.7,0.6
		c0,0.3-0.3,0.3-0.7,0.3c-2.4,0.1-5,0.6-7.4,0.3c-2.4-0.3-4.7-1.7-6-4.2c-0.8-1.7-1.3-1.8-2.9-1c-1.9,1.1-3.9,2.2-6,2.9
		c-2.8,1.1-5.6-0.2-6-3.7C129.8,77,129.5,75.9,129.6,74.8z"/>
	<path class="st0" d="M193.7,52.2c0.2,1.9-0.2,3.7-1.3,5.3c-0.3,0.5-0.8,1-1.5,1.1c-0.6,0.1-1-0.2-1.2-0.6c-0.3-0.3,0-0.6,0.2-0.8
		c1.9-2.2,2.3-4.8,1.8-7.5c-1-4.8-4-8.4-7.9-11.2c-1.1-0.8-2.4-1.3-3.8-1.9c-0.6-0.2-1.2-0.5-1.9,0c-0.7,0.5-1.3-0.2-1.5-0.8
		c-0.2-0.7,0.2-1.1,1-1.1c0.2,0,0.6-0.1,0.8,0c4.2,1.2,8.1,3.1,10.8,6.9c1.8,2.7,3.7,5.3,4.4,8.6C193.7,50.8,193.8,51.5,193.7,52.2z
		"/>
	<path class="st0" d="M121.5,256.3c-1.5,0.5-2.1,0.2-2.3-1.1c-0.1-0.7-0.2-1.5-0.1-2.2c0.6-4.9,0.2-9.7,0.2-14.6
		c0-3.7,0-7.5-0.2-11.2c0-0.6-0.1-1.3,0.8-1.1c0.7,0.1,0.6,0.6,0.5,1.2c-0.1,1.3,0.1,2.6,0.2,3.9c0.3,5.4-0.1,10.7,0,16.1
		c0,2.2,0,4.4-0.1,6.6C120.4,254.7,120.5,255.5,121.5,256.3z"/>
	<path class="st0" d="M143.6,52.4c0.3,0,1-0.1,1.1,0.5c0.1,0.6-0.5,0.5-0.7,0.7c-1,1.2-1.8,2.6-2.3,4c-0.8,2.3-1.9,4.7-2.2,7.2
		c0,0.3,0,1.2-0.7,1c-0.6-0.1-1.2-0.7-1.1-1.3c0.6-2.6,0.8-5.3,2.1-7.7c0.5-1,1-2.1,1.5-3.1C141.8,52.9,142.5,52.4,143.6,52.4z"/>
	<path class="st0" d="M149,54.9c-0.6-0.2-1.2-0.5-0.6-1.3c0.7-1.1,1.9-1.3,3.1-1.8c0.3-0.1,0.5,0.1,0.5,0.5
		C151.8,53,149.9,54.9,149,54.9z"/>
	<path class="st0" d="M160.8,47.3c0-0.7-0.1-1.6,1.1-1.5c0.8,0.1,1.3,0.8,1.2,1.5c-0.1,0.7-0.7,1.5-1.6,1.5
		C160.7,48.8,160.8,47.9,160.8,47.3z"/>
	<path class="st0" d="M120.5,224.1c-0.7,0.2,0.5,1.5-0.7,1.5c-0.2,0-0.7,0-0.6-0.3c0.2-0.6,0.1-1.6,1-1.7
		C120.4,223.4,120.5,223.7,120.5,224.1z"/>
	<path class="st0" d="M146.4,109.3c-0.3-0.1-0.7-0.1-1,0.1c-1.2,1.1-2.8,1.9-3.4,3.7c-0.5,1.5-1.6,2.6-2.9,3.3
		c-3.4,1.9-5.3,4.9-6.3,8.7c-0.1,0.7-0.1,1.8-1.2,1.6c-1-0.2-0.5-1.3-0.5-2.1c0.2-2.8,2.1-4.9,3.7-7c2.7-3.8,6.3-6.9,10-9.7
		c0.8-0.6,1.6-0.1,2.2,0.3c0.2,0.1,0.5,0.5,0.3,0.8C147,109.7,146.7,109.4,146.4,109.3z"/>
	<path class="st0" d="M136.2,136.7c0.7-0.1,1.5-0.6,2.3-0.2c1.3,0.5,2.6,1.2,3.9,1.7c3.3,1.5,6.8,2.1,10.3,0.6
		c1.1-0.5,1.8-1.3,2.7-1.9c0.5-0.3,1.1-1.2,1.7-0.6c0.6,0.6-0.3,1.1-0.5,1.6c-0.6,2.2-2.6,2.8-4.4,3.4c-1.7,0.5-3.4,0.1-5.3,0
		c-2.9-0.2-5.9-0.8-8.4-2.7c-0.5-0.3-1.2-0.6-1.8-0.8C136.6,137.6,136.4,137.3,136.2,136.7z"/>
	<path class="st0" d="M146.2,131.3c-0.1,0.2-0.2,0.3-0.2,0.5c-0.1,0.8-0.3,1.6-1.2,1.7c-0.8,0.2-1.2-0.6-1.7-1.1
		c-0.8-0.8-1.3-1.7-1.3-2.9c0-0.2,0-0.6,0.2-0.7c0.3-0.1,0.5,0.2,0.6,0.5c0.1,0.2,0.3,0.5,0.5,0.7c0.2,0.5,0.5,1.1,1,1.1
		c0.6,0,0.5-0.7,0.5-1.2c0.2-1.2,1.1-0.5,1.6-0.2c1.9,0.8,1.9,0.8,2.1-1.3c0.1-1.8,0.2-3.5,0.2-5.4c0-0.7,0.2-1.1,1.1-1.1
		c0.6,0.1,1.1,0.1,1,1.2c-0.2,2.6-0.2,5.3-0.3,8c0,1.1-1.1,1.6-1.8,2.1c-0.6,0.5-1.1-0.5-1.5-0.8
		C146.7,131.9,146.4,131.5,146.2,131.3z"/>
	<path class="st0" d="M154.9,118.9c0.6-0.1,1.3-0.6,1.9-1c0.3-0.2,0.7-0.5,1,0c0.2,0.5-0.3,0.5-0.5,0.7c-0.1,0.1-0.2,0.2-0.3,0.2
		c-0.6,0.1-1,0.3-0.8,1c0.1,0.6,0.7,1,1.3,1s1.2,0,1.8,0.2c0.3,0.1,0.5,0.3,0.5,0.6c0,0.3-0.3,0.2-0.6,0.2c-1.3,0.2-2.6,1.1-3.7,1.8
		c-0.8,0.6-1.6,0.5-2.4,0c-0.6-0.3-0.3-1,0.1-1.1c0.7-0.1,0.7-0.3,0.5-0.8c-0.2-0.8,1-1.5,0.1-2.6
		C153.6,118.8,154.3,118.8,154.9,118.9z"/>
	<path class="st0" d="M146.7,146.7c1.2,0.5,1.9-0.1,2.8,0c0.5,0.1,1,0.1,1,0.6s-0.5,0.5-0.7,0.6c-1.3,0.5-2.7,0.7-3.8-0.3
		c-0.5-0.3-1.6,0.1-1.6-0.6c0-0.8,1.2-1,1.8-1.3c0.8-0.5,1.8,0,2.7-0.1c0.2,0,0.5,0.1,0.5,0.3c0,0.2-0.2,0.5-0.5,0.5
		C148.3,146.5,147.6,146.6,146.7,146.7z"/>
	<path class="st0" d="M141.7,121.6c-0.3,0-0.7,0-1,0c-0.7-0.1-1.6-0.2-1.8-1c-0.3-1,0.7-1,1.2-1.3c0.6-0.6,2.9,0,3.4,0.7
		C143.9,121,143.3,121.5,141.7,121.6z"/>
	<path class="st0" d="M136.1,112.4c0.2,0.8-0.6,1.2-1.1,1.8c-1.2,1.8-1.9,3.9-3.2,5.9c-0.2,0.3-0.2,0.8-0.8,0.8
		c-0.1,0-0.3-0.2-0.5-0.5c-0.2-0.6,0.5-0.6,0.6-1c0.6-1.1,1.3-2.2,1.8-3.4s1.7-2.1,2.1-3.4C135.1,112.4,135.7,112.4,136.1,112.4
		L136.1,112.4z"/>
</g>
<g>
	<path class="st0" d="M25.5,94.9c-0.1-0.3-0.3-0.5-0.4-0.8c0.1,0.6-0.2,1.1-0.4,1.5c-0.9-0.1-0.8-0.8-0.9-1.6
		c-0.1-0.7-0.3-1.5-0.8-2c-1-1.3-1.3-2.8-1.9-4.3c-0.5-1.2-0.9-2.6-1.7-3.6s-0.7-2.3-1.5-3.2c-0.7-1.1-0.8-2.5-1.4-3.5
		c-1-1.6-1.6-3.3-2.4-5c-0.8-1.7-1.7-3.4-2.7-5c-1-1.7-1.8-3.5-2.6-5.3c-0.2-0.5-0.4-1.1,0.5-1.2c2.1-0.1,4-1.4,6.2-1.7
		c2-0.3,3.9-1.2,6-1.2c0.4,0,0.8-0.3,1.2-0.4c0.5-0.2,0.9-0.3,1.6-0.2c0.7,0.2,1.4-0.4,2.1-0.6c1.9-0.4,3.9-0.8,5.8-1
		c1.4-0.2,2.6-0.7,4-0.7c2.3-0.2,4.5-0.9,6.8-0.8c0.1,0,0.1,0.1,0.2,0c0.4-0.2,0.9-0.6,1.2-0.3c0.3,0.4,0.2,1.1,0.1,1.6
		c0,1.5-0.9,2.6-1.5,3.9c-0.4,1-1,1.9-1.6,2.8c-0.4,0.6-0.1,0.9,0.3,1c2.3,1,4.4,2.3,6.7,3.2c1.6,0.6,3.3,1.4,5,2
		c1,0.4,2.1,0.5,2.9,1.3c0.5,0.5,1.2,0.3,1.8,0.5c2.1,0.7,4,1.7,6,2.6c1.2,0.5,2.3,1.2,3.5,1.6c1.9,0.7,3.8,1.6,5.6,2.5
		c3.4,1.6,6.7,3.2,10.3,4.5c0.4,0.2,0.9,0.1,1.3,0.5c0.4,0.4,1.1,0.4,1.1,1.3c0,0.5,0.3,0.9,0,1.5c-0.3,0.6-0.4,1.4-0.4,2.1
		c-0.1,0.9-0.8,1.3-1.2,2c-0.7,1.4-1.3,2.9-2.1,4.2c-1.4,2.7-2.3,5.7-3.8,8.3c-0.5,1-1,2.1-1.4,3.1c-0.1,0.2,0.2,1.2-0.6,0.5
		c-0.1-0.1-0.2,0.1-0.2,0.2c-0.2,1.1-0.6,0.7-1.1,0.2c-0.1-0.1-0.2-0.1-0.3-0.1c-2.1-0.5-4.1-1.5-6.1-2.3c-2.1-0.8-4.3-1.6-6.3-2.5
		c-2.6-1.3-5.5-2-8.1-3.2c-1.9-0.8-3.8-1.6-5.7-2.4c-2.1-0.8-4.1-1.6-6.2-2.5c-2.3-1.1-4.8-1.7-7-3c-1.3-0.8-2.9-1.2-4.3-1.7
		c-0.1-0.1-0.2-0.1-0.3-0.1c-0.5,0.2-0.9-1.2-1.5-0.2c-0.2,0.5-0.6,1-0.8,1.5c-0.6,1.6-1.6,3.2-2.4,4.7
		C25.9,94.1,25.9,94.6,25.5,94.9z M24.6,93.3c0.2-0.7,0.5-1.4,0.8-1.8c0.6-0.9,1.1-1.8,1.7-2.8c0.7-1.1,1.3-2.2,1.9-3.3
		c0.3-0.6,0.8-0.7,1.4-0.6c0.6,0.2,1.1,0.7,1.7,0.9c2.2,0.7,4,2.1,6,3c1.9,0.8,3.9,1.7,5.8,2.4c1.2,0.5,2.1,1.3,3.4,1.6
		c0.9,0.1,1.4,0.9,2.3,1.1c1.4,0.4,2.6,1,4,1.6c1.6,0.8,3.3,1.5,4.9,2.3c1.2,0.5,2.4,0.8,3.5,1.4c0.6,0.4,1.2,0.8,1.9,0.9
		c0.7,0.1,1.4,0.4,2.1,0.6c1.4,0.5,2.6,1,3.9,1.6c1.6,0.7,3.3,1.1,4.9,1.8c0.5,0.2,0.5,0,0.5-0.2c0-1.6,0.9-2.8,1.6-3.9
		c1.5-2.7,2.4-5.6,3.8-8.4c1.1-2.4,1.8-5,3.3-7.3c0.1-0.2,0.3-0.6,0-0.7c-0.8-0.2-1.4-0.8-2.2-1.1c-0.9-0.4-2-0.6-2.9-1
		c-2.2-1-4.3-2.2-6.4-3.2c-0.9-0.4-1.8-0.9-2.8-1.2c-1.5-0.5-3-1.3-4.4-1.9c-1.1-0.4-2.2-1-3.3-1.4c-1.8-0.7-3.5-1.8-5.4-2.2
		c-1.6-0.2-2.8-1.2-4.4-1.6c-1.1-0.3-2-0.9-3.1-1.3c-1.7-0.7-3.3-1.9-5.1-2.4c-0.4-0.1-0.7-0.2-1-0.5c-0.3-0.4-1.5,0.2-1.3-1
		c-0.7,0.2-1.2-0.7-1.9-0.7s-0.4-0.8-0.4-0.8c0.5-0.1,0.3-0.5,0.4-0.8c0.2-0.5,0-0.9,0.5-1.3c0.5-0.4,0-1.5,1.1-1.6
		c-0.2-1.5,1.4-2.2,1.6-3.6c0-0.3,0.3-0.5,0.2-0.8c-0.2-0.4-0.4-0.1-0.7,0c-2,0.2-4,1-5.9,1.2c-3.7,0.4-7.3,1.4-10.9,2.1
		c-1.5,0.3-2.9,0.7-4.5,0.8c-2.9,0.2-5.6,1-8.3,1.7c-0.7,0.2-1.4,0.7-2.2,0.6c-0.3,0-0.4,0.2-0.3,0.5c0.3,0.7,0.5,1.4,1,2.1
		c1.5,2.3,2.5,4.9,3.7,7.4c1,2.1,1.8,4.3,2.8,6.4c1.5,3,2.9,6,4.1,9.1C22.7,89.1,23.9,91.1,24.6,93.3z M76.1,103.6
		c0.1,0.1,0.2,0,0.3,0.1c0.6-0.5,0.7-1.3,0.6-2.1C76.7,102.2,76.4,102.9,76.1,103.6z"/>
</g>
<g>
	<path class="st0" d="M253.5,65.7c-1.6-1.1-2.2-2.8-3.3-4.1c-0.9-1-1.1-2.5-2.3-3.3c-0.1-0.1-0.1-0.2-0.1-0.2c0.2-0.4,0.2-0.6-0.2-1
		c-0.4-0.4,0.8-2,1.4-2c1,0.2,1.9,0.3,2.9,0.5c1.5,0.2,2.9,0.4,4.4,0.4c1.1,0.1,2.3,0.2,3.4,0.4c0.9,0.1,1.9,0,2.8,0.3
		c1.3,0.5,2.7,0.2,4,0.3c2,0.2,4,0.3,6,0.5c1.8,0.2,3.7,0.2,5.4,0.7c1.1,0.3,2.2,0.5,3.4,0.4c0.6,0,0.8,0.2,0.7,0.7
		c-0.2,1.1-0.3,2.3-0.7,3.4c-0.6,1.9-1.1,3.8-1.8,5.7c-0.5,1.3-0.8,2.6-1.2,3.8c-0.4,1.6-1.6,2.9-1.5,4.7c0,0.6-0.4,1.2-0.8,1.8
		c-0.4,0.7-0.6,1.6-0.8,2.4c-0.2,0.7,0.1,1.5-0.7,1.8c0.1,1.2-1.5,2.1-0.7,3.4c0.1,0.1,0,0.2,0,0.3c-1.5-0.3-0.2,0.6-0.3,0.8
		c-0.2,0.7-0.2,1.4-0.4,2c-0.2,0.5-0.5,1.1-0.5,1.6c-0.1,1-0.7,1.1-1.4,1.3c-0.2,0.1-0.5-0.1-0.5-0.2c-0.1-0.7-0.7-0.9-1-1.3
		c-1.1-1.2-2.2-2.3-2.9-3.8c-0.4-0.9-1.1-2-2.1-2.6c-0.2-0.1-0.3-0.3-0.4-0.6c-0.2-1.1-0.8-0.7-1.4-0.2c-1.1,0.7-2.1,1.5-3.2,2.1
		c-0.4,0.2-1,0.5-1.5,0.7c-1.1,0.5-2,1.2-2.9,1.9c-0.7,0.5-1.5,0.7-2.3,1.1c-1.4,0.8-2.9,1.5-4.2,2.4c-1.6,1.1-3.4,2-5,3.1
		c-1.1,0.7-2.5,1.4-3.8,1.9c-1.3,0.5-2.5,1.4-3.7,2.2c-0.7,0.5-1.5,0.6-2.1,1.1c-0.7,0.6-1.6,1-2.4,1.5c-1.4,0.8-2.8,1.7-4,2.6
		c-0.3,0.2-0.7,0.2-1,0.4c-1.1,0.4-2.2,0.9-2.9,1.7c-0.6,0.7-1.6,0.4-1.9,1c-0.4,1.1-1.7,1-2.2,1.9c-0.2,0.4-0.7,0.2-1.1,0.3
		c-1,0.5-1.7,1.8-3.2,1.4c0,0-0.1,0.2-0.1,0.2c-0.2,0.2-0.3,0.7-0.5,0.5c-0.3-0.3-0.9-0.1-1.1-0.8c-0.3-1.6-1.3-2.8-2.3-4.1
		c-0.4-0.6-0.7-1.2-1-2c-0.2-0.6-0.3-1.1-1-1.5c-0.5-0.2-0.2-1-0.6-1.4c-1.2-2.1-2.4-4.3-3.6-6.4c-0.2-0.3-0.2-0.8-0.7-0.7
		c-0.2,0-0.3-0.2-0.2-0.2c0.5-0.5,0.2-1.7,1.5-1.6c0.2,0,0.6-0.2,0.8-0.3c1.6-1.1,3.6-1.9,5.2-3c1.1-0.8,2.4-1.6,3.8-1.8
		c0.2,0,0.3-0.1,0.4-0.2c1.1-1.4,2.8-1.8,4.2-2.7c0.6-0.4,1.6-0.6,2.3-0.7c0.5-0.2,0.8-0.6,1.1-0.9c0.8-0.7,2-0.8,2.8-1.5
		c1-0.7,2.2-1.1,3.2-1.7c1-0.7,1.8-1.7,3.1-1.9c0.4-0.1,0.3-0.5,0.7-0.6c1.4-0.3,2.5-1.2,3.7-1.9c1.2-0.7,2.7-0.9,3.7-2.1
		c0.2-0.3,0.9-0.2,1.3-0.4c1.6-0.6,2.8-1.8,4.2-2.6c1.1-0.6,2.1-1,3-1.6c0.7-0.5,1.9-0.3,2.1-1.4c0-0.1,0.1-0.1,0.2-0.1
		c1.1,0.2,0.9-0.6,0.9-1.2C252.7,65.9,252.9,65.7,253.5,65.7z M271.1,90.7c0.2-1.3,0.6-2.5,1.1-3.6c0.7-1.6,1.2-3.4,1.9-5.1
		c0.7-1.8,1.4-3.7,2-5.6c0.3-1.1,1-2.3,1.2-3.4c0.2-1.1,0.6-2.1,1-3.2c0.7-1.8,1.3-3.7,1.7-5.6c0.2-0.7,0.4-1.2,0.6-1.9
		c0.2-0.7,0.4-1.4,0.6-2c0.1-0.2,0-0.2-1.9-0.5c-0.1,0-0.2,0-0.2-0.1c-2.3-0.7-4.7-0.8-7.1-1c-2-0.1-4.1-0.3-6-0.7
		c-1.3-0.2-2.7,0-3.9-0.3c-1.2-0.3-2.5-0.2-3.6-0.4c-0.9-0.1-2-0.1-2.9-0.1c-1,0-2-0.2-3-0.1c-1,0.1-1.6-0.4-2.5-0.4
		c-0.2,0-0.6-0.2-0.7,0.2c0.2,0.2,0.6,0.3,0.8,0.5c1.6,1.5,2.6,3.4,3.7,5.2c0.1,0.2,0.2,0.2,0.1,0.4c-0.2,0.6-0.2,0.9,0.2,1.4
		c1.1,1.2,0.7,3.1-0.8,3.6c-0.2,0.1-0.2,0.2-0.4,0.2c-3.4,2.2-6.9,4.2-10.4,6c-4.9,2.5-9.7,5.2-14.4,8c-3.9,2.4-8.1,4.3-12.2,6.5
		c-2.7,1.5-5.5,3-8.2,4.4c-0.5,0.2-0.5,0.5-0.2,0.9c0.3,0.5,0.7,0.9,1.1,1.4c1.3,2.1,2.5,4.3,3.7,6.5c0.8,1.6,1.8,3,2.9,4.3
		c0.5,0.7,1.1,1.3,1.2,2.1c0.1,0.5,0.3,0.2,0.6,0.2c1.6-0.2,2.6-1.5,3.8-2.2c2-1.1,3.9-2.2,6-3.2c0.7-0.3,1.2-1.2,2.2-1.1
		c0,0,0-0.1,0.1-0.1c1.4-1.1,3-1.6,4.4-2.7c0.5-0.4,1.3-0.5,1.7-1c0.9-1,2.3-1.1,3.3-2c0.9-0.7,2-0.7,2.9-1.5c1.4-1.1,3-1.9,4.5-2.9
		c1.8-1.2,3.9-2,5.6-3.4c1.1-0.7,2.3-1.2,3.4-2c0.8-0.6,1.6-1.1,2.3-1.7c1.5-1,2.7-2.2,4.4-2.9c0.1-0.1,0.2-0.2,0.2-0.2
		c0.6-1.1,1.7-1,2.6-1.5c0.2-0.1,0.7,0.1,0.8,0.4c0.2,0.7,0.7,1.1,0.9,1.7c0.3,0.9,1.1,1.5,1.6,2.3c0.2,0.4,0,0.9,0.3,1.3
		C268.9,87.7,269.9,89.2,271.1,90.7z M212.1,104.4c1.1,1.7,1.6,3.6,2.7,5.2c0.1,0.2,0,0.4,0.3,0.3c0.2-0.1,0.3-0.2,0.2-0.5
		c-0.2-0.6-0.2-1.3-0.6-1.6c-0.9-0.9-1.3-2-2-3.1C212.6,104.6,212.5,104.3,212.1,104.4z"/>
</g>
<g>
	<path class="st0" d="M40.9,249.2c-2.1-0.1-4.3-0.5-6.5-1c-6.6-1.6-13.2-3-19.7-5c-2.9-0.8-5.9-1.7-8.8-2.6
		c-0.6-0.2-1.1-0.3-1.7-0.4c-1.7-0.3-2-0.7-1.2-2.5c0.8-1.8,1.7-3.7,2.8-5.4c2.2-3.7,4.2-7.5,6-11.4c2.5-5.4,5.1-10.7,7.5-16.1
		c0.4-0.9,1.2-1.1,2-1.5c0.6-0.2,0.9,0.3,1.1,0.8c0.7,1.3,1.4,2.7,2,4c0.7,1.6,1.3,3.3,2,4.9c0.3,0.9,0.8,1.4,1.9,0.9
		c2-0.8,4.2-1.5,6.2-2.3c1.6-0.6,3.1-1.3,4.7-1.7c2.5-0.6,4.7-1.7,6.9-2.6c1.6-0.7,3.2-1.1,4.8-1.6c8.3-3.1,16.4-6.5,24.6-10
		c2.5-1.1,5.2-2,7.7-3.3c0.7-0.4,0.7,0.1,1,0.7c2.4,5.9,4.9,11.8,6.9,17.8c0.2,0.7,0.5,1.2,0.7,1.8c0.5,0.9,0.2,1.5-0.6,1.9
		c-1.2,0.7-2.3,1.4-3.7,1.6c-1.6,0.3-2.9,1.5-4.5,2.2c-2.6,1.2-5.4,2.1-7.9,3.4c-2.1,1.1-4.3,2.3-6.4,3.3c-3.9,1.8-7.8,3.8-11.9,5.6
		c-1,0.5-1.9,1.1-2.9,1.6c-2.5,1.1-5.2,2.2-7.5,3.6c-2.5,1.5-5.2,2.8-7.9,3.7c-0.7,0.2-1,0.6-0.6,1.3c1.2,2.1,1.6,4.5,2.8,6.6
		C40.9,248,41.2,248.5,40.9,249.2z M39.1,247.1c-0.8-2.5-1.6-4.7-2.5-7c-0.5-1.2-0.5-2.3,1.5-2.9c1.7-0.5,3.5-1,5.2-1.6
		c1.3-0.5,2.3-1.4,3.6-2c1.6-0.7,3.3-1.5,4.9-2.2c0.8-0.4,1.4-1.1,2.3-1.5c2.5-1.1,5-2.1,7.4-3.2c2.9-1.3,5.9-2.7,8.9-4.1
		c2.9-1.3,5.8-2.4,8.5-3.8c3.5-1.9,7.1-3.4,10.6-5.2c1.2-0.7,1.2-0.6,0.7-1.9c-1.2-3.3-2.4-6.6-3.7-9.9c-1.1-2.7-2.1-5.3-3.3-8
		c-3.2,1.2-6.3,2.3-9.3,3.7c-4.3,2-8.7,3.7-13.1,5.5c-2.9,1.2-6,2.3-8.9,3.5c-3,1.2-6.1,2.2-9.1,3.4c-3,1.2-6.1,2.2-9.2,3.1
		c-2,0.6-3.7,1.7-5.6,2.2c-1.5,0.3-1.6,0.4-2.3-0.9c-0.7-1.5-1.2-3.1-1.9-4.7c-0.7-1.8-1.3-3.6-2.7-4.9c-0.4,0.2-0.7,0.5-0.8,0.7
		c-1.2,2-2,4.3-3.1,6.5c-2.8,5.7-5.4,11.6-8.4,17.2c-1.5,2.6-3,5.2-4.4,7.8c-0.7,1.3-0.6,1.4,0.7,2c0.3,0.2,0.7,0.3,1.1,0.4
		c5.2,1.6,10.5,3,15.8,4.3c5.2,1.2,10.3,2.1,15.4,3.5C37.8,247.3,38.4,247.3,39.1,247.1z"/>
</g>
<g>
	<path class="st0" d="M202.7,209.2c2.8-3.6,5.5-7.1,8.1-10.6c1.4-1.9,2.8-3.7,3.9-5.8c0.6-1,1.6-1.8,2.7-2.5
		c0.6-0.3,1.5-0.6,2.2,0.1c0.2,0.2,0.7,0.4,0.9,0.7c3.2,3.3,7,5.8,10.6,8.6c2.9,2.3,5.8,4.6,8.7,6.9c3.4,2.9,6.7,5.9,10.2,8.7
		c2.1,1.7,4.4,3.3,6.6,4.9c2.4-2.2,3-5.8,6.6-6.9c0.6,1.4,1.2,2.9,1.7,4.3c1.4,4.2,2.7,8.4,4,12.6c1.6,5.2,3.4,10.2,4.1,15.6
		c0,0.1,0,0.2,0,0.2c0,0.8,1.1,1.6,0.3,2.4c-0.6,0.6-1.5,0.2-2.3,0.3c-2.2,0.2-4.4,0.2-6.6,0c-1.3-0.2-2.6,0.2-3.9,0.2
		c-3.4,0.2-6.7,0.7-10.1,0.8c-3.4,0.1-6.7,0.5-10.1,0.7c-1.1,0.1-2.2-0.2-3.2,0.5c-0.5,0.3-1-0.1-0.9-0.7c0.1-0.8,0.3-1.5,0.7-2.1
		c1.1-1.6,2.3-3.4,3.4-5c0.4-0.7,0.5-1-0.2-1.6c-1.8-1.6-3.6-3-5.4-4.5c-3-2.5-6-5-8.9-7.5c-3.7-3.1-7.2-6.4-11-9.5
		c-3.1-2.5-6.1-5.3-9.2-7.8C204.7,211.2,203.6,210.1,202.7,209.2z M205.4,209.6c1.1,0.6,1.7,1.8,2.8,2.7c3.3,2.9,6.5,5.8,9.8,8.6
		c3.3,2.7,6.5,5.2,9.9,7.8c0.9,0.7,1.8,1.3,2.6,2c2.9,2.6,6,5.2,9.3,7.4c0.9,0.6,1.8,1.3,2.7,2c0.7,0.6,1,1.2,0.4,2
		c-0.5,0.7-1,1.6-1.5,2.4c-0.9,1.6-1.9,3-2.9,4.7c4,0.2,7.6-0.7,11.4-0.7c3.8-0.2,7.5-0.4,11.3-0.7c3.7-0.2,7.4-0.2,11-0.5
		c-0.2-4.5-8.7-30.2-9.6-32.5c-0.7,0.4-1.1,1-1.4,1.6c-1,1.9-2.2,3.6-3.6,5.2c-0.5,0.6-0.7,0.5-1.2,0.2c-2-1.3-3.9-2.9-5.9-4.3
		c-1.6-1.2-3.4-2.3-4.8-3.7c-2.9-2.8-6-5.6-9.2-8.1c-2.4-1.9-4.7-3.8-7.1-5.8c-0.7-0.6-1.3-1.1-2-1.6c-1.8-1.4-3.8-2.5-5.4-4.2
		c-0.9-1-2-1.7-3.2-2.4C214.4,197.8,209.7,203.4,205.4,209.6z"/>
</g>
</svg>
