<?xml version="1.0" encoding="utf-8"?>
<!-- Generator: Adobe Illustrator 22.0.1, SVG Export Plug-In . SVG Version: 6.00 Build 0)  -->
<svg version="1.1" id="Layer_1" xmlns="http://www.w3.org/2000/svg" xmlns:xlink="http://www.w3.org/1999/xlink" x="0px" y="0px"
	 viewBox="0 0 102.7 217.4" style="enable-background:new 0 0 102.7 217.4;" xml:space="preserve">
<style type="text/css">
	.st0{fill:#4E5D44;}
</style>
<g>
	<path class="st0" d="M55.8,132.1c1,1,1.9,1.9,3.3,2.2c0.1,0,0.2,0,0.2,0c1.3,0.6,1.4,0.6,2.4-0.4c1.5-1.5,2.6-3.3,3.9-5
		c0.6-0.8,0.5-2.2,0.7-3.3c0.5-2.3,1.6-4.4,2.4-6.6c1.3-3.6,3.1-7,5.1-10.3c0.5-0.8,1.1-1.5,1.5-2.3c0.7-1.3,1.9-0.9,2.8-0.5
		c2.5,1.1,4.4-0.1,6.5-1.1c1.5-0.7,2.3-0.9,3.4,0.6c0.6,0.8,1.3,1.5,1.4,2.9c0.9-1.1,1.9-1,2.9-0.8c2.3,0.4,3.6,2,3.4,4.3
		c-0.1,1.5-0.7,2.8-1.1,4.2c-0.1,0.3-0.2,0.6-0.1,0.9c0.7,1.4-0.1,2.7-0.7,3.9c-1.5,2.8-3.9,4.8-6.5,6.5c-1.7,1.1-3.5,2.2-5.2,3.4
		c-1.1,0.8-2.5,1.4-3.9,1.7c-1.6,0.3-3.1,0.9-4.6,1.6c-0.9,0.4-1.9,0.4-2.8,0.6c-0.7,0.1-0.7-0.5-1.1-0.7c-1.8,1.9-3.7,3.8-5.4,5.9
		c-0.4,0.5-0.7,1-1.3,1.3c-0.4,0.2,0.2,1-0.1,0.9c-1-0.3-0.9,0.8-1.4,1s-0.5,0.7-0.9,0.9c-0.5,0.5-1,0.9-0.6,1.7
		c0.3,0.5,0.2,1.2,0.9,1.6c0.7,0.3,0.8,2.1,0.5,2.8c-0.9,1.9-2.1,3.6-3,5.5c-0.3,0.5,0,0.6,0.3,0.8c1,0.8,2,1.6,3.1,2.4
		c0.6,0.4,0.8,1,1.1,1.5c0.1,0.2,0.2,0.6-0.2,0.7c-0.3,0.1-0.6,0.4-0.8,0c-0.9-1.7-2.7-2.3-3.8-3.5c-0.8-0.8-1.5-0.4-2,0.3
		c-1.1,1.4-2.5,1.9-4.1,2c-0.7,0-1.5,0.1-2.2,0.1c-1.6-0.1-3,0.6-4.5,0.9c-1,0.2-2,0.7-3,1.1c1.1,0.3,2,0.8,3,1.2
		c3,0.9,5.8,2.6,8.9,3.1c2.4,0.4,4.8,1.4,7.4,0.9c0.7-0.1,1.1-0.8,1.6-0.8c1-0.1,0.6-0.8,0.8-1.3c0.4-1.1,0.8-2.2,1.1-3.3
		c0.7-2.5,0.7-5,1-7.5c0.3-2.7-0.3-5.2-1.2-7.7c-0.3-0.7-0.5-1.5-1.3-1.9c-0.6-0.3-0.4-0.8-0.1-1.1c0.4-0.5,0.6,0.1,0.8,0.3
		c1.3,1.4,1.7,3.3,2.3,5.1c1,2.9,1,6,0.4,8.9c-0.3,1.9-0.2,4.1-1.4,5.9c-0.4,0.6-0.2,1.4-0.4,2.1c-0.9,3.2-2.2,3.8-5.2,3.3
		c-2.3-0.4-4.6-0.9-6.8-1.6c-3.4-1.1-6.8-2.1-10-3.6c-3.3-1.6-6.7-1.8-10.2-1.2c-3.6,0.7-7.2,1.2-10.8,0.7c0.2,2.1,1,3.8,0.9,5.7
		c0,0.7,0.7,1.4,0.1,2.2c-0.1,0.1,0.1,0.4,0.5,0.4c0.2,0,0.5-0.1,0.7,0c0.5,0.2,1.3,0,1.2,1c-0.1,1-0.8,0.5-1.4,0.4
		c-0.1,0-0.2,0-0.4,0.1c0.4,0.8,0.4,1.6,1,2.4c0.6,0.9-0.1,1.5-0.8,2c-0.4,0.3-0.9,0.5-1.4,0.8c-0.3,0.2-0.4,0.6-0.2,0.9
		c0.2,0.4,0.5,0.1,0.7,0c4.1-2.1,8.6-2.8,13-3.8c2.3-0.5,4.5-1.1,6.8-1.2c4.1-0.1,8.1,0,11.9,1.9c0.5,0.2,1,0.4,1.5,0.7
		c0.4,0.2,0.7,0.4,1.2,0c0.6-0.4,1.2-0.5,2-0.2c-0.5-1.8,0.2-3.6-0.8-5.2c0.1-0.1,0.5-0.1,0.7-0.5c0.1-0.2,0.2-0.8,0.7-0.6
		c0.4,0.2,0.5,0.6,0.4,1c-0.2,1.6-0.1,3.2-0.1,4.8c0,1.1,0.2,2.1,0.9,3.1c1.3,1.9,1.7,4.1,2.2,6.3c0.6,3.1,1,6.2,1.8,9.2
		c0.2,0.9,0.5,1.8,0.2,2.8c-0.3,0.8,0.4,1.7,0.5,2.5c0.2,0.8,0,1.6-0.3,2.3c-0.1,0.4-0.4,0.5-0.7,0.5c-0.5-0.1-0.3-0.4-0.3-0.7
		c0.4-2-0.4-3.9-0.5-5.8c-0.1-2.2-0.6-4.5-1.1-6.6c-0.7-3.3-1.1-6.7-2.8-9.6c-1.1,0.7-2.6,0.3-3.5-1.1c-0.5-0.8-1.2-1.1-2-1.4
		c-2-0.7-3.9-1.5-6-1.9c-2.5-0.4-4.9-0.4-7.4-0.1c-4.3,0.6-8.4,2-12.7,2.6c-1.3,0.2-2.6,0.8-3.6,1.7c-0.3,0.2-0.6,0.2-0.9,0.3
		c-1.1,0.3-2.2,0.7-3,1.5c-0.6,0.6-1.6,0.6-2.3,0.9c-1.8,0.7-3.7,0.5-5.5,0.1c-0.6-0.1-1.2-0.3-1.8-0.6c-0.9-0.3-1.2-1-1.2-1.7
		c0-0.9,0.3-1.9,1.3-2.3c1.4-0.5,2.7-1,4.1-1.6c-1.3-0.9-2-2.3-3-3.4c-0.5-0.6,0-1.4,1-1.5c2-0.2,3.9-0.1,5.8,0.2
		c0.4,0.1,0.7,0.2,1.1,0.2c0.9,0,1.3-0.1,1.2-1.3c-0.1-1.1-0.1-2.3-0.1-3.4c0-0.3,0-0.6,0-0.8c-0.3-2.4-0.5-2.6-3-3
		c-1.3-0.2-2.7-0.1-4.1-0.3c-2.3-0.3-3.2-1.5-2.7-3.7c0.5-2.3,1-3.6,2.2-5c-0.9-0.3-1.9-0.2-2.7-0.9c-0.8-0.7-1-1.3-0.3-2.1
		c0.2-0.2,0.3-0.2,0.2-0.6c-0.1-0.6,0.4-1,1-1.1c-1.2-1.2-0.8-3,0.3-3.8c1.2-0.8,2.3-1.5,3.8-1.3c0.4,0.1,0.8,0,1.1-0.5
		c-1.1-0.3-2-0.8-2.5-1.9c-0.4-0.9-0.1-1.6,0.8-1.8c0.9-0.1,1.5-0.5,2.2-1.2c1.9-1.9,3.6-3.9,5.7-5.6c1.4-1.2,3.1-1.6,4.7-2.4
		c0.4-0.2,0.7-0.2,0.9,0.4c0.1,0.2,0.3,0.5,0.5,0.7c1.4,0.7,2,2.3,3.3,3.2c0.5,0.4,1.1,0.7,1.6,1c2,1.1,4,2.3,6.2,3
		c0.4,0.2,0.8,0.1,1-0.1c1.9-1.3,3.8-2.7,5.7-4.1c0.5-0.3,0.8-0.9,1.1-1.3c-2.2-0.2-4.5-0.5-6.8-0.3c-2.1,0.2-4.2-0.4-6.2-0.9
		c-1.4-0.3-2.8-1-4.3,0.1c-0.2-1.3-0.3-2.4-0.9-3.5c2,0.2,1.2-1.3,1.5-2.1c0.2-0.7-0.4-1.6,0.3-2.3c0.2-0.2-0.1-0.4-0.3-0.4
		c-1.5-0.6-2.1-2.1-3-3.2c-0.7-0.9-1.6-1.8-2.5-2.5c-0.8-0.7-1.5-1.5-1.3-2.7c0.1-0.9,0-1.6-1.2-2c-2.1-0.8-3.5-2.5-4.8-4.2
		c-1.4-2-1.4-5.1,0-7c1-1.3,2.4-1.1,3.7-0.9c0.7,0.1,1.3,0.4,2,0.2c-0.6-2-0.6-4.1-0.6-6.2c0-2,0.7-4,0.2-6
		c-0.1-0.5,0.5-1.1,0.5-1.8c0.1-2.2,0.5-4.4,0.4-6.7c0-0.3,0.1-0.6,0.3-0.9c0.2-0.2,0.3-0.5,0.1-0.7c-1.3-1.4-2-3.5-4.2-3.9
		c-4.7-0.9-8.1-3.6-10.9-7.5c-2.4-3.3-2.1-6.9-1.5-10.4c0.3-2.2,0.8-4.4,2-6.4c0.5-0.8-0.1-1-0.7-1.2c-1.3-0.4-2.7-0.7-3.9-1.5
		c-1.8-1.2-3.2-2.7-3-4.9c0.2-3.3,1.1-6.5,2.6-9.4c0.8-1.6,2.1-2.7,3-4.1c0.9-1.3,1.9-2.5,3-3.5c1.4-1.3,2.9-2.7,4.6-3.6
		c1.3-0.7,2.7-1.2,4.1-1.9c1.6-0.8,3.1-1.8,4.4-3c0.8-0.7,1.9-1,2.5-1.9c0.1-0.2,0.3-0.4,0.4-0.7c0.3-0.7,0.8-1.3,1.8-1.2
		c1,0.1,2.1,0,3.1,0.1c1.3,0.1,2.7,0.3,3.5,1.6c0.7,1.1,1.6,2.2,2.2,3.3c0.3,0.6,0.6,0.3,0.9,0.2c1.5-0.8,2.5-2.1,3.6-3.3
		c2.3-2.5,5.1-4.4,7.9-6.3c1.4-1,3.1-1.2,5-1.1c1.2,0.1,2.2,0.3,3.1,1c1.2,1,2,2.3,2.7,3.7c0.7,1.6,0.5,3.5,1.4,4.9
		c1.5,2.5,3.3,4.6,6.4,5.1c0.4,0.1,0.9,0.2,1.2,0.4c2.2,1.5,4.5,2.8,6.3,4.7c0.8,0.8,1.2,2,2,2.8c1.6,1.6,2.4,3.7,3.7,5.5
		c1.6,2.2,2.8,4.5,3.5,7.2c0.2,0.9,0.2,1.8,0.6,2.7c0.3,0.6-0.1,1.1-0.3,1.6C86.5,50,87,51,86.6,52c-0.9,2.5-2.7,4-4.9,5.3
		c-2.5,1.5-5.3,2.6-7.8,4.1c-0.4,0.2-0.1,1.6-1.4,0.4c0.3,1.5,1.2,2.2,1.8,3.1c0.9,1.3,0.8,1.9-0.4,2.9c-0.9,0.8-1.9,1.6-2.6,2.5
		c-1.2,1.8-3.2,2.1-5,2.7c-1.4,0.4-3,0.8-4.4,0.6c-1-0.1-1.9-0.1-2.8-0.1c-1.1,0-2.5,0-3.4,0.7c-0.6,0.5-0.7,1.5-0.7,2.3
		c0,3.5,0.1,6.9,0.2,10.4c0,0.6-0.1,1.3-0.1,1.9c-0.4,0.1-0.5-0.1-0.5-0.3c-0.6-2.2-1.9-4-2.1-6.5c-0.2-1.8,0.1-3.5-0.3-5.3
		c-0.4-1.3,0.5-2.6,0.5-3.9c0-0.6,1-0.8,1.5-1c2.2-0.7,4.4-1.4,6.9-0.9c3.3,0.7,6.1-0.8,8.7-2.6c1-0.7,2.4-1,2.8-2.4
		c0.1-0.4,0.2-0.5-0.2-0.7c-0.7-0.5-1.4-1.1-2.2-1.6c-0.4-0.2-0.3-0.6-0.6-0.9c-0.8,0.7-1.1,1.8-1.6,2.7c-1,1.5-2.3,2.1-3.9,2.2
		c-0.7,0.1-1.2-0.3-1.6-0.9c2.7-0.2,4.5-1.8,5.7-3.9c0.6-0.9,1.3-1.3,2.2-1.7c3.6-1.4,7.1-3,10.3-4.9c1.9-1.1,3.5-2.6,4.3-4.8
		c0.6-1.4,0.4-2.8,0.3-4.2c-0.1-2.8-1-5.4-3-7.5c-1.3-1.3-2.1-3.1-3.2-4.6c-1.3-1.7-2-3.8-3.7-5.1c-1.9-1.5-3.8-3.1-5.9-4.3
		c-0.1,0-0.2-0.1-0.2-0.1c-1.8,0.2-3.1-0.7-4.6-1.8c-1.6-1.3-2.7-2.8-3.3-4.6c-0.6-1.6-0.9-3.2-1.5-4.8c-0.8-2.3-3.1-3.4-5.5-2.9
		c-1.8,0.3-3.2,1.2-4.6,2.1c-1.3,0.8-2.3,2.2-3.5,3.2c-1.4,1.1-2.6,2.4-4,3.6c-1,0.9-2.2,1.6-3.2,2.5c-0.8,0.7-1.4,0.2-2.1,0
		c-0.7-0.2-0.6-0.7-0.6-1.2c0.1-1.8-0.7-3.2-1.9-4.4c-1-1-3.5-1-4.9,0c-0.9,0.7-1.7,1.4-2.5,2.2c-0.7,0.7-1.7,1.2-2.6,1.8
		c-2.8,1.7-6,2.7-8.6,4.8c-2.7,2.2-5.3,4.5-7.2,7.5c-0.5,0.8-1.3,1.6-1.9,2.4c-2,2.9-2.3,6.1-1.7,9.5c0.4,2,2.2,3.8,4.1,3.8
		c1.2,0,2.2,0.5,3.4,0.5c0.5,0,1.2,1.3,0.9,1.8c-1.2,1.8-2,3.7-2.5,5.8c-0.7,3.4-1.9,7.1,0.3,10.4c2.4,3.6,5.4,6.4,9.9,7.3
		c1.3,0.3,2.3,1,3.4,1.6c0.6,0.3,0.9,1,1,1.7c0.7,3.3,0.9,6.6,0.5,10c-0.1,0.8-0.2,1.1,0.9,0.8c2.8-0.7,5.4-1.9,8.2-2.5
		c1.3-0.3,2.7-0.7,4-0.5c1.6,0.2,3.2-0.2,4.7-0.3c3.9-0.2,7.2,1,10.2,3.4c1,0.8,2.1,1.3,3.2,1.9c1.5,0.9,2.8,2.1,3.8,3.6
		c0.5,0.7,0.5,1.6,0.6,2.4c0,0.5,0,1.2-0.9,1.3c-0.5,0.1-0.6,0.6-0.4,1.1c0.2,0.4,0.3,0.9,0.9,0.5c0.4-0.2,0.8-0.2,1.3-0.3
		c1.3-0.2,2.4,0.6,2.7,1.9c0.1,0.7,0.3,1.4,0.5,2.1c0.5,1.4-0.3,2.7-0.7,3.9c-0.4,1.3-1.2,2.4-1.8,3.6c-0.2,0.4-0.5,0.9-0.9,1.1
		c-2.4,1.3-3.2,3.8-4.4,5.9c-1,1.7-2.2,3.2-3.9,4.3c-1.8,1.2-3.5,2.4-5.3,3.7c-0.9,0.6-0.8,2.9,0.1,3.1c0.7,0.1,1.6,0.8,2.3,0
		c0.9-1,2.1-1.4,3.3-1.7c1.8-0.5,3.1-1.5,4.3-2.9c1-1.1,2.6-1.5,3.3-2.9c0.1-0.1,0.7,0,1.1,0c-0.1,0.5,0.5,1.2,0,1.6
		c-1.4,1.1-2.3,2.8-4.1,3.5c-0.2,0.1-0.5,0.3-0.7,0.5c-0.8,1.3-2.1,2.1-3.2,3.1c-0.4,0.3-0.9,0.6-1.4,0.7c-0.9,0.4-0.9,0.3-0.7,1.3
		c0.1,0.4-0.2,0.4-0.4,0.5c-0.4,0.1-0.7,0.1-1.1,0.1c-0.3,0-0.5,0-0.5,0.4c0,0.3,0.1,0.4,0.5,0.4c0.5-0.1,0.8,0.2,0.9,0.6
		c0.1,0.4-0.2,0.7-0.5,1c-3.6,2.8-6.7,6-10,9.2c-0.6,0.6-1.9,0.4-2.7-0.3c-2.9-2.5-5.6-5.2-8.9-7.1c-1.2-0.7-2.2-1.6-2.9-2.8
		c-0.3-0.5-0.6-0.6-1.2-0.3c-1.6,0.7-2.7,2-3.9,3.1c-1.2,1.1-2.2,2.3-3.4,3.6c1.8,0.3,3.5,0.7,5.3,0.9c0.5,0.1,0.9-0.1,0.6-0.8
		c-0.1-0.3-0.2-0.6-0.1-0.9c0.1-0.2,0.2-0.4,0.4-0.4c0.2-0.1,0.3,0.2,0.4,0.3c0.7,0.7,0.9,1.7,1.4,2.4c0.8,1.2,2,1.8,2.9,3
		c1.3,1.9,2.5,3.7,3.2,5.9c0.2,0.7,0.8,0.5,1.2,0.3c2.4-1.3,5.1-0.8,7.7-1.1c2.5-0.3,4.8-0.9,6.6-2.8c1.5-1.5,3.1-2.6,5.1-3.5
		c1.4-0.6,2.2-2.2,3.4-3.1c1.1-0.8,1.6-2,2.4-3.1c0.4-0.6,0.5-1.1-0.3-1.5c-1-0.6-2.1-1-3-1.9C55.7,133.3,55.6,132.8,55.8,132.1z
		 M32.4,92.1L32.4,92.1c-0.1-1,0.8-1.3,1.4-2c-2.5,0.2-4.9,2.5-5.3,4.9c-0.1,0.4,0.1,1.1-0.5,1c-0.5-0.1-1.3-0.3-1.6-1
		c-0.2-0.5-0.3-1.1,0.2-1.5c1.1-1,1.9-2.4,3.1-3.3c0.4-0.3,1-0.7,1.1-1.4c-0.7-0.1-1.2,0.3-1.7,0.5c-2,0.7-3.4,2-3.5,4.2
		c-0.1,1.7-0.2,3.3-0.1,5c0,1,0.1,2,0.8,3c0.3-0.6,0.6-1.2,0.9-1.7c0.1-0.3,0.3-0.7,0.7-0.4c0.3,0.2,0.1,0.5,0,0.7
		c-0.7,1.2-1.8,2.3-1.2,3.9c-0.4-0.2-0.6-0.4-0.8-0.5c-2.8-1.1-5.6-1.3-6.6,2.1c-0.4,1.5,0.4,3.6,1.9,4.6s3,2,4.5,3
		c0.6,0.4,0.9,0.8,0.8,1.4c-0.5,1.7,0.3,2.9,1.7,3.7c1,0.7,1.9,1.5,2.5,2.5c0.5,0.8,1.2,1.1,2,1.4c1.7,0.7,3.5,1.4,5.1,2.4
		c0.9,0.6,1.5,1.5,2.4,2.1c1.7,1.2,3.6,1.1,5.1-0.3c1-0.9,1.5-2.2,2.7-2.9c4-2.1,7.8-4.3,10.2-8.4c1.2-2.1,2.4-4.2,4.5-5.6
		c0.1-0.1,0.1-0.2,0.1-0.3c0.9-1.9,1.5-3.8,1.3-5.9c-0.2-2.9-0.1-3-2.6-1.4c-1.3,0.8-1.5,0.6-2.4-0.7c-1.8-2.6-3-5.8-5.7-7.8
		c-1.2-0.9-2.5-1.9-3.6-3.1c-0.4-0.4-0.8-0.8-1.3-1c-2.2-0.9-4.3-1.8-6.7-1.8c-1.1,0-2.3-0.7-3.2,0.3c-0.1,0.1-0.2,0.1-0.3,0
		c-1.4-0.6-2.8-0.2-3.5,1c0.1,0,0.1,0.1,0.2,0.1c0.3,0,0.6-0.6,0.8,0.1c0.2,0.5,0.1,0.6-0.4,0.8c-0.6,0.2-1,0.9-1.5,1.3
		C33.3,91.5,33.2,92.2,32.4,92.1z M57.6,146.5c-0.6-0.3-1.2,0-1.5,0.4c-1.6,2-3.6,3.7-5.3,5.7c-0.6,0.7-1,0.4-1.5,0
		c-0.8-0.6-0.2-0.8,0.2-1.1c0.2-0.2,0.5-0.4,0.7-0.7c1-1.2,2.4-2.1,3-3.6c0.2-0.4,0.6-0.9,0.1-1.3c-0.4-0.3-0.9,0-1.3,0.3
		c-0.9,0.6-1.8,1.2-2.8,1.9c-0.5,0.4-1.2,0.6-1.4,1.2c-0.4,1-1.2,1.5-1.9,2.1c-0.5,0.5-1.7,0.7-2.4,0.3c-0.5-0.2-1-0.3-1.1-0.1
		c-1,0.9-2.3,0.8-3.4,0.7c-3.3-0.1-6.6,0.2-9.8,0.4c-2.8,0.2-5.5,1.5-8.3,1.7c-0.5,0-0.6,0.3-0.7,0.8c-0.1,0.8-0.4,1.5-0.6,2.3
		c-0.1,0.3-0.3,0.8-0.7,0.7c-0.4-0.1-0.6-0.5-0.6-0.9c0-0.2,0.1-0.5,0.1-0.7c0-1.1,0.9-1.9,0.9-3c0-0.2,0.4-0.5-0.1-0.5
		c-0.2,0-0.4-0.1-0.4,0.2c-0.1,1.1-0.9,1.1-1.8,1c-0.5-0.1-1-0.2-1.5-0.3c-0.3-0.1-0.6-0.1-0.6,0.3c0.1,1.8-1,3.2-1.4,4.9
		c-0.3,1.2,0,1.8,1.2,1.9c0.9,0.1,1.8,0.1,2.7,0.1c3.1,0.1,6.1,0.1,9.2-0.1c3.6-0.3,7.1-0.8,10.7-0.8c2.6,0,5.1-0.3,7.5-1
		c2.4-0.8,4.8-1.5,7.4-1.5c0.7,0,1.3-0.2,1.8-0.7c2.2-2,3.7-4.5,5.5-6.9c0.2-0.3,0.4-0.7,0.4-1.2c-0.3,0-0.7-0.1-0.8,0.1
		c-0.5,1.2-2,1.6-2.6,2.7c-0.9,1.6-2.5,2.5-3.6,3.9c-0.4,0.4-0.9,0.9-1.5,0.4c-0.6-0.6-0.6-1.2-0.1-1.9c0.7-1,1.7-1.8,2.6-2.6
		C55.3,150,57.1,148.7,57.6,146.5z M28.6,150.9c0.3,0,0.6,0,1,0c0.3,0,0.6,0,1,0c1.2-0.2,1.4-0.5,0.8-1.6c-0.7-1.6-1.7-3-2.9-4.2
		c-1.3-1.3-2.6-2.7-4.6-2.9c-0.6-0.1-1.2-0.2-1.8-0.2c-1.5-0.2-2.9-0.4-4.4-0.6c-0.3,0-0.7,0-0.8,0.4c-0.1,0.4,0.1,0.7,0.6,0.8
		c0.3,0.1,0.7,0.2,1,0.3c1.2,0.2,2.4,0.2,3.6,0.8c0.4,0.2,0.9,0.3,0.9,0.8c0,0.6-0.6,0.6-1,0.5c-1.9-0.1-3.7,0.4-5.6,0.6
		c-1,0.1-2,0.2-2.8,0.8c-0.4,0.3-0.8,0.5-0.7,1c0.2,0.6,0.7,0.1,1.1,0.2c0.1,0,0.3-0.1,0.5-0.1c2.5-0.3,5-1.1,7.6-1.1
		c0.5,0,1.1,0,1.2,0.6c0.1,0.8-0.5,0.8-1,0.8c-1.8-0.1-3.6,0.4-5.3,0.7c-1.2,0.2-2.6,0.3-3.4,1.4c-0.1,0.2-0.5,0.2-0.3,0.5
		c0.1,0.2,0.3,0.3,0.6,0.2c1.3-0.3,2.6-0.4,3.8-0.9c1.9-0.7,3.6-0.8,5.4,0.1c0.5,0.2,1.4,0.6,1.1,1.1c-0.2,0.5-1.1,0.3-1.7,0
		c-0.8-0.4-1.7-0.4-2.6-0.2c-2.5,0.6-4.9,1.6-7.6,0.8c-0.3-0.1-0.6,0.1-0.7,0.3c-0.1,0.4,0.2,0.5,0.5,0.6c1.6,0.6,3.4,0.9,4.9,0.2
		c1.4-0.7,2.7-0.5,3.9-0.1c1,0.3,1.9,0.2,2.6-0.1C25.2,151.2,26.8,150.8,28.6,150.9z M58.3,144.8c-1.1-0.7-0.4-1.2,0-1.5
		c0.3-0.2,0.4-0.5,0.6-0.8c1-1.3,2-2.6,3.1-3.7c1.8-1.9,3.9-3.5,5.4-5.7c0.5-0.7,1.4-1.7,1-2.5c-0.4-1,0-1.8,0.3-2.3
		c1.1-2,2.2-4,3.1-6.2c1-2.4,2-4.7,3.1-7.1c1-2.2,2.6-4.1,4.1-6c0.4-0.5,1.4-0.7,1.1-1.5c-0.2-0.6-1.1-0.1-1.6-0.3h-0.1
		c-1.8-0.4-2.1-0.3-3,1.2c-0.2,0.4-0.5,0.7-0.7,1.1c-2.1,3-3.6,6.3-4.9,9.7c-0.4,1.1,0.2,2.7-1.3,3.4v0.1c0.6,0.6,0,1.2,0,1.8
		c0,0.8,0,1.8-0.9,2.5c-0.2,0.2-0.3,0.4-0.1,0.6c0.7,1.1,0.1,2.4,0.5,3.6c0.1,0.2-0.1,0.6-0.3,0.6c-1.2,0.3-1.5,1.4-2.1,2.2
		c-0.9,1.2-2.6,1.2-3.3,2.7c-0.4,0.8-0.3,1.9-1.2,2.4c-1.8,1-2.7,2.8-4.1,4.2c-0.3,0.4-1.1,0.7-0.8,1.3
		C56.7,145.3,57.4,144.7,58.3,144.8z M47.7,127.5c-0.8,0.7-1.6,0.9-2.3,1.2c-2.3,1.2-5.8,0.7-7.4-1.4c-1.1-1.4-2.8-1.7-4-2.8
		c-0.4-0.4-1-0.3-1.2,0.6c-0.3,1.4,0,2.9-0.3,4.3c-0.1,0.5,0.3,0.8,0.7,0.8c2.5,0.4,4.9,1.3,7.5,1.3c2,0,4.1,0.1,6.1,0.2
		c0.6,0,1.2,0.3,1.6-0.3c0.5-0.8,0.6-1.6-0.1-2.3C47.9,128.8,47.6,128.4,47.7,127.5z M82.7,108.7c0-0.3-0.2-0.7-0.5-0.6
		c-0.6,0.3-1.4,0.2-1.9,1c-1,1.7-2,3.4-3.2,4.9c-0.7,0.9-1.5,1.8-1.8,3c-0.2,0.9-0.7,1.6-0.8,2.5c-0.2,1.2-0.8,2-1.5,3
		c-0.2,0.2-0.3,0.6,0.1,0.7c0.3,0.1,0.4-0.2,0.5-0.3c0.6-0.5,0.7-1.2,1.2-1.8c1.5-2,3.4-3.7,5.2-5.4c0.7-0.7,1.5-1.4,1.8-2.2
		C82.5,112,82.3,110.3,82.7,108.7z M79.4,126.6c0.2,0.2,0.4,0.1,0.5,0.1c2.5-1.2,4.7-2.7,6.8-4.6c1.5-1.4,3.1-2.7,4.4-4.3
		c0.3-0.3,0.8-0.7,0.5-1.2c-0.3-0.4-0.8-0.2-1.2-0.2c-1.6,0.1-2.8,1.1-4.1,2c-0.4,0.2-0.8,0.4-1.1,0.9c-0.8,1.7-1.8,3.3-3.1,4.6
		C81.3,124.8,80.4,125.7,79.4,126.6z M15.4,181.2c1.3,0.2,2.3-0.5,3.4-0.9c1.2-0.4,2.6-0.4,2.7-2.2c0-0.3,0.5-0.5,0.2-0.8
		c-0.2-0.3-0.6-0.1-0.9,0c-0.4,0-0.8,0.1-1.2,0.3c-0.9,0.3-1.9,0.5-2.8,0.1c-1.9-0.8-3.5,0-5.2,0.6c-0.6,0.2-0.7,0.9-0.8,1.4
		c-0.1,0.5,0.5,0.6,0.8,0.8C12.8,181.1,14.1,181,15.4,181.2z M87.6,115.6c1.6-0.6,3-1.6,4.7-0.6c0.3,0.2,0.5,0,0.7-0.3
		c1-1.2,1.2-2.7,1.2-4.2c0-0.2-0.2-0.4-0.3-0.6c-0.6-1-1.5-1.2-2.5-0.9c-1.1,0.3-2.3,0.7-2.7,1.9C88.3,112.3,88,113.9,87.6,115.6z
		 M16.1,171.8c-0.5,0-1.1,0-1.8,0.1c-0.2,0-0.7,0.1-0.4,0.6c1.6,2.4,4.4,4.6,7.8,2.9c0.7-0.3,1.1-0.9,1-1.6
		c-0.1-0.6-0.2-1.2-1.1-1.4C19.9,172.1,18.1,172,16.1,171.8z M71.4,130.6c1.5-0.1,1.7-1.5,2.7-2.1c3.2-1.9,6.1-4.2,8.5-7.2
		c0.3-0.4,0.3-0.7,0.2-1.2C78.1,122.7,74.4,126.2,71.4,130.6z M83.7,111.9c0.6-0.5,1.1-1.2,2-1.4c0.9-0.2,1.8-0.6,2-1.7
		c0.3-1.3-0.2-2.5-1.2-3.1c-1.1-0.6-1.8,0.2-2.6,0.6c-0.7,0.3-0.6,0.8-0.5,1.4C83.5,109.1,83,110.5,83.7,111.9z M56.8,90.8
		c0.2,1.2-0.3,0.9-0.8,0.4c-1.3-1.2-2.8-2-4.5-2.6c-0.7-0.2-1.5-0.6-2.3-0.2c0.7,0.9,1.9,0.4,2.4,0.9c0.8,0.7,1.7,1.3,2.6,1.8
		c2,1.1,3.2,2.9,4.5,4.6c0.1,0.2,0.1,0.4,0.5,0.3c0.6-0.3,1.1-1.4,0.7-1.9C59.2,92.8,58.3,91.6,56.8,90.8z M80.3,119.1
		c0.3,0,0.5,0.1,0.6,0c2.2-1.2,4.6-2.3,5.4-4.9c0.2-0.6,0.7-1.4,0.1-2C83.6,113.8,82.1,116.4,80.3,119.1z M93.1,117.7
		c-0.6,1.3-1.6,2.1-2.4,3.1c-2.6,2.7-5.4,5.3-9,6.6c-0.4,0.2-0.4,0.6-0.7,0.9c0,0,0.1,0.3,0.3,0.3c0.3,0.2,0.7-0.1,0.9-0.2
		c1-0.8,2.2-1.4,3.1-2.3c0.5-0.5,1.3-1,2.1-0.9c0.4,0.1,0.6-0.2,0.8-0.4c1.6-1.8,3.7-3.3,4.8-5.6C93.2,118.7,93.4,118.3,93.1,117.7z
		 M48,135.9c-2.6,1.9-5.4,3.3-8.2,4.9c-0.5,0.3-0.4,0.7-0.2,1.1c0.5,1,2.2,1,2.8,0.2C44.2,139.9,46.2,138,48,135.9z M80.4,128.7
		c-0.2-0.6-0.7-0.3-1-0.1c-1.3,0.8-2.7,1.5-4.2,2.1c-0.2,0.1-0.3,0.2-0.2,0.3c0,0.2,0.2,0.2,0.4,0.2c1.8-0.2,3.4-1.3,5-2.1
		C80.4,129,80.4,128.9,80.4,128.7z M35.5,138.7c1.1,0.7,2.1,0.8,2.7,1.7C38.3,139.5,37.4,138.9,35.5,138.7z M59.2,178.3
		c-0.3-0.4-0.6-0.8-1.1-0.9c-0.2-0.1-0.3,0.1-0.2,0.4c0.2,0.5,0.6,0.8,1.1,0.9C59.1,178.7,59.2,178.5,59.2,178.3z"/>
	<path class="st0" d="M27.1,61.5c0.5-2.9,0.5-5.8,1.9-8.7c1.4-2.7,2.6-5.7,2.7-8.9c0-0.6,0.3-1.2,0.6-1.7s0.7-0.5,1.2-0.3
		c0.6,0.2,0.3,0.6,0.2,0.9c-0.2,1.5-0.9,2.9-1.4,4.3c-0.8,2.7-2.1,5.3-3,8c-1,3.1-1.6,6.3-0.6,9.5c0.4,1.4,1.5,1.9,2.9,1.4
		c1.9-0.6,3.4-1.9,5.2-2.6c1.6-0.6,2.5-0.3,3.4,1.1c1.7,2.7,4,3.7,7.1,3.2c1-0.2,2.1,0,3.1,0c0.3,0,0.6,0.1,0.6,0.5
		c0,0.3-0.3,0.3-0.6,0.3c-2,0.1-4.1,0.5-6,0.3c-2-0.3-3.8-1.4-4.9-3.4c-0.7-1.4-1.1-1.5-2.4-0.8c-1.6,0.9-3.2,1.8-4.9,2.4
		c-2.3,0.9-4.6-0.2-4.9-3C27.3,63.3,27,62.4,27.1,61.5z"/>
	<path class="st0" d="M79.3,43.1c0.2,1.6-0.2,3-1.1,4.3c-0.3,0.4-0.7,0.8-1.2,0.9s-0.8-0.2-1-0.5c-0.3-0.3,0-0.5,0.2-0.7
		c1.6-1.8,1.9-3.9,1.5-6.1c-0.8-3.9-3.3-6.8-6.4-9.1c-0.9-0.7-2-1.1-3.1-1.6c-0.5-0.2-1-0.4-1.6,0s-1.1-0.2-1.2-0.7
		c-0.2-0.6,0.2-0.9,0.8-0.9c0.2,0,0.5-0.1,0.7,0c3.4,1,6.6,2.5,8.8,5.6c1.5,2.2,3,4.3,3.6,7C79.3,41.9,79.4,42.5,79.3,43.1z"/>
	<path class="st0" d="M20.5,209.3c-1.2,0.4-1.7,0.2-1.9-0.9c-0.1-0.6-0.2-1.2-0.1-1.8c0.5-4,0.2-7.9,0.2-11.9c0-3,0-6.1-0.2-9.1
		c0-0.5-0.1-1.1,0.7-0.9c0.6,0.1,0.5,0.5,0.4,1c-0.1,1.1,0.1,2.1,0.2,3.2c0.3,4.4-0.1,8.7,0,13.1c0,1.8,0,3.6-0.1,5.4
		C19.6,208,19.7,208.7,20.5,209.3z"/>
	<path class="st0" d="M38.5,43.2c0.3,0,0.8-0.1,0.9,0.4c0.1,0.5-0.4,0.4-0.6,0.6c-0.8,1-1.5,2.1-1.9,3.3c-0.7,1.9-1.6,3.8-1.8,5.9
		c0,0.3,0,1-0.6,0.8c-0.5-0.1-1-0.6-0.9-1.1c0.5-2.1,0.7-4.3,1.7-6.3c0.4-0.8,0.8-1.7,1.2-2.5C37,43.6,37.6,43.2,38.5,43.2z"/>
	<path class="st0" d="M42.9,45.3c-0.5-0.2-1-0.4-0.5-1.1c0.6-0.9,1.6-1.1,2.5-1.5c0.3-0.1,0.4,0.1,0.4,0.4
		C45.2,43.7,43.6,45.3,42.9,45.3z"/>
	<path class="st0" d="M52.5,39.1c0-0.6-0.1-1.3,0.9-1.2c0.7,0.1,1.1,0.7,1,1.2c-0.1,0.6-0.6,1.2-1.3,1.2
		C52.4,40.3,52.5,39.6,52.5,39.1z"/>
	<path class="st0" d="M19.7,183.1c-0.6,0.2,0.4,1.2-0.6,1.2c-0.2,0-0.6,0-0.5-0.3c0.2-0.5,0.1-1.3,0.8-1.4
		C19.6,182.5,19.7,182.8,19.7,183.1z"/>
	<path class="st0" d="M40.8,89.6c-0.3-0.1-0.6-0.1-0.8,0.1c-1,0.9-2.3,1.6-2.8,3c-0.4,1.2-1.3,2.1-2.4,2.7c-2.8,1.6-4.3,4-5.1,7.1
		c-0.1,0.6-0.1,1.5-1,1.3c-0.8-0.2-0.4-1.1-0.4-1.7c0.2-2.3,1.7-4,3-5.7c2.2-3.1,5.1-5.6,8.1-7.9c0.7-0.5,1.3-0.1,1.8,0.3
		c0.2,0.1,0.4,0.4,0.3,0.7C41.3,89.9,41,89.7,40.8,89.6z"/>
	<path class="st0" d="M32.5,111.9c0.6-0.1,1.2-0.5,1.9-0.2c1.1,0.4,2.1,1,3.2,1.4c2.7,1.2,5.5,1.7,8.4,0.5c0.9-0.4,1.5-1.1,2.2-1.6
		c0.4-0.3,0.9-1,1.4-0.5s-0.3,0.9-0.4,1.3c-0.5,1.8-2.1,2.3-3.6,2.8c-1.4,0.4-2.8,0.1-4.3,0c-2.4-0.2-4.8-0.7-6.8-2.2
		c-0.4-0.3-1-0.5-1.5-0.7C32.8,112.6,32.6,112.4,32.5,111.9z"/>
	<path class="st0" d="M40.6,107.5c-0.1,0.2-0.2,0.3-0.2,0.4c-0.1,0.7-0.3,1.3-1,1.4c-0.7,0.2-1-0.5-1.4-0.9
		c-0.7-0.7-1.1-1.4-1.1-2.4c0-0.2,0-0.5,0.2-0.6c0.3-0.1,0.4,0.2,0.5,0.4c0.1,0.2,0.3,0.4,0.4,0.6c0.2,0.4,0.4,0.9,0.8,0.9
		c0.5,0,0.4-0.6,0.4-1c0.2-1,0.9-0.4,1.3-0.2c1.6,0.7,1.6,0.7,1.7-1.1c0.1-1.5,0.2-2.9,0.2-4.4c0-0.6,0.2-0.9,0.9-0.9
		c0.5,0.1,0.9,0.1,0.8,1c-0.2,2.1-0.2,4.3-0.3,6.5c0,0.9-0.9,1.3-1.5,1.7c-0.5,0.4-0.9-0.4-1.2-0.7C41,108,40.8,107.7,40.6,107.5z"
		/>
	<path class="st0" d="M47.7,97.4c0.5-0.1,1.1-0.5,1.6-0.8c0.3-0.2,0.6-0.4,0.8,0s-0.3,0.4-0.4,0.6c-0.1,0.1-0.2,0.2-0.3,0.2
		c-0.5,0.1-0.8,0.3-0.7,0.8s0.6,0.8,1.1,0.8s1,0,1.5,0.2c0.3,0.1,0.4,0.3,0.4,0.5c0,0.3-0.3,0.2-0.5,0.2c-1.1,0.2-2.1,0.9-3,1.5
		c-0.7,0.5-1.3,0.4-2,0c-0.5-0.3-0.3-0.8,0.1-0.9c0.6-0.1,0.6-0.3,0.4-0.7c-0.2-0.7,0.8-1.2,0.1-2.1C46.6,97.3,47.2,97.3,47.7,97.4z
		"/>
	<path class="st0" d="M41,120.1c1,0.4,1.6-0.1,2.3,0c0.4,0.1,0.8,0.1,0.8,0.5s-0.4,0.4-0.6,0.5c-1.1,0.4-2.2,0.6-3.1-0.3
		c-0.4-0.3-1.3,0.1-1.3-0.5c0-0.7,1-0.8,1.5-1.1c0.7-0.4,1.5,0,2.2-0.1c0.2,0,0.4,0.1,0.4,0.3c0,0.2-0.2,0.4-0.4,0.4
		C42.3,119.9,41.8,120,41,120.1z"/>
	<path class="st0" d="M36.9,99.6c-0.3,0-0.6,0-0.8,0c-0.6-0.1-1.3-0.2-1.5-0.8c-0.3-0.8,0.6-0.8,1-1.1c0.5-0.5,2.4,0,2.8,0.6
		C38.8,99.1,38.3,99.5,36.9,99.6z"/>
	<path class="st0" d="M32.4,92.1c0.2,0.7-0.5,1-0.9,1.5c-1,1.5-1.6,3.2-2.6,4.8c-0.2,0.3-0.2,0.7-0.7,0.7c-0.1,0-0.3-0.2-0.4-0.4
		c-0.2-0.5,0.4-0.5,0.5-0.8c0.5-0.9,1.1-1.8,1.5-2.8c0.4-1,1.4-1.7,1.7-2.8C31.6,92.1,32.1,92.1,32.4,92.1L32.4,92.1z"/>
</g>
</svg>
