<?xml version="1.0" encoding="utf-8"?>
<!-- Generator: Adobe Illustrator 22.0.1, SVG Export Plug-In . SVG Version: 6.00 Build 0)  -->
<svg version="1.1" id="Layer_1" xmlns="http://www.w3.org/2000/svg" xmlns:xlink="http://www.w3.org/1999/xlink" x="0px" y="0px"
	 viewBox="0 0 180 156.9" style="enable-background:new 0 0 180 156.9;" xml:space="preserve">
<style type="text/css">
	.st0{fill:#4E5D44;}
	.st1{fill:#E4D3B6;}
</style>
<path class="st0" d="M165.1,106c-7.5,13.6-17.9,24.3-30.8,32.8c-7.2,4.7-13.5,10.2-22.1,12.6c-12.4,3.4-23.9,2.1-36.5-2.5
	c-8.9-3.2-17.1-9.6-25.1-11.4c-20.9-4.6-30-21.1-39.2-37.1C5.1,89.7,3.1,81.4,5.6,69.9c2.2-10.2,7-19.6,13.9-27
	c1.2-1.2,2.5-2.5,4.1-2.8s3.7,0.6,4.2,2.3c7.6-6.5,15.2-13,22.8-19.5c3.7-3.2,8.4-6.5,13.1-4.7c4,1.6,6.1,6.2,7.6,10.4
	c1.8,4.9,21.5-15.8,23-18.9c1.9-4.1,4.9-4.1,8.5-3.2c27.8,7.2,49.9,22.9,64.2,49.7C176.2,73.5,173.7,90.3,165.1,106z"/>
<g>
	<path class="st1" d="M145.2,88.8c1,0.8,0.9,1,0,1.8c-0.2,0.2-0.3,0.6-0.4,0.9c-0.1,0.6-0.2,1.3-0.3,1.8c0.5,0.1,1.2,0.1,1.7,0.3
		c0.4,0.1,0.8,0.5,0.9,0.8c0.3,0.5,0.1,1-0.5,1.4c-1,0.7-1.7,1.7-2.7,2.5c-0.7,0.6-1.6,1.1-2.4,1.5c-2.7,1.6-5.5,3.1-8.2,4.7
		c-1.7,1-3.4,2.1-5.1,3.2c-3.1,2-6.2,3.9-9.4,5.8c-2,1.2-4.2,2.2-6.2,3.4c-1.8,1.1-3.5,2.3-5.2,3.5c-1.1,0.7-2.2,1.4-3.3,2.1
		c-0.6,0.5-1.3,1-1.7,1.7c-0.4,0.7-1.3,1.1-1.9,1.6c-0.9,0.8-1.8,1.6-2.8,2.4c-0.3,0.2-0.8,0.3-1.1,0.2c-0.2,0-0.3-0.5-0.4-0.8
		c0-0.1,0.1-0.2,0.2-0.4c0.3,0.3,0.1,1.3,0.7,0.8c-0.3-2.9-0.6-5.5-0.9-8.2c0.1,0,0.2,0,0.2,0c-0.3-0.2-0.6-0.4-0.9-0.6
		c0-0.1,0-0.2,0-0.3c1.3,1,1.9-0.1,2.6-0.6c1-0.7,2.1-1.4,3.2-2.1c0.2-0.1,0.4-0.2,0.6-0.2c0-0.1-0.1-0.3-0.1-0.4
		c-1.2-0.7-2.5-1.3-3.7-2c-0.4-0.3-0.8-0.8-1.2-0.9c-2.7-1-4.7-3.2-7.1-4.6c-1.7-1-3.2-2.4-4.9-3.6c-2.1-1.5-4.3-3-6.3-4.6
		c-2.6-2.1-5.2-4.2-7.8-6.3c-1.2-1-2.5-1.8-3.7-2.7c-1.1-0.9-2.1-2-3.2-2.8c-1.4-1.1-2.9-2.1-4.3-3.2c-0.5-0.4-1-0.8-1.5-1.2
		c-3-2.2-6.1-4.4-9.1-6.6c-1.8-1.3-3.6-2.7-5.5-4.1c-0.9-0.7-1.8-1.5-2.8-2.1c-0.9-0.6-1.9-1.1-2.9-1.8c-0.6-0.4-1.2-0.8-1.6-1.3
		c-1-1.3-2.3-1.6-3.6-1c-0.8,0.4-1.4,1.4-2,2.1c0,0,0,0.1,0,0.2c-0.4,1.4-0.5,1.4,0.7,2.3c2.2,1.7,4.5,3.2,6.7,4.9
		c1.1,0.9,2.1,1.9,3.2,2.8c0.6,0.5,1.3,0.9,2,1.4c0.1,0.1,0.2,0.3,0.4,0.5c0.9,0.6,1.8,1.1,2.7,1.7c1.7,1.1,3.3,2.3,4.9,3.5
		c1.2,0.9,2.4,2,3.6,2.9c1.6,1.3,3.1,2.6,4.7,3.8c1.9,1.5,3.9,3,5.8,4.6c1.5,1.3,2.9,2.6,4.5,3.9c2.3,1.9,4.6,3.7,7,5.5
		c2,1.5,4.1,3,6.1,4.4c0.7,0.5,1.3,1.2,2.1,1.4c1.3,0.3,1.8,1.6,3,2.1c1,0.4,1.8,1.1,2.5,1.9c0.1,0.1,0.4,0,0.6,0.1
		c0.2,0.2,0.7,0,0.6,0.7c-0.1,0.4,0.4,0.8,1,0.6c0.3-0.1,0.6,0,0.9,0c0,0.1,0,0.2,0,0.3c-0.4,0.2-0.7,0.4-1.1,0.7
		c0,0.1-0.1,0.2-0.1,0.3c-1-0.7-1.9-1.4-2.9-2.1c-1.4-1-2.7-2.1-4.1-3.1c-2.2-1.6-4.5-3.2-6.7-4.8c-2-1.5-4-3-6-4.5
		c-1.4-1.1-2.7-2.2-4-3.3c-0.8-0.7-1.5-1.4-2.2-2c-1-0.8-2.1-1.6-3.1-2.4c-1.3-1-2.7-2-4-3c-1.1-0.8-2.1-1.7-3.2-2.6
		c-1-0.8-1.9-1.6-2.9-2.3c-1.1-0.9-2.3-1.7-3.5-2.5c-0.7-0.5-1.4-1-2.1-1.5c-0.4-0.3-0.8-0.5-1.2-0.8c-0.8-0.5-1.5-1.1-2.3-1.6
		c-2.1-1.5-4.3-3-6.4-4.5c-1.1-0.8-2.1-1.8-3.2-2.7c-0.2-0.2-0.6-0.3-0.8-0.5c-1.2-0.8-2.3-1.7-3.5-2.5c0,1.7,0,3.3,0,4.8
		c0.9,0.7,1.7,1.3,2.5,1.9c1.7,1.2,3.4,2.3,5,3.5c2.4,1.8,4.7,3.6,7.1,5.4c2.3,1.7,4.6,3.3,6.9,5c2.1,1.6,4.3,3.2,6.4,4.8
		c2.3,1.7,4.6,3.4,6.9,5.1c1.4,1,2.6,2.2,3.9,3.3c1.6,1.4,3.3,2.7,4.9,4c2.4,1.9,4.8,3.9,7.3,5.8c1.7,1.3,3.4,2.5,5.1,3.7
		c2.7,1.9,5.3,3.9,8,5.7c0.6,0.4,1.4,0.6,2.2,1c0,0.6-0.1,0.9-0.9,0.7c-1.4-0.3-2.6-1.1-3.7-2c-1.3-1-2.7-2-4-2.9
		c-1.7-1.2-3.4-2.4-5-3.6c-1.9-1.5-3.7-3.1-5.6-4.6c-1-0.8-2-1.5-3-2.3c-0.6-0.5-1.3-1-1.9-1.5c-1.1-0.8-2.2-1.6-3.3-2.5
		c-1.7-1.5-3.3-3-5.1-4.5c-0.8-0.7-1.8-1.2-2.7-1.9c-1.4-1.1-2.8-2.2-4.2-3.2c-1.6-1.2-3.1-2.4-4.7-3.5c-1.5-1.1-3-2.1-4.5-3.2
		c-2.1-1.5-4.1-3.2-6.2-4.7c-1.6-1.2-3.2-2.2-4.9-3.3c-2.1-1.4-4.2-2.8-6.3-4.2c-1-0.7-1.4-1.7-1.5-2.8c-0.1-1.3-0.2-2.6-0.2-3.9
		c0-1,0.1-2,0.2-3c0.2-1.7,1.8-4.5,4.2-4.7c1.7-0.1,3.5-0.8,5.2-1.3c-1-2-3.1-2.1-4.6-3.2c1.2-0.9,2.3-1.7,3.4-2.5
		c1.1-0.7,2.3-1.4,3.4-2c0.6-0.4,1.7-0.1,2.6,0.7c0.9,0.7,1.7,1.5,2.6,2.3c0.2,0.1,0.5,0.3,0.7,0.2c0.9-0.4,1.7-0.8,2.6-1.2
		c-0.1-0.2-0.1-0.3-0.2-0.3C48,56.6,48,56,49.1,55.3c1.8-1.1,3.5-2.2,5.3-3.3c0.2-0.1,0.4-0.3,0.5-0.3c1,0.6,2.3-0.1,3.2,1
		c0.2,0.2,0.8,0.3,1.1,0.1c0.9-0.4,1.9-0.9,2.8-1.3c0.5-0.3,0.4-1.3-0.2-1.8c-0.3-0.2-0.6-0.4-0.9-0.7c1.2-0.9,2.2-1.7,3.3-2.5
		c0,0,0-0.1-0.1-0.1c-0.3,0.1-0.7,0.1-1.1,0.2c0.2-0.3,0.3-0.5,0.4-0.7c-0.3-0.2-0.5-0.5-0.9-0.9c0.4-0.1,0.7-0.2,0.9-0.3
		c0.7-0.4,1.5-0.8,2.2-1.3c1.1-0.9,2.1-2,3.2-3c0.2-0.2,0.9-0.2,1.1,0c1.3,1,2.5,2.1,3.7,3.2c0.4,0.4,0.7,0.8,1.1,1.1
		c0.2,0.1,0.5,0.1,0.8,0.1c0.3,0,0.6-0.1,0.9-0.3c1.5-0.6,2.5,0.4,3.6,1c1.4,0.8,2.7,1.6,4.1,2.4c1,0.6,2.1,1.2,3.1,1.7
		c1.4,0.7,2.8,1.4,4.2,2.1c0.7,0.3,1.3,0.8,1.9,1.2c1.4,0.9,2.9,1.7,4.3,2.6c1.1,0.7,2.2,1.4,3.3,2.1c1.5,0.9,2.9,1.8,4.4,2.7
		c0.5,0.3,1,0.6,1.5,1c1.5,1,2.9,2,4.4,3c1.2,0.7,2.5,1.3,3.7,2c1.4,0.8,2.8,1.7,4.2,2.6c1.3,0.8,2.7,1.6,4,2.5
		c1.7,1.1,3.3,2.2,4.9,3.3c0.8,0.5,1.7,0.8,2.5,1.2c0.8,0.4,1.5,0.9,2.3,1.3c1,0.6,2,1.3,3,1.9c0.8,0.5,1.6,0.9,2.3,1.7
		c0.7,0.7,1.8,1,2.7,1.6c0.5,0.3,0.9,0.8,1.4,1.2c0.8,0.7,1.6,1.5,2.5,2c1,0.6,0.9,1.3,0.7,2.2C145.4,88.3,145.3,88.6,145.2,88.8z
		 M105.1,117c-0.8,0.4-1.6,0.8-2.4,1.3c0.2,0.3,0.3,0.5,0.5,0.7c0.6-0.5,1.1-0.9,1.6-1.3C105,117.4,105,117.2,105.1,117
		c0.6,0,1.8-0.8,2.6-1.9c-0.7,0.4-1.2,0.6-1.8,1C105.6,116.3,105.4,116.7,105.1,117z M51.5,55.9c0.3,0.1,0.7,0.4,1,0.3
		c0.9-0.4,1.8-0.8,2.6-1.3c0.4-0.3,0.7-0.6,1.3-0.5c0.5,0.1,0.7-0.3,0.5-1c-0.6,0.2-1.3,0.2-1.8,0.5C53.8,54.5,52.7,55.2,51.5,55.9
		c-0.4,0.3-0.9,0.6-1.3,0.9c0,0.1,0.1,0.2,0.1,0.2c0.5-0.1,0.9-0.2,1.5-0.3C51.7,56.3,51.6,56.1,51.5,55.9z M108.8,116.6
		c0.7,0.1,1.4-0.1,1.9-0.7c0.3-0.3,0.5-0.6,0.9-0.8c0.5-0.3,1.1-0.5,1.6-0.8c0.8-0.5,1.5-1.1,2.2-1.6c1.4-0.9,2.9-1.8,4.3-2.7
		c0.2-0.1,0.4-0.4,0.7-0.8c-1.1,0.6-1.9,1-2.7,1.5c-1.5,1-3,2.1-4.5,3.2C111.8,114.8,110.3,115.7,108.8,116.6
		c-1.8,1.3-3.7,2.5-5.3,4c0.2,0.1,0.4,0.1,0.5,0c0.7-0.5,1.4-1.1,2.2-1.7c0.5-0.4,1-1,1.6-1.2C108.4,117.5,108.6,117.1,108.8,116.6z
		 M138.1,98.2L138.1,98.2c0.6,0.9,0.5,0.9-0.3,1c-0.3,0.4-0.4,0.6-0.6,0.8c-1.3,0.8-2.7,1.4-3.9,2.2c-1.5,0.9-2.9,2-4.3,3
		c-0.3-0.5-0.5-0.7-0.8-1.2c-1.8,1.2-3.6,2.4-5.7,3.8c0.4,0,0.5,0,0.6,0c1.1-0.7,2.2-1.4,3.2-2.1c0.3-0.2,0.7-0.3,1-0.6
		c0.7-0.7,1-0.7,1.6,0.3c-0.4,0-0.7,0.1-1.1,0.1c-0.7,0.7-1.5,1.3-2.4,1.9c-1.2,0.8-2.4,1.5-3.6,2.2c-1.2,0.8-2.5,1.7-3.7,2.6
		c-0.2,0.1-0.3,0.4-0.4,0.5c-0.2-0.1-0.5-0.1-0.7-0.2c0.1,0.1,0.1,0.1,0.2,0.2c-0.5,0.4-1.1,0.8-1.6,1.2c0.1,0.1,0.1,0.2,0.2,0.2
		c0.7-0.5,1.3-1,2-1.5c0.4-0.1,0.9-0.2,1.2-0.5c1-0.6,2-1.2,3-1.8c0.7-0.5,1.3-1,2-1.5c0.7-0.4,1.4-0.7,2.1-1.1
		c2-1.2,3.9-2.8,6.1-3.7c2-0.9,3.6-2.3,5.5-3.4c2-1.2,3.9-2.6,5.9-3.9c0.9-0.5,1.3-1.1,1.2-2.1c-0.5,0.3-0.4,1.5-1.4,1
		c0-0.6,0-1.1,0-1.7c0.1-0.5,0.2-1.1,0.3-1.7c-0.7-0.7-1.6-0.4-2.4,0.1c-0.2,0.3-0.6,0.6-0.9,0.9c-0.4,0.3-0.8,0.6-1.2,0.9
		c-0.1,0-0.4,0-0.7,0c-0.1,1-1.4,2-2.6,2.3c-0.2,0.3-0.5,0.5-0.9,0.7c-0.3,0.2-0.7,0.3-1,0.5c-1.6,1-3.3,2-4.6,3.4
		c-0.6,0.6-1.3,1.1-2,1.6c-0.6,0.4-1.2,0.6-1.8,1c-1,0.6-1.9,1.3-2.9,1.9c-1.6,1-3.3,2-5,3c-1.5,0.9-3,1.9-4.5,2.8
		c-0.5,0.3-1.1,0.6-1.6,0.8c0.5,0,1-0.5,1.3-0.4c0.8,0.5,1.2-0.1,1.8-0.5c1.8-1.1,3.5-2.1,5.3-3.2c1.9-1.2,3.7-2.4,5.6-3.6
		c1.7-1.1,3.5-2.1,5.3-3.1c0.4-0.2,0.7-0.6,1.1-0.9c1.3-0.8,2.7-1.6,4-2.4c1-0.6,1.8-1.4,2.8-2.1c0.2,0.4,0.3,0.6,0.3,0.6
		c-0.7,0.6-1.5,1.2-2.3,1.9C137.3,98.5,137.7,98.4,138.1,98.2z M107.9,113.4c0.5-0.4,0.9-0.7,1.3-0.9c0.7-0.5,1.4-1,2.2-1.5
		c1.5-0.8,3-1.6,4.4-2.4c0.9-0.5,1.6-1.2,2.4-1.8c1.2-0.9,2.5-1.8,3.8-2.7c1-0.6,2.1-1.1,3.1-1.7c1.3-0.8,2.6-1.8,3.8-2.7
		c1.5-1.1,3-2.1,4.5-3.2c2.4-1.7,4.7-3.5,7.1-5.2c0.7-0.5,1.6-0.8,2.2-1.3c0.4-0.3,1-1,0.9-1.4c-0.1-0.8-0.4-1.8-0.9-2.4
		c-0.9-1.1-2-2.2-3.2-3c-1.6-1.2-3.3-2.2-4.9-3.2c-1.2-0.7-2.4-1.3-3.5-2.1c-1.8-1.3-3.9-2.1-5.6-3.5c-1.6-1.3-3.6-1.8-5.3-3.1
		c-1.4-1.1-3-1.9-4.5-2.8c-1.8-1.1-3.5-2.1-5.3-3.2c-1.3-0.8-2.4-1.7-3.7-2.5c-1.9-1.2-3.8-2.2-5.7-3.4c-2.4-1.5-4.9-3-7.3-4.5
		c-0.3-0.2-0.9-0.2-1.1-0.5c-0.6-0.8-1.3-1.3-2.2-1.7c-0.4-0.2-0.8-0.4-1.2-0.6c-1.2-0.7-2.3-1.4-3.5-2.1c-1.9-1-3.8-2.1-5.8-3
		c-1.1-0.5-2.2-0.9-3.4-1c-0.8-0.1-1.7,0.4-2.4,0.7c-1.1,0.5-2.2,1-3.3,1.6c-2.1,1.1-4.1,2.3-6.1,3.3c-1.8,0.9-3.7,1.6-5.6,2.4
		c-3.3,1.5-6.5,3.1-9.8,4.6c-1.7,0.8-3.4,1.7-5.1,2.6c-1.3,0.7-2.5,1.4-3.7,2.1c-1.4,0.7-2.8,1.4-4.3,2.1c0.4,0.6,0.7,1.1,1.1,1.5
		c0.9,0.9,1.9,1.7,2.9,2.5c3.7,2.8,7.3,5.7,11.1,8.5c3.9,2.9,7.9,5.7,11.8,8.6c1.9,1.4,3.6,3,5.4,4.5c2.6,2.1,5.2,4.2,7.8,6.2
		c2.7,2.1,5.5,4.1,8.3,6.1c2,1.5,4,3,6.1,4.5c2.5,1.7,5,3.4,7.6,5.1c1.3,0.9,2.7,1.8,4,2.8c0.5,0.3,0.7,0.4,1.1,0c1-0.7,2-1.4,3-2.1
		c0.5-0.3,1-0.5,1.6-0.8C108,112.9,107.9,113.1,107.9,113.4z M45.4,59.6c-1-0.7-1.9-1.4-2.9-2c-0.4-0.2-1-0.4-1.4-0.2
		c-1.4,0.6-2.8,1.3-4.2,2c-0.6,0.3-1.1,0.6-1.6,0.8c1.2,0.7,2.4,1.4,3.5,2.2c0.5,0.4,0.9,0.3,1.3,0C42,61.4,43.7,60.5,45.4,59.6z
		 M62.6,49.2c0.5,0.4,0.9,0.9,1.5,1.2c0.3,0.2,0.9,0.2,1.3,0c1.3-0.6,2.5-1.3,3.7-2c0.6-0.3,1.2-0.7,1.7-1.1
		c-0.2,0.1-0.3,0.2-0.5,0.3c-0.3-0.6-0.7-1.1-1-1.7c-0.1-0.2-0.4-0.3-0.6-0.3c-0.9,0.2-2,0.3-2.7,0.8C64.7,47.2,63.7,48.3,62.6,49.2
		z M66.7,44.1c0,0,0.1,0,0.1,0.1c0.3-0.2,0.7-0.3,1-0.5c1.2-0.6,1.4-0.4,2.2,1c0.3,0.5,0.5,1,0.7,1.5c0.3,0.6,0.8,0.6,1.1,0.3
		c0.5-0.4,1.2-0.7,1.1-1.5c0-0.1-0.2-0.2-0.3-0.3c-1-0.8-2.1-1.6-3.1-2.3c-0.1-0.1-0.5-0.1-0.6,0C68.2,42.9,67.5,43.5,66.7,44.1z
		 M98.9,125.3c-0.1,0-0.2-0.1-0.4-0.1c0-0.3,0-0.6,0.1-0.8c0.4-0.5,0.9-1,1.5-1.6c-2.3,1-2.9,2.1-2.4,4.1c0.5-0.3,1-0.6,1.5-0.9
		c1.1-0.9,2.2-1.8,3.4-2.7c0.5-0.4,0.3-0.6,0.1-0.9c-0.2-0.2-0.5-0.2-0.7-0.3C100.9,123.1,99.9,124.2,98.9,125.3z M115.1,114.6
		c0-0.1-0.1-0.1-0.1-0.2c-3.1,1.2-5.6,3.3-8.3,5.3C109.6,118,112.4,116.3,115.1,114.6z M134,100.6c-0.1-0.1-0.1-0.2-0.2-0.3
		c-0.9,0.6-1.7,1.2-2.6,1.8c0.1,0.1,0.2,0.2,0.3,0.4C132.4,101.9,133.2,101.2,134,100.6z M130.7,103c-0.1-0.1-0.2-0.2-0.2-0.3
		c-0.6,0.4-1.2,0.8-1.8,1.1c0.1,0.1,0.1,0.2,0.2,0.3C129.5,103.7,130.1,103.3,130.7,103z M104.6,121.1c-0.4,0.2-0.9,0.4-1.3,0.5
		C103.7,122.2,103.8,122.2,104.6,121.1z M98.7,122.2c0.1,0.1,0.2,0.2,0.2,0.3c0.5-0.4,1-0.7,1.5-1.1c0-0.1-0.1-0.1-0.1-0.2
		C99.7,121.5,99.2,121.9,98.7,122.2z M100.9,118c1.1-0.2,1.3-0.4,1-0.9C101.5,117.4,101.2,117.7,100.9,118z"/>
	<path class="st1" d="M109.6,90c0,0.6,0.4,1.3-0.5,1.6c-0.3,0.1-0.5,0.3-0.9,0.5c0.1,0.5,0,1-0.9,1.1c-0.3,0-0.6,0.5-0.9,0.8
		c-0.6,0.8-1.2,1.7-2.3,1.8c-0.1,0-0.1,0.3-0.3,0.3c-0.7,0.4-1.4,0.8-2.2,1.1c-0.8,0.3-1.6,0.5-2.3,0.9c-1.2,0.7-3.1,0.5-4.2-0.4
		c-0.9-0.8-1.9-1.4-2.8-2.2c-0.9-0.8-1.8-1.7-2.6-2.6c-0.2-0.2-0.3-0.7-0.4-1c-0.1-0.2-0.2-0.3-0.5-0.6c0.6-0.7,1.3-1.6,2-2.4
		c0.9-0.9,1.8-1.8,2.8-2.6c0.9-0.6,2-1,2.9-1.6c0.5-0.3,1-0.7,1.4-1.1c1.7-1.3,3.3-2.7,5.4-3.4c0.3-0.1,0.5-0.5,0.8-0.7
		c0.9-0.9,1.7-1.8,2.6-2.6c1.1-1,2.1-2,3.3-3c1-0.8,1.9-1.6,2.9-2.4c0.9-0.7,1.4-0.7,2.7,0.1c-1,1.1-2,2.2-3.1,3.3
		c-1.1,1.1-2.2,2.2-3.2,3.3c-1,1.1-2,2.2-3,3.3c1.5,1.7,3,3.3,4.4,5c0.7,0.9,0.9,2,0.3,3c-0.2,0.4-0.7,0.6-1.1,1
		C109.9,90.4,109.7,90.2,109.6,90c0.5-0.5,1.1-1,0.7-1.9c-0.4-0.9-0.9-1.8-1.8-2.4c-0.2-0.1-0.4-0.3-0.5-0.4
		c-0.9-1.1-1.9-2.1-2.8-3.2c-0.3-0.3-0.5-0.3-0.9,0.1c-1.3,1.3-2.7,2.6-4.1,3.8c-1.2,0.9-2.4,1.7-3.7,2.6c-0.7,0.5-1.3,1-2,1.4
		c-1.1,0.7-2.2,1.2-3.3,1.9c-0.4,0.2-0.7,0.6,0,1c0.5,0.3,1.1,0.6,1.5,1c1,0.9,2,1.8,2.9,2.7c0.7,0.8,1.6,0.9,2.5,0.6
		c0.6-0.2,1.2-0.4,1.8-0.6c1-0.3,1.9-0.7,2.9-1.1c0.6-0.3,1.2-0.6,1.9-1c0.1,0,0.2-0.1,0.2-0.1c1.4-1.4,2.8-2.9,4.2-4.3
		C109.1,90,109.4,90.1,109.6,90z M91.6,90.4c0,0,0.1,0.1,0.1,0.1c0.3-0.2,0.7-0.4,1-0.6c0.5-0.3,1.1-0.6,1.6-1
		c0.8-0.6,1.5-1.5,2.4-1.9c1.2-0.6,2.1-1.4,3.1-2.3c0.1-0.1,0.2-0.1,0.3-0.2c0.4-0.2,0.8-0.4,1.1-0.8c0.3-0.3,0.1-0.6-0.3-0.7
		c-0.5-0.2-0.5,0.3-0.7,0.5c-0.6,0.5-1.3,0.9-2,1.4c-1.4,1-2.7,2-4,3.1C93.3,88.8,92.5,89.6,91.6,90.4z M108.3,77.5
		c0.1,0.1,0.2,0.2,0.2,0.3c0.7-0.7,1.4-1.4,2.1-2.2c0,0-0.1-0.1-0.1-0.1C109.7,76.2,109,76.9,108.3,77.5z"/>
	<path class="st1" d="M58.8,63.1c1.5,0.6,2.7,1.2,4,1.8c1.2,0.6,2,1.6,2.7,2.6c0.4,0.6,0.5,1.4,0.5,2.1c0.1,0.8-0.5,1.2-1.2,1.4
		c-0.8,0.3-1.6,0.2-2.4-0.2c-0.9-0.5-1.8-1-2.6-1.5c-1.2-0.8-1.6-2.1-2-3.3c-0.2-0.6-0.4-1.2,0-1.8C58,63.8,58.4,63.5,58.8,63.1z
		 M64.4,70.2c0.7,0,1.1-0.6,0.7-1.2c-0.7-1-1.4-1.9-2.3-2.8c-0.6-0.6-1.3-1-2-1.5c-0.6-0.4-1.3-0.3-1.7,0.2
		c-0.5,0.5-0.3,1.1,0.1,1.6c0.5,0.6,1,1.2,1.6,1.8C61.7,69.4,62.7,70.4,64.4,70.2z"/>
	<path class="st1" d="M63,78.6c0.5,0,0.7,0,0.9,0c0-0.5-0.1-1.1,0-1.5c0.1-0.6,0.4-1.2,1.1-1.3c0.8-0.1,1.1,0.3,1.3,0.9
		c0.2,0.6,0.3,1.3,0.5,1.9c0.3-0.3,0.7-0.7,1.1-1c0.8-0.6,1.3-0.6,2.1,0c0.8,0.6,1.6,1.2,1.8,2.3c0.2,1.2-0.6,2.2-1.8,3.1
		c-1.1,0.9-1.9,0.6-2.8-0.3c-1.2-1.2-2.6-2.2-3.8-3.3C63.2,79.3,63.2,79,63,78.6z M64.4,77.9c0.1,0,0.2,0.1,0.3,0.1
		c-0.4,0.9,0.2,1.4,0.7,1.9c0.6,0.6,1.3,1.2,2,1.8c1.2,1,2.1,0.9,3-0.4c0.6-0.8,0.4-1.7-0.6-2.7c-0.5-0.5-1.2-0.5-2,0.2
		c-0.3,0.2-0.5,0.5-0.8,0.7c-0.2,0.1-0.6,0.2-0.8,0.1c-0.1,0-0.1-0.4-0.2-0.7c-0.1-0.3-0.1-0.6-0.2-1c-0.1-0.5,0.1-1.3-0.7-1.2
		C64.9,76.7,64.7,77.5,64.4,77.9z"/>
	<path class="st1" d="M79.1,74.8c-1.8,0-3.3-0.8-4.2-2.2c-0.5-0.9-0.6-2.2-0.6-3.3c0-0.5,0.6-1,1.1-1.5c0.1-0.1,0.6-0.2,0.8-0.1
		c0.7,0.2,1.4,0.7,2.1,0.8c1.4,0.2,3.2,3.2,3,4.5C81.2,74.3,80.5,74.9,79.1,74.8z M76,68.5c-0.2,0.4-0.3,0.7-0.4,0.9
		c-0.1,0.4-0.3,0.9-0.1,1.2c0.7,1.2,1.5,2.3,2.9,2.7c0.5,0.1,1,0.1,1.5,0.2c0-0.5-0.1-0.9-0.1-1.4c0-0.1,0-0.2,0-0.3
		c-0.2-0.6-0.3-1.3-0.7-1.6C78.1,69.6,77,69.1,76,68.5z"/>
	<path class="st1" d="M70.5,64.9c0.1,1.3-0.3,1.7-1.3,1.5c-3.5-0.4-5-1.8-6.1-5.1c-0.1-0.2-0.1-0.4-0.1-0.6c-0.4-1,0.1-1.8,1.2-1.5
		c2.3,0.7,4.5,1.5,5.7,3.9C70.1,63.8,70.3,64.5,70.5,64.9z M69.3,65.4c-0.6-2.5-2.2-5-5-4.9C64.1,63.2,66.6,65.7,69.3,65.4z"/>
	<path class="st1" d="M72.7,60.6c0.7,0.7,1.4,1.3,2.1,2c0,0-0.2,0.3-0.4,0.7c-2.4-2-4.7-3.9-7.1-5.9c0.7-0.6,0.7-0.6,3.4,1.2
		c0.1-0.7,0.2-1.4,0.4-2c0.1-0.3,0.3-0.6,0.5-0.9c0.2,0.3,0.5,0.6,0.6,1c0.1,0.5-0.1,1.1,0,1.7c0,0.6,0.2,1,1,1
		c1.3,0.1,2.6,0.3,3.9,0.6c0.4,0.1,0.7,0.4,0.9,0.7c-1.8,0.6-3.4-0.1-5.1-0.4C72.8,60.4,72.8,60.5,72.7,60.6z"/>
	<path class="st1" d="M71.1,72.4c1.8,0.5,3.8,1.1,5,3.1c0.6,0.9,0.6,1.9,0.3,2.9c-0.3,0.9-1.8,1.4-3,0.7c-0.9-0.5-1.6-1.3-2.4-1.9
		c-1.1-0.9-1.3-2.2-1.7-3.4C69.1,72.9,69.6,72.4,71.1,72.4z M70.3,73.2c0.3,1.1,0.5,2.2,1.5,3c0.9,0.8,1.7,1.5,2.9,1.8
		c0.7,0.2,1-0.1,0.8-0.7c-0.2-0.6-0.5-1.3-0.8-1.9C73.7,73.9,71.9,73.7,70.3,73.2z"/>
	<path class="st1" d="M82.2,67.2c0-1,0-1.9,0-2.9c0-0.3,0.3-0.6,0.4-0.9c0.2,0.3,0.5,0.6,0.5,0.9c0.1,0.8,0,1.7-0.1,2.5
		c0,0.1,0.1,0.3,0.1,0.6c1.5-0.9,3-0.3,4.6-0.3c0.2,0,0.5,0,0.6,0.1c0.2,0.2,0.3,0.5,0.5,0.7c-0.2,0.1-0.5,0.4-0.6,0.4
		c-1.6-0.4-3.2-0.6-4.9,0.1c0.5,0.4,1.1,0.7,1.7,1.1c0.2,0.2,0.3,0.5,0.5,0.8c-0.3,0-0.7,0.2-1,0.1c-0.7-0.4-1.3-0.9-1.9-1.4
		c-1.3-1.1-2.7-2.2-4-3.4c0.5-0.8,1-0.8,1.8-0.1C81,66.1,81.5,66.6,82.2,67.2z"/>
	<path class="st1" d="M58.5,74c0.4-0.2,1-0.3,1.4-0.6c0.6-0.4,0.2-0.9,0-1.3c-0.1-0.2-0.1-0.5-0.2-0.8c0.3,0.1,0.7,0.2,0.9,0.4
		c0.3,0.3,0.4,0.8,0.5,1.2c0.3,1.1-0.3,1.8-1.4,2c-1.3,0.2-2.6-0.1-3.6-1c-0.3-0.2-0.6-0.4-1-0.6c-1.2-0.7-1.9-1.9-2.6-3
		c-0.4-0.6-0.4-1.6,0.2-2c0.6-0.4,1.5-0.5,2.3-0.5c0.6,0,1.2,0.4,1.7,0.7c0.1,0.1,0.2,0.3,0.3,0.5c-0.2,0.1-0.4,0.3-0.5,0.3
		c-0.5-0.1-0.9-0.3-1.4-0.4c-0.6-0.1-1.2-0.1-1.8-0.1c0.1,0.6,0,1.5,0.4,1.9c1.2,1.1,2.1,2.5,3.7,3C57.7,73.8,58,73.8,58.5,74z"/>
	<path class="st1" d="M88.2,75.9c-0.2,0.3-0.3,0.4-0.4,0.5c-0.2,0.3-0.5,0.8-0.8,0.3c-0.2-0.2-0.1-0.9,0.1-1c0.4-0.3,1-0.4,1.5-0.3
		c0.1,0,0.4,0.6,0.4,0.9c0.1,0.6,0.1,1.2,0.1,1.8c0,1.1,0.5,1.5,1.6,1.5c0.9,0,1.8-0.3,2.5,0.5c0.1,0.1,0.3,0.3,0.3,0.4
		c0,0.7,0.3,1.2,1.2,1.2c-0.9,0.8-1.8,0.6-2-0.3c-0.2-1-0.8-1.1-1.6-1c-2.1,0.2-2.9-0.6-2.8-2.7C88.3,77,88.2,76.5,88.2,75.9z"/>
	<path class="st1" d="M91.4,85.7c-0.6,0.8-1.4,0.8-1.7-0.1c-0.3-0.9-0.8-1.1-1.7-1c-1.6,0.1-2.7-0.9-2.8-2.5c0-0.3-0.1-0.6-0.2-1.1
		c-0.5,0.3-0.8,0.5-1.1,0.7c-0.3,0.2-0.7,0.3-1,0.3c0.4-1,1.6-1.7,2.4-1.4c0.4,0.1,0.7,0.8,0.7,1.1c-0.1,1.6,0.9,2.1,2.3,2.1
		c1.3,0,1.7,0.2,2.2,1.3C90.7,85.4,91.1,85.5,91.4,85.7z"/>
	<path class="st1" d="M97.7,79.6c-2.1,0.4-2.3-1.5-3.5-2c0-0.1,0.1-0.3,0.1-0.4c0.5,0,1-0.2,1.4,0c0.2,0.1,0.2,0.7,0.4,1
		c0.1,0.3,0.4,0.5,0.6,0.7C96.9,79.1,97.2,79.2,97.7,79.6z"/>
	<path class="st1" d="M140.6,95.5c-0.3-0.1-0.6-0.3-0.9-0.4c0.1-0.1,0.2-0.3,0.3-0.4c0.2,0,0.4,0,0.6,0c0-0.3,0.1-0.7,0.1-1.1
		c0.5,0.2,0.8,0.4,1.2,0.6C141.8,94.8,141.5,95.5,140.6,95.5C140.6,95.5,140.6,95.5,140.6,95.5z"/>
	<path class="st1" d="M138.1,98.2c0.2-0.1,0.3-0.3,0.5-0.4c0.2-0.1,0.4,0,0.7,0c0,0.2-0.1,0.4-0.1,0.6c0,0.1-0.1,0.3-0.1,0.4
		C138.7,98.6,138.4,98.4,138.1,98.2C138.1,98.2,138.1,98.2,138.1,98.2z"/>
	<path class="st1" d="M140.6,95.5c-0.3,0.3-0.5,0.6-0.9,0.9c-0.2-0.4-0.4-0.7-0.6-1.1C139.7,95.4,140.2,95.5,140.6,95.5
		C140.6,95.5,140.6,95.5,140.6,95.5z"/>
</g>
</svg>
