<?xml version="1.0" encoding="utf-8"?>
<!-- Generator: Adobe Illustrator 22.0.1, SVG Export Plug-In . SVG Version: 6.00 Build 0)  -->
<svg version="1.1" id="Layer_1" xmlns="http://www.w3.org/2000/svg" xmlns:xlink="http://www.w3.org/1999/xlink" x="0px" y="0px"
	 viewBox="0 0 255.1 255.1" style="enable-background:new 0 0 255.1 255.1;" xml:space="preserve">
<style type="text/css">
	.st0{fill:#4E5D44;}
</style>
<g>
	<path class="st0" d="M199.3,202.2c1.1,0,2-0.8,2.8-1.3c2.3-1.2,4.6-2.7,6.8-4c0.7-0.4,1.2-1,1.9-1.6c0.6-0.4,1.3-0.7,2-1
		c1.5-0.7,2.9-1.6,4.2-2.5c2.7-1.8,5.5-3.2,8.3-4.8c2.3-1.3,4.2-3,6.4-4.4c2.6-1.8,5.4-3.3,7.9-5.3c0.9-0.7,1-1.9,0-2.6
		c0.5,0.9-0.4,1.1-0.4,1.9c0,0.2-0.6,0.2-0.9,0c-0.3-0.2-0.1-0.4,0.1-0.6c0.1-0.1,0.4-0.1,0.2-0.3c-0.9-0.6-0.3-1.3-0.3-2
		c0-1.5,0-1.5,1.5-1.1c0.2,0.4-0.7,0.4-0.4,0.8c0.4,0.6,0.5-0.2,0.8-0.2c0.8,0.1,1.7,0.2,2.5,0.5c0.9,0.3,1,2.1,0.2,2.6
		c-0.7,0.4-1.1,0.9-1.6,1.6c-0.3,0.4-0.7,0.6-1.1,0.8c-1.2,1-2.5,2.1-3.9,2.9c-3.8,2.4-7.7,4.6-11.6,6.8c-2.5,1.5-4.9,2.9-7.4,4.5
		c-4,2.5-8.1,5.2-12.2,7.6c-4.9,2.8-9.8,5.3-14.4,8.5c-2.5,1.8-5.1,3.3-7.5,5.1c-0.9,0.7-1.1,0.6-1.7-0.3c-0.4-0.8-1.1-0.7-1.9-0.1
		c-1.2,1-2,2.6-3.4,3.4c-0.2,0.2-0.3,0.6-0.7,0.2c-0.2-0.3-0.3-0.5,0-0.8c0.7-0.7,1.5-1.6,2.2-2.3c-2.4,0.3-4.1,2.6-3.7,5
		c0.1,0.4,0.1,0.8,0.2,1.2c0.1,0.2,0.1,0.7,0.5,0.4c0.2-0.1,0.5-0.3,0-0.6c-0.4-0.2-0.1-0.5,0.1-0.7c2.2-1.1,3.9-3,5.9-4.5
		c0.1-0.1,0.2,0,0.3-0.1c0.3,1-0.2,1.9-1,2.3c-1.9,1.1-3.4,2.8-5.1,4.2c-0.4,0.4-0.9,0.7-1.5,0.9c-0.4,0.1-0.9,0.1-1.1-0.3
		c-0.2-0.4-0.6-0.8,0-1.2c0.3,0.2,0.1,0.5,0.2,0.7c0.2,0.3,0.4,0.4,0.7,0.2c0.2-0.2,0.5-0.3,0.3-0.6c-1-2.2-0.8-4.5-1.1-6.7
		c-0.2-1.2-0.2-2.6,0-3.8c0.1-0.8-0.8-0.5-1.1-1.3c1.7,1.1,2.4-0.3,3.4-0.9c1.6-0.9,2.9-2.3,4.6-3.1c0.3-0.1,0.5-0.3,0.5-0.6
		c0-0.4-0.4-0.3-0.5-0.5c-1-1-2.3-1.8-3.5-2.4c-0.1,0-0.2-0.3-0.1-0.4c0.1-0.3,0.5-0.3,0.6-0.1c1.3,1.2,3.1,1.7,4.2,3
		c0.6,0.6,1,0.5,1.7,0c1.6-1.3,3.2-2.4,5-3.4c0.2-0.1,0.9-1.1,1.2,0.2c0,0.2,0.9-0.1,1.2-0.4c2.2-1.9,4.9-3,7.1-4.6
		c1.1-0.7,2.5-1.3,3.6-2.2c2.1-1.7,4.6-2.8,6.5-4.5c1.5-1.1,3.4-1.3,4.6-3c0.2-0.3,1.1-0.6,1.8-1c2.5-1.5,4.6-3.3,6.9-4.8
		c3.6-2.4,7-5.1,10.6-7.6c1.5-1,2.7-2.2,4.1-3.2c0.4-0.3,0.9-0.6,1.3-0.7c2-0.6,2.6-2.2,1.7-4.1c-0.8-1.8-2.2-3-3.7-4.4
		c-2.9-2.5-6.2-4.1-9.2-6.4c-1.7-1.2-3.5-2.2-5.4-3.2c-1.6-0.8-3.3-1.7-4.7-2.7c-2-1.6-4.2-2.4-6.1-3.9c-0.3-0.2-0.7-0.2-1-0.4
		c-1.5-0.9-2.7-2.1-4-2.9c-1.6-0.9-3-1.9-4.7-2.7c-3.5-1.9-6.8-4-10.2-6.2c-1.5-1-3-2-4.6-2.8c-0.8-0.5-1.8-1.2-2.6-1.7
		c-2.1-1-3.7-2.5-5.6-3.6c-1.7-1-3.3-2.2-5.2-3c-1.1-0.5-2.7-1-3.5-1.9c-1.1-1.2-2.5-1.9-3.8-2.7c-0.9-0.5-1.9-1-2.8-1.6
		c-3.7-2.4-7.9-4.1-11.7-6.2c-2.3-1.2-4.7-2-7.4-0.3c-2.8,1.6-5.7,2.9-8.5,4.4c-4.5,2.4-9.1,4.6-13.8,6.5c-2.3,0.9-4.6,2.2-6.8,3.2
		c-2.6,1.1-5.2,2.4-7.7,3.6c-3,1.5-6,2.9-8.8,4.7c-1.8,1.1-3.8,1.8-5.7,2.9c-0.4,0.2-0.8,0.3-1.2,0.6c-0.2,0.2-0.9,0.3-0.5,0.6
		c0.2,0.2-0.5,1.6,0.7,0.8c0,0,0.2,0,0.2,0.1c0.9,1.8,2.6,2.9,4.1,4.1c1.6,1.2,3,2.7,4.7,3.8c3.7,2.6,7,5.6,10.8,8.1
		c2.4,1.7,4.8,3.3,7.1,5c3.2,2.3,6.1,5,9.4,7c1.5,0.8,2.7,2.1,3.9,3.2c3.1,2.8,6.5,5.2,9.8,7.7c2.4,1.9,4.8,3.8,7.1,5.7
		c2.6,2,5.3,3.8,7.9,5.7c3.2,2.3,6.3,4.8,9.5,7c2.3,1.7,4.7,3,6.9,4.6c1.3,0.9,2.7,1.9,4,2.8c0.5,0.4,0.2,0.5,0,0.8
		c-0.1,0.1-0.1,0.3-0.3,0.1c-0.1-0.1,0-0.3-0.1-0.3c-1.1-0.4-1.9-1.6-3.3-1.6c-1,0-1.7-1.1-2.5-1.8c-1.3-1-2.8-2-4.2-3
		c-2.3-1.7-4.6-3.3-6.8-5c-3.4-2.5-6.9-4.8-10.3-7.4c-3.7-2.9-7.3-6.1-11.1-9c-1.3-1-2.8-2.1-4.1-3c-2-1.3-3.7-3-5.5-4.7
		c-1.9-1.8-4-3-6.1-4.6c-0.6-0.5-1.2-1-2-1.6c-2.7-1.8-5.2-3.8-7.8-5.7c-2.7-1.9-5.4-3.8-8-5.7c-2.3-1.7-4.5-3.5-6.7-5.3
		c-1.1-0.8-2.4-1.5-3.3-2.3c-1-0.9-2.4-1.5-3.5-2.5c-0.9-0.9-2-2-3.3-2.5c-0.6-0.2-2.8,0.2-3.4,0.6c-0.8,0.5-1.5,1.3-2.1,2.1
		c-0.3,0.5-0.7,1.1-0.8,1.8c-0.2,0.9,0.5,1.5,1.1,2c1.8,1.6,3.8,2.8,5.7,4.2c2.3,1.7,4.6,3.4,6.7,5.3c1,0.8,1.8,2.1,3,2.8
		c0.4,0.2,0.6,0.6,1.1,0.5c0.1,0,0.2,0,0.3,0c-0.2,1.3,1.2,1,1.9,1.5c0.7,0.5,1.5,1.1,2.1,1.7c1.5,1.1,3,2.1,4.5,3.3
		c1.9,1.6,4,2.7,5.9,4.4c2,1.7,3.9,3.4,6,5c2.7,2.1,5.2,4.4,8.1,6.2c1.7,1,3.3,2.3,4.7,3.6c1.5,1.3,2.9,2.8,4.4,4.1
		c2.7,2.5,5.7,4.6,8.6,6.7c3.1,2.4,6.3,4.7,9.5,6.9c0.9,0.7,1.9,1.5,2.8,2c1.7,0.8,2.9,2.2,4.5,3.1c1.1,0.6,2.2,1.5,3.2,2.3
		c0.8,0.7,1.5,1.8,2.5,2.3c0.4,0.1,0.5,0.4,0.4,0.7c-0.2,0.4-0.6,0.1-0.8,0c-1.2-0.3-2.2-1.2-3.1-2c-1.9-1.9-4-3.2-6.2-4.8
		c-2.5-1.8-5.1-3.5-7.6-5.3c-1.3-0.9-2.5-2-3.8-3c-2.4-1.8-4.8-3.5-7.3-5.3c-1.7-1.1-3-2.6-4.5-3.8c-1.1-0.9-2.1-2.1-3.2-2.9
		c-1.5-1.1-2.8-2.4-4.4-3.4c-1.9-1.3-3.8-2.8-5.7-4.2c-1.5-1.2-3.2-2.4-4.7-3.7c-1.5-1.5-3.3-2.4-4.7-3.8c-1-1.1-2.6-1.7-3.8-2.6
		c-0.9-0.7-2-1.2-2.8-2.1c-0.9-0.8-2.2-1.2-3.1-2.1c-1-0.8-2.1-1.6-3.1-2.5c-0.8-0.7-1.9-1.3-2.9-2.1c-1.3-0.9-2.7-2.1-4.1-2.9
		c-0.6-0.4-1.6-0.7-1.7-1.7c-0.1-0.7-0.6,0-0.9-0.3c-1.7-1.7-3.8-2.8-5.7-4.1c-0.7-0.5-1.2-1.5-2.3-1.7c-0.3-0.1,0-0.7-0.5-0.5
		c-0.3,0.1-0.2,0.5-0.2,0.7c0.1,2-0.1,3.9,0.2,5.9c0,0.2,0,0.3,0.2,0.5c3.3,2.5,6.8,4.9,10.3,7.3c2.3,1.6,4.5,3.4,6.6,5.1
		c3.8,2.9,7.7,6,11.7,8.7c6,4.1,11.7,8.7,17.6,12.8c2.1,1.5,4,3,5.9,4.7c5.1,4.7,10.7,8.7,16,13.1c3,2.6,6.3,4.7,9.4,7
		c2.3,1.7,4.5,3.4,6.8,5c1.1,0.7,2.2,1.7,3.3,2.5s2.5,1.3,3.8,1.9c0.3,0.1,0.7,0.1,0.5,0.6c-0.1,0.4-0.4,0.7-0.8,0.6
		c-1-0.4-2.4-0.1-2.9-1.3c0-0.1-0.1-0.2-0.2-0.1c-1.6,0.1-2.3-1.5-3.5-2c-0.8-0.4-1.3-1.3-2.2-1.9c-1.1-0.6-2.1-1.2-3.2-2
		s-2.1-1.7-3.1-2.5c-1.7-1.3-3.4-2.3-5.1-3.7c-1.2-1-2.6-2.2-3.9-3.1c-1.3-1-2.6-2.3-4-3.2c-0.6-0.4-1-0.9-1.7-1.3
		c-1.3-0.9-2.4-2.3-3.7-3.1c-1.3-0.8-2.5-1.9-3.6-2.8c-1.1-0.8-2.3-1.9-3.3-2.9c-2.3-2.2-4.9-4.1-7.6-5.9c-2-1.3-3.8-2.9-5.8-4.5
		c-1.2-0.9-2.7-1.8-3.8-2.9c-1.3-1.2-3-2.2-4.5-3.4c-0.9-0.8-2.4-1.3-3.5-2.2c-2.4-1.7-4.6-3.4-6.7-5.3c-1.2-1-2.8-1.7-3.8-2.8
		c-1-1.2-2.9-1.1-3.5-2.8c-0.1-0.3-0.8-0.1-1.2-0.5c-2.2-1.8-4.6-3.2-6.9-4.8c-1.5-1-3.1-2-4.4-3.2c-0.6-0.6-0.5-1.9-0.8-2.8
		c-0.7-3.3-0.1-6.6,0.1-9.8c0.2-2.1,1.6-3.9,3.2-5.2c0.5-0.4,1.5-0.5,2.3-0.6c2.6-0.6,5.3-0.7,7.8-2.3c-1.3-1.3-2.7-2.8-4.7-3.1
		c-0.2,0-0.3,0-0.5-0.1c-0.4-0.3-1-0.6-1-0.9c-0.1-0.4,0.6-0.6,1-0.9c1.7-1.3,3.4-2.5,5.2-3.6c0.4-0.2,0.7-0.5,1.2-0.5
		c0.4,0,0.7-0.2,1-0.4c2.1-1.3,2.6-1.2,4.6,0.2c1.2,0.9,2.2,2.1,3.4,3c0.5,0.4,1,0.5,1.5,0.2c0.9-0.6,2-0.9,3-1.3
		c0.8-0.4,0.2-0.6,0.1-0.8c-0.1-0.2-0.4,0-0.6-0.4c-0.7-1.2-0.7-1.8,0.8-2.4c1.2-0.5,2.2-1.3,3.2-2.1c1.5-0.9,2.9-1.8,4.4-2.7
		c0.3-0.2,0.5-0.1,0.8,0.1c0.6,0.4,1.3,0.3,2,0.3s1.2,0.1,1.8,0.7c0.6,0.6,1.3,0.8,2.1,0.3c1.2-0.7,2.5-1.3,3.8-1.9
		c0.8-0.3,0.2-1.2,0.1-1.9c-0.1-0.6-0.7-0.9-1.1-1.1c-0.6-0.4-0.6-0.7,0-1c1.5-0.8,2.8-1.9,4-3.1c-0.5-0.3-1,0.4-1.5,0.1
		c0.3-0.8,0.3-0.8-0.8-1.9c0.1-0.3,0.4-0.4,0.6-0.4c1.5-0.3,2.6-0.9,3.5-2.1c1-1.2,2.5-1.9,3.6-3.1c0.3-0.3,0.3-0.8,0.8-1
		c1-0.5,1.7,0.1,2.2,0.6c1.5,1.3,2.9,2.7,4.4,4.1c0.5,0.5,1.1,0.8,1.6,1.6c0.3,0.5,0.7,0.3,1.1,0.1c0.5-0.2,1-0.2,1.6-0.4
		c2-0.8,3.3,0.7,4.8,1.5c2,1.1,3.8,2.6,6,3.4c1.5,0.6,2.7,1.7,4.1,2.3c2.1,0.7,3.8,2.4,6,3c0.9,0.3,1.8,1,2.6,1.7
		c2,1.5,4,2.5,6.1,3.6c1.1,0.6,2.3,1.2,3.3,2.3c0.7,0.7,1.9,1.3,2.8,1.7c1.1,0.4,1.8,1.2,2.8,1.7c2.2,0.9,3.8,2.6,6,3.5
		c1.2,0.5,2.3,1.6,3.4,2.4c1.8,1.3,3.8,2,5.6,3.3c1.1,0.9,2.7,1.1,3.7,2.3c1.3,1.3,3.2,2,4.9,3s3.3,2,5,3.1c1.1,0.8,2.4,1.6,3.5,2.4
		c1.8,1.2,4,1.8,5.8,3c0.7,0.5,1.3,0.9,2.1,1.5c2.3,1.6,4.9,2.6,6.8,4.4c1,0.9,2.2,1.8,3.2,2.3c2.5,1.3,4,3.7,6.4,5.1
		c1.5,0.8,1.6,1.6,0.9,3.1c-0.2,0.6-0.5,1,0.3,1.5c0.5,0.3,0.6,1-0.2,1.5s-1.7,0.7-1,2c0.1,0.3-0.2,1-0.5,1.2
		c-0.5,0.4-0.9-0.4-1.6-0.4c-0.3,0,0.6-0.6,0.3-1.3c-0.4,1-1.7,0.2-2,1.2c0,0-0.1,0-0.1,0.1c-0.4,0.3-0.8-0.1-1.1,0.1
		c-0.5,0.2,0.6,0.7,0,0.8c-0.9,0.1-1.3,1.5-2.8,0.8c0.7,0.9,0.5,1.2-0.3,1c-0.7-0.1-0.9,0.5-1.6,0.7c0.3,0.2,0.6-0.1,0.7,0.2
		c0.2,0.3-0.1,0.4-0.3,0.5c-1,0.4-1.7,1.9-3.1,1.6H227c-0.1,1.8-2,1-2.8,2c-0.8,0.8-2.1,1.3-3.1,2.1c-0.5,0.4-1.5,0.5-1.6,1.5
		c0,0,0,0.1-0.1,0.1c-1.1-0.2-1.3,1-2.1,1.5c-0.7,0.3-1.8,0.8-2,1.1c-1,2-3.3,1.8-4.6,3.1c-1,1.1-2.4,1.7-3.6,2.4
		c-4.2,2.6-8.5,5.4-12.8,7.8c-0.4,0.2-0.8,0.6-1.2,1c0.5,0.1,0.8-0.1,1.1-0.2c0.1-0.1,0.2-0.4,0.3-0.2c1,1.1,2-0.1,2.5-0.5
		c2.5-1.9,5.3-3.3,7.9-4.9c2.5-1.5,5-3,7.4-4.7c2-1.5,4.2-2.4,6.1-3.9c0.5-0.4,1.1-0.1,1.8-0.6c0.5-0.4,0.8-1.3,1.8-1.5
		c0.7-0.1,1.5-0.7,2.1-1.3c0.5-0.5,1.1-0.9,1.9-1.1c1.3-0.5,2.4-1.5,3.5-2.4c0.2-0.2,0.4-0.4,0.7-0.5c0.5-0.1,1-0.3,1.6-0.1
		c-0.3,0.5-0.7,1-1.3,1.1c-0.5,0.1-1.2-0.2-0.9,0.8c0,0.1-0.3,0.2-0.5,0.1c-0.6-0.1-1,0.3-1.1,0.7c-0.1,0.7-0.5,0.5-0.8,0.6
		c-1.6,0.6-2.7,1.8-4,2.6c-0.8,0.5-1.6,1.1-2.4,1.8c0.8,0.3,1.6,0.4,2-0.5c0.2-0.4,0.6-0.7,0.9-0.6c0.5,0,0.4-0.2,0.5-0.4
		c0.2-0.4,0.6-0.7,1.1-0.8c1-0.1,1-0.1,1.5-1c0.3-0.5,0.9-0.4,1.5-0.4s0.6,0,0.6-0.6c-0.1-0.9,1-0.4,1.5-0.9
		c0.3-0.3,0.6,0.2,0.7,0.4c0.3,0.5-0.1,0.6-0.5,0.6s-0.9-0.1-0.7,0.7c0.1,0.3-0.3,0.5-0.7,0.5c-0.9,0.2-1.6,0.7-2.3,1.2
		c-0.8,0.5-1.6,1.2-2.5,1.5c-0.6,0.2-0.7,0.7-1.2,0.9c-0.7,0.3-1.5,0.9-2.4,0.5l0,0c-0.7-1.1-1.7-0.2-2.2,0
		c-0.7,0.4-1.5,1.2-0.5,2.2l0,0c0,0.3,0,0.7-0.4,0.3c-0.3-0.3-0.4-0.8-0.6-1.1c-1.7,0.6-3,2-4.6,2.9c-2.4,1.3-4.2,3.4-6.9,4.1
		c-0.9,1.7-2.9,1.8-4.2,2.7c-1.3,1-2.7,2.3-4.5,2.6c-0.5,0.1-0.1,0.6-0.5,0.8c-1.5,0.8-2.8,2-4.1,2.8c-2.4,1.5-4.6,3.2-6.8,4.7
		c-0.7,0.5-1.5,1-2.3,1.6c-0.4,0.3-0.6,0.6-0.5,1.1c0.1,0,0.3-0.1,0.3-0.1c0.4,0.3,0.7-0.8,1-0.1c0.3,0.7-0.6,0.6-0.9,1
		c-0.1,0.2-0.7-0.4-0.7,0.3c0,0.3,0,0.5,0.4,0.6c0.5,0,1.1-0.1,1.1-0.5c-0.1-0.7,0.3-0.8,0.6-1c4.7-2.9,9.2-5.9,14-8.6
		C198.9,202.7,199.2,202.5,199.3,202.2L199.3,202.2z M188.6,203.2c-1.1,0.3-2.5,0.7-3.1,1.7c-0.7,1.1-2,1.2-2.8,2.1
		c-0.4,0.4-1.2,0.8-1.9,1.3c0.7-0.6,0.9,0.9,1.7,0.2c1.9-2,4.2-3.3,6.2-5.2c1-0.4,1.8-1.3,2.7-2.1
		C190.4,201.7,189.2,201.9,188.6,203.2z M102.4,125.8c-0.5,0-1.1,0.1-1.5-0.3c-0.5-0.6-1.2-1-2-1.6c-1-0.7-2-1.8-3.5-1.1
		c-2.8,0.9-5.2,2.8-8,3.9c0.4,0.5,0.7,0.6,1.1,0.6c1.2,0.1,2.1,0.8,2.9,1.5c2,1.6,2,1.7,4.1,0.4c0.3-0.2,0.6-0.3,1-0.5
		C98.5,127.8,100.5,126.8,102.4,125.8z M133.8,106.5c-1.9,0-3.5,0.6-4.9,2.2c-0.5,0.5-1,0.9-1.6,1.3c-0.6,0.5-1.7,0.7-1.8,1.5
		c-0.1,0.7,1.1,0.8,1.7,1.5c0.7,0.7,1.6,0.7,2.5,0.2c0.5-0.3,1.1-0.5,1.7-0.8c1.8-1,3.5-2.1,5.4-3c0.5-0.2,0.6-0.5,0.1-0.7
		c-0.8-0.3-1.3-0.9-1.9-1.6C134.9,106.8,134.6,106.3,133.8,106.5z M131.3,104.8c0.6-0.3,1.2-0.6,1.9-0.9c1.1-0.6,1.8-0.3,2.4,0.6
		c0.5,0.7,0.7,1.6,1,2.3c0.7,1.7,1.6,1.9,2.8,0.4c0.3-0.4,0.6-0.3,1-0.3c0.3,0,0.8,0.3,0.9-0.2c0.1-0.3-0.3-0.5-0.7-0.5
		c-0.1,0-0.3,0-0.3-0.1c-1.1-2-3.4-2.7-5-4.1c-0.3-0.3-0.6-0.2-1,0C133,102.4,132.5,103.9,131.3,104.8z M116.4,118.8
		c0.3,0,0.6,0,0.8,0c0.5-0.1,1-0.4,1-0.8c0-0.5-0.5-0.6-1.1-0.6c-0.7,0.1-1.3,0.2-2,0.6c-2.1,1.2-4.1,2.5-6.3,3.7
		c-0.2,0.1-0.6,0.2-0.3,0.6c0.2,0.3,0.4,0.3,0.7,0.2c0.7-0.3,1.7-0.5,2.4-1c1.2-0.9,2.9-0.8,4-2.1
		C115.8,119.1,115.8,118.3,116.4,118.8z M174.3,215.1c1-1,2.3-1.7,3.4-2.5c0.6-0.4,0.9-0.8,0.4-1.6c-0.3,0.7-0.8,1.2-1.6,1.5
		c-0.3,0.1-0.8,0.1-0.8,0.5c0.1,0.7-0.4,0.6-0.7,0.7C174.1,213.9,174,214.3,174.3,215.1z M178.3,207.5c1.1,0.4,1.6-0.4,2.3-0.6
		c0.5-0.1,0.4-0.4,0.3-0.7c-0.1-0.4-0.4-0.2-0.7-0.1C179.5,206.4,179.2,207.3,178.3,207.5z M174.6,211.9c0.4-0.2-0.6-0.5,0.2-0.7
		c0.4-0.1,0.7-0.2,0.3-0.6c-0.2-0.2-0.4-0.6-0.9-0.3C173.3,210.9,173.3,211.1,174.6,211.9z M132.1,106c0.5-0.1,1-0.2,1.5-0.1
		c0.2,0,0.4,0,0.4-0.3c0-0.2-0.1-0.4-0.2-0.5c0,0-0.3,0-0.4,0.1C132.9,105.4,132.5,105.7,132.1,106z"/>
	<path class="st0" d="M29.8,146c-0.1-1.9,0.1-3.4-0.2-5c-0.1-0.5-0.3-0.6-0.6-0.8c-2.7-1.6-5.1-3.6-7.7-5.2c-0.8-0.5-1-1.7-1-2.6
		c0.1-1.5-0.4-2.8-0.6-4.2c-0.5-4.6-0.9-9.1-0.8-13.7c0-1,0.1-2.1-0.5-3c-0.4-0.7,0.2-2.5,1-3c0.7-0.5,1-1.3,1.9-2
		c1.1-0.9,2.2-1.3,3.7-1.1c1.2,0.1,2.3,0.4,3.3,1.1c0.3,0.2,0.6,0,0.6-0.3c0-4.2,2.6-6.1,6.2-7.4c2-0.7,4.1-0.9,6-1.9
		c1-0.3,2.2,0,3.2,0c3.5,0,7,0,10.6,0.4c1.1,0.1,2.3,0,3.3,0.3c2.8,0.7,5.6,0.9,8.3,2c1.1,0.4,2.5,0.6,3.5,1.2
		c1.3,0.8,2.8,1.5,3.6,2.9c0.4,0.7,1.1,1.1,1.7,1.8c0.4,0.5,1.5,0.4,2.3,0.5c0.6,0.1,1,0,1.2,0.6c0.1,0.7,0.4,1.3-0.3,2.1
		c-2.5,2.5-5.4,4.6-7.4,7.6c-1,1.6-1.6,3.3-2,5.2c-0.2,1,0.6,2.2-0.4,3c0.5,3.6-0.1,7.3-0.1,10.9c0.1,3.9,0.3,7.9-0.4,11.8
		c-0.6,3.1-2.3,5.3-5.1,6.6c-0.3,0.2-0.5,0.4-0.7,0.6c-0.3,0.4-0.6,0.6-1.2,0.5c-0.7-0.1-1.6,0.3-2.2,0.6c-2.4,1.1-4.9,1.9-7.6,2
		c-1.3,0.1-2.7,0.4-4.1,0.4c-2.6-0.1-5.2-0.1-7.7-0.9c-0.7-0.2-1.2-1.1-2.2-0.8l-0.2-0.1c0.3-1.2-0.8-0.7-1.2-0.9
		c-1.7-0.6-2.9-1.8-4.2-2.9c-0.4-0.3-0.4-1.1-1.3-0.8c-0.4,0.1-0.7-0.8-0.7-1.5C29.7,148.5,29.8,147.2,29.8,146z M30.2,132.6
		c0.3,0.6,1.1,0.4,0.9,1.1c-0.4,1.7,0.2,3.3,0.1,5.1c-0.1,1.6-0.1,3.1,0,4.6s0.2,3,0.1,4.5c-0.1,1.8,0.4,3.2,2,4.2
		c3.2,2.2,6.6,3.6,10.4,4.1c0.7,0.1,1.6,0.6,2.2,0.4c1.2-0.3,2.5-0.1,3.8-0.2c2.5-0.2,5-0.4,7.4-1.3c2-0.7,3.6-1.9,5.5-2.7
		c2.3-1,3.7-2.8,4.4-5.2c0.7-3,0.4-6.1,0.5-9.2c0.1-3.4-0.2-6.8,0.1-10.3c0.1-0.7,0.1-1.7,0-2.3c-0.3-2.3,0.3-4.4,0.8-6.4
		c0.2-1.2,1-2.4,1.8-3.5c1.7-2.4,3.8-4.4,6.1-6.1c0.3-0.2,0.7-0.3,0.8-0.8c-0.2,0-0.4-0.1-0.6-0.1c-1.7,0.1-3.4-0.1-5,0.4
		c-1.5,0.4-2.9-0.2-4.4,0.9c-1.2,0.9-3.1,1.2-4.8,1.5c-1.5,0.2-3,0.3-4.5,0.4c-2.4,0.2-4.8,0.2-7.1,0.2c-1.6,0-3.2-0.2-4.8-0.2
		c-4.1-0.1-8.1-0.7-12.1-1.5c-0.8-0.1-1.5-0.7-2.2-0.9c-0.4-0.1-0.7-0.6-1.1-0.3c-0.4,0.3-0.1,0.8,0,1.1c0.1,0.6,0.1,1.2,0,1.9
		c-0.2,1.1-0.3,2.4-0.1,3.3c0.3,2,0.1,3.9,0.7,5.8c0.2,0.7-0.7,0.5-0.4,0.7c1,0.5,0.5,1.5,0.5,2.2c0.1,2.7,0.1,5.3,0.1,8
		C31.2,132.6,31.1,133,30.2,132.6z M74.1,106.9c-0.1-0.5-0.5-0.5-0.8-0.8c-0.7-0.5-2-0.8-1.9-1.9c0.1-1.3-0.3-1.8-1.7-2.2
		c-3.2-1.2-6.4-2.3-9.7-2.9c-3.5-0.6-6.9-1.3-10.5-1.2c-1.9,0-3.8-0.1-5.8-0.2c-2.3-0.1-4.2,1-6.4,1.5c-2.3,0.4-4.1,1.5-6,2.6
		c-0.9,0.5-1.1,1.3-1.2,2.2s0.5,1.7,0.5,2.5c0,0.8,0.5,1.7,1.1,1.8c4,0.9,8.1,1.9,12.3,2.2c3.3,0.2,6.6,0.2,9.9,0.2
		c2.9,0,5.8-0.1,8.5-1.1c0.9-0.3,2-0.2,2.9-0.6c2.2-0.9,4.5-1.6,6.8-1.6C72.8,107.3,73.5,107.2,74.1,106.9z M29,111.5
		c-1.2-0.7-2.7-0.9-4-1.3c-0.6-0.2-0.7,0.2-0.6,0.6c0.1,1.5,0.2,2.9,0.3,4.4c0.1,5.3-0.3,10.7,0.5,16c1.8-0.3,2.5,1.5,3.8,2.1
		c0-0.2,0.1-0.4,0.1-0.6c0.2-2.5-0.1-5,0.1-7.5c0.1-1.2,0.2-2.5,0-3.7c-0.2-1-0.3-2.1-0.4-3.1c-0.1-1.8,0.1-3.6-0.1-5.5
		C28.6,112.5,28.4,111.8,29,111.5z M28.8,137.2c0.3-1.1,0.1-1.9-0.9-2.5c-1-0.6-2.1-1.2-2.9-2.1c-0.5-0.5-1.2-0.9-1.3-1.6
		c-0.3-2-0.4-3.9-0.5-5.9c0-0.6-0.1-1.5,0.7-2c0.5-0.3,0.3-1.3-0.1-1.3c-0.9-0.1-0.9-0.9-0.8-1.3c0.1-0.7,0.1-1.5,0-2.1
		c-0.2-0.8,0.2-1.6-0.1-2.3c-0.3-0.5,1-0.9,0.1-1.5c0.6-1.5-0.3-3,0.1-4.6c0.1-0.6-0.7-0.5-1.1-0.8c-0.3-0.2-0.5,0-0.7,0.4
		c-0.4,0.8-0.6,1.8-0.7,2.7c0,0.7,0.4,1.5,0.3,2.1c-0.3,3.6,0,7.2,0.2,10.8c0.1,1.9,0.1,3.8,0.2,5.7c0,0.8,0.2,1.6,0.9,2.1
		c1.7,1.3,3.4,2.4,5.4,3.2C28,136.4,28.4,136.6,28.8,137.2z M23.4,106.1c-0.6,0.3-1.5,0.1-1.6,0.9c0,0.8,0.8,0.6,1.2,0.7
		c1.3,0.2,2.8,0.5,4.1,0.8c0.3,0.1,0.6,0.1,0.8,0c0.2-0.1,0.6-0.2,0.6-0.5c0.1-0.4-0.2-0.5-0.5-0.6
		C26.6,107.1,24.9,106.5,23.4,106.1z"/>
	<path class="st0" d="M85.6,188.4c-1.2-0.1-2.5-0.1-3.6-0.7c-0.6-0.3-1.5-0.1-2.3-0.3c-2.1-0.3-4.1,0-6.1-0.9
		c-0.4-0.2-1-0.2-1.5-0.2c-1.9,0.1-3.4-0.8-5.2-0.9c-2.2-0.2-4.5-0.8-6.5-1.2c-2.8-0.5-5.5-1.5-8.4-2c-1.9-0.3-3.8-0.7-5.7-0.8
		c-2.7-0.1-5.3-0.7-7.9-1.2c-3.7-0.7-7.5-1-11.1-2.2c-1.1-0.4-2.4-0.2-3.6-0.5c-2.3-0.5-4.4-1.5-6.6-1.9c-0.6-0.1-0.1-1.1-0.4-1.8
		c-0.3-0.7,0.1-1.5,0.7-2c1.6-1.2,3.3-1.9,5.3-1.7c0.5,0,1-0.2,1.6-0.2c2.9,0,5.5,1.1,8.3,1.7c2.3,0.4,4.6,0.7,6.8,1
		c3,0.5,5.9,1.5,8.9,1.9c4.4,0.6,8.7,1.5,13.1,2.2c5.6,0.9,11.3,1.9,16.9,3.1c2.7,0.6,5.5,1.6,8.4,1.6c0.7,0,1.3-0.1,1.9-0.7
		c0.6-0.8,1.6-0.9,2.6-1.1c1.5-0.2,2.8,0,4.2-0.1c0.7,0,1.5,0.1,2.2,0.2c1,0.1,2.2,0.3,3.3,0.2c2-0.2,3.8,0.3,5.8,0.6
		c1.2,0.2,2.6,0.3,3.9,0.7c2,0.6,4,0.9,5.7,2.1c0.8,0.5,1.6,1.3,2.2,2.1c0.9,0.9,2.2,1.7,2.7,2.9c0.7,1.6,1.5,3.3,1,5.1
		c-0.3,0.9-0.9,1.9-1.8,2.4c-2.1,1.2-4.4,2.2-6.7,2.2c-3.8,0-7.8,0-11.6-1c-2.8-0.8-5.7-1.7-8.3-3.1c-0.4-0.3-0.9-0.5-1.2-0.9
		c-1.3-1.2-3.3-1.5-4.6-2.8c-0.4-0.4-0.4-1.5-1.5-1.5C86.3,188.3,86,188.6,85.6,188.4z M89.4,186.2l0.1,0.1c1.1,0.6,1.8,2,3,2.3
		c0.9,0.2,1.3,0.7,2,1.2c1.2,0.9,2.7,1.7,4.4,1.9c0.4,0.1,1.3,0.3,1.3,0.4c-0.4,0.7,0.4,0.7,0.5,0.6c1.3-0.3,2.5,0,3.6,0.6
		c0.1,0.1,0.5,0.1,0.6,0.1c0.7-0.8,0.8,0.1,1.2,0.4c0.3,0.3,0.8,0.7,1.1,0.7c1-0.3,1.8,0.4,2.7,0.5c0.5,0,1.7-0.4,1.7,1.2
		c0.3-1,0.3-0.9,0.7-0.6c0.5,0.3,1,0.5,1.7,0.4c0.3-0.1,0.4-0.1,0.2-0.4c-0.1-0.2-0.1-0.4,0.1-0.5c0.2-0.1,0.4,0.1,0.5,0.2
		c0.4,0.5,0.8,0.6,1.5,0.2c0.3-0.2,0.7-0.1,1-0.7c0.3-0.6,0.5,1,1,0.4c0.3-0.4,0.1-1,0.9-0.8c0.1,0,0.2,0.1,0.2,0
		c0.1,0,0.2,0.1,0.3-0.1c0.3-0.7,0.5-1.6,1.5-1.9c0.3-0.1,0.5-0.6,0.4-1c-0.3-0.9-0.6-1.9-1.2-2.7c-1-1.6-2.6-2.6-4-3.8
		c-0.4-0.4-0.7-0.8-1.3-1c-2.5-0.8-5-1.6-7.6-2.1c-1.7-0.4-3.4-0.2-5.1-0.5c-3.4-0.5-6.8-0.1-10.3,0.1c-0.2,0-0.6,0-0.5,0.3
		c0.2,0.8-0.5,0.7-0.8,0.9c-0.6,0.4-1.9,0.2-1.6,1.7c0,0.1-0.5,0.4-0.7,0.4c-0.3,0-0.6-0.3-1.3-0.6c1.1,0,1.2-0.7,1.1-1
		c-0.2-0.5-0.6,0-0.8,0.2c0,0-0.1-0.1-0.2-0.1c-1.7-0.1-3.1-0.8-4.8-1c-2.9-0.5-5.7-1.2-8.6-1.9c-3.4-0.7-6.8-1.6-10.3-2.2
		c-2.3-0.4-4.5-1-6.7-1.1c-2.8-0.1-5.6-0.5-8.4-0.9c-3-0.5-5.9-1.6-8.9-1.7c-1.8-0.1-3.4-0.4-5-0.9c-3-0.9-5.9-2.1-9.1-2.1
		c-1.5,0-2.9,0.2-4.4,0.3c-0.9,0.1-2.4,0.6-2.3,1.2c0.1,0.9,1.2,1.6,2.4,1.7c0.7,0.1,1.6,0.2,2.3,0.3c4,0.8,8.1,1.2,12.1,2.3
		c3.2,0.7,6.5,1.2,9.8,1.7c2.9,0.4,5.8,1.1,8.7,1.8c2,0.4,4,0.5,6,1.1c1.8,0.5,3.6,0.9,5.5,1.1c4.2,0.6,8.3,1.7,12.5,2.4
		c2.4,0.4,4.8,0.6,7,1.2c0.9,0.3,1.9-0.9,2.6,0.1c0,0,0.2,0,0.2-0.1C88.2,185.3,88.8,186,89.4,186.2z"/>
	<path class="st0" d="M189.9,170c-0.6,0.6-1.1,1.1-0.8,2.1c0.1,0.3,0,0.4-0.2,0.5c-1.1,0.3-1.7,1.5-2.5,2.1
		c-0.8,0.6-1.3,2.2-2.8,1.8l-1.5,1.3c-0.5,0.2-0.9,0.6-1.6,0.6c-1.3,0.1-2.5,0.6-3.6,1.2c-2,1.1-4.2,0.8-5.9-0.8
		c-1.1-1.1-2.9-1.6-3.8-2.9c-0.3-0.4-0.8-0.7-1.1-1.1c-0.5-0.6-0.9-1.3-1.8-1.8c-0.7-0.4-1.5-1-1.1-2.2v-0.1c-0.3-1-0.2-0.9,0.8-2.4
		c1-1.6,2.6-2.5,3.9-3.8c0.9-0.9,1.9-2,3-2.3c3.6-1,5.7-4.4,8.9-5.9c0.2-0.1,0.4-0.4,0.7-0.5c2.9-0.5,4.1-3.1,6.1-4.9
		c2.2-2.1,4.2-4.1,6.7-5.9c1.1-0.8,2.2-1.7,3.2-2.6c0.5-0.4,1-0.4,1.7-0.3c0.6,0.1,1.2,0.3,1.5,0.7c0.2,0.5-0.5,0.6-0.8,0.9
		c-1.5,1.8-3,3.3-4.5,4.9c-1.2,1.3-2.4,2.9-3.8,3.9c-1.5,0.9-1.7,2.9-3.4,3.5c-0.3,0.1-0.2,0.4-0.1,0.6c1.9,2.1,3.6,4.2,5.5,6.3
		c1.2,1.5,1.7,2.9,1,4.7c-0.1,0.3-0.2,0.4-0.7,0.3c-0.4-0.1-0.2,0.4-0.4,0.5c-0.2,0.1-0.3,0.5-0.7,0.2c-0.2-0.2-0.3-0.5-0.1-0.7
		c0.7-0.6,1.1-1.5,0.7-2.3c-0.5-1.1-1-2.3-2-3c-1.8-1.2-3.1-3.1-4.6-4.7c-0.2-0.2-0.4-0.4-0.5-0.6c-0.5-0.5-0.8-0.8-1.5,0
		c-0.9,1.2-2.2,2.2-3.4,3.2c-1.7,1.3-3.3,2.7-5.1,3.9c-2.5,1.7-4.9,3.6-7.6,5.1c-0.5,0.3-1,0.6-1.6,0.9c-0.5,0.3-1.5,0.4-1.2,1.1
		c0.1,0.6,0.8,1.2,1.5,1.5c0.6,0.1,1,0.4,1.3,0.8c1,1.2,2.4,2.2,3.5,3.3c2,1.9,2.8,1.5,5.4,0.6c0.9-0.3,2-0.8,2.9-0.9
		c0.9-0.1,1.5-0.9,2.4-0.9c0.4,0,0.7-0.3,0.9-0.7c0.1-0.2,0.3-0.4,0.5-0.5c1.7-0.5,2.8-1.6,3.8-3c0.6-0.9,1.7-1.6,2.5-2.3
		C189.7,169.8,189.8,169.9,189.9,170z M166,169.1c0.1,0.1,0.1,0.2,0.2,0.2c0.2,0.1,0.3,0,0.4-0.2c0.1-0.4,0.4-0.6,0.8-0.7
		c1.3-0.3,2.4-1,3.3-2.1c1-1.1,2.6-1.5,3.7-2.5c1.1-0.9,2.9-1,3.3-2.8c0.1-0.2,0.2-0.3,0.5-0.2c0.6,0.3,0.7-0.3,1-0.6
		c0.4-0.4,0.6-1.2,1.6-1.2c0.4,0,0.6-0.8,0.5-0.9c-0.9-0.7,0.5-0.4,0.3-0.7c-0.2-0.4,0.7,0.7,0.4-0.2c-0.1-0.4-0.2-0.5-0.6-0.2
		c-2.1,1.2-3.9,2.8-5.8,4.4c-1.9,1.6-3.9,3-5.9,4.4c-1.3,0.9-2.2,2.3-3.4,3.2C166.1,168.9,166,169,166,169.1z M189.4,151.4
		c0.1,0,0.3-0.1,0.4-0.1c1.1-0.7,1.7-2.1,2.8-2.8c0,0,0-0.2-0.1-0.3c-0.1-0.1-0.3-0.1-0.4,0c-0.8,1.1-2.1,1.7-2.9,2.7
		c-0.1,0.1-0.3,0.1-0.2,0.3C189.2,151.4,189.3,151.4,189.4,151.4z"/>
	<path class="st0" d="M120.4,131.2c2.2,0.5,4.4,1.2,6.2,2.6c1.8,1.1,3.2,2.6,3.7,4.9c0.4,1.9-0.3,2.5-2,3.2
		c-1.6,0.6-2.5-0.3-3.6-0.7c-3.2-1.1-5-3.5-5.9-6.8c-0.3-1.1,0.1-1.8,0.4-2.5C119.4,131.3,119.8,131.1,120.4,131.2z M127.4,135.4
		c-0.9,0.4-1.9-0.2-2.1-0.5c-0.5-0.9-1.5-1-2.1-1.6c-0.8-0.7-1.8-0.5-2.5,0.3c-0.7,0.7-0.6,1.6,0.1,2.4s1.5,1.8,2.2,2.5
		c1.3,1.3,2.7,2.7,4.9,2.6c0.6,0,1.1-0.1,1.5-0.6c0.4-0.5,0-0.9-0.2-1.3c-0.4-1-1.2-1.8-2-2.6C126.6,135.8,126.6,135.6,127.4,135.4z
		"/>
	<path class="st0" d="M138.5,155.6c-0.2,1.1-1.3,2.1-2.6,3.1c-1.6,1.2-2.5,0.6-3.6-0.4c-1.8-1.7-3.6-3.1-5.5-4.7
		c-0.3-0.2-0.4-0.5-0.3-0.8c0.1-0.4,0.4-0.2,0.7-0.2c0.6,0.1,0.4-0.2,0.3-0.6c-0.3-1-0.1-2,0.5-2.8c0.6-0.8,1.8-0.8,2.5,0
		c0.6,0.8,0.7,1.9,0.9,2.7c0,0.1-0.4,0.5,0.1,0.6c0.2,0.1,0.5-0.1,0.6-0.3c0.4-0.7,1-1.1,1.8-1.6c0.7-0.4,1.3-0.3,2,0.2
		C137.1,152,138.6,153.1,138.5,155.6z M128.4,151.9c-0.4,0.8,0.2,1.5,0.7,2.1c0.9,1,2.1,2,3.2,2.9c2.1,1.8,3.6,0.5,4.5-1
		c0.6-1-0.1-2.9-1.3-3.7c-0.9-0.6-1.8-0.2-2.6,0.5c-0.4,0.4-0.9,0.8-1.5,1.1c-0.7,0.4-1.1,0.2-1-0.6c0.1-0.9-0.2-1.8-0.3-2.6
		c-0.1-0.4-0.3-0.9-0.9-0.8c-0.5,0.1-0.8,0.5-0.8,1.1C128.4,151.2,128.4,151.5,128.4,151.9z"/>
	<path class="st0" d="M151.9,144.2c-0.1,1.7-0.5,2.9-2.6,3c-2.3,0.1-4.2-0.6-5.7-2.5c-0.9-1.2-1.1-2.6-1.5-3.9
		c-0.2-1.3,0.8-2.2,1.6-3c0.3-0.4,0.7-0.4,1.2,0c0.7,0.5,1.7,0.8,2.6,1c2.1,0.5,3,2.3,3.8,3.9C151.6,143.1,151.7,143.7,151.9,144.2z
		 M148.8,145.8c0.8,0,1.2-0.2,1.3-0.9c0-0.7-0.1-1.7-0.5-2.2c-0.5-0.8-0.7-2-1.8-2.6c-1-0.6-2.2-1-3.3-1.7c-0.1-0.1-0.3,0-0.4,0.1
		c-0.6,0.6-0.8,2.4-0.2,3.2c0.7,1,1.6,2.2,2.7,2.9C147.3,145.2,148.1,145.5,148.8,145.8z"/>
	<path class="st0" d="M127.7,125.6c0.5,0.2,1.2,0.5,2,0.7c3.2,0.9,5.5,2.9,6.5,6.2c0.1,0.4,0.4,0.6,0.4,1.1c0,1.5-0.3,2-1.8,1.9
		c-2.7-0.3-5.2-1.1-6.8-3.6c-1-1.5-1.5-3.2-2.1-4.9C125.6,126.3,126.6,125.6,127.7,125.6z M127.9,128.1c0.1,0.6-0.1,1.3,0.3,1.9
		c1.1,2,2.9,3.2,4.9,4c0.6,0.3,1.7,0.4,2,0.1c0.5-0.4-0.2-1.1-0.4-1.8c-0.1-0.2-0.2-0.4-0.3-0.7c-1.1-2.4-2.7-4.1-5.5-4.7
		C127.7,127.1,127.7,127.3,127.9,128.1z"/>
	<path class="st0" d="M136.9,124.7c0.3-0.9,0.7-1.9,0.6-2.8c0-0.5,0-1.1,0.6-1.1c0.6,0.1,0.8,0.6,0.8,1.3c-0.1,0.9-0.2,1.9-0.1,2.8
		c0.1,0.7,0.4,0.8,1,0.9c2.1,0,4,0.4,6,0.9c0.5,0.1,1,0.3,0.9,0.9c-0.1,0.5-0.7,0.2-1,0.3c-2,0.2-3.8-0.6-5.7-0.8
		c-0.2,0-0.3,0-0.7,0c1,0.9,1.9,1.7,2.7,2.4c0.3,0.3,0.8,0.5,0.4,1.1c-0.5,0.7-0.7-0.1-1-0.2c-1.3-0.3-2.1-1.6-3-2.4
		c-1.8-1.5-3.3-3.1-5.3-4.2c-0.3-0.2-0.8-0.5-0.6-0.9c0.2-0.2,0.6-0.6,1.2-0.4c0.6,0.2,1.2,0.2,1.6,0.9
		C135.7,124.1,136.3,124.3,136.9,124.7z"/>
	<path class="st0" d="M137.7,144c2.3,0.6,5.2,1.5,6.8,4.2c0.7,1.2,0.8,2.6,0.3,4c-0.4,1.1-2,1.6-3.6,0.9c-1.6-0.5-2.4-1.9-3.6-2.8
		c-1.6-1.1-1.8-3-2.3-4.7C135,144.9,135.5,143.7,137.7,144z M143.8,150.6c-0.2-0.7-0.5-1.7-1.1-2.6c-1.3-2.2-3.7-2.4-5.8-3.2
		c-0.5-0.2-0.6,0.1-0.6,0.5c0.1,0.8,0.9,1.6,0.4,2.5c0.1,0,0.1,0.1,0.2,0.1c0.8,0.2,1.2,0.9,1.8,1.6c1.1,1.2,2.5,2,4.1,2.4
		C143.6,152,143.9,151.7,143.8,150.6z"/>
	<path class="st0" d="M152.9,136.9c0-1.7,0.3-3,0.1-4.5c0-0.3-0.1-0.9,0.4-1c0.6-0.1,0.7,0.5,0.7,0.9c0,0.8,0,1.8-0.1,2.6
		c-0.2,1.8,0,2.1,1.6,1.7c2.1-0.6,3.9,0.2,5.9,0.2c0.7,0,0.6,0.5,0.6,0.9c-0.1,0.7-0.6,0.4-0.9,0.3c-1.6-0.2-3-0.8-4.6-0.5
		c-0.7,0.1-1.5,0.5-2.3,0.6c0.8,0.5,1.7,1.1,2.5,1.7c0.4,0.2,0.9,0.4,0.6,0.9c-0.3,0.6-0.9,0.4-1.3,0.2c-0.8-0.5-1.6-1.2-2.4-1.9
		c-1.9-1.3-3.6-2.8-5.2-4.5c-0.2-0.2-0.6-0.3-0.2-0.7c0.3-0.3,0.5-0.4,0.9-0.3c1.2,0.4,2,1.6,2.9,2.4
		C152.4,136.3,152.6,136.6,152.9,136.9z"/>
	<path class="st0" d="M120.6,147.3c-2.4-0.1-4.1-1.6-5.9-2.8c-1.1-0.7-1.7-2-2.5-2.9c-0.8-0.9-0.9-2.6-0.4-3.4
		c0.4-0.6,2.5-1.1,3.5-0.7c0.7,0.3,1.6,0.6,2.3,0.9c0.2,0.1,0.4,0.3,0.4,0.5c0,0.3-0.3,0.4-0.5,0.4c-0.3,0-0.6,0-0.8-0.1
		c-0.4-0.1-0.8-0.3-1.2-0.5c-0.8-0.3-2.1-0.7-2.5,0c-0.5,0.8,0,2.1,0.6,2.8c1,1.2,2.3,2.5,3.6,3.4c1.2,0.8,2.8,1.6,4.5,0.6
		c1.1-0.6,1.2-1.1,0.5-2.2c-0.2-0.3-0.9-0.7-0.3-1c0.5-0.4,0.9,0.1,1.2,0.6c0.5,0.7,0.7,1.7,0.7,2.5c-0.1,1-0.9,1.5-1.8,1.8
		C121.4,147.3,121,147.3,120.6,147.3z"/>
	<path class="st0" d="M170.1,156.8c-1.5,0.7-2.3,0.4-2.6-1.1c-0.2-1-0.6-1.2-1.6-1.1c-0.7,0.1-1.6,0.2-2.4,0c-1.2-0.3-2.3-1.8-2.1-3
		c0.1-0.9-0.1-1.9,0-2.8c-0.5,0-0.4,0.5-0.7,0.6c-0.3,0.1-0.5,0.9-1,0.3c-0.3-0.4-0.3-1,0.1-1.3c0.6-0.5,1.3-0.6,2.2-0.5
		c0.4,0,0.3,0.3,0.3,0.6c0.1,1.2,0.4,2.6,0.3,3.7c-0.2,1.5,0.7,1.5,1.7,1.7c0.5,0.1,1.1,0,1.8-0.1c1.6-0.2,2.5,0.3,2.8,2
		C168.9,156.5,169.6,156.4,170.1,156.8z"/>
	<path class="st0" d="M166,162c-0.4,0.9-0.8,1.1-1.5,1.1c-0.7-0.1-1.1-0.7-1.2-1.2c-0.2-1.3-1.1-1.3-2-1.2c-1.8,0.2-2.9-0.6-3.8-1.8
		c-0.3-0.5-0.2-1.3-0.3-2c0-0.3,0.1-0.9-0.2-0.9c-0.4-0.1-0.9-0.1-1.2,0.3c-0.4,0.5-0.9,0.9-1.7,0.9c-0.1,0-0.2-0.2-0.2-0.3
		c0.3-0.6,0.9-1,1.5-1.2c0.6-0.3,1.6-0.5,2.1-0.2c0.6,0.3,0.9,1,0.8,2c-0.2,1.5,1,2.6,2.6,2.5c0.9-0.1,1.9,0,2.7,0.5
		c0.4,0.2,0.9,0.5,0.9,1C164.5,162.2,164.9,162.4,166,162z"/>
	<path class="st0" d="M207.1,195.8c-0.1-0.3-0.3-0.7,0.1-0.8c1.7-0.4,3-1.6,4.1-2.5c1-0.9,2.6-1,3.4-2.3c0.2-0.4,0.9-0.6,1.3-0.9
		c0.5-0.4,1.5-0.4,1.7,0.7c-0.8,0-1.5,0.2-2,1c-0.3,0.5-1.5,0.9-2.3,1c-0.8,0.1,0,0.2,0,0.3c0,0.4-0.3,0.4-0.6,0.5
		c-1.5,0.3-2.4,1.6-3.5,2.3c-0.6,0.3-1.1,0.6-1.8,0.9C207.4,195.9,207.3,195.8,207.1,195.8z"/>
	<path class="st0" d="M199.3,202.1c-0.7,0.1-1.3,0-2.1-0.4c-0.1,0.6,0.5,0.5,0.7,0.9c-2,0.6-3.5,1.9-5.3,2.9
		c-1.2,0.7-2.5,1.7-3.7,2.5c-0.2,0.2-0.5,0.5-0.8,0.3c-0.2-0.1-0.3-0.4-0.3-0.6c0-0.4,0.6-0.7,0.8-0.6c0.5,0.1,0.5-0.2,0.7-0.4
		c0.5-0.5,1-1.2,2-1.1c0.6,0.1,0.9-0.3,1.5-0.8c0.9-1,2.3-1.6,3.4-2.3c0.8-0.5,1.6-1,2.5-1C199.3,201.2,199.7,201.5,199.3,202.1
		C199.3,202.2,199.3,202.1,199.3,202.1z"/>
	<path class="st0" d="M207.1,195.8c0.1,0.1,0.3,0.2,0.4,0.2c-0.6,1.1-1.9,1.5-2.8,2.3c-0.7,0.6-1.7,0.8-2.3,1.6
		c-0.2,0.2-0.4,0.3-0.6,0.1c-0.6-0.5-0.8,0.3-1.5,0.4c0.5,0.1,0.7,0.1,1.1,0.2c-0.3,0.2-0.5,0.5-0.7,0.5c-0.5,0-1.1,0.6-1.5-0.3
		c-0.2-0.6,0.3-0.9,0.8-1.1c0.8-0.4,1.7-0.9,2.4-1.5c0.4-0.3,0.7-0.8,1.3-0.4c0.1,0,0.2,0,0.2,0
		C204.3,195.8,206.1,196.4,207.1,195.8z"/>
	<path class="st0" d="M173.7,153c-0.2,1-0.7,1.1-1.5,0.5c-0.5-0.4-1.1-0.8-1.2-1.6c0-0.2-0.1-0.5-0.2-0.5c-0.6,0.1-0.8-0.2-0.8-0.6
		c0-0.5,0.6-0.5,0.9-0.6c0.5-0.1,0.9,0.1,1.2,0.5c0.1,0.2,0.1,0.4,0.1,0.6C172.1,152.6,172.7,153,173.7,153z"/>
	<path class="st0" d="M221,186.4c0.4,0.7,0.8,1.3-0.5,1.1c-0.2,0-0.4,0.1-0.6,0.5c-0.2,0.5-0.9,0.7-1.6,0.5l0,0
		c0-0.3,0.1-0.6,0.2-0.8C219,186.9,220.2,187.1,221,186.4L221,186.4z"/>
	<path class="st0" d="M184.4,210.6c0.9-0.4,1.6-1.2,2.2-2c0.5-0.5,1.1-0.4,1.2-0.2c0.3,0.4-0.3,0.6-0.5,0.8
		c-0.5,0.6-1.5,0.7-1.9,1.5C185.2,211.2,184.8,210.7,184.4,210.6z"/>
	<path class="st0" d="M236.7,174.2c-0.9,0.3-0.7,1.2-1.5,1.5c-0.5,0.2-0.8,0.1-1.2,0c-0.2-0.1-0.2-0.6-0.1-0.6
		C234.9,175.2,235.4,174.1,236.7,174.2z"/>
	<path class="st0" d="M58.6,129.2c-1.3-0.3-2.8-0.2-4-0.6c-0.4-0.2-0.8-0.3-0.7-0.8s0.5-0.5,0.9-0.5c0.6,0,1.3,0,1.8,0.2
		c1.3,0.6,2.5,0.3,3.7-0.2c0.2-0.1,0.4-0.2,0.6,0c0.2,0.2,0,0.4,0,0.7C60.6,129.3,59.4,129,58.6,129.2z"/>
	<path class="st0" d="M61,120.5c-0.1,0.9-0.4,1.3-1.2,1.6c-1.8,0.4-3.5-0.3-5.3-0.3c-0.4,0-0.4-0.3-0.2-0.6c0.5-0.7,1.2-0.7,1.9-0.5
		C57.8,121.1,59.3,120.8,61,120.5z"/>
	<path class="st0" d="M58.3,136.9c-0.8,0.2-1.3-0.2-2-0.6c-0.3-0.1-0.7-0.3-0.6-0.7c0.1-0.5,0.6-0.4,1-0.4c1,0.2,2.1,0.2,3.1,0.3
		c0.4,0.1,1-1,1.2,0.1c0.1,0.8-0.5,1.1-1.2,1.1C59.2,136.8,58.8,137.2,58.3,136.9z"/>
	<path class="st0" d="M56.7,144.3c0.7-0.8,1.5-1.1,2.5-0.9c0.5,0.1,1.2-0.1,1.8-0.1c0.4,0,0.9-0.2,0.9,0.4c0,0.5-0.2,1-0.9,1
		C59.6,144.8,58.2,145,56.7,144.3z"/>
	<path class="st0" d="M99.6,188.1c0.2,0,0.3-0.1,0.3-0.3c0.4-0.9,0.7-1.8,2.2-0.9c0.9,0.6,2.2,0.9,3.4,0.5c0.8-0.3,0.7,0.8,1.3,1.1
		c0.3,0.1-0.4,0.6-0.6,0.9c-0.4,0.5-0.8,0.4-1.1-0.1c-0.3-0.4-0.2-0.1-0.3,0.1c-0.4,0.6-1,0.2-1.6,0.1c-0.6-0.1-0.3-0.5-0.1-0.9
		c0.1-0.2,0-0.4-0.3-0.4c-0.2,0-0.3,0.1-0.4,0.3c-0.3,0.7-1,0.9-1.6,0.4c-0.2-0.2-0.4-0.3-0.7-0.2C99.5,188.8,99.6,188.4,99.6,188.1
		L99.6,188.1z"/>
	<path class="st0" d="M89.4,186.2c0.6-2.7,1.6-3.4,4.4-3.7c0.5,0,1-0.2,1.6-0.3s1-0.2,1.6,0c-0.9,0.3-1.9,0.5-2.7,0.6
		c-2.2,0.3-3.2,1.9-4.4,3.3c0,0.1-0.1,0.1-0.2,0.1C89.4,186.2,89.4,186.2,89.4,186.2z"/>
	<path class="st0" d="M99.6,188.1c-0.2,0.2-0.4,0.4-0.6,0.5c-1,0.7-2.4,0.1-2.6-1.6C97.4,188.1,98.6,187.9,99.6,188.1L99.6,188.1z"
		/>
	<path class="st0" d="M110.8,191.7c1.1-0.2,2.2-0.5,3.2-0.9c0.2-0.1,0.4-0.2,0.5,0s0,0.3-0.2,0.4
		C113.2,191.7,112.1,192.1,110.8,191.7z"/>
</g>
<g>
	<path class="st0" d="M182.9,99.2c-1.7-0.9-2.9-2.4-4-4c-3.1-4.4-5.7-9.1-8.2-13.8c-0.2-0.4-0.5-0.9-0.4-1.4c0.1-0.6,0.5-1,1.1-1.2
		c0.8-0.2,1.3,0.3,1.7,0.8c1.4,2,2.8,4,4.2,6.1c1.7,2.5,3.3,5.2,5.2,7.6c0.8,1,0.9,1,1.6-0.1c1.6-2.5,3.2-5.1,5.4-7.1
		c0.8-0.7,1.6-1.2,2.6-1.5c0.7-0.2,1,0.1,0.9,0.7c0,0.9-0.2,1.8-0.6,2.7c-1.8,3.4-4.1,6.5-6.2,9.7c-0.4,0.6-1,0.9-1.5,1.4
		C184.1,99.2,183.5,99.2,182.9,99.2z"/>
	<path class="st0" d="M201.9,7.2c-0.1,4-1.7,7.3-3.1,10.6c-3.4,8.2-7.4,16.3-10,24.9c-1.9,6.3-3.2,12.7-3.6,19.3
		c-0.3,5.9,0.2,11.7,0.4,17.6c0.1,2.3,0.1,4.5,0.1,6.8c0,0.6-0.2,1-0.6,1.5c-0.6,0.8-1.3,0.8-1.9,0.1c-0.4-0.5-0.7-1-0.8-1.6
		c-0.8-4-1.4-8-1.7-12.1c-0.2-3.1-0.3-6.1-0.3-9.2c0-5.2,0.6-10.3,1.8-15.4c2.6-11.5,7-22.4,12.8-32.7
		C197,13.6,198.9,10.2,201.9,7.2z"/>
</g>
</svg>
