<?xml version="1.0" encoding="utf-8"?>
<!-- Generator: Adobe Illustrator 22.0.1, SVG Export Plug-In . SVG Version: 6.00 Build 0)  -->
<svg version="1.1" id="Layer_1" xmlns="http://www.w3.org/2000/svg" xmlns:xlink="http://www.w3.org/1999/xlink" x="0px" y="0px"
	 viewBox="0 0 173.2 151.1" style="enable-background:new 0 0 173.2 151.1;" xml:space="preserve">
<style type="text/css">
	.st0{fill:#4E5D44;}
	.st1{fill:#E4D3B6;}
</style>
<path class="st0" d="M152.9,40.9c12.2,22.1,8.5,54.3-9.2,72.7c-6.9,13.4-21.9,19.2-35.5,25.7c-12.1,5.9-25.2,5.4-38.7-1.2
	c-6.7-3.2-13.2-9.3-19.3-10.1c-14.7-1.8-19.5-12.6-25.4-22.4c-8.6-14.3-12.4-30.3-12.1-47c0.1-6.1,7.6-15.5,13-17.1
	c2.6-0.8,5-1.3,4.7,2.7c-0.1,1.3-0.9,2.9,1,3.2c1.6,0.3,3.4-0.3,4.3-1.8c1.1-1.8,1.9-3.8,2.9-5.8C44,29.5,51.8,22,62.5,16.9
	c7.2-3.4,16.7-0.6,22.1-8.3c0.1-0.1,0.5-0.1,0.8,0c12.5,2.8,26,0,37.9,4.9C136.4,18.6,146.1,28.6,152.9,40.9z"/>
<g>
	<path class="st1" d="M59.3,63.5c0.1-15.6,11.1-28.4,25.6-31.2c18.1-3.5,34.1,8.2,37.5,25.1c1.2,5.8,0.6,11.5-1.2,17.2
		c-3,9.9-8.4,18.6-14.4,26.9c-4.3,5.9-9.2,11.4-14.3,16.7c-1.4,1.4-1.4,1.4-2.7,0.1C79.9,108,71,96.9,64.7,83.9
		C61.6,77.5,59.3,70.8,59.3,63.5z M114.1,63.7c0-12.7-10.2-23-22.8-23.1c-12.8,0-23.1,10.2-23.1,22.8c0,12.7,10.2,23,22.8,23.1
		C103.8,86.6,114.1,76.4,114.1,63.7z"/>
	<path class="st1" d="M86.1,51.7c1.4-1.5,2.7-2.7,3.9-4c0.8-0.9,1.4-1.1,2.4-0.1c4.3,4.5,8.7,8.8,13,13.3c0.3,0.3,0.7,0.5,0.6,0.9
		c-0.2,0.5-0.8,0.3-1.2,0.3c-2.9,0.1-2.9,0.1-2.9,3c0,3.5,0,7.1,0,10.6c0,1.2-0.4,1.5-1.5,1.5c-6.1,0-12.3,0-18.4,0
		c-1.1,0-1.6-0.3-1.5-1.5c0.1-4,0-8,0-11.9c0-1.2-0.3-1.7-1.5-1.7c-0.8,0-2.1,0.5-2.4-0.3c-0.3-0.7,0.9-1.4,1.6-1.9
		c1.2-1,1.7-2.2,1.6-3.7c-0.1-2,0-3.9,0-5.9c0-0.9,0.4-1.3,1.3-1.3c1.1,0,2.2,0.1,3.2,0c1.3-0.1,2,0.2,1.8,1.7
		C85.9,50.9,86,51.1,86.1,51.7z M88.6,63.7c-1.3-0.2-1.6,0.4-1.6,1.6c0,1.3,0.6,1.5,1.7,1.6c1.2,0,1.5-0.5,1.5-1.6
		C90.2,64.1,89.9,63.5,88.6,63.7z M93.8,63.7c-1.2-0.2-1.7,0.3-1.6,1.5c0,1.1,0.2,1.7,1.5,1.6c1.1,0,1.8-0.2,1.7-1.5
		C95.3,64.2,95.1,63.5,93.8,63.7z M90.2,70.5c0.3-1.4-0.5-1.5-1.6-1.5c-1.2,0-1.5,0.5-1.5,1.6c0,1.2,0.4,1.6,1.6,1.6
		C89.9,72.1,90.4,71.7,90.2,70.5z M93.8,72c1.3,0.3,1.5-0.5,1.5-1.6c0.1-1.3-0.7-1.5-1.7-1.5c-1.2,0-1.4,0.5-1.5,1.6
		C92.1,71.8,92.5,72.3,93.8,72z"/>
</g>
</svg>
