<?xml version="1.0" encoding="utf-8"?>
<!-- Generator: Adobe Illustrator 22.0.1, SVG Export Plug-In . SVG Version: 6.00 Build 0)  -->
<svg version="1.1" id="Layer_1" xmlns="http://www.w3.org/2000/svg" xmlns:xlink="http://www.w3.org/1999/xlink" x="0px" y="0px"
	 viewBox="0 0 255.1 255.1" style="enable-background:new 0 0 255.1 255.1;" xml:space="preserve">
<style type="text/css">
	.st0{fill:#4E5D44;}
</style>
<g>
	<path class="st0" d="M167.4,202.6c-0.8,1.1-1.8,2.1-2.1,3.5c0,0.1-0.1,0.2-0.1,0.2c-1.4-0.6-0.3,1.1-1.2,1.1c0.9,0,0.9,0.3,0.8,1
		c-0.2,1.7-1.3,3.2-1.1,5c0.1,1.3-1,2.5-1.3,3.9c-0.4,1.7-0.9,3.4-1.5,5c-0.6,1.4-1.4,2.8-2.3,4.2c-0.9,1.4-1.8,2.9-2.7,4.5
		c-0.9,1.7-2.2,3.3-3.9,4.4c-0.2,0.1-0.5,0.2-0.6,0.5c-0.8,2.6-3.1,3-5.2,3.8c-2.4,0.9-4.9,1-7.5,1c-4.7,0-9.3-0.4-13.3-3
		c-2.2-1.4-4.2-3.1-5.9-5.2c-1.5-1.8-2.5-3.8-3-6.1c-0.4-1.5-1-2.9-1.6-4.5c-0.9-2.3-1.5-4.6-2-7c-0.6-3.3-0.6-6.7-1.5-10
		c-0.4-1.3-1.1-2.5-1.5-3.7c-0.6-1.8-1.3-3.4-1.5-5.3c0-0.2-0.2-0.4-0.4-0.4c-0.4-0.1-0.2,0.2-0.2,0.3c-0.3,0.5-0.4,0-0.5-0.1
		c-0.8-1.2-1.6-2.4-2.8-3.2c-1.6-1.1-3.2-2.3-5.4-1.8c-0.7,0.2-1.7-0.8-1.9-1.5c-0.1-0.4,0.1-0.5,0.4-0.6c0.7-0.3,1.5-0.5,2.1-0.1
		c1.4,0.8,2.7-0.1,4-0.2c0.1,0,0.3-0.1,0.4-0.3c0.5-1.4,2.1-1.2,2.9-2c0.6-0.5,1.7-0.2,1.9-1.2c0-0.1,0.1-0.2,0.2-0.2
		c0.9,0.1,1.1-0.9,1.7-1.1c1.9-1,3.1-3,5.5-3.4c0.7-0.1,0.6-0.9,1.1-1.1c1.3-0.8,2.6-1.5,3.7-2.5c0.6-0.5,1.3-0.8,1.4-1.7
		c0-0.4,0.2-0.1,0.4,0c0.6,0.2,0.9,0,1.3-0.8c0.1-0.3,0.3-0.2,0.5-0.1c1,0.5,2.1,0.2,3.1-0.3c1.5-0.7,3.1-1.1,4.7-0.5
		c0.9,0.3,1.6,1,2.5,1c1,0.1,2,0.8,3.2,0.3c0.9-0.4-0.2,0.6,0.3,0.8c0.4-1.8,1.4,0.1,2.2-0.3c0.1-0.1,0.7,0.1,1-0.1
		c0.2-0.1,0.5-0.1,0.6,0c0.8,0.9,1.7,0.6,2.6,0.3c0.7-0.3,1.2,0.1,1.9-0.1c-0.2-0.1-0.4-0.3-0.6-0.4c0.3-0.6,0.9-0.6,1.3-0.6
		c0.9-0.1,1.8,0,2.8-0.5c0.3-0.2,1.2,0.3,2,0.2c1.6-0.2,3.2,0.9,4.9,0.3c0.9-0.3,1.5,0.6,2.3,0.9c2.3,1,3.6,3.3,5.5,4.9
		c0.5,0.4,1,0.6,1.6,0.9c2.1,1.2,4.3,2.4,6.3,3.7c0.9,0.6,1.8,1.5,2.9,1.9c1.2,0.4,2.1,1.6,3.4,1.8c0.3,0,0.4,0.2,0.5,0.5
		c0,0.3-0.1,0.5-0.4,0.6c-1.5,0.3-2.8,1.3-4.5,0.6c-0.8-0.4-1.9,0.1-2.4,0.9c-1.3,2.1-2.1,4.4-2.5,6.7c-0.3,1.8-1.5,3.2-2,4.9
		C167.8,202.5,167.5,202.6,167.4,202.6c-0.3-0.9-0.2-2,0.4-2.8c0.2-0.2,0.3-0.4,0.1-0.6c-0.2-0.2-0.4-0.3-0.6-0.2
		c-0.2,0-0.5,0-0.3,0.4s-0.2,0.4-0.5,0.4c-0.2,0-0.4-0.3-0.5,0.1c-0.3,0.9-0.7,0.2-0.9,0c-0.2-0.1-0.1-0.7-0.5-0.4
		c-0.2,0.1-0.4,0.3-0.4,0.7c0,1.3-0.1,2.6-0.3,3.9c-0.1,0.5,0.3,1.1,0.6,0.9c0.6-0.5,1.4-0.9,1.6-1.7
		C166.2,202.2,166.7,202.3,167.4,202.6z M141.7,190.1c-1-0.4-2.2,0-3.2-0.6c0.3,1.2,0.9,1.6,1.5,1.1
		C140.5,190.4,141.1,190.3,141.7,190.1c-0.1,0.2-0.1,0.5-0.2,0.9c0.9-0.9,1,0.2,1.5,0.4c0.8-1.2,2-1,3.1-1.4
		c-0.8-0.9-1.7-0.4-2.5-0.3C143,190,142.3,190.3,141.7,190.1z M167.2,196.6c-0.5,0.1-1,0.2-0.7-0.7c0.2-0.4,0.3-0.9-0.1-1.5
		c-0.5,1.1,0.1,2.5-0.8,3.4c1,0.5,0.9-0.8,1.4-0.9c0.5,0.3,0.6,0.2,0.9-0.4c0.3-0.6-0.1-1,0.2-1.6c0.4-0.8,0.8-1.5,1-2.3
		c0.1-0.4,0.2-0.7-0.4-0.5c-1.1,0.3-1.9,1.1-1.9,2.3C167.1,194.9,167.1,195.7,167.2,196.6z M157.1,189.2c-0.3-0.1-0.7-0.2-0.7-0.6
		c0.1-0.9-0.2-0.9-0.8-0.5c-0.6,0.4-0.7-0.3-1-0.6c-0.6,1.7-1.8,2.8-3.2,3.4c-1.5,0.8-2.9,1.6-4.4,2.5c-1.9,1.1-3.8,2.7-6.2,2.9
		c-2.7,0.3-5.2,0-7.5-1.7c-0.3-0.3-0.7-0.5-1-0.7c-1.2-0.8-2.5-1.5-3.4-2.4c-1.7-1.4-3.6-1.7-5.5-1.8c-3.2-0.1-5.9,1.8-8.7,2.8
		c-1.7,0.6-2.8,2.3-4.6,2.9c-0.5,0.2-0.7,0.7-0.4,1.4c0.5,1,0.9,2.2,1.4,3.2c0.4,0.8-0.4,1.3,0,2c0.9,1.7,0.8,3.7,1.3,5.5
		c0.8,2.8,0.9,5.6,1.6,8.5c0.2,0.7,0,1.3,0.3,2c1.1,2.9,2.2,5.9,3.2,8.9c0.8,2,1.8,3.9,3.1,5.5c0.9,1.1,2.2,2,3.2,3
		c0.8,0.8,1.5,1.5,2.6,2c3.9,1.5,7.9,2.4,12.2,2.3c0.7,0,0.9-0.2,0.5-0.8c-0.3-0.5-0.4-0.9,0.2-1.1c0.4-0.2,0.8-0.1,0.8,0.4
		s1,0.9-0.3,1.5c1.1-0.1,2.2,0.5,2.7-1c0.3,0.9,0.9,0.8,1.4,0.8c1.9-0.1,3-1.2,4.3-2.6c-1.1,0.1-1.6-0.9-2.8-0.9
		c1.6-0.9,3.1-1.4,4-2.9c0.3-0.5,0.5-1.4,1.4-1.4l0,0c-0.2,1.6-0.9,2.8-2.4,3.7c-0.2,0.1-0.3,0.2-0.3,0.4c0,0.3,0.2,0.3,0.4,0.4
		c0.9,0.3,1.4-0.5,2.2-0.9c0.9-0.6,1.9-1.2,2.5-2.1c1.9-2.7,4-5.3,5.4-8.4c0.3-0.7,0.1-1.4,0.6-1.9c1.3-1.7,1.8-3.8,2.5-5.8
		c0.1-0.4-0.5-0.5-0.2-0.8c1.3-1.2,0.9-3,1.2-4.6c0.2-0.5,0.2-1,0.4-1.6c0.3-0.8,0.7-1.4,0.1-2.3c-0.3-0.4-0.7-1-0.6-1.7
		c0.2-1.6-0.1-3.1-0.3-4.7c-0.2-1.7-0.1-3.4-0.4-5c-0.4-2.2,0.3-4.5-0.9-6.6c-0.3,0.6-1,0.4-1.6,0.3c-0.3,0-0.4-0.3-0.2-0.5
		c0.1-0.2,0.5-0.2,0.1-0.5c-0.2-0.1-0.4-0.2-0.7-0.1c-0.2,0.1-0.4,0.1-0.2,0.5c0.2,0.4-0.2,0.4-0.4,0.4
		C157.4,190.2,157.4,189.5,157.1,189.2c0.9-1.1,1.9-1,3-0.6c0.3,0.1,0.6,0,0.9,0.1c0.9,0.1,1.7-0.2,2.6-0.6c0.9-0.4,1.2,0.1,1.4,0.6
		c0.3,0.7-0.5,0.6-0.8,0.8c-0.1,0.1-0.3,0.1-0.5,0.3c0.9,0.3,1.7,0.3,2.4,0.7c0.2,0.1,0.3,0.1,0.5,0c0.9-0.4,1.8-0.9,2.8-1.1
		c2.5-0.9,5-0.9,7.5-0.8c-1.7-1.5-4.1-2.1-6.1-3.4c-1.8-1.2-3.9-1.8-5.5-3.3c-1-1-2.5-1.5-3.4-2.8c-0.7-0.9-1.9-1.5-2.8-2.3
		c-0.8-0.7-1.6-1-2.6-1c-2.9-0.2-5.8,0.4-8.6,1.3c-0.4,0.1-0.8,0.4-1,0.1c-0.4-0.4,0.2-0.7,0.2-1.2c-0.9,1-1.9,0.8-2.8,0.9
		c-1.8,0.3-3.6,0.6-5.4,0.5c-1-0.1-2.1-0.2-3.1-0.5c-1.3-0.4-2.5-1.1-4-1.1c-2.2,0-4.3-0.1-6.3,0.9c-1.3,0.7-2.6,1.6-3.8,2.4
		c-0.3,0.2-0.7,0.7-0.9,0.3c-0.3-0.4,0.3-0.5,0.5-0.7c0.3-0.2,0.4-0.4,0.4-0.9c-5.6,5.1-11.6,9.4-18.2,12.7c0.9,0.6,2.4,0.7,2.9,1.8
		c-0.4,0.5-0.8-0.3-1.2,0.2c0.5,0.6,1,1,2,1.7c-0.6-0.9-0.2-1.4,0.3-1.8c0.4-0.3,0.5-0.4,0-0.7c-0.3-0.2-0.4-0.4-0.3-0.7
		s0.4-0.2,0.6-0.2c1.4-0.1,2.9-0.4,4.3-0.9c1.1-0.4,1.4-0.4,2.2,0.6c0.1,0.1,0.3,0.1,0.4,0.1c0.8-0.1,0.9-1,1.7-1c0,0,0-0.3-0.3-0.4
		c-0.5-0.1-0.3-0.6-0.2-0.9c0.2-0.4,0.5-0.3,0.8-0.1c0.6,0.6,1.4-0.6,2,0.3c0.3-0.9,0.7-1.1,1.4-0.5c0,0,0.3-0.2,0.4-0.2
		c0.6-0.2,0.7-0.9,1.3-1.6c-0.3,1.1,0.3,1.4,0.8,1.3c0.4-0.1,1.1-0.3,0.9-1.1c-0.1-0.6,0.4-1.2,0.8-1.2c0.8,0,1.5-0.3,2.2-0.1
		c0.2,0.1,0.1,0.3,0.2,0.5c0.3,0.9,1.1,1.5,2.4,1.4c-0.2-0.8-0.5-1.3-1.4-1.3c-0.3,0-0.5-0.1-0.5-0.4c-0.1-0.4,0.3-0.4,0.5-0.5
		c0.3-0.1,0.6,0,0.9,0c1.1,0.3,1.9,1.2,3,1.3c0.4,0,0.3,0.4,0,0.6c-0.2,0.1-0.6-0.1-0.8,0.3c1.3,0.5,2.6,0.9,3.9,0.5
		c0.3-0.1,0.5,0,0.6,0.2c0.3,0.9,1.1,0.6,1.7,0.8c0.6,0.2,1.4-0.5,1.7,0.5c0,0,0.2,0,0.3,0c0.2-0.1,0.2-0.2,0.1-0.4
		c-0.2-0.5-0.7-1,0.5-0.9c0.1,0,0.2,0,0.2-0.2c-0.3-1.2,0.7-0.8,1-0.7c0.9,0.3,1.6,0.3,2.5-0.1c0.2-0.1,0.5-0.1,0.7-0.1
		s0.4,0,0.5,0.3s0,0.5-0.2,0.6c-0.3,0.1-0.7,0.2-0.9,0.3c-1.1,0.4-2.4,0.5-3.5,1.1c0.6,0.4,1,0.3,1.5,0.3c2.3,0.4,4.2-0.7,5.6-2.2
		c0.9-1,2.4-0.6,3.2-1.6h0.1c1.1,0.1,2.3,0.5,3.1-0.7c0.2-0.3,0.8-0.2,1,0.1c0.4,0.4,0.6,0.9,0.9,1.4c-0.7-0.2-0.9,0.7-1.5,0.5
		c-0.5-0.1-0.9,0.1-1,0.5c0,0.6,0.6,0.4,0.9,0.4c0.9,0,1.5-0.9,2.5-0.4c0,0,0.1-0.1,0.2-0.2c0.5-0.7,0.9-0.2,1,0.2
		C157.5,187.9,157.7,188.6,157.1,189.2z M164.3,198.6c0.8,0.3,0.9-0.1,0.8-0.7c-0.4-1.1-0.1-2.2,0.4-3.1c0.4-0.7-0.1-1.2-0.4-1.8
		c-0.2-0.3-0.6-0.3-0.8,0c-0.4,0.8-1,1.2-1.1,2.4c-0.1,0.9,0.5,1.6,0.4,2.4C163.4,198.5,163.4,198.9,164.3,198.6z M137.6,189.7
		c-1.1-0.6-2.2-0.4-3.2-0.6s-2.1-0.2-3.4-0.2c0.4,0.5,0.2,1.1,0.9,1.1c0.9-0.1,2,1.1,3,0c0.1-0.1,0.5-0.1,0.7-0.1
		C136.2,190.2,136.8,189.9,137.6,189.7z M136.3,194.4c0.9,1,2.8,1.2,3.4,0.4c0.1-0.2,0.3-0.3,0.1-0.5c-0.2-0.3-0.3-0.1-0.5,0
		c-0.1,0.1-0.3,0.1-0.4,0C138.1,193.2,137.2,193.9,136.3,194.4z M130.3,189.7c-0.2-0.7-0.8-0.9-1.3-1.1c-0.3-0.1-0.5,0.2-0.4,0.4
		c0.3,0.5,0.7,0.9,1.2,1.1C130,190.2,130.2,190,130.3,189.7z M134.1,192.9c-0.2-0.9-1.1-0.3-1.4-0.9c-0.1-0.2-0.2-0.5-0.5-0.3
		c-0.2,0.1-0.4,0.4-0.3,0.7c0.1,0.2,0.3,0.5,0.5,0.4C133,192.5,133.5,192.9,134.1,192.9z M163.5,193.3c0.8-0.9,0.2-1.5-0.6-2.1
		C162.9,192.1,163.1,192.7,163.5,193.3z M149.9,188.3c-0.4-0.1-0.5-1-1.1-0.4c-0.2,0.2-0.6,0.5-0.3,0.8
		C149,189,149.5,188.5,149.9,188.3z M138.6,191.2c-0.4,0.1-0.9,0.1-1.2,0.2c-0.3,0.1-0.5,0.3-0.2,0.6c0.4,0.4,0.9-0.7,1.4,0.1
		C138.6,191.8,138.7,191.5,138.6,191.2z M112,191.9c-1,0.6-2,0.7-3,0.9C110.1,193,111.1,193,112,191.9z M110,194.2
		c-0.1-0.2-0.3-0.3-0.5-0.3c-0.3,0-0.7-0.1-0.7,0.3c0,0.3,0.4,0.4,0.6,0.4C109.7,194.7,109.8,194.5,110,194.2z"/>
	<path class="st0" d="M67.5,142.4c-0.2,0.8-0.9,0.7-1.2,1.2c0.9,0.1,1.7,0.4,2.5,0.4c0.5,0,0.8,0.2,0.8,0.6c0,0.6-0.4,0.6-0.8,0.6
		c-0.9,0-2-0.1-2.9-0.2c-1.8-0.3-3.1,0.3-4.1,1.9c-0.1,0.2-0.4,0.4-0.6,0.3c-0.8-0.3-1.1,0.3-1.9,0.7c1.7,0.5,3-0.1,4.4-0.7
		c1.5-0.7,2.9-1.3,4.7-1.5c0.3,0,0.6,0,0.9,0.1c-1.7,1-3.6,1.5-5.5,2.4c0.9,0.9,1.9,0.6,2.8,0.8c0.9,0.3,1.5-0.1,2.2-0.8
		c1.5-1.3,3.3-2,5.2-2.8c-1.3,1.6-3.2,2.4-4.7,3.9c3,1.1,6.4,1.4,9.3,2.8c1.8,0.8,3.5,0.4,5.1-0.6c1.7-1,3.4-1.9,5.1-2.8
		c0.6-0.3,1.3-0.1,2-0.6c0.1-0.1,0.6-0.1,0.7,0.2c0.1,0.4-0.2,0.4-0.4,0.6c-1.5,1-3.4,1.4-4.9,2.5c-1,0.7-2.1,1.2-3.2,1.9
		c1,1.1,2.1,2.1,2.9,3.3c0.2,0.3,0.7,0.7,0.9,0.6c1.2-0.2,1.8,0.8,2.6,1.4c1.2,1,2.5,2.1,3.4,3.5c0.8,1.1,0.4,2.4,0.1,3.4
		c-0.5,1.5-1.2,3-2.2,4.4c-0.9,1.2-1.6,2.5-2.6,3.5c-1.3,1.4-2.4,3-3.7,4.5c-2.3,2.3-4.7,4.4-7.2,6.3c-2.4,1.8-4.8,3.3-7.6,4.5
		c-1.2,0.5-2.7,0.7-4,0.9c-2,0.3-4.1,0.5-6.2,0.8c-2.3,0.4-4.6,0.1-6.8,0.2c-2.2,0-4.2-0.4-6.3-0.8c-1.5-0.3-2.9-0.5-4.2-1.4
		c-0.4-0.3-0.9,0.1-1.3,0c-2.1-0.6-4.2-1.2-6-2.6c-1.5-1-3.3-1.9-4.8-2.9c-2.2-1.5-4.6-2.8-5.8-5.5c-0.4-0.8-1.4-1.4-2.2-1.9
		c-1.5-0.9-2.3-2.3-3.1-3.6c-0.9-1.2-1.9-2.3-2.4-3.7c-0.2-0.5-0.4-0.9,0-1.3c1.4-1.7,2.9-3.2,4.8-4.6c1.5-1,2.9-2.2,4.5-3.2
		c0.1-0.1,0.2-0.3,0.3-0.3c1.6-0.3,1.6-1.8,2.1-2.8c0.2-0.3,0.4-0.6,0.7-0.8c1.1-1,2.2-2.3,3.4-3c1.5-0.9,2.7-2.4,4.4-2.9
		c0.3-0.1,0.6-0.2,1,0c-1.6,1-2.8,2.4-4.4,3.4c-1.6,1-2.5,2.6-3.7,3.9c1.6-0.6,3.2-1.1,4.6-2.2c2.2-1.7,4.2-3.5,6.6-5
		c1-0.7,2.2-1.4,3.1-2.3c-0.2-0.3-0.4-0.3-0.6-0.2c-1.5,1.1-3.4,0.8-5.1,1.3c-1.3,0.5-2.8,0.9-4,1.5c-0.3,0.1-0.5,0.1-0.8,0
		c-0.2-0.1-0.5-0.1-0.6,0.2c-0.2,1.1-1,0.9-1.7,0.7c-0.9-0.4-1.6,0-2.3,0.5c-1.8,1-3.5,2.1-5.4,2.9c-0.3,0.1-0.5,0.4-0.8,0.6
		c-0.3,0.2-0.7,0.8-0.9,0.4c-0.4-0.4,0.2-0.8,0.5-1c0.9-0.7,1.7-1.5,2.8-2c3.5-1.9,7.1-3.8,11-4.8c5.1-1.2,10.3-2.7,15.6-3.2
		c2.6-0.3,5.1-0.6,7.7-0.2c1.4,0.2,2.8,0.1,4.3,0.2c0.8,0.1,1.6-0.5,2.5-0.9C66.4,142.4,66.9,142.3,67.5,142.4z M20.9,164.2
		c0.7-0.4,1.2-0.2,1.7,0.5c0.9,1.4,0.9,4.7-0.2,6.1c-0.9,1.2-0.9,1.8,0.3,2.8c0.9,0.8,1.8,1.5,2.5,2.4c1.1,1.4,2.8,2.4,4.1,3.6
		c1.2,1.3,3.2,1.8,4.6,3c0.8,0.8,1.5,1.6,2.6,2c0.4,0.1,0.8,0.4,1-0.3c-0.6-0.2-1-0.4-1.3-0.9c-0.9-1.4-1.8-2.9-2.3-4.7
		c-0.5-1.6-1.2-3.2-1.4-4.9c-0.2-1.8-0.4-3.6-0.4-5.4c0-1.5,0.5-3,0.4-4.6c-0.2-1.6,0.5-3,1.4-4.4c1.1-1.5,1.9-3.2,3.1-4.7
		c-0.9-0.2-1.2,0.2-1.7,0.7s-0.9,1.5-1.9,0.8c-0.1-0.1-0.5,0.1-0.7,0.2c-1.8,1.2-3.8,2.1-5.5,3.3c-0.9,0.7-1.9,1.3-2.9,1.9
		C22.9,162.1,21.4,162.6,20.9,164.2c-1.3,0.9-2.5,2-3.7,3.1c1.4,1.2,2.5,2.8,3.7,4.5c0.4-1.4,0.9-2.4,1.1-3.5
		c0.2-0.9,0.2-1.7-0.6-2.4C21,165.4,20.8,164.8,20.9,164.2z M75.7,176.4c-0.5-0.2-1.3-0.2-0.6-0.8c0.2-0.2,0.1-0.5,0.2-0.7
		c0.7-1.7,0.8-3.5,1.1-5.2c0.6-2.2,0.8-4.5,0.4-6.6c-0.6-3-0.7-6.1-1.9-9c-0.7-1.6-1.4-2.5-3-2.7c-0.2,0-0.5-0.1-0.7-0.2
		c-2.6-0.9-5.3-1.2-8-1.4c-0.8,0-1.4-0.1-2.1-0.2c-2.3-0.3-4.6-0.3-6.7,0s-4.3,0.5-6.5,0.8c-1,0.1-1.8,0.4-2.3,1.3
		c-0.1,0.3-0.2,0.5-0.6,0.3c-1.4-0.6-3.7,0.1-4.7,1.1c-0.2,0.5-0.4,1.4-1.1,0.5c-0.1-0.2-0.2,0-0.2,0.1c-1.1,1.4-2.4,2.8-3.2,4.4
		c-0.9,1.6-1,3.5-1.4,5.2c-0.6,2.8-1.3,5.6-0.9,8.5c0.3,1.6,0.6,3.3,1.2,4.8c0.3,0.8,0.6,1.4,0.9,2.1c0.3,0.4-0.3,1,0.4,1.1
		c0.8,0.1,0.9,0.4,0.6,1c-0.1,0.3,0.2,0.5,0.3,0.7c0.9,1.7,2.4,2.8,3.7,4.1c0.6,0.5,1.1,0.9,1.9,1c1.9,0.2,3.6,1.2,5.5,1.3
		c0.9,0.1,1.9,0.5,2.9,0.5c1.8,0,3.7,0.1,5.5,0c1.2,0,2.5-0.1,3.7-0.5c1-0.3,2.2-0.4,3.2-0.4c2.8,0.1,5.2-0.8,7.5-1.8
		c2.3-0.9,4.2-2.7,6.2-4.2c3.3-2.4,6.4-5.1,8.7-8.5c1.8-2.5,3.5-5,5.1-7.6c0.8-1.3,1.3-2.8-0.2-4c-0.2-0.2-0.3-0.6-0.7-0.4
		c-0.6,0.2-0.8-0.2-1-0.5c-0.8-0.9-1.7-1.6-2.6-2.4s-2.1-1-2.8-1.9c-0.7-0.9-2.3,0-2.6-1.5h-0.2c-0.7-0.2-1.3-0.5-2-0.7
		c-0.2-0.1-0.5-0.4-0.7-0.1c-0.3,0.3-0.1,0.5,0,0.8c1,2.6,1.3,5.3,1.7,8.1c0.4,2.6-0.2,5.1-0.4,7.7c0,0.7-0.2,1.3-0.4,2.1
		c-0.2,1.2-0.5,2.5-1.1,3.6c-0.4,0.8-1.2,1.2-1.4,2.1c-0.1,0.4,0.5,0.7,0,1.1c-0.7,0.7-1,1.6-1.7,2.3c-1,1.1-2.1,2.6-3.8,2.8
		c-0.9,0.1-1.1-0.2-0.8-1c0.7-1.4,1.8-2.7,2.7-4c0.4-0.7,1.1-1.1,1.2-2C74.2,177.1,74.6,176.6,75.7,176.4z M61.3,144.7
		c-4.1-0.2-7.6,0.9-10.6,3.3c0.1,0,0.4,0,0.6-0.1c1.1-0.1,2.3-0.5,3.4-0.4c1.5,0.2,2.8,0,4.1-0.9C59.5,146.1,60.4,145.5,61.3,144.7z
		 M52.1,145.7c0-0.1-0.1-0.3-0.1-0.4c-1.9,0.2-4-0.1-5.6,0.7c-1.6,0.8-3.3,1.9-4.7,3.8c2.1-1.1,3.6-2.8,5.8-3.2
		c0.3-0.1,0.7-0.6,0.9-0.2c0.3,0.5-0.3,0.6-0.6,0.9c-0.7,0.7-1.6,0.8-2.3,2C48.2,148.4,49.7,146.4,52.1,145.7z"/>
	<path class="st0" d="M118.7,115.2c-1-1.7-0.6-3.9,1.1-5c0.9-0.5,0.9-1.1,0.1-1.7c-1.4-1-1.8-2.8-0.9-4.4c-0.1,2.9,0.4,4,2,3.8
		c-1.4-1.2-1.9-2.8-1.5-4.7c0-0.1,0.2-0.5-0.2-0.3c-0.5,0.2-0.4-0.1-0.3-0.4c0.6-2,1.8-3.5,3.3-4.8c0.2-0.1,0.3-0.5,0.6-0.2
		c0.1,0.1,0,0.3-0.1,0.7c3.4-3.1,7.6-5,10.9-8c1.9-1.6,4.2-2.8,6.3-4c1.8-1,3.4-2.4,5.3-3.2c0.6-0.3,1-0.9,1.7-0.1
		c1.9-0.6,4-0.2,6-0.8c0.8-0.2,0.9-0.5,0.6-1.1c-0.2-0.3-0.3-0.7-0.5-1c-0.3-0.8-0.2-1.2,0.9-1.1c0.3,0.4-0.5,0.6-0.3,0.9
		c0.1,0.2-0.2,0.9,0.5,0.4c0.3-0.2,0.3,0.3,0.4,0.6c0.3,1,0.3,2.2,0.9,3c1.5,2.3,2.9,4.7,5.6,5.9c0.2,0.1,0.3,0.2,0.5,0.4
		c-1.2,0-3-1.1-4.2-2.7c-0.9-1.1-1.9-2.1-2.5-3.4c-0.2-0.5-0.6-0.6-1-0.5c-1.2,0.2-2.5,0.4-3.7,0.6c-1.6,0.3-3.2,0.7-4.8,0.2
		c-0.5-0.1-0.9,0.1-1.1,0.4c-0.6,0.5-1.2,0.9-1.8,1.4c-1.6,1.5-3.8,2.2-5.8,3.2c-1.6,0.9-3,1.9-4.4,3.2c-1.2,1.2-2.5,2.5-4.1,3.1
		c-1.8,0.9-3.6,1.9-4.9,3.4c-0.3,0.3-0.9,0.7-0.4,1.1s0.3,1.5,1.5,1.2c0.4-0.1,0.9,0.7,1.2,1.3s0.5,1.4,0.5,2.1
		c0,0.5,0.4,1.4-0.9,1.3c-0.3,0-0.8,0.8-1.2,1c-0.5,0.3-0.9,0.6-1.9,0.5c1.6,0.6,2.6-0.3,3.5-0.9c0.5-0.3,0.9-0.7,1.2-1.1
		c1.5-2.5,4.2-3,6.6-4c2-0.9,3.8-2,5.6-3.2c1.8-1.2,3.8-2.4,5.7-3.6c1.3-0.9,2.6-1.6,2.8-3.3c0.1-0.8,0.7-1.3,1.3-1.8
		c0.2-0.2,0.5-0.2,0.8,0c0.2,0.2,0.1,0.5,0,0.7c-0.4,0.8-0.8,1.5-1.2,2.3c-1,1.4-2.1,2.8-3.1,4.4c-0.1,0.2-0.3,0.4-0.6,0.3
		c0-0.5,0.5-0.8,0.7-1.2c0.1-0.2,0.2-0.5,0-0.7c-0.2-0.2-0.4,0-0.6,0.1c-2.5,1.6-5,3.1-7.5,4.7c-1.6,1.1-3.3,2-5.1,2.8
		c-2.4,0.9-4.1,2.7-6,4.1c-0.9,0.8-2.2,0.7-2.8,1.7c-0.4,0.5-0.2,1.2-0.8,1.7c0.5-0.4,0.9-0.8,1.4-1c0.8-0.4,1.4-0.4,1.8,0.5
		c0.7,1.3,1.5,2.6,0.6,4.2c-1.1-0.2-1.7,0.9-2.6,1.4c0.9-0.5,1.7-0.9,2.6-1.4c0.7-0.4,1.5-0.6,2.1-1.1c1-1,2.4-1.4,3.7-1.9
		c2.6-0.9,4.7-2.5,7.3-3.4c1.5-0.5,3.1-0.7,4.6-1.4c0.9-0.5,1.8-0.3,2.8,0c1.1,0.3,2.3,0.4,3.3,1c-0.8,0.1-1.4,0-2.1-0.2
		c-0.9-0.3-1.5-0.2-2.4,0.3c1.5,0,3,0.4,4.6-0.2c0.9,0,2-0.2,2.9,0.1c-2.8,0.4-5.4,1-8.2,0.4c-1.1-0.3-2.2-0.2-3.2,0.1
		c-2.7,0.9-5.1,2-7.7,3.1c-0.7,0.4-1,0.9-0.9,1.4c0.1,0.7,0.6,1.5,1.3,1.5c1.1,0,1.9,0.7,2.7,1.2c0.5,0.4,0.8,0.5,1.1-0.2
		c0.4-0.9,1-1.6,1.9-1.7c1.9-0.2,3.7-0.9,5.7,0.1c1,0.6,2.2,1.2,3.5,0.7c0.5-0.2,1-0.1,1.5,0.2c1.5,0.9,3.4,1.2,4.9,2.4
		c0.2,0.1,0.3,0.2,0.5,0.3c0.2-0.5-0.1-0.8-0.2-1.1c-0.9-2,0.5-4.7,2.3-5.8c0.3-0.2,0.8-0.6,0.7,0.3c0,0.2,0.2,0.1,0.4,0.1
		c1.4-0.1,2.8,0.3,4.1,0.7c2.8,0.9,5.7,1.7,8.5,2.6c0.4-0.4-0.1-0.6,0-0.9c0.1-0.2,0.2-0.4,0.4-0.4s0.3,0.2,0.3,0.3
		c0,0.6,0.5,0.7,0.8,0.9c0.4,0.2,1,0.3,0.9,0.8c-0.3,0.7-0.8-0.1-1.2,0c0.3,0.3,0.5,0.5,0.8,0.7c0.3,0.2,0.7,0.5,1,0.3
		c0.5-0.3,0.2-0.6,0.2-0.9c-0.1-0.8,0.2-1.6-0.1-2.4c-0.2-0.5-0.4-0.9-0.9-0.6c-1,0.5-2.3,0.6-3.2,1.3c-0.2,0.1-0.4,0.3-0.5,0
		c-0.2-0.8-0.9-0.6-1.3-0.7c-0.2,0-0.4-0.1-0.4-0.4s0.2-0.3,0.4-0.3c0.3,0,0.6,0,0.8,0.1c1.1,0.2,2.2,0.1,3.3-0.5
		c1.3-0.7,2.8-0.9,4.2-0.9c1.2-0.1,2.5-0.5,3.7-0.9c1.7-0.6,3.5-0.9,5.2-1.5c0.9-0.3,0.9-0.3,0.8-1.2c0-0.3,0.2-0.5,0.4-0.4
		c0.7,0.3,1.2,0.3,1.9-0.1c0.4-0.2,1,0.1,1.3,0.5c0.9,1.4,2.6,1.5,4,1.8c2,0.5,3.9,1.2,5.6,2.4c0.3,0.2,0.7,0.4,0.5,0.8
		c-0.2,0.5-0.6,0.2-0.9,0.1c-2.8-0.9-5.5-1.8-8.2-2.7c-0.5-0.2-0.9-0.5-1.3-0.7c-0.7-0.4-1.4-0.5-2.2-0.2c-0.5,0.2-0.9,0.6-0.4,1.1
		c2.1,2.5,1.4,5.2,0.6,7.9c-0.7,2.2-2.3,2.8-4.4,1.7c-2.9-1.6-5-4.2-6.8-7c-0.4-0.6,0-0.8,0.4-1c-0.4,0-0.7,0-1,0s-0.7-0.1-0.9,0.2
		c-0.2,0.4,0.3,0.5,0.6,0.8c0.8,0.7,0.7,1.8,1.2,2.6c0.2,0.2-0.2,0.5-0.4,0.7c-2,2.2-3.8,4.7-5.7,6.9c-1.4,1.7-2.3,1.9-4.4,1.1
		c-0.5-0.2-0.7,0-0.9,0.4c-0.9,1.7-2.2,2.9-3.3,4.5c-0.9,1.3-2.3,1.6-3.8,1c-0.5-0.2-0.9-0.4-1.5-0.4c-1.1,0-2.1-0.3-3.1-0.9
		c-1.1-0.7-2.6-0.9-3.9-1.2c-1.9-0.7-3.5-1.9-5.3-2.8c-1-0.5-2.1-1-3.2-1.4c-1.5-0.6-2.5-1.7-3.3-2.9c-0.1-0.2-0.3-0.4,0-0.8
		c1.1,0.9,1.5,2.8,3.6,2.8c-1.4-1.3-2.6-2.6-3.5-4c-0.4-0.5-1.1-0.9-1.7-1.3c-0.5-0.3-1.2,0-1.7,0.6c-0.4,0.4-0.7,0.9-0.9,1.3
		c-0.1,0.1-0.1,0.2-0.1,0.3c0.3,0.8-0.5,1.8-1.3,1.6c-0.7-0.2-1.4-0.5-1.6-1.4c0-0.1,0-0.3,0-0.3c1.3,0,1.1-1.7,2.3-2
		c0.2,0.7-0.6,0.9-0.6,1.7c0.7-0.8,1.2-1.4,2-1.9c0.3-0.2,0.2-0.5-0.1-0.6c-0.9-0.4-1.9-0.7-2.8-0.9c-0.1,0-0.2,0-0.2,0
		c-1.2,0.4-1.9,2.1-1.2,3.3c0.2,0.4,0.5,0.6,0,0.9c-0.4,0.3,0,0.7,0.2,0.9c0.5,0.4,0.9,0.7,1.4,0.9c2.2,1.1,3.9,2.8,5.7,4.5
		c1,0.9,2.1,2.5,3.5,2.5c1.5,0,3.1,0.2,4.7,0.1c0.6,0,1-0.1,1.6-0.2c0.3-0.1,1,0.3,0.7-0.7c-0.1-0.2,0.2-0.2,0.3-0.2
		c0.5,0.3,1.1,0,1.7,0.3c-0.9,1-2,1.2-3.1,1.3c-2.2,0.3-4.5-0.1-6.6-0.2c-0.8,0-1.3-0.4-1.8-0.9c-2.6-2.3-5.5-4-8.3-6
		c-0.9-0.8-2.4-1-3.5-0.5c-0.9,0.5-1.3-0.1-1.5-0.7c-0.6-1.4-1-2.8,0.3-4.2c-0.6-0.3-0.9,0-1.1,0.2c-0.9,0.7-1.9,1-3.1,1.2
		C119.7,117.1,119.2,116.9,118.7,115.2c0.7-0.2,0.5-0.8,0.4-1c-0.1-0.7-0.2-1.2-0.2-1.9C118.1,113.2,118.7,114.2,118.7,115.2z
		 M159.9,118.6c-1-0.1-1.7-0.9-2.5-1.3c-0.4-1-0.3-2.2-0.9-3.2c-0.5,1.1-0.1,2.4,0.9,3.2c-0.1,0.2,0,0.6-0.5,0.4
		c-1.3-0.6-2.8-1-4.3-0.9c-0.5,0-1-0.2-1.3-0.5c-1.2-1.1-3-1.2-4.5-2.1c-0.3-0.2-0.7-0.1-0.9,0.2c-0.3,0.4,0.2,0.6,0.4,0.8
		c0.5,0.6,0.7,1.1,0.3,1.7c-0.9,1.1-1.6,2.3-2.5,3.5c-0.2,0.2-0.4,0.5-0.7,0.3c-0.9-0.5-0.7,0.2-0.8,0.7c1.1-0.3,1.9,0.3,2.8,0.8
		c3.7,2,7.3,4.2,11.4,5.2c1.5,0.4,2.9,0.2,4.4-0.2c0.6-0.2,1.1-0.3,1.5-0.8c0.8-1.2,1.8-2.3,2.8-3.3c0.5-0.6,0.5-0.9-0.3-1.2
		c-1.2-0.6-2.5-1.3-3.7-2C160.8,119.5,160.2,119.2,159.9,118.6c1.4,0.6,2.8,1.2,4.3,1.7c0.3,0.1,0.4,0.2,0.6,0.5
		c0.8,1,2.2,1.1,3.2,1.7c0.3,0.2,0.5-0.3,0.8-0.5c0.8-0.8,1.4-1.7,2.3-2.4c1.4-1,2.4-2.6,3.6-3.7c-1-0.1-2.3-0.5-2.6-1
		c-0.6-1.1-1.4-1.1-2.3-1.3c-1.7-0.4-3.4-0.7-5.2-1c-0.4-0.1-0.7-0.1-0.9-0.4c-0.4-0.7-0.9-0.7-1.7-0.5c1.5,1.6,0.9,3.1-0.3,4.6
		c-0.5,0.5-0.9,1.1-1.5,1.3C159.5,117.8,159.9,118.2,159.9,118.6z M188.1,112.2c0-1.1-0.5-2-1-2.8c-0.6-0.8-1.1-0.9-1.9-0.5
		c-0.6,0.4-1.2,0.4-1.9,0.2c-1-0.4-2,0.4-2.9,0.7c-0.3,0.1-0.3,0.4-0.2,0.6c0.5,1.3,0.4,2.8,1.4,4c1.1,1.2,1.9,2.8,3.7,3.4
		c1,0.3,1.8,0,2-1C187.6,115.1,187.8,113.5,188.1,112.2z M141.1,116.2c-0.9,1.2-0.9,1.3,0.4,2.4c0.4,0.3,0.9,0.7,1.2,0.9
		c0.5,0.3,0.9,0.3,1.1-0.3c0.5-0.8,1.3-1.5,1.4-2.3c0.1-0.9-1.2-1-2-1.5c-0.2-0.1-0.3-0.4-0.6-0.4c-0.8-0.3-1.5-0.5-2.2,0.2
		c-0.2,0.3-0.7,0.5-0.5,0.9C140.3,116.5,140.7,115.7,141.1,116.2z M124.9,104.9c-0.3-0.9-0.3-1.9-1-2.6c-0.3-0.3-0.6-0.4-0.9-0.1
		c-1.2,0.9-2.2,2.2-2.7,3.6c-0.2,0.6,0.5,1.3,0.9,1.1c1.2-0.3,2.3-0.9,3.2-1.6C124.7,105.3,125,105.3,124.9,104.9z M122.4,114.3
		c1.5,0,2.6-0.9,3.2-2.1c0.4-0.7-0.2-1.4-0.5-2.1c-0.2-0.7-0.6-0.8-1.2-0.4c-0.9,0.6-1.6,1.6-2.5,2.3c-0.5,0.4-0.2,0.9,0,1.4
		C121.7,113.9,121.8,114.4,122.4,114.3z M159.6,112.5c-0.5,0.2-0.9,0.4-1.1,0.9c-0.7,1.2,0.2,2,0.8,2.9c0.5,0.8,0.8,0.6,1.1-0.1
		c0.5-0.9,0.7-1.9,1.8-2.1c0.2,0,0.4-0.5,0-0.6C161.3,113.3,160.5,112.9,159.6,112.5z M128.1,114.6c-0.9-0.2-1.2,0.5-1.5,0.9
		c-0.4,0.8-0.7,1.6-0.2,2.4c0.2,0.4,0.9,0.7,1.3,0.5c0.5-0.3-0.1-0.7-0.3-1c-0.6-0.9-0.5-1.5,0.3-2.2
		C127.8,115,128.1,115,128.1,114.6z M121.4,114.8c-0.5-0.8-0.8-1.3-1.1-2C120.1,113.7,120.5,114.3,121.4,114.8z M130.4,119.7
		c-0.7-0.8-0.7-0.8-1.2-0.8C129.3,119.5,129.7,119.8,130.4,119.7z"/>
	<path class="st0" d="M189.1,188.8c0.1-1.1,0-2,0.5-2.8c0.1-0.2,0.2-0.4,0.5-0.4s0.4,0.3,0.4,0.5c0.2,1.2,0.6,2.5,0.5,3.8
		c0,1,0.4,2.1,0.9,3c0.6,1.2,0.9,2.7,1.9,3.6c1.3,1.2,2.9,1.5,4.6,2c3,0.9,6,0.3,8.8-0.9c1.9-0.9,3.8-1.9,5.5-3.1
		c3-2.3,6.3-4.2,9.1-6.6c1.2-1,2.8-1.8,4.2-2.8c2.4-1.8,4.2-4.2,6.1-6.4c2-2.3,3.9-4.6,5.1-7.3c1.4-3.2,3-6.5,3.5-10.1
		c0.4-2.6,0.3-5,0.7-7.6c0.9-5.6-0.5-10.8-2.4-16c-0.9-2.6-2.9-4.6-4.7-6.6c-0.9-0.9-1.8-1.9-2.8-2.8c-1.8-1.9-4-3.1-6.4-4.1
		c-3.3-1.3-6.7-1.9-10.4-0.9c-4.9,1.4-9.1,4-12.3,7.9c-1.5,1.8-3.6,3.2-4.4,5.7c-0.2,0.8-0.2,1.6-0.9,2.2c-0.2,0.2-0.2,0.7-0.6,0.5
		c-0.4-0.1-0.2-0.6-0.2-0.8c-0.6-2.4,1.1-3.7,2.4-5.2c1.6-2.1,3.3-4.2,5.2-6c2.2-2,4.8-3.3,7.5-4.5c3.3-1.4,6.6-1.9,10.3-1.2
		c3.2,0.7,6.2,1.7,8.8,3.5c1.8,1.3,3.3,3,4.8,4.7c0.9,1,1.7,2.2,2.7,3c1.7,1.6,2.3,3.8,3.1,5.9c1.3,3,1.5,6.2,1.7,9.3
		c0.2,3.5,0.3,7.1,0.2,10.6c0,1.6-0.4,3.1-1.1,4.7c-1,2-1.5,4.3-2.6,6.3c-1.1,2.1-2.1,4.4-3.7,6.3c-0.6,0.7-0.7,1.7-1.3,2.3
		c-2,1.9-3.6,4.2-5.7,6c-1.2,1.1-2.6,2.2-4,3.1c-2.2,1.4-4.2,3.2-6.4,4.7c-3.5,2.4-6.9,5-10.8,6.7c-2.8,1.1-5.6,1.5-8.6,0.9
		c-1.6-0.3-3.2-0.6-4.6-1.4c-2.3-1.4-3.7-3.5-4.2-6.2C189.4,190.9,188.8,189.8,189.1,188.8z"/>
	<path class="st0" d="M80.8,85.5c0-1.3,0.1-2.8-0.2-4.1c-0.7-2.7-1.4-5.2-2.2-7.8c-0.2-0.6-0.5-1-0.5-1.6c0-0.4-0.4-0.9,0.2-0.9
		c0.5-0.1,0.5,0.5,0.5,0.9c0,0.3,0.1,0.7,0.5,0.6c0.3-0.1,0.9-0.1,0.8-0.8c0-0.1,0-0.3,0-0.4c-0.7-1.2,0.4-2.4,0.3-3.6
		c0-0.3,0.2-0.5,0.5-0.5c0.4,0,0.4,0.4,0.4,0.6c0.1,1.5,0.2,3,0.3,4.6c0.3,2.9,0,6,0.5,8.9c0.4,2.3,0,4.7,0.5,6.9
		c0.6,3.1,1,6.3,1.6,9.4c0.1,0.8,0.7,1.3,1,1.9c1.6,2.1,3.2,4.3,5.1,6.2c3.4,3.3,5.7,7.2,5.6,12.2c-0.1,2.1-0.7,4-1.6,5.7
		c-0.8,1.3-3.4,1.8-4.8,0.9c-0.7-0.4-1.4-0.7-2.2-0.9c-0.9-0.4-1.7-0.9-2.6-1.3c-1.7-0.8-3.3-0.9-4.9,0.3c-1,0.7-2.4,0.9-3.5,1.5
		c-2.1,0.9-3.9,0.2-5.7-0.9c-0.9-0.7-1.9-1.3-2.7-2.3c-1.2-1.5-2.5-1.5-4.2-0.5c-1.9,1.1-3.7,2.6-5.5,3.8c-2.8,1.9-5.4,1.4-8.1-0.2
		c-1.1-0.8-1.4-2.2-1.7-3.4c-0.6-2.1-0.3-4.3,0.2-6.4c0.6-2.6,1.3-4.9,3-7c2-2.5,3.9-4.8,6-7.2c1.7-2,2.8-4.4,3.3-7
		c0.8-3.8,1.8-7.6,2.2-11.5c0.5-3.7,0.8-7.4,1.1-11.2c0-0.1,0-0.2,0-0.2c0.2-0.5,0-1.3,0.6-1.3c0.7-0.1,0.5,0.8,0.5,1.3
		c0,2.6,0,5-0.4,7.6c-0.4,2.3-0.7,4.5-0.9,6.7c-0.5,2.8-1.4,5.5-2,8.4c-0.6,3.1-1.9,6.1-4.2,8.5c-2.6,2.6-4.7,5.4-6.5,8.6
		c-1.1,2.2-2.2,4.5-2.4,6.9s0.2,4.9,2.4,6.6c2.1,1.4,4.4,1,6.5-0.1s3.5-2.9,5.3-4.4c0.9-0.8,2.1-0.9,3.1-0.2
		c0.7,0.5,1.4,0.8,2.1,1.3c0.9,0.7,1.6,1.5,2.5,2.2c2,1.4,4.1,1.3,6.2,0.2c1.2-0.7,2.5-1.3,3.7-1.9c0.6-0.3,1-0.4,1.6-0.1
		c1.9,0.9,3.9,1.6,5.8,2.7c0.9,0.5,1.6,0.5,2.5,0.3c0.8-0.2,1.4-0.7,2.2-1c0.3-0.2,1-0.4,0.6-1.2c-0.2-0.4,0.4-1.3,0.7-2
		c0.6-1.4,0.2-2.8,0.1-4.2c-0.3-3-1.9-5.4-4-7.6c-1.9-1.9-3.5-4.1-5.5-5.8c-1.2-1-1.1-2.5-1.6-3.7c-0.4-1-0.2-2.3-1.1-3.2
		c-0.6-0.6-0.9-1.7-0.4-2.7c0-0.2,0-0.4,0-0.6C81,89.2,81.3,87.3,80.8,85.5L80.8,85.5z"/>
	<path class="st0" d="M208.1,150.6c-0.1,1.8,0.4,3.6,1.3,5.1c1.4,2.2,2,4.7,3,7c0.1,0.2,0.2,0.4,0.3,0.7s0.3,0.6-0.1,0.8
		c-0.3,0.1-0.5-0.2-0.7-0.4c-0.7-1-1.3-2.1-1.9-3.1c-0.9-1.5-1.2-3.3-2.1-4.8c-1-2.1-1.4-4.4-1.9-6.6c-0.7-3.3-1.1-6.7,0.1-10.1
		c0.3-0.9,0.3-1.7,0.7-2.5c1.2-3,3.7-4.5,6.6-5.4c1.4-0.5,2.8-0.8,4.3-1c1.7-0.3,3.4,0.1,4.8,0.9c0.7,0.4,1.3,0.5,2,0.8
		c2.8,1,5.4,2.5,7,5c1.4,2.1,2.4,4.5,2.9,7c0.5,2.1,0.5,4.1,0.9,6.2c0.6,3.8-0.4,7.4-1.2,11c-0.9,3.8-2.8,7.1-4.7,10.4
		c-1.3,2.2-2.8,4.3-4,6.5c-0.9,1.5-2.2,2.6-3.3,3.8c-0.2,0.2-0.5,0.5-0.8,0.4c-0.2,0-0.4,0-0.5-0.2s0.1-0.4,0.2-0.5
		c3.2-2.8,5-6.6,7.3-10.2c1.4-2.3,2.7-4.7,3.8-7.1c0.7-1.3,1.2-2.8,1.3-4.2c0.2-2.8,0.9-5.7,0.8-8.6c-0.4-3.8-0.7-7.6-2.1-11.1
		c-0.8-2-2.2-3.8-3.9-5.1c-2.2-1.6-4.7-2.8-7.3-3.2c-2.7-0.6-5.4-0.3-8,0.9c-0.4,0.2-0.8,0.5-1.1,0.6c-1.8,0.7-2.8,2.1-3.6,3.8
		c-1.3,2.7-1.5,5.4-1.4,8.2c0.1,3.3,0.7,3.8,4,4.3c1.7,0.2,3.5,0.4,4.9,1c2.6,1.3,4.8,3.2,5.7,6.2c0.6,2,1.5,3.8,1.9,5.8
		c0,0.2,0.1,0.3,0.1,0.5c0,0.5,0.3,1.1-0.3,1.3c-0.8,0.2-0.7-0.6-0.9-0.9c-0.7-1.5-0.9-3-1.3-4.7c-0.7-2.8-2.6-4.7-5-5.8
		c-2.2-1-4.7-1.7-7-2.1C208.7,151,208.4,150.6,208.1,150.6z"/>
	<path class="st0" d="M164,77.8c-1.2-1.3-2.1-2.8-2.9-4.5c-0.2-0.3-0.4-0.7-0.7-0.9c-0.3-0.3-0.5-0.4-0.4,0.2c0,0.2-0.3,0.3-0.4,0.3
		c-1.3,0.3-2.7,0.3-4.1,0.6c1.5-0.4,2.5-1.8,4.1-1.9c-0.3-0.6-0.7-0.5-1-0.5c-3.6,0.2-7.2,0.1-10.7,0.6c-2.9,0.4-5.9,0.2-8.7,0.6
		c-0.9,0.1-1.4,0.6-2.1,0.9c-2.7,1-4.8,2.9-7.2,4.4c-0.5,0.3-1.3,0.9-0.8,1.8c0.2,0.4-0.3,0.5-0.6,0.5c-1.2,0.3-2.4-0.1-3.4-0.5
		c-2.4-0.7-4.6-1.5-6.9-2.1c-0.8-0.2-0.7-0.9-1-1.7c1.7,0.9,3.6,0.7,5.1,1.4c1.3,0.7,2.8,0.7,4.2,1.4c0.3,0.2,0.6,0,0.8-0.2
		c2.8-2.5,6.2-4.3,9.5-6.1c1.8-0.9,3.9-1,5.9-1.6c0.6-0.2,1,0.4,1.6,0.4c1.7,0.2,3.4,0,5.1-0.1c3.6-0.1,7-0.9,10.5-1.5
		c0.9-0.2,1.1-0.1,1.7,0.6c-0.6,0.2-1.2-0.2-1.8,0.2c0.2,0.4,0.5,0.1,0.8,0.2c0.2,0,0.5,0.1,0.4,0.3c-0.8,0.9,0.3,1.1,0.6,1.5
		c0.5,0.6,0.3,1.3,0.8,1.9c0.3,0.3,0.7,0.6,1,0.4c2-0.8,4-0.1,6-0.1c3.2,0,6.5-0.1,9.7,0.1c2.8,0.2,5.5,0.5,8.2,1.1
		c1.1,0.3,2.3,0.4,3.3,0.5c1.1,0.1,2.2,0.1,3.2,0.4c0.7,0.2,1.2,0,1.9-0.3c1.6-0.9,3.3-1.5,5.1-2c0.9-0.3,1.4-0.1,2.3,0.4
		c3.2,1.8,5.3,4.7,7.6,7.4c1.2,1.4,2.4,2.8,4,3.8c0.1,0.1,0.2,0.2,0.3,0.3c-0.2,0.2-0.4,0.1-0.6,0c-1.3-0.7-2.8-1-4-1.9
		c-0.9-0.5-0.9-1.4-1.5-2.1c-1.8-1.9-3.6-3.7-5-5.8c-0.4-0.6-1.1-0.7-1.6-1.1c-0.8-0.7-1.9-0.1-2.7,0.7c-1.3,1.3-3.1,1.5-4.8,1.8
		c-0.9,0.2-1.8-0.4-2.6-0.6c-0.7-0.2-0.9,0.3-1.5,0.3c-5.3-0.7-10.6-1.2-16-1.7c-3.3-0.3-6.6,0.1-9.9,0.2c-0.4,0-0.8,0.1-1.1,0.4
		c0.5,0.5,0.4,1,0.5,1.5C164,77.7,164,77.7,164,77.8z M181.4,75.3c1.3,0.2,2.8,0.6,4.1,0.5C184.1,75.6,182.7,75.2,181.4,75.3z"/>
	<path class="st0" d="M201.5,174.4c0.9-1.5,1.8-2.9,2.4-4.6c0.5-1.4,0.2-3,0.1-4.5c-0.2-2.6-1.8-4.5-3-6.6c-0.1-0.1-0.2-0.3-0.3-0.4
		c-0.1-0.4-0.7-0.8-0.3-1s0.9,0.1,1.2,0.7c0.2,0.4,0.3,0.9,0.7,1c1.3,0.9,1.7,2.5,2.3,3.9c0.9,2,1.2,4.1,1,6.2
		c-0.3,2.7-1.5,4.8-3.6,6.6c-0.5,0.4-0.5,0.8-0.3,1.2c0.6,1.3,1.4,2.5,2.8,3.1c1.5,0.8,2.6,0.5,3.5-0.9c0.9-1.3,1.4-2.8,2.4-4
		c1.3-1.9,3.4-2.8,5.2-4.2c1.2-1,2.6-2,3.8-3.1c0.2-0.2,0.4-0.6,0.8-0.3c0.4,0.3,0.1,0.6-0.1,0.9c-1.7,2.2-3.7,4-6.3,5.1
		c-1.4,0.7-2,2.2-2.8,3.5c-0.9,1.3-1.5,2.7-2.5,3.9c-0.9,1.3-3.3,1-4.7,0c-2.4-1.6-3-4.2-3.4-6.7c-0.1-0.9,0.1-1.7,0.1-2.6
		c0-1.5,0-3-0.6-4.4c-0.4-0.9-1.2-1-2.1-0.9c-0.6,0.2-1.3,0.3-1.4-0.4c-0.1-0.6,0.8-0.8,1.2-0.9c1.8-0.5,4.6,1.7,4.3,3.6
		C201.3,170.4,202,172.4,201.5,174.4z"/>
	<path class="st0" d="M26.3,184.3c0.5,0,0.8,0.3,1.1,0.6c2.6,2.2,5.5,3.6,8.5,4.7c4.5,1.7,9,2.7,13.6,3.7c2.4,0.5,4.7,0,7-0.2
		c2-0.1,3.9-0.3,5.9-0.2c0.5,0,0.9-0.1,1.3-0.2c0.4-0.1,0.8-0.1,0.9,0.4c0.1,0.4-0.4,0.4-0.6,0.5c-1.8,0.6-3.7,0.6-5.5,0.8
		c-1.5,0.2-3,0.3-4.7,0.2c-2.4-0.1-4.7-0.5-7-0.9c-1.7-0.3-3.5-0.3-5.2-0.9c-2.4-0.8-4.7-1.4-7.1-2.2c-2.9-0.9-5-2.9-7.4-4.7
		C26.6,185.7,26.1,185.2,26.3,184.3z"/>
	<path class="st0" d="M161.9,85.8c-0.6-0.6-0.5-1.3-0.8-2c-0.3-0.5,0.3-0.7,0.7-0.9c0.9-0.4,1.7-0.5,2.7-0.6
		c1.5-0.2,1.7-0.4,0.9-1.7c-0.5-0.9-1-1.9-1.5-2.9l0.1-0.1c1.4,1.3,2.2,3.1,3.3,4.7c-0.6,1.1,1.2,1.6,0.7,2.8
		c-0.1,0.1,0.3,0.5,0.6,0.9c0.1-0.5-0.4-0.9-0.1-1.1c1.1,0.8,1.5,2.4,0.9,3.5c-0.1,0.1-0.1,0.1,0,0.3c0.1,0.9-0.3,1.1-1.1,0.9
		c-0.6-0.2-1.1-0.5-1.6,0.2c0.1,0.4,0.8,0.3,0.8,0.9c-0.8,0.2-1.6-0.1-2.2-0.4c-0.6-0.3-0.9-1-1.7-1.4c0.7-0.3,1.1,0.1,1.6-0.2
		c-1.1-0.4-2.3-0.9-2.8-2.2c0.9,0,1.8,0.6,2.7,0.9c0.9,0.3,1.9,0.7,2.9,0.3c0.4-0.2,0.7-0.4,0.4-0.9c-0.7-0.9-0.9-1.8-1.3-2.8
		c-0.3-0.7-0.8-0.9-1.2-0.8c-0.9,0.2-1.8,0.6-2.8,0.9c-0.5,0.2-0.5,1-0.5,1.6C162.3,85.7,162.1,85.8,161.9,85.8z"/>
	<path class="st0" d="M81.3,91.1c0,0.2,0,0.4,0,0.6c-0.2,0.6-0.4,0.4-0.7,0.1c-0.6-0.6-0.5-1.5-1.2-2.1c0.4,1.2,0.7,2.3,1.1,3.4
		c-0.6-0.5-1.1-1-1-1.9c-0.5-0.1-0.4,0.5-0.9,0.7c0.7-2.8-1.4-4.7-2.2-7c0.6,0.2,0.6,0.2,1.3,1.6c0.4,0.7,0.7,1.3,1,2.1
		c0.1-1.1-0.5-2-0.9-2.8c-0.4-1-0.9-2.1-1.3-3.1c-0.1-0.3-0.3-0.8,0.1-0.9c0.5-0.1,0.4,0.4,0.5,0.7c0.3,0.9,0.8,1.8,1.1,2.7
		c-0.4-2.6-1.8-4.9-1.6-7.7c0.5,1.3,0.8,2.6,1.4,4c-0.1-2.9,0.3-5.8-0.9-8.5c1,1.2,1.3,2.8,1.7,4.2c0.6,2.8,1.2,5.7,2,8.5l0,0
		c-0.1,0.4,0.4,1-0.3,1.1c-0.5,0-0.4-0.7-0.5-1.1c-0.3-2.2-1.1-4.2-1.4-6.4c-0.2,1.9-0.2,3.8,0.4,5.7C79.6,87,80.3,89,81.3,91.1z"/>
	<path class="st0" d="M100.2,154.2c0,0.4-0.3,0.5-0.5,0.7c-2.4,1.2-4.8,2.5-7.3,3.5c-0.4,0.2-0.8,0.3-1.1,0.5
		c-0.4,0.2-0.7,0.2-0.9-0.2c-0.2-0.4,0.2-0.5,0.4-0.7c1.3-0.9,2.9-1.5,4.5-2.3c1.1-0.6,2.3-1.1,3.5-1.6
		C99.2,153.8,99.8,153.6,100.2,154.2z"/>
	<path class="st0" d="M96.5,151.2c-0.7,0.9-1.8,1-2.8,1.6c-1.5,0.9-3.1,1.5-4.7,2.4c-0.3,0.2-0.6,0.4-0.9,0
		c-0.2-0.4-0.3-0.8,0.2-1.1c1.8-1.3,4-2,6.1-2.8C95,150.8,95.7,150.9,96.5,151.2z"/>
	<path class="st0" d="M83,144c0,0.4-0.4,0.4-0.6,0.5c-2.8,1.4-5.6,3.1-8.3,4.9c-0.2,0.1-0.4,0.3-0.6,0.1c-0.2-0.2-0.1-0.4,0-0.7
		c0.4-0.8,1-1.4,1.7-1.7c1.4-0.6,2.7-1.4,3.9-2.3c0.9-0.6,1.9-0.9,2.9-1.2C82.5,143.7,82.9,143.6,83,144z"/>
	<path class="st0" d="M121.7,82.8c-0.5,1.9-0.9,3.7-1,5.6c0,2.2-0.9,4.4-0.4,6.6c0.1,0.4-0.3,0.7-0.6,0.9c-0.1,0.1-0.3,0-0.4-0.1
		c-0.3-0.4-0.3-0.8-0.2-1.1c0.4-1.6,0.9-3.3,0.8-4.9c-0.1-2,0.5-3.9,0.8-5.9C120.8,83.2,121.5,83.3,121.7,82.8z"/>
	<path class="st0" d="M94.5,162.2c-0.4,0-0.7-0.2-0.5-0.5c0.4-0.5,0.6-1.1,1.2-1.4c1.8-0.8,3.5-1.9,5.3-2.8c0.2-0.1,0.4-0.2,0.6-0.2
		c0.2-0.1,0.5-0.3,0.7,0s0,0.6-0.3,0.8c-1.8,0.9-3,2.6-5,3.1C95.6,161.2,95.3,162.2,94.5,162.2z"/>
	<path class="st0" d="M118.8,108.4c-1.2-0.9-1.8-2.2-2.3-3.4c-0.3-0.8-0.7-1.4-1.3-1.7c-1.5-0.7-2.8-1.7-4.6-1.8
		c-0.3,0-0.6,0-0.6-0.4s0.3-0.4,0.6-0.4c0.4,0,0.9-0.1,1.2,0.1c1.5,0.9,3.3,1.3,4.6,2.7c0.9,1,1.5,2.4,2.1,3.7
		C118.7,107.6,118.7,108,118.8,108.4z"/>
	<path class="st0" d="M215.4,175.8c0.9,0.1,1.6,0.3,2.4-0.2c0.2-0.2,0.5,0.1,0.6,0.3c0.2,0.4,0.3,0.7,0.1,1
		c-0.9,1.4-2.8,1.7-3.9,0.4c-0.3-0.3-0.5-0.7-0.2-1C214.5,175.9,214.9,175.8,215.4,175.8z"/>
	<path class="st0" d="M78.8,94.8c-0.2,0.9,0.7,2-0.3,3c-0.6-2.6,0-5.2-1.5-7.4c1.9,2.8,3.1,5.8,4.5,8.8C80,98.2,80,96.2,78.8,94.8z"
		/>
	<path class="st0" d="M85.8,146.3c0.3,0,0.6-0.1,0.7,0.2c0.1,0.3-0.2,0.4-0.4,0.5c-2.1,0.8-3.9,1.9-5.6,3.3
		c-0.3,0.2-0.7,0.5-0.9,0.1c-0.2-0.3,0-0.6,0.2-0.9C81.4,148,83.5,146.9,85.8,146.3z"/>
	<path class="st0" d="M149,97.3c0.7,0.3,1-0.9,1.7-0.4c0.4,0.4,0.6,0.9,0.8,1.5c0.2,0.5,0.5,0.7,1,0.7s0.9,0,1.3,0.1
		c0.2,0,0.5,0.1,0.5,0.4c0,0.4-0.3,0.2-0.5,0.2C151.5,100,151.5,100,149,97.3z"/>
	<path class="st0" d="M135,165.5c-0.3,0.5-0.5,0.9-0.8,1.3c-0.7,0.9-0.8,2.2-1.8,2.9c-0.2,0.1-0.3,0.4-0.6,0.3
		c-0.3-0.2-0.4-0.5-0.2-0.7c0.9-1.4,1.7-2.8,2.6-4.1c0.1-0.2,0.3-0.2,0.5-0.1S134.9,165.3,135,165.5z"/>
	<path class="st0" d="M141.1,166.8c0.1-0.2-0.2-0.7,0.3-0.8c0.3,0,0.6,0.1,0.8,0.4c0.8,0.9,1.1,2,1.6,3c0.1,0.1,0,0.3,0,0.4
		c-0.1,0.2-0.5,0.1-0.5,0c-0.3-0.7-1-0.7-1.4-1.2C141.4,168.1,141.1,167.5,141.1,166.8z"/>
	<path class="st0" d="M129.7,99.9c0,0.1,0,0.3-0.1,0.4c-0.2,0.2-0.4,0-0.5-0.1c-0.6-0.3-1.3-2.2-1.1-2.8c0-0.1,0.2-0.3,0.3-0.3
		c0.2-0.1,0.5,0.1,0.5,0.3c-0.1,0.8,0.1,1.2,0.8,1.5C129.6,99,129.6,99.5,129.7,99.9z"/>
	<path class="st0" d="M153.6,86.5c0.1-0.4-0.1-1,0.6-0.9c0.4,0,1,0.3,0.8,0.9c-0.2,0.6,0,1.5-0.8,1.5
		C153.6,87.9,153.7,87.1,153.6,86.5z"/>
	<path class="st0" d="M139.3,93.5c-0.5-0.2-0.9,0.3-1.1-0.3c-0.2-0.7-0.4-1.3-0.2-2c0.1-0.4,0.5-0.1,0.6,0.1
		C138.7,92,139,92.6,139.3,93.5z"/>
	<path class="st0" d="M177.7,183.6c0.4,0.8,1.4,0.9,1.8,1.8c0.1,0.3-0.1,0.5-0.4,0.3c-0.8-0.4-1.3-0.9-1.7-1.7
		C177.3,183.7,177.4,183.6,177.7,183.6z"/>
	<path class="st0" d="M130.7,110c-0.9-0.7-0.9-1.4-1.3-2.1c-0.1-0.2-0.1-0.4,0.2-0.5c0.2-0.1,0.4,0.1,0.5,0.3
		C130.3,108.4,130.6,109,130.7,110z"/>
	<path class="st0" d="M155.3,106.6c0.5,0,1,0.1,0.9,0.6c-0.1,0.4-0.6,0.8-0.9,0.9c-0.5,0.1-0.6-0.5-0.6-0.9
		C154.8,106.5,155.2,106.6,155.3,106.6z"/>
	<path class="st0" d="M134.8,121c0.3-0.9,1-1.1,1.7-1.3c0.2-0.1,0.5,0.1,0.5,0.4c0.1,0.4-0.3,0.2-0.4,0.3
		C136.1,120.4,135.5,120.6,134.8,121z"/>
	<path class="st0" d="M136.6,207c-0.3,3.1-0.1,6.1-1.1,8.8c-0.1,0.3-0.1,0.6,0.3,0.7c1.1,0.2,0.4,0.6,0.2,1c-0.7,1-1.4,2.2-1.2,3.5
		c0.2,1.3-0.7,2.5-0.6,3.8c0,0.1-0.3,0.4-0.5,0.5c-0.5,0.3-1.2,0.2-0.9,1.1c0.1,0.2-0.3,0.2-0.6,0.2c-0.4,0-0.8,0-0.8-0.5
		c0-0.6-0.5-0.8-0.9-1c-0.9-0.7-0.8-1.3-0.4-2.3c0.6-1.3,1.6-2.3,2.5-3.3c0.2-0.2,0.3-0.5,0.3-0.7c0.1-1.6,0.6-3.1,0.6-4.7
		c0-1.7,0.5-3.4,0.9-5.1c0.5-1.8,0.9-3.6,0.6-5.5c-0.1-0.4-0.1-0.8,0.4-0.9c0.5-0.2,0.6,0.3,0.7,0.6
		C136.7,204.3,136.3,205.9,136.6,207z M133.6,220.3c-0.1,0.5-0.8,0.7-0.8,1.1c0,0.5-0.1,0.9-0.7,0.9c-0.8,0.1-0.9,0.8-1.3,1.3
		c-0.2,0.3-0.3,0.7,0.1,0.9c0.5,0.2,0.6-0.2,0.7-0.6c0.1-0.5,0.6-0.8,0.8-0.3c0.4,0.9,0.6,0,0.9,0
		C133.2,222.5,134.3,221.5,133.6,220.3z"/>
	<path class="st0" d="M150.8,231.6c-0.3-0.9,0.4-1.7,0.5-2.6c0-0.4,0.6-0.7,1-0.4c0.2,0.1,0.4,0.4,0.2,0.4c-0.9,0.1-0.5,0.8-0.5,1.2
		C151.9,231,151.3,231.3,150.8,231.6L150.8,231.6z"/>
	<path class="st0" d="M151.2,224.4c-0.1-1,0.8-1.6,1-2.3c0.1-0.2,0.4-0.2,0.6-0.1c0.3,0.2-0.1,0.5-0.1,0.5c0.3,0.9-0.6,0.9-0.9,1.2
		c-0.1,0.2-0.2,0.4-0.2,0.5c0.3,0.4,0.5,0.7-0.2,0.8C151.1,225.1,151.3,224.6,151.2,224.4z"/>
	<path class="st0" d="M143.3,236.8c-0.4-0.2-0.4-0.6-0.6-0.9c-0.3-0.6,0.3-0.9,0.6-1.2c0.2-0.2,0.4-0.2,0.7-0.1
		c-0.2,0.7,0.7,0.8,0.7,1.2c0,0.6-0.5,0.2-0.8,0.2c-0.2,0-0.1,0.3-0.2,0.5C143.6,236.6,143.5,236.8,143.3,236.8z"/>
	<path class="st0" d="M157.3,190.8c-1.1-0.6-2.2-0.2-3.3-0.6C156.1,189,156.4,189,157.3,190.8z"/>
	<path class="st0" d="M140.8,238.6c-0.4-0.5-0.6-1.1-0.4-1.1c0.7-0.2,0.9-0.9,1.4-1.2c0.1,0,0.3,0.1,0.4,0.2c0.1,0.2,0,0.4-0.2,0.5
		C141.6,237.4,141,237.8,140.8,238.6z"/>
	<path class="st0" d="M145.6,185.8c0.2,0.5,0.2,0.9-0.4,1.1c-0.5,0.1-0.9-0.4-1.2-0.6c-0.2-0.1,0-0.5,0.2-0.4
		c0.5,0.1,0.6-0.9,1.2-0.3C145.3,185.7,145.5,185.7,145.6,185.8L145.6,185.8z"/>
	<path class="st0" d="M138.6,187.1c-0.4,0.8-1.5,1-3,0.7C136.6,187.1,137.7,187.2,138.6,187.1z"/>
	<path class="st0" d="M145.6,185.8c0.4-0.4,1-0.6,1.1-1.3c0-0.3,0.3-0.5,0.6-0.3s0.4,0.5,0.2,0.8C147,185.6,146.4,186.1,145.6,185.8
		L145.6,185.8z"/>
	<path class="st0" d="M64.8,166c-0.3,0.8,0.4,2.1-0.5,3.3c-0.2,0.4,0,1,0.1,1.2c0.3,1.3-0.9,1.8-1.2,2.8c-0.1,0.5-0.4,0.7-0.7,0.9
		c-1,1-2.3,1.9-3.4,2.7c-0.9,0.6-2.3,0.9-3.4,0.9c-1.4,0.2-2.9,0.5-4.4,0.6c-1.4,0.1-2.5-0.4-3.3-1.2c-1.3-1.4-2.8-2.8-3.4-4.8
		c-0.4-1.2-0.9-2.6-0.7-3.7c0.2-1,0.5-2.2,1.1-3.2c0.7-1,1.1-2.2,1.8-3.3c1.4-2.2,3.2-3.8,5.9-4.3c1-0.2,2.1-0.4,3.1-0.6
		c2-0.4,3.6,0.8,5.1,1.7C63.4,160.4,65.1,162.4,64.8,166z M49.1,175.5c0.7,0.4,1.4,1,1.6,0.9c1.3-1,2.7,0.1,3.9-0.1
		c0.2,0,0.5,0,0.7,0.1c0.4,0.2,0.4,0.2,0.7-0.2c0.1-0.1,0.3-0.2,0.4-0.2c1.3,0.6,2.2-0.6,3.2-0.9c0.9-0.3,1.5-1.3,2.4-1.9
		c0.7-0.4,0.9-1.4,1.1-2.2c0.9-2.1,1-4.3,0.6-6.4c-0.5-2.4-2.3-3.9-4.2-5.2c-0.4-0.2-0.9-0.5-1.4-0.2c0.1,0.2,0.3,0.2,0.5,0.3
		c0.3,0.1,0.6,0.3,0.4,0.6c-0.2,0.4-0.6,0.2-0.8,0.1c-0.2-0.1-0.3-0.3-0.4-0.4c-0.9-0.5-1.7-0.9-2.8-0.7c-2.4,0.5-4.3,1.6-5.7,3.5
		c-2.2,2.9-3,6.3-0.9,9.8c0.7,1.1,1.7,1.8,2.5,2.9C50.3,175.8,49.8,175.2,49.1,175.5z M51.7,176.7c0.8,0.3,1.4,0.5,2.5,0.2
		C53.2,176.5,52.5,176.4,51.7,176.7z"/>
	<path class="st0" d="M56,153c3.3-1.3,6.5-0.8,9.6-0.1c2.3,0.6,4.4,1.2,6.3,2.6c0.7,0.5,1,1,1.1,1.7c0,0.2,0.1,0.5-0.2,0.6
		c-0.2,0.1-0.4-0.1-0.5-0.3c-0.8-1.2-2.1-1.6-3.4-2c-2.8-0.9-5.5-1.4-8.3-2.2C59.2,153,57.7,153.1,56,153z"/>
	<path class="st0" d="M171.4,117.2c-0.7,1.3-1.4,2.8-3,3.2C169.4,119.4,170.3,118.1,171.4,117.2z"/>
	<path class="st0" d="M50.1,166.8c-0.3-0.5,0-0.9,0.3-1.3c0.5-0.7,0.8-1.4,1.1-2.2c0.8-1.7,2.2-2.2,3.8-1.2c0.6,0.4,1,0.8,0.8,1.5
		c-0.2,0.4,0.1,0.8,0.3,1c0.7,1.7-0.1,2.9-1.9,3c-0.9,0-1.4,0.5-2.3,0.7C50.4,168.7,50.2,168.6,50.1,166.8z M55,164
		c-1.8,0-2.3,0.3-2.8,1.3C53.2,165,54.2,164.5,55,164z M54.3,162.8c0-0.1,0-0.2-0.1-0.4c-0.7,0-1.2,0.3-1.8,0.9
		C53.2,163.2,53.7,163,54.3,162.8z M52.8,167.4c-0.5-0.2-0.8-0.6-1.2-0.3c-0.2,0.1-0.1,0.4,0,0.5C52,167.9,52.3,167.8,52.8,167.4z"
		/>
</g>
<g>
	<path class="st0" d="M104.9,41.9c-0.4,2.2-0.7,4.3-1.1,6.5c-0.2,1-0.5,1.9-0.8,2.9c-0.6,1.5-1.8,2.2-3.3,1.9
		c-6.6-1.4-12.8-3.7-18.2-7.9c-1.3-1-1.7-1.8-1.2-2.5c0.5-0.8,1.5-0.7,2.9,0c4.6,2.4,9.3,4.4,14.3,5.7c1.7,0.4,1.7,0.5,2.1-1.3
		c0.5-2.7,0.8-5.5,1.2-8.3c0.1-0.9,0.2-1.8,0.7-2.5c0.4-0.6,0.9-1.2,1.7-1.2c0.8,0,1.2,0.6,1.5,1.2c0.1,0.2,0.2,0.4,0.3,0.6
		C104.9,38.5,104.9,40.2,104.9,41.9z"/>
	<path class="st0" d="M95.3,44.8c-1.5-0.6-2.5-1.5-3.4-2.4c-2.9-2.9-5.7-5.8-8.6-8.6c-6.5-6.6-13.9-11.9-22.6-15.3
		c-5.3-2-10.7-3.2-16.3-3.9c-6.3-0.8-12.7-1.2-19-1.2c-1.5,0-2.9-0.2-4.4,0c-0.8,0.1-1.6-0.1-2.4-0.4c-0.4-0.2-1-0.3-1-0.9
		c0-0.5,0.6-0.7,1-0.9c1.3-0.7,2.8-0.6,4.2-0.7c10.9-0.6,21.7-0.2,32.3,2.2c8.9,2,16.7,6.1,23.9,11.7C84.9,29,89.9,34.5,93.7,41
		C94.3,42,94.9,43.2,95.3,44.8z"/>
</g>
</svg>
