<?xml version="1.0" encoding="utf-8"?>
<!-- Generator: Adobe Illustrator 22.0.1, SVG Export Plug-In . SVG Version: 6.00 Build 0)  -->
<svg version="1.1" id="Layer_1" xmlns="http://www.w3.org/2000/svg" xmlns:xlink="http://www.w3.org/1999/xlink" x="0px" y="0px"
	 viewBox="0 0 211.2 153.7" style="enable-background:new 0 0 211.2 153.7;" xml:space="preserve">
<style type="text/css">
	.st0{fill:#4E5D44;}
	.st1{fill:#E4D3B6;}
</style>
<g>
	<path class="st0" d="M160.3,141.4c-25.2,4.8-49.4,2.9-71.8-10.2c-14.7-8.6-30.6-14.3-46.6-19.5c-10.3-3.4-13.2-8-9.8-18.2
		c1.6-5,0.3-6.5-4-8.2c-11.8-4.5-16.5-14-13.4-26.1c1.1-4.4,2.9-6.7,8.4-8.7C33,47,39.2,37.1,44.7,28.1c2.9-4.8,4.5-6.4,10.6-5.4
		c5.7,1,12.2-1.5,15.2-7.9c1.6-3.4,3.5-5.1,8-4.5c19.8,2.6,39.7,0.7,58.9-3.7c16.5-3.7,37.6,12.1,44.2,22.9c1.9,3.1,0.8,4.2-2.1,5.5
		c-2.1,1-2.9,3.3-1.8,5.6c0.9,2,2.6,2.3,4.7,2.2c7.5-0.5,12.5,3.8,11.5,11.1c-2.1,16.5-0.2,33.9-10.6,48.7c-1.8,2.5-2.7,7.1-1.7,9.9
		c2.4,7.1-0.8,12-5,17.6C174,137.1,167.8,139.9,160.3,141.4z"/>
</g>
<g>
	<path class="st1" d="M72.9,73.7c-0.2-0.5-0.3-1.2-0.6-1.9c-4.9-12.2-9.8-24.4-14.8-36.6c-0.1-0.3-0.2-0.6-0.4-0.9
		c-0.5-1.1-0.7-2.3,0.2-3.4c0.9-1.1,2.1-0.9,3.3-0.6c6.5,1.7,13,3.5,19.6,5.2c9.8,2.6,19.6,5.2,29.3,7.8c1,0.3,1.9,0.5,2.7,1.2
		c1.2,1.2,1,2.8-0.8,4.2c-6.1,4.9-12.3,9.7-18.4,14.5c-4.5,3.6-9,7.1-13.6,10.7c-1.1,0.9-1.8,1.9-2.1,3.2c-2.3,8.6-4.6,17.2-7,25.8
		c-0.4,1.3-0.1,2,1.3,2.3c2.2,0.6,4.5,1.2,6.7,1.9c1.5,0.5,2.7,1.3,2.2,3.1c-0.5,1.8-2,1.8-3.4,1.4c-5.5-1.4-10.9-2.8-16.3-4.2
		c-1.7-0.4-3.5-0.9-5.2-1.4c-2-0.6-2.9-1.9-2.3-3.4c0.7-1.8,2.1-1.8,3.6-1.4c2,0.6,4.1,1.2,6.1,1.7c1.2,0.3,2.1,0.3,2.6-1.3
		c2.3-8.8,4.7-17.5,7.1-26.2C72.7,75,72.7,74.4,72.9,73.7z M99.8,50.3c1.8,0.2,2.9-1.2,4.1-2.1c0.9-0.7,0.7-1.1-0.4-1.4
		c-2.1-0.5-4.2-1.1-6.3-1.7c-10.8-2.9-21.6-5.8-32.3-8.7c-0.4-0.1-0.9-0.5-1.3,0c-0.2,0.2,0,0.8,0.2,1.1c0.6,1.7,1.5,3.3,1.9,5
		c1.1,4.4,4.2,6.3,8.4,7c1.3,0.2,2.6,0.3,3.9,0.3C85.3,50,92.6,49.1,99.8,50.3z"/>
	<path class="st1" d="M164.5,41.2c2.2,0,3.3,1.6,2.5,3.7c-1.7,4.4-3.5,8.7-5.2,13.1c-3.4,8.5-6.8,16.9-10.2,25.4
		c-0.4,0.9-0.5,1.7-0.3,2.7c2.4,8.8,4.8,17.6,7,26.4c0.4,1.7,1.1,2.1,2.8,1.6c2.1-0.7,4.2-1.1,6.3-1.6c1.5-0.3,2.9-0.3,3.4,1.5
		c0.4,1.5-0.4,2.7-2.2,3.2c-6.6,1.8-13.1,3.5-19.7,5.3c-0.7,0.2-1.4,0.5-2.1,0.6c-1.5,0.3-2.8-0.1-3.3-1.7c-0.4-1.6,0.5-2.5,1.9-3
		c2.1-0.7,4.2-1.4,6.3-1.8c2.1-0.4,2.3-1.5,1.8-3.3c-1.9-7.1-4.1-14.1-5.7-21.3c-0.9-4.2-3-7.1-6.4-9.7c-9.2-7-18.2-14.2-27.3-21.4
		c-0.6-0.4-1.2-0.9-1.7-1.4c-2-1.8-1.7-4,0.9-4.8c3.3-1,6.7-1.9,10.1-2.8c9.6-2.6,19.2-5.1,28.8-7.6c3.7-1,7.4-2,11.1-2.9
		C163.8,41.3,164.3,41.2,164.5,41.2z M137.3,61.1c4.4,0.3,8.7,0.2,13.1-0.5c3.3-0.5,6.3-1.6,7.3-5.4c0.5-1.9,1.4-3.7,2.1-5.5
		c0.2-0.6,0.8-1.3,0.4-1.9c-0.5-0.7-1.4-0.1-2,0.1c-11.9,3.2-23.7,6.3-35.6,9.6c-1,0.3-2.3,0.1-3,1.2c-0.3,0.5,2.5,2.7,3.6,2.8
		c0.6,0.1,1.2,0,1.8,0C129.1,61.2,133.2,60.8,137.3,61.1z"/>
	<path class="st1" d="M107.4,31.6c0,1.8-0.4,2.8-1.8,3.1c-1.2,0.3-2.4-0.1-2.8-1.3c-1.2-3.3-2.2-6.6-2.7-10.1
		c-0.2-1.2,0.5-2.2,1.8-2.6c1.2-0.3,2.3,0.1,2.6,1.2C105.7,25.2,106.6,28.7,107.4,31.6z"/>
	<path class="st1" d="M117.1,33c-0.1-1,0.5-2,0.9-3.1c0.8-2.3,1.6-4.6,2.6-6.9c0.5-1.2,1.5-1.9,2.9-1.4c1.4,0.5,2,1.6,1.5,3
		c-1.1,3.1-2.2,6.2-3.4,9.3c-0.5,1.3-1.6,1.7-2.9,1.4C117.5,35.1,117,34.2,117.1,33z"/>
	<path class="st1" d="M141.1,36.3c0,1-0.5,1.7-1.3,2.3c-2.4,1.7-4.8,3.3-7.2,4.9c-1.4,0.9-2.8,1.1-3.8-0.4c-1.1-1.5-0.2-2.7,1-3.5
		c2.5-1.8,5-3.6,7.6-5.3C139.1,33.3,141.1,34.4,141.1,36.3z"/>
</g>
</svg>
