<?xml version="1.0" encoding="utf-8"?>
<!-- Generator: Adobe Illustrator 22.0.1, SVG Export Plug-In . SVG Version: 6.00 Build 0)  -->
<svg version="1.1" id="Layer_1" xmlns="http://www.w3.org/2000/svg" xmlns:xlink="http://www.w3.org/1999/xlink" x="0px" y="0px"
	 viewBox="0 0 126.5 131.7" style="enable-background:new 0 0 126.5 131.7;" xml:space="preserve">
<style type="text/css">
	.st0{fill:#4E5D44;}
</style>
<g>
	<path class="st0" d="M26.9,67.7c-0.2-0.5-0.3-1.2-0.6-1.9c-4.9-12.2-9.8-24.4-14.8-36.6c-0.1-0.3-0.2-0.6-0.4-0.9
		c-0.5-1.1-0.7-2.3,0.2-3.4c0.9-1.1,2.1-0.9,3.3-0.6c6.5,1.7,13,3.5,19.6,5.2c9.8,2.6,19.6,5.2,29.3,7.8c1,0.3,1.9,0.5,2.7,1.2
		c1.2,1.2,1,2.8-0.8,4.2c-6.1,4.9-12.3,9.7-18.4,14.5c-4.5,3.6-9,7.1-13.6,10.7c-1.1,0.9-1.8,1.9-2.1,3.2c-2.3,8.6-4.6,17.2-7,25.8
		c-0.4,1.3-0.1,2,1.3,2.3c2.2,0.6,4.5,1.2,6.7,1.9c1.5,0.5,2.7,1.3,2.2,3.1c-0.5,1.8-2,1.8-3.4,1.4c-5.5-1.4-10.9-2.8-16.3-4.2
		c-1.7-0.4-3.5-0.9-5.2-1.4c-2-0.6-2.9-1.9-2.3-3.4c0.7-1.8,2.1-1.8,3.6-1.4c2,0.6,4.1,1.2,6.1,1.7c1.2,0.3,2.1,0.3,2.6-1.3
		c2.3-8.8,4.7-17.5,7.1-26.2C26.7,69,26.7,68.4,26.9,67.7z M53.8,44.3c1.8,0.2,2.9-1.2,4.1-2.1c0.9-0.7,0.7-1.1-0.4-1.4
		c-2.1-0.5-4.2-1.1-6.3-1.7c-10.8-2.9-21.6-5.8-32.3-8.7c-0.4-0.1-0.9-0.5-1.3,0c-0.2,0.2,0,0.8,0.2,1.1c0.6,1.7,1.5,3.3,1.9,5
		c1.1,4.4,4.2,6.3,8.4,7c1.3,0.2,2.6,0.3,3.9,0.3C39.3,44,46.6,43.1,53.8,44.3z"/>
	<path class="st0" d="M118.5,35.2c2.2,0,3.3,1.6,2.5,3.7c-1.7,4.4-3.5,8.7-5.2,13.1c-3.4,8.5-6.8,16.9-10.2,25.4
		c-0.4,0.9-0.5,1.7-0.3,2.7c2.4,8.8,4.8,17.6,7,26.4c0.4,1.7,1.1,2.1,2.8,1.6c2.1-0.7,4.2-1.1,6.3-1.6c1.5-0.3,2.9-0.3,3.4,1.5
		c0.4,1.5-0.4,2.7-2.2,3.2c-6.6,1.8-13.1,3.5-19.7,5.3c-0.7,0.2-1.4,0.5-2.1,0.6c-1.5,0.3-2.8-0.1-3.3-1.7c-0.4-1.6,0.5-2.5,1.9-3
		c2.1-0.7,4.2-1.4,6.3-1.8c2.1-0.4,2.3-1.5,1.8-3.3c-1.9-7.1-4.1-14.1-5.7-21.3c-0.9-4.2-3-7.1-6.4-9.7c-9.2-7-18.2-14.2-27.3-21.4
		c-0.6-0.4-1.2-0.9-1.7-1.4c-2-1.8-1.7-4,0.9-4.8c3.3-1,6.7-1.9,10.1-2.8c9.6-2.6,19.2-5.1,28.8-7.6c3.7-1,7.4-2,11.1-2.9
		C117.8,35.3,118.3,35.2,118.5,35.2z M91.3,55.1c4.4,0.3,8.7,0.2,13.1-0.5c3.3-0.5,6.3-1.6,7.3-5.4c0.5-1.9,1.4-3.7,2.1-5.5
		c0.2-0.6,0.8-1.3,0.4-1.9c-0.5-0.7-1.4-0.1-2,0.1c-11.9,3.2-23.7,6.3-35.6,9.6c-1,0.3-2.3,0.1-3,1.2c-0.3,0.5,2.5,2.7,3.6,2.8
		c0.6,0.1,1.2,0,1.8,0C83.1,55.2,87.2,54.8,91.3,55.1z"/>
	<path class="st0" d="M61.4,25.6c0,1.8-0.4,2.8-1.8,3.1c-1.2,0.3-2.4-0.1-2.8-1.3c-1.2-3.3-2.2-6.6-2.7-10.1
		C54,16,54.7,15,55.9,14.7c1.2-0.3,2.3,0.1,2.6,1.2C59.7,19.2,60.6,22.7,61.4,25.6z"/>
	<path class="st0" d="M71.1,27c-0.1-1,0.5-2,0.9-3.1c0.8-2.3,1.6-4.6,2.6-6.9c0.5-1.2,1.5-1.9,2.9-1.4c1.4,0.5,2,1.6,1.5,3
		c-1.1,3.1-2.2,6.2-3.4,9.3c-0.5,1.3-1.6,1.7-2.9,1.4C71.5,29.1,71,28.2,71.1,27z"/>
	<path class="st0" d="M95.1,30.3c0,1-0.5,1.7-1.3,2.3c-2.4,1.7-4.8,3.3-7.2,4.9c-1.4,0.9-2.8,1.1-3.8-0.4c-1.1-1.5-0.2-2.7,1-3.5
		c2.5-1.8,5-3.6,7.6-5.3C93.1,27.3,95.1,28.4,95.1,30.3z"/>
</g>
</svg>
