<?xml version="1.0" encoding="utf-8"?>
<!-- Generator: Adobe Illustrator 22.0.1, SVG Export Plug-In . SVG Version: 6.00 Build 0)  -->
<svg version="1.1" id="Layer_1" xmlns="http://www.w3.org/2000/svg" xmlns:xlink="http://www.w3.org/1999/xlink" x="0px" y="0px"
	 viewBox="0 0 107.9 141.7" style="enable-background:new 0 0 107.9 141.7;" xml:space="preserve">
<style type="text/css">
	.st0{fill:#4E5D44;}
</style>
<g>
	<path class="st0" d="M65.2,75c-2.9,1.3-5.5,2.5-8.1,3.7c-0.7,0.3-0.7,1-0.7,1.6c0.3,4.9,0.5,9.8,0.8,14.7
		c0.3,5.5,0.7,10.9,0.9,16.4c0.1,3-1.8,5.1-4.7,5.3c-2.6,0.2-5-1.6-5.5-4.4c-0.5-3.1-0.9-6.2-1.4-9.3c-1.1-7.5-2.2-14.9-3.2-22.4
		c-0.3-2.3-0.5-4.6-0.5-6.9c0-7.1,0-14.2,0-21.3c0-1.4-0.4-2.2-1.7-2.8c-8.2-3.7-16.4-7.5-24.5-11.3c-0.7-0.3-1.3-0.6-1.9-1.1
		C13,36,12.5,34,13.4,32.2c0.9-2,2.8-2.9,4.9-2.2c3.8,1.2,7.5,2.6,11.2,4c4.9,1.8,9.8,3.5,14.7,5.3c1.1,0.4,2.2,0.6,3.4,0.6
		c4.1,0,8.2-0.1,12.3,0c1.6,0,3.1-0.3,4.6-0.8c8.1-2.9,16.2-5.8,24.3-8.7c1.5-0.5,2.9-0.8,4.3,0.2c2.6,1.9,2.6,5.2-0.1,7
		c-0.5,0.3-1.1,0.6-1.6,0.9c-8.2,3.8-16.3,7.6-24.5,11.3c-1.2,0.6-1.8,1.3-1.7,2.7c0.1,2.7,0.1,5.5,0,8.2c-0.1,1.5,0.5,1.7,1.8,1.3
		c1.4-0.4,2.8-0.7,4.3-1c4.7-1,7.7,2.1,6.6,6.8c-1.2,5-2.5,10-3.7,15c-0.7,2.9-1.3,5.8-2.2,8.6c-1,3.5-5.5,4.7-8.2,2.4
		c-1.9-1.6-2-3.6-1.5-5.8c0.9-3.6,1.8-7.3,2.7-10.9C65,76.4,65.1,75.8,65.2,75"/>
	<path class="st0" d="M54,37c-5,0-9.1-4-9.1-9c0-5,4.2-9.3,9.2-9.2c5,0,9.2,4.3,9.1,9.3C63.1,33,59,37,54,37"/>
</g>
</svg>
