<?xml version="1.0" encoding="utf-8"?>
<!-- Generator: Adobe Illustrator 22.0.1, SVG Export Plug-In . SVG Version: 6.00 Build 0)  -->
<svg version="1.1" id="Layer_1" xmlns="http://www.w3.org/2000/svg" xmlns:xlink="http://www.w3.org/1999/xlink" x="0px" y="0px"
	 viewBox="0 0 267.9 227.1" style="enable-background:new 0 0 267.9 227.1;" xml:space="preserve">
<style type="text/css">
	.st0{fill:#4E5D44;}
	.st1{fill:#E4D3B6;}
</style>
<g>
	<path class="st0" d="M245.2,130.4c-1.5,1.7-8.6,8.7-10.1,7.8c0,0,3.4,2.1,3.4,2.1c-1.7,3.8-4.9,4.1-8.7,3.2
		c-2.3,3.4-3.1,7.2-2.4,12.9c-4.2-1.3-6.3-4.8-11.4-5.3c8.9,9,8.5,12.9,3,12.8c0.2,1.6,0.4,3.4,0.2,5.1c4.1,4.1,5.2,8.3,6.8,13.8
		c-2.6-1.8-5.5-3.6-8-5.5c-2.3,9.3-8.1,17.6-17.2,25c-8.4,6.7-20.1,12.3-33.2,15c-13.1,3.1-26.7,3.1-38.4,2.8
		c-12.8,1.7-23-4.3-31-8.9c-8.2-4.7-14.8-7.8-27.6-5.8c-3.5,2.2-3-13.2-9.3-13.8c-3.6,2-7.4,3.7-11.3,5.4
		c-10.2-10-32.7-18.4-27-40.2c0.8-10.2-1.5-17-3.7-23.9c-2.1-6.7-4.2-13.6-1.9-21.2c3.6-11.4,0.1-22.7,1.1-34.2
		c0.9-10.8,7.4-16.5,12.6-25.2c8.8-14.8,21.7-36.2,38.9-42.1c12.6-4.3,32.9,2.1,44.8,6.6c7.8,2.9,15.5,6.8,23.8,7.5
		c6.4,0.5,12.7-0.8,18.9-2.1c13.4-2.9,26.8-5.9,40.3-8.5c7.9-1.5,25.3-9.2,30.6-0.4c2.3,3.8,2.3,8.5,2.3,12.9
		c0,5.6-0.1,11.2-0.1,16.8c0,1.8,0,3.8,0.9,5.4c1.9,3.3,6.4,3.6,9.8,5.2c8.5,3.8,10.3,15.2,8.8,24.4c-1.5,9.2-5,18.6-2.6,27.6
		c0.9,3.5,2.7,6.7,3,10.3c0.5,5.1-2.1,10.4-5.2,14.2C245.3,130.3,245.3,130.4,245.2,130.4z"/>
</g>
<g>
	<path class="st1" d="M124.3,142.4c-3.4,0-6.6-1.6-8.6-4.5c-0.6-0.9-1.2-1.9-1.8-3.1l-0.4-0.8c-1.4-2.9-2.1-4.4-4.1-4.4
		c-0.8,0-1.6,0.2-2.8,0.6c-0.6,0.2-1.2,0.4-2,0.6c-0.6,0.2-1.1,0.4-1.7,0.6c-1.1,0.4-2.1,0.7-3.2,0.8l-0.1,0c-1.8,0-3.3-0.7-4.3-1.9
		c-0.9-1.2-1.2-2.8-0.8-4.6c0.8-3.1,2.6-5.7,4.2-7.6c0.3-0.3,0.6-0.7,0.8-1.1c1.2-1.5,2.4-3.1,3.8-4c6.6-4.2,7.2-10.3,6.8-15.7
		l0-0.2c-0.3-5.6-0.7-11.4,0.5-16.9c1.7-7.7,5-11.5,10.9-12.7c1-0.2,1.9-0.3,2.9-0.3c4.4,0,8,2.1,10.5,6c2.1,3.3,3.1,7.2,3.4,12.4
		c0.1,2.1,0.1,4.3,0,6.3c0,0.9,0,1.8,0,2.8c-1.5,8,0.8,14.6,7.2,20.2c3.2,2.8,5.4,7.2,7.2,11c1,2.2,1,3.6,0.1,4.9
		c-0.7,1-1.6,1.4-2.9,1.4c-0.5,0-1.1-0.1-1.8-0.2c-2.6-0.5-5.2-1.2-7.5-2c-0.6-0.2-1.1-0.3-1.6-0.3c-1.6,0-2.7,0.9-3.4,2.7
		c-0.7,1.9-1.4,3.6-2.5,5.2C131.1,140.7,127.9,142.4,124.3,142.4z M111,123.8c2.3,0,4,0.7,6,4.7c0.3,0.6,0.6,1.2,0.9,1.9
		c0.4,0.9,0.9,1.9,1.4,2.8c1.3,2.3,3.2,3.5,5.2,3.5c2,0,3.9-1.3,5.2-3.6c0.5-1,1-2,1.5-3c0.4-0.8,0.8-1.7,1.2-2.5
		c1.5-2.8,3.1-3.9,5.7-3.9c0.5,0,1.1,0,1.8,0.1c0.1,0,0.3,0,0.4,0.1c0.4,0.1,0.8,0.2,1.3,0.2l0,0c0.7,0,1.4-0.2,2-0.5l1.5-0.7
		l-0.9-1.3c-2.4-3.4-4.8-6.7-8.1-9.1c-2.1-1.5-3-3.5-3-6.3c0-4.3,0-8.6,0-12.8c0-2.1,0-4.3,0-6.4c0-3.2-0.6-6.2-1.7-9
		c-0.9-2.3-2.6-5.4-6.5-5.4c-0.1,0-0.3,0-0.4,0c-3.7,0.2-6.3,2.2-7.4,5.7c-0.8,2.5-1.2,5.1-1.2,8c0,2.3,0,4.6,0,6.9
		c0,3.7,0,7.6,0,11.3c0.1,4-1.2,6.6-4.2,8.7c-3.7,2.6-6.6,6-8.9,9l-1.3,1.6l1.9,0.6c0.6,0.2,1.1,0.3,1.7,0.3c0.8,0,1.5-0.2,2-0.4
		c0.2-0.1,0.4-0.1,0.6-0.2C109.1,124,110.1,123.8,111,123.8z"/>
	<path class="st1" d="M168.3,189c-0.7,0-1.5-0.2-2.4-0.5c-0.5-0.2-0.6-0.2-0.5-1.5c0-0.2,0-0.4,0-0.7c0-6.8,0-13.7,0-20.5l0-8
		c0-2.8,0-5.6,0-8.4c0-6.1,0-12.3,0-18.5c0.1-6.6,0.9-12,2.8-16.8c2.7-7.1,8-11,14.9-11c1.5,0,3.1,0.2,4.8,0.6
		c4.2,1,7.4,3.6,9.8,8.2c2.4,4.7,3.6,10.1,3.7,16.7c0.1,10.6,0.1,21.4,0.1,31.8c0,8.6,0,17.5,0.1,26.3c0,1.9-0.3,1.9-2.5,1.9
		c0,0-0.8,0-1,0c-0.7,0-1.6,0-1.9-0.4c-0.2-0.3-0.4-0.8-0.4-1.7c0.1-7.3,0.1-14.8,0.1-21.9c0-2.8,0-5.7,0-8.5v-1.4h-0.2
		c0-2.3,0-4.6,0-6.9c0-6.9,0-14.1,0-21.1c0-3.7-0.8-7.4-2.2-10.8c-1.9-4.6-5.2-6.9-9.8-6.9c-4.8,0-8.1,2.3-9.9,6.9
		c-1.5,3.7-2.3,7.4-2.3,11.1c-0.1,14.1-0.1,28.3-0.1,42.4l0,15.6C171.1,189,169.1,189,168.3,189z"/>
	<path class="st1" d="M74.7,108.6c-3.5,0-6.3-1.4-8.5-4.3c-3-4-4.6-8.9-4.9-14.8c-0.2-4.6-0.9-9.4-5.6-13.4c-4.2-3.6-4.4-9-4.1-13.9
		l0-0.1c-0.1-2.8,0-6,0.7-9.2c2.1-9.6,8.4-15,18.2-15.8l0.8-0.1c1.4-0.1,2.8-0.2,4.1-0.2c1,0,1.9,0.1,2.8,0.2
		c10.2,1.5,14.5,6,15.2,16.1c0.2,3.3,0.1,6.5,0,10.1c-0.1,1.6-0.6,3.6-2.8,3.6c-1.8,0-2.7-1.3-2.8-3.7c0-1.7,0-3.3,0-5
		c0-1.7,0-3.5,0-5.3c-0.2-6.8-3.4-10-10.2-10.4c-1-0.1-2.1-0.1-3.2-0.1c-0.7,0-1.4,0-2.1,0c-8.7,0.3-13.7,5-14.5,13.7
		c-0.1,1.3-0.1,2.5-0.2,3.7c0,1,0,2-0.1,3C57,68,58.7,72,62.6,74.9c3,2.3,4.5,5.6,4.5,10.1c0,5,0.7,8.9,2.1,12.5
		c0.7,1.8,2.2,5.5,6.4,5.5c3.4,0,6-1.9,7.3-5.4c0.4-1.1,0.6-2.2,0.8-3.2c0.1-0.5,0.2-1.1,0.3-1.6c0.4-1.7,1.5-2.9,2.8-2.9
		c0.2,0,0.3,0,0.5,0.1c1.6,0.3,2.4,1.9,2.1,3.9c-1.2,8.6-6,14-13.3,14.7C75.7,108.6,75.2,108.6,74.7,108.6z"/>
	<path class="st1" d="M174,78.3c-6.8,0-12.7-1.6-17.9-4.9c-4.4-2.8-6.9-6.6-6.9-10.7c-0.1-4.1,2.3-8,6.6-11c5.1-3.5,11.1-5,20-5
		c6.6,0.3,14.1,1.4,20,7.5c4.9,5.1,4.9,11.6,0.1,16.6c-4,4.1-9.2,6.4-16.3,7.2C177.6,78.2,175.8,78.3,174,78.3z M162.4,54
		c-3.1,1.4-7.5,3.4-7.7,8c-0.2,4.8,4.3,6.8,7.6,8.2l3.5,1.5l-1.7-3.5c-1.9-4-1.9-7.6,0.2-12.5l1.4-3.3L162.4,54z M184.3,56.6
		c2,4.1,2.1,7.6,0.2,11.1l-1.3,2.5l2.8-0.4c4-0.6,7.3-3.6,7.6-6.9c0.3-3.8-2.5-6.9-7.7-8.3l-3-0.8L184.3,56.6z M174,54.7
		c-4.3,0.1-7.8,3.7-7.8,7.7c0,4,3.8,7.5,8,7.5c4.6,0,7.9-3.1,7.9-7.4c0-2-0.8-3.9-2.2-5.4c-1.5-1.5-3.6-2.4-5.6-2.4L174,54.7z"/>
	<path class="st1" d="M88.5,192.4c-2.3,0-4.6-0.4-6.9-1.2c-6.4-2.2-11.1-9.2-11.3-17c-0.1-2.6-0.1-5.3,0-7.9c0-1.2,0-2.4,0-3.6v-1.4
		h0c0-0.7,0-1.4,0-2.2c0-2.8,0-5.7,0-8.6c0-0.8,0.1-1.3,0.3-1.5c0.2-0.2,0.7-0.3,1.4-0.3c5.4,0,10.7,0,16,0c5.6,0,11.1,0,16.7,0
		c0.7,0,1.2,0.1,1.4,0.3c0.2,0.2,0.3,0.6,0.3,1.3c0,2.9,0,5.8,0,8.7c0,5,0.1,10.2-0.1,15.3C105.8,185,98.5,192.4,88.5,192.4z
		 M82.1,154.4c-0.2,0-0.4,0-0.6,0c-0.2,0-0.4,0-0.6,0c-1.2,0-2.7,0-3.8,1.1c-0.7,0.7-1,1.7-1,3c0,1.9,0,3.7,0,5.6
		c0,3.6,0,7.4,0.2,11.1c0.4,7,5,11.4,12,11.4c0,0,0,0,0,0c7.1,0,11.8-4.4,12.3-11.4c0.1-2,0.1-3.9,0.1-5.8c0-0.4,0-0.9,0-1.3
		l0.1-1.3c0-0.7,0-1.5,0-2.2c0-1.6-0.1-3.2,0.1-4.8c0.1-1.2,0.1-2.9-1.1-4.2c-1.1-1.2-2.8-1.4-4-1.4l-0.1,0c-1.3,0-3,0.2-4.1,1.3
		c-1.1,1.2-1.2,2.9-1.1,4c0.2,3.9,0.2,8.2,0,13.3c-0.1,1.6-0.8,2.8-1.8,2.8c-0.3,0-0.5-0.1-0.8-0.2c-0.8-0.5-1.1-1.2-1.1-2.9
		c0-1.1,0-2.3,0-3.4c0-3.5-0.1-7.1,0-10.6c0-1.4-0.3-2.4-1-3.1C84.5,154.6,83.2,154.4,82.1,154.4z"/>
	<path class="st1" d="M76.9,88.5c-0.5,0-1.5,0-1.8-1.9c-0.1-0.7-0.1-1.4-0.2-2.2c0-0.7-0.1-1.5-0.2-2.2c-0.6-4.5-2.8-8.3-6.4-11.2
		c-3.6-2.9-5-6.2-4.6-10.2c0.1-0.5,0.1-1.1,0.1-1.6c0.1-1.1,0.1-2.1,0.3-3c1-4.7,3.9-6.9,9.1-6.9c0.6,0,1.3,0,2,0.1
		c4.6,0.4,7,3.3,7.2,8.4c0.1,2.9-0.7,3.2-1.8,3.3c-0.1,0-0.2,0-0.3,0c-1,0-1.5-0.3-1.7-3c-0.3-3.4-2.3-5.5-5.4-5.5
		c-0.6,0-1.3,0.1-2,0.3c-1.4,0.4-2.4,1.2-3.1,2.4c-2.2,4.3-1.1,10.2,2.5,13.1c4.5,3.6,7,8.6,7.8,15.1c0.1,1.2,0.2,2.1,0.1,2.9
		c-0.1,1.9-0.9,2.1-1.7,2.1L76.9,88.5z"/>
	<path class="st1" d="M183.7,129.6c-2.1,0-4.2-0.1-6.4-0.2c-1.4-0.1-2.2-1-2.1-2.5c0-1.6,0.9-2.5,2.5-2.6c0.7,0,1.4-0.1,2.2-0.1
		c0.6,0,1.3,0,1.9,0c0.6,0,1.2,0,1.8,0c0,0,0,0,0,0c0.7,0,1.2,0,1.8,0c0.6,0,1.1,0,1.7,0c0.8,0,1.5,0,2.1,0.1
		c1.5,0.1,2.3,0.9,2.4,2.3c0.1,0.8-0.1,1.6-0.6,2c-0.4,0.4-0.9,0.7-1.6,0.7C187.6,129.5,185.7,129.6,183.7,129.6z"/>
	<path class="st1" d="M186.5,164.8c-0.6,0-1.2,0-1.7,0c-0.1,0-0.2,0-0.4,0v0l-1.4,0c-0.6,0-1.1,0-1.7,0c-0.5,0-1.1,0-1.6,0
		c-0.8,0-1.4,0-1.9-0.1c-1.5-0.2-1.7-1.1-1.7-1.8c0-0.6,0.2-1.4,1.5-1.6c1.8-0.2,3.7-0.4,5.6-0.4c1.9,0,3.8,0.1,5.8,0.3
		c0.8,0.1,1.7,0.5,1.7,1.7c0,0.4,0,1.6-2.1,1.8C188,164.8,187.3,164.8,186.5,164.8z"/>
	<path class="st1" d="M183.2,155.3c-1.8,0-3.7,0-5.5-0.1c-1.1,0-1.6-0.6-1.6-1.7c0-0.8,0.2-1.5,1.7-1.5c0.7,0,1.4,0,2,0
		c0.6,0,1.1,0,1.7,0c0.5,0,1.7,0,1.7,0c0.6,0,2.8,0,3.4,0c0.7,0,1.5,0,2.2,0c1.5,0.1,1.8,0.9,1.8,1.6c0.1,1.4-1,1.6-1.6,1.7
		C187.2,155.2,185.2,155.3,183.2,155.3z"/>
</g>
</svg>
