<?xml version="1.0" encoding="utf-8"?>
<!-- Generator: Adobe Illustrator 22.0.1, SVG Export Plug-In . SVG Version: 6.00 Build 0)  -->
<svg version="1.1" id="Layer_1" xmlns="http://www.w3.org/2000/svg" xmlns:xlink="http://www.w3.org/1999/xlink" x="0px" y="0px"
	 viewBox="0 0 255.1 255.1" style="enable-background:new 0 0 255.1 255.1;" xml:space="preserve">
<style type="text/css">
	.st0{fill:#4E5D44;}
</style>
<g>
	<path class="st0" d="M155.2,62.9c-0.6,0.1-0.4,0.6-0.4,0.9c0,0.4,0.4,0.7-0.1,0.8c-0.7,0.1-0.2-0.6-0.4-0.8c-0.2-0.2,0-0.6-0.1-0.8
		c-0.1-0.8,0.2-1.7-0.2-2.6c-0.2-0.4,0-1.2,0.1-1.3c0.9-0.4,0.7-1.2,0.6-1.7c-0.2-0.8-0.1-1.7-0.4-2.6c-0.7-3.2-2.5-4.1-5.7-3.2
		c-0.9,0.2-1.9,0.7-3.1,0.7c-1.3,0-2.5,0.8-3.1,2c-0.9,1.9-2.7,2.7-4.4,3.5c-0.9,0.4-1.9,0.8-2.7,1.4c-0.1,0.1-0.2,0.2-0.4,0.2
		c-2-0.8-3.1,1.1-4.6,1.7c-1.4,0.6-2.9,0.4-4.4,0.4c-0.4,0-0.8-0.8-1.7-0.9c-1.7-0.2-3.2-0.2-4.8-0.2c-1.7,0-2.9-0.7-3.9-1.9
		c-0.4-0.6-0.9-1.2-1.7-1.5c0.6-0.4,0.9,0.4,1.5,0c-3.4-1.4-7-1.7-9.7-4.4c1.7,0.7,3.2,1.5,4.9,2c3.6,1.1,7.3,2.3,10.7,4.1
		c3.1,1.5,5.9,0.7,8.8,0.2c0.6-0.1,1.3-0.1,2-0.2c2.3-0.4,3.8-1.7,5.4-3.1c0.4-0.2,0.4-0.4,0-0.6c-0.9-0.4-1.1-1.2-0.7-2.1
		c0.4-1.1,1.2-1.7,2-1.7c1.7-0.1,3.4-0.8,5.2-1.2c0.7-0.1,1.4-0.1,2.1,0.1c0.4,0.1,0.4,0.9,0.9,0.4c0.4-0.4,0.6-1.1,0.1-1.7
		c0,0-0.1,0-0.1-0.1c-0.1-0.1-2.6-0.6-2.8-0.4c-0.9,0.4-2,0.2-2.9,0c-0.9-0.2-1.7-0.6-2.7-0.7c-1.7-0.2-2-1.4-2.1-2.7
		c-0.1-0.9,0.7-1.2,1.3-1.7c0.6-0.4,1.2-0.4,1.7-0.8c-1.4-1.3-2.3-1.3-4-0.4c-0.2,0.1-0.4,0.2-0.6,0c-2-1.7-2.6-1.7-4.8-0.2
		c-0.4,0.2-2-0.1-1.2,1.4c0.1,0.2-0.4,0.2-0.4,0.2c-0.9-0.4-1.7,0.4-2.6,0.4c-0.4,0-0.7,0.2-0.8,0.7c0,0.6,0.4,0.4,0.8,0.4
		c1.4,0.4,2.7,0.1,4.1-0.2c1.7-0.4,2.8,0.2,3.5,1.7c0.2,0.4,0.4,0.7,0.8,0.8c1.5,0.6,1.9,1.5,1.4,3.1c-0.4,0.9-0.6,1.9-0.6,2.9
		c0,0.9-0.4,1.5-1.3,1.7c-0.2,0-0.6,0.1-0.8,0.2c-3.6,2.8-7.8,2.1-11.8,1.7c-0.9-0.1-1.7-0.8-2.3-1.7c-0.9-1.7-1.7-3.4-1.2-5.4
		c0.1-0.4,0.4-0.7-0.1-1.1c-0.9-0.6-0.6-0.8,0.1-1.4c1.4-0.9,2.8-1.7,4.2-2.5c0.4-0.2,0.8-0.6,0.6-1.1c-0.2-0.4,0.1-1.3-0.7-1.5
		c-0.7-0.2-1.7-0.1-1.7-1.3c0,0-0.4-0.1-0.6-0.1c-0.1,0-0.2,0-0.1,0.2c0.1,0.6-0.1,0.8-0.8,0.6c-2.3-0.8-4.6-1.1-6.7-2
		c-1.5-0.6-3.2-0.2-4.6-1.2c-0.2-0.1-0.9,0.2-0.7-0.4c0.1-0.4,0.4-0.8,0.9-0.6c0.4,0.1,0.8,0.2,1.2,0.4c1.7,0.7,3.6,0.9,5.5,1.4
		c2.8,0.7,5.7,0.9,8.7,1.4c1.9,0.4,3.4,0.2,4.9-0.7c0.4-0.2,1.4-0.9,1.4,0.4c0,0.4,0.2,0.4,0.4,0.2c1.9-0.8,3.9-0.8,5.9-0.9
		c-4.4-3.8-9.4-6-14.7-7.6c-2-0.6-3.8-1.1-5.7,0c-0.4,0.2-1.4-0.1-2.1,0.2c-0.4,0.1-0.4,0.2-0.4,0.7c0.1,0.9-0.6,1.3-1.4,1.1
		c-0.9-0.4-1.7,0.4-2.3,1.2c-0.4,0.9-1.3,1.1-2.1,1.3c-0.4,0.1-1.1,0.4-1.4,0.6c-1.4,1.2-3.3,1.7-4.4,3.3c-0.4,0.6-1.4,0.8-2.3,0.6
		c-0.6-0.1-1.2,0.1-1.3,0.6c-0.1,0.6,0.6,0.2,0.8,0.4c0.4,0.6,1.4,1.1,0.2,1.9c0.2-0.1,0.4-0.1,0.8-0.2c-0.1,0.2-0.1,0.4-0.1,0.4
		c-0.4,0.2-0.6,0.7-1.1,0.1c-0.6-0.7-1.5-1.2-1.9-2c-1.2-2.1-3.1-3.1-5.2-3.9c-1.7-0.6-2.8-2.5-4.6-2.3c-3.1,0.1-5.9-0.8-8.8-1.5
		s-5.9-1.1-8.9-1.7c-1.1-0.2-2.3-0.1-3.2,0.1c-0.9,0.2-2.3,0.4-2.1,2c0,0.6-0.6,1.3-1.1,1.7c-1.3,1.2-2.8,2.3-4.6,2.7
		c-1.2,0.4-2.3,0.6-3.3,1.3c-0.6,0.4-1.3,0.7-2,0.4c-0.7-0.4-1.2,0.4-1.7,0.4c0,0.6,0.4,0.4,0.6,0.6c0.4,0.6,0.9,1.2,1.4,1.7
		c-0.7,0.6-1.1-0.4-1.7-0.4c-1.4,0-2.8-1.1-4.1-0.8c-1.5,0.2-3.1-0.1-4.6,0.2c-1.5,0.4-1.9,0-1.3-1.7c-1.2,0.1-1.9,1.1-2.6,1.7
		c-0.7,0.6-0.7,1.9-2,1.9c-0.1,0-0.2,0.4-0.2,0.7C36.2,47.6,36,50,35,52.4c-0.9,2.1-0.6,4.4-0.8,6.8c-0.4,4.4-0.8,9-1.1,13.5
		c-0.2,5.1,0.2,10.1,0.6,15.2c0.1,1.2,0.4,2.3,0.4,3.3c0.4,2.8,2.1,4.8,4.2,6.6c3.6,3.2,8,4.8,12.4,6.5c3.8,1.4,7.3,3.4,11.2,4.6
		c0.7,0.2,0.7,1.1,1.2,1.7c0.1-0.7,0.4-1.2,1.2-0.7c1.3,0.9,3.2,0.6,4.1,2.3c0.2,0.4,0.9,0.2,1.2,0c1.1-1.2,0.9,0.6,1.5,0.6
		c0.1,0-0.4,0.6,0.1,0.6c0.2,0,0.6-0.1,0.7-0.4c0.2-0.8,0.8-0.4,0.9-0.1c0.2,1.2,1.4,0.9,2,1.4c0.4,0.4,1.7-0.4,1.2,1.1
		c0,0,0.9,0.1,1.5,0.4c0.4,0.4,0.9,0.4,1.2-0.4c0.1-0.4,0.6-0.4,0.6,0c0.1,1.7,1.7,1.3,2.6,1.7c1.1,0.6,2.3,0.6,3.5,0.8
		c0.4,0.1,0.9,0.2,1.3-0.1c0.4-0.2,0.8-0.7,0.7,0.4c-0.1,0.6,0.8,0.4,1.2,0.6c0.4-0.6-0.6-0.4-0.4-0.7c0.2-0.4,0.4-0.1,0.7,0.1
		c1.1,0.7,2.3,0.8,3.4,0.1c0.2-0.1,0.6-0.4,0.9-0.1s-0.1,0.4-0.1,0.7c-0.1,0.9,0.8,1.1,1.2,1.1c1.1,0.1,1.7,0.7,2.7,1.2
		c1.1,0.6,2.6,0.4,3.8,1.1c1.7,0.7,3.8,0.4,5.2,1.5c1.2,0.9,2.5,1.3,3.8,1.7c0.8,0.4,1.4,0,2.1,0.1c2.3,0.4,4.6,1.1,6.9,1.5
		c0.4,0.1,0.8,0.2,1.1,0.1c2.3-0.8,4.8-1.1,6.9-2.7c2-1.7,4.2-2.9,6.6-4.4c-0.1,1.2-1.3,1.1-1.7,1.7c-0.2,0.4-0.9,0.4-0.4,0.9
		c0.4,0.4,0.8,0.1,1.2-0.1c1.5-1.1,2.9-2.3,4.4-3.4c0.1-0.1,0.2,0,0.8-0.1c-1.1,0.9-1.9,1.7-2.6,2.3c-0.9,0.9-2.3,1.7-3.3,2.3
		c-0.4,0.2-0.7,0.4-1.2,0c-0.7-0.4-1.7,0.2-2.1,0.6c-4,2.9-8.4,4-13.1,3.9c-1.4,0-2.7,0-4.1-0.4c-0.7-0.2-1.3-0.4-1.9-1.1
		c0.7,0,1.2,0.6,1.9,0.2c-3.8-1.2-7.4-2.8-11.8-2.9c1.3,1.2,0.8,2.6,1.3,3.8c0.6,1.5,1.3,2.8,2.8,3.6c0.2,0.1,0.4,0.4,0.4,0.4
		c4.2,7.3,9.2,13.9,13.7,20.9c1.9,2.8,3.5,5.7,5.3,8.6c2.1,3.3,4.4,6.3,6.6,9.7c0.4,0.4,0.6,0.9,0.8,1.4c0.1,0.2,0.1,0.4-0.1,0.6
		c-0.2,0.1-0.4,0-0.6-0.2c-0.4-0.4-0.6-0.9-0.9-1.4c-2.9-3.6-5.2-7.8-7.8-11.6c-0.6-0.8-1.1-1.7-1.7-2.3c-0.7-0.8-1.2-1.7-1.5-2.7
		c-0.1-0.6-0.4-1.1-0.8-1.7c-1.5-2.3-3.2-4.4-4.7-6.9c-1.7-2.9-3.8-5.7-5.9-8.4c-2.8-3.4-4.9-7.3-7.5-10.8c-0.7-0.9-1.4-1.9-2.1-2.8
		c-1.1-1.3-2.7-1.4-3.9-2.6c-0.1-0.1-0.4,0-0.4,0c-1.4,0.9-3.2,0.9-4.7,0.8c-1.5-0.1-3.1-0.1-4.6-0.2c-0.4,0-0.7-0.2-0.8,0.2
		c-0.1,0.2,0,0.4,0.4,0.7c0.6,0.4,0.4,1.1,0.6,1.7c0.4,2.3,0.4,4.4,0.8,6.6c0.4,2.3,1.1,4.8,1.2,7.3c0,0.9,0.6,1.7,0.8,2.7
		c0.6,2.6,1.5,5.3,1.5,8c0.1,4.9,1.4,9.5,2.3,14.2c0.6,3.6,1.4,7.3,2,10.9c0.1,0.4,0.1,0.9-0.1,1.3l0,0c-0.8,0-0.7-0.8-0.8-1.3
		c-0.4-4.2-1.4-8.4-2.3-12.4c-0.8-4.6-1.5-9.2-2.5-13.7c-1.1-5.4-1.9-10.8-2.9-16.1c-0.7-3.3-1.4-6.6-2.3-9.9
		c-0.2-0.9-1.4-0.8-2.1-1.5c1.7,0.1,3.4,0.2,5.1,0.4c1.2,0.2,1.3-0.4,1.5-1.2c0.2-0.8-0.6-0.8-1.1-0.9c-4-1.3-8.1-2.3-12-3.9
		c-1.9-0.7-3.8-0.8-5.7-1.1c-0.8-0.1-1.1,0.4-1.3,1.1c-0.4,0.8,0.4,0.6,0.8,0.8c1.5,0.7,3.2,1.2,4.6,2.1c0.2,0.1,0.4,0.4,0.7,0.4
		c1.7-0.1,3.2,1.5,4.9,1.4c0.1,0,0.2,0.2,0.6,0.4c-1.4,0.1-2.6-0.1-3.6-0.4c-3.3-1.1-6.6-1.7-9.9-2.7c-0.6-0.2-0.8,0.1-1.1,0.6
		c-1.7,3.6-3.5,7.3-4.7,11.2c-1.7,5.4-4.1,10.5-6.1,15.8c-0.7,1.7-1.7,3.4-2.6,5.2c-1.7,3.1-2.5,6.5-4.1,9.5
		c-1.5,3.1-2.5,6.3-3.6,9.5c-0.4,0.7-0.4,1.5-0.6,2.3c-1.2,4.4-3.2,8.7-4.9,13c-1.5,4-3.2,8-4.7,12.1c-0.6,1.4-0.9,2.9-1.2,4.4
		c-0.2,1.5-0.6,3.1-2,4c-0.4,0.2-0.6,0.9-0.9,1.4c-0.1,0.2-0.2,0.4-0.6,0.4c-0.2-0.1-0.2-0.4-0.2-0.6c0-0.2,0-0.4,0.1-0.7
		c2.1-4.4,3.5-8.9,5.1-13.5c1.9-5.3,3.6-10.5,5.9-15.6c2.9-6.8,5.2-13.9,8.1-20.9c1.9-4.4,3.8-8.7,5.4-13.1c2.3-6.6,5.7-12.8,8-19.4
		c0.8-2.1,1.9-4.1,2.9-6.2c-2.3,0.8-2.3-1.4-3.3-2.5c-0.6-0.7-0.7-1.7-0.6-2.7c0.1-1.1-0.4-1.5-1.3-1.7c-0.9-0.2-2.3-0.6-2.6-1.2
		c-0.6-1.7-2-1.5-2.9-1.9c-2.5-0.9-4.9-1.9-7.3-2.9c-0.4-0.1-0.7-0.2-0.8-0.7c0.8-0.6,1.3,0.9,2.1,0.4c-0.4-0.8-1.3-0.7-2-0.9
		c-1.4-0.4-2.6-1.2-3.9-1.7c-1.5-0.7-2.3-2-3.4-3.3c-1.3-1.7-2.3-3.5-2.8-5.5c-1.1-4.4-2-8.6-1.7-13.1c0.2-2.7,0-5.4,0.1-8.1
		c0.1-2.3,0.2-4.6,0.4-6.8c0.4-4.6,0.9-9.2,1.7-13.7c0.4-2.1,0.9-4.1,1.3-6.2c0.2-1.3,1.4-2,2.1-2.9c1.4-1.7,3.1-3.2,4.9-4.4
		c0.4-0.4,1.1-0.6,1.7-0.7c0.7-0.1,1.4-0.4,2-0.8c0.4-0.4,1.3-1.2,2-0.1c0.2,0.4,0.6,0.1,0.9,0c1.4-1.1,2.7-2.1,4-3.3
		c-2,0.4-3.4,1.7-5.1,2.7c1.2-2.7,3.6-3.3,6.1-3.9c3.5-0.7,6.9-0.8,10.5-0.9c1.1,0,1.7-0.6,2.1-1.2c0.8-0.9,1.7-1.3,2.8-1.4
		c2-0.4,4-0.8,6-1.1c1.2-0.1,1.7-1.3,3.1-1.4c1.4-0.1,2.8,0,4.1,0c3.1,0.1,6-0.4,9-0.4c0.6,0,1.3-0.2,1.9,0.4
		c0.1,0.1,0.4,0.1,0.4,0.1c0.4-1.4,1.7-0.4,2.5-0.6c0.7-0.2,1.5-0.2,2.1-0.9c0.4-0.4,0.9-0.2,1.4-0.4c1.2-0.1,2.5,0.4,3.5-0.6
		c0.2-0.1,0.4-0.1,0.6,0.1c0.1,0.1,0.4,0.4,0.4,0.4c2.1-0.4,3.4,1.2,5.1,1.9c1.1,0.4,2,0.8,1.7,2.3c0,0.4,0.2,0.7,0.4,1.1
		c0.4-0.2,1.1-0.1,1.5-0.6c1.1-1.1,2.3-1.9,3.8-2.3c0.9-0.2,1.7-0.4,2.5,0.4c0.4,0.4,0.9,0.4,1.3,0c1.3-1.7,3.4-1.9,4.9-3.2
		c2.8-2.7,6.5-3.9,10.1-5.3c1.3-0.4,2.8-0.2,4.2-0.4c0.6-0.1,1.1-0.1,1.5-0.4c0.9-0.7,2.1-0.7,3.3-0.9c1.4-0.1,3.1,0.4,4.4-0.8
		c0.4-0.4,1.7-0.2,2.5-0.4c0.4-0.1,0.8-0.2,1.3-0.6c2.8-2.1,6.2-2.8,9.3-4.4c2.3-1.2,4.8-1.9,7.5-1.7c0.2,0,0.4,0,0.6-0.1
		c2.3-1.7,4.4-0.6,6.5,0.1c2,0.7,3.6,1.9,5.1,3.5c1.5,1.7,3.2,3.4,5.1,4.8c0.2,0.2,0.4,0.4,0.4,0.7c2.3,5.3,4,10.7,4,16.4
		c0,2.3-0.8,4.4-1.7,6.3c-0.7,1.7-1.7,3.4-2.5,5.3c-0.1,0.2-0.4,0.4-0.4,0.7c-0.4,0.9-2,0.8-1.7,2.3c0.1,0.2-1.2,0.8-1.7,1.2
		c-2.7,1.3-5.3,2.8-8.1,3.8c-1.9,0.7-3.8,1.5-5.7,2.3c-1.5,0.7-3.5,1.3-3.9,3.2c-0.7,2.9-3.2,3.4-5.3,4.4c-1.3,0.6-2.6,1.4-4.1,1.3
		c-0.6,0-0.7,0.4-0.7,1.2c0,1.5-0.1,3.1-0.2,4.6c0,0.2-0.1,0.4-0.4,0.4C155.5,67.5,155.5,65.1,155.2,62.9c1.1-0.2,2.1-0.2,2.5-1.7
		c0.1-0.4,0.4-0.6,0.9-0.6c1.3,0,2.3-1.1,3.5-1.4c0.7-0.2,1.3-0.8,1.7-1.7c-0.7,0.2-0.8,1.1-1.7,0.8c0.4-0.7,0.8-1.2,0.9-1.9
		c0.7-3.3,1.7-6.6,1.5-10.1c-0.1-2.9-0.4-5.7-2.3-8.1c-0.4-0.4-0.8-0.8-0.9-1.4c-0.8-2.6-2.3-4.7-4-6.8c-2.3-2.8-4.8-4.9-7.8-6.6
		c-1.4-0.7-2.7-1.3-4.2-1.5c-1.3-0.2-2.7-0.4-4-0.7c-1.1-0.2-1.1-0.4-0.6-1.4c-0.8-0.1-1.9,0.4-2.6-0.4c-0.4-0.6-0.8-0.4-1.4-0.2
		c-3.9,1.2-7.3,3.5-11.3,4.4c-0.2,0-0.6,0.1-0.6,0.2c-0.4,0.4-0.9,1.2-0.6,1.7c0.4,0.4,1.3,0.8,2,0.9c2.6,0.2,4.9,1.3,7.2,2.3
		c1.1,0.4,2.3,0.7,3.3,1.5c2.9,2.6,5.7,5.3,8.4,8.1c1.3,1.4,2.7,2.6,3.5,4.4c-0.6,0-0.7-0.4-0.9-0.6c-0.4-0.2-0.9-0.8-1.3-0.2
		c-0.4,0.4,0.4,0.4,0.7,0.8c0.1,0.1,0.4,0.2,0.4,0.4c-0.2,2.1,1.7,2,2.7,2.7c1.3,0.9,2.3,2.3,3.3,3.4c1.1,1.3,1.7,2.7,1.7,4.2
		c0.1,2.1,1.1,4,0.8,6.1C155.8,60.9,156.7,62.2,155.2,62.9z M136.4,37c-0.2-1.1,0.6-1.3,1.7-1.7c-1.7-0.2-3.2-0.6-4.6-0.2
		C134.7,35.5,135.4,36.4,136.4,37c0.6,0.6,1.1,1.3,1.7,1.9s1.3,1.3,2.1,1.5c0.2,0.1,0.9-1.1,1.3-1.5c0,0,0-0.1,0-0.2
		C139.8,38,138.1,37.5,136.4,37z M186.8,22.2c-1.2-0.1-1.7-0.8-1.7-1.9c-0.7,0.7-0.7,0.7-0.4,1.3c1.2,2.5,2.3,4.9,3.1,7.5
		c0.6,1.7,0.7,3.3,0.4,4.9c-0.4,1.3,0.9,2.9-0.9,3.9c-0.1,0,0.1,0.4,0.4,0.4c-1.3,1.1-0.8,2.8-1.7,4.1c1.2-0.9,2.3-1.9,2.6-3.4
		c0.6-0.4,0.8-0.8,0.9-1.4c0.1-1.1-0.2-2.3,0.7-3.2c0.2-0.2,0.1-0.8,0-1.2c-0.2-0.6-0.6,0.4-0.9,0c-0.4-0.7,1.7-1.5-0.2-2.1
		c0.7-0.1,1.1-0.6,1.7-1.1c-0.9,0.6-1.1-0.1-0.9-0.4c0.2-0.8,0.1-1.7,0-2.6c-0.4-1.7-0.7-3.5-2-4.9
		C187.3,21.8,187.1,21.8,186.8,22.2L186.8,22.2z M165.1,33.2c-0.2,1.5,0.6,2.7,1.4,3.9c0.1-0.4,0.1-0.9-0.1-1.2
		C165.8,35.1,166.5,33.8,165.1,33.2c-0.1-2.1-2.9-2.1-3.2-4c-1.7-0.4-2-2.3-3.3-3.3c-0.4-0.4-1.4-0.4-1.4-0.8
		c-0.4-1.7-2-1.7-2.9-2.7c-2-1.7-4.7-1.7-6.9-2.6c1.1,0.6,2.1,1.3,3.3,1.9c-2.8-0.4-5.4-2.3-8.4-2c0.8,1.3,2,1.2,3.2,1.4
		c3.2,0.6,5.9,2,8.4,3.9c2.6,1.7,4.6,4,6.2,6.3c2,2.8,3.1,6.3,4.6,9.7c0.6,1.3,0.6,2.9,1.9,4c0.2,0.1,0.4,0.8,0,0.8
		c-1.3-0.1-0.7,0.8-0.7,1.3c-0.2,1.4,0.2,2.8,0.1,4.2c-0.1,1.4-0.8,2.7-1.1,4.1c2.5-1.7,3.8-6,2.6-8.4c-0.1-0.2-0.2-0.7-0.1-0.9
		c0.4-0.8,0.2-1.7,0.2-2.5c0-1.4-0.2-2.8-0.4-4.2c-0.1-0.7-0.4-0.9-0.9-0.6c-0.6,0.4-0.7,0.4-0.8-0.1c-0.2-1.3-0.4-2.6-1.1-3.9
		C164.2,34.1,164.3,33.4,165.1,33.2z M168,53.4c4-0.7,7.3-2.7,10.7-4.4c0.2-0.1,0.4-0.4,0.4-0.4c-0.4-1.2,0.6-1.3,1.2-1.7
		c1.7-1.3,3.1-2.8,4-4.6c2-4.2,2-8.7,1.5-13.1c-0.1-1.4-1.2-2.7-1.3-3.9c-0.4-2.6-2.5-3.9-3.4-5.9c-0.7-1.4-2.1-2.5-3.3-3.5
		c-1.7-1.7-3.5-2.9-6-3.3c-2.9-0.4-5.7-1.2-8.7-0.4c-1.9,0.4-4.1,0.2-5.5,2.1c-0.4,0.4-0.9,0.4-1.4,0.7c-1.7,0.7-3.3,1.5-4.8,2.3
		c1.9,2.1,4.2,3.3,6.6,4.4c2.3,1.2,4.2,2.7,5.7,4.9c1.5,2.3,3.5,8.1,3.9,11.2c0,0.1,0.1,0.2,0.2,0.2c1.1,0.4,1.1,1.4,1.4,2.3
		c0.4,0.8,0,1.7,0.4,2.5c1.4,2.3,1.4,4.7,0,7C169,50.9,168.2,52.1,168,53.4z M88.9,34.7c1.4,0.8,2.9,1.2,4.6,1.2
		c1.7,0.1,2.6-1.2,3.9-1.7c0.1,0,0.2-0.2,0.1-0.2c-0.7-1.1,0.4-1.4,0.8-2c0.4-0.6,0.4-1.7,0.1-1.7c-1.4-0.1-1.7-1.4-2.8-1.9
		c-2.3-1.1-4.7-1.4-7-2.3c-0.8-0.2-2-0.7-2.6-0.4c-0.9,0.4-1.7,0.4-2.3,0.1c-2.3-0.7-4.2-0.2-6.3,0.6c-0.8,0.4-1.5,0.6-2.5,0.7
		c-1.7,0.1-3.6,0.6-5.3,1.3c0,0.4,0.2,0.2,0.4,0.4c3.3,0.7,6.6,1.2,9.7,2.3c1.5,0.4,3.2,0.9,4.7,1.2c2.5,0.4,4.7,1.5,7.2,1.7
		c0.4,0,0.6,0.2,0.6,0.4c0,0.4-0.4,0.4-0.7,0.4C90.6,35.1,89.7,34.9,88.9,34.7z M103.7,34.7c-0.2-0.4-0.8-0.4-0.8-0.8
		c0.1-0.4,0.6-0.4,0.9-0.4c0.9-0.1,1.7-0.1,2.6-0.2c0.9-0.2,2-0.6,2.9-1.1c0.4-0.2,0.9-0.8,0.7-1.4c-0.2-0.7-0.8-0.2-1.2-0.2
		c-1.4,0.2-2.7,0.6-4.1,0.7c-1.7,0-2.9,0.9-3.9,2.1c-0.4,0.4-0.7,0.8-1.3,1.2c-1.2,0.7-2.3,1.7-2.6,3.3c-0.1,0.6-0.4,1.5,0.2,1.7
		c0.7,0.2,1.5,0,2.1-0.7c0.2-0.4,0.4-0.6,0.7-0.8C101.1,36.8,102.2,35.5,103.7,34.7z M98.9,24.3c1.4,1.3,2.8,1.7,4.4,1.9
		c0.6,0.1,1.1,0.1,1.3,0.7s-0.1,1.1-0.4,1.5c-0.2,0.2-0.8,0.4-0.6,0.8c0.4,0.4,0.8,0.4,1.4,0.4c1.2-0.4,2.3-0.7,3.5-0.9
		c0.4-0.1,1.1-0.4,0.7-0.9c-0.6-0.9,0.4-0.8,0.7-1.1c0.2-0.1,0.6,0.4,0.7-0.1c0.1-0.4-0.2-0.6-0.4-0.8c-0.9-0.7-2-0.8-3.1-1.2
		c-0.9-0.4-2-1.1-1.9,1.2c-0.4-0.6-0.8-1.1-1.2-1.4c-0.4-0.2-1.1-0.4-1.1-0.2c-0.1,1.7-1.2,0.4-1.5,0.4
		C100.7,24.5,100,24.2,98.9,24.3z M55.8,33.2c-0.9-0.8-1.7-0.4-2.5,0.1c-2.1,1.5-3.9,3.5-5.7,5.3c-0.2,0.2-0.9,0.4-0.6,0.9
		c0.2,0.4,0.7,0.4,1.2,0.6c1.7,0.2,3.2-0.2,4.7-0.4c2.5-0.1,3.9-1.7,5.3-3.4c-1.1,0.4-2.3,0.6-2.9,1.5c-1.2,1.5-2.7,0.6-4,0.9
		c-0.4,0.1-0.6-0.4-0.4-0.8c0.7-1.7,1.9-3.1,3.6-3.9C55,34,55.6,33.8,55.8,33.2z M125.5,46.8c-0.8-0.2-1.7,0.1-2.5,0.4
		c-0.7,0.4-1.7,0.7-1.7,1.9c0.1,1.1,0.4,1.9,1.7,2.3c2.7,0.9,5.4,0.8,8-0.1c0.8-0.4,1.4-1.3,1.5-2.1c0.1-0.8-0.7-1.4-1.4-1.7
		C129.5,46.4,127.4,46.6,125.5,46.8z M55.8,32.3c0.8,0.6,2.3,0.7,2.6,1.3c0.6,1.7,1.3,0.7,1.7,0.4c1.1-0.9,2.3-1.7,3.5-2.3
		c0.4-0.2,0.7-0.4,0.8-1.1c-0.6,0.2-1.2,0.6-1.7,0.6c-1.7,0-3.2-0.6-4.9,0.4C57.3,31.9,56.4,31.7,55.8,32.3z M95.5,26.2
		c1.4,0.6,2.3,2,3.9,2.3c0.6,0.1,1.7,0,0.8,1.2c-0.2,0.4,0.4,0.9,0.8,1.2c0.4,0.2,1.5,0.2,1.7,0c0.4-0.6-0.4-0.7-0.8-0.9
		c-0.6-0.4-1.2-1.1,0-1.5c0.6-0.2,0.4-0.8,0.6-1.2c0.1-0.4-0.6-0.4-0.9-0.4C99.4,26.2,97.6,25.8,95.5,26.2z M124.9,30.6
		c2.8,2.3,5.9,3.4,9.4,1.7c-2.3-1.4-4.9-0.7-7.8-0.9c1.3-0.9,2.5-0.4,3.4-1.1C128.2,30,126.6,30,124.9,30.6z M120.9,53.1
		c0.7,0.6,1.2,0.8,1.7,0.8c0.9,0,1.7,0.1,2.3,0.9c0.1,0.2,0.4,0.4,0.7,0.4c1.9,0.1,3.8-0.4,5.5-0.7c0.4-0.1,0.4-0.4,0.4-0.7
		c-0.1-0.4-0.4-0.4-0.6-0.4c-0.8,0.7-1.9,0.1-2.8,0.4c-1.5,0.6-2.9,0.2-4.4-0.6C123,53.1,122.1,53,120.9,53.1z M164.4,30.4
		c0.1-2.3-3.3-6.3-5.3-6.8C160.6,26.1,162.3,28.5,164.4,30.4z M49.7,35.5c-2.3,0.8-4.4,1.9-6.1,3.2c-0.4,0.4-0.4,0.8,0.1,0.9
		c0.6,0.1,1.4,0.4,1.9-0.1C46.6,38,48.4,37.2,49.7,35.5z M61.9,111.8c0.8,0.7,0.6,1.9,1.3,2.7c0.6,0.7,1.4,0.2,2,0.7
		c0.4-0.4,0.6-1.1,0.4-1.5C65.3,112.7,63.2,111.7,61.9,111.8z M144.2,52.1c-0.4-0.8-1.1-0.9-1.9-0.4c-0.7,0.4-1.3,1.2-2.3,1.3
		c-0.4,0-0.8,0.7-0.7,1.4c0.1,0.6,0.4,0.9,0.9,0.4C141.3,53.4,143,53.2,144.2,52.1z M56.7,35.4c-0.1-0.2-0.2-0.4-0.4-0.4
		c-1.1,0.1-1.9,0.9-2.8,1.5c-0.2,0.1,0,0.4,0.1,0.6c0.1,0.4,0.4,0.2,0.7,0.1c0.7-0.4,1.3-0.8,2-1.3C56.4,35.9,56.7,35.7,56.7,35.4z
		 M96.7,40.1c-0.6-1.1,0.7-2-0.4-2.6c-0.4-0.1-1.5,0-1.7,0.7C94.5,39,95.5,39.3,96.7,40.1z M124.9,28.1c-0.8-0.4-2.1,0.2-3.5,1.5
		c0.4,0,0.8,0.2,1.2,0.4c0.2,0.1,0.8,0.2,0.7-0.2C123.1,28.6,124.4,28.7,124.9,28.1z M180.2,13.8C180,13.9,180,14,180,14
		c1.4,1.3,2.8,2.7,4.2,4C183,16.6,181.9,14.8,180.2,13.8z M176,8.1c0,0.1-0.1,0.2-0.1,0.4c1.4,0.6,2.8,1.3,4.2,1.9
		C179,9.2,177.5,8.5,176,8.1z M137.7,36.4c1.1,0.4,2.1,0.6,3.4,1.1C140.1,35.9,138.8,35.9,137.7,36.4z M131.6,34
		c1.5-0.2,3.2,0,4.8-0.1C135,33.4,133.3,33.8,131.6,34z M141.5,40.2c0.9,0.2,1.7,0.4,2.3,0.6C143.5,39.3,142.9,39.1,141.5,40.2z
		 M174.3,10.2c-1.1-0.4-1.7-0.2-2.6,0.2C172.8,10.9,172.9,10.9,174.3,10.2z M115.1,28.6c-0.1-0.1-0.1-0.2-0.2-0.4
		c-0.7,0.2-1.5,0.2-1.5,1.5C114.1,29.3,114.5,28.9,115.1,28.6z"/>
	<path class="st0" d="M79.8,49.4c-1.5-0.4-2.8-1.7-4.6-2c-2.3-0.2-4.4-0.7-6.5-1.2c-0.6-0.1-1.2-0.2-1.5-0.6
		c-0.4-0.4-0.7-0.9-1.2-0.1c-0.2,0.4-0.6-0.1-0.8-0.4c-0.6-0.7-1.2-1.4-1.2-2.3c0-2.1,0.1-4.2,1.5-5.9c1.7-2.1,5.5-2.7,8.1-1.7
		c2.1,0.7,4.4,0.9,6.6,1.3c2.3,0.4,4.7,0.4,6.9,1.4c2.5,0.9,3.4,2.3,3.4,5.1c0,1.7-0.4,3.5,0,5.3c0.2,0.9,0.1,2,1.4,2.1
		c0.2,0,0.4,0.4,0.2,0.4c-0.2,0.2-0.6,0.4-0.8,0.4c-0.6,0-1.2-0.2-1.7-0.4c-0.1,0-0.4-0.2-0.4-0.2c0.4-0.7-0.1-1.1-0.4-1.7
		c-0.2-0.7,0.1-1.5,0.2-2.3c0.6-2.5,0.2-4.9-0.7-7.3c-0.1-0.4-0.5-0.7-0.9-0.7c-0.1,0-0.4,0.1-0.4,0.2c-0.2,0.4,0.2,0.6,0.4,0.8
		c0.4,0.9,0.8,1.7,0.8,2.7c0.2,2,0,4.1-0.2,6.1c0,0.4-0.2,0.8-0.6,0.6c-0.7-0.4-0.7-0.1-0.8,0.4c0,0.2-0.1,0.4-0.4,0.4
		s-0.4-0.4-0.4-0.6c-0.4-1.7,0.1-3.3,0.4-4.8c0-0.2,0.1-0.6,0.2-0.8c0.1-0.8,0.6-2.1,0.1-2.5c-0.9-0.8-1.9-2.1-3.3-2.3
		c-4.9-0.8-10-1.5-15-2.3c-0.1,0-0.2,0-0.4,0c0.4,0.6,1.3,0.1,1.7,0.8c-0.7,0.4-1.3,0.1-1.9,0.1c-1.2,0-1.7,0.4-1.2,1.5
		c0.4,0.7,0.2,1.3,0.2,2c0,1.2-0.4,0.1-0.8,0.1c0,0.6,0.1,1.2,0,1.7c-0.1,0.6,0.1,0.8,0.6,0.9c0.4,0.1,0.7,0.4,1.1,0.1
		c0.4-0.4,0.1-0.8,0-1.2c-0.4-1.4,0.1-3.6,1.2-4.4c0.4-0.2,0.7-0.1,1.1-0.1c2.9,0.6,6,0.7,8.9,0.9c1.2,0.1,2.6-0.1,3.3,1.3
		c0.1,0.2,1.1,0.4,1.7,0.6c0.9,0.4,1.3,1.2,1.2,1.9c-0.2,1.7-0.8,3.5-1.3,5.3c0,0.1-0.2,0.4-0.4,0.4C82.1,48.8,81.1,49.6,79.8,49.4
		L79.8,49.4z M80.7,45.6c-0.6,0.2-0.8,1.1-1.7,0.9c-2.8-0.2-5.7-0.9-8.4-2c-0.4-0.2-0.7-0.7-0.6-1.2c0-0.4,0.1-0.9,0.1-1.4
		c0-0.2,0.4-0.7-0.2-0.8c-0.4,0-0.6,0.4-0.6,0.8c0,0.7,0,1.5,0,2.3c0,0.4,0.4,0.6,0.7,0.7c1.7,0.4,3.4,1.1,5.2,1.5
		c1.3,0.4,2.8,0.2,4,1.1c0.4,0.2,0.4,0.7,0.9,0.4c0.4-0.2,0.4-0.7,0.4-1.1C80.8,46.5,80.7,46,80.7,45.6z M77.4,44.9
		c0.4-0.1,0.8-0.2,1.3-0.1c0.4,0.1,0.6-0.1,0.7-0.4c0-0.4,0-0.7-0.6-0.8c-2.3-0.2-4.4-0.4-6.6-0.7c-0.4,0-0.6,0.1-0.6,0.4
		c-0.1,0.4,0.2,0.4,0.4,0.6C73.9,44.2,75.6,44.5,77.4,44.9z M81.1,42.7c-3.2-0.4-6.5-1.3-9.7-1.2C74.6,42.2,77.7,42.4,81.1,42.7z
		 M81.7,46c0.1,0.4-0.1,1.1,0.4,1.2c0.6,0.1,0.8-0.4,0.9-0.9c0.4-0.9-0.4-1.5-0.4-2.3c0-0.2,0-0.4-0.4-0.4c-0.4,0-0.4,0.2-0.4,0.4
		C82,44.5,81.9,45.2,81.7,46z"/>
	<path class="st0" d="M111.4,97.5c0.4,1.4,1.3,1.4,2.3,0.9c0.4-0.1,0.7-0.4,0.8,0.1c0.1,0.4,0,0.6-0.4,0.7c-0.9,0.4-0.8,1.2-0.7,2
		c0.4,3.2-0.2,5.9-2.9,8c-1.1,0.8-2.6,1.7-3.2,3.2c-0.1,0.4-0.9,0.7-1.5,0.8c-3.1,0.4-5.7-0.9-8-2.6c-1.3-0.8-0.9-2.3,0.4-3.1
		c0.1-0.1,0.4-0.2,0.2-0.4c-0.2-0.4-0.4-0.9-0.9-0.9c-0.7,0-1.5,0.8-2.3-0.1c-0.8-1.2-1.2-2.6-1.2-4c-0.1-1.9,0.4-3.6,1.3-5.3
		c0.7-1.2,1.7-1.3,2.5-0.1c0.6-1.4,2.1-1.9,2.6-3.4c0.1-0.6,0.9-0.8,1.7-0.9c1.7-0.4,3.4-0.6,5.2-0.6c1.7,0.1,2.9,0.8,3.5,2.5
		c0.1,0.4,0.2,0.8,0.7,1.2C112.4,96.2,111.1,96.9,111.4,97.5c-0.4,0-0.6,0-0.9,0c-1.1-0.2-0.9,0.4-0.7,0.9c0.2,0.4,0.9,0.2,1.4,0.6
		c0.1,0.1,0.1-0.4,0.1-0.8C111.2,98,111.4,97.8,111.4,97.5z M101.1,109.7c0.8,1.1,1.7,1.7,3.1,1.3c-0.4-0.4-1.3-0.4-1.7-0.9
		C102.2,109.2,101.7,109.5,101.1,109.7c-0.6-0.6-1.7-1.2-1.9-0.9c-0.4,0.9,0.4,1.4,1.1,1.9c0.2,0.1,0.4,0.4,0.6,0.4
		c0.4-0.2,0.1-0.4-0.1-0.8C100.4,109.6,100.9,109.7,101.1,109.7z M102.1,97.8c0.1,0.8-0.1,1.3-1.1,1.1c-0.4-0.1-0.7,0-0.9,0.4
		c-0.6,1.2-1.5,2.3-1.3,3.9c0.1,0.8,0.6,2,0.1,2.5c-0.6,0.8,0,0.9,0.2,1.3c1.7,1.7,3.9,1.9,6,2.3c0.8,0.2,1.3-0.2,1.5-1.2
		c0.4-1.5,0.2-3.2,0.8-4.7c0.1-0.2,0-0.6-0.1-0.8c-0.6-1.2,0-1.9,0.7-2.7c0.2-0.2,0.7-0.2,0.4-0.7c-0.2-0.4-0.4-0.8-0.8-0.8
		c-1.1,0.1-1.5-0.4-1.4-1.7c-0.6,1.1-0.8,2-1.7,0.9c-0.1-0.1-0.6-0.1-0.6,0C103.6,98.6,102.9,97.8,102.1,97.8z M105.7,94
		c-1.5,0-2.6,0.4-3.6,0.7c-0.4,0.1-0.7,0.4-0.6,0.8c0.1,0.6,0.4,0.6,0.9,0.4c0.6-0.1,1.1-0.4,1.7-0.4c1.2,0.1,2.6-1.1,3.6,0.4
		c0.2,0.4,0.4,0.9,1.1,0.6c0.4-0.2,1.1-0.4,1.1-1.2c0-0.7-0.4-0.9-0.9-1.3C107.7,93.8,106.5,93.4,105.7,94z M108,107.2
		c2.3,0.2,2.3,0.1,2.6-2c0.2-1.3-0.4-2.5-0.4-3.8c0.8,0.4,0.9,1.2,1.3,1.9c0.1-0.6,0-1.2,0.1-1.7c0.1-0.9,0-1.4-1.3-1.3
		c-1.2,0.1-2,0.1-1.1,1.7c0.1,0.2,0.1,0.6,0,0.9C109.3,104.4,109.3,106,108,107.2z M96.5,97.2c-0.4,1.4-0.9,2.6-1.2,3.8
		c-0.1,1.1-0.4,2.1,0.1,3.2c0.2,0.4,0.6,0.9,1.2,0.7c0.6-0.2,0.4-0.8,0.2-1.2c-0.4-0.4-0.2-1.1-0.4-1.5c-0.1-0.2-0.1-0.4,0.1-0.6
		c0.2-0.1,0.4,0,0.4,0.1c0.1,0.1,0.1,0.6,0.4,0.2c0.4-0.6,0.4-1.3,0.4-1.9c0-0.2-0.2-0.4-0.4-0.2c-0.9,0.4-0.7-0.1-0.4-0.6
		C97.3,98.6,97.3,98,96.5,97.2z M100,95.9c-0.6,0.4-1.1,0.9-1.5,1.4c-0.2,0.2-0.1,0.6,0,0.8c0.4,0.4,0.8,0.2,1.3,0.1
		c0.2-0.1,0.4-0.2,0.4-0.4c-0.1-0.7-0.7,0.2-0.8-0.4C99.2,96.9,100.3,96.9,100,95.9z M106.3,110.5c0.7-0.4,1.5-0.6,2.3-0.9
		c0.4-0.1,0.4-0.4,0.1-0.7c-0.2-0.2-0.7-0.4-0.8-0.1C107.7,109.7,106.9,110,106.3,110.5z"/>
	<path class="st0" d="M146.8,98.4c0.2-3.1,0.4-6.1-0.1-9.2c-0.2-1.9,0-3.9,0.1-5.9c0-0.7,0.1-1.5,0.1-2.3c0-0.4-1.2-0.4-0.7-1.4
		c-2,1.2-1.7,2.9-1.5,4.4c0.2,2.3,0,4.6-0.8,6.8c0.6,0,0.7-0.4,1.1-0.7c0.4-0.2,0.6-0.2,0.9,0c0.2,0.4,0.1,0.6-0.2,0.8
		c-0.1,0-0.1,0.1-0.2,0.1c-0.7,0.2-1.2,1.5-2,0.6c-0.7-0.7-0.9-1.7-0.1-2.7c0.4-0.6,0.4-1.3,0.4-2c0-2.7-0.9-5.3-0.6-7.8
		c0.1-1.3,0.9-2.7,2.3-2.8c1.7-0.1,1.9-1.2,1.7-2.5c-0.1-2.3,0.2-4.7-0.7-6.9c-0.1-0.4,0.1-0.7,0.2-1.1c-1.1-0.2-1.7,0.4-2.5,0.7
		c-1.7,0.7-3.8,0.6-5.7,0.8c-2.3,0.4-4.4,1.4-6.6,2c-0.8,0.2-0.4,1.4-0.7,2.1c-0.7,2.9-0.2,6-0.4,9c-0.2,6,0.4,12.1,0.2,18.1
		c0,1.1,0,2.3,0,3.3c0,0.4,0,0.6-0.4,0.7c-0.6-1.5-0.4-3.2-0.4-4.7c0-2-0.2-4-0.4-5.9c-0.4-4-0.4-8.1-0.4-12.1
		c0-2.8,0.2-5.7,0.1-8.6c0-0.4-0.4-1.3,0.6-0.8c0,0,0.1-0.2,0.1-0.4c-0.2-0.6-0.4-1.1,0.1-1.5c0.7-0.7,1.5-1.4,2.5-1.4
		c3.1,0.1,5.7-1.2,8.4-2c0.4-0.1,0.7,0,0.9-0.1c0.2-0.1,0.9,0.2,0.4-0.6c-0.2-0.4,0.6-0.4,0.9-0.4c0.9,0.1,2,0.1,2.9,0.1
		c1.4,0,1.9,0.8,1.4,2.7c-0.4,1.7-0.2,3.4-0.1,5.2c0.1,4-0.2,8-0.4,11.8c-0.1,4.4,0,8.9-0.1,13.4C147.8,98,148.2,99.3,146.8,98.4
		L146.8,98.4z"/>
	<path class="st0" d="M42.9,55.9c-1.7,0.4-1.7,1.9-1.5,2.9c0.1,2-0.6,3.9-0.4,5.9c0.1,0.6,0.4,1.1-0.2,1.5c-0.7-0.6-0.4-1.3-0.4-2
		c-0.2-2.6-0.4-5.1,0.7-7.5c0.2-0.7,0.4-1.4,1.1-1.7c1.4-1.3,1.9-2.8,1.5-4.7c0-0.1,0-0.2,0-0.2c0.2-0.7,1.1-0.6,1.4-1.3
		c0.4-0.8,1.2-0.9,1.9-0.6c0.9,0.4,1.3-1.2,2.3-0.4c0-0.9-0.8-0.4-1.1-0.9c1.2-0.7,2.5-0.4,3.5-0.1c0.7,0.2,0.4,0.8-0.8,1.7
		c1.3,0.9,2.9,1.4,4.4,1.9c3.6,1.3,7.3,2.5,10.9,3.4c1.2,0.4,2.6,0.6,3.9,0.8c0.8,0.1,2.3,0,3.1,1.1c0.1,0.2,0.4,0.1,0.4,0
		c1.3-0.4,2.5,0.4,3.6,0.7c2.9,0.8,5.7,2.1,8.6,2.9c2.6,0.8,5.2,1.5,7.8,2.1c0.6,0.1,1.2,0.1,1.7,0.1c1.3,0.1,2,1.3,3.3,1.3
		c0.2,0,0.6,0.2,0.8,0.1c2.5-0.9,4.6,0.4,6.8,0.8c0.8,0.1,1.5,0.4,1.4,1.5c-0.2,2,0.8,3.8,1.1,5.7c0.6,3.5,1.2,6.9-0.1,10.5
		c-0.6,1.7-0.8,3.4-1.1,5.1c-0.1,0.4-0.1,1.1-0.8,1.2c-0.4-2.3,0.2-4.2,0.9-6.2c0.6-1.7,1.4-3.8,0.9-5.7c-0.8-3.2-1.2-6.5-2.1-9.7
		c-0.2-0.9-0.9-1.2-1.7-1.3c-1.1-0.1-2.1-0.1-3.2-0.2c-0.8-0.1-1.2-0.8-1.9-1.1c-1.4-0.4-2.7-0.1-4.1-0.4c-3.8-1.1-7.6-2.1-11.4-3.3
		c-5.1-1.5-10.2-2.7-15.2-4.4C65,54,61,53.2,57.2,51.7c-2.3-0.9-4.8-1.5-7-2.6c-0.4-0.1-0.6-0.1-0.9,0.1c-0.4,0.4-0.9,0.8-1.7,0.6
		c-0.1,0-0.4,0.1-0.4,0.2c-0.7,1.7-2.6,2.9-3.1,4.8c-0.1,0.8-0.4,0.7-1.1,0.6C43,55.8,43,55.9,42.9,55.9z"/>
	<path class="st0" d="M69.7,119.9c-0.4,0.9-0.8,1.9-1.1,2.9c-0.8,3.8-2.3,7.4-3.6,11c-2.6,7.3-5.5,14.5-8.1,21.7
		c-1.4,4.1-3.2,8-4.4,12.2c-0.9,3.1-2.5,6-3.6,9c-0.6,1.7-1.1,3.4-1.7,5.1c-0.7,2-1.3,4.1-2.3,6c-0.6,1.1-0.1,2.5-1.5,3.1
		c0.1,2.6-1.2,4.7-2,6.9c-0.4,1.3-1.1,2.5-1.5,3.8c-0.9,2.3-2.3,4.4-3.1,6.6c-0.2,0.4-0.1,0.8,0.4,0.9c0.4,0.2,0.2,0.4,0.1,0.8
		c-0.2,0.4-0.6,0.4-0.7,0.1c-0.4-0.9-0.6-0.2-0.8,0c-0.1,0.1-0.2,0.4-0.2,0.4c0,0.4-0.2,0.8-0.7,0.9c-0.2,0.1-0.4,0-0.4-0.2
		c-0.2-0.4,0-0.8,0.2-1.2c1.1-1.3,1.7-2.8,2.3-4.4c1.2-2.7,2-5.5,2.8-8.4c1.1-3.5,2.5-6.9,3.6-10.3c1.9-5.9,5.2-11.2,7.2-17
		c1.9-5.7,4-11.5,6.1-17.3c0.8-2.1,2.1-4.1,2.7-6.3c1.1-3.5,2.1-6.9,3.4-10.3c2.1-5.4,3.8-10.9,5.7-16.3c0.1-0.4,0.2-1.1,0.8-0.9
		C69.7,119.2,69.9,119.6,69.7,119.9z"/>
	<path class="st0" d="M93.9,149.4c-2.1-3.4-2.5-7.3-3.4-11c-0.4-1.3-0.2-2.8-0.6-4.2c-0.6-2.8-0.4-5.9-1.3-8.6
		c-0.1-0.4-0.2-1.2,0.2-1.4c0.7-0.4,0.6,0.6,0.8,0.8c1.4,2.1,2.8,4.2,4.2,6.5c2.3,3.9,4.8,7.6,7.4,11.4c1.1,1.7,2.3,3.2,3.4,4.7
		c1.4,2,2.7,4.1,4.1,6c1.4,2,2.6,4.2,4.2,6.1c2,2.1,2.9,4.9,4.4,7.5c0.4,0.8,1.5,1.3,1.4,2.6c-0.9-0.1-1.4-0.8-1.7-1.4
		c-2.3-4.2-5.2-8-7.8-12.1c-5.2-8-10.9-15.6-15.8-23.8c-0.4-0.7-1.1-1.4-1.5-2.3c-0.2-0.2-0.2-0.7-0.7-0.4c-0.4,0.1-0.4,0.4-0.4,0.8
		c0,1.5-0.2,3.1,0.1,4.4c0.7,3.2,1.3,6.3,1.9,9.5c0,0.1,0,0.2,0,0.2c0.4,0.7,1.1,1.1,1.4,1.9c0.4,0.8-0.9,1.3,0,2.1
		C94.5,148.9,93.7,149,93.9,149.4z"/>
	<path class="st0" d="M139.6,117.8c1.7-1.9,3.8-3.2,5.7-4.4c0.7-0.4,1.4-0.8,1.7-1.7c0.4-0.9,1.3-1.5,2.1-2.1c2.1-1.5,2.8-4,3.9-6.1
		c0.4-1.1-0.7-2.1-0.1-3.3c0.4,0,0.2,0.4,0.4,0.6c0.2-0.6,0.6-0.9-0.2-1.5c-0.4-0.2-0.7-1.3,0.1-1.7c1.2-0.4,0.6-1.4,0.4-1.9
		c-1.1-1.4-0.4-2.9-0.2-4.4c0.1-1.1,0.4-2,0.1-3.1c0-0.1-0.1-0.4-0.1-0.4c0.9-2,0.1-4,0.1-6c0-2.3,0.2-4.4,0.1-6.7
		c-0.1-2.3-0.1-4.4-0.1-6.7c0-0.4,0-0.8,0.1-1.3c1.3,1.7,0.4,3.8,1.4,5.7c0-0.9,0.1-1.7,0.1-2.6c0-0.2,0.1-0.4,0.4-0.4
		c0.4,0,0.2,0.2,0.2,0.6c-0.2,5.9-0.6,11.6-0.7,17.5c-0.1,3.5-0.4,6.9-0.6,10.5c0,1.5,0,2.9-0.2,4.4c-0.4,2.7-2,4.4-3.9,6.1
		c-0.7,0.6-1.5,1.2-2,2c-1.5,2.5-3.9,4-6.3,5.4C141.4,117,140.8,117.7,139.6,117.8z"/>
	<path class="st0" d="M80.6,104.8c0.1-0.6-0.9-0.6-0.4-1.1c0.4-0.4,0.9-0.1,1.3,0.2c1.2,1.2,2.8,1.3,4.4,1.7
		c0.4,0.1,0.7-0.2,1.1-0.2c1.4-0.4,2.6-1.4,4.2-0.9c0.4,0.1,0.6-0.2,0.6-0.6c0-0.4-0.1-1.1-0.1-1.5c0-0.4-0.4-0.7-0.1-0.8
		c0.4-0.2,0.8,0.2,0.9,0.6c0.4,0.8,0.1,2.6-0.7,3.1c-0.7,0.4-1.3,0.7-2,0.9c-1.3,0.4-2.3,1.1-3.4,1.7c-0.6,0.4-0.9,0.6-1.4-0.2
		c-0.8-1.3-2.3-1.4-3.6-1.9c-3.5-1.2-7-2.3-10.5-3.6c-1.9-0.8-4-1.5-6.1-2.1c-5.4-1.7-10.8-3.5-16-6c-1.5-0.7-3.2-1.4-4.8-2
		c-1.1-0.4-1.7-1.4-2.9-1.4c-0.1,0-0.4-0.2-0.4-0.4c-0.1-1.4-0.1-2.9-0.1-4.4c0-0.2,0-0.4,0.4-0.4c0.2,0,0.4,0.2,0.4,0.4v0.1
		c-0.6,2.8,1.5,3.8,3.5,4.9c3.5,2.3,7.5,3.1,11.3,4.4c7.5,2.8,15.2,5.7,22.7,8.6C79.2,104.1,79.8,104.4,80.6,104.8z"/>
	<path class="st0" d="M105.8,199.7c-0.4,0.2-0.8,0-0.9-0.4c-0.8-4.8-1.7-9.7-2.7-14.5c-0.2-1.1-0.4-2.3-0.4-3.4
		c0-0.7-0.7-1.5-0.8-2.5c-0.4-2.9-1.2-5.9-1.7-8.8c-0.9-4.1-1.7-8.1-2.8-12.2c-0.4-1.3-1.3-2.6-0.7-4.1c0-0.1-0.1-0.4-0.2-0.4
		c-1.2-0.7-0.2-1.7-0.6-2.5c0.7-0.1,0.7,0.4,0.7,0.7c0.7,2.5,1.7,4.9,1.7,7.6c0,0.7,0.2,1.7,0.6,2.3c0.7,1.7,0.6,3.4,1.2,4.9
		c0.4,1.1,0.7,2.1,0.9,3.2c0.2,0.7,0,1.5,0.4,2.1c0.6,0.9-0.2,2.3,0.4,2.6c0.9,0.6-0.1,1.9,1.1,2.1v0.1c-1.5,0.6-0.6,1.2,0,1.9
		c0.4,0.6-0.4,1.7,0.8,2.1l-0.1,1.7c-0.2,0.6,0.4,0.9,0.4,1.4c0.4,2.1,0.7,4.2,1.2,6.2c0.1,0.6-0.1,1.4,0.8,1.5
		c0.1,0,0.2,0.1,0.2,0.1c-1.1,2.8,0.9,5.3,0.9,7.8C106.1,199.4,105.9,199.5,105.8,199.7C105.9,199.8,105.9,199.7,105.8,199.7z"/>
	<path class="st0" d="M115.8,71.9c-1.1-0.7-1.3-1.7-1.2-2.8c0-1.2,0.2-2.5,0.4-3.6c0.1-0.8,0.6-1.5,1.4-1.4c0.8,0,1.3-0.6,2-0.8
		c2.3-0.4,3.3,1.9,5.2,2.1c-1.9,0.7-3.8-1.7-5.4,0.4c1.5,0.1,3.1,1.3,4.9,0.2c-0.6,1.2-0.9,1.3-2.3,1.4c-0.4,0-1.2-0.2-1.5,0.4
		c-0.4,0.7,0.4,1.1,0.8,1.4c0.8,0.8,0.7,2.3-0.2,2.9c-0.4,0.4-1.9-0.4-2.1-1.3c-0.4-1.1-0.8-2,0.4-2.9c0.4-0.2,0.6-0.8,0-1.2
		c-0.4-0.2-0.8-0.4-1.3,0.4c-0.8,1.5-0.1,2.8,0.4,4.1c0.9,1.7,1.5,2,3.5,1.5c0.4-0.1,0.7-0.1,1.1,0c0.2,0,0.4,0.2,0.4,0.4
		c-0.1,0.2-2.3,1.2-2.6,1.2c-1.3-0.1-2.3-1.1-3.4-1.7C115.9,72.6,115.8,72.3,115.8,71.9c0.4-0.1,0.6,0.6,1.2,0.2
		c-0.6-0.9-1.1-2-1.4-3.2C115.1,70.2,116.3,70.9,115.8,71.9z M119.6,63.9c-0.9,0-2,0.1-3.1,0.9C117.8,64.7,118.7,64.6,119.6,63.9z"
		/>
	<path class="st0" d="M108,207.4c0.4,1.5,0.7,2.9,1.1,4.4c0.4,2,0.9,4,1.4,5.9c0.6,2.5,1.2,4.9,1.7,7.4c0.6,2.9,1.5,5.9,1.9,8.8
		c0.6,4.8,2.1,9.5,3.3,14.2c0.1,0.2,0.4,0.7-0.1,0.8c-0.4,0.1-0.4-0.4-0.6-0.6c-1.2-4.4-2.3-8.9-3.3-13.4c-0.6-2.5-1.2-5.1-2-7.5
		c-0.9-2.6-1.7-5.4-2.3-8.2c-0.2-1.7-0.4-3.5-0.9-5.2c-0.6-2.1-0.8-4.2-1.5-6.3c-0.4-1.2,0.6-1.1,1.1-1.2
		C108.3,206.6,107.9,207.2,108,207.4z"/>
	<path class="st0" d="M121.7,88.5c-0.4,1.2-0.9,2.7-0.8,4.2c0,0,0,0.1-0.1,0.1c-1.5-0.4-1.2,1.3-2,1.9c-0.8,0.6-1.4,0.1-1.7-0.4
		c-0.9-2.3-2.9-3.9-4-6c-0.4-0.8-0.9-2.1,0.7-2.6c0.1,0,0.4-0.2,0.4-0.4c0.2-0.9,0.6-2,1.5-2c1.5,0,3.1-0.4,4.6,0.1
		c0.4,0.2,0.7,0.6,0.8,1.1C121.2,85.8,121.3,87,121.7,88.5z M114.4,87.9c1.3,1.9,2.8,3.6,3.6,5.7c0.8-0.4-0.1-1.1,0.4-1.3
		c1.3-0.6,0.8-1.7,0.7-2.7c0-1.5-0.2-2.9-0.1-4.4c0-0.4,0.1-0.6-0.4-0.8c-1.3-0.7-3.8,0.4-4.1,1.9C114.6,86.9,114.4,87.5,114.4,87.9
		z"/>
	<path class="st0" d="M99.2,67.7c0.2-1.2,1.2-1.4,2-1.7c0.7-0.2,1.2,0.6,1.7,1.1c1.7,1.7,2.3,3.8,2.9,5.7c0.4,1.2,0,2.6-0.6,3.9
		c-0.7,1.7-1.7,1.9-3.3,1.2c-0.6-0.2-1.2,0-1.7,0s-1.1-0.1-0.9-0.8c0.4-2.5,0.1-5.1,0.2-7.5c0-0.6-0.1-1.4,0.6-1.3
		c0.4,0,1.1,0.7,0.9,1.5c-0.2,2-0.4,4-0.6,6c-0.1,0.8,0.2,1.1,0.9,1.2c0.4,0.1,1.1-0.2,1.5,0.4c0.2,0.2,1.1-0.2,0.9-0.8
		c-0.2-1.1,0.8-2.3-0.1-3.2c0.9-2.5-1.1-3.9-1.9-5.7c-0.4-0.7-0.7-0.7-1.2-0.2C100,67.8,99.7,67.9,99.2,67.7z"/>
	<path class="st0" d="M93.1,96.9c-0.8-0.7-0.7-1.7-0.4-2.6c1.1-3.3,0.7-6.7,1.2-10.1c0.4-2.3,0.2-4.7,0.4-7c0.1-2,0.7-3.8,1.3-5.7
		c0.1-0.4,0-0.6-0.2-0.9c-0.1-0.4-0.1-0.8,0-1.2c0-0.1,0.4-0.1,0.4,0.1c0.4,0.4,1.1,0.2,0.9,1.1c-0.1,1.7,0,3.6-0.4,5.4
		c-1.1,3.5-1.2,7.2-1.5,10.8c-0.2,2.5-0.6,5.1-0.6,7.5C94.2,95.3,94.3,96.3,93.1,96.9z"/>
	<path class="st0" d="M101.3,79.3c0.6,0.1,1.5,0,2,0.8c0.1,0.1,0.1,0.2,0.2,0.4c2.5,0.7,2.9,2.1,1.7,4.4c-0.4,0.8-0.8,1.7-1.2,2.7
		c-0.2,0.8-0.7,1.4-1.7,1.1c-0.6-0.2-1.3-0.1-1.7,0.1c-0.8,0.4-1.5,0-2.3-0.2c-0.4-0.1-0.6-0.6-0.4-0.9c0.9-1.5,0.4-3.3,0.6-4.8
		c0-0.1,0-0.2,0-0.4C98.2,79.9,98.7,79.3,101.3,79.3z M103.6,82.7c-0.2-0.4,0.1-1.2-0.6-1.3c-1.1-0.2-2-1.2-3.2-0.7
		c-0.2,0.1-0.4,0.4-0.4,0.7c0.2,1.7-0.1,3.3-0.4,4.8c-0.1,0.4-0.1,0.7,0.2,1.1c0.8,0.7,3.8-0.4,4-1.5
		C103.4,84.6,103.2,83.7,103.6,82.7z"/>
	<path class="st0" d="M92.7,179.8c0.7,0,0.9,0.4,1.2,0.9c0.8,3.3,1.4,6.7,1.9,10.1c0.4,2.1,0.7,4.1,1.3,6.1c0.8,3.1,1.3,6.2,2,9.3
		c0.2,1.1,0.4,2.3,0.4,3.3c-0.2-0.9-0.9-1.7-0.8-2.9c0.1-0.9-0.2-2.1-0.6-2.9c-0.9-1.9-0.7-4.1-1.7-6c-1.1-2.3-1.3-4.8-1.7-7.2
		c-0.2-1.3-0.6-2.6-1.1-3.9c-0.2-0.7,0.4-1.3-0.2-2c-0.4-0.4-0.4-1.7-0.8-2.5C92.2,181.6,92.2,180.6,92.7,179.8L92.7,179.8z"/>
	<path class="st0" d="M146.8,98.4c0.1,1.1-0.4,1.9-0.9,2.6c-0.9,1.2-2.1,2.3-2.8,3.4c-1.5,2.3-3.5,4-6,5.3c-1.4,0.7-2.3,2-3.5,2.7
		c-0.9,0.4-2,0-2.8,0.6c-0.4,0.2-0.4-0.2-0.4-0.4c0-1.4,0-2.9,0.1-4.4c0-0.2,0.1-0.4,0.4-0.4c0.4,0,0.4,0.2,0.4,0.4
		c0,1.2,0,2.3,0,3.5c2.3-1.4,4.7-2.7,6.8-4.2c2.3-1.7,4.2-3.9,6.3-5.9c0.8-0.8,1.2-1.9,1.7-2.8C146.2,98.3,146.5,98.3,146.8,98.4
		L146.8,98.4z"/>
	<path class="st0" d="M83.5,69.1c0.9,0.1,1.9,0.4,2.7,0.8c1.3,0.6,2.5,0.6,3.8-0.2c1.3-0.8,2.7-0.4,4.4-0.6
		c-0.8,1.1-1.7,1.2-2.7,1.2c-1.4,0-2.1,1.1-1.7,2.3c0.2,0.7,0.4,1.3-0.4,2c-0.4,0.4-0.8,1.3,0,1.9c0.7,0.4,0.2,1.2,0.2,1.7
		c-0.2,4,0,8.1-0.6,12.1c-0.1,1.2-0.6,2.3-0.4,3.6c0,0.2,0,0.4-0.2,0.4c-0.4,0-0.4-0.2-0.4-0.6c-0.1-1.1,0.2-2,0.4-3.1
		c0.1-2.3,0.1-4.6,0.2-6.9c0-1.3,0.4-2.7,0.1-4c-0.4-1.1,0.4-2.3-0.7-3.3c0.8-1.4,0.2-2.9,0.7-4.4c0.2-0.7,0-0.9-0.7-1.2
		c-1.2-0.4-2.3-0.7-3.5-1.2C84.2,69.8,83.8,69.8,83.5,69.1z"/>
	<path class="st0" d="M42.9,55.9c0.1-0.1,0.1-0.1,0.2-0.2c1.7,1.1,3.9,1.2,5.9,1.7c3.2,1.1,6.3,1.9,9.9,2.9
		c-0.9,0.4-1.5,0.4-2.3,0.1c0.1,0.4,0.7,0.4,0.8,0.8l-0.1,0.1c-2-0.2-3.6-1.2-5.5-1.7c-1.4-0.4-2.8-0.9-4.2-1.4
		c-0.4-0.1-1.1-0.4-1.3-0.2c-1.4,0.7-2.6-0.6-3.9-0.4c-0.2,0-0.4,0-0.4-0.2s0.1-0.4,0.4-0.4C43.1,57,42.9,56.4,42.9,55.9z"/>
	<path class="st0" d="M57.3,61.4l0.1-0.1h0.1c2.1-0.9,4.1,0,6,0.7c3.2,1.2,6.2,2.5,9.4,3.5c1.2,0.4,2.3,0.9,3.4,1.1
		c-0.1,0.6-0.4,0.7-0.6,0.6c-1.4-0.7-3.1-0.8-4.6-1.4c-0.6-0.2-1.3-0.7-2-0.7c-0.6,0-1.2,0-1.7-0.4c-0.7-0.7-0.4,0.8-1.1,0.4
		c-0.7-0.2,0.1-1.4-0.7-1.2c-1.4,0.6-2-0.8-2.9-1.1c-0.4-0.1-0.6-0.4-0.8-0.4c-0.4-0.2-0.6,0.1-1.2,0.2c-0.6,0.2-1.4,0-2-0.4
		c-0.4-0.2-0.6-0.4-1.2-0.2C56.9,62.4,57.5,61.7,57.3,61.4z"/>
	<path class="st0" d="M107.4,240.1c-0.4,0-0.4-0.1-0.6-0.4c-0.4-3.6-1.7-7.2-2.1-10.9c-0.1-1.1-0.8-2.1-1.2-3.1
		c-0.1-0.4-0.4-0.9,0.2-1.1c0.4-0.1,0.4,0.4,0.6,0.8c1.1,2.6,1.5,5.3,2,8c0.4,1.7,0.4,3.6,1.3,5.3
		C107.9,239.2,107.7,239.7,107.4,240.1L107.4,240.1z"/>
	<path class="st0" d="M40.8,84.8c-0.4-0.6-0.2-1.3-0.1-1.7c0.2-1.3-0.6-2.3-0.7-3.4c0-1.3,0.4-2.5-0.1-3.8c-0.1-0.2,0.2-0.4,0.4-0.4
		c0.4,0.4,1.2,0.4,0.9,1.2c-0.4,1.2,0,2.3,0,3.4c0,1.2,0,2.3,0,3.5C41.1,84,41.3,84.5,40.8,84.8z"/>
	<path class="st0" d="M108.6,52.4c-3.1-0.4-5.3-2.7-7.5-7.6C103.7,47.5,105.3,50.8,108.6,52.4z"/>
	<path class="st0" d="M101.1,56.1c3.3,0.6,6.3,1.4,9.5,2.3c0.6,0.2,0.4,0.6,0.4,1.1c-0.1,0.5-0.4,0.2-0.8,0.2
		c-1.2,0.1-1.5-1.2-2.5-1.4c-1.7-0.4-3.4-0.8-5.1-1.3C102.1,56.9,101.5,56.6,101.1,56.1z"/>
	<path class="st0" d="M105.8,199.7c0.1,0,0.1,0,0.2,0c0.9,1.1,0.7,2.5,1.2,3.8c0.4,0.8-0.2,1.7,0.2,2.5c0.1,0.2-0.1,0.4-0.4,0.4
		c-0.4,0.1-0.7-0.1-0.8-0.6c-0.1-1.2-0.6-2.3-0.6-3.5C105.8,201.5,105,200.6,105.8,199.7z"/>
	<path class="st0" d="M125.7,180.1c-1.3-0.1-1.4-1.4-2-2.3c-1.4-2.1-2.6-4.2-4-6.3c-0.1-0.2-0.4-0.4-0.2-0.7c0.4-0.2,0.6,0,0.8,0.2
		c1.1,1.1,1.3,2.5,2.1,3.5C123.8,176.3,124.9,178.2,125.7,180.1L125.7,180.1z"/>
	<path class="st0" d="M110.3,250.2c0.1,0.4-0.1,0.4-0.4,0.6c-0.4,0-0.2-0.2-0.4-0.4c-0.4-2.5-1.1-4.8-1.9-7.2
		c-0.1-0.2-0.1-0.4,0.2-0.6c0.4-0.1,0.6-0.1,0.7,0.2C109.1,245.2,109.7,247.7,110.3,250.2z"/>
	<path class="st0" d="M41.3,45.4c0.1,1.1,0,2-0.4,2.9c-0.1,0.2-0.1,0.7-0.4,0.6C40,48.7,40,48.4,40,48.1c0.1-1.2,0.4-2.3,0.4-3.6
		c0-0.4,0.1-0.9,0.6-0.8c0.6,0.1,0.1,0.6,0.2,0.9C41.3,44.9,41.3,45.1,41.3,45.4z"/>
	<path class="st0" d="M42.4,49.8c-0.4-1.5,0.8-4,1.7-4.2c0.2,0,0.8-0.1,0.8,0.2c0,0.4-0.2,1.1-0.6,1.2
		C43.2,47.3,42.5,48.1,42.4,49.8z"/>
	<path class="st0" d="M92.8,179.8c-0.9-0.7-1.2-2.9-0.6-4l0,0C93,176.7,93.3,178.6,92.8,179.8C92.7,179.8,92.8,179.8,92.8,179.8z"/>
	<path class="st0" d="M125.7,180.1c1.2,0.9,2.1,2,2.7,3.5C127.1,183.3,125.5,181.1,125.7,180.1C125.7,180.1,125.7,180.1,125.7,180.1
		z"/>
	<path class="st0" d="M79.8,49.4c-0.4,0.4,0,0.7,0.1,1.1c-0.8,0-1.7-0.4-2.3,0.2c-0.1,0.1-0.4,0.1-0.6-0.2c-0.1-0.4-0.2-0.6-0.2-0.9
		c0-0.2,0.4-0.2,0.6-0.1C78.3,50,79,49,79.8,49.4L79.8,49.4z"/>
	<path class="st0" d="M101,216.8c0.9,1.2,0.8,2.7,1.5,4c0.1,0.2,0,0.4-0.1,0.4c-0.4,0.1-0.4-0.2-0.6-0.4
		C101.6,219.5,101,218.2,101,216.8z"/>
	<path class="st0" d="M40.1,69.6c0.9,0.6,1.2,2,0.7,2.6c-0.1,0.1-0.4,0.2-0.4,0.2c-0.2,0-0.4-0.2-0.4-0.4
		C40.1,71.2,40.4,70.6,40.1,69.6z"/>
	<path class="st0" d="M40.9,73.8c0,0.4,0.8,1.1-0.2,1.3c-0.6,0.1-0.7-0.6-0.4-0.8c0.4-0.4-0.4-1.4,0.6-1.4
		C41.3,72.8,41.3,73.3,40.9,73.8z"/>
	<path class="st0" d="M90.2,53c1.1,0.2,2.3,0.4,3.3,0.8c0.2,0.1,0.4,0.4,0.4,0.6c-0.1,0.2-0.4,0-0.6,0c-1.1-0.4-2.1-0.7-3.2-1.1
		C90.1,53.2,90.2,53.1,90.2,53z"/>
	<path class="st0" d="M40.3,67.9c0-0.4,0-0.6-0.1-0.8c0-0.2,0-0.4,0.4-0.4c0.4,0,0.4,0.1,0.6,0.4c0.1,0.7-0.4,1.4-0.1,2.1l-0.2,0.2
		c-0.1,0-0.4-0.1-0.4-0.4C40.1,68.6,40.7,68.3,40.3,67.9z"/>
	<path class="st0" d="M100.2,211.9c0,0.1,0.1,0.1,0.2,0.2c0.2,0.8,0.4,1.7,0.6,2.6c0,0.1,0.1,0.4-0.1,0.4c-0.1,0-0.4-0.1-0.4-0.2
		c-0.2-0.8-0.4-1.7-0.6-2.6C99.7,212.1,100,212,100.2,211.9z"/>
	<path class="st0" d="M118.5,251.2c0,0.4-0.1,0.7-0.4,0.6c-0.7-0.4-0.6-1.2-0.8-1.7c-0.1-0.2,0.1-0.6,0.4-0.4
		C118.4,249.8,118.1,250.6,118.5,251.2z"/>
	<path class="st0" d="M107.4,240.1c0.1,0,0.2,0,0.2,0.1c0.2,0.4,0.8,0.9,0.6,1.5c-0.1,0.2-0.4,0.4-0.6,0.1
		C107,241.5,107.1,240.9,107.4,240.1C107.4,240.1,107.4,240.1,107.4,240.1z"/>
	<path class="st0" d="M130.5,104.5c0.1-0.4-0.2-1.1,0.4-1.2c0.4-0.1,0.4,0.4,0.2,0.6c-0.1,0.6,0.1,1.5-0.4,1.7
		C130.1,105.7,130.7,104.9,130.5,104.5z"/>
	<path class="st0" d="M186.8,22.3c0.8,0.4,0.9,1.4,1.4,2.1c0.1,0.2,0.1,0.4-0.2,0.6c-0.1,0-0.4,0-0.4-0.1
		C187.9,23.9,186.1,23.4,186.8,22.3C186.8,22.2,186.8,22.3,186.8,22.3z"/>
	<path class="st0" d="M126.7,47.5c0.9-0.2,1.9,0,2.7,0.2c0.6,0.1,1.3,0.4,1.4,1.2c0.1,0.7-0.4,1.3-0.8,1.5c-1.7,0.8-3.5,1.7-5.7,1.1
		c-0.7-0.2-1.5-0.4-1.5-1.3c0-0.9,0.2-1.9,1.3-2.3C125.1,47.5,125.9,47.3,126.7,47.5z M124.6,50c1.2,0.6,2.1,0.4,3.1,0.1
		c0.4-0.1,0.9-0.1,0.7-0.6c-0.1-0.4-0.6-0.8-1.1-0.7C126.5,49,125.5,49,124.6,50z"/>
	<path class="st0" d="M106.5,103c-0.8,1.2-1.3,2.9-2.8,4c-0.4,0.4-0.8,0.2-1.3-0.1c-2.5-1.5-2.8-5.3-0.4-7c0.6-0.4,1.3-0.8,2.1-0.4
		C105.3,100.2,106.4,101.1,106.5,103z M102.3,103.6c0,0.6-0.1,1.2,0.4,1.4c0.6,0.4,0.7-0.4,1.1-0.7c0.8-0.4,0.8-0.9,0.4-1.7
		c-0.2-0.4-0.7-0.9-1.3-0.7C102.3,102.3,102.4,103,102.3,103.6z"/>
</g>
<g>
	<path class="st0" d="M168.5,154.6c1.7,1,3,2.3,4.2,3.6c3.3,3.5,6.4,7.2,9.7,10.5c4.9,4.9,10,9.4,16.1,12.7
		c5.2,2.8,10.7,5.2,16.6,5.9c3.6,0.4,7.3-0.1,10.8-0.6c2.5-0.3,4.9-0.9,7.3-1.6c0.7-0.2,1.4-0.1,1.7,0.6c0.3,0.6-0.1,1.4-0.8,1.8
		c-1.6,0.9-3.4,1.4-5.2,1.8c-2.7,0.6-5.4,0.9-8.1,1.3c-5.7,0.8-11-0.3-16.3-2.3c-6.8-2.5-13-6.2-18.5-11
		c-5.3-4.6-10.3-9.5-14.3-15.4c-1.3-2-2.5-4.1-3.2-6.3c-0.1-0.2-0.1-0.5-0.2-0.7C168.5,155,168.5,154.9,168.5,154.6z"/>
	<path class="st0" d="M180.7,157.9c-2.2-0.1-4.4-0.8-6.3-2c-1.7-1.1-3.5-2.2-5.2-3.3c-0.9-0.6-0.9-0.6-1.2,0.5
		c-0.8,4.2-2.4,8.1-4.7,11.7c-0.5,0.8-1.2,1.5-2,1.9c-0.8,0.4-1,0.3-1.1-0.6c-0.1-0.9,0.1-1.7,0.4-2.5c0.7-1.6,1.4-3.2,2.1-4.8
		c1.1-2.4,1.9-4.9,2.4-7.6c0.1-0.5,0.2-1,0.4-1.5c0.5-1.3,1.5-1.6,2.8-1c2.8,1.5,5.2,3.3,7.8,4.9c1.4,0.9,2.8,1.6,4.4,2.1
		c0.2,0.1,0.5,0.1,0.7,0.3c0.4,0.2,0.9,0.4,0.8,1.1C181.8,157.9,181.2,157.8,180.7,157.9z"/>
</g>
</svg>
