<?xml version="1.0" encoding="utf-8"?>
<!-- Generator: Adobe Illustrator 22.0.1, SVG Export Plug-In . SVG Version: 6.00 Build 0)  -->
<svg version="1.1" id="Layer_1" xmlns="http://www.w3.org/2000/svg" xmlns:xlink="http://www.w3.org/1999/xlink" x="0px" y="0px"
	 viewBox="0 0 145.2 150.2" style="enable-background:new 0 0 145.2 150.2;" xml:space="preserve">
<style type="text/css">
	.st0{fill:#4E5D44;}
	.st1{fill:#E4D3B6;}
</style>
<path class="st0" d="M128.1,105.6l-1.5-0.9c0.2-2.5-1.1-5.8-2-8.4c-0.4-1-0.9-2.2-0.9-3.3c0.1-1.1,0.5-1,0.9-1.7
	c1-1.7,0.6-3.6-0.4-5.2c-1-1.7-2.6-3-3.5-4.8c-1-1.9-1.1-4.2-0.4-6.2c0.3-0.7,0.6-1.5,0.5-2.3c-0.2-1.1-1.5-1.8-1.9-2.8
	c-0.4-1,0-2.2,0.2-3.1c0.2-0.6,0.9-2,0.6-2.6c-0.7-1.6-2.7,0.6-3.1-1.4c-0.2-1.2,1.4-2.8,1-4c-0.1-0.2-0.2-0.3-0.4-0.4
	c-1.1-0.7-2.6-0.1-3.5,0.8c-1.4,1.2-5.1,6.9-5,1.9c0-0.8,0.2-1.6,0.3-2.4c0.1-0.3,0.7-2.7,0.6-2.8c-0.8-0.5-2-0.2-2.5-1
	c-0.9-1.6,2.5-4.6,2.7-6.2c0-0.4-0.1-0.8-0.1-1.2c-0.2-1.3,0.3-2.7,1.1-3.7c-1.2-0.7-2.3-1.4-3.5-2.1c1.7-1.2,3.2-2.8,4.4-4.6
	c-5-0.7-2.7-7.3-4.5-7.6c-2.5-0.5-5.5-1.2-6.3-3.6c-0.6-1.8,0.4-3.7,0.9-5.5c1.3-4-1.4-10.4-5.1-12.3c-6.6-3.4-11.7,7.9-16,10.9
	c-0.5,0.4-1,0.7-1.6,0.9c-0.9,0.2-1.8,0.1-2.7-0.1c-1.5-0.3-3-0.5-4.3-1.3c-1.3-0.7-2.4-2-2.4-3.5c0-1.3,0.6-2.7-0.3-3.6
	c-0.6-0.7-1.7-0.6-2.6-0.5c-4.3,0.5-6.3,0.5-9.4,3.4c-6.3,5.7-10.7,9.9-14.4,13.2c-4.6,4.3-9.6,9.4-13.5,14.6
	c-8.2,10.5-13.9,21.5-17,33.4c-1.6,6.6-1.9,19,2.6,32c3.5,10.7,7.6,21.5,18.3,27.1c5.8,3,12.5,3.4,18.9,4.3
	c5.2,0.7,10.4,1.8,15.5,3.2c4.7,1.3,8.8,4.3,13.4,5.4c5.3,1.3,8.6-2.7,13.3-2.8c1.8,0,1,1.9,3.4,1c2-0.7,3.6-4.6,4.1-6.4
	c1-3.6,0.8-7.4,4.1-9.9c3.1-2.3,7.2-3,10.3-5.3C122.8,119.4,127.1,112.5,128.1,105.6z"/>
<g>
	<path class="st1" d="M77.4,86.5c0,10.9,0,21.9,0,32.8c0,1.4,0,2.7-0.1,4.1c-0.3,2.3-1.9,3.9-3.9,3.8c-2.1-0.1-3.6-1.8-3.6-4.3
		c0-10.9,0-21.8,0-32.7c0-1.4,0-2.8-0.3-4.3c-0.5,1.1-0.9,2.2-1.4,3.3c-4.3,10.7-8.6,21.4-12.9,32.1c-0.5,1.3-1.1,2.6-2.4,3.5
		c-1.6,1.2-3.5,1.4-4.7,0.4c-1.4-1.2-1.2-2.7-0.6-4.3c2.5-6.3,5.1-12.6,7.6-18.9c3.9-9.7,7.8-19.5,11.8-29.2
		c0.6-1.4,0.5-2.1-1.2-1.9c-1.4,0.2-2.1-0.4-1.9-1.9c0.2-1.8-0.7-2.2-2.3-2.1c-1,0.1-2.1,0-3.1-0.2c-3.9-0.6-6.3-3.3-6.3-7.2
		c0-10.8,0-21.5,0-32.3c0-1.6,0.6-2,2.1-2c3.8,0,7.6,0,11.5,0c1.2,0,1.9,0.4,2.5,1.4c1.1,1.8,2.3,3.5,3.3,5.3
		c0.6,1.1,1.5,1.5,2.7,1.5c4.1-0.1,8.3,0,12.4,0c4.8,0,7.9,2.9,8,7.7c0.1,6.1,0.1,12.2,0,18.3c-0.1,4.6-3,7.4-7.7,7.6
		c-0.7,0-1.4,0.1-2.1,0c-1.3-0.1-1.9,0.5-1.8,1.8c0.1,1.5-0.4,2.4-2.1,2.2c-1.7-0.2-1.6,0.6-1.1,1.8c4.5,11,8.9,22,13.3,33
		c2,4.9,4,9.8,6,14.8c1,2.5,0.7,3.9-0.8,4.8c-1.5,0.9-3.7,0.4-5.2-1.3c-0.7-0.7-1-1.6-1.4-2.5c-4.5-11.1-9-22.2-13.5-33.3
		c-0.2-0.6-0.5-1.2-0.7-1.8C77.6,86.5,77.5,86.5,77.4,86.5z M55.3,44.9c0,4.7,0,9.5,0,14.2c0,3.3,1.5,4.8,4.7,4.8c9,0,18,0,27,0
		c3.2,0,4.7-1.4,4.7-4.6c0-6,0-11.9,0-17.9c0-3.2-1.5-4.8-4.7-4.9c-1.5-0.1-3.1,0-4.7,0c-5.6,0-11.1,0-16.7,0
		c-1.1,0-1.9-0.1-1.9-1.5c0-1.5,1-1.5,2-1.5c0.8,0,1.6,0,2.3,0c0.4,0,0.7-0.1,0.7-0.7c-0.2-1.8-3-4.2-4.9-4.2c-2.1,0-4.3,0.1-6.4,0
		c-1.6-0.1-2.2,0.5-2.1,2.1C55.3,35.4,55.3,40.1,55.3,44.9z M74.2,97.5c0-8,0-16.1,0-24.1c0-0.8,0.5-2.2-0.8-2.2
		c-1,0-0.6,1.4-0.6,2.2c0,16,0,32,0,48c0,0.5,0,0.9,0,1.4c0,0.5,0.1,1.1,0.8,1.1c0.6,0,0.5-0.6,0.6-1.1c0-0.5,0-1,0-1.6
		C74.2,113.3,74.2,105.4,74.2,97.5z M69.7,74.3c-6.6,16.3-13,32.2-19.5,48.4c1.7-0.5,1.9-1.6,2.2-2.5c5.6-13.8,11.1-27.6,16.7-41.4
		C69.7,77.5,69.9,76.2,69.7,74.3z M96.8,122.6c-6.4-15.9-12.7-31.5-19.1-47.5c-0.4,1.5-0.3,2.5,0.1,3.5
		c5.7,14.1,11.4,28.2,17.1,42.3C95.1,121.6,95.4,122.4,96.8,122.6z M73.3,68.1C73.3,68.1,73.3,68.1,73.3,68.1c1.9,0,3.7,0,5.6,0
		c0.4,0,0.9,0,0.8-0.6c0-0.4-0.5-0.4-0.8-0.4c-3.6,0-7.2,0-10.8,0c-0.4,0-0.9,0-0.8,0.6c0.1,0.5,0.6,0.4,1,0.4
		C69.9,68.1,71.6,68.1,73.3,68.1z"/>
	<path class="st1" d="M83.4,50.6c0,5.6-4.2,9.9-9.7,9.9c-5.6,0-10-4.2-10.1-9.6c-0.1-5.6,4.3-10,10.1-10.1
		C79,40.8,83.3,45.1,83.4,50.6z M80.3,50.9c0.1-3.9-2.9-7-6.7-7.1c-3.8-0.1-7,2.9-7.1,6.8c-0.1,3.7,3,6.9,6.6,7
		C77.2,57.6,80.3,54.7,80.3,50.9z"/>
	<path class="st1" d="M77.8,50.8c0,2.3-2.1,4.3-4.5,4.2c-2.2-0.1-4.1-2.2-4.1-4.4c0-2.3,2-4.2,4.3-4.2
		C75.8,46.4,77.8,48.5,77.8,50.8z"/>
</g>
</svg>
