<?xml version="1.0" encoding="utf-8"?>
<!-- Generator: Adobe Illustrator 22.0.1, SVG Export Plug-In . SVG Version: 6.00 Build 0)  -->
<svg version="1.1" id="Layer_1" xmlns="http://www.w3.org/2000/svg" xmlns:xlink="http://www.w3.org/1999/xlink" x="0px" y="0px"
	 viewBox="0 0 126.5 131.7" style="enable-background:new 0 0 126.5 131.7;" xml:space="preserve">
<style type="text/css">
	.st0{clip-path:url(#SVGID_2_);fill:#4E5D44;}
</style>
<g>
	<defs>
		<rect id="SVGID_1_" x="14.7" y="16.9" width="97.1" height="98"/>
	</defs>
	<clipPath id="SVGID_2_">
		<use xlink:href="#SVGID_1_"  style="overflow:visible;"/>
	</clipPath>
	<path class="st0" d="M52.8,76c0,5.9,0,11.8,0,17.7c0,1.7,0.4,3.2,2,4c2.7,1.4,5.5-0.5,5.5-3.8c0-10.5,0.2-20.9-0.1-31.4
		c-0.1-4.2,0.9-7.6,3.4-10.8c0.8-1,1.9-2.1,1.9-3.4c0.1-4.4,0.1-8.9,0.1-13.3c0-0.6-0.3-1.1-0.9-1.1c-0.6,0-1,0.4-1.2,0.9
		c-0.1,0.5-0.2,1.1-0.2,1.6c0,2.6,0,5.1,0,7.7c-0.1,2.2-1.7,3.4-3.7,2.8c-1.5-0.5-1.9-1.7-1.9-3.2c0-2.8,0-5.6,0-8.4
		c0-0.8-0.4-1.5-1.3-1.4c-0.9,0.1-0.9,0.8-0.9,1.5c0,2.2,0.1,4.5,0.1,6.7c0,1-0.1,1.9-0.4,2.9c-0.5,1.3-1.3,2-2.7,2
		c-1.4,0-2.2-0.8-2.7-2.1c-0.3-0.8-0.3-1.5-0.3-2.3c0-2.3,0-4.6,0-6.9c0-0.8,0.1-1.8-1.1-1.7c-1.1,0-1,1-1,1.8c0,1.8,0.2,3.5,0,5.3
		c-0.6,5.3,0.6,10,4.1,14c1.1,1.2,1.3,2.6,1.3,4.2C52.8,64.8,52.8,70.4,52.8,76 M71.6,65.3c0,3.1,0,6.2,0,9.3c0,6.4,0,12.9,0,19.3
		c0,2.2,0.9,3.5,2.7,4c2.6,0.7,4.7-1,4.7-4c0-6.8,0-13.5,0-20.3c0-2.5,0.1-2.6,2.6-2.7c0.3,0,0.6,0,0.9,0c1.2,0,1.8-0.6,1.9-1.9
		c0.2-6.4-0.4-12.6-2.2-18.8c-1.6-5.5-4.1-10.5-8.7-14.2c-0.5-0.4-1-1.1-1.7-0.8c-0.6,0.3-0.3,1.1-0.3,1.7
		C71.6,46.5,71.6,55.9,71.6,65.3 M63.3,16.9c15.2,0,30.4,0,45.6,0c3,0,3,0,3,2.9c0,30.7,0,61.5,0,92.2c0,2.9,0,2.9-3,2.9
		c-30.4,0-60.8,0-91.1,0c-3,0-3,0-3-3.1c0-30.6,0-61.2,0-91.8c0-3.1,0-3.1,3.1-3.1C33,16.9,48.1,16.9,63.3,16.9"/>
</g>
</svg>
