<?xml version="1.0" encoding="utf-8"?>
<!-- Generator: Adobe Illustrator 22.0.1, SVG Export Plug-In . SVG Version: 6.00 Build 0)  -->
<svg version="1.1" id="Layer_1" xmlns="http://www.w3.org/2000/svg" xmlns:xlink="http://www.w3.org/1999/xlink" x="0px" y="0px"
	 viewBox="0 0 101 83" style="enable-background:new 0 0 101 83;" xml:space="preserve">
<style type="text/css">
	.st0{fill:#4E5D44;}
</style>
<g>
	<path class="st0" d="M6.5,28.2c3.4-4.4,6.7-8.7,9.9-13c1.7-2.3,3.4-4.5,4.8-7.1c0.7-1.2,2-2.2,3.3-3c0.7-0.4,1.8-0.7,2.7,0.1
		c0.3,0.3,0.8,0.5,1.1,0.9c3.9,4,8.6,7.1,13,10.5c3.5,2.8,7.1,5.6,10.6,8.5c4.2,3.5,8.2,7.2,12.5,10.7c2.6,2.1,5.4,4,8.1,6
		c2.9-2.7,3.7-7.1,8.1-8.5c0.7,1.7,1.5,3.5,2.1,5.3c1.7,5.1,3.3,10.3,4.9,15.4c1.9,6.3,4.1,12.5,5,19.1c0,0.1,0,0.2,0,0.2
		c0,1,1.3,1.9,0.4,2.9c-0.7,0.7-1.8,0.3-2.8,0.4c-2.7,0.2-5.4,0.2-8.1,0c-1.6-0.2-3.2,0.2-4.8,0.3c-4.1,0.3-8.2,0.9-12.3,1
		c-4.1,0.1-8.2,0.6-12.3,0.9c-1.3,0.1-2.7-0.2-3.9,0.6c-0.6,0.4-1.2-0.1-1.1-0.9c0.1-1,0.4-1.8,0.9-2.6c1.4-2,2.8-4.1,4.2-6.1
		c0.5-0.8,0.6-1.2-0.3-1.9c-2.2-1.9-4.4-3.7-6.6-5.5c-3.7-3-7.3-6.1-10.9-9.2c-4.5-3.8-8.8-7.8-13.4-11.6c-3.8-3.1-7.5-6.5-11.3-9.6
		C9,30.7,7.7,29.3,6.5,28.2z M9.9,28.7c1.3,0.7,2.1,2.2,3.4,3.3c4,3.5,7.9,7.1,12,10.5c4,3.3,8,6.4,12.1,9.6
		c1.1,0.8,2.2,1.6,3.2,2.5c3.6,3.2,7.3,6.4,11.4,9c1.1,0.7,2.2,1.6,3.3,2.4c0.9,0.7,1.2,1.5,0.5,2.5c-0.6,0.9-1.2,1.9-1.8,2.9
		c-1.1,1.9-2.3,3.7-3.5,5.7c4.9,0.3,9.3-0.8,13.9-0.9c4.6-0.2,9.2-0.5,13.8-0.8c4.5-0.3,9-0.2,13.4-0.6c-0.3-5.5-10.7-37-11.7-39.7
		c-0.8,0.5-1.3,1.2-1.7,2c-1.2,2.3-2.7,4.4-4.4,6.4c-0.6,0.7-0.9,0.6-1.5,0.2c-2.5-1.6-4.8-3.6-7.2-5.3c-2-1.5-4.1-2.8-5.9-4.5
		c-3.6-3.4-7.3-6.8-11.2-9.9c-2.9-2.3-5.8-4.7-8.7-7.1c-0.8-0.7-1.6-1.3-2.4-1.9c-2.2-1.7-4.6-3.1-6.6-5.1c-1.1-1.2-2.5-2.1-3.9-2.9
		C20.9,14.3,15.1,21.1,9.9,28.7z"/>
</g>
</svg>
