<?xml version="1.0" encoding="utf-8"?>
<!-- Generator: Adobe Illustrator 22.0.1, SVG Export Plug-In . SVG Version: 6.00 Build 0)  -->
<svg version="1.1" id="Layer_1" xmlns="http://www.w3.org/2000/svg" xmlns:xlink="http://www.w3.org/1999/xlink" x="0px" y="0px"
	 viewBox="0 0 126.5 131.7" style="enable-background:new 0 0 126.5 131.7;" xml:space="preserve">
<style type="text/css">
	.st0{fill:#4E5D44;}
</style>
<g>
	<path class="st0" d="M86.4,113.8c6,0,11.3,0,16.7,0c1.1,0,1.7-0.5,2.3-1.2c2.3-2.9,4.6-5.8,6.9-8.7c0.5-0.6,0.9-1.1,1.5-1.6
		c1.1-1,2.3-1.1,3.4-0.2c1.2,1,1.3,2.3,0.4,3.5c-1,1.5-2.2,2.8-3.3,4.2c-2.1,2.6-4.1,5.1-6.2,7.8c-0.8,1-1.7,1.5-3,1.5
		c-29,0-58,0-87.1,0c-1.2,0-2.1-0.3-2.9-1.3c-3-3.9-6.1-7.6-9.1-11.5c-1.3-1.7-1.3-3.2-0.1-4.2c1.3-1.1,2.8-0.7,4.2,1
		c2.5,3.1,5,6.2,7.4,9.3c0.6,0.7,1.2,1.4,2.2,1.4c13.2,0,26.4,0,39.7,0c-4.4-4.1-4.9-8.9-1.4-12.3c3-3,8.1-2.7,11,0.6
		c2.9,3.4,2.1,8.2-2.4,11.7c2.3,0,4.3,0,6.3,0c2,0,4,0,6.4,0c-2.2-1.6-3.6-3.4-3.9-5.8c-0.4-2.5,0.5-4.6,2.1-6.4
		c2.6-2.8,7.2-2.9,10.3-0.4c2,1.7,2.8,4,2.6,6.5C90.2,110.3,88.8,112.1,86.4,113.8z M63.3,104.8c-1.3,0.1-2,0.8-2,2.1
		c0,1.4,0.8,2.1,2.1,2c1.3,0,2.1-0.8,2-2.1C65.5,105.5,64.7,104.8,63.3,104.8z M83.2,104.8c-1.3,0-2.2,0.6-2.4,1.9
		c-0.1,1.3,0.6,2.2,1.9,2.3c1.4,0.1,2.4-0.6,2.4-2C85.3,105.8,84.5,105,83.2,104.8z"/>
	<path class="st0" d="M118.1,25.6c0,1.3-0.9,2-1.7,2.8c-9,8.7-17.9,17.4-26.9,26.1C73.7,69.9,57.9,85.3,42,100.7
		c-0.4,0.4-0.8,0.7-1.2,1.1c-1.3,1-2.7,0.9-3.7-0.3c-1-1.2-0.9-2.5,0.2-3.6c2.4-2.5,4.9-4.9,7.3-7.3c13.8-13.5,27.7-26.9,41.6-40.3
		c8.8-8.6,17.6-17.1,26.5-25.7c0.6-0.6,1.1-1.1,1.9-1.4C116.3,22.5,118.1,23.7,118.1,25.6z"/>
	<path class="st0" d="M21.9,85c-2.3-0.1-3.4-2.4-2.2-4.3c1.5-2.4,3.2-4.7,4.9-7C39.3,53.2,54,32.6,68.7,12c1.7-2.4,3.4-4.9,5.2-7.2
		c1.2-1.6,3.4-1.7,4.4-0.4c1,1.3,0.5,2.5-0.3,3.6c-3.1,4.3-6.1,8.6-9.2,12.9C54.3,41.4,39.7,61.9,25.1,82.3
		C24.2,83.5,23.5,84.9,21.9,85z"/>
	<path class="st0" d="M41.5,87.3c0,4.1-3.5,7.6-7.6,7.6c-4.1,0-7.4-3.3-7.4-7.5c0-4.1,3.2-7.5,7.4-7.5C38,79.8,41.5,83.2,41.5,87.3z
		 M31.9,87.3c0.1,1.4,0.7,2.2,2.1,2.2c1.3-0.1,2.1-0.8,2.1-2.1c0-1.5-0.9-2.2-2.2-2.2C32.5,85.1,32,86.1,31.9,87.3z"/>
</g>
</svg>
