<?xml version="1.0" encoding="utf-8"?>
<!-- Generator: Adobe Illustrator 22.0.1, SVG Export Plug-In . SVG Version: 6.00 Build 0)  -->
<svg version="1.1" id="Layer_1" xmlns="http://www.w3.org/2000/svg" xmlns:xlink="http://www.w3.org/1999/xlink" x="0px" y="0px"
	 viewBox="0 0 242 239" style="enable-background:new 0 0 242 239;" xml:space="preserve">
<style type="text/css">
	.st0{fill:#4E5D44;}
</style>
<g>
	<path class="st0" d="M188.5,73.1c4.6,1,8.8,2.7,12.2,6.1c1.7,1.8,3.6,3.4,5,5.5c1.8,2.8,2.3,5.8,1.6,8.9c-0.4,2-0.4,4-0.3,5.9
		c0.1,2.2,0,4.2-0.6,6.4c-1,3.9-1.7,7.8-2.2,11.8c-0.3,3.1-1.4,6.1-2,9.1c-0.4,2-0.9,4-1.5,6c-0.7,2.3-1.6,4.6-2.5,6.9
		c-0.6,1.7-0.6,1.6,1.2,1.9c2.8,0.4,5.6,1.4,8.1,2.6c2.2,1.1,3.6,3.3,5,5.3c0.8,1.2,1.7,1.9,3,2c2.7,0.3,5.2,1.4,7.7,2.4
		c1.2,0.5,2.2,1.3,3.2,2.1c2.5,2,5.5,3.4,7.3,6.4c1.4,2.4,2,5,2.6,7.6c0.5,1.9,0.5,3.7-1.3,5.2c-1.1,0.9-1.1,2.1-0.5,3.4
		c3.4,8.7,1.1,16.3-4.9,23c-1.6,1.8-3.6,3.4-5.4,5.1c-3.4,3.1-7.6,4.9-11.7,6.9c-3.5,1.6-6.9,3.3-10.4,4.8
		c-3.3,1.4-6.8,2.1-10.2,3.2c-3,0.9-6.2,1.2-9.3,2.2c-1.8,0.6-3.7,0.8-5.6,1c-2.8,0.4-5.5,1.1-8.2,1.8c-7,1.6-14.1,2.8-21.3,3.3
		c-7.6,0.5-15.2,0.7-22.7-0.1c-7.8-0.8-15.7-1.2-23.6-2.3c-5.7-0.8-11.3-1.8-16.9-3.2c-7.2-1.8-14.5-3.7-21.4-6.7
		c-2.8-1.2-5.6-2.7-8.3-4.1c-3.5-1.9-6-4.8-9.5-6.7c-1.5-0.8-2.4-2.5-3.7-3.7c-3.7-3.6-6.4-7.9-8.5-12.6c-1.2-2.7-1.8-5.6-0.4-8.6
		c0.2-0.4,0.3-0.9,0.4-1.4c0.5-1.8,1-3.5,2.8-4.5c-2.6-0.3-5.1,0.3-7.5,0.7c-4.1,0.8-8.2,0.8-12.4,0.4c-3.8-0.3-5.7-2.4-6.1-6.1
		c-0.2-2.1,0.7-3.7,2.5-4.8c3.2-2.1,6.7-2.9,10.4-3.3c2.1-0.2,4.3-0.5,6.4-0.6c3.1-0.2,6.2,0.1,9.3,0.6c0.9,0.2,1.7,0.3,2.6,0.5
		c0.7,0.1,1.2,0,1.8-0.4c6.5-4.9,13.8-8.1,21.3-11.1c0.1-0.1,0.3-0.1,0.4-0.2c0.6-0.3,1.4-0.2,1.5-1c0.1-1-0.7-1.4-1.5-1.7
		c-3.7-1.4-7-3.4-10.5-5.1c-2.7-1.3-4.9-3.2-7.3-5c-4.3-3.3-7.8-7.3-11-11.5c-3-4-5.3-8.2-6.2-13.3c-0.5-2.9-1-5.8-0.8-8.7
		c0.3-5.6,5.6-11.6,11.3-12c5.4-0.4,9.8,0.5,13.5,4.4c0.4,0.4,0.9,0.7,1.2,1.1c0.9,1,2,1.5,3.3,1.8c1.1,0.3,2.1,0.7,3,1.3
		c0.8,0.6,1.1,0,1.3-0.7c0.8,1.7,1.5,3.5,1.3,5.5c-0.1,1,0.2,2.1,0.5,3c1.8,5.3,3.6,10.6,5.4,15.9c2.8,8.4,7.4,15.9,12.4,23.1
		c3.4,4.9,7.3,9.4,11.7,13.6c2.6,2.5,5.7,4.5,8.6,6.8c2.4,1.9,5.1,3.5,7.8,5c3.5,2,6.7,4.7,11,5.4c2.1,0.4,4.2,1.4,6.5,1.7
		c0.4,0.1,0.9,0.2,0.8,0.7c0,0.4-0.5,0.6-0.9,0.7c-2.5,0.2-5.1-0.1-7.3-1c-2.2-0.9-4.2-2.3-6.7-2.2c-0.4,0-1-0.1-1.3-0.5
		c-0.9-1.3-2.4-1.6-3.5-2.4c-1-0.7-2.2-1.4-3.5-0.7c-2.1,1.1-4.2,2.4-5.8,4.2c-2.2,2.4-1.2,6.2,1.9,7.3c1,0.4,2,0.6,3,0.8
		c6.1,1.3,12.2,2,18.1-0.8c0.2-0.1,0.5-0.1,0.7-0.2c6.5-1.5,13.1-2.6,19.9-2.6c4,0,7.9,0.7,11.8,1.6c3.2,0.8,6.1,2.3,9.2,3.4
		c3,1.1,4.1,0.3,4.6-2.8c0.2-1.2-0.7-1.3-1.1-1.9c-1.6-2.4-3.2-4.5-6.6-4.9c-1.8-0.2-3.4-0.5-5,0.5c-1.7,1.1-3.5,1.6-5.5,0.6
		c1-0.9,1.9-1.7,3.3-1.5c1.1,0.1,2.3-0.4,3-1.2c0.8-0.9,1.6-1.2,2.6-1.5c0.5-0.2,1.1-0.3,1.5-0.7c3.9-3.2,8.7-5.4,12.1-9.3
		c0.2-0.2,0.5-0.3,0.8-0.5c1.9-1.2,3.6-2.6,5.2-4.2c3.1-2.9,5.9-6.1,8.6-9.3c2.9-3.4,5.3-7.2,8-10.8c0.2-0.3,0.4-0.5,0.5-0.8
		c0.7-3.1,2.2-5.8,3.3-8.7c3.4-9.4,4.6-19.2,6.1-29c0.3-2.1,0.4-4.3,0.2-6.5c-1.9,1.5-4,2-5.9,2.7c-1.4,0.5-2.9,0.7-4.3,1.2
		c-3.5,1.3-7.2,1.9-10.9,2.5c-2.9,0.5-5.8,1-8.7,1.3c-3.6,0.3-7.1,1-10.7,1.1c-5.2,0.1-10.5,0.1-15.7,0.4c-4.9,0.3-9.8,0.8-14.8,0.3
		c-4-0.4-8.1-0.4-12.2-0.6c-6.7-0.4-13.3-1-20-1.6c-1.8-0.1-3.6-0.6-5.3-0.8c-5.3-0.6-10.5-1.5-15.6-3.3c-1.6-0.6-3.2-1.1-4.8-1.4
		c-3.2-0.7-6-2.5-8.8-4.1c-2-1.1-3.2-3-5-4.6c-1.3,3.8-0.2,7.4-0.4,11c-1,0-1-0.8-1.1-1.5c-0.7-3.2-0.3-6.3-0.1-9.5
		c0-0.2,0.1-0.5,0.1-0.7c-0.3-4.4,2.1-7.6,4.7-10.6c2.2-2.5,4.5-4.9,7.3-6.5c2.5-1.4,5.3-2.2,7.9-3.4c5.5-2.4,11.5-3,17.3-4.3
		c7.7-1.8,15.5-1.7,23.3-2.1c3.6-0.2,7.2-0.2,10.7-0.2c0.9,0,1.8,0,2.6,0.1c4.9,0.6,9.8,0.6,14.7,1.4c2.3,0.4,4.7,0.3,7.1,0.8
		c3.1,0.7,6.2,1.2,9.4,1.6c5.2,0.7,10.1,2.2,15.1,3.8C184,70.8,186.5,71.5,188.5,73.1c-0.7,0.3-1.4,0.1-2.1-0.1
		c-2.1-0.7-4.3-1.3-6.4-1.9c-4.7-1.3-9.3-2.8-14.2-3.3c-1.8-0.2-3.6-0.7-5.4-0.9c-5.5-0.7-11.1-1.6-16.6-2.1
		c-3.9-0.4-7.8-0.6-11.7-0.6c-2.7,0-5.4-0.4-8.1-0.3c-4.2,0.1-8.4,0.4-12.6,0.8c-7.2,0.6-14.4,1.7-21.5,3.3c-4.9,1.1-9.6,3-14.2,5.1
		c-2.9,1.3-5.5,3.2-7.6,5.7l0,0c-1.6,1.3-2.5,3.1-3.3,4.9c-1.3,2.9-1.1,5.6,1.5,8c1.9,1.8,4,3.2,6.4,4.2c5,2.1,10.2,3.7,15.5,4.7
		c3.4,0.7,6.9,1.3,10.4,1.8c4.5,0.6,9,0.9,13.6,1.4c3.9,0.4,7.8,0.7,11.7,0.9c6.6,0.3,13.2,0.4,19.9,0.4c5.9,0,11.8-0.1,17.7-0.4
		c5.7-0.3,11.4-0.9,17.1-1.6c7.3-0.9,14.4-2.5,21.5-4.7c3.1-0.9,4.9-2.7,5.7-6c0.8-3.4,0-6-2.2-8.3c-3.6-3.9-7.7-7.1-12.8-9.1
		C189.9,74.4,188.8,74.2,188.5,73.1z M99.4,176.6c-0.7,0.2-1.3,0.5-1.5,1.5C98.6,177.7,99.2,177.3,99.4,176.6c0.8,0,1.5-0.3,1.8-1.4
		C100.6,175.7,100,176.2,99.4,176.6z M81.5,186.7c-0.8-0.4-1.5-1-2.5-0.9c-1.1-0.9-2.3-1.4-3.6-1.4c1.2,0.6,2.3,1.4,3.7,1.4
		C79.7,186.5,80.6,186.6,81.5,186.7c0.9,1,2,1.3,3.3,1.5C83.7,187.4,82.7,186.9,81.5,186.7z M139.2,210.2c0.7,0.7,0.7,0.7,1.6,0.1
		C140.2,210,139.7,210.2,139.2,210.2c0-0.4,0-0.9-0.4-0.9c-0.7,0-1.5-0.4-2.5,0.1C137.2,210.2,138.2,210.3,139.2,210.2z M145.9,212
		c0.6,1,1.7,0.7,2.6,0.8c0.6,0.1,0.6-0.6,0.5-1.1c-0.1-0.6-0.5-0.6-0.9-0.3C147.5,211.8,146.7,211.9,145.9,212
		c-0.9-1.7-1.3-1.7-3,0.1C144,212.1,144.9,212.4,145.9,212z M65.4,180.3c-0.4-0.4-0.8-0.6-1.3-0.5c0,0.3,0.2,0.4,0.4,0.4
		C64.8,180.3,65.1,180.4,65.4,180.3c2.1,1.7,4.6,2.1,7.1,2.9C70.4,181.7,67.8,181.3,65.4,180.3z M44.6,174.2c0.4,0.3,0.9,0.3,1.3,0
		C45.5,174.2,45,174.2,44.6,174.2c-3-1.3-6.2-0.7-9.5-0.6C38.4,174.5,41.5,173.8,44.6,174.2z M45.8,125.6L45.8,125.6
		c-0.6-0.9-1.1-1.8-2.3-0.7c-0.3,0.3-0.8,0.6-1.2,0c0.1-0.2,0.3-0.4,0.4-0.6c0.3-0.5,1.4-0.4,1.1-1.2c-0.4-0.8-1.1-0.1-1.7-0.2
		c-0.1,0-0.2-0.2-0.3-0.3c0.2-0.4,1.1-0.6,0.5-1.3c-0.8,0.2-1.4,1.1-2.4,0.6c0-0.7,0.7-0.5,1-0.9c0.5-0.5,0.8-1.1,0.4-1.7
		c-0.5-0.9-1.1-0.2-1.6,0c-0.3,0.1-0.6,0.2-0.8-0.2c0.3-0.3,0.6-0.7,0.9-1s0.5-0.7,0.1-1.1s-0.7-0.1-1,0.1c-0.4,0.2-1.3,0.5-1.2,0.2
		c0.1-1-1.2-1.1-1.1-2.1c0.8-0.1,1.3-0.5,1.7-1.5c-0.9,0.4-1.2,1.1-1.7,1.6c-0.7,0-1.4,0-0.9-1c0.2-0.4,0.9-0.5,0.6-1.1
		c-0.5-0.3-1.8-0.1-1.3-0.9c0.6-1.1-0.1-1.6-0.4-2.3c-0.3-0.8-0.9-1.8,0.6-2.3c0.2-0.1,0.4-0.5,0.5-0.8c0.2-1.5,1.3-2.2,2.4-3
		c2.2-1.6,5.1-1.8,7.4-0.4c2.8,1.6,5.3,3.5,7.3,6.1c1.3,1.7,2.9,3.2,4.4,4.7c0.5-0.4,0-0.9,0.2-1.1c0.7-0.6,1.6-1.5,2.3-1.6
		c0.8,0,0.6,1.4,0.8,2.2c0.1,0.6,0.2,1.3,0.3,1.9c0.1,1.3,0.7,2.2,1.9,2.7c-1.3-1.3-1-3-1.4-4.5c-0.2-0.7-0.4-1.7,0.6-1.7
		c0.9,0,0.5,1,0.5,1.6c0.2,1.9,0.5,3.6,2.1,4.8c1.1-1,1.2-1.9,0.2-2.9c-0.6-0.6-1-1.3-0.5-2.3c0.2-0.3,0-1-0.3-1.4
		c-1-1.8-1.2-3.8-1.2-5.8c0-0.9-0.4-1.6-1-2.3c-1-1.1-2.2-2-3.6-2.2c-2.2-0.3-3.5-1.7-5-3c-1-0.8-1.9-1.7-2.9-2.5
		c-1.6-1.3-3.5-1.8-5.5-1.8c-0.3,0.8,1.2,1.6-0.1,2.3c-0.4,0.2-0.2,0.5,0.2,0.7c0.5,0.2,1,0.5,1.1,1.4c-2.3-0.6-4.2,0.3-6.2,1.2
		c-0.3,0.1-0.6,0.3-0.9,0.3c-0.2,0-0.5-0.1-0.6-0.2c-0.2-0.3,0-0.6,0.3-0.8c1.2-0.9,2.7-1.3,4-2c-2.4,0.3-4.9,0.4-6.2,3
		c-0.1,0.2-0.3,0.3-0.5,0.5c-0.4,0.3-0.8,0.1-1-0.3c-0.2-0.2-0.4-0.6-0.1-0.9c0.3-0.4,0.6-0.8,1-1.1c0.8-0.6,1.1-1.5,1.9-2.7
		c-4.7,2.7-6.5,6.5-5.7,11.3c0.1,0.6,0.5,1.5-0.2,1.7c-1.3,0.4-0.9,1.3-0.8,2c0.1,1.6,0.6,3.1,1.1,4.6c3.4,9.6,10.1,16.7,17.6,23.1
		c0.5,0.4,1,0.9,2.1,1c-1.3-1.7-3.3-2.4-4.2-4.2c1-0.1,1.4,0.4,2,0.7c3.7,2.4,7.3,4.8,11,7.2c1.5,0.9,2.8,2.1,4.6,2.5
		c0.3,0.7-0.5,1.6,0.9,2.1c2.1,0.6,3.6,2.3,5.5,3.3c1.9,0.9,2.9,2.5,4.3,3.9c0.3,0.3,0.6,1,1.4,0.6c-1.1-2.2-2.3-4.1-4.6-5.2
		c-0.7-0.3-1.4-0.8-2-1.3c-1.7-1.4-3.6-2.3-5.5-3.2c0.4-0.5,0.9-0.7,1.5-0.3c4,2.5,8.6,4.1,11.3,8.5c1,1.7,2.4,3.1,4.6,2.9
		c0.3,0,0.6,0.1,0.7,0.5s0,0.6-0.3,0.8c-0.6,0.5-1.3,0.8-1.8,1.6c1.8,0.2,3-0.6,4-1.8c0.7-0.9,0.9-1.7,0.1-2.8
		c-1.5-2-2.4-4.4-4.1-6.4c-1.3-1.5-2.7-2.7-4.6-3.1c-2.3-0.4-4.5-0.8-6.7-1.5c-1.8-0.5-3.7-1.2-5.2-2.3c-3.1-2.1-6.1-4.4-8.9-6.8
		c-1.1-0.9-2-1.4-3.4-0.8c-0.1-0.8,1-1.1,0.5-1.8c-0.8-1.1-1.5,0.5-2.3,0.1c-0.4-0.7,0.8-1.3,0.3-1.8c-0.9-0.5-1.3,0.5-2.3,0
		c1.8-1.4,0.4-2.3-0.5-3.2l-0.1-0.1C46.8,126.9,46.3,126.3,45.8,125.6z M127.5,205.2c1.6,1.7,3.7,2.2,6,2.5c1.1,0.1,1.7,0,2.3-0.8
		c0.2,1,1,0.8,1.7,1c2.2,0.5,4.4,0.1,6.7,0c2.1-0.1,4.2-0.8,6.3-0.5c0.3,0,0.6-0.2,0.9-0.3c0.3-0.1,0.7-0.4,1.1,0.3
		c-0.9,1.1-2.6,1.1-3.7,2.6c2.2-0.3,4-1.7,5.8,0l0,0c0.2,1,0.8,1.2,1.8,1.1s2.1,0.1,3.1,0.2s1.9-0.8,3-0.6c-1.3,1.9-1.5,2-3.3,1.9
		c-2.7-0.2-5.4-0.3-8.1-0.1c-0.3,0-0.8-0.2-0.9,0.6c0.8,0.3,1.6,0.3,2.3-0.1c1-0.6,1.1,0.7,1.9,0.7c3.2-0.2,6.4-0.1,9.5-0.9
		c1.2-0.3,2.5-0.5,3.8-0.5c1.6,0,3.1-0.4,4.5-1.4c1.2-0.8,2-1.9,3.1-2.6c2-1.3,2.5-2.8,1.8-5c-0.4-1.4-1.2-2.6-2.3-3.6
		c-1-0.9-2.2-1.6-3.1-2.5c-1.6-1.5-3.4-2.6-5-3.9c-0.7-0.6-1.8-1-2.9-0.8c-2.4,0.3-4.8,0-7.1-0.7c-4.1-1.3-8.4-2-12.6-2.5
		c-0.6-0.1-1.3-0.4-1.8-0.3c-3.9,0.9-7.9,0.3-11.8,1.4c-2.8,0.8-5.4,1.9-8.1,2.9c-1.1,0.4-1.8,1.5-1.7,2.7c0.1,1.1,0.5,2.2,1.9,2.4
		c0.5,0,0.7,0.5,1,0.9c0.2,0.5,0.6,0.7,1.2,0.4c-1.2-2.6-1.2-2.6-0.9-3.6c2.2,3.8,5.8,4.3,9.7,4.1c-0.1,0.4-0.1,0.6-0.2,0.7
		c-0.6,0.6-0.6,1.1,0.1,1.5s0.8-0.3,1-0.6c0.2-0.2,0.2-0.6,0.3-0.9c0.3-0.5,0.8-0.6,1.2-0.4c0.4,0.2,0.3,0.7,0.1,1.1
		c-0.2,0.4-0.9,0.5-0.8,1.2c2.5,1.2,5.4,0.5,8.2,0.9c-1.3,1.3-3,0.9-4.4,1.7c0.8,0.5,1.5,0.3,2.3,0.2c0.4,0,0.8,0.2,0.9,0.6
		c0.1,0.5-0.4,0.7-0.7,0.8c-0.3,0.1-0.7,0.4-0.9,0.3c-1.6-0.6-3.2,0.2-4.7-0.3c-0.3-0.2-0.5-0.6-0.8-0.5
		C132.4,206.8,130,205.5,127.5,205.2c-0.4-1.2-1.2-1.9-2.4-2.5c-1.5-0.7-2.9-1.6-4.1-2.8c-3.4-3.5-2.5-7.7,2.3-9.2
		c3.5-1.1,7.1-1.6,10.7-2.5c4.3-1,8.5-0.9,12.8-0.1c3.9,0.7,7.7,1.8,11.5,3.2c0.6,0.2,1.2,0.3,1.9,0.4c0.4,0,0.7-0.4,0.8-0.8
		c0.1-0.4-0.2-0.6-0.5-0.7c-3.1-1-6.1-2.3-9.3-3c-10.6-2.3-20.9-0.6-31.1,2.5c-1.5,0.5-2.9,0.9-4.4,1c-6.7,0.4-13.2-0.4-19.3-3.4
		c-6.1-2.9-12.4-5.5-18.4-8.5c-1.6-0.8-3.3-1.6-4.9-2.4c-4-1.8-8.2-3.1-12.1-5.2c-3-1.7-6.3-2.7-9.5-3.8c-3.3-1.1-6.7-1.9-10.2-2.5
		c-4.7-0.9-9.5-1.2-14.3-1.3c-2.8-0.1-5.5,0.9-8.3,1.2c-2.9,0.2-4.9,1.6-6.7,3.7c-0.8,0.9-0.9,1.8-0.6,2.9c0.5,1.9,1.8,2.9,4.1,2.9
		c4.4,0,8.8-0.4,13-1.6c4.8-1.3,9.6-1.8,14.5-1c8.3,1.4,16.2,4,24.1,6.8c5.8,2.1,11.2,5,17,7c0.5,0.2,1,0.5,1.5,0.7
		c4.9,2.1,9.8,4.4,14.9,5.9c6.1,1.8,11.6,4.8,17.2,7.5c2.9,1.4,5.5,3.2,8.2,4.8C126.3,204.8,126.8,205.2,127.5,205.2z M37,186.5
		c0.6,2.2,1.9,4,3.2,5.8c1.9,2.6,4.5,4.5,6.6,6.9c4.1,4.5,9.2,7.4,14.3,10.3c7.1,3.9,14.7,6.6,22.4,8.9c4.9,1.4,9.9,2.3,14.9,3.4
		c8.4,1.7,16.9,2.4,25.5,2.2c5.1-0.1,10.2-0.3,15.3-0.3c4.7,0,9.4-0.4,14.1-1.1c4.8-0.7,9.6-1.5,14.4-2.4c7.8-1.5,15.6-2.9,23.3-4.9
		c7.7-2,15.2-4.3,22.1-8.2c4.8-2.6,9.4-5.4,13.3-9.3c4.6-4.7,6-12,3.5-18.4c-2.2,1.5-4.7,2.4-7.1,3.3c-0.2,0.1-0.4,0.3-0.6,0.4
		c-4.7,2.5-9.8,3.2-15.1,2.9c-3.2-0.2-6.3-0.6-9.5-1c-2.6-0.4-5.2-0.4-7.7-1.3c-3.3-1.2-6-3.3-8.7-5.4c-1.2-0.9-2-1.9-2-3.6
		c0-1.4-0.6-2.6-2.3-2.9c-1.1-0.2-1.9-1-2.7-1.9c-1.2-1.2-1.2-1.3-2.5-0.2c-2.5,2.2-5.1,4-7.9,5.9c-0.7,0.5-1.7,0.9-2,1.9
		c1.6,1.3,3.6,1.9,5.2,3.1c4,3.1,4.3,6.1,2.3,10.2c-0.5,1-0.2,1.4,0.4,1.9c0.4,0.4,1,0.2,1.3,0.6c2.5,2.5,5.3,4.7,7.4,7.6
		c0.3,0.4,0.7,0.8,0.7,1.2c0.2,2.7,0,5.4-1.9,7.4c-1.6,1.7-3.5,3-5.7,3.8c-4.2,1.4-8.4,2.9-12.9,3.3c-4.3,0.4-8.5,1-12.9,0.3
		c-1.7-0.3-3.2-1-4.8-1.3c-4.6-1-8.8-2.7-13-4.7c-3.3-1.6-5.9-4.2-9.2-5.9c-6.7-3.4-13.3-6.9-20.3-9.7c-3.9-1.6-7.9-3.1-11.8-4.6
		c-10.5-4.1-20.8-8.6-31.4-12.2c-4.7-1.5-9.5-2.9-14.4-3.1c-1.3-0.1-2.4,0.2-3.4,1.3c-0.9,1-1.7,2.1-2.2,3.3c-1,2.4-1.9,5-1,7.6
		c1.7,5.4,4,10.4,8.4,14.3c2.2,1.9,4.3,3.8,6.6,5.6c4.3,3.2,8.7,6.2,13.6,8.3c7.6,3.3,15.7,5,23.6,7.2c8.1,2.3,16.4,2.7,24.6,3.6
		c1.4,0.2,2.9,0.3,4.3,0.5c3.1,0.5,6.2,0,9.3,0.4c4.6,0.5,9.2,0.5,13.9,0.4c3.1-0.1,6.2-0.5,9.3-0.4c3.8,0.1,7.5-0.5,11.2-1.1
		c4.2-0.6,8.3-1.4,12.4-2.6c4.4-1.3,8.9-2,13.3-2.8c5.6-1,11-2.8,16.5-4.2c2.5-0.6,4.7-2.1,7-3c6.8-2.8,13.1-6.1,18.5-11.2
		c4-3.9,7.1-8.1,7.9-13.8c0.5-3.1,0.5-6-0.8-8.9c-0.3-0.7-0.5-2-1.6-1.7c-1.2,0.4-0.4,1.5-0.2,2.3c0.8,3.6,0.8,7.1-0.2,10.6
		c-1.6,5.8-5.5,9.9-10.5,12.9c-4,2.5-8.2,4.8-12.4,6.7c-7.5,3.4-15.4,5.7-23.5,7.4c-5.9,1.3-11.8,2.2-17.6,3.5
		c-2.9,0.7-5.9,1.2-8.9,1.6c-2.9,0.4-5.9,0.3-8.8,0.8c-5.9,1-11.9,0.9-17.9,1.1c-1.8,0.1-3.7,0.3-5.5,0.3
		c-6.1-0.3-12.3,0.2-18.4-0.9c-3.9-0.7-7.9-1.1-11.8-1.8c-2.7-0.4-5.3-1.2-7.9-1.8c-4.1-0.8-8-2.1-12-3.3c-2.3-0.7-4.3-2.1-6.5-3
		c-7.2-2.6-13.7-6.4-20-10.7c-1.3-0.9-2.5-1.9-3.7-3c-2.9-2.8-5.4-6.1-8.2-9C36.6,190.4,36.3,188.5,37,186.5z M207.8,184.1
		c0.5,0,1,0,1.4,0c4.8-0.6,9.8-0.5,14.1-3.5c2.1-1.5,4.7-2.3,7-3.5c3.8-2,5.6-6.2,3.8-9.6c-2.5-4.7-5.9-8.5-10.6-11
		c-4.9-2.6-10.2-3.7-15.6-3.4c-5.1,0.2-10,1.4-14.7,3.7c-5.9,2.8-9.5,7.6-11.7,13.6c-0.9,2.6-0.3,5.8,2,7.3c1.4,0.9,2.8,1.8,4.3,2.5
		c3.3,1.4,6.8,2.3,10.3,2.7c0.8,0.1,1.6,0.2,2.3,0.5C202.9,184.1,205.3,184.3,207.8,184.1z M87.2,157.6c-0.7,0.7-1.2,1.2-1.7,1.7
		c-1.5,1.5-3.3,1.9-5.3,1.4c-1.3-0.3-2.5-0.8-3.7-1.6c-2.2-1.4-4.2-2.9-5.3-5.4c-0.5-1.1-1.6-1.6-2.5-2.1c-0.7-0.4-0.6,1-1.4,0.9
		c-0.1,0-0.2,0-0.2,0c-7.5,1.6-13.8,5.8-20.1,9.8c-0.7,0.5-1.3,0.7-2.1,0.4c-0.2-0.1-0.4,0.2-0.4,0.5c0,0.1,0.1,0.3,0.2,0.4
		c0.3,0.1,0.6,0.1,0.9,0.2c2.4,0.7,4.9,1.4,7.3,2.3c3.9,1.5,7.7,3.1,11.5,4.7c3.3,1.4,6.6,2.8,9.9,4.3c6.7,3.1,13.3,6.2,20,9.3
		c0.4,0.2,0.9,0.4,1.5-0.1c-2-2.4-0.9-4.9,0.5-7c1.4-2,2.8-4.5,6-4c-1.3-3.3-1.3-3.2-3.7-5c-0.7-0.5-1.4-1-2.1-1.6
		C93.3,163.8,89.8,161.2,87.2,157.6z M78.1,144.1c-1.8-1.4-2.7-3.2-3.6-4.9c-1.3-2.4-2.7-4.7-3.7-7.2c-1.3-3.5-2.9-6.9-4-10.5
		c-0.5-1.7-1-1.7-2.3-0.5s-1.8,1.3-3.4,0.4c-1-0.6-1.9-1.2-2.5-2.2c-2.2-3.8-5.2-7-8.2-10.3c-1.9-2.1-4.1-3.5-6.5-4.8
		c-0.9-0.5-2-0.8-3.2-0.4c-2.2,0.7-3.6,3.4-2.9,6c1.3,4.9,3.9,9.2,7.1,13.1c3.1,3.7,6.6,6.9,10,10.3c2.2,2.1,4.5,4.1,6.8,6
		c2.5,2.1,5.6,3,8.7,3.9C72.9,143.6,75.3,144.3,78.1,144.1z M204.4,150.6c2,0.3,3.3,0,4.7-0.3c1.1-0.2,1.1-0.9,0.5-1.5
		c-1-1.1-2-2.3-3.3-3c-2.2-1.2-4.5-2-6.9-2.5c-1.5-0.3-2.7,0.1-3.9,1.3c-2.2,2.4-3.6,5.3-5.8,7.7c-4.1,4.5-8,9.1-12.6,13.1
		c-2.8,2.4-2.8,2.9,0.7,4.3c1.5,0.6,1.7,0.6,2.3-0.9c0.6-1.6,1.2-3.1,1.8-4.7c0.6-1.3,1.1-2.6,2.4-3.5c2.5-1.8,4.9-3.8,7.5-5.6
		C195.7,152.2,200.2,151.1,204.4,150.6z M153.6,215.4c-2.1-0.3-4.2-0.6-6.4-0.8c-6.4-0.6-12.1-3.1-17.8-5.8c-1.1-0.5-2.1-1-3.4-0.8
		C134.6,212.7,143.5,216,153.6,215.4z M102.2,195.1c1.5,0.7,2.9,1.2,4,2c1.2,0.9,2.4,1.3,4,1.8C108.8,197.3,104.2,195.1,102.2,195.1
		z M42.7,95.2c-2.4,0-2.4,0-3.4,1.4C40.4,96,41.5,96.1,42.7,95.2z M131.2,202.1c-0.8-0.8-1.7-0.7-2.9-0.9
		C129.3,202.5,130.1,202.8,131.2,202.1z M151.3,210.7c0.6,0.1,1,0.3,1.4,0.3s1,0.3,1-0.3c0.1-0.6-0.6-0.6-1-0.7
		C152.3,210.1,151.9,210.3,151.3,210.7z M26.8,175.4v-0.1c-0.9,0-1.8,0-2.7,0.1v0.1C25,175.4,25.9,175.4,26.8,175.4z M57.8,143.6
		c0.8,0.8,1.5,1,2.3,1.4C59.6,144.2,59,143.9,57.8,143.6z M90.5,190.3c0.4,0.5,1.1,0.8,2.3,0.8C91.8,190.8,91.1,190.6,90.5,190.3z
		 M96.9,182.5c0.3-0.9,0.3-1.5,0-2.2C96.7,181,96.4,181.6,96.9,182.5z M87.7,189.1c-0.1,0.1-0.2,0.2-0.2,0.3
		c0.2,0.1,0.3,0.2,0.5,0.3l0.2-0.2C88.1,189.2,87.9,189.2,87.7,189.1z M157.2,215.2c-0.3,0-0.5,0-0.8,0c-0.1,0-0.2,0.1-0.2,0.1
		c0.2,0,0.5,0,0.7,0C156.9,215.4,157,215.3,157.2,215.2z M33.5,173.9c0-0.2-0.1-0.3-0.3-0.2c-0.2,0.1-0.3,0.2-0.5,0.4
		c0.1,0.1,0.2,0.2,0.3,0.2C33.2,174.3,33.4,174.2,33.5,173.9z M125.6,201.3c-0.3,0-0.5,0.1-0.5,0.4c0,0.1,0.2,0.2,0.4,0.2
		c0.2,0,0.5,0,0.5-0.2C125.9,201.5,125.7,201.4,125.6,201.3z M123.7,206.2c0.2,0,0.3-0.1,0.1-0.3c-0.1-0.1-0.2-0.3-0.3-0.3
		c-0.2,0-0.2,0.1-0.1,0.3C123.4,206,123.5,206.1,123.7,206.2z"/>
	<path class="st0" d="M129.4,19.3c-1.9,1.3-3.5,3-5.7,3.7c-0.4,0.1-0.9,0.4-1.3,0.7c-1.6,1.1-1.7,1.9-0.1,3.1
		c0.6,0.5,1.4,0.8,2.1,1.2c0.6,0.3,1.4,0.4,1.8,1.6c-2.1-0.9-3.9-1.8-5.6-3.1c-0.4-0.3-0.6-0.7-1.2-0.3c-0.4,0.4-0.5,0.8-0.3,1.3
		c0.4,1.2,1.5,1.6,2.4,2.2c1.4,0.8,2.8,1.6,4.1,2.4c0.7,0.4,1.3,0.9,1.8,1.6c1.4,1.8,1.5,3-0.1,4.7c-1.1,1.2-2.3,2.3-3.6,3.4
		c-2.3,1.9-4.3,4.1-6.4,6.3c-0.3,0.3-0.7,0.9-0.6,1.8c3.4-2.8,6.6-5.5,9.9-8.3c-0.6,1.4-1.5,2.4-2.6,3.2c-2.1,1.6-3.9,3.5-5.7,5.4
		c-0.8,0.8-0.8,1.5-0.2,2.3c0.6,0.7,1.1,1.5,2.1,1.8c0.9,0.3,1.7,0.8,2.5,1.3c-0.5,1.1-1.8-0.5-2.1,0.9c-0.1,0.3-0.5-0.1-0.7-0.3
		c-1.1-0.8-2-1.7-3.2-2.5c-1.7-1.2-1.7-5.6-0.2-7.2c2.4-2.5,5-4.9,7.2-7.6c1.6-2,1.1-5.4-1.2-6.7c-1.2-0.7-2.5-1.4-3.7-2.2
		c-0.9-0.6-1.7-1.3-2-2.3c-0.4-1.2,0-2.1,1.3-2.5c0.6-0.2,1.2-0.4,0.9-1c-0.8-1.4,0.5-1.4,1.2-1.7c0.6-0.3,1-1.6,1.9-0.3
		c0.4,0.5,0.8,0.2,1.3,0c0.8-0.5,1.7-0.9,2.4-1.5C126.9,19.7,128,19,129.4,19.3z M125.8,38c2.2-2.4,2.1-3.5-0.6-4.7
		C126,34.9,125.5,36.3,125.8,38z"/>
	<path class="st0" d="M170.4,38.7c3.4-0.7,6.3-0.4,9,1.2c0.7,0.4,1.1,1.1,1.3,1.9c0.2,0.9-0.5,1.1-1.1,1.6c-0.7,0.6-1.8,1.2-1.3,2.5
		c0.2,0.7-0.4,0.8-0.9,0.7c-1-0.3-1.2,0.6-1.5,1.1c-0.2,0.4,1.7-0.4,0.6,0.8c-0.4,0.5-0.8,1-1.1,1.6c-0.4,0.6-0.6,1.3-1.6,1.2
		c-0.3,0-0.5,0.2-0.4,0.4c1,1.1-0.2,1.7-0.5,2.5c-0.4,0.9-0.1,1.8,0.9,2.2c1.3,0.5,2.2,1.6,3.6,1.8c-2.2,1-2.9,0.8-5.6-1.4
		c-0.6,1.6-0.6,1.6,3.7,3.7c-1.4,0.3-4-0.2-4.6-1.1c-0.6-0.8-0.6-1.8-0.3-2.7c0.3-0.8,0.5-1.7,0.3-2.6c-0.5-2.3,0.6-4,2.1-5.6
		c1.6-1.6,3.2-3.1,4.8-4.6c0.4-0.4,0.8-0.7,1.1-1.3c0.5-1.1,0.2-1.7-0.9-1.9c-0.9-0.1-2.2,0.5-2.1-1.2c-0.9-0.2-1.9-0.1-2.9,0
		C172.1,39.6,171.2,39.9,170.4,38.7z"/>
	<path class="st0" d="M150.7,39.5c1.1-2.2,0.7-4.3-1.1-5.5c-0.3-0.2-0.5-0.4-0.5-0.7c0.1-1.5,0.3-3.2,1.6-4.1c2-1.4,3.5-3.3,5.4-4.8
		c0.2-0.2,0.5-0.4,0.8-0.5c0.3-0.2,0.6-0.2,0.9,0.1c0.2,0.3,0.3,0.6,0.1,0.9c-0.4,0.6-0.9,1.2-1.4,1.5c-1,0.7-2.3,1.1-2.8,2.4
		c-1.7,0.1-1.2,2.1-2.4,2.6c-0.4,0.1-0.2,0.5-0.1,0.8c0.4,1.2,0.2,2.7,1.5,3.6c0.4,0.3,0,0.7-0.1,1.1l0,0c-1.6,0.2-0.8,1.3-0.4,1.6
		c1,0.8,1,1.8,1.3,2.8c0.1,0.3,0.2,0.8,0,0.8c-1.5,0-1.4,1.2-1.8,2.1c-0.5,1.2-1.5,0.8-2.5,0.7C151.4,42.8,151.8,41.4,150.7,39.5
		L150.7,39.5z"/>
	<path class="st0" d="M131.9,16c-0.5-0.2-1,0.5-1.7,0c0.9-1,1.9-1.6,3-2.3c1.6-1,1.7-2.1,0.2-3.4c-0.7-0.7-1.5-1-2.6-1
		c-2.8,0.1-5.5,0.5-8.2,1.2c-0.2,0.1-0.4,0.3-0.6,0.3c-0.9-0.1-2,0.3-2.6-0.8c-0.1-0.2-0.2-0.6-0.1-0.7c0.7-0.6,1.6-0.7,2.4-0.5
		c2,0.4,3.8-0.5,5.7-0.7c1.8-0.2,3.5-0.1,5.2,0c1.1,0.1,2,0.5,2,1.9c0,0.1,0,0.2,0,0.2c1.7,2.3,0.2,3.9-1.2,5.6
		c-0.7,0.8-1.4,1.5-2.2,2.2c-0.2,0.2-0.4,0.1-0.6,0c-0.2-0.2-0.2-0.4-0.1-0.6C131.1,16.9,131.8,16.7,131.9,16c0.5-0.2,1-0.3,1-1.1
		C132.2,15,132,15.5,131.9,16z"/>
	<path class="st0" d="M152.7,46.9c-0.1,0.3-0.2,0.6-0.3,0.9c-1.3,1.8-1.1,2.6,1.7,3.5c0.7,0.2,1.5,0.3,2.2,0.6
		c-1.1,0.6-2.2,0.3-3.4,0.1c-1.6-0.2-4.4,1.2-5.1,2.6s-0.4,2.8,0.9,3.8c0.5,0.4,1.1,0.7,1.7,0.9c0.6,0.2,1.2,0.4,2.1,0.6
		c-1.9,0.5-3.3,0-4.7-0.7c-1.3-0.7-1.7-3.6-0.9-4.9c0.3-0.5,0.7-0.9,1-1.4c1-1.5,1-1.5-0.3-2.8c-0.2-0.2-0.5-0.4-0.6-0.7
		c-0.2-0.3-0.1-0.7,0.2-0.8c0.2-0.1,0.5,0,0.7,0c0.7,0.4,0.9,1.6,2.1,1.4c0.3-1.3-0.3-2.8,0.9-3.9c0.8,0.4-0.1,1.1,0.4,1.5
		C151.8,47.6,152,46.8,152.7,46.9C152.6,46.8,152.7,46.9,152.7,46.9z"/>
	<path class="st0" d="M98.3,36.1c-0.1,1.7-1.2,2.8-2.1,3.9c-0.5,0.6-0.8,0.9,0,1.7c1.2,1.3,0.7,3.2,0.9,4.8c0,0.2-0.2,0.4-0.4,0.5
		c-0.7,0.5-2.5,0.2-3.4-0.5s-1.3-1.7-0.8-2.8c0.8-1.4,0.6-2.4-0.6-3.5c-0.6-0.5-0.9-1.5-0.8-2.4c0.1-0.4,0.1-0.8,0.7-0.7
		c0.3,0.1,0.6,0.4,0.5,0.7c-0.2,0.8-0.1,1.4,0.6,1.9c1.2,0.7,2.1,0.3,2.9-1.1C96.7,36.9,96.7,36.9,98.3,36.1z M95.6,42.5
		c-0.2-0.1-0.4-0.1-0.5-0.2c-0.6,0.5-1.1,1.2-1.4,2s0.3,1.2,0.9,1.4c0.7,0.2,1-0.3,1.1-0.9C95.7,44,95.6,43.3,95.6,42.5z"/>
	<path class="st0" d="M97.7,50.4c-0.5-0.2-0.9-0.5-1-0.9c-0.1-0.7-1.4-1.4-0.2-2c0.8-0.4,2.3,0.4,2.5,1.2c0.2,0.7,0.4,1.4,0.3,2.1
		c-0.3,1.7,0.3,3.3,0.8,4.8l0,0c-0.1,0-0.2,0-0.2,0c-0.8,0.3-0.7-1.5-1.7-0.7c-0.7,0.6-0.6,1.4-0.6,2.2c0,0.2,0.1,0.4,0.2,0.7
		c0.1,0.4,0.4,0.8-0.2,1c-0.5,0.1-1-0.1-1.1-0.6c-0.1-0.8-0.2-1.7,0.1-2.3C97.6,54,97.9,52.2,97.7,50.4c0.1-0.2,0.4-0.3,0.5-0.4
		c0.2-0.2,0.1-0.5-0.1-0.6c-0.5-0.1-0.2,0.4-0.4,0.6C97.7,50.1,97.7,50.3,97.7,50.4z"/>
	<path class="st0" d="M103.7,24.4c0.2,0.2,0.4,0.6,0.3,0.9c-0.6,1.5-0.9,3.1-1.1,4.7c0,0.4-0.4,0.6-0.8,0.7l-0.2-0.1
		c0.1-0.2,0.1-0.5,0.2-0.7c0.3-0.7,0.7-1.4-0.1-1.9c-0.9-0.6-1.1,0.7-1.7,0.9C100.3,27.8,100.3,27.8,103.7,24.4L103.7,24.4z"/>
	<path class="st0" d="M127.4,30.5c2.8,1.5,3.5,5.1,1.5,7.8c-0.2-1.6,0.5-2.9,0.2-4.2C128.8,32.8,128.5,31.5,127.4,30.5z"/>
	<path class="st0" d="M129.3,16.7c-2.4,1.7-4.1,3.4-6.7,4.4c0.4-1.8,2.1-1.8,3-2.7C126.5,17.6,127.3,16.4,129.3,16.7z"/>
	<path class="st0" d="M102.1,30.7c0.1,0.3,0.3,0.6,0.4,0.9c0.1,0.9-0.7,1.1-1.2,1.5c-0.1,0.2-0.5,0.1-0.6-0.2
		c-0.2-0.6,0.1-1.1,0.5-1.5c0.2-0.3,0.5-0.6,0.8-0.9C101.9,30.5,102.1,30.7,102.1,30.7z"/>
	<path class="st0" d="M152.7,46.9C152.7,46.9,152.6,46.8,152.7,46.9c-0.2-1,0.3-1.9,0.3-2.9c0-0.3,0.2-0.6,0.6-0.6
		c0.4,0.1,0.5,0.4,0.4,0.7C153.6,45.1,153.6,46.2,152.7,46.9z"/>
	<path class="st0" d="M147.9,37.7c-0.6-1.1,0.1-2.1,0.4-3.1C148.6,35.7,148,36.6,147.9,37.7z"/>
	<path class="st0" d="M93.9,34.2c0.5-0.8,0.6-1.9,2.1-2.1C95.7,33.3,95.5,34.4,93.9,34.2L93.9,34.2z"/>
	<path class="st0" d="M100,34.6c-0.1,0.6-0.5,1-1.1,0.9c-0.3,0-0.7-0.2-0.5-0.6c0.2-0.6,0.7-0.9,1.3-0.8
		C99.8,34.2,100,34.3,100,34.6z"/>
	<path class="st0" d="M155.6,17.4c-1.1,0.6-2,0.4-3.2,0.3C153.6,17,154.5,17.1,155.6,17.4z"/>
	<path class="st0" d="M128.5,39.3c0,0.9-0.3,1.5-1.5,1.6C127.3,40,127.9,39.6,128.5,39.3z"/>
	<path class="st0" d="M93.9,34.1c0.1,0.8-0.2,1.5-0.8,2.1C92.4,35,93.3,34.6,93.9,34.1C93.9,34.2,93.9,34.1,93.9,34.1z"/>
	<path class="st0" d="M150.7,39.4c-0.1,0-0.2,0-0.2,0c-0.7,0.1-1.3,0.1-1.5-0.7c0-0.1,0.1-0.4,0.2-0.4
		C149.9,38.4,150.6,38.5,150.7,39.4C150.7,39.5,150.7,39.4,150.7,39.4z"/>
	<path class="st0" d="M147.4,47.6c-0.1-0.1-0.3-0.2-0.3-0.3c0-0.3,0.2-0.6,0.6-0.7c0.3-0.1,0.5,0.2,0.4,0.4
		C148,47.4,147.7,47.6,147.4,47.6z"/>
	<path class="st0" d="M100.2,55.6c0.4,0.4,0.4,1,0.3,1.5C99.6,56.7,100.3,56.1,100.2,55.6C100.3,55.6,100.2,55.6,100.2,55.6z"/>
	<path class="st0" d="M152.6,37c0.4,0.3,1.1,0.4,1,1.1c0,0.1-0.3,0.2-0.4,0.2C152.4,38.1,152.7,37.5,152.6,37L152.6,37z"/>
	<path class="st0" d="M158.3,22.5c0.1-0.3,0.4-0.4,0.7-0.3c0.2,0.1,0.4,0.3,0.3,0.5c-0.1,0.4-0.4,0.4-0.7,0.3
		C158.4,23,158.2,22.9,158.3,22.5z"/>
	<path class="st0" d="M94.9,22.1c-0.1,0.1-0.1,0.3-0.2,0.4c-0.3,0.2-0.6,0.1-0.8-0.2c-0.1-0.2-0.1-0.3,0.1-0.4
		C94.4,21.8,94.7,21.8,94.9,22.1z"/>
	<path class="st0" d="M95.3,23.4c0.1-0.1,0.2-0.2,0.3-0.2c0.3,0,0.6,0.1,0.6,0.5c0,0.1-0.2,0.2-0.3,0.2
		C95.7,23.9,95.4,23.7,95.3,23.4z"/>
	<path class="st0" d="M103.7,24.3c-0.1-0.1-0.2-0.2-0.3-0.3c-0.2-0.3-0.3-0.5-0.1-0.8c0,0,0.2-0.1,0.2,0c0.3,0.2,0.4,0.4,0.3,0.8
		C103.8,24.1,103.8,24.2,103.7,24.3C103.7,24.4,103.7,24.3,103.7,24.3z"/>
	<path class="st0" d="M174.2,40.5c-0.2,0.4-0.5,0.4-0.8,0.4c-0.2,0-0.5-0.1-0.4-0.4c0.1-0.3,0.4-0.5,0.7-0.4
		C173.9,40.2,174.1,40.4,174.2,40.5z"/>
	<path class="st0" d="M135.8,182.8c0.8-1.4,2.1-1.5,3.4-1.4c0.4,0,0.8,0.3,1.1,0.3c0.3,0,0.7-1,1,0c0.1,0.5-0.4,0.7-0.8,0.6
		C138.8,181.9,137.4,183,135.8,182.8z"/>
	<path class="st0" d="M148.6,181.2c-0.2,0.1-0.4,0.2-0.6,0.3c-0.3,0.1-0.5-0.1-0.3-0.4c0.1-0.1,0.4-0.2,0.6-0.2
		C148.5,180.8,148.6,181,148.6,181.2z"/>
	<path class="st0" d="M154.5,209.8c0.1-0.1,0.3-0.1,0.4-0.2c0.1,0,0.3,0,0.4,0c0.2,0.1,0.2,0.3,0,0.3c-0.1,0-0.3,0-0.4,0
		C154.8,209.9,154.6,209.8,154.5,209.8L154.5,209.8z"/>
	<path class="st0" d="M68.1,78.5c1.4-0.6,2.6-1.5,3.9-2.4c5.4-3.8,11.5-5.8,17.8-7.3c6.9-1.7,13.9-2.8,21.1-3
		c6.7-0.2,13.4-0.5,20.1-0.3c7.8,0.2,15.6,1,23.2,2.7c2.6,0.6,5.4,0.8,8,1.2c5.7,0.9,11.2,2.4,16.7,4c2.4,0.7,4.9,1.5,7.3,2.2
		c5.3,1.5,10.4,3.6,14.4,7.7c1.2,1.2,2,2.7,2.7,4.2c1.2,2.9-0.7,6.6-3.6,7.8c-2.5,1.1-5,2-7.6,2.9c-2.5,0.9-5,1-7.5,1.4
		c-4.5,0.8-9.2,1.2-13.7,1.7c-1.3,0.2-2.7,0-4,0c-7.2,0-14.3,0.7-21.5,0.5c-6.4-0.2-12.8-0.2-19.1-0.4c-6.2-0.2-12.4-0.4-18.6-0.7
		c-2.3-0.1-4.7-0.7-7.1-1c-4.5-0.7-9-1.4-13.5-1.9c-1.6-0.2-2.9-1.2-4.5-1.6c-2.4-0.6-4.8-1.3-7.1-2.1c-2.7-1-5-2.4-6.8-4.6
		c-1-1.2-2.5-2.3-2.3-4c0.2-1.6,0.2-3.4,1.1-4.9C67.9,79.9,68.2,79.2,68.1,78.5C68.2,78.5,68.1,78.5,68.1,78.5z M90,90.5
		c-0.5-1.8-1.7-0.7-2.6-0.7C88.2,90.5,89.3,89.5,90,90.5c0.4,0.6,1,0.7,1.6,0.9c2.5,0.6,5,0.8,7.5,1.1c1.5,0.2,3,0.6,4.5,0.3
		C99.2,91.6,94.8,89.9,90,90.5z M85.8,95.4c0.6,0.2,1.2,0.7,1.8-0.1C87,94.9,86.4,95.3,85.8,95.4c-0.6-0.9-1.8-1.6-1.3-3.1
		c0-0.1-0.2-0.5-0.4-0.5c-1.6-0.6-3.3-1.3-4.8-0.8c-1.1,0.4-1.8,0.3-2.6-0.3c-0.7-0.5-1.6-0.8-2.3-1.3c-1.4-1-3.4-1.6-3.3-4
		c0-0.9-0.7-1.2-1.5-1c-0.6,0.2-1.3,0.1-1.6,0.7c1.4,3.6,4,5.8,7.5,6.9C79,93.2,82.4,94.3,85.8,95.4z M177.3,83.5L177.3,83.5
		c1.2,0.6,2.5,0.8,3.5,1.8c1.2,1.2,1.1,2-0.5,2.7c-0.2,0.1-0.4,0.2-0.7,0.2c-3.3,0.5-6.5,1.6-9.9,0.3c-0.8-0.3-1.7-0.3-2.6-0.4
		c-0.8-0.1-1.4,0-1.7,0.9c-0.4,1.4-1.6,1.8-3,1.9c-3.1,0.4-6.2-0.2-9.3-0.1c-0.5,0-0.8-0.3-0.7-0.8c0.1-0.5,0.4-0.7,0.9-0.6
		c1.3,0.2,2.5-0.2,3.8,0.2c1.9,0.7,3.6,0,5.3-0.7c1-0.4,0.9-1,0.3-1.7c-0.3-0.4-0.7-0.7-1.1-0.8c-1.7-0.4-3.2-1.4-5-1.6
		c-2.1-0.2-4.1-0.5-6.2-0.8c-1.3-0.2-2.5-0.5-3.5-1.4c0.6-0.7,1.3-0.8,2.2-0.9c2.2-0.1,4.4-0.3,6.5-1.4c0.3-0.2,0.7-0.2,1.1-0.3
		c2.7-0.4,2.2-0.9,1.2-2.9c-0.4-0.8-1.2-1-2-1.1c-1-0.2-2-0.4-3-0.6c-0.6-0.1-1.1-0.4-0.9-1.2c0.1-0.6,0.7-0.6,1.1-0.6
		c2.6,0,5.2,0.7,7.6,1.6c1.5,0.6,1.9,1.7,1,2.9c-0.7,0.9-0.3,1.4,0.1,2.1c-3.6,0.9-7.2,1.9-10.9,2.8c1.3,0.6,2.6,1,3.8,0.5
		c0.9-0.4,1.7-0.3,2.5-0.1c1.6,0.3,3.3,0.7,4.9,1c0.7,0.2,1.4,0.3,2,0.8c1.1,0.9,2.4,1.3,3.7,1.5c2.1,0.3,4.3,0.5,6.4,0.7
		s3.8-0.7,5.7-0.9c-0.1-1-0.8-1.1-1.4-1.4c-1.3-0.7-2.8-0.5-4.2-0.9c-3.7-1.2-7.5-1.8-11.2-2.2c-1.2-0.1-1.4-0.7-1.4-1.7
		c2.7-0.5,5.5-0.2,8.2-0.3c0.9,0,2,0.1,2.2-0.9c0.2-0.9-1-1-1.7-1.2c-1.1-0.2-2.4-1-2.5-1.8c-0.2-1.1-1-2.6,0.9-3.6
		c-3.3-0.4-6.1-1.7-9.1-1c-0.3,0.1-0.7-0.1-0.7-0.5c0-0.6,0.8-0.2,1-0.7c-2,0-3.8-1-5.9-0.7c1.7,1.8,1.6,2-0.4,2.8
		c-1.6,0.6-3.3,0.5-5,0.8c0.2,0.7,0.3,1.2,0.4,1.7c-0.5,0-0.8-0.7-1.5-0.5c0.5,0.5,0.5,2,1.5,0.4c0.1,0.2,0.4,0.4,0.3,0.6
		c-0.7,2.4-1.2,4.1-3.9,4.9c-1.7,0.5-3.5,1.1-5.2,1.7c-0.3,0.1-0.7,0.2-0.4,0.7c0.1,0.2,0.3,0.5,0.4,0.5c3.5,0.1,6.1,2.2,9.2,3.4
		c1.2,0.5,1.9,1.5,2.1,2.7c0.1,1.2-0.4,2.3-1.8,2.7c-0.6,0.2-1.2,0.5-1.8,0.8c-1.5,0.7-3.1,1.1-3.9,2.9c-0.4,0.8-1.2,1.4-2.3,1.6
		c-3.4,0.6-6.7,1.4-10.1,1.9c-1.4,0.2-3,0.7-4.4-0.5c-0.5-0.4-1.3-0.3-1.8-0.1c-1.2,0.4-2.4,0.4-3.6,0.6c2.8,0.5,5.6,0.5,8.4,0.4
		c1.2-0.1,2.4,0,3.6,0c8.1,0.1,16.1,0.3,24.2,0.1c7.2-0.2,14.5-0.8,21.7-1.3c0.9-0.1,1.7-0.3,2.6-0.4c3.7-0.6,7.4-1.3,11-2.2
		c2.2-0.5,4-1.4,5.6-2.9c0.3-0.3,0.8-1,1.1-0.7c1.1,0.9,1.2-0.2,1.5-0.7c0.8-1.4,0.5-2.8-0.1-4.1c-1.6-3.8-4.9-5.8-8.3-7.5
		c-0.7-0.3-1.3,0.2-1.6,0.7c-0.4,0.5,0.2,0.9,0.5,1.2c0.5,0.5,1.2,0.9,1.7,1.3c0.3,0.3,0.8,0.6,0.3,1.2c-3.6-2-4.1-2.7-3.3-5.3
		c-0.3-0.1-0.6-0.3-0.9-0.4c-4.2-1.8-8.7-2.5-13-4.2c-1.6-0.6-3.2-1.4-4.9,0c-0.3,0.3-0.9,0.1-1.4,0.2s-1.2,0-1.2,0.9
		c0.9,0.3,1.8,0.5,2.7,0.9c1.3,0.5,2.3,2.5,1.9,3.8c-0.1,0.4-0.5,0.9-0.8,0.8c-1.5-0.9-2,1.1-3.2,0.9c1.6,0.2,3.2,0.2,4.6,1.2
		C175.5,83.6,176.4,83.5,177.3,83.5z M92.9,89c0.8-0.1,1.5,0,2.3,0.2c3.7,1.2,7.5,2.4,11.3,2.7c3.7,0.2,7.3,0.9,10.9,1.4
		c4.2,0.6,8.4,1.2,12.6-0.4c0.2-0.4-0.1-0.8-0.2-1.3c-0.1-0.3,0-0.6,0.4-0.7c0.3-0.1,0.7,0,0.9,0.2c0.2,0.4,0.4,0.9,0.6,1.3
		c0.3,0.8,1,1.1,1.7,1c2.8-0.6,5.7,0,8.5-0.4c2.4-0.3,4.6-1.2,6.8-2c1.5-0.5,1.5-1.6,0.1-2.4c-3.7-2.3-7.6-3.9-11.9-4.3
		c-2.1-0.2-4.1-0.3-6.2,0c-0.5,0.1-0.8-0.1-0.8-0.6s0.3-0.3,0.6-0.4c2.5-0.6,5.1-0.5,7.4-1.9c2.2-1.3,4.9-1.7,7.3-2.9
		c0.9-0.5,1.2-1,1.1-1.9c-0.1-1.4-0.5-1.9-2.4-2.2c-2.1-0.4-4.4-0.4-6.4-1.1c-2.1-0.8-4.1-1.2-6.2-1.1c-0.4,0-0.9,0.1-1-0.5
		s0.4-0.8,0.9-0.9c1.9-0.2,3.5-1.2,5.3-1.8c-1.7-1-3.5-1.6-5.4-1.7c-7.3-0.2-14.7-0.4-22,0.1c-4.5,0.3-8.9,1.1-13.3,1.4
		c-1.2,0.1-2.4,0.3-3.5,0.7c-0.9,0.3-2.6-0.2-2.5,1.7c-1.2,0.2-2.4,1.1-3.5,0.7c-1.5-0.5-2.7,0-3.9,0.5c-2.2,0.9-4.2,2.4-6.6,3.2
		c-0.2,0.1-0.5,0.2-0.4,0.5s0.3,0.6,0.6,0.7c0.4,0.2,0.7-0.1,1.1-0.3c4.4-1.9,9.1-2.9,13.7-4.2c1-0.3,2.1-0.2,3.1-0.1
		c0.9,0,1.3,0.7,1.3,1.4c0,0.8-0.7,0.7-1.2,0.8c-0.9,0.2-2.1,0.1-1.2,1.7c0.2,0.3-0.2,0.5-0.5,0.7c-1.6,0.9-3.1,1.9-5,1.9
		c-0.3,0-0.8,0.2-0.6,0.7c1.2,0.2,2.5-0.3,3.6,0.5c-3.9,1-8.1,0.7-11.3,3.4c2.3,0.5,5-0.6,7.8,0.6c-2,1.2-3.9,1-5.7,1.5
		c1.2,0.2,2.3,0.3,3.5,0.5c1.1,0.1,2.3-0.3,3.4,0.5c-1.3,1.1-2.8,0.8-4.5,1.3c1.4,0.4,2.4,0.9,3.3,0.9C89,88.5,90.9,89.4,92.9,89
		L92.9,89z M113.8,98.3c5.4,1.5,19-1.1,21-4c-3.7,0.2-2.8-0.3-6.5,1.6c-0.4,0.2-0.9,0.3-1.4,0.2c-2.6-0.6-5.2-0.6-7.8-1.3
		c-1.6-0.4-3.3-0.5-5-0.7c-0.6-0.1-1.5-0.2-1.9,0.1c-1.5,1.2-3.2,0.8-4.8,0.9c-0.7,0-1.6-0.2-2.1,0.9c2.9,0.3,5.6,0.8,8.4,0.9
		c0.8,0,2.1-1.3,2.3,0.3C116.2,98.4,114.5,97.7,113.8,98.3z M111.6,99c0.1-0.6-0.1-0.8-0.3-0.9c-1.7-0.3-3.3-1.1-5.1-1
		c-0.8,0-1.8,0.1-2.2-0.6c-0.8-1.2-1.9-1-3-1c-1.7,0-3.4-0.1-5,0.1c-2.1,0.3-4.2-0.3-6.3,0.4C96.9,97.7,104.3,98.6,111.6,99z
		 M137.2,67.6c0.7,0.6,1.4,1,1.6,2c0.1,1,1.1,1.3,1.8,1.3c2.3,0,4.3,0.8,6.3,1.8c0.7,0.4,1.4,0.3,1.7-0.7c0.2-0.6,0.5-0.7,1-0.4
		c1.4,0.8,2.6-0.1,3.8-0.8c-3-0.8-6-1.8-9.1-1.4c-0.6,0.1-1.1,0.1-1.7,0.1c-0.3,0-0.7,0-0.7-0.4c-0.1-0.5,0.4-0.6,0.8-0.7
		c0.2,0,0.4-0.1,1-0.2C141.2,67.9,139.3,67.3,137.2,67.6z M101.8,93.7c-4-0.3-7.9-0.3-11.6-1.2c-1-0.2-2.2,0.1-3.2-0.6
		c-0.5-0.3-1.3,0.1-1.5,0.8c-0.2,0.7,0.3,1.2,0.8,1.2c2.2,0.2,4.2,1.2,6.5,0.9C95.7,94.4,98.6,94.6,101.8,93.7z M129.5,98.4
		c1.6-0.1,3.2,0,4.8-0.3c2.3-0.5,4.6-1.3,7-1.5c0.8-0.1,1.2-0.7,1.8-1c0.5-0.2,0.7-0.7,0.4-1.2c-0.2-0.4-0.7-0.4-1.1-0.3
		c-1.4,0.4-2.8,0.6-4.2,0.4c-0.3-0.1-0.6,0-0.9,0.2C135.1,96.7,132.2,97.2,129.5,98.4z M82.3,88.4c0.2-1.4-0.2-2.1-1.5-2
		c-0.7,0-1.6-0.1-1.9-0.8c-0.5-1.5-1.6-0.9-2.6-1c-1.2-0.1-1.9,0.4-2.3,1.6c0.9,0.4,1.8,0.9,2.7,1.1C78.5,87.8,80.3,88.1,82.3,88.4z
		 M90,75.4c-1.7-0.4-3.2,0.5-4.8,0.7c-2.2,0.2-4.1,1.2-6.1,2.1c-0.9,0.4-0.9,0.9-0.6,1.6C82.2,77.7,86.3,77.2,90,75.4z M72.2,77.7
		c-2.5,1.6-3.6,3.2-4,5.3c1-0.9,3.3-0.4,2.3-2.8c-0.1-0.2,0.3-0.5,0.5-0.7C71.6,79,72,78.4,72.2,77.7z M160.1,76.4
		c-0.4,0.1-0.8,0.3-0.8,0.7c0,0.7,0.7,0.7,1.2,0.9c0.3,0.1,0.5-0.2,0.5-0.5C161.1,76.8,160.7,76.5,160.1,76.4z M106.9,94.2
		c-0.7-0.2-1.5-0.6-2.4,0C105.4,95,106.2,94.8,106.9,94.2z M85,90.4c-1-0.4-1.6-0.5-2.5-0.4C83.2,90.9,83.8,91.4,85,90.4z
		 M75.3,82.6c0.8-0.4,1.2-0.5,1.6-0.7C76.4,81.8,76,81.7,75.3,82.6z M109.8,93.7c-0.2,0.1-0.2,0.2-0.1,0.3c0,0.1,0.1,0.1,0.1,0.2
		c0.2,0.1,0.3,0,0.3-0.2C110,93.8,109.9,93.8,109.8,93.7z"/>
	<path class="st0" d="M44.2,132.3c1.1,0.2,1.2,1.4,2.2,2c-1.6,0.1-1.8-1.1-2.4-1.8C44,132.4,44.1,132.4,44.2,132.3z"/>
	<path class="st0" d="M45.8,125.6c-0.1,0.7-0.2,1.4-1.1,1.5c-0.2,0-0.5-0.1-0.4-0.3C44.5,126.1,45.1,125.8,45.8,125.6
		C45.8,125.7,45.8,125.6,45.8,125.6z"/>
	<path class="st0" d="M47.4,127.6c-0.1,0.5-0.2,0.9-0.6,1.2c-0.3,0.3-0.7,0.5-1,0.1s0.2-0.7,0.5-0.9c0.3-0.2,0.7-0.3,1-0.5
		C47.2,127.5,47.4,127.6,47.4,127.6z"/>
	<path class="st0" d="M43.2,130.9c0.5,0.3,1,0.7,1,1.4c-0.1,0.1-0.1,0.1-0.2,0.2c-0.8-0.2-0.8-0.9-1-1.5L43.2,130.9z"/>
	<path class="st0" d="M43,131.1c-0.2-0.2-0.4-0.3-0.5-0.5s-0.1-0.5,0-0.6c0.2-0.2,0.4,0,0.5,0.2s0.1,0.4,0.2,0.7
		C43.2,130.9,43,131.1,43,131.1z"/>
	<path class="st0" d="M118.4,71c0.3-0.1,0.6-0.2,0.8-0.5c1.5-1.5,3-1.7,4.7-0.4c0.8,0.6,1.5,1.2,2.2,1.8c-0.2,0.5-1,0.2-1.1,1
		c0.8,0.8,2.1,0.9,3,1.6c1.7,1.4,1.7,2.3-0.3,3.2c-0.9,0.4-1.5,1.1-2.3,1.5c-4.7,2.9-10,3.3-15.3,4.2c1.5,1.1,1.5,1.1,6.2,1.1l0,0
		c0.2,0.4,0.4,1.1-0.3,1c-2.4-0.3-4.9,0.2-7.3-0.6c-1.1-0.4-2.3-0.6-3.5-0.3c-1.2,0.4-2.6,0.2-3.8,0.4c-2.3,0.5-4.3-0.2-6.3-1.1
		c-0.4-0.2-0.9-0.3-1.4-0.4c-0.4-0.1-0.7-0.4-0.7-0.9c0.1-0.6,0.5-0.5,0.9-0.5c2.5,0.1,4.9,0.2,7.4,0.5c2.4,0.3,4.8-0.3,7.1-0.6
		c0.6-0.1,1.3-0.1,1.8-0.3c0.9-0.3,1.9,0.7,2.9-0.5c0.5-0.6,2.2,0,3.2-0.4c3.2-1.3,7-1.4,9.6-4.3c-1.3-1.1-2.8-1.8-3-3.6
		c-0.1-0.7-0.8-0.7-1.3-0.9C120.7,71.7,119.4,71.6,118.4,71L118.4,71z M120.2,70.5c1.3,0.9,2.3,1.2,3.9,1.3
		C122.8,70.8,121.8,70.4,120.2,70.5z M126.1,74.8c-0.2,0-0.3,0.1-0.2,0.3c0.2,0.3,0.4,0.4,0.8,0.4c0.2,0,0.3-0.1,0.2-0.3
		C126.7,74.9,126.5,74.8,126.1,74.8z"/>
	<path class="st0" d="M122.6,84.4c0.2-1,0.9-1.1,1.8-1.1c1,0,1.8,0.5,2.5,1.2c0.2,0.2,0,0.9-0.1,1.3c-0.1,0.7-0.6,0.3-0.9,0.3
		s-0.6,0.1-0.9,0.1c-0.6,0-1.4-0.1-1.5-0.9c-0.1-0.6,0.8-0.5,1.2-0.8C123.9,83.7,123.2,84.3,122.6,84.4
		C122.5,84.3,122.6,84.4,122.6,84.4z"/>
	<path class="st0" d="M116.3,84.5c0.2-0.4,0.7-0.5,1-0.3c1.7,0.8,3.5,0.5,5.2,0.1l0,0c0,1.2-1,1.5-1.7,2.1c-0.6,0.5-1.3-0.2-1.9-0.5
		C118,85.5,117.3,84.7,116.3,84.5L116.3,84.5z"/>
	<path class="st0" d="M117.4,69.6c-0.2-0.4-1.1-0.3-0.9-0.9c0.1-0.6,0.8-0.7,1.4-0.5c0.2,0.1,0.4,0.2,0.6,0.3
		c0.3,0.2,0.8,0.2,0.8,0.7c-0.1,0.6-0.6,0.4-0.9,0.4C118,69.6,117.7,69.6,117.4,69.6L117.4,69.6z"/>
	<path class="st0" d="M130.3,90.2c-0.7,0.5-1.2,0.2-1.4-0.6c-0.2-0.7-1.8-1.2-0.9-1.8c1-0.7,1.2,0.8,1.7,1.4
		C130,89.5,130.4,89.7,130.3,90.2z"/>
	<path class="st0" d="M128.7,82.1c1.7-0.7,2.9-0.4,4.1-0.4C131.6,82.2,130.4,82.3,128.7,82.1z"/>
	<path class="st0" d="M92.9,89c-0.7-0.5-1.4-0.9-2.2-1.4C92.4,87.2,92.4,87.2,92.9,89L92.9,89z"/>
	<path class="st0" d="M103,71.1c-0.7,0.7-1.2,1.1-1.9,0.8c-0.1,0-0.2-0.3-0.1-0.4C101.3,70.6,102,70.9,103,71.1z"/>
	<path class="st0" d="M117.4,69.6c0.1,0.7,1,0.8,1,1.5l0,0c-0.3,0-0.6,0-0.9-0.1C116.5,70.6,116.5,70.4,117.4,69.6L117.4,69.6z"/>
	<path class="st0" d="M97.4,74c1.1-0.7,1.1-0.7,2.2,0.2C98.7,74.6,98.1,74,97.4,74L97.4,74z"/>
	<path class="st0" d="M97.3,74c-0.3,0.1-0.5,0.3-0.8,0.4c-0.4,0.1-0.6-0.1-0.6-0.5c0-0.1,0-0.3,0.1-0.4c0.3-0.3,0.5,0,0.8,0.2
		C97,73.7,97.2,73.9,97.3,74C97.4,74,97.3,74,97.3,74z"/>
	<path class="st0" d="M186.9,85.1c0.8,0.7,1.8,0.9,2.8,1.2c0.9,0.3,1.3,0.8,1.3,1.8c-0.1,0.9-0.4,1.5-1.3,1.7c-2.1,0.6-4-0.3-6-0.5
		c-0.3,0-0.4-0.4-0.4-0.8c0.1-0.4,0.3-0.8,0.7-0.8c0.5,0,0.9,0.1,1.4,0.2c0.7,0.1,1.4,0.3,1.9-0.3c-0.1-0.6-0.6-0.5-0.9-0.8
		c-0.4-0.4-1.2-0.4-1-1.2C185.7,85,186.4,85.3,186.9,85.1L186.9,85.1z"/>
	<path class="st0" d="M178.9,95.6c1.4-1.7,1.4-1.7-0.6-3.7c1.2,0.6,2.4,0.2,3.6,0c2.3-0.5,4.6-0.5,6.8,0.2c0.7,0.2,1.3,0.4,1.9,1
		c1.1,1.1,1.2,1.2-0.3,2.7c0.2-2-1-2.8-2.6-3.1c-1.7-0.3-3.4-0.8-5.2-0.2c-1,0.3-1.8,0.6-1.8,1.9C180.9,95.5,180.3,96.1,178.9,95.6z
		"/>
	<path class="st0" d="M162.5,92.2c1.1-0.8,2.2-0.3,3.1,0c1.3,0.5,2.6,1,3.9,1.6c0.5,0.2,0.9,0.7,1.2,1.1c0.7,1,0.6,1.3-0.6,1.7
		c-1.8,0.6-3.7,0.7-5.6,1.1c0.1-0.9,0.8-0.9,1.4-1c0.8-0.1,1.6-0.1,2.3-0.5c0.5-0.3,1.4-0.2,1.3-1.1c-0.1-0.7-0.8-1-1.4-1.2
		C166.3,93.6,164.5,92.6,162.5,92.2z"/>
	<path class="st0" d="M183.9,81.7c0.7,0.6,0.8,1.4,0.5,1.6c-0.7,0.5-1.6,0.5-2.6-0.1C182.5,82.5,183.5,82.6,183.9,81.7z"/>
	<path class="st0" d="M177.3,83.5c-0.2-0.7,0.1-1.1,0.8-1c0.9,0.1,1.8,0.3,3.1,1.2C179.5,83.6,178.4,83.5,177.3,83.5
		C177.3,83.4,177.3,83.5,177.3,83.5z"/>
	<path class="st0" d="M186.9,85.1c0.7-0.7,0.7-0.7,2-0.3C188.2,85.6,187.5,84.9,186.9,85.1L186.9,85.1z"/>
	<path class="st0" d="M175.2,91.1c0.1-0.1,0.3-0.2,0.4-0.2c0.2,0,0.4,0.2,0.3,0.5c0,0.1-0.3,0.1-0.4,0
		C175.3,91.4,175.2,91.2,175.2,91.1z"/>
	<path class="st0" d="M148.4,97.5c-0.2,0.1-0.4,0.3-0.6,0.3c-0.2,0.1-0.3-0.1-0.3-0.2c0.1-0.2,0.3-0.3,0.5-0.4
		C148.1,97.2,148.2,97.4,148.4,97.5z"/>
</g>
</svg>
