<?xml version="1.0" encoding="utf-8"?>
<!-- Generator: Adobe Illustrator 22.0.1, SVG Export Plug-In . SVG Version: 6.00 Build 0)  -->
<svg version="1.1" id="Layer_1" xmlns="http://www.w3.org/2000/svg" xmlns:xlink="http://www.w3.org/1999/xlink" x="0px" y="0px"
	 viewBox="0 0 397 290" style="enable-background:new 0 0 397 290;" xml:space="preserve">
<style type="text/css">
	.st0{fill:#4E5D44;}
</style>
<g>
	<path class="st0" d="M274.5,119.1c4.6,1,8.8,2.7,12.2,6.1c1.7,1.8,3.6,3.4,5,5.5c1.8,2.8,2.3,5.8,1.6,8.9c-0.4,2-0.4,4-0.3,5.9
		c0.1,2.2,0,4.2-0.6,6.4c-1,3.9-1.7,7.8-2.2,11.8c-0.3,3.1-1.4,6.1-2,9.1c-0.4,2-0.9,4-1.5,6c-0.7,2.3-1.6,4.6-2.5,6.9
		c-0.6,1.7-0.6,1.6,1.2,1.9c2.8,0.4,5.6,1.4,8.1,2.6c2.2,1.1,3.6,3.3,5,5.3c0.8,1.2,1.7,1.9,3,2c2.7,0.3,5.2,1.4,7.7,2.4
		c1.2,0.5,2.2,1.3,3.2,2.1c2.5,2,5.5,3.4,7.3,6.4c1.4,2.4,2,5,2.6,7.6c0.5,1.9,0.5,3.7-1.3,5.2c-1.1,0.9-1.1,2.1-0.5,3.4
		c3.4,8.7,1.1,16.3-4.9,23c-1.6,1.8-3.6,3.4-5.4,5.1c-3.4,3.1-7.6,4.9-11.7,6.9c-3.5,1.6-6.9,3.3-10.4,4.8
		c-3.3,1.4-6.8,2.1-10.2,3.2c-3,0.9-6.2,1.2-9.3,2.2c-1.8,0.6-3.7,0.8-5.6,1c-2.8,0.4-5.5,1.1-8.2,1.8c-7,1.6-14.1,2.8-21.3,3.3
		c-7.6,0.5-15.2,0.7-22.7-0.1c-7.8-0.8-15.7-1.2-23.6-2.3c-5.7-0.8-11.3-1.8-16.9-3.2c-7.2-1.8-14.5-3.7-21.4-6.7
		c-2.8-1.2-5.6-2.7-8.3-4.1c-3.5-1.9-6-4.8-9.5-6.7c-1.5-0.8-2.4-2.5-3.7-3.7c-3.7-3.6-6.4-7.9-8.5-12.6c-1.2-2.7-1.8-5.6-0.4-8.6
		c0.2-0.4,0.3-0.9,0.4-1.4c0.5-1.8,1-3.5,2.8-4.5c-2.6-0.3-5.1,0.3-7.5,0.7c-4.1,0.8-8.2,0.8-12.4,0.4c-3.8-0.3-5.7-2.4-6.1-6.1
		c-0.2-2.1,0.7-3.7,2.5-4.8c3.2-2.1,6.7-2.9,10.4-3.3c2.1-0.2,4.3-0.5,6.4-0.6c3.1-0.2,6.2,0.1,9.3,0.6c0.9,0.2,1.7,0.3,2.6,0.5
		c0.7,0.1,1.2,0,1.8-0.4c6.5-4.9,13.8-8.1,21.3-11.1c0.1-0.1,0.3-0.1,0.4-0.2c0.6-0.3,1.4-0.2,1.5-1c0.1-1-0.7-1.4-1.5-1.7
		c-3.7-1.4-7-3.4-10.5-5.1c-2.7-1.3-4.9-3.2-7.3-5c-4.3-3.3-7.8-7.3-11-11.5c-3-4-5.3-8.2-6.2-13.3c-0.5-2.9-1-5.8-0.8-8.7
		c0.3-5.6,5.6-11.6,11.3-12c5.4-0.4,9.8,0.5,13.5,4.4c0.4,0.4,0.9,0.7,1.2,1.1c0.9,1,2,1.5,3.3,1.8c1.1,0.3,2.1,0.7,3,1.3
		c0.8,0.6,1.1,0,1.3-0.7c0.8,1.7,1.5,3.5,1.3,5.5c-0.1,1,0.2,2.1,0.5,3c1.8,5.3,3.6,10.6,5.4,15.9c2.8,8.4,7.4,15.9,12.4,23.1
		c3.4,4.9,7.3,9.4,11.7,13.6c2.6,2.5,5.7,4.5,8.6,6.8c2.4,1.9,5.1,3.5,7.8,5c3.5,2,6.7,4.7,11,5.4c2.1,0.4,4.2,1.4,6.5,1.7
		c0.4,0.1,0.9,0.2,0.8,0.7c0,0.4-0.5,0.6-0.9,0.7c-2.5,0.2-5.1-0.1-7.3-1c-2.2-0.9-4.2-2.3-6.7-2.2c-0.4,0-1-0.1-1.3-0.5
		c-0.9-1.3-2.4-1.6-3.5-2.4c-1-0.7-2.2-1.4-3.5-0.7c-2.1,1.1-4.2,2.4-5.8,4.2c-2.2,2.4-1.2,6.2,1.9,7.3c1,0.4,2,0.6,3,0.8
		c6.1,1.3,12.2,2,18.1-0.8c0.2-0.1,0.5-0.1,0.7-0.2c6.5-1.5,13.1-2.6,19.9-2.6c4,0,7.9,0.7,11.8,1.6c3.2,0.8,6.1,2.3,9.2,3.4
		c3,1.1,4.1,0.3,4.6-2.8c0.2-1.2-0.7-1.3-1.1-1.9c-1.6-2.4-3.2-4.5-6.6-4.9c-1.8-0.2-3.4-0.5-5,0.5c-1.7,1.1-3.5,1.6-5.5,0.6
		c1-0.9,1.9-1.7,3.3-1.5c1.1,0.1,2.3-0.4,3-1.2c0.8-0.9,1.6-1.2,2.6-1.5c0.5-0.2,1.1-0.3,1.5-0.7c3.9-3.2,8.7-5.4,12.1-9.3
		c0.2-0.2,0.5-0.3,0.8-0.5c1.9-1.2,3.6-2.6,5.2-4.2c3.1-2.9,5.9-6.1,8.6-9.3c2.9-3.4,5.3-7.2,8-10.8c0.2-0.3,0.4-0.5,0.5-0.8
		c0.7-3.1,2.2-5.8,3.3-8.7c3.4-9.4,4.6-19.2,6.1-29c0.3-2.1,0.4-4.3,0.2-6.5c-1.9,1.5-4,2-5.9,2.7c-1.4,0.5-2.9,0.7-4.3,1.2
		c-3.5,1.3-7.2,1.9-10.9,2.5c-2.9,0.5-5.8,1-8.7,1.3c-3.6,0.3-7.1,1-10.7,1.1c-5.2,0.1-10.5,0.1-15.7,0.4c-4.9,0.3-9.8,0.8-14.8,0.3
		c-4-0.4-8.1-0.4-12.2-0.6c-6.7-0.4-13.3-1-20-1.6c-1.8-0.1-3.6-0.6-5.3-0.8c-5.3-0.6-10.5-1.5-15.6-3.3c-1.6-0.6-3.2-1.1-4.8-1.4
		c-3.2-0.7-6-2.5-8.8-4.1c-2-1.1-3.2-3-5-4.6c-1.3,3.8-0.2,7.4-0.4,11c-1,0-1-0.8-1.1-1.5c-0.7-3.2-0.3-6.3-0.1-9.5
		c0-0.2,0.1-0.5,0.1-0.7c-0.3-4.4,2.1-7.6,4.7-10.6c2.2-2.5,4.5-4.9,7.3-6.5c2.5-1.4,5.3-2.2,7.9-3.4c5.5-2.4,11.5-3,17.3-4.3
		c7.7-1.8,15.5-1.7,23.3-2.1c3.6-0.2,7.2-0.2,10.7-0.2c0.9,0,1.8,0,2.6,0.1c4.9,0.6,9.8,0.6,14.7,1.4c2.3,0.4,4.7,0.3,7.1,0.8
		c3.1,0.7,6.2,1.2,9.4,1.6c5.2,0.7,10.1,2.2,15.1,3.8C270,116.8,272.5,117.5,274.5,119.1c-0.7,0.3-1.4,0.1-2.1-0.1
		c-2.1-0.7-4.3-1.3-6.4-1.9c-4.7-1.3-9.3-2.8-14.2-3.3c-1.8-0.2-3.6-0.7-5.4-0.9c-5.5-0.7-11.1-1.6-16.6-2.1
		c-3.9-0.4-7.8-0.6-11.7-0.6c-2.7,0-5.4-0.4-8.1-0.3c-4.2,0.1-8.4,0.4-12.6,0.8c-7.2,0.6-14.4,1.7-21.5,3.3c-4.9,1.1-9.6,3-14.2,5.1
		c-2.9,1.3-5.5,3.2-7.6,5.7l0,0c-1.6,1.3-2.5,3.1-3.3,4.9c-1.3,2.9-1.1,5.6,1.5,8c1.9,1.8,4,3.2,6.4,4.2c5,2.1,10.2,3.7,15.5,4.7
		c3.4,0.7,6.9,1.3,10.4,1.8c4.5,0.6,9,0.9,13.6,1.4c3.9,0.4,7.8,0.7,11.7,0.9c6.6,0.3,13.2,0.4,19.9,0.4c5.9,0,11.8-0.1,17.7-0.4
		c5.7-0.3,11.4-0.9,17.1-1.6c7.3-0.9,14.4-2.5,21.5-4.7c3.1-0.9,4.9-2.7,5.7-6c0.8-3.4,0-6-2.2-8.3c-3.6-3.9-7.7-7.1-12.8-9.1
		C275.9,120.4,274.8,120.2,274.5,119.1z M185.4,222.6c-0.7,0.2-1.3,0.5-1.5,1.5C184.6,223.7,185.2,223.3,185.4,222.6
		c0.8,0,1.5-0.3,1.8-1.4C186.6,221.7,186,222.2,185.4,222.6z M167.5,232.7c-0.8-0.4-1.5-1-2.5-0.9c-1.1-0.9-2.3-1.4-3.6-1.4
		c1.2,0.6,2.3,1.4,3.7,1.4C165.7,232.5,166.6,232.6,167.5,232.7c0.9,1,2,1.3,3.3,1.5C169.7,233.4,168.7,232.9,167.5,232.7z
		 M225.2,256.1c0.7,0.7,0.7,0.7,1.6,0.1C226.2,255.9,225.7,256.1,225.2,256.1c0-0.4,0-0.9-0.4-0.9c-0.7,0-1.5-0.4-2.5,0.1
		C223.2,256.1,224.2,256.2,225.2,256.1z M231.9,257.9c0.6,1,1.7,0.7,2.6,0.8c0.6,0.1,0.6-0.6,0.5-1.1c-0.1-0.6-0.5-0.6-0.9-0.3
		C233.5,257.7,232.7,257.8,231.9,257.9c-0.9-1.7-1.3-1.7-3,0.1C230,258,230.9,258.3,231.9,257.9z M151.4,226.3
		c-0.4-0.4-0.8-0.6-1.3-0.5c0,0.3,0.2,0.4,0.4,0.4C150.8,226.3,151.1,226.4,151.4,226.3c2.1,1.7,4.6,2.1,7.1,2.9
		C156.4,227.7,153.8,227.3,151.4,226.3z M130.6,220.2c0.4,0.3,0.9,0.3,1.3,0C131.5,220.2,131,220.2,130.6,220.2
		c-3-1.3-6.2-0.7-9.5-0.6C124.5,220.5,127.6,219.8,130.6,220.2z M131.8,171.6L131.8,171.6c-0.6-0.9-1.1-1.8-2.3-0.7
		c-0.3,0.3-0.8,0.6-1.2,0c0.1-0.2,0.3-0.4,0.4-0.6c0.3-0.5,1.4-0.4,1.1-1.2c-0.4-0.8-1.1-0.1-1.7-0.2c-0.1,0-0.2-0.2-0.3-0.3
		c0.2-0.4,1.1-0.6,0.5-1.3c-0.8,0.2-1.4,1.1-2.4,0.6c0-0.7,0.7-0.5,1-0.9c0.5-0.5,0.8-1.1,0.4-1.7c-0.5-0.9-1.1-0.2-1.6,0
		c-0.3,0.1-0.6,0.2-0.8-0.2c0.3-0.3,0.6-0.7,0.9-1c0.3-0.3,0.5-0.7,0.1-1.1c-0.4-0.4-0.7-0.1-1,0.1c-0.4,0.2-1.3,0.5-1.2,0.2
		c0.1-1-1.2-1.1-1.1-2.1c0.8-0.1,1.3-0.5,1.7-1.5c-0.9,0.4-1.2,1.1-1.7,1.6c-0.7,0-1.4,0-0.9-1c0.2-0.4,0.9-0.5,0.6-1.1
		c-0.5-0.3-1.8-0.1-1.3-0.9c0.6-1.1-0.1-1.6-0.4-2.3c-0.3-0.8-0.9-1.8,0.6-2.3c0.2-0.1,0.4-0.5,0.5-0.8c0.2-1.5,1.3-2.2,2.4-3
		c2.2-1.6,5.1-1.8,7.4-0.4c2.8,1.6,5.3,3.5,7.3,6.1c1.3,1.7,2.9,3.2,4.4,4.7c0.5-0.4,0-0.9,0.2-1.1c0.7-0.6,1.6-1.5,2.3-1.6
		c0.8,0,0.6,1.4,0.8,2.2c0.1,0.6,0.2,1.3,0.3,1.9c0.1,1.3,0.7,2.2,1.9,2.7c-1.3-1.3-1-3-1.4-4.5c-0.2-0.7-0.4-1.7,0.6-1.7
		c0.9,0,0.5,1,0.5,1.6c0.2,1.9,0.5,3.6,2.1,4.8c1.1-1,1.2-1.9,0.2-2.9c-0.6-0.6-1-1.3-0.5-2.3c0.2-0.3,0-1-0.3-1.4
		c-1-1.8-1.2-3.8-1.2-5.8c0-0.9-0.4-1.6-1-2.3c-1-1.1-2.2-2-3.6-2.2c-2.2-0.3-3.5-1.7-5-3c-1-0.8-1.9-1.7-2.9-2.5
		c-1.6-1.3-3.5-1.8-5.5-1.8c-0.3,0.8,1.2,1.6-0.1,2.3c-0.4,0.2-0.2,0.5,0.2,0.7c0.5,0.2,1,0.5,1.1,1.4c-2.3-0.6-4.2,0.3-6.2,1.2
		c-0.3,0.1-0.6,0.3-0.9,0.3c-0.2,0-0.5-0.1-0.6-0.2c-0.2-0.3,0-0.6,0.3-0.8c1.2-0.9,2.7-1.3,4-2c-2.4,0.3-4.9,0.4-6.2,3
		c-0.1,0.2-0.3,0.3-0.5,0.5c-0.4,0.3-0.8,0.1-1-0.3c-0.2-0.2-0.4-0.6-0.1-0.9c0.3-0.4,0.6-0.8,1-1.1c0.8-0.6,1.1-1.5,1.9-2.7
		c-4.7,2.7-6.5,6.5-5.7,11.3c0.1,0.6,0.5,1.5-0.2,1.7c-1.3,0.4-0.9,1.3-0.8,2c0.1,1.6,0.6,3.1,1.1,4.6c3.4,9.6,10.1,16.7,17.6,23.1
		c0.5,0.4,1,0.9,2.1,1c-1.3-1.7-3.3-2.4-4.2-4.2c1-0.1,1.4,0.4,2,0.7c3.7,2.4,7.3,4.8,11,7.2c1.5,0.9,2.8,2.1,4.6,2.5
		c0.3,0.7-0.5,1.6,0.9,2.1c2.1,0.6,3.6,2.3,5.5,3.3c1.9,0.9,2.9,2.5,4.3,3.9c0.3,0.3,0.6,1,1.4,0.6c-1.1-2.2-2.3-4.1-4.6-5.2
		c-0.7-0.3-1.4-0.8-2-1.3c-1.7-1.4-3.6-2.3-5.5-3.2c0.4-0.5,0.9-0.7,1.5-0.3c4,2.5,8.6,4.1,11.3,8.5c1,1.7,2.4,3.1,4.6,2.9
		c0.3,0,0.6,0.1,0.7,0.5c0.1,0.4,0,0.6-0.3,0.8c-0.6,0.5-1.3,0.8-1.8,1.6c1.8,0.2,3-0.6,4-1.8c0.7-0.9,0.9-1.7,0.1-2.8
		c-1.5-2-2.4-4.4-4.1-6.4c-1.3-1.5-2.7-2.7-4.6-3.1c-2.3-0.4-4.5-0.8-6.7-1.5c-1.8-0.5-3.7-1.2-5.2-2.3c-3.1-2.1-6.1-4.4-8.9-6.8
		c-1.1-0.9-2-1.4-3.4-0.8c-0.1-0.8,1-1.1,0.5-1.8c-0.8-1.1-1.5,0.5-2.3,0.1c-0.4-0.7,0.8-1.3,0.3-1.8c-0.9-0.5-1.3,0.5-2.3,0
		c1.8-1.4,0.4-2.3-0.5-3.2l-0.1-0.1C132.8,172.9,132.3,172.3,131.8,171.6z M213.5,251.1c1.6,1.7,3.7,2.2,6,2.5
		c1.1,0.1,1.7,0,2.3-0.8c0.2,1,1,0.8,1.7,1c2.2,0.5,4.4,0.1,6.7,0c2.1-0.1,4.2-0.8,6.3-0.5c0.3,0,0.6-0.2,0.9-0.3
		c0.3-0.1,0.7-0.4,1.1,0.3c-0.9,1.1-2.6,1.1-3.7,2.6c2.2-0.3,4-1.7,5.8,0l0,0c0.2,1,0.8,1.2,1.8,1.1c1-0.1,2.1,0.1,3.1,0.2
		c1,0.1,1.9-0.8,3-0.6c-1.3,1.9-1.5,2-3.3,1.9c-2.7-0.2-5.4-0.3-8.1-0.1c-0.3,0-0.8-0.2-0.9,0.6c0.8,0.3,1.6,0.3,2.3-0.1
		c1-0.6,1.1,0.7,1.9,0.7c3.2-0.2,6.4-0.1,9.5-0.9c1.2-0.3,2.5-0.5,3.8-0.5c1.6,0,3.1-0.4,4.5-1.4c1.2-0.8,2-1.9,3.1-2.6
		c2-1.3,2.5-2.8,1.8-5c-0.4-1.4-1.2-2.6-2.3-3.6c-1-0.9-2.2-1.6-3.1-2.5c-1.6-1.5-3.4-2.6-5-3.9c-0.7-0.6-1.8-1-2.9-0.8
		c-2.4,0.3-4.8,0-7.1-0.7c-4.1-1.3-8.4-2-12.6-2.5c-0.6-0.1-1.3-0.4-1.8-0.3c-3.9,0.9-7.9,0.3-11.8,1.4c-2.8,0.8-5.4,1.9-8.1,2.9
		c-1.1,0.4-1.8,1.5-1.7,2.7c0.1,1.1,0.5,2.2,1.9,2.4c0.5,0,0.7,0.5,1,0.9c0.2,0.5,0.6,0.7,1.2,0.4c-1.2-2.6-1.2-2.6-0.9-3.6
		c2.2,3.8,5.8,4.3,9.7,4.1c-0.1,0.4-0.1,0.6-0.2,0.7c-0.6,0.6-0.6,1.1,0.1,1.5c0.7,0.4,0.8-0.3,1-0.6c0.2-0.2,0.2-0.6,0.3-0.9
		c0.3-0.5,0.8-0.6,1.2-0.4c0.4,0.2,0.3,0.7,0.1,1.1c-0.2,0.4-0.9,0.5-0.8,1.2c2.5,1.2,5.4,0.5,8.2,0.9c-1.3,1.3-3,0.9-4.4,1.7
		c0.8,0.5,1.5,0.3,2.3,0.2c0.4,0,0.8,0.2,0.9,0.6c0.1,0.5-0.4,0.7-0.7,0.8s-0.7,0.4-0.9,0.3c-1.6-0.6-3.2,0.2-4.7-0.3
		c-0.3-0.2-0.5-0.6-0.8-0.5C218.4,252.7,216,251.4,213.5,251.1c-0.4-1.2-1.2-1.9-2.4-2.5c-1.5-0.7-2.9-1.6-4.1-2.8
		c-3.4-3.5-2.5-7.7,2.3-9.2c3.5-1.1,7.1-1.6,10.7-2.5c4.3-1,8.5-0.9,12.8-0.1c3.9,0.7,7.7,1.8,11.5,3.2c0.6,0.2,1.2,0.3,1.9,0.4
		c0.4,0,0.7-0.4,0.8-0.8c0.1-0.4-0.2-0.6-0.5-0.7c-3.1-1-6.1-2.3-9.3-3c-10.6-2.3-20.9-0.6-31.1,2.5c-1.5,0.5-2.9,0.9-4.4,1
		c-6.7,0.4-13.2-0.4-19.3-3.4c-6.1-2.9-12.4-5.5-18.4-8.5c-1.6-0.8-3.3-1.6-4.9-2.4c-4-1.8-8.2-3.1-12.1-5.2c-3-1.7-6.3-2.7-9.5-3.8
		c-3.3-1.1-6.7-1.9-10.2-2.5c-4.7-0.9-9.5-1.2-14.3-1.3c-2.8-0.1-5.5,0.9-8.3,1.2c-2.9,0.2-4.9,1.6-6.7,3.7
		c-0.8,0.9-0.9,1.8-0.6,2.9c0.5,1.9,1.8,2.9,4.1,2.9c4.4,0,8.8-0.4,13-1.6c4.8-1.3,9.6-1.8,14.5-1c8.3,1.4,16.2,4,24.1,6.8
		c5.8,2.1,11.2,5,17,7c0.5,0.2,1,0.5,1.5,0.7c4.9,2.1,9.8,4.4,14.9,5.9c6.1,1.8,11.6,4.8,17.2,7.5c2.9,1.4,5.5,3.2,8.2,4.8
		C212.3,250.7,212.8,251.1,213.5,251.1z M123.1,232.5c0.6,2.2,1.9,4,3.2,5.8c1.9,2.6,4.5,4.5,6.6,6.9c4.1,4.5,9.2,7.4,14.3,10.3
		c7.1,3.9,14.7,6.6,22.4,8.9c4.9,1.4,9.9,2.3,14.9,3.4c8.4,1.7,16.9,2.4,25.5,2.2c5.1-0.1,10.2-0.3,15.3-0.3c4.7,0,9.4-0.4,14.1-1.1
		c4.8-0.7,9.6-1.5,14.4-2.4c7.8-1.5,15.6-2.9,23.3-4.9c7.7-2,15.2-4.3,22.1-8.2c4.8-2.6,9.4-5.4,13.3-9.3c4.6-4.7,6-12,3.5-18.4
		c-2.2,1.5-4.7,2.4-7.1,3.3c-0.2,0.1-0.4,0.3-0.6,0.4c-4.7,2.5-9.8,3.2-15.1,2.9c-3.2-0.2-6.3-0.6-9.5-1c-2.6-0.4-5.2-0.4-7.7-1.3
		c-3.3-1.2-6-3.3-8.7-5.4c-1.2-0.9-2-1.9-2-3.6c0-1.4-0.6-2.6-2.3-2.9c-1.1-0.2-1.9-1-2.7-1.9c-1.2-1.2-1.2-1.3-2.5-0.2
		c-2.5,2.2-5.1,4-7.9,5.9c-0.7,0.5-1.7,0.9-2,1.9c1.6,1.3,3.6,1.9,5.2,3.1c4,3.1,4.3,6.1,2.3,10.2c-0.5,1-0.2,1.4,0.4,1.9
		c0.4,0.4,1,0.2,1.3,0.6c2.5,2.5,5.3,4.7,7.4,7.6c0.3,0.4,0.7,0.8,0.7,1.2c0.2,2.7,0,5.4-1.9,7.4c-1.6,1.7-3.5,3-5.7,3.8
		c-4.2,1.4-8.4,2.9-12.9,3.3c-4.3,0.4-8.5,1-12.9,0.3c-1.7-0.3-3.2-1-4.8-1.3c-4.6-1-8.8-2.7-13-4.7c-3.3-1.6-5.9-4.2-9.2-5.9
		c-6.7-3.4-13.3-6.9-20.3-9.7c-3.9-1.6-7.9-3.1-11.8-4.6c-10.5-4.1-20.8-8.6-31.4-12.2c-4.7-1.5-9.5-2.9-14.4-3.1
		c-1.3-0.1-2.4,0.2-3.4,1.3c-0.9,1-1.7,2.1-2.2,3.3c-1,2.4-1.9,5-1,7.6c1.7,5.4,4,10.4,8.4,14.3c2.2,1.9,4.3,3.8,6.6,5.6
		c4.3,3.2,8.7,6.2,13.6,8.3c7.6,3.3,15.7,5,23.6,7.2c8.1,2.3,16.4,2.7,24.6,3.6c1.4,0.2,2.9,0.3,4.3,0.5c3.1,0.5,6.2,0,9.3,0.4
		c4.6,0.5,9.2,0.5,13.9,0.4c3.1-0.1,6.2-0.5,9.3-0.4c3.8,0.1,7.5-0.5,11.2-1.1c4.2-0.6,8.3-1.4,12.4-2.6c4.4-1.3,8.9-2,13.3-2.8
		c5.6-1,11-2.8,16.5-4.2c2.5-0.6,4.7-2.1,7-3c6.8-2.8,13.1-6.1,18.5-11.2c4-3.9,7.1-8.1,7.9-13.8c0.5-3.1,0.5-6-0.8-8.9
		c-0.3-0.7-0.5-2-1.6-1.7c-1.2,0.4-0.4,1.5-0.2,2.3c0.8,3.6,0.8,7.1-0.2,10.6c-1.6,5.8-5.5,9.9-10.5,12.9c-4,2.5-8.2,4.8-12.4,6.7
		c-7.5,3.4-15.4,5.7-23.5,7.4c-5.9,1.3-11.8,2.2-17.6,3.5c-2.9,0.7-5.9,1.2-8.9,1.6c-2.9,0.4-5.9,0.3-8.8,0.8
		c-5.9,1-11.9,0.9-17.9,1.1c-1.8,0.1-3.7,0.3-5.5,0.3c-6.1-0.3-12.3,0.2-18.4-0.9c-3.9-0.7-7.9-1.1-11.8-1.8
		c-2.7-0.4-5.3-1.2-7.9-1.8c-4.1-0.8-8-2.1-12-3.3c-2.3-0.7-4.3-2.1-6.5-3c-7.2-2.6-13.7-6.4-20-10.7c-1.3-0.9-2.5-1.9-3.7-3
		c-2.9-2.8-5.4-6.1-8.2-9C122.7,236.4,122.4,234.5,123.1,232.5z M293.7,230.1c0.5,0,1,0,1.4,0c4.8-0.6,9.8-0.5,14.1-3.5
		c2.1-1.5,4.7-2.3,7-3.5c3.8-2,5.6-6.2,3.8-9.6c-2.5-4.7-5.9-8.5-10.6-11c-4.9-2.6-10.2-3.7-15.6-3.4c-5.1,0.2-10,1.4-14.7,3.7
		c-5.9,2.8-9.5,7.6-11.7,13.6c-0.9,2.6-0.3,5.8,2,7.3c1.4,0.9,2.8,1.8,4.3,2.5c3.3,1.4,6.8,2.3,10.3,2.7c0.8,0.1,1.6,0.2,2.3,0.5
		C288.9,230.1,291.2,230.3,293.7,230.1z M173.2,203.6c-0.7,0.7-1.2,1.2-1.7,1.7c-1.5,1.5-3.3,1.9-5.3,1.4c-1.3-0.3-2.5-0.8-3.7-1.6
		c-2.2-1.4-4.2-2.9-5.3-5.4c-0.5-1.1-1.6-1.6-2.5-2.1c-0.7-0.4-0.6,1-1.4,0.9c-0.1,0-0.2,0-0.2,0c-7.5,1.6-13.8,5.8-20.1,9.8
		c-0.7,0.5-1.3,0.7-2.1,0.4c-0.2-0.1-0.4,0.2-0.4,0.5c0,0.1,0.1,0.3,0.2,0.4c0.3,0.1,0.6,0.1,0.9,0.2c2.4,0.7,4.9,1.4,7.3,2.3
		c3.9,1.5,7.7,3.1,11.5,4.7c3.3,1.4,6.6,2.8,9.9,4.3c6.7,3.1,13.3,6.2,20,9.3c0.4,0.2,0.9,0.4,1.5-0.1c-2-2.4-0.9-4.9,0.5-7
		c1.4-2,2.8-4.5,6-4c-1.3-3.3-1.3-3.2-3.7-5c-0.7-0.5-1.4-1-2.1-1.6C179.3,209.8,175.8,207.2,173.2,203.6z M164.1,190.1
		c-1.8-1.4-2.7-3.2-3.6-4.9c-1.3-2.4-2.7-4.7-3.7-7.2c-1.3-3.5-2.9-6.9-4-10.5c-0.5-1.7-1-1.7-2.3-0.5s-1.8,1.3-3.4,0.4
		c-1-0.6-1.9-1.2-2.5-2.2c-2.2-3.8-5.2-7-8.2-10.3c-1.9-2.1-4.1-3.5-6.5-4.8c-0.9-0.5-2-0.8-3.2-0.4c-2.2,0.7-3.6,3.4-2.9,6
		c1.3,4.9,3.9,9.2,7.1,13.1c3.1,3.7,6.6,6.9,10,10.3c2.2,2.1,4.5,4.1,6.8,6c2.5,2.1,5.6,3,8.7,3.9
		C158.9,189.6,161.3,190.3,164.1,190.1z M290.3,196.6c2,0.3,3.3,0,4.7-0.3c1.1-0.2,1.1-0.9,0.5-1.5c-1-1.1-2-2.3-3.3-3
		c-2.2-1.2-4.5-2-6.9-2.5c-1.5-0.3-2.7,0.1-3.9,1.3c-2.2,2.4-3.6,5.3-5.8,7.7c-4.1,4.5-8,9.1-12.6,13.1c-2.8,2.4-2.8,2.9,0.7,4.3
		c1.5,0.6,1.7,0.6,2.3-0.9c0.6-1.6,1.2-3.1,1.8-4.7c0.6-1.3,1.1-2.6,2.4-3.5c2.5-1.8,4.9-3.8,7.5-5.6
		C281.7,198.2,286.2,197.1,290.3,196.6z M239.6,261.3c-2.1-0.3-4.2-0.6-6.4-0.8c-6.4-0.6-12.1-3.1-17.8-5.8c-1.1-0.5-2.1-1-3.4-0.8
		C220.6,258.6,229.5,261.9,239.6,261.3z M188.2,241.1c1.5,0.7,2.9,1.2,4,2c1.2,0.9,2.4,1.3,4,1.8
		C194.8,243.3,190.2,241.1,188.2,241.1z M128.8,141.2c-2.4,0-2.4,0-3.4,1.4C126.5,142,127.6,142.1,128.8,141.2z M217.2,248
		c-0.8-0.8-1.7-0.7-2.9-0.9C215.3,248.4,216.1,248.7,217.2,248z M237.3,256.6c0.6,0.1,1,0.3,1.4,0.3s1,0.3,1-0.3
		c0.1-0.6-0.6-0.6-1-0.7C238.3,256,237.9,256.2,237.3,256.6z M112.9,221.4L112.9,221.4c-0.9-0.1-1.8-0.1-2.7,0v0.1
		C111.1,221.4,112,221.4,112.9,221.4z M143.8,189.6c0.8,0.8,1.5,1,2.3,1.4C145.6,190.2,145,189.9,143.8,189.6z M176.5,236.3
		c0.4,0.5,1.1,0.8,2.3,0.8C177.8,236.8,177.1,236.6,176.5,236.3z M182.9,228.5c0.3-0.9,0.3-1.5,0-2.2
		C182.7,227,182.4,227.6,182.9,228.5z M173.7,235.1c-0.1,0.1-0.2,0.2-0.2,0.3c0.2,0.1,0.3,0.2,0.5,0.3l0.2-0.2
		C174.1,235.2,173.9,235.2,173.7,235.1z M243.2,261.1c-0.3,0-0.5,0-0.8,0c-0.1,0-0.2,0.1-0.2,0.1c0.2,0,0.5,0,0.7,0
		C242.9,261.3,243,261.2,243.2,261.1z M119.6,219.9c0-0.2-0.1-0.3-0.3-0.2c-0.2,0.1-0.3,0.2-0.5,0.4c0.1,0.1,0.2,0.2,0.3,0.2
		C119.3,220.3,119.5,220.2,119.6,219.9z M211.6,247.2c-0.3,0-0.5,0.1-0.5,0.4c0,0.1,0.2,0.2,0.4,0.2s0.5,0,0.5-0.2
		C211.9,247.4,211.7,247.3,211.6,247.2z M209.7,252.1c0.2,0,0.3-0.1,0.1-0.3c-0.1-0.1-0.2-0.3-0.3-0.3c-0.2,0-0.2,0.1-0.1,0.3
		C209.4,251.9,209.5,252,209.7,252.1z"/>
	<path class="st0" d="M215.4,65.4c-1.9,1.3-3.5,3-5.7,3.7c-0.4,0.1-0.9,0.4-1.3,0.7c-1.6,1.1-1.7,1.9-0.1,3.1
		c0.6,0.5,1.4,0.8,2.1,1.2c0.6,0.3,1.4,0.4,1.8,1.6c-2.1-0.9-3.9-1.8-5.6-3.1c-0.4-0.3-0.6-0.7-1.2-0.3c-0.4,0.4-0.5,0.8-0.3,1.3
		c0.4,1.2,1.5,1.6,2.4,2.2c1.4,0.8,2.8,1.6,4.1,2.4c0.7,0.4,1.3,0.9,1.8,1.6c1.4,1.8,1.5,3-0.1,4.7c-1.1,1.2-2.3,2.3-3.6,3.4
		c-2.3,1.9-4.3,4.1-6.4,6.3c-0.3,0.3-0.7,0.9-0.6,1.8c3.4-2.8,6.6-5.5,9.9-8.3c-0.6,1.4-1.5,2.4-2.6,3.2c-2.1,1.6-3.9,3.5-5.7,5.4
		c-0.8,0.8-0.8,1.5-0.2,2.3c0.6,0.7,1.1,1.5,2.1,1.8c0.9,0.3,1.7,0.8,2.5,1.3c-0.5,1.1-1.8-0.5-2.1,0.9c-0.1,0.3-0.5-0.1-0.7-0.3
		c-1.1-0.8-2-1.7-3.2-2.5c-1.7-1.2-1.7-5.6-0.2-7.2c2.4-2.5,5-4.9,7.2-7.6c1.6-2,1.1-5.4-1.2-6.7c-1.2-0.7-2.5-1.4-3.7-2.2
		c-0.9-0.6-1.7-1.3-2-2.3c-0.4-1.2,0-2.1,1.3-2.5c0.6-0.2,1.2-0.4,0.9-1c-0.8-1.4,0.5-1.4,1.2-1.7c0.6-0.3,1-1.6,1.9-0.3
		c0.4,0.5,0.8,0.2,1.3,0c0.8-0.5,1.7-0.9,2.4-1.5C212.9,65.8,214,65.1,215.4,65.4z M211.8,84.1c2.2-2.4,2.1-3.5-0.6-4.7
		C212,81,211.5,82.4,211.8,84.1z"/>
	<path class="st0" d="M256.4,84.8c3.4-0.7,6.3-0.4,9,1.2c0.7,0.4,1.1,1.1,1.3,1.9c0.2,0.9-0.5,1.1-1.1,1.6c-0.7,0.6-1.8,1.2-1.3,2.5
		c0.2,0.7-0.4,0.8-0.9,0.7c-1-0.3-1.2,0.6-1.5,1.1c-0.2,0.4,1.7-0.4,0.6,0.8c-0.4,0.5-0.8,1-1.1,1.6c-0.4,0.6-0.6,1.3-1.6,1.2
		c-0.3,0-0.5,0.2-0.4,0.4c1,1.1-0.2,1.7-0.5,2.5c-0.4,0.9-0.1,1.8,0.9,2.2c1.3,0.5,2.2,1.6,3.6,1.8c-2.2,1-2.9,0.8-5.6-1.4
		c-0.6,1.6-0.6,1.6,3.7,3.7c-1.4,0.3-4-0.2-4.6-1.1c-0.6-0.8-0.6-1.8-0.3-2.7c0.3-0.8,0.5-1.7,0.3-2.6c-0.5-2.3,0.6-4,2.1-5.6
		c1.6-1.6,3.2-3.1,4.8-4.6c0.4-0.4,0.8-0.7,1.1-1.3c0.5-1.1,0.2-1.7-0.9-1.9c-0.9-0.1-2.2,0.5-2.1-1.2c-0.9-0.2-1.9-0.1-2.9,0
		C258.1,85.6,257.2,85.9,256.4,84.8z"/>
	<path class="st0" d="M236.7,85.5c1.1-2.2,0.7-4.3-1.1-5.5c-0.3-0.2-0.5-0.4-0.5-0.7c0.1-1.5,0.3-3.2,1.6-4.1c2-1.4,3.5-3.3,5.4-4.8
		c0.2-0.2,0.5-0.4,0.8-0.5c0.3-0.2,0.6-0.2,0.9,0.1c0.2,0.3,0.3,0.6,0.1,0.9c-0.4,0.6-0.9,1.2-1.4,1.5c-1,0.7-2.3,1.1-2.8,2.4
		c-1.7,0.1-1.2,2.1-2.4,2.6c-0.4,0.1-0.2,0.5-0.1,0.8c0.4,1.2,0.2,2.7,1.5,3.6c0.4,0.3,0,0.7-0.1,1.1l0,0c-1.6,0.2-0.8,1.3-0.4,1.6
		c1,0.8,1,1.8,1.3,2.8c0.1,0.3,0.2,0.8,0,0.8c-1.5,0-1.4,1.2-1.8,2.1c-0.5,1.2-1.5,0.8-2.5,0.7C237.4,88.8,237.8,87.4,236.7,85.5
		L236.7,85.5z"/>
	<path class="st0" d="M217.9,62.1c-0.5-0.2-1,0.5-1.7,0c0.9-1,1.9-1.6,3-2.3c1.6-1,1.7-2.1,0.2-3.4c-0.7-0.7-1.5-1-2.6-1
		c-2.8,0.1-5.5,0.5-8.2,1.2c-0.2,0.1-0.4,0.3-0.6,0.3c-0.9-0.1-2,0.3-2.6-0.8c-0.1-0.2-0.2-0.6-0.1-0.7c0.7-0.6,1.6-0.7,2.4-0.5
		c2,0.4,3.8-0.5,5.7-0.7c1.8-0.2,3.5-0.1,5.2,0c1.1,0.1,2,0.5,2,1.9c0,0.1,0,0.2,0,0.2c1.7,2.3,0.2,3.9-1.2,5.6
		c-0.7,0.8-1.4,1.5-2.2,2.2c-0.2,0.2-0.4,0.1-0.6,0c-0.2-0.2-0.2-0.4-0.1-0.6C217.1,63,217.8,62.8,217.9,62.1c0.5-0.2,1-0.3,1-1.1
		C218.2,61.1,218,61.6,217.9,62.1z"/>
	<path class="st0" d="M238.7,92.9c-0.1,0.3-0.2,0.6-0.3,0.9c-1.3,1.8-1.1,2.6,1.7,3.5c0.7,0.2,1.5,0.3,2.2,0.6
		c-1.1,0.6-2.2,0.3-3.4,0.1c-1.6-0.2-4.4,1.2-5.1,2.6c-0.7,1.4-0.4,2.8,0.9,3.8c0.5,0.4,1.1,0.7,1.7,0.9s1.2,0.4,2.1,0.6
		c-1.9,0.5-3.3,0-4.7-0.7c-1.3-0.7-1.7-3.6-0.9-4.9c0.3-0.5,0.7-0.9,1-1.4c1-1.5,1-1.5-0.3-2.8c-0.2-0.2-0.5-0.4-0.6-0.7
		c-0.2-0.3-0.1-0.7,0.2-0.8c0.2-0.1,0.5,0,0.7,0c0.7,0.4,0.9,1.6,2.1,1.4c0.3-1.3-0.3-2.8,0.9-3.9c0.8,0.4-0.1,1.1,0.4,1.5
		C237.8,93.6,238,92.8,238.7,92.9C238.6,92.8,238.7,92.9,238.7,92.9z"/>
	<path class="st0" d="M184.3,82.2c-0.1,1.7-1.2,2.8-2.1,3.9c-0.5,0.6-0.8,0.9,0,1.7c1.2,1.3,0.7,3.2,0.9,4.8c0,0.2-0.2,0.4-0.4,0.5
		c-0.7,0.5-2.5,0.2-3.4-0.5c-0.9-0.7-1.3-1.7-0.8-2.8c0.8-1.4,0.6-2.4-0.6-3.5c-0.6-0.5-0.9-1.5-0.8-2.4c0.1-0.4,0.1-0.8,0.7-0.7
		c0.3,0.1,0.6,0.4,0.5,0.7c-0.2,0.8-0.1,1.4,0.6,1.9c1.2,0.7,2.1,0.3,2.9-1.1C182.7,83,182.7,83,184.3,82.2z M181.6,88.5
		c-0.2-0.1-0.4-0.1-0.5-0.2c-0.6,0.5-1.1,1.2-1.4,2c-0.3,0.8,0.3,1.2,0.9,1.4c0.7,0.2,1-0.3,1.1-0.9C181.7,90,181.6,89.3,181.6,88.5
		z"/>
	<path class="st0" d="M183.7,96.4c-0.5-0.2-0.9-0.5-1-0.9c-0.1-0.7-1.4-1.4-0.2-2c0.8-0.4,2.3,0.4,2.5,1.2c0.2,0.7,0.4,1.4,0.3,2.1
		c-0.3,1.7,0.3,3.3,0.8,4.8l0,0c-0.1,0-0.2,0-0.2,0c-0.8,0.3-0.7-1.5-1.7-0.7c-0.7,0.6-0.6,1.4-0.6,2.2c0,0.2,0.1,0.4,0.2,0.7
		c0.1,0.4,0.4,0.8-0.2,1c-0.5,0.1-1-0.1-1.1-0.6c-0.1-0.8-0.2-1.7,0.1-2.3C183.6,100,183.9,98.2,183.7,96.4c0.1-0.2,0.4-0.3,0.5-0.4
		c0.2-0.2,0.1-0.5-0.1-0.6c-0.5-0.1-0.2,0.4-0.4,0.6C183.7,96.1,183.7,96.3,183.7,96.4z"/>
	<path class="st0" d="M189.7,70.5c0.2,0.2,0.4,0.6,0.3,0.9c-0.6,1.5-0.9,3.1-1.1,4.7c0,0.4-0.4,0.6-0.8,0.7l-0.2-0.1
		c0.1-0.2,0.1-0.5,0.2-0.7c0.3-0.7,0.7-1.4-0.1-1.9c-0.9-0.6-1.1,0.7-1.7,0.9C186.3,73.9,186.3,73.9,189.7,70.5L189.7,70.5z"/>
	<path class="st0" d="M213.4,76.6c2.8,1.5,3.5,5.1,1.5,7.8c-0.2-1.6,0.5-2.9,0.2-4.2C214.8,78.9,214.5,77.6,213.4,76.6z"/>
	<path class="st0" d="M215.3,62.8c-2.4,1.7-4.1,3.4-6.7,4.4c0.4-1.8,2.1-1.8,3-2.7C212.5,63.7,213.3,62.5,215.3,62.8z"/>
	<path class="st0" d="M188.1,76.8c0.1,0.3,0.3,0.6,0.4,0.9c0.1,0.9-0.7,1.1-1.2,1.5c-0.1,0.2-0.5,0.1-0.6-0.2
		c-0.2-0.6,0.1-1.1,0.5-1.5c0.2-0.3,0.5-0.6,0.8-0.9C187.9,76.6,188.1,76.8,188.1,76.8z"/>
	<path class="st0" d="M238.7,92.9C238.7,92.9,238.6,92.8,238.7,92.9c-0.2-1,0.3-1.9,0.3-2.9c0-0.3,0.2-0.6,0.6-0.6
		c0.4,0.1,0.5,0.4,0.4,0.7C239.6,91.1,239.6,92.2,238.7,92.9z"/>
	<path class="st0" d="M233.9,83.8c-0.6-1.1,0.1-2.1,0.4-3.1C234.6,81.8,234,82.7,233.9,83.8z"/>
	<path class="st0" d="M179.9,80.3c0.5-0.8,0.6-1.9,2.1-2.1C181.7,79.4,181.5,80.5,179.9,80.3L179.9,80.3z"/>
	<path class="st0" d="M186,80.7c-0.1,0.6-0.5,1-1.1,0.9c-0.3,0-0.7-0.2-0.5-0.6c0.2-0.6,0.7-0.9,1.3-0.8
		C185.8,80.3,186,80.4,186,80.7z"/>
	<path class="st0" d="M241.6,63.5c-1.1,0.6-2,0.4-3.2,0.3C239.6,63.1,240.5,63.2,241.6,63.5z"/>
	<path class="st0" d="M214.5,85.3c0,0.9-0.3,1.5-1.5,1.6C213.3,86,213.9,85.6,214.5,85.3z"/>
	<path class="st0" d="M179.9,80.2c0.1,0.8-0.2,1.5-0.8,2.1C178.4,81.1,179.3,80.7,179.9,80.2C179.9,80.3,179.9,80.2,179.9,80.2z"/>
	<path class="st0" d="M236.7,85.4c-0.1,0-0.2,0-0.2,0c-0.7,0.1-1.3,0.1-1.5-0.7c0-0.1,0.1-0.4,0.2-0.4
		C235.9,84.5,236.6,84.6,236.7,85.4C236.7,85.5,236.7,85.4,236.7,85.4z"/>
	<path class="st0" d="M233.4,93.6c-0.1-0.1-0.3-0.2-0.3-0.3c0-0.3,0.2-0.6,0.6-0.7c0.3-0.1,0.5,0.2,0.4,0.4
		C234,93.4,233.7,93.6,233.4,93.6z"/>
	<path class="st0" d="M186.2,101.6c0.4,0.4,0.4,1,0.3,1.5C185.6,102.7,186.3,102.1,186.2,101.6C186.3,101.6,186.2,101.6,186.2,101.6
		z"/>
	<path class="st0" d="M238.6,83.1c0.4,0.3,1.1,0.4,1,1.1c0,0.1-0.3,0.2-0.4,0.2C238.4,84.2,238.7,83.6,238.6,83.1L238.6,83.1z"/>
	<path class="st0" d="M244.3,68.6c0.1-0.3,0.4-0.4,0.7-0.3c0.2,0.1,0.4,0.3,0.3,0.5c-0.1,0.4-0.4,0.4-0.7,0.3
		C244.4,69.1,244.2,69,244.3,68.6z"/>
	<path class="st0" d="M180.9,68.2c-0.1,0.1-0.1,0.3-0.2,0.4c-0.3,0.2-0.6,0.1-0.8-0.2c-0.1-0.2-0.1-0.3,0.1-0.4
		C180.4,67.9,180.7,67.9,180.9,68.2z"/>
	<path class="st0" d="M181.3,69.5c0.1-0.1,0.2-0.2,0.3-0.2c0.3,0,0.6,0.1,0.6,0.5c0,0.1-0.2,0.2-0.3,0.2
		C181.7,70,181.4,69.8,181.3,69.5z"/>
	<path class="st0" d="M189.7,70.4c-0.1-0.1-0.2-0.2-0.3-0.3c-0.2-0.3-0.3-0.5-0.1-0.8c0,0,0.2-0.1,0.2,0c0.3,0.2,0.4,0.4,0.3,0.8
		C189.8,70.2,189.8,70.3,189.7,70.4C189.7,70.5,189.7,70.4,189.7,70.4z"/>
	<path class="st0" d="M260.2,86.5c-0.2,0.4-0.5,0.4-0.8,0.4c-0.2,0-0.5-0.1-0.4-0.4c0.1-0.3,0.4-0.5,0.7-0.4
		C259.9,86.2,260.1,86.4,260.2,86.5z"/>
	<path class="st0" d="M221.8,228.8c0.8-1.4,2.1-1.5,3.4-1.4c0.4,0,0.8,0.3,1.1,0.3s0.7-1,1,0c0.1,0.5-0.4,0.7-0.8,0.6
		C224.8,227.9,223.4,229,221.8,228.8z"/>
	<path class="st0" d="M234.6,227.2c-0.2,0.1-0.4,0.2-0.6,0.3c-0.3,0.1-0.5-0.1-0.3-0.4c0.1-0.1,0.4-0.2,0.6-0.2
		C234.5,226.8,234.6,227,234.6,227.2z"/>
	<path class="st0" d="M240.5,255.7c0.1-0.1,0.3-0.1,0.4-0.2c0.1,0,0.3,0,0.4,0c0.2,0.1,0.2,0.3,0,0.3c-0.1,0-0.3,0-0.4,0
		C240.8,255.8,240.6,255.7,240.5,255.7L240.5,255.7z"/>
	<path class="st0" d="M154.1,124.5c1.4-0.6,2.6-1.5,3.9-2.4c5.4-3.8,11.5-5.8,17.8-7.3c6.9-1.7,13.9-2.8,21.1-3
		c6.7-0.2,13.4-0.5,20.1-0.3c7.8,0.2,15.6,1,23.2,2.7c2.6,0.6,5.4,0.8,8,1.2c5.7,0.9,11.2,2.4,16.7,4c2.4,0.7,4.9,1.5,7.3,2.2
		c5.3,1.5,10.4,3.6,14.4,7.7c1.2,1.2,2,2.7,2.7,4.2c1.2,2.9-0.7,6.6-3.6,7.8c-2.5,1.1-5,2-7.6,2.9c-2.5,0.9-5,1-7.5,1.4
		c-4.5,0.8-9.2,1.2-13.7,1.7c-1.3,0.2-2.7,0-4,0c-7.2,0-14.3,0.7-21.5,0.5c-6.4-0.2-12.8-0.2-19.1-0.4c-6.2-0.2-12.4-0.4-18.6-0.7
		c-2.3-0.1-4.7-0.7-7.1-1c-4.5-0.7-9-1.4-13.5-1.9c-1.6-0.2-2.9-1.2-4.5-1.6c-2.4-0.6-4.8-1.3-7.1-2.1c-2.7-1-5-2.4-6.8-4.6
		c-1-1.2-2.5-2.3-2.3-4c0.2-1.6,0.2-3.4,1.1-4.9C153.9,125.9,154.2,125.2,154.1,124.5C154.2,124.5,154.1,124.5,154.1,124.5z
		 M176,136.5c-0.5-1.8-1.7-0.7-2.6-0.7C174.2,136.5,175.3,135.5,176,136.5c0.4,0.6,1,0.7,1.6,0.9c2.5,0.6,5,0.8,7.5,1.1
		c1.5,0.2,3,0.6,4.5,0.3C185.2,137.6,180.8,135.9,176,136.5z M171.8,141.4c0.6,0.2,1.2,0.7,1.8-0.1
		C173,140.9,172.4,141.3,171.8,141.4c-0.6-0.9-1.8-1.6-1.3-3.1c0-0.1-0.2-0.5-0.4-0.5c-1.6-0.6-3.3-1.3-4.8-0.8
		c-1.1,0.4-1.8,0.3-2.6-0.3c-0.7-0.5-1.6-0.8-2.3-1.3c-1.4-1-3.4-1.6-3.3-4c0-0.9-0.7-1.2-1.5-1c-0.6,0.2-1.3,0.1-1.6,0.7
		c1.4,3.6,4,5.8,7.5,6.9C165,139.2,168.4,140.3,171.8,141.4z M263.3,129.5L263.3,129.5c1.2,0.6,2.5,0.8,3.5,1.8
		c1.2,1.2,1.1,2-0.5,2.7c-0.2,0.1-0.4,0.2-0.7,0.2c-3.3,0.5-6.5,1.6-9.9,0.3c-0.8-0.3-1.7-0.3-2.6-0.4c-0.8-0.1-1.4,0-1.7,0.9
		c-0.4,1.4-1.6,1.8-3,1.9c-3.1,0.4-6.2-0.2-9.3-0.1c-0.5,0-0.8-0.3-0.7-0.8s0.4-0.7,0.9-0.6c1.3,0.2,2.5-0.2,3.8,0.2
		c1.9,0.7,3.6,0,5.3-0.7c1-0.4,0.9-1,0.3-1.7c-0.3-0.4-0.7-0.7-1.1-0.8c-1.7-0.4-3.2-1.4-5-1.6c-2.1-0.2-4.1-0.5-6.2-0.8
		c-1.3-0.2-2.5-0.5-3.5-1.4c0.6-0.7,1.3-0.8,2.2-0.9c2.2-0.1,4.4-0.3,6.5-1.4c0.3-0.2,0.7-0.2,1.1-0.3c2.7-0.4,2.2-0.9,1.2-2.9
		c-0.4-0.8-1.2-1-2-1.1c-1-0.2-2-0.4-3-0.6c-0.6-0.1-1.1-0.4-0.9-1.2c0.1-0.6,0.7-0.6,1.1-0.6c2.6,0,5.2,0.7,7.6,1.6
		c1.5,0.6,1.9,1.7,1,2.9c-0.7,0.9-0.3,1.4,0.1,2.1c-3.6,0.9-7.2,1.9-10.9,2.8c1.3,0.6,2.6,1,3.8,0.5c0.9-0.4,1.7-0.3,2.5-0.1
		c1.6,0.3,3.3,0.7,4.9,1c0.7,0.2,1.4,0.3,2,0.8c1.1,0.9,2.4,1.3,3.7,1.5c2.1,0.3,4.3,0.5,6.4,0.7c2.1,0.2,3.8-0.7,5.7-0.9
		c-0.1-1-0.8-1.1-1.4-1.4c-1.3-0.7-2.8-0.5-4.2-0.9c-3.7-1.2-7.5-1.8-11.2-2.2c-1.2-0.1-1.4-0.7-1.4-1.7c2.7-0.5,5.5-0.2,8.2-0.3
		c0.9,0,2,0.1,2.2-0.9c0.2-0.9-1-1-1.7-1.2c-1.1-0.2-2.4-1-2.5-1.8c-0.2-1.1-1-2.6,0.9-3.6c-3.3-0.4-6.1-1.7-9.1-1
		c-0.3,0.1-0.7-0.1-0.7-0.5c0-0.6,0.8-0.2,1-0.7c-2,0-3.8-1-5.9-0.7c1.7,1.8,1.6,2-0.4,2.8c-1.6,0.6-3.3,0.5-5,0.8
		c0.2,0.7,0.3,1.2,0.4,1.7c-0.5,0-0.8-0.7-1.5-0.5c0.5,0.5,0.5,2,1.5,0.4c0.1,0.2,0.4,0.4,0.3,0.6c-0.7,2.4-1.2,4.1-3.9,4.9
		c-1.7,0.5-3.5,1.1-5.2,1.7c-0.3,0.1-0.7,0.2-0.4,0.7c0.1,0.2,0.3,0.5,0.4,0.5c3.5,0.1,6.1,2.2,9.2,3.4c1.2,0.5,1.9,1.5,2.1,2.7
		c0.1,1.2-0.4,2.3-1.8,2.7c-0.6,0.2-1.2,0.5-1.8,0.8c-1.5,0.7-3.1,1.1-3.9,2.9c-0.4,0.8-1.2,1.4-2.3,1.6c-3.4,0.6-6.7,1.4-10.1,1.9
		c-1.4,0.2-3,0.7-4.4-0.5c-0.5-0.4-1.3-0.3-1.8-0.1c-1.2,0.4-2.4,0.4-3.6,0.6c2.8,0.5,5.6,0.5,8.4,0.4c1.2-0.1,2.4,0,3.6,0
		c8.1,0.1,16.1,0.3,24.2,0.1c7.2-0.2,14.5-0.8,21.7-1.3c0.9-0.1,1.7-0.3,2.6-0.4c3.7-0.6,7.4-1.3,11-2.2c2.2-0.5,4-1.4,5.6-2.9
		c0.3-0.3,0.8-1,1.1-0.7c1.1,0.9,1.2-0.2,1.5-0.7c0.8-1.4,0.5-2.8-0.1-4.1c-1.6-3.8-4.9-5.8-8.3-7.5c-0.7-0.3-1.3,0.2-1.6,0.7
		c-0.4,0.5,0.2,0.9,0.5,1.2c0.5,0.5,1.2,0.9,1.7,1.3c0.3,0.3,0.8,0.6,0.3,1.2c-3.6-2-4.1-2.7-3.3-5.3c-0.3-0.1-0.6-0.3-0.9-0.4
		c-4.2-1.8-8.7-2.5-13-4.2c-1.6-0.6-3.2-1.4-4.9,0c-0.3,0.3-0.9,0.1-1.4,0.2c-0.5,0.1-1.2,0-1.2,0.9c0.9,0.3,1.8,0.5,2.7,0.9
		c1.3,0.5,2.3,2.5,1.9,3.8c-0.1,0.4-0.5,0.9-0.8,0.8c-1.5-0.9-2,1.1-3.2,0.9c1.6,0.2,3.2,0.2,4.6,1.2
		C261.5,129.6,262.4,129.5,263.3,129.5z M178.9,135c0.8-0.1,1.5,0,2.3,0.2c3.7,1.2,7.5,2.4,11.3,2.7c3.7,0.2,7.3,0.9,10.9,1.4
		c4.2,0.6,8.4,1.2,12.6-0.4c0.2-0.4-0.1-0.8-0.2-1.3c-0.1-0.3,0-0.6,0.4-0.7c0.3-0.1,0.7,0,0.9,0.2c0.2,0.4,0.4,0.9,0.6,1.3
		c0.3,0.8,1,1.1,1.7,1c2.8-0.6,5.7,0,8.5-0.4c2.4-0.3,4.6-1.2,6.8-2c1.5-0.5,1.5-1.6,0.1-2.4c-3.7-2.3-7.6-3.9-11.9-4.3
		c-2.1-0.2-4.1-0.3-6.2,0c-0.5,0.1-0.8-0.1-0.8-0.6c0-0.5,0.3-0.3,0.6-0.4c2.5-0.6,5.1-0.5,7.4-1.9c2.2-1.3,4.9-1.7,7.3-2.9
		c0.9-0.5,1.2-1,1.1-1.9c-0.1-1.4-0.5-1.9-2.4-2.2c-2.1-0.4-4.4-0.4-6.4-1.1c-2.1-0.8-4.1-1.2-6.2-1.1c-0.4,0-0.9,0.1-1-0.5
		s0.4-0.8,0.9-0.9c1.9-0.2,3.5-1.2,5.3-1.8c-1.7-1-3.5-1.6-5.4-1.7c-7.3-0.2-14.7-0.4-22,0.1c-4.5,0.3-8.9,1.1-13.3,1.4
		c-1.2,0.1-2.4,0.3-3.5,0.7c-0.9,0.3-2.6-0.2-2.5,1.7c-1.2,0.2-2.4,1.1-3.5,0.7c-1.5-0.5-2.7,0-3.9,0.5c-2.2,0.9-4.2,2.4-6.6,3.2
		c-0.2,0.1-0.5,0.2-0.4,0.5c0.1,0.3,0.3,0.6,0.6,0.7c0.4,0.2,0.7-0.1,1.1-0.3c4.4-1.9,9.1-2.9,13.7-4.2c1-0.3,2.1-0.2,3.1-0.1
		c0.9,0,1.3,0.7,1.3,1.4c0,0.8-0.7,0.7-1.2,0.8c-0.9,0.2-2.1,0.1-1.2,1.7c0.2,0.3-0.2,0.5-0.5,0.7c-1.6,0.9-3.1,1.9-5,1.9
		c-0.3,0-0.8,0.2-0.6,0.7c1.2,0.2,2.5-0.3,3.6,0.5c-3.9,1-8.1,0.7-11.3,3.4c2.3,0.5,5-0.6,7.8,0.6c-2,1.2-3.9,1-5.7,1.5
		c1.2,0.2,2.3,0.3,3.5,0.5c1.1,0.1,2.3-0.3,3.4,0.5c-1.3,1.1-2.8,0.8-4.5,1.3c1.4,0.4,2.4,0.9,3.3,0.9
		C175,134.5,176.9,135.4,178.9,135L178.9,135z M199.8,144.3c5.4,1.5,19-1.1,21-4c-3.7,0.2-2.8-0.3-6.5,1.6c-0.4,0.2-0.9,0.3-1.4,0.2
		c-2.6-0.6-5.2-0.6-7.8-1.3c-1.6-0.4-3.3-0.5-5-0.7c-0.6-0.1-1.5-0.2-1.9,0.1c-1.5,1.2-3.2,0.8-4.8,0.9c-0.7,0-1.6-0.2-2.1,0.9
		c2.9,0.3,5.6,0.8,8.4,0.9c0.8,0,2.1-1.3,2.3,0.3C202.2,144.4,200.5,143.7,199.8,144.3z M197.6,145c0.1-0.6-0.1-0.8-0.3-0.9
		c-1.7-0.3-3.3-1.1-5.1-1c-0.8,0-1.8,0.1-2.2-0.6c-0.8-1.2-1.9-1-3-1c-1.7,0-3.4-0.1-5,0.1c-2.1,0.3-4.2-0.3-6.3,0.4
		C182.9,143.7,190.3,144.6,197.6,145z M223.2,113.6c0.7,0.6,1.4,1,1.6,2c0.1,1,1.1,1.3,1.8,1.3c2.3,0,4.3,0.8,6.3,1.8
		c0.7,0.4,1.4,0.3,1.7-0.7c0.2-0.6,0.5-0.7,1-0.4c1.4,0.8,2.6-0.1,3.8-0.8c-3-0.8-6-1.8-9.1-1.4c-0.6,0.1-1.1,0.1-1.7,0.1
		c-0.3,0-0.7,0-0.7-0.4c-0.1-0.5,0.4-0.6,0.8-0.7c0.2,0,0.4-0.1,1-0.2C227.2,113.9,225.3,113.3,223.2,113.6z M187.8,139.7
		c-4-0.3-7.9-0.3-11.6-1.2c-1-0.2-2.2,0.1-3.2-0.6c-0.5-0.3-1.3,0.1-1.5,0.8c-0.2,0.7,0.3,1.2,0.8,1.2c2.2,0.2,4.2,1.2,6.5,0.9
		C181.7,140.4,184.6,140.6,187.8,139.7z M215.5,144.4c1.6-0.1,3.2,0,4.8-0.3c2.3-0.5,4.6-1.3,7-1.5c0.8-0.1,1.2-0.7,1.8-1
		c0.5-0.2,0.7-0.7,0.4-1.2c-0.2-0.4-0.7-0.4-1.1-0.3c-1.4,0.4-2.8,0.6-4.2,0.4c-0.3-0.1-0.6,0-0.9,0.2
		C221.1,142.7,218.2,143.2,215.5,144.4z M168.3,134.4c0.2-1.4-0.2-2.1-1.5-2c-0.7,0-1.6-0.1-1.9-0.8c-0.5-1.5-1.6-0.9-2.6-1
		c-1.2-0.1-1.9,0.4-2.3,1.6c0.9,0.4,1.8,0.9,2.7,1.1C164.5,133.8,166.3,134.1,168.3,134.4z M176,121.4c-1.7-0.4-3.2,0.5-4.8,0.7
		c-2.2,0.2-4.1,1.2-6.1,2.1c-0.9,0.4-0.9,0.9-0.6,1.6C168.2,123.7,172.3,123.2,176,121.4z M158.2,123.7c-2.5,1.6-3.6,3.2-4,5.3
		c1-0.9,3.3-0.4,2.3-2.8c-0.1-0.2,0.3-0.5,0.5-0.7C157.6,125,158,124.4,158.2,123.7z M246.1,122.4c-0.4,0.1-0.8,0.3-0.8,0.7
		c0,0.7,0.7,0.7,1.2,0.9c0.3,0.1,0.5-0.2,0.5-0.5C247.1,122.8,246.7,122.5,246.1,122.4z M192.9,140.2c-0.7-0.2-1.5-0.6-2.4,0
		C191.4,141,192.2,140.8,192.9,140.2z M171,136.4c-1-0.4-1.6-0.5-2.5-0.4C169.2,136.9,169.8,137.4,171,136.4z M161.3,128.6
		c0.8-0.4,1.2-0.5,1.6-0.7C162.4,127.8,162,127.7,161.3,128.6z M195.8,139.7c-0.2,0.1-0.2,0.2-0.1,0.3c0,0.1,0.1,0.1,0.1,0.2
		c0.2,0.1,0.3,0,0.3-0.2C196,139.8,195.9,139.8,195.8,139.7z"/>
	<path class="st0" d="M130.2,178.3c1.1,0.2,1.2,1.4,2.2,2c-1.6,0.1-1.8-1.1-2.4-1.8C130,178.4,130.1,178.4,130.2,178.3z"/>
	<path class="st0" d="M131.8,171.6c-0.1,0.7-0.2,1.4-1.1,1.5c-0.2,0-0.5-0.1-0.4-0.3C130.5,172.1,131.1,171.8,131.8,171.6
		C131.8,171.7,131.8,171.6,131.8,171.6z"/>
	<path class="st0" d="M133.4,173.6c-0.1,0.5-0.2,0.9-0.6,1.2c-0.3,0.3-0.7,0.5-1,0.1c-0.3-0.4,0.2-0.7,0.5-0.9
		C132.6,173.8,133,173.7,133.4,173.6C133.2,173.5,133.4,173.6,133.4,173.6z"/>
	<path class="st0" d="M129.2,176.9c0.5,0.3,1,0.7,1,1.4c-0.1,0.1-0.1,0.1-0.2,0.2c-0.8-0.2-0.8-0.9-1-1.5L129.2,176.9z"/>
	<path class="st0" d="M129,177.1c-0.2-0.2-0.4-0.3-0.5-0.5c-0.1-0.2-0.1-0.5,0-0.6c0.2-0.2,0.4,0,0.5,0.2s0.1,0.4,0.2,0.7L129,177.1
		z"/>
	<path class="st0" d="M204.4,117c0.3-0.1,0.6-0.2,0.8-0.5c1.5-1.5,3-1.7,4.7-0.4c0.8,0.6,1.5,1.2,2.2,1.8c-0.2,0.5-1,0.2-1.1,1
		c0.8,0.8,2.1,0.9,3,1.6c1.7,1.4,1.7,2.3-0.3,3.2c-0.9,0.4-1.5,1.1-2.3,1.5c-4.7,2.9-10,3.3-15.3,4.2c1.5,1.1,1.5,1.1,6.2,1.1l0,0
		c0.2,0.4,0.4,1.1-0.3,1c-2.4-0.3-4.9,0.2-7.3-0.6c-1.1-0.4-2.3-0.6-3.5-0.3c-1.2,0.4-2.6,0.2-3.8,0.4c-2.3,0.5-4.3-0.2-6.3-1.1
		c-0.4-0.2-0.9-0.3-1.4-0.4c-0.4-0.1-0.7-0.4-0.7-0.9c0.1-0.6,0.5-0.5,0.9-0.5c2.5,0.1,4.9,0.2,7.4,0.5c2.4,0.3,4.8-0.3,7.1-0.6
		c0.6-0.1,1.3-0.1,1.8-0.3c0.9-0.3,1.9,0.7,2.9-0.5c0.5-0.6,2.2,0,3.2-0.4c3.2-1.3,7-1.4,9.6-4.3c-1.3-1.1-2.8-1.8-3-3.6
		c-0.1-0.7-0.8-0.7-1.3-0.9C206.7,117.7,205.4,117.6,204.4,117L204.4,117z M206.2,116.5c1.3,0.9,2.3,1.2,3.9,1.3
		C208.8,116.8,207.8,116.4,206.2,116.5z M212.1,120.8c-0.2,0-0.3,0.1-0.2,0.3c0.2,0.3,0.4,0.4,0.8,0.4c0.2,0,0.3-0.1,0.2-0.3
		C212.7,120.9,212.5,120.8,212.1,120.8z"/>
	<path class="st0" d="M208.6,130.4c0.2-1,0.9-1.1,1.8-1.1c1,0,1.8,0.5,2.5,1.2c0.2,0.2,0,0.9-0.1,1.3c-0.1,0.7-0.6,0.3-0.9,0.3
		c-0.3,0-0.6,0.1-0.9,0.1c-0.6,0-1.4-0.1-1.5-0.9c-0.1-0.6,0.8-0.5,1.2-0.8C209.9,129.7,209.2,130.3,208.6,130.4
		C208.5,130.3,208.6,130.4,208.6,130.4z"/>
	<path class="st0" d="M202.3,130.5c0.2-0.4,0.7-0.5,1-0.3c1.7,0.8,3.5,0.5,5.2,0.1l0,0c0,1.2-1,1.5-1.7,2.1
		c-0.6,0.5-1.3-0.2-1.9-0.5C204,131.5,203.3,130.7,202.3,130.5L202.3,130.5z"/>
	<path class="st0" d="M203.4,115.6c-0.2-0.4-1.1-0.3-0.9-0.9c0.1-0.6,0.8-0.7,1.4-0.5c0.2,0.1,0.4,0.2,0.6,0.3
		c0.3,0.2,0.8,0.2,0.8,0.7c-0.1,0.6-0.6,0.4-0.9,0.4C204,115.6,203.7,115.6,203.4,115.6L203.4,115.6z"/>
	<path class="st0" d="M216.3,136.2c-0.7,0.5-1.2,0.2-1.4-0.6c-0.2-0.7-1.8-1.2-0.9-1.8c1-0.7,1.2,0.8,1.7,1.4
		C216,135.5,216.4,135.7,216.3,136.2z"/>
	<path class="st0" d="M214.7,128.1c1.7-0.7,2.9-0.4,4.1-0.4C217.6,128.2,216.4,128.3,214.7,128.1z"/>
	<path class="st0" d="M178.9,135c-0.7-0.5-1.4-0.9-2.2-1.4C178.4,133.2,178.4,133.2,178.9,135L178.9,135z"/>
	<path class="st0" d="M189,117.1c-0.7,0.7-1.2,1.1-1.9,0.8c-0.1,0-0.2-0.3-0.1-0.4C187.3,116.6,188,116.9,189,117.1z"/>
	<path class="st0" d="M203.4,115.6c0.1,0.7,1,0.8,1,1.5l0,0c-0.3,0-0.6,0-0.9-0.1C202.5,116.6,202.5,116.4,203.4,115.6L203.4,115.6z
		"/>
	<path class="st0" d="M183.4,120c1.1-0.7,1.1-0.7,2.2,0.2C184.7,120.6,184.1,120,183.4,120L183.4,120z"/>
	<path class="st0" d="M183.3,120c-0.3,0.1-0.5,0.3-0.8,0.4c-0.4,0.1-0.6-0.1-0.6-0.5c0-0.1,0-0.3,0.1-0.4c0.3-0.3,0.5,0,0.8,0.2
		C183,119.7,183.2,119.9,183.3,120C183.4,120,183.3,120,183.3,120z"/>
	<path class="st0" d="M272.9,131.1c0.8,0.7,1.8,0.9,2.8,1.2c0.9,0.3,1.3,0.8,1.3,1.8c-0.1,0.9-0.4,1.5-1.3,1.7c-2.1,0.6-4-0.3-6-0.5
		c-0.3,0-0.4-0.4-0.4-0.8c0.1-0.4,0.3-0.8,0.7-0.8c0.5,0,0.9,0.1,1.4,0.2c0.7,0.1,1.4,0.3,1.9-0.3c-0.1-0.6-0.6-0.5-0.9-0.8
		c-0.4-0.4-1.2-0.4-1-1.2C271.7,131,272.4,131.3,272.9,131.1L272.9,131.1z"/>
	<path class="st0" d="M264.9,141.6c1.4-1.7,1.4-1.7-0.6-3.7c1.2,0.6,2.4,0.2,3.6,0c2.3-0.5,4.6-0.5,6.8,0.2c0.7,0.2,1.3,0.4,1.9,1
		c1.1,1.1,1.2,1.2-0.3,2.7c0.2-2-1-2.8-2.6-3.1c-1.7-0.3-3.4-0.8-5.2-0.2c-1,0.3-1.8,0.6-1.8,1.9
		C266.9,141.5,266.3,142.1,264.9,141.6z"/>
	<path class="st0" d="M248.5,138.2c1.1-0.8,2.2-0.3,3.1,0c1.3,0.5,2.6,1,3.9,1.6c0.5,0.2,0.9,0.7,1.2,1.1c0.7,1,0.6,1.3-0.6,1.7
		c-1.8,0.6-3.7,0.7-5.6,1.1c0.1-0.9,0.8-0.9,1.4-1c0.8-0.1,1.6-0.1,2.3-0.5c0.5-0.3,1.4-0.2,1.3-1.1c-0.1-0.7-0.8-1-1.4-1.2
		C252.3,139.6,250.5,138.6,248.5,138.2z"/>
	<path class="st0" d="M269.9,127.7c0.7,0.6,0.8,1.4,0.5,1.6c-0.7,0.5-1.6,0.5-2.6-0.1C268.5,128.5,269.5,128.6,269.9,127.7z"/>
	<path class="st0" d="M263.3,129.5c-0.2-0.7,0.1-1.1,0.8-1c0.9,0.1,1.8,0.3,3.1,1.2C265.5,129.6,264.4,129.5,263.3,129.5
		C263.3,129.4,263.3,129.5,263.3,129.5z"/>
	<path class="st0" d="M272.9,131.1c0.7-0.7,0.7-0.7,2-0.3C274.2,131.6,273.5,130.9,272.9,131.1L272.9,131.1z"/>
	<path class="st0" d="M261.2,137.1c0.1-0.1,0.3-0.2,0.4-0.2c0.2,0,0.4,0.2,0.3,0.5c0,0.1-0.3,0.1-0.4,0
		C261.3,137.4,261.2,137.2,261.2,137.1z"/>
	<path class="st0" d="M234.4,143.5c-0.2,0.1-0.4,0.3-0.6,0.3c-0.2,0.1-0.3-0.1-0.3-0.2c0.1-0.2,0.3-0.3,0.5-0.4
		C234.1,143.2,234.2,143.4,234.4,143.5z"/>
</g>
<path class="st0" d="M131.2,8.2c-0.8,1-1.7,2-2.5,3c-1.6,2.1-3,4.3-4.1,6.6c-1.3,2.8-2.7,5.7-3.8,8.6c-0.3,0.9-0.4,1.8,0.5,2.4
	c0.9,0.5,1.6,0,2.3-0.6c1.3-1.2,2.1-2.7,2.8-4.3c1.1-2.5,2.1-5.1,3.5-7.5c0.4-0.8,0.9-1.5,1.4-2.2c0.3,0,0.2,0.1,0.2,0.2
	c-1.9,6.9-2.3,13.9-2.3,21c-0.1,10.3,1.5,20.4,3.8,30.4c0.8,3.7,1.7,7.3,3.2,10.8c1,2.3,2.1,4.7,3.7,6.7c0.4,0.5,1,1.4,1.5,1.2
	c0.6-0.2,0.1-1.2,0-1.8c-0.6-4.2-2-8.1-3.1-12.1c-3.8-14.8-6.2-29.7-5.1-45.1c0.2-3.3,0.5-6.5,0.9-9.7c0-0.4,0-0.9,0.3-1
	c0.4-0.2,0.6,0.4,0.8,0.7c2.4,2.7,4.7,5.5,7.6,7.7c0.2,0.1,0.4,0.3,0.6,0.4c0.8,0.6,1.7,1.1,2.4,0.2c0.8-0.9,0.1-1.8-0.5-2.4
	c-2.8-2.7-5-5.8-7.5-8.7c-0.9-1.1-1.8-2.2-2.5-3.5c-0.7-1.4-1.8-2.1-3.4-1.7C131.8,7.7,131.5,8,131.2,8.2z"/>
<g>
	<path class="st0" d="M376.7,79c1,0.1,2,0.1,3,0.2c0.3,0,0.7-0.1,0.8,0.3c0.1,0.4-0.4,0.5-0.6,0.7c-3,2-6.3,3.3-9.6,4.5
		c-5.5,1.9-11,3.9-16.2,6.6c-6.8,3.5-12.9,7.9-18.7,12.9c-3.5,3.1-6.7,6.5-10,9.8c-0.5,0.5-1.1,1.1-1.8,1.4
		c-0.9,0.4-1.7,0.4-2.4-0.4c-0.6-0.8-0.4-1.6,0.2-2.3c10.8-13.4,23.8-23.7,40.1-29.6c4.7-1.7,9.4-3.2,14.3-3.9
		C376,79,376.4,79,376.7,79C376.7,79,376.7,79,376.7,79z"/>
	<path class="st0" d="M369.5,70.7c0.2,0,0.4,0,0.6,0.1c5.8,1.8,11.8,3.1,17,6.4c0.6,0.4,1.1,0.7,1.7,1.2c1.5,1.3,1.7,2.6,0.4,4.2
		c-1.4,1.7-3,3.2-4.7,4.6c-1.6,1.3-3.3,2.7-4.9,4c-0.6,0.5-1.3,0.9-2.1,0.8c-1.6-0.1-2.2-1.8-1.3-3.3c0.8-1.2,2-2.2,3.1-3.2
		c1.4-1.2,2.8-2.3,4.2-3.6c1.2-1.1,1.2-1.1-0.3-1.9c-2.3-1.3-4.8-2.3-7.3-3.1c-2.2-0.7-4.4-1.5-6.4-2.6c-0.3-0.2-0.7-0.4-1-0.6
		c-0.7-0.4-1.3-1-1-1.9C367.8,70.8,368.6,70.7,369.5,70.7z"/>
</g>
<g>
	<path class="st0" d="M19.7,223.5c2.4,1.4,4.1,3.2,5.8,5c4.5,4.8,8.8,9.9,13.4,14.5c6.7,6.7,13.8,12.9,22.1,17.5
		c7.2,3.9,14.7,7.1,22.9,8.1c5,0.6,10-0.2,14.9-0.8c3.4-0.4,6.8-1.2,10.1-2.2c0.9-0.3,1.9-0.2,2.4,0.8c0.4,0.8-0.1,1.9-1.1,2.5
		c-2.2,1.3-4.7,1.9-7.2,2.5c-3.7,0.8-7.4,1.3-11.1,1.8c-7.8,1.1-15.2-0.4-22.5-3.1c-9.4-3.4-17.9-8.5-25.5-15.1
		c-7.3-6.3-14.2-13.1-19.7-21.2c-1.8-2.7-3.4-5.6-4.4-8.7c-0.1-0.3-0.2-0.7-0.3-1C19.6,224,19.7,223.9,19.7,223.5z"/>
	<path class="st0" d="M36.4,228c-3-0.1-6-1.1-8.7-2.7c-2.4-1.5-4.8-3-7.2-4.5c-1.3-0.8-1.3-0.8-1.6,0.7c-1.1,5.8-3.3,11.2-6.5,16.1
		c-0.7,1.1-1.6,2-2.7,2.6c-1.1,0.5-1.4,0.4-1.5-0.8c-0.1-1.2,0.1-2.4,0.6-3.5c0.9-2.2,1.9-4.4,2.9-6.6c1.5-3.3,2.6-6.8,3.3-10.4
		c0.1-0.7,0.3-1.4,0.5-2.1c0.7-1.8,2.1-2.2,3.8-1.4c3.8,2,7.2,4.5,10.7,6.8c1.9,1.2,3.9,2.2,6,2.9c0.3,0.1,0.7,0.2,1,0.4
		c0.6,0.3,1.3,0.6,1.1,1.5C38,228,37.2,227.9,36.4,228z"/>
</g>
</svg>
