<?xml version="1.0" encoding="utf-8"?>
<!-- Generator: Adobe Illustrator 22.0.1, SVG Export Plug-In . SVG Version: 6.00 Build 0)  -->
<svg version="1.1" id="Layer_1" xmlns="http://www.w3.org/2000/svg" xmlns:xlink="http://www.w3.org/1999/xlink" x="0px" y="0px"
	 viewBox="0 0 235.5 202.5" style="enable-background:new 0 0 235.5 202.5;" xml:space="preserve">
<style type="text/css">
	.st0{fill:#4E5D44;}
</style>
<g>
	<path class="st0" d="M99.3,7.8c-2.5,0.9-5,1.8-7.6,2.6c-2.5,0.8-5,1.3-7.5,2c-4.1,1.1-8.1,2.3-12.2,3.5c-3.4,1-6.7,2.2-10.1,3.2
		c-3.5,1-7.1,1.9-10.7,2.8c-3.9,1-7.7,2.1-11.6,3.1c-2.4,0.6-4.9,1.1-7.4,1.7c-1.5,0.4-2.9,0.9-4.4,1.4c-0.9,0.3-1.9,0.4-2.8,0.8
		c-2.4,0.8-4.7,1.7-7,2.6c-0.9,0.3-2,0.6-2.7,1.2c-0.8,0.7-1.3,1.9-0.9,3c1,3,2,6,3.2,8.9c1.6,4,3.4,8,5.2,12
		c0.9,2.1,1.9,4.2,2.9,6.3c1.8,4,3.5,8,5.3,12c0.7,1.5,1.4,2.9,2.1,4.4c0.8,1.7,1.5,3.5,2.2,5.3c0.9,2.3,1.7,4.6,2.5,6.9
		c0.6,1.6,1.2,3.2,1.8,4.8c0.9,2.2,2,4.3,2.9,6.5c0.9,2,1.6,3.9,2.5,5.9c0.5,1.2,1.1,2.5,1.7,3.7c0.3,0.7,0.9,0.8,1.6,0.5
		c2.1-0.9,4.2-1.8,6.3-2.6c2.1-0.8,4.1-1.5,6.2-2.2c3.2-1.1,6.5-2.1,9.6-3.3c2.7-1,5.4-2.4,8.1-3.5c0.7-0.3,1.5-0.3,2.2-0.5
		c1.5-0.5,3-1,4.4-1.6c1.7-0.6,3.4-1.3,5-2s3.2-1.4,4.8-2c0.8-0.3,1.7-0.6,2.6-0.9c3.7-1.3,7.4-2.6,11.1-3.9
		c2.3-0.8,4.6-1.5,6.9-2.4c0.8-0.3,1.4-0.9,2.2-1.1c2.7-0.9,5.5-1.6,8.2-2.5c0.2-0.1,0.5-0.1,0.5-0.2c0.2-1.2,1.3-1.2,2.1-1.6
		c2.8-1.5,5.5-3.1,8.3-4.6c0.6-0.3,1.4-0.5,2-0.8c0.1,0.2,0.3,0.4,0.4,0.7c-2,1.1-4.1,2.1-6.1,3.2c-1.3,0.7-2.6,1.5-3.9,2.3
		c-0.3,0.2-0.8,0.6-0.8,0.8c0.2,0.4,0.5,0.8,0.9,1.1c0.2,0.2,0.4,0.2,0.7,0.3c0.5-1.1,1.3-1,2.2-0.5c0.2,0.1,0.4,0.3,0.6,0.4
		c2,0.2,4.1,0.4,6.1,0.6c0.8,0.1,1.5,0.3,2.3,0.4c3.4,0.2,6.7,0.4,10.1,0.7c0.5,0,1.1,0.4,1.6,0.6c-1.2,0-2.3,0-3.5,0
		c0,0.1,0,0.1,0,0.2c0.4,0.1,0.8,0.3,1.2,0.4c0,0.1,0,0.2-0.1,0.3c-7.3,0.2-14.4-1.4-21.7-2.8c-0.1,1.1-0.3,2-0.3,2.9
		c0,2.2,0.1,4.4,0.1,6.7c0,2.8,0,5.6,0,8.3c0,3.2,0,6.4,0,9.6c0,0.6,0.3,1.4,0.7,1.8c1,1,2.1,1.8,3.1,2.8c1.4,1.4,2.8,2.9,4.2,4.3
		c0.7,0.7,1.3,1.4,2.1,2c1.3,1,2.4,2.1,4.4,1.7c2.1-0.4,4.2-0.3,6.4-0.4c-0.1,0.1-0.1,0.3-0.2,0.4c0.4,0.3,0.7,0.6,1.1,0.8
		c0.1-0.4,0.2-0.9,0.2-1.3c0-0.4-0.3-0.8-0.3-1.1c0-2.3,0.1-4.6,0.2-6.9c0.1-2.1,0.7-4.1,1.8-5.9c0.2-0.3,0.8-0.5,1.1-0.5
		c0.6,0.2,0.8,0.6,0.5,1.3c-0.4,1.1-0.8,2.2-0.9,3.3c-0.3,1.5-0.3,3.1-0.5,4.7c0,0.5-0.1,1,0,1.5c0.3,1.5,0.5,2.9,0.9,4.4
		c0.7,2.5,0.9,5.1,2.5,7.3c1.4,1.9,2.9,3.8,5.5,4.3c2.4,0.4,4.7,1,7,1.9c0.4,0.1,0.8,0.1,1.3,0.2c-1.3,1-2,0.9-11.1-2.1
		c-0.5,1.1,0.9,1,1,1.8c-0.2,0.2-0.3,0.6-0.6,0.8c-0.2,0.1-0.8,0.1-0.9-0.1c-0.7-1.2-1.5-2.4-2.2-3.5c-1.3-2-2.1-4.4-3-6.7
		c-0.7-1.7-1.3-2.3-3.2-2.4c-0.8,0-1.6-0.2-2.5-0.3c-1.7-0.2-3.3-0.5-5.2-0.7c0.3,0.5,0.4,0.7,0.6,0.9c1.3,1.3,2.8,2.6,4,4
		c1.5,1.7,3.4,3.3,1.7,5.9c-0.5,0.8-1.2,1.5-1.9,2.4c0.4,0.7,0.1,1.5-0.2,2.5c-0.7,1.8-1.1,3.8-1.6,5.7c-1.4,1.3-3.3,2.1-4.3,3.8
		c-1.4,0.1-2.8,0.2-3.7,1.6c-0.3,0.4-1,0.7-1.6,0.8c-2,0.4-4,0.6-5.9,0.9c0.6,0.2,1.6,0.3,2,0.8c0.8,1,1.8,1,2.5,0.7
		c1.6-0.7,3.6-0.9,4.7-2.6c0.1-0.1,0.3-0.2,0.5-0.2c1.1,0,1.6-0.6,1.7-1.6c0.6-1.1,1.4-1.9,2.7-2.3c1.6-0.6,1.9-0.8,1.4-2
		c0.1-0.1,0.2-0.1,0.3-0.2c0.6-0.4,1.2-0.5,1.8,0.1s0.1,1-0.1,1.5c-0.1,0.3-0.2,0.6-0.3,0.9c-0.2,0.8-0.3,1.8-0.8,2.5
		s-1.2,1.4-1.9,1.8c-2,0.9-4.1,1.6-6.1,2.4c-0.6,0.3-1.3,0.5-1.9,0.8c0.5,1.5,1.4,1.6,2.5,1.1c0.9-0.4,1.8-0.8,2.7-1.2
		c2.5-1.3,5.1-2.7,7.6-4.1c2-1.1,3.9-2.4,6-3.4c3.2-1.6,6.4-3.2,9.7-4.6c2.3-1,4.6-1.8,6.9-2.7c-0.7,0.5-1.3,0.9-2,1.4
		c0.1,0.1,0.2,0.2,0.2,0.4c0.8-0.5,1.5-0.9,2.3-1.4c0-0.1-0.1-0.2-0.1-0.3c-0.1,0-0.3-0.1-0.4-0.1c0.1-0.1,0.3-0.3,0.4-0.2
		c2,0.6,3.2-1.2,4.8-1.7c1.1-0.3,2.1-1.3,3.1-1.9c1.7-1,3.4-1.9,5.1-2.9c1.1-0.7,2.2-1.6,3.3-2.2c2.1-1.3,3.2-3.3,4-5.5
		c0.2-0.5,0.1-1.1,0.3-1.5c1.3-2.8,1.8-5.8,1.9-8.9c0-2.3-0.3-4.3-2.2-5.9c-1-0.9-1.4-2.4-2.1-3.6c-0.4-0.6-0.7-1.3-1.2-1.7
		c-0.7-0.5-1.5-1-2.3-1.2c-1.4-0.4-2.9-1-4.2-0.7c-3.2,0.6-6.3,1.7-9.5,2.7c-0.8,0.3-1.3,0.3-2-0.1c-3.1-1.9-6.3-1.8-9.6-0.3
		c-0.4,0.2-0.7,0.2-1.1,0.4c-0.5,0.2-1,0.2-1.4,0.5c-0.7,0.4-1.4,0.9-2.1,1.4c0.4-2,2.3-2.6,3.3-4c0.5-0.7,2.2-0.7,3.4-0.7
		c1.8-0.1,3.6,0.1,5.2,0.2c-0.3-2.2-0.6-4.4-0.9-6.6c0.6,0.3,1.8-0.7,1.4,0.6c-0.5,2.1,0,4,0.2,6.1c1.9-0.5,2.4-1.3,2.2-3
		c-0.3-2.1-0.7-4.3-0.7-6.5c0-2.8-0.8-5.4-0.6-8.2c0-0.3-0.1-0.5-0.2-0.8c-0.1,0-0.2,0-0.4-0.1c-1.2,2.4-2.5,4.8-3.8,7.4
		c-1.9-1.3-3.7-2.5-5.6-3.9c0,5,0,9.7,0,14.3c-0.2,0-0.4,0.1-0.6,0.1c-0.1-0.5-0.4-1-0.4-1.4c0-3.7,0.1-7.3,0-11
		c-0.1-3-0.5-3.5-2.7-3.9c-0.4-0.1-0.9,0-1.3,0.1c-0.7,0.1-1.4,0.3-2.2,0.5c-0.1-0.1-0.1-0.2-0.2-0.3c0.2-0.1,0.4-0.3,0.7-0.4
		c1-0.3,2.1-0.5,3.1-0.8c0.9-0.3,1.8-0.7,2.7-1.2c3.1-1.8,6.2-3.7,9.4-5.6c1-0.6,2.9,0.4,2.8,1.6c-0.3,2.5,0,4.9,0.4,7.4
		c0.1,0.8,0,1.5,0.7,2c0.1,0.1-0.1,0.5-0.2,0.8c0,0.2-0.2,0.3-0.2,0.5c0,1.2,0,2.4,0,3.6c0.2,0,0.3,0.1,0.5,0.1
		c0.5-1.2,1.1-2.4,1.6-3.7c-0.4-0.2-0.7-0.3-1.1-0.5c0-0.1,0-0.3,0-0.4c0.5,0,1-0.1,1.5-0.1c0.7-1,1.5-2,2.1-3.1
		c0.7-1.2,1.3-2.4,1.9-3.6c0.2-0.3,0.3-0.7,0.5-0.9c0.3-0.2,0.7-0.3,1-0.5c0.1,0.4,0.3,0.8,0.1,1.2c-0.8,2.1-1.7,4.3-2.6,6.4
		c-0.3,0.7-0.4,1.5-0.6,2.4c0.9-0.3,1.7-0.6,2.5-0.9c0.2,0.4,0.3,0.8,0.4,1.1c-1.1,0.7-2.6,1-2.7,2.7c1.4-0.4,2.4-1.2,2.7-2.7
		c0.8,0.3,1.5,0.5,2.5,0.9c-0.2,0.3-0.4,0.4-0.6,0.6c0.3,0.2,0.7,0.4,1,0.6c0.4,0.4,1.2,0.7,1.2,1.1c0,0.5-0.5,1.2-0.9,1.6
		c-1.4,1.3-3,2.6-4.4,3.8c0.1,0.1,0.1,0.2,0.2,0.3c0.5,0,1-0.2,1.5-0.1c0.6,0.1,1.2,0.4,1.8,0.6c1.6,0.5,3.1,1.3,4.7,1.6
		c2.1,0.4,3.4,1.8,4.3,3.5c0.9,1.6,1.9,3.1,3,4.5c0.9,1.2,1.2,2.9,1.6,4.4c1,4.1-0.3,8-1.3,11.9c-0.2,0.7-0.6,1.3-1.1,2.3
		c1.6-0.9,3-1.6,4.3-2.4c0.3-0.2,0.6-0.3,0.9-0.5c2.3-1.1,4.6-2.1,6.8-3.3c2.1-1.1,4.1-2.3,6.2-3.5c1.3-0.7,2.7-1.2,4-1.9
		c0.7-0.4,1.2-0.9,1.9-1.3c1-0.5,2-1,3-1.5c0.4-0.2,0.9-0.3,1.2-0.5c0.3-0.3,0.6-0.8,0.9-0.9c1.6-0.4,2.5-1.9,4-2.5
		c0.4-0.2,0.8-0.4,1.2-0.6c0.1,0,0.4,0.4,0.4,0.6c-0.2,0.5-0.3,1.2-0.7,1.4c-2.7,1.6-5.4,3.1-8.1,4.6c-2.4,1.3-4.8,2.7-7.2,4
		c-1.6,0.9-3.2,1.7-4.8,2.6c-1.2,0.7-2.3,1.5-3.4,2.2c-1.5,0.9-3.1,1.7-4.7,2.5c-3.2,1.8-6.4,3.6-9.6,5.2c-1.7,0.9-3.6,1.7-5.3,2.5
		c-0.7,0.3-1.4,0.7-2.1,1.1c-3.1,1.8-6.3,3.7-9.4,5.5c-0.3,0.2-0.8,0.2-1.2,0.3c-0.8,0.2-1.6,0.1-2.2,0.8c-0.5,0.5-1.4,0.7-2.1,1.1
		c-2.1,1.1-4.3,2.2-6.4,3.4c-2.3,1.3-4.6,2.8-7,4.1c-0.5,0.3-1.1,0.2-1.7,0.2c-0.1-0.1-0.1-0.3-0.2-0.4c0.4-0.3,0.7-0.5,1.1-0.8
		c0.7-0.5,1.3-1,1.9-1.5c1.7-0.3,3-1.3,4.1-2.5c-1.4,0.9-2.8,1.7-4.1,2.6c-1.5,0.9-3.1,1.7-4.6,2.6c-3.5,1.9-6.9,3.8-10.4,5.6
		c-0.4,0.2-0.9,0.2-1.4,0.2c-1.2,0.1-1.6,0.5-1.5,1.7c0.4,3.6,0.9,7.3,1.1,10.9c0.1,2.8-0.2,5.7-0.2,8.6c0,1.1,0,2.2-0.1,3.3
		c-0.1,2.1-0.2,4.1-0.2,6.2c0,2.1,0,4.3,0,6.6c1.5-1.5,3.8-1.1,5.1-2.9c0.4-0.5,1.5-0.5,2.2-0.9c2.8-1.8,5.5-3.6,8.3-5.4
		c1.4-0.9,2.9-1.7,4.4-2.5c3.3-1.8,6.6-3.6,10-5.5c2.8-1.6,5.6-3.3,8.6-4.6c1.3-0.6,2.1-1.5,3.3-2.2c0.1,0,0.1-0.1,0.3-0.5
		c-0.6-0.5-1.2-1.1-2-1.4c-2.8-1.1-5.7-1.9-8.4-3.2c-3.1-1.5-4.3-2.8-3.3-6c0.7-2.4,1.6-2.6,3.6-1.8c4,1.5,8,3.1,12,4.7
		c2,0.8,4.1,1.5,6.1,2.3c1.4,0.5,2.7,0.4,4-0.6c0.7-0.6,1.6-0.8,2.4-1.2c0.7-0.3,1.6-0.2,1.6-1.3c0-0.1,0.2-0.2,0.3-0.2
		c2-0.1,3.1-1.8,4.8-2.5c2.9-1.2,5.7-2.6,8.6-4c0.3-0.1,0.6-0.1,1-0.1c-0.2,0.3-0.2,0.6-0.5,0.8c-1.9,1.2-3.9,2.3-5.8,3.4
		c-1.6,0.9-3.2,1.8-4.9,2.6c-1.8,0.9-3.5,1.8-5.3,2.7c-0.3,0.2-0.6,0.5-0.9,0.7c0.3,1.3,1.3,1.2,2.3,1.4c2,0.3,4,0.7,6,1
		c1,0.2,2.2,0.6,3,0.3c1.8-0.7,3.4-0.2,5.1-0.2c0.6,0,1.3-0.3,1.9-0.5c0.2-0.1,0.4-0.3,0.6-0.3c1.6,0.1,2.7-0.9,4-1.5
		c0.8-0.4,1.4-1.2,1.9-1.6c-0.1-1-0.1-1.7-0.2-2.5c-0.1-0.4-0.1-1-0.4-1.3c-2.9-3.6-6.7-6-10.7-8.1c-2.6-1.3-5.3-2.4-8-3.6
		c-1.9-0.9-2.7-2.1-2-4.1c0.6-1.6,1.4-3.2,2.2-4.7c0.1-0.2,0.8-0.4,1-0.2c1.3,0.6,2.7,1.2,4,1.9c2.3,1.2,4.6,2.4,6.8,3.7
		c2.3,1.3,4.6,2.7,6.7,4.2c1.2,0.9,2.3,0.6,3.1-0.2c1.6-1.4,3.6-1.9,5.6-2.6c1.2-0.5,2.4-1,3.5-1.6c0.3-0.1,0.5-0.5,0.7-0.8
		c0.3,0.1,0.7,0.1,1.1,0.2c0.2,1.5-1.1,1.8-1.9,2.2c-1.7,0.9-3.5,1.7-5.3,2.2c-1.3,0.4-2.3,1.4-3.5,1.8c-0.6,0.2-0.5,0.6-0.1,1.1
		c2,2,4.4,3.6,5.8,6.2c0.4,0.9,0.8,1.8,0.9,2.8c0.3,3.3-0.5,6.1-3,8.5c-3.2,3-6.9,4.9-11.3,5.4c-3.1,0.4-6.3,0.8-9.4,0.7
		c-3.3-0.1-6.5-0.9-9.7-1.5c-1.8-0.3-3.6-0.6-5.3-1c-1.4-0.3-2.8-0.7-4.2-1.3c-1.3-0.5-2.3-0.3-3.5,0.4c-1.8,1.3-3.9,2.2-5.8,3.3
		c-2.8,1.5-5.5,3-8.3,4.5c-3.1,1.7-6.3,3.3-9.4,4.9c-2.7,1.5-5.3,3.1-7.8,5c-2.6,2-5.6,3.4-8.5,5c-0.7,0.4-1.7,0.3-2.4,0.7
		c-2,1.1-4.1,0.4-6,0c-1.7-0.3-3.2-1.4-4.7-2.3c-2.9-1.6-5.7-3.4-8.5-5.1c-1-0.6-1.8-1.5-3-2c-1.3-0.7-2.5-1.7-4-2.2
		c-0.7-0.2-1.4-0.6-2.1-1c-0.1-0.2-0.2-0.5-0.4-0.7c-1.4-1-2.7-2-4.2-2.9c-1.3-0.7-2.7-1.2-3.9-1.9c-1.9-1.1-3.8-2.3-5.7-3.5
		c-3.4-2.1-6.8-4.1-10.1-6.2c-2.8-1.8-5.6-3.7-8.4-5.5c-1.8-1.1-3.6-2.2-5.1-3.1c-0.2,0.7-0.4,1.4-0.7,2.1c-0.3,0.6-0.7,1.1-1.1,1.5
		c-2.7,3.1-5.4,6.1-8.2,9.2c-0.4,0.4-0.9,0.6-1.4,0.8s-0.9,0.5-1.4,0.5c-0.8,0-1.7,0-2.5-0.3c-1-0.4-1.9-1.1-2.9-1.6
		c-0.8-0.4-1.7-0.7-2.6-1.1c-0.4-0.2-0.8-0.4-1.2-0.5c-1.2-0.3-2.4-0.6-3.7-0.9c-0.2-0.1-0.5,0-0.7,0c-2.7-0.9-5.4-1.7-8.1-2.6
		c-3.4-1.2-6.7-2.5-10.1-3.6c-2.1-0.7-4.2-1.2-6.3-1.8c-1.1-0.4-2.2-0.8-3.3-1.3c-2.5-1.1-5.1-2.2-7.5-3.5c-1.4-0.7-2.8-1.7-4.1-2.5
		s-1.7-2.2-2.2-3.6c-1.3-3.6,0.8-5.7,3.1-7.8c1.3-1.2,2.7-2.3,4.1-3.5c1.8-1.5,3.7-3.1,5.5-4.6c1.2-1,2.4-2.1,3.7-3
		c2.1-1.5,4.2-2.8,6.3-4.3c2-1.4,3.8-3.1,5.9-4.2c3.1-1.6,5.2-4.3,8-6.2c0.4-0.3,0.6-0.7,1-1c0.2-0.2,0.6-0.2,0.9-0.3
		c0,0.3,0.1,0.7-0.1,0.9c-0.6,0.8-1.3,1.7-2.1,2.4c-4.5,3.6-9.1,7.1-13.7,10.6c-2.1,1.6-4.4,2.8-6.4,4.4c-3.4,2.7-6.8,5.5-10.1,8.2
		c-1,0.8-2,1.7-3,2.6c-1.6,1.3-2.2,3-2.2,5c0,1.7,1.1,2.5,2.3,3.4c0.6,0.4,1.1,0.9,1.7,1.2c1.8,1,3.5,2.2,5.5,2.9
		c3,1.2,6.1,2.2,9.1,3.2c2,0.7,4,1.4,6,2.1c1.3,0.4,2.6,0.8,3.8,1.2c2.9,0.9,5.9,1.9,8.8,2.8c2.4,0.7,4.9,0.9,7.2,1.9
		c1.4,0.6,3,0.8,4.3,1.5c1.5,0.7,3,1.5,4.5,2.2c0.3,0.1,0.8,0.1,1.1-0.1c1.1-0.7,2-1.4,2.9-2.5c2.2-2.8,4.6-5.3,7-8
		c0.6-0.7,1.1-1.5,1.6-2.2c-2.1-2.3-4.7-3.7-7.5-4.8c-0.6-0.2-1-0.8-1.5-1.1c-0.8-0.5-1.7-0.9-2.6-1.4c-1.3-0.7-2.8-1.2-3.9-2.2
		s-2.4-1.4-3.5-2.2c-1.8-1.5-4.1-2.4-5.8-4c-0.8-0.8-1.7-1.5-2.4-2.4c-0.4-0.5-0.3-1.4-0.3-2c0-1.1-0.1-2.2,0-3.3
		c0.1-2.8,0.3-5.7,0.5-8.5c0.2-3.1,0.3-6.2,0.4-9.3c0-0.4-0.1-0.9-0.3-1.1c-1.1-1.1-0.8-2.3,0-3.2c1.5-1.7,1.5-3.3,0.3-5.1
		c-0.6-0.9-1.1-1.9-1.5-2.9c-1.1-2.4-2.3-4.9-3.3-7.3c-1.1-2.6-2.2-5.2-3.3-7.9c-0.5-1.3-0.8-2.8-1.3-4.1c-0.6-1.5-1.3-3-1.9-4.5
		s-1.3-3.1-1.9-4.6c-0.6-1.4-1.2-2.9-1.8-4.3c-1.4-3.1-2.8-6.2-4.3-9.3c-2-4.3-4-8.6-6-12.9c-0.8-1.9-1.7-3.8-2.2-5.8
		c-0.8-2.9-2.3-5.5-3.4-8.3c-0.6-1.7-1.4-3.4-0.6-5.3c0.2-0.4,0.5-1,0.9-1.2c1.4-0.7,2.4-1.7,4-2.2c1.9-0.5,3.7-1.6,5.5-2.3
		c0.5-0.2,1.1-0.1,1.6-0.2c2.5-0.7,4.9-1.4,7.4-2.1c1.1-0.3,2.3-0.5,3.3-0.9C36.8,24,38,24,39.3,24c1-0.1,1.9-0.8,2.9-1
		c1.2-0.3,2.5-0.4,3.7-0.7s2.3-0.8,3.4-1c1.6-0.4,3.3-0.7,4.9-1.1c0.8-0.2,1.5-0.6,2.2-0.8c1.9-0.6,3.8-1.2,5.6-1.7
		c1.8-0.5,3.5-1,5.3-1.4c2.2-0.6,4.4-1.1,6.5-1.7c1.6-0.5,3.2-1.2,4.8-1.7c1.3-0.4,2.7-0.6,4-1c2.2-0.6,4.3-1.4,6.5-2
		c2.6-0.7,5.2-1.4,7.8-2c0.4-0.1,0.9,0,1.4,0.1C98.8,7.5,99,7.7,99.3,7.8z M76.8,117.4c0.1-0.1,0.3-0.2,0.3-0.2
		c-0.3-1.1-0.5-2.2-0.9-3.4c0,1.2,0,2.2,0,3.2c0,0.4-0.2,0.9,0,1.2c0.5,0.8,1.1,1.5,1.7,2.3s1.2,1.6,1.8,2.4
		c-0.2-0.8-0.5-1.5-0.9-2.1C78.2,119.6,77.5,118.5,76.8,117.4z M116.2,149.2c1.1-0.1,2.1-0.2,3.2-0.2c2.4,0.1,4.7-0.1,6.5-2.2
		c-1.8-0.4-3.3,1.6-5,0.3c-1.1,1.1-3.1,1.4-3.9,0.6c-0.3,0.3-0.7,0.5-1.1,0.8c-0.2-1-1.4,0.2-1.7-0.7c-0.3,0.1-0.5,0.2-0.8,0.3
		c0,0.1,0,0.2,0,0.3C114.5,148.6,115.4,148.9,116.2,149.2z M119.6,188.2c0.1,0.1,0.2,0.6,0.5,0.8c1.3,0.9,2.7,1.8,4.1,2.6
		c2.1,1.3,4.3,2.6,6.5,3.8c1.2,0.6,2.4,1.1,3.7,1.6c0.7,0.2,1.7-0.7,1.8-1.4c0.1-2.7,0.2-5.5,0.2-8.2c0-1.4,0-2.7,0.1-4.1
		c0.1-1.9,0.4-3.8,0.4-5.7c0-2.4,0-4.9-0.2-7.3c-0.2-2.6,0-5.2-0.7-7.7c-0.1-0.2,0-0.5,0-0.7c0.2-1.5-0.8-2.6-2.3-2.8
		c-0.8-0.1-1.6-0.4-2.3-0.7c-1.2-0.6-2.4-1.4-3.6-2c-2.2-1-4.5-1.7-6.7-2.6c-1.2-0.5-2.2-1.1-3.3-1.7c-0.6-0.3-1.1-0.6-1.8-0.8
		c-0.8-0.3-1.6-0.3-2.4-0.7c-1.2-0.6-2.4-1.5-3.6-2.1c-2.3-1.1-4.6-2-6.9-3.1c-1.2-0.5-2.3-1.2-3.4-1.8c-0.8-0.4-1.7-0.7-2.6-1.2
		c-1.8-0.9-3.5-2-5.3-2.9c-1.4-0.7-2.9-1.1-4.3-1.8c-1.5-0.7-3-1.6-4.5-2.3c-0.5-0.3-1.1-0.5-1.6-0.7c-2-1-3.9-2.1-5.9-3
		c-2.5-1.2-5-2.2-7.5-3.3c-0.6-0.3-1.1-0.8-1.7-1.3c0.5-0.2,0.7-0.3,0.9-0.4c-7.1-3.9-14.2-7.9-21.4-11.9c-0.2,0.6-0.5,1.2-0.4,1.7
		c0.1,1.6,0.3,3.1,0.5,4.7c0.6,3.2,0.3,6.4,0,9.6c-0.2,3.1-0.3,6.1-0.4,9.2c0,1-0.1,2.2,0.5,2.9c1,1.2,2.3,2,3.6,2.9
		c1.3,0.9,2.7,1.4,3.9,2.4c0.3,0.3,0.6,0.7,1.1,1c0.8,0.4,1.6,0.8,2.4,1.3c1.9,1.2,3.7,2.5,5.7,3.7c2.2,1.4,4.5,2.7,6.7,4.1
		c1.4,0.9,2.6,1.9,4,2.7c1.3,0.8,2.7,1.4,4,2.2c1.9,1.2,3.8,2.6,5.7,3.8c1.9,1.2,3.9,2.2,5.8,3.3c2.8,1.8,5.7,3.5,8.5,5.4
		c1.1,0.8,2.4,1.5,3.6,2.1c2.7,1.5,5.3,2.9,8,4.4c1.3,0.7,2.5,1.5,3.8,2.2c0.6,0.3,1.2,0.5,1.8,0.8c0.8,0.4,1.5,0.9,2.3,1.4
		c0,0-0.1,0.2-0.2,0.3C117.5,187.2,118.5,187.7,119.6,188.2z M146.9,133.4c-0.4-0.4-0.7-0.8-1.1-1.1c-3.3-3.2-6.6-6.5-10-9.7
		c-2.3-2.2-4.9-4.2-7.2-6.3c-1.9-1.7-3.7-3.6-5.6-5.4c-2.7-2.6-5.2-5.4-8.6-7.2c-0.7-0.4-1.4-0.8-1.9-1.4c-1-1.1-2.3-1.1-3.5-0.7
		c-2.9,0.9-5.8,2.1-8.7,3.1c-1.5,0.5-3,1-4.5,1.4c-2.4,0.7-4.9-0.2-7.3,0.2c-2.2,0.4-4.5,0.4-6.7,0.9c-2,0.5-3.4,2-3.8,4
		c-0.8,3.5,0.9,6.4,3.1,8.8c1.6,1.8,3.7,3.3,5.7,4.8c1.1,0.8,2.5,1.4,3.8,2c1.4,0.7,2.8,1.1,4.1,1.9c2.8,1.9,4.2,4.8,5.7,7.7
		c0.5,0.9,1,1.9,1.7,2.5c2.5,1.8,5.3,3.1,7.7,5c1.8,1.4,4.2,0.9,5.8,2.5c0.1,0.1,0.3,0,0.5,0c1.1,0.2,2-0.2,2.9-0.7
		c1.1-0.5,2.4-0.6,3.6-1.1c2.1-1,4.2-2.3,6.3-3.4c0.1-0.1,0.2-0.2,0.4-0.3c0.5-0.5,0.9-1.1,1.5-1.3c1.4-0.6,2.9-1,4.4-1.5
		c2.2-0.7,4.4-1.3,6.5-2c0.9-0.3,1.7-0.8,2.6-1C145.3,134.8,146.4,134.7,146.9,133.4z M126.4,86.3c-0.8,0.1-1.4,0-2,0.2
		c-1.9,0.6-3.8,1.3-5.8,1.9c-0.8,0.3-1.6,0.4-2.4,0.7c-3.2,1.2-6.3,2.7-9.5,3.5c-5.8,1.6-11.4,3.9-16.8,6.3
		c-4.3,1.9-8.7,3.1-13.1,4.6c-0.6,0.2-1.2,0.5-1.8,0.8c1.5,0.5,2.8,0.9,4.1,1.3c0-0.1,0-0.5,0.1-0.5c0.7-0.4,1.5-0.9,2.3-1
		c1.5-0.2,3-0.2,4.5-0.2c0.6,0,1.2,0.2,1.7,0.1c1.1-0.1,2.1-0.2,3.1-0.4c1.7-0.3,3.3,1.2,5.1,0.2c0.8-0.4,1.7-0.6,2.6-0.9
		c1.4-0.5,2.8-1.1,4.3-1.6c1.6-0.5,3.2-0.9,4.7-1.3c-0.1-0.1-0.3-0.2-0.4-0.3c0.3,0,0.6,0,0.9-0.1c1-0.2,2-0.4,3.1-0.5
		c0.4,0,0.9,0.4,1.3,0.8c0.1,0.1,0,0.5,0,0.6c0.4,0.2,0.9,0.3,1.3,0.6c0.7,0.5,1.4,1.2,2.1,1.8c1.2,1,2.4,2,3.6,2.9
		c0.9,0.7,1.8,1.4,2.8,2.1c0.5,0.4,1.1,0.8,1.6,1.2c1,1,1.8,2.2,2.8,3.2c0.1-0.1,0.3-0.1,0.4-0.2c0-8.9,0-17.8,0-26.7
		c-0.1,0-0.2,0-0.3,0C126.4,86,126.4,86.3,126.4,86.3z M208.3,176.8c1.8-0.4,3.3-0.8,4.8-1c4-0.5,7.4-2.2,10.4-4.9
		c2.6-2.3,3.2-5.2,2.3-8.4c-0.6-2-2.1-3.4-3.5-4.9c-2.8-2.9-6-5.3-9.4-7.4c-3.1-1.9-6.4-3.5-9.7-5.1c-2.4-1.2-3.2-1-4.8,1
		c-0.8,1-0.5,2.7,0.7,3.4c1.4,0.7,2.9,1.4,4.4,2c0.8,0.3,1.7,0.4,2.2,1c1.5,1.7,3.9,1.7,5.5,3.4c1,1.1,2.6,1.5,3.8,2.4
		c2,1.5,2,1.5,4.1,1.8c0.1,0,0.2,0,0.2,0.1c0.7,0.8,1.6,1.5,1.9,2.5c0.6,1.4-0.2,2.8-0.8,4.1c-1,1.9-3,2.3-4.5,3.5
		c-0.4,0.3-1,0.6-1.5,0.7c-2.7,0.4-5.4,1-8.1,1.2c-5.5,0.3-10.9-0.6-16.2-2.4c-2.8-1-5.7-1.9-8.6-2.7c-4.3-1.3-8.4-2.9-12.4-4.8
		c-0.4-0.2-1.1-0.1-1.4,0.1c-0.4,0.4-1,1.2-0.9,1.5c0.6,1.3,0.7,2.9,2.5,3.5c2.6,0.8,5,2,7.5,2.8c4.7,1.5,9.5,2.8,14.2,4.1
		c2.8,0.8,5.7,1.5,8.6,1.9C202.6,176.5,205.6,176.6,208.3,176.8z M47.6,114.5c6.3,3.2,12.3,6.2,18.1,9.1c0.6-1,0.8-2.3,1.6-2.8
		c1.2-0.7,0.9-1.3,0.3-2c-0.5-0.8-0.6-1.6,0-2.3c0.7-0.9,0.8-1.6,0-2.6s-0.4-3.3,0.5-3.6c1.1-0.4,1.6-1.2,2-2.2
		c0.3-0.7,0.7-1.4,1.2-2.2C63.4,108.6,55.6,111.5,47.6,114.5z M98.6,141.2c0.1-0.1,0.1-0.2,0.2-0.3c-0.1-0.2-0.1-0.4-0.2-0.5
		c-1-1.3-2.1-2.6-3.1-3.9c-0.6-0.8-1.2-1.7-1.8-2.6c-0.1-0.2-0.2-0.3-0.4-0.4c-1.4-0.6-2.7-1.3-4.1-1.7c-2.5-0.7-4.9-1.5-7-3.1
		c-0.6-0.5-1.2-1.1-1.7-1.7c-0.6-0.7-0.9-1.6-1.6-2.2c-2.6-2.3-4-5.3-5.3-8.4c-0.3-0.6-0.3-1.3,0.6-1.8c0.4-0.2,0.7-1,0.7-1.5
		c0.1-2.2,0.7-4.3,2-6.1c0.2-0.3,0.4-0.6,0.6-1c-1-0.1-1.8-0.3-2.6-0.3c-1.8,0-3.3,0.6-4,2.4c-0.2,0.4-0.4,0.8-0.5,1.2
		c-0.3,0.9-0.8,1.6-1.8,1.9c-0.9,0.3-0.9,1-0.5,1.8c0.2,0.3,0.4,0.6,0.7,0.8c1.5,1.5,2.8,3.1,3.6,5c0.1,0.3,0.5,0.5,0.8,0.6
		c0.8,0.3,1.3,0.8,1.1,1.6c-0.3,1.8,0.7,2.8,2.1,3.7c0.7,0.4,1.3,0.8,1.9,1.2c1.1,0.7,2,1.5,2.3,2.8c0.3,1.1,1,1.4,1.9,1.7
		c1.3,0.5,2.6,1.2,3.8,1.9c0.9,0.5,1.7,1.2,2.4,1.9c1.4,1.4,2.7,3,4.2,4.1C94.7,139.4,96.7,140.2,98.6,141.2z M145.5,140
		c-0.9,0.4-1.3,0.7-1.8,0.8c-2,0.4-3.8,1.5-5.6,2.4c-1.2,0.6-2.4,1.2-3.5,1.8c-2.3,1.1-4.6,2.2-6.9,3.3c-1.8,0.8-3.4,2-5.4,2.2
		c-1.3,0.1-2.6,0.3-3.9,0.5c0.9,0.3,1.8,0.4,2.7,0.5c1.1,0.1,2.2,0.3,3.3,0.2c0.7,0,1.6-0.4,2-0.9c1.1-1.4,2.5-1.9,4.3-2
		c3.1-0.1,6.1-0.7,8.5-2.7c1.2-1,2.3-1.2,3.7-1.1c0.4,0,0.9-0.2,1.1-0.5c0.5-0.8,0.9-1.7,1.3-2.6C145.3,141.3,145.3,140.7,145.5,140
		z M123.7,153c1.1,0.7,2.2,1.4,3.6,1c0.4-0.1,0.9-0.1,1.3-0.1c2.4,0.5,4.6-0.5,6.9-0.9c0.2,0,0.5-0.3,0.6-0.5c0.6-1.6,2-1.5,3.3-1.8
		c0.4-0.1,0.9-0.2,1-0.4c0.4-1.1,1.4-1.4,2.2-1.9s1.3-1.2,1.4-2.3c-0.9,0-1.7-0.1-2.5,0c-0.4,0-0.9,0.2-1.3,0.5
		c-1,0.6-1.8,1.5-2.8,1.8c-2.1,0.7-4.3,1.1-6.5,1.7c-1.1,0.3-2.4,0.3-3.1,1C126.5,152.3,125.3,153,123.7,153z M68.8,115.9
		c-1.2,1.4-1.2,1.5-0.1,3c0.5,0.6,1.1,1.5,0.9,2.1c-0.2,1.3,0.3,2,1,2.8c0.1,0.1,0.1,0.3,0.2,0.4c1.3,1.8,2,4.2,4.8,4.1
		c0,0.7,1.7,2,2.4,1.9c0.6-0.1,1.3-0.2,2.1-0.2c-0.2-0.7-0.2-1.6-0.7-2c-1-0.9-2.2-1.8-3.4-2.4c-1.7-0.8-2.4-2.1-2.6-3.8
		c-0.1-0.7-0.1-1.3-1-1.4c-0.3,0-0.6-0.5-0.7-0.8C71.1,118.1,70.5,116.6,68.8,115.9z M164.6,90.7c1.3-2.5,2.7-5,4-7.5
		c0.2-0.4-0.1-1-0.1-1.5c-0.4,0.1-0.9,0.1-1.3,0.3c-2,1.1-4,2.3-5.9,3.5c-0.8,0.5-1.4,1.1-2.2,1.7C161,88.4,162.8,89.6,164.6,90.7z
		 M174,103.9c1.6-1.4,3.1-2.6,4.5-3.9c0.8-0.8,1.5-1.7,2.2-2.6c0.2-0.3,0.3-0.8,0.1-1.1c-0.1-0.2-0.7-0.4-1-0.3
		c-1.7,0.8-3.5,1.4-4.4,3.3c-0.6,1.3-1.2,2.5-1.7,3.8C173.7,103.2,173.8,103.4,174,103.9z M93.2,131.1c-0.3-0.5-0.3-0.7-0.5-0.8
		c-1.2-0.5-2.4-1-3.6-1.5c-1.5-0.7-3.1-1.3-4.5-2.2s-2.6-2.1-3.8-3.2c-0.1,0.1-0.3,0.2-0.4,0.2c0.1,0.4,0.2,0.9,0.4,1.2
		c0.7,0.9,1.4,1.8,2.3,2.6c0.7,0.6,1.3,1.4,2.5,1c0.4-0.1,0.9,0.2,1.4,0.4C88.8,129.5,90.8,130.3,93.2,131.1z M135.7,141.2
		c-1.9-0.5-3.1,2-4.8,0.8c-0.9,0.6-1.7,1.3-2.8,2.1c0.6,0.2,1.1,0.5,1.4,0.4c1-0.3,2.1-0.6,3-1.1C133.6,142.8,134.5,142,135.7,141.2
		z M176,94.9c-0.2-0.1-0.3-0.1-0.5-0.2c-2.8,1.4-1.6,4.3-2.3,6.5c0.1,0,0.2,0.1,0.3,0.1C174.4,99.2,175.2,97,176,94.9z M68.9,120.9
		c-0.3,0.5-0.5,0.8-0.6,1.1c-0.2,0.7-0.6,1.7-0.3,2.2c0.8,1.4,2.1,2.3,3.6,2.8C70.6,125,68.6,123.6,68.9,120.9z M142.3,139.1
		c-0.1-0.1-0.1-0.2-0.2-0.3c-0.5,0.2-1,0.2-1.4,0.5c-1,0.7-2.4-0.1-3.2,1.2c-0.1,0.3-0.3,0.5-0.4,0.8c0.3,0,0.7,0.1,1,0
		c1-0.4,1.9-0.9,2.8-1.4C141.4,139.6,141.8,139.4,142.3,139.1z M81.1,131.8c0,0.1,0,0.1,0,0.2c1.9,0.9,3.8,1.8,5.7,2.7
		c0-0.1,0.1-0.2,0.1-0.3c-0.6-0.6-1.2-1.3-1.9-1.8c-0.3-0.2-0.7-0.3-1.1-0.4c-0.3,1.1-0.9,0.2-1.4,0.2
		C82,132.1,81.6,131.9,81.1,131.8z M104.9,143.8c0.1-0.1,0.2-0.2,0.3-0.4c-1.4-0.9-2.7-1.8-4.1-2.7c-0.1,0.1-0.1,0.2-0.2,0.3
		C101.6,142.8,103.6,142.8,104.9,143.8z M144,151.5c-0.9-0.6-2.1,0.1-2.6,1.4c0.1,0.1,0.1,0.2,0.2,0.3
		C142.4,152.6,143.2,152.1,144,151.5z M218.1,161.2c0.5,1,1,1.9,1.5,2.9C220,162.8,219.5,161.8,218.1,161.2z M97.4,135.7
		c0.1-0.1,0.3-0.2,0.4-0.3c-0.6-0.9-1.2-1.8-1.8-2.7c-0.1,0.1-0.2,0.1-0.3,0.2C96.3,133.8,96.8,134.7,97.4,135.7z M88.4,127.5
		c0-0.1,0.1-0.2,0.1-0.2c-1-0.6-2.1-1.2-3.1-1.7c-0.1,0.1-0.1,0.2-0.2,0.3C86.3,126.4,87.3,126.9,88.4,127.5z"/>
	<path class="st0" d="M99.3,7.8c-0.2-0.1-0.4-0.2-0.6-0.4c0.2-0.2,0.4-0.4,0.6-0.5c1.9-0.3,3.9-0.8,5.8-0.9c1.8-0.1,3.6,0.5,5.3,1.3
		c1.6,0.8,2.5,2,3.3,3.5c0.8,1.4,1.9,2.7,2.6,4.1c0.8,1.4,1.3,2.9,2,4.4c0.8,1.8,1.7,3.6,2.4,5.4c1.4,3.5,2.8,7,4.3,10.5
		c0.9,2.1,2,4.1,3,6.1c0.5,1,0.8,2,1.3,3c0.9,2,1.9,3.9,2.9,5.9c1.5,3.2,2.9,6.4,4.4,9.6c1,2.1,2,4.2,3,6.3c1.4,2.8,2.9,5.5,4.3,8.2
		c-0.2,0.4-0.5,0.9-0.7,1.3c-0.1,0-0.1,0-0.2,0c-0.1-0.2-0.2-0.3-0.3-0.5c-1.1-1.8-2.2-3.7-3.2-5.6c-0.7-1.3-1.1-2.7-1.8-4
		c-0.3-0.6-0.7-1-1-1.6c-0.3-0.5-0.6-0.9-0.7-1.5c-0.9-3.5-2.5-6.7-4.1-9.8c-1.8-3.3-3.6-6.7-4.7-10.3c-0.5-1.5-1.6-2.8-2.3-4.2
		c-0.8-1.7-1.3-3.4-2-5.1c-0.9-2.3-1.9-4.6-2.8-6.9c-1.3-3.1-2.6-6.2-4.1-9.3c-1.2-2.4-2.7-4.7-4.1-7c-0.9-1.5-2.4-2.2-4-2.5
		c-2.1-0.4-4.3-0.5-6.4,0C100.5,7.7,99.9,7.7,99.3,7.8z"/>
	<path class="st0" d="M22.8,152.3c1.8,0.7,3.5,1.3,5.2,2c2.5,1.1,5,2.2,7.6,3.2c3.2,1.2,6.4,2.2,9.6,3.3c3.7,1.2,7.5,2.4,11.2,3.7
		c1.4,0.5,2.5,0.6,3.5-0.7c0.4-0.5,1-0.8,1.5-1.1c0.2-0.2,0.6-0.1,0.9-0.2c0,0.3,0.1,0.8-0.1,1c-0.9,1-1.9,1.8-2.8,2.8
		c-0.7,0.7-1.3,0.7-2.2,0.2c-1.6-0.7-3.5-1.1-5.2-1.7c-0.6-0.2-1.1-0.4-1.7-0.6c-2.5-0.8-5-1.5-7.4-2.3c-2.7-0.9-5.4-2-8-3.1
		c-3-1.2-6-2.4-9-3.6c-0.7-0.3-1.4-0.5-2.1-0.7C22.5,154.2,22.3,153.7,22.8,152.3z"/>
	<path class="st0" d="M230.7,137.1c0.1,3.1,0.3,6,0.4,9c-0.1,0-0.3,0.1-0.4,0.1c-0.2-0.4-0.6-0.7-0.7-1.1c-0.7-1.7-0.7-3.5-0.7-5.4
		c0-3.4,0-6.8,0-10.2c0-2.5-0.2-4.9-0.2-7.4c0-1,0.3-2,0.4-3c0.2-1.4,0.4-2.7,0.4-4.1c0-0.7-0.6-1.4-0.9-2.2
		c-0.5-1.2-1.3-1.9-2.6-2.1c-0.8-0.1-1.6-0.5-2.7-0.9c0.5-0.4,0.7-0.6,0.9-0.7c0.1,0.2,0.3,0.4,0.3,0.4c0.4,0,0.7,0,1,0
		c0,0.1,0,0.3,0,0.4c1-0.7,1.6-0.4,2.3,0.4c0.8,1,1.9,1.8,2.9,2.7c0.2,0.2,0.4,0.6,0.4,0.8c-0.1,1.7-0.3,3.4-0.4,5.2
		c-0.1,3.2-0.1,6.4-0.1,9.6c0,2.6,0,5.2,0,7.8C230.9,136.9,230.7,137.1,230.7,137.1z"/>
	<path class="st0" d="M143,75.7c0.1,0,0.1,0,0.2,0c0.4-0.1,0.8-0.2,1.1-0.3c0.8,0.2,1.5,0.5,2.3,0.7c2,0.4,4.1,0.7,6.1,0.9
		c1.9,0.2,3.9,0.4,5.8,0.5c2.6,0.2,5.3,0.4,7.9,0.8c0.5,0.1,0.9,0.7,1.4,1.3c-0.5,0.2-0.9,0.4-0.9,0.3c-1-1.2-2.4-0.7-3.6-0.8
		c-4-0.4-8-0.8-12-1.1c-1.6-0.1-3.2-0.2-4.8-0.2s-3.1,0-4.7-0.5c-0.4-0.1-0.9,0-1.4-0.1s-0.9-0.2-1.4-0.3c-0.2-0.8,0.3-0.8,0.8-0.8
		c0.7,0,1.5,0.1,2.2,0.2c-0.2-0.7-0.3-1.4-0.4-2.1c0.1,0,0.2-0.1,0.3-0.1C142.2,74.6,142.6,75.1,143,75.7z"/>
	<path class="st0" d="M209.9,104.4c-0.6-0.1-1.5,0.3-1.8-0.6c-1.4,0.8-2.3-0.6-3.4-0.9c-1.7-0.5-3.3-1.1-5-1.7
		c-1-0.4-2.1-0.7-3.1-1.2c-0.4-0.2-0.6-0.5-1.2-1c1.4,0.2,2.3,0.4,3.3,0.5c-0.1,0.2-0.1,0.4-0.2,0.8c0.4-0.1,0.8-0.3,1-0.2
		c1.3,0.5,2.6,1,3.9,1.5c1.2,0.5,2.3,1.4,3.6,1.5c1.2,0.1,2,0.7,3,1.1C210,104.3,209.9,104.3,209.9,104.4z"/>
	<path class="st0" d="M152.2,86c-0.4-0.2-1.2-0.4-1.5-0.9c-0.2-0.3,0-1.3,0.4-1.6c0.3-0.3,1.1-0.3,1.7-0.4c0.4,0,0.9,0.1,1.1,0.3
		c0.3,0.3,0.7,0.8,0.7,1.2c0,0.4-0.5,0.8-0.8,1.1C153.4,85.8,152.9,85.8,152.2,86z"/>
	<path class="st0" d="M209.9,104.4l0.1-0.1c1.5,0.5,3,0.9,4.5,1.4c0.3,0.1,0.7,0.2,1,0.3c0.2,0.1,0.2,0.4,0.3,0.6l0,0
		c-1.4-0.3-2.8-0.1-4-1.2c-0.3-0.3-1.1-0.2-1.6-0.4C210.1,104.9,210,104.6,209.9,104.4z"/>
	<path class="st0" d="M190.1,97.5c1.5-0.5,3.3,0.1,3.8,1.1C192.6,98.6,191.4,98.4,190.1,97.5z"/>
	<path class="st0" d="M218.4,107.2c1.1,0.3,2.2,0.7,3.4,1c-0.7,0.9-0.8,0.8-3.6-0.8C218.2,107.4,218.3,107.3,218.4,107.2z"/>
	<path class="st0" d="M189.8,97.9c-0.9-0.4-1.7-0.7-2.7-1.1c0.1-0.3,0.3-0.5,0.4-0.7c0.8,0.5,1.6,1,2.4,1.5
		C189.9,97.7,189.8,97.8,189.8,97.9z"/>
	<path class="st0" d="M218.2,107.5c-0.8-0.3-1.5-0.6-2.3-0.9l0,0c1-0.6,1.7,0.1,2.5,0.6C218.3,107.3,218.2,107.4,218.2,107.5z"/>
	<path class="st0" d="M147.3,104.1c-0.4,0.7-0.3,1.4,0.6,1.2c1-0.2,1.8,0.3,2.1,0.9c0.3,0.6,0,1.6-0.3,2.4c-0.2,0.5-0.7,0.8-0.9,1
		c-0.5,1-0.8,1.9-1.2,2.7c-0.2,0.4-0.4,0.9-0.4,1.3c0.1,1.8,0.1,3.5-1.5,4.6c-0.5,0.3-1,0.5-1.6,0.6c-0.7,0.1-1.5,0-2.3,0
		c0,0.6-0.1,1.3-0.1,1.9c-1.9,0-3.8-1.3-4.1-3c-0.2-0.9-0.7-1.4-1.3-2s-1.3-1.4-1.3-2.2c-0.1-0.6,0.7-1.3,1.2-2.1
		c-0.1-0.3-0.7-1-0.6-1.6c0.1-0.7-0.8-1.7,0.6-2.2c0.2,0.5,0.3,1,0.6,1.7c0.5-0.5,0.8-0.9,1.3-1.4c-0.3-0.4-0.5-0.7-0.8-1.1
		c0.2-0.3,0.4-0.6,0.7-0.9c0.4,0.2,0.8,0.4,1.2,0.5c-0.4,1.2-0.4,1.2,1.8,1.1c-0.1-0.9-0.3-1.7-0.4-2.6c-1.5,0.1-3,0.3-4.5,0.5
		c0.1,0.2,0.2,0.6,0.5,1.1c-0.9-0.1-1.4-0.2-1.4-1.1v-0.1c-0.6-1.5,0.2-2.4,1.2-3.2c0.5-0.4,0.8-0.9,1.2-1.3
		c0.9-0.8,1.9-0.8,2.8-0.1c1.1-1.2,1.2-2.2,0.1-3.8c-0.6-0.8-1.4-1.5-2-2.3c-0.8-1-1.6-2.1-2.2-3.2c-0.6-1.1,0.1-2.4,1-2.7
		c0.9-0.2,1.8,0.5,2.2,1.7c0.5,1.4,1.2,2.7,1.7,4.1c0.2,0.5,0.3,1.1,0.5,1.6c0.3,0.8,0.7,1.7,1,2.5c1.7-1.2,3.2-2.3,4.7-3.3
		c1.4-0.9,3.1-0.9,4.7-0.8c0.2,0,0.5,0.2,0.5,0.4c0.1,0.2-0.1,0.4-0.2,0.6c-0.2,0.3-0.6,0.6-0.8,0.9c-0.9,1.2-2.1,1.8-3.7,1.9
		c0.4-0.4,0.7-0.9,1.1-1.2c0.5-0.4,1.1-0.8,1.8-1.2c-1.4-0.4-2.2,0-6.5,3.3c0.6,1.4,0.6,1.4-0.3,2c0.5,1.1,1-0.1,1.6,0
		c0-0.4,0.1-0.8-0.1-1.1c-0.3-0.5-0.6-1,0.2-1.3c0.6-0.2,1.2-0.2,1.9-0.3c0,2-0.2,2.3-1.6,3.6c0.4,0.1,0.7,0.3,1,0.4
		c0.2,0.5,0.3,0.9,0.5,1.3C147.2,104,147.2,104,147.3,104.1z M145.3,116.4c-1.1,0.2-2.1,0.3-3.1,0.4c0.2-0.6,0.3-1.1,0.6-2
		c-0.8,0.7-1.3,1.1-2.2,1.9c1.4,0.4,2.5,0.8,3.6,1C144.6,117.8,145.6,117.5,145.3,116.4c0.3-0.5,0.7-1,0.9-1.5
		c0.2-0.8-0.1-1.3-1.1-0.8c-0.4,0.2-0.9,0.1-1.3,0.1c0,0.3-0.1,0.8-0.1,1.2c0.1-0.1,0.1-0.2,0.2-0.2
		C144.4,115.6,144.9,116,145.3,116.4z M146,104.1c-3.2-0.1-4.1,0.5-4.2,2.3c1.1,1,2.1-0.3,3-0.4C145.3,105.9,145.6,104.8,146,104.1z
		 M141,114.6c0.3-0.2,0.8-0.5,1.1-0.7c-0.5-1.2-1-2.2-1.5-3.2c-0.1-0.1-0.6-0.1-0.7,0c-0.4,0.4-0.6,0.8-0.9,1.2
		C139.7,112.7,140.3,113.6,141,114.6z M137.6,104.4c0.5-0.3,1-0.8,1.5-1c0.6-0.3,1.1-0.4,0.6-1.1c-0.4-0.7-0.9-1-1.6-0.4
		c-0.5,0.4-1,0.9-1.4,1.4C136.3,104,136.8,104.2,137.6,104.4z M147,109.8c-0.9,0.4-1.7,1-2.3,0.8c-1.2-0.3-1.4,0.8-2.4,0.9
		c0.4,0.4,0.6,0.7,0.8,0.9c0.4-0.5,0.7-0.9,1-1.3C145.5,112.3,146.5,112.1,147,109.8z M137.8,90c-1.2,1.4-0.4,3.4,1.8,4.1
		C139,92.7,138.4,91.4,137.8,90z M145.4,108.9c0-0.2,0-0.3-0.1-0.5c-1,0.1-1.9,0.1-2.9,0.2c0,0.4-0.1,0.8-0.1,1.2
		C143.4,109.4,144.4,109.1,145.4,108.9z M145.4,106.9c0.3,0.5,0.4,1,0.6,1c0.6,0.2,1.2,0.2,1.9,0.3c0-0.1,0-0.2,0-0.3
		C147.2,107.6,146.5,107.3,145.4,106.9z"/>
	<path class="st0" d="M147.1,103.9c1.3-2,1.3-2,4.1-3.4c0.3,0.3,0.5,0.6,0.7,0.7c-1.1,1-2.1,1.9-3.1,2.8
		C148.3,104.4,147.8,104.6,147.1,103.9C147.2,104,147.2,104,147.1,103.9z"/>
</g>
</svg>
