<?xml version="1.0" encoding="utf-8"?>
<!-- Generator: Adobe Illustrator 22.0.1, SVG Export Plug-In . SVG Version: 6.00 Build 0)  -->
<svg version="1.1" id="Layer_1" xmlns="http://www.w3.org/2000/svg" xmlns:xlink="http://www.w3.org/1999/xlink" x="0px" y="0px"
	 viewBox="0 0 181.5 167.8" style="enable-background:new 0 0 181.5 167.8;" xml:space="preserve">
<style type="text/css">
	.st0{fill:#4E5D44;}
</style>
<g>
	<path class="st0" d="M143.4,104.5c0.5-0.2,1-0.3,1.3,0.2c0.2,0.3,0.6,0.3,1,0.3c1.2,0.1,2.1,0.6,2.1,1.9c0,0.2,0.1,0.5,0.2,0.7
		c1.6,2.2,2.1,4.8,2.8,7.3c0.2,0.9,0.7,2.1,0.1,3.3c-0.3,0.7,0,1.3,1,0.8c0.5-0.2,1.1-0.2,1.6-0.4c2.7-0.8,4.2-2.8,5.7-5
		c0.3-0.5,0.6-1.2,1.2-1.4c0-0.7-1.2-0.3-0.8-1c0.2-0.4,0.6-1.1,1.4-0.9c0.3,0.1,0.5-0.2,0.5-0.4c0.5-1.5,1.1-3,0.7-4.5
		c-0.3-1.2,0.3-2,1.2-2.4c1.1-0.6,1.9-1.6,3-2.2c1-0.6,0.9-1.9,0.8-3c0-0.4-0.1-0.8-0.1-1.2c0-0.3-0.2-0.7,0.2-0.8
		c0.4-0.1,0.4,0.4,0.5,0.6c1,2.4,0.2,5.6-2,6.4c-1.2,0.4-1.6,1.5-2.6,1.9c-0.5,0.2-0.2,1.1-0.1,1.5c0.6,2.2-0.3,4.2-1.2,6.1
		c-0.4,0.9-1,2-1.9,2.6c-1.9,1.4-3.2,3.6-5.5,4.5c-1,0.4-2,0.5-3,0.9c-0.7,0.3-1.1,0.6-1.1,1.4c-0.2,2.4-0.5,4.8-0.7,7.1
		c-0.1,0.5-0.3,0.9-0.7,1.2c-2.8,1.8-5.1,4.1-7.9,5.8c-2.2,1.3-4.4,2.8-6.7,4.2c-3.4,2.1-6.7,4.3-10.1,6.3c-3,1.8-6.1,3.6-9.1,5.5
		c-1.9,1.2-4,2.1-5.8,3.4c-2.1,1.4-4.2,2.7-6.3,4c-1.5,0.9-3.2,1.4-4.7,2.3c-1,0.6-2.3,0.3-3.4,0c-2.1-0.6-4.3-0.6-6.3-1.4
		c-2.7-1-5.5-1.6-8.3-2.2c-1.2-0.3-2.5-0.8-3.8-0.7c-0.4,0-1.1-0.4-1.6-0.6c-1.5-0.7-3.2-0.9-4.8-1.4c-1.3-0.4-2.6-0.8-4-0.9
		c-0.9-0.1-1.7-0.2-2.6-0.5c-6.1-1.6-12.3-3.1-18.4-4.7c-2.7-0.7-5.5-1.5-8.1-2.4c-0.9-0.3-1.1,0.1-1.1,0.8c0,4.3-1.2,8.4-2.2,12.5
		c-0.4,1.6-0.8,3.1-1.4,4.7c0.1-1,0-2.1,0.3-3c0.7-2.4,0.6-5,1-7.4c0.3-1.9,1-3.7,1-5.6c0-0.6,0-1.3,0.1-1.9c0-0.2-0.1-0.5-0.2-0.5
		c-1-0.1-1.6-0.9-2.5-1c-1.6-0.1-2.5-1.2-3.8-1.8c-0.4-0.2-0.4-0.6-0.3-1c0.3-1.7-0.4-3.2-0.9-4.7c-0.6-2.2-0.5-4.3-0.7-6.5
		c-0.4-4.3-0.2-8.7-1-12.9c-0.3-1.7-0.4-3.2-0.2-4.9c0.1-0.6-0.2-1.3-0.4-1.9c-0.2-0.4,0.1-0.8,0.3-1.1c0.4-0.3,0.5,0,0.7,0.3
		c0.1,0.2,0.3,0.2,0.5,0.1c1.5-0.9,3.4-1.1,4.6-2.6c0.1-0.1,0.3-0.2,0.4-0.2c2.2-0.1,4-1.1,5.9-2.1c1.1-0.6,2.2-1.1,3.5-1.1
		c0.8,0,0.3-0.6,0-1c0.7,0,1.4,0.4,2-0.1c-0.1-0.3-0.4-0.4-0.7-0.4c-1.4,0.1-1.5-0.9-1.6-1.9c-0.2-1.7-0.2-1.7-1.8-1.2
		c-1.7,0.6-3.5,0.9-5.1,1.6c-2,0.9-3.9,2-6,2.5c-1.1,0.3-2.3,0.5-3.4,1.2c0,0-0.1,0.1-0.1,0c-0.9-0.6-1.9-0.9-3.1-0.9
		c-0.2,0-0.2-0.3,0-0.5c1.2-1.4,2.9-1.7,4.5-2.2c0.3-0.1,0.4,0.2,0.6,0.4c0.6,0.5,1.2,0.8,2,0.8c1,0,1.4-0.6,1-1.6
		c-0.2-0.5,0.2-0.8,0.6-1c1-0.3,1.5-1.4,2.6-1.5c0.4-0.1,0.6-0.6,0.4-1.2c-0.4-0.9-0.5-1.8-0.8-2.9c1,0.3,0.7,1.3,1.3,1.7
		c0.1-0.6-0.1-1-0.2-1.5c-0.1-0.2,0.1-0.4,0.3-0.4c0.3,0,0.3,0.1,0.3,0.4c0.1,1.1,0.3,2.2-0.1,3.4c0.7-0.3,1.2-0.3,1.4,0.3
		c-0.2,0.5-0.9,0.3-1.1,1c1.2,0.2,2.3-0.3,3.2-0.8c1.1-0.5,2.2-0.5,3.3-0.8c1.4-0.4,2.9-0.5,4.4-0.7c0.8-0.1,2.3,1.3,2.5,2.1
		c0.4,1.4,0.2,2-1,2.8c-1.4,0.9-2.6,2.1-4.3,2.5c-0.7,0.2-0.8,0.7-0.7,1.2c1,4.2,0.5,8.6,1.1,12.9c0.1,0.5,0.2,1,0.2,1.4
		c-0.3,2.4,0.9,3.2,3,3.8c5.8,1.5,11.4,3.6,17.1,5.4c4.5,1.4,8.9,3,13.3,4.6c1.1,0.4,2.3,0.7,3.5,0.6c0.3,0,1.1-0.1,1,0.6
		c-0.1,0.6-0.7,0.8-1.2,0.6c-2.9-0.9-6-1.5-8.9-2.6c-1.6-0.6-3.4-0.9-5-1.4c-2.3-0.8-4.7-1.5-7-2.4c-1.4-0.5-2.8-0.9-4.2-1.5
		c-0.6-0.2-1.2-0.3-1.9-0.4c-0.2,0-0.6,0-0.7-0.1c-1.6-1.6-3.9-1.1-5.7-2.1c-0.7-0.4-1.4-0.8-2.2-0.9c-2.3-0.5-2.3-0.6-2.5-3
		c-0.3-4.5,0-9-0.7-13.5c-0.1-0.4-0.1-0.8-0.3-1.2c-0.3-0.5,0.4-0.7,0.4-1.4c-1.4,1.5-3.6,1-5.1,2.2c-0.6,0.4-1.6,0.7-2.5,0.9
		c-1,0.3-2,0.9-2.9,1.4c-0.7,0.4-1.5,0.5-2.2,0.7c-1.4,0.4-1.7,1.5-1.5,2.5c0.3,1.2-0.1,2.4,0.1,3.5c0.5,2.7,0.6,5.4,0.9,8.2
		c0.3,2.5,0.3,5,0.5,7.5c0.3,2.9,0.8,5.8,1,8.7c0.1,1.4,1,2,2.2,2.3c3.6,0.8,7.1,2.2,10.8,2.9c1.7,0.3,3.3,1.1,5,1.6
		c1.3,0.5,2.7,0.6,4.1,0.9c1.7,0.4,3.4,1,5,1.6c1,0.4,2,0.7,3.1,0.9c3.6,0.6,7,1.9,10.6,2.7c2.8,0.6,5.8,0.9,8.5,1.9
		c4.4,1.6,9,2,13.5,3.1c0.8,0.2,1.6,0.2,2.4,0.5c1.3,0.5,2,0,2.1-1.4c0.1-0.8,0.1-1.7-0.1-2.5c-0.5-1.5,0.2-3-0.3-4.5
		c-0.1-0.2,0.3-0.4,0.5-0.7c0.4-0.5,0.3-1.5,0-1.5c-1.6-0.1-0.3-1-0.3-1.3c0.3-1.5,0-2.9,0-4.4c0-1.7-0.3-3.3,0.1-5.1
		c0.2-0.8-0.1-1.8,0.1-2.6c0.3-1.5-0.2-2.9,0.1-4.4c0.2-1.2,0.3-2.5,0.1-3.7c-0.3-2.1,0-4.1,0-6.2c0-1.3,0-2.7,0-4
		c0-1.2,0.2-2.5,0.2-3.7c0.1-1.8-0.3-3.6,0.1-5.3c0.5-1.7-0.1-3.4,0.2-5c0.3-1.7,0-3.6,0.1-5.4c0.1-2.5,0.3-5,0.2-7.6
		c-0.1-1.4,0.3-2.8,0.4-4.3c0.1-0.7-0.4-1.2-0.3-1.9c0.2-1.9,0.4-3.9,0.5-5.8s-0.2-4-0.2-5.9c0-2.1-0.1-4.1,0.1-6.2
		c0.1-0.8-0.3-1.7-0.2-2.5c0.3-2.6-0.5-5.1,0-7.7c0.2-0.9-0.1-1.9,0.5-2.7c0-0.1,0.1-0.2,0.1-0.2c-1.2-0.6,0.1-1.6-0.4-2.3
		c-0.1-0.1-0.2-0.4-0.1-0.6c0.7-1.6-0.3-3.3,0.1-4.9c0.1-0.4-0.1-0.9,0.4-1.2c0.1-0.1,0.2-0.3,0.1-0.3c-0.7-0.8-0.4-1.7-0.4-2.6
		c0-1.1-0.4-2.3-0.1-3.4c0.1-0.7,0-1.5,0.3-2.2c0.1-0.3-0.1-0.6-0.5-0.7c-0.4-0.2-0.8-0.6-0.6-1c0.4-1.1-0.6-0.9-0.8-0.7
		C95,34,94,33.6,93.2,33.5c-3.8-0.5-7.6-0.7-11.4-1.1c-2.4-0.2-4.9-0.1-7.4-0.4c-4-0.5-8-1-11.9-1.5c-2.1-0.3-4.3-0.5-6.4-0.8
		c-3.6-0.4-7.3-1.1-10.9-1.6c-4.5-0.6-9.1-1-13.6-1.7c-3.9-0.6-7.8-1.3-11.7-2c-1.2-0.2-2.5-0.2-3.7-0.3c-0.4,1.9,0.5,3.7,0.7,5.5
		c0.7,5.3,1.5,10.5,2.3,15.7c0.4,3,1,5.9,1.4,8.9c0.2,1.6,0.4,3.2,0.5,4.8c0.1,1.8,0.6,3.7,1,5.5c0.4,2.3,0.6,4.6,1.2,6.8
		c0.1,0.5,0.1,1.3-0.9,1.4c2.2,0.7,4.2,0.1,6.3,0.1c-0.3,0.8-0.8,0.8-1.3,0.9c-0.3,0.1-0.6,0-0.8,0.1c-1.8,0.2-1.9,0.5-1.2,2.1
		c0.3,0.6,0.5,1.3,0.1,2c-0.1,0.2-0.2,0.5-0.5,0.4s-0.3-0.4-0.1-0.6c0.4-0.7-0.1-1.3-0.3-1.9c-0.2-0.5-0.7-0.7-1.1-0.5
		c-0.5,0.2-0.4,0.6-0.1,1c0.1,0.1,0.1,0.3,0.1,0.5c-0.5,1,0,1.8,0.4,2.6c0.1,0.3,0.5,0.5,0.1,0.8s-0.6-0.1-0.9-0.4
		c-0.5-0.7-0.9-1.4-0.9-2.3c0-0.5-0.1-0.9-0.3-1.4c-0.4-0.8-1.1-0.7-1.4-0.2c-0.9,1.4-2.1,2.5-3.3,3.7c-1.2,1.2-2.5,2.3-3.6,3.7
		c-0.2,0.2-0.4,0.4-0.7,0.2c-0.2-0.2,0-0.4,0.1-0.7c0.7-1.3,2.1-2.1,2.9-3.3c0.8-1.2,2.1-1.7,2.8-2.9c0.6-1,1.4-1.9,2.4-2.6
		c1.1-0.8,1-2,0.8-3.1c-0.2-2.1-0.5-4.1-1-6.1C20,61,19.6,57,19.3,53.1c-0.1-2-0.7-3.8-0.9-5.8c-0.2-2.3-0.5-4.6-0.9-6.9
		c-0.2-1.5-0.5-3-0.9-4.5c-0.5-1.9-0.8-3.8-0.9-5.8c-0.1-2.4-0.2-4.8-0.8-7.1c-0.2-0.7-0.1-1.1,0.6-1.2c1.9-0.3,3.7-0.7,5.7-0.2
		c1.5,0.4,3.1,0.7,4.6,0.3c0.2-0.1,0.4-0.1,0.6-0.1c3.3,1.1,6.7,0.8,10.1,1.4c4.4,0.8,8.8,1.2,13.2,1.7c6.4,0.7,12.8,1.6,19.3,2.2
		c2.6,0.3,5.3,0.3,7.9,0.7c1.3,0.2,2.7-0.1,4,0.3c1.1,0.3,2.1,0.1,3.1,0.3c3.6,0.4,7.1,0.9,10.8,1.1c1.1,0.1,2.2-0.2,3.3-0.1
		c1.5,0.2,2.6-0.6,3.5-1.3c0.9-0.8,1.7-0.6,2.5-0.4c1.1,0.3,2.1-0.1,2.9-0.7c0.6-0.5,1.3-0.3,2-0.7c2-1,4-2.1,6-3
		c1.7-0.8,3.6-1.3,5.1-2.4c1.9-1.4,4.1-2.4,5.9-3.9c1.1-0.9,2.7-1.4,4.1-2.1c2.4-1.4,5-2.6,7.4-4c2.3-1.4,4.8-2.5,7.2-3.7
		c1-0.5,1.9-1.1,2.8-1.6c0.3-0.2,0.8-0.5,1,0.1c0.2,0.5-0.2,0.7-0.6,0.9c-3,1.3-5.8,3.2-8.8,4.6c-4.3,2.1-8.3,4.6-12.4,7
		c-4.2,2.4-8.4,4.8-12.8,6.9c0.9,0,2.9-0.6,3.6-1c1-0.5,2.2-0.6,3.3-1.1c2.4-1,4.8-1.8,7.3-2.6c2.7-0.9,5.5-1.4,8.1-2.6
		c0.9-0.4,1.8-1.2,2.7-1.2c1.7,0,2.8-1.2,4.3-1.4c0.2,0,0.1-1.2,0.6-0.2c0.4,0.7-0.2,1-0.9,1.3c-5,2.1-10,4-15.2,5.5
		c-5,1.4-9.8,3.5-14.6,5.2c-1.9,0.7-3.6,1.8-5.5,2.5c-0.4,0.1-0.9,0-1.3,0.4c0.5,0.6,1.1,0.6,1.8,0.4c4.8-1.7,9.6-3.2,14.4-5
		c2.7-1,5.5-2.1,8.2-3.1c3-1.2,6.1-1.9,9.1-3.3c3.6-1.7,7.5-2.6,11-4.5c1.8-1,3.9-1.6,5.9-2.4c0.3-0.1,0.6-0.2,0.9-0.7
		c-0.8,0.2-1.4,0.3-2,0.5c-0.8,0.2-1.6,0.7-2.5,0.1c-0.1,0.3-0.8-0.6-0.7,0.4c0.1,0.4-0.5-0.1-0.8,0l0,0c0.1-1,0.9-1.3,2.3-0.8
		c-0.6-0.8,0.1-1.2,0.5-1.3c1.2-0.4,2.1-1.3,3.2-1.7c1.3-0.5,2,0.2,2,1.5c-0.1,0.9-0.2,1.8-0.2,2.7c0,0.5,0.3,1.6-0.9,1.7
		c0,0-0.1,0.2-0.1,0.3c0.3,1.1,0,2.3-0.2,3.3c-0.4,1.6-0.1,3.2-0.5,4.8c-0.3,1.6-0.1,3.4-0.4,5c-0.5,3-0.4,6.1-0.6,9.1
		c-0.2,4.3-0.4,8.6-0.3,13c0,2.9,0.1,5.7-0.2,8.6c-0.1,0.6-0.1,1.3-0.6,1.8c0.7-0.1,1.2,0.2,1.5,0.5c0.7,0.8,1.4,1.7,2,2.5
		c0.1,0.2,0.2,0.4,0.1,0.5c-0.2,0.2-0.3,0-0.5-0.1c-0.4-0.2-1-0.3-1.1-0.8c-0.4-1.1-1.2-1.6-2.4-1.7c-0.4,0-0.6-0.1-1,0.2
		c-0.5,0.4-1.3,0.6-2.1,0.5c0.2-0.8,2.1-0.5,1.1-1.9c1.9-0.2,1.8-0.2,1.9-1.8c0.4-4.2,0-8.4,0.2-12.6c0.2-2.8,0.5-5.6,0.5-8.4
		c0-2.1,0.2-4.2,0.1-6.3c-0.1-1.6,0.5-3.3,0.4-5c-0.1-2.8,0.2-5.6,0-8.5c-0.1-0.8-0.1-1.5,0.8-2.2c0.5-0.4,0.6-1.7,0.3-2.7
		c-2.7,0.8-5.1,2-7.6,3.2c-1.9,0.9-3.7,1.8-5.7,2.5s-4,1.6-6,2.4c-2.1,0.8-4.3,1.1-6.3,2c-2.9,1.4-6,2.5-9,3.7
		c-2.8,1.1-5.5,2.3-8.4,3c-1.4,0.4-2.8,1.2-4.2,1.5c-1.1,0.2-2,1.1-3.4,1c-1-0.1-2.4,1.1-3.6,0.9c-1.1-0.2-1.3,0.6-1.5,1
		c-0.2,0.8-0.1,1.7-0.1,2.6c0,2.3,0.2,4.6,0,6.9c-0.2,2.2-0.2,4.3-0.3,6.5c0,2,0.1,3.9,0.1,5.9c-0.1,3.5,0.1,7,0,10.5
		c0,1.3,0,2.7,0,4c0,1.1,0.1,2.3,0.1,3.5c0.1,2.2-0.1,4.3-0.2,6.5c-0.1,2,0,3.9-0.1,5.9c-0.1,2.1,0.1,4.2,0,6.3
		c-0.2,2.5-0.3,5.1,0.1,7.7c0.1,0.7-0.1,1.4-0.1,2c-0.3,2.8-0.3,5.6-0.3,8.4c0,0.9-0.2,1.7,0,2.6c0.2,0.7-0.3,1.1-1,1.1
		c-0.8,0-0.4-0.6-0.4-1.1c0.1-0.6,0.1-1.2,0.1-1.8c0-0.2-0.1-0.4,0-0.5c1.2-1.1-0.1-2.1,0-3.1c0.1-0.9,0.2-1.8,0.4-2.7
		c0-0.1,0.1-0.2,0.1-0.3c-0.4-3.4,0-6.8-0.3-10.2c-0.1-1.6,0.3-3.2,0.1-4.7c-0.4-3,0.1-6.1,0.1-9.1c0-1.7-0.1-3.6,0.3-5.3
		c0.1-0.2,0.1-0.4,0-0.6c-0.6-2.6,0-5.3-0.4-7.9c-0.2-1.3,0-2.7,0-4.1c0-4.1-0.1-8.2,0.1-12.3c0.1-2.6,0-5.2,0.3-7.7
		c0.1-0.7-0.2-1.6-0.2-2.2c0.2-1.6-0.6-3.2,0-4.8c0.2-0.6,0-1.1-0.3-1.6c0-0.1-0.3-0.1-0.3-0.1c-0.3,0.4-0.4,0.9-0.4,1.4
		c0,2.7-0.1,5.3,0.1,8c0.1,2.8-0.1,5.6-0.1,8.4c0,2.9,0,5.7,0,8.6s0.3,5.9,0,8.8c-0.1,1.2,0.4,2.4-0.1,3.7c-0.1,0.3-0.3,0.9,0.3,1.2
		c0.4,0.2-0.4,0.5-0.3,0.9c0,1.1-0.4,2.8,0.2,3.3c1,1-0.3,1-0.2,1.5c0.3,1.9,0.1,3.8,0.3,5.7c0.1,1.1-0.4,2.3-0.3,3.4
		c0.1,1.6,0.2,3.2,0,4.7c-0.2,1.7,0,3.4-0.3,5.1c-0.1,0.8,0.3,1.6-0.1,2.2c-0.5,0.9,0.2,1.8,0,2.7c-0.2,1,0,2.1-0.1,3.2
		c-0.2,3.1-0.1,6.1-0.6,9.2c-0.3,2.3-0.1,4.6-0.1,6.9c0,2.2,0.1,4.4,0,6.7c-0.2,7.2-0.1,14.5-0.3,21.7c-0.1,2.2,0.2,4.5,0,6.7
		c0,0.5,0.2,0.9,0.7,0.9c0.6,0,0.4-0.6,0.5-0.9c0.8-2.4,0.1-4.9,0.4-7.3c0.1-1.1-0.1-2.2,0.4-3.3c0.1-0.2,0-0.5,0.3-0.5
		c0.4,0,0.4,0.3,0.4,0.6c0,0.1,0,0.2,0,0.2c-0.9,2.8-0.1,5.8-0.4,8.6c0,0.2,0.1,0.4,0,0.6c0,0.7-0.5,1.7,0.6,1.9
		c0.9,0.2,1.9-0.3,2.4-1.1c0.8-1.2,2.1-1.7,3.3-2.4c1.1-0.7,2-1.7,3.3-2.3c1.6-0.7,3-1.7,4.6-2.4c0.9-0.4,1.7-1.1,2.6-1.7
		s1.9-1.2,2.8-1.8c1.3-0.8,2.6-1.8,4-2.5c1.9-0.9,3.2-2.5,5.2-3.3c1.1-0.4,2.3-0.9,3.1-1.5c1.1-0.9,2.3-1.5,3.4-2.4
		c1.2-1,2.4-1.9,4.1-2.2c0.6-0.1,0.7-0.9,1.3-1.2c1.2-0.6,2.3-1.4,3.3-2.1c0.9-0.7,2.3-1.3,2.9-2.4c0.1-0.3,0.3-0.5,0.6-0.6
		c1.6-0.2,1.9-1.5,1.9-2.8c0-4,1.4-7.9,0.6-11.9c-0.4-2.4-0.6-5-2.1-7.2c-0.9-1.4-1.9-2.3-3.3-2.9
		C143.7,105,143.5,104.8,143.4,104.5L143.4,104.5z M18.7,23c0.4,0.5,0.9,0.6,1.5,0.6c1.5,0.2,2.9,0.3,4.4,0.6
		c1.9,0.4,3.7,0.7,5.6,0.9c2.2,0.2,4.4,0.9,6.7,0.8c1.1,0,2.3,0.2,3.4,0.4c2.3,0.4,4.7,0.8,7,1.1c1.7,0.2,3.3,0.9,4.9,0.8
		c1.9-0.1,3.7,0.6,5.5,0.6c1.2,0.1,2.4,0,3.6,0.3c0.8,0.2,1.7,0.8,2.5,0.6c1.7-0.4,3.2,0.3,4.7,0.5c1.6,0.2,3.1,0.7,4.7,0.8
		c1.7,0.1,3.5,0.7,5.1,0.1c0.9-0.3,1.5-0.1,2.2,0.1c0.5,0.2,1.1,0.2,1.6,0.3c1.3,0.3,2.7-0.4,4,0.1c1.1,0.4,2.2,0,3.3,0.2
		c0.6,0.1,1.2-0.1,1.6,0.2c1.3,0.7,2.6,0.3,3.9,0.2c0.3,0,0.5-0.1,0.5-0.4c0-0.3-0.2-0.4-0.5-0.5c-0.2-0.1-0.5-0.2-0.7-0.2
		c-3.2-0.1-6.4-0.7-9.6-1c-2.6-0.2-5.2-0.2-7.7-0.6c-2.1-0.3-4.2-0.6-6.3-1c-2.3-0.4-4.7-0.3-7.1-0.6c-3.5-0.4-7-0.8-10.4-1.3
		c-3.1-0.4-6.2-0.8-9.2-1.3c-2.6-0.4-5.1-0.6-7.7-0.9c-3.8-0.4-7.6-1.1-11.5-1.3C22.8,23.2,20.7,23.1,18.7,23z M41.2,101.2
		c1.2,1.3,2.5,0.6,3.7,0.1c0.6-0.2,0.8-0.7,0.7-1.2c0-0.3-0.2-0.8-0.7-0.6C43.6,99.9,42.1,99.9,41.2,101.2z M96.7,32.3
		c0.5,0,1,0.1,1.4,0.3c0.8,0.3,2.1-0.4,1.9-0.6c-0.4-0.5-0.4-1.3-1-1.5s-1,0-1.6,0.5C97,31.4,97.2,31.9,96.7,32.3z M103.1,30.1
		c-0.2,0.3-0.9,0-1,0.5c-0.1,0.3,0.3,0.5,0.6,0.4c0.4-0.1,1-0.1,1-0.6C103.8,30.1,103.4,30.2,103.1,30.1z"/>
	<path class="st0" d="M32.8,79.8c0.1-0.5,0.5-0.5,0.9-0.6c1-0.2,2.1-0.4,3.1-0.6c0.2,0,0.4-0.2,0.4-0.4c-0.1-0.4-0.3-0.2-0.5-0.1
		c-1.4,0.2-2-0.3-2.2-1.6c-0.1-0.7-0.4-1.4-0.2-2.1c0.3-1.1-0.3-1.1-1-1c-0.6,0-1.2,0.3-1.9-0.3c0.9-0.4,1.8-0.3,2.6-0.3
		c0.8,0,0.9-0.3,0.7-0.8c-0.9-1.8-0.2-3.7-0.4-5.5c-0.3-2.7,0.2-5.4-0.5-8c-0.3-1.3-0.5-2.8-0.2-4.2c0.2-0.9,1.2-2,2.1-2
		c2.8,0,5.6,0.1,8.4,0.6c5.6,0.9,11.2,2.1,16.7,3.5c3.5,0.8,7.1,1.1,10.7,1.6c1.8,0.2,3.7,0.7,5.4,1.3c0.3,0.1,0.6,0.3,0.8,0.2
		c1.5-0.3,1.6,0.5,1.5,1.6s0.2,2.1,0.4,3.2c0.2,1.1,0.4,2.3,0.3,3.4c-0.1,2.7,0.1,5.4,0.1,8.1c0.1,2.9,0,5.7,0,8.6
		c0,2.8,0.7,5.6,0.5,8.5c-0.2,3.5,0.4,7,0.1,10.5c-0.2,2.2,0.1,4.4,0.2,6.5c0,3.6,0,7.2,0.2,10.9c0.2,4.1,0.5,8.1,0.8,12.1
		c0.1,0.7,0,1.3-0.3,1.8c-0.1,0.3-0.5,0.5-0.8,0.4c-0.4-0.1-0.1-0.4-0.1-0.7c0-1.3-0.2-2.6-0.2-3.8c0-2.6-0.8-5.1-0.6-7.8
		c0.1-2.7,0.1-5.5,0-8.2c-0.1-3.3-0.2-6.7-0.5-10c-0.1-1.3-0.1-2.7,0.1-4c0.2-1.8-0.2-3.7-0.2-5.5c0-2.7-0.1-5.5-0.3-8.2
		c-0.3-4-0.1-8.1-0.2-12.1s-0.4-7.9-0.6-11.9c-0.1-1.5-0.6-2.2-2.2-2.4c-3.1-0.5-6.1-1.1-9.2-1.5c-3.5-0.4-7-1.2-10.4-1.9
		c-2.5-0.5-5-1.2-7.5-1.8c-4.5-1-9-1.6-13.7-1.6c-0.3,0-0.6,0-0.6,0.4c0.1,0.8-0.3,1.5-0.2,2.3c0.5,3.9,0.6,7.8,0.7,11.6
		c0,1.1,0,2.3,0.4,3.4c0.1,0.4,0.2,0.9-0.4,1.3c1,0,2,0,3,0c0.2,0,0.5-0.1,0.5,0.3c0,0.3-0.2,0.5-0.4,0.5c-0.5-0.1-0.8,0.5-1.4,0.2
		c-0.3-0.2-0.8-0.2-0.9,0.2c-0.2,0.3-0.3,0.7-0.1,1.1c0.3,0.5,0.6,1.1,0.6,1.8c-0.4-0.3-0.5-0.9-1.1-1c-0.1,0.7-0.2,1.4,0.5,1.7
		c0.5,0.2,0.5-0.3,0.6-0.7c0.7,0.6,1.4,0.3,2.1,0c0.4-0.2,1-0.3,0.6-1.1c-0.2-0.6-0.1-1.5-0.2-2.2c0-0.5,0.3-0.6,0.7-0.5
		c0.2,0.1,0.4,0.1,0.5,0.3c0.8,1,1.8,1.2,3,1.1c0.3,0,0.8-0.1,0.7,0.5c-0.1,0.5-0.5,0.3-0.8,0.3c-1.2,0.1-2.4,0.2-3-1.3
		c0.5,0.7-0.1,1.9,1.3,2.1c0.3,0,0.5-1,0.7-0.1c0.1,0.6-0.1,0.9-0.7,1.2c-0.6,0.3-1,1.1-1.9,1.1c0.9,0.4,1.8,0.1,2.7,0.2
		c0.4,0,0.9,0,0.9,0.5s-0.5,0.3-0.9,0.3c-0.6,0-1.3,0-1.9,0c-0.2,0.4,0.2,0.5,0.3,0.7c0,0.6-0.7,1.6,0.5,1.7c0.6,0,1.2,0.1,1.8-0.1
		c1.4-0.3,2.8-0.1,2.1-2.4c-0.3-1,0.4-2.3,0.5-3.5c0-0.3,0.1-0.5,0.4-0.5c0.5,0,0.9,0.4,1,0.7c0.5,1.1,1.4,2,2,3
		c0.4,0.7,0.9,1.2,1.5,1.6c0.3,0.2,0.6,0.3,0.9,0.2c0.3-0.2,0.1-0.5,0.1-0.8c0-1.1,0.1-2.1,0.1-3.2c0-0.3,0-0.8,0.5-0.8
		s0.6,0.5,0.5,0.9c-0.2,1.8-0.1,3.5,0,5.2c0,0.4,0,0.9,0.1,1.3c0.1,0.8,0,1.4-0.8,1.7c-0.9,0.3-1.1,1.7-2.3,1.5
		c-0.2,0-0.2,0.3-0.1,0.5s0.3,0.3,0.5,0.2c0.5-0.3,1-0.2,1.5-0.3c0.9-0.2,1.6,0,2.1,0.9c0.3,0.6,0.6,1.3,0.9,1.9
		c0.5,0.9,0.2,1.3-0.8,1.6c0.3-0.9-0.1-1.7-0.3-2.5c-0.1-0.2-0.1-0.4-0.4-0.4c-0.3,0.1-0.4,0.4-0.2,0.5c0.9,1,0,2.1,0.4,3.1
		c0,0.1-0.2,0.3-0.3,0.3c-0.8-0.2-1,0.6-1.5,1c-0.4,0.4-0.8,0.9-1.5,0.2c-0.2-0.2-0.5-0.1-0.8-0.2c-1.2-0.1-1.4-0.4-0.9-1.4
		c0.1-0.1,0.3-0.3,0.3-0.3c1.6,0.8,2.2-0.8,3.2-1.4c0.2-0.1,0.8-0.2,0.6-0.7c-0.2-0.5-0.6-0.4-1-0.4c-0.7,0-1.4,0.1-2.1,0.2
		c-0.6,0.1-0.5,0.7-0.5,1.1c0,0.3,0.1,0.8-0.4,0.8s-0.4-0.5-0.4-0.8c0-0.7-0.1-0.9-1-0.8c-2.8,0.3-5.3,1.5-7.9,2.3
		c-2.5,0.7-4.9,1.6-7.3,2.4c-3.6,1.1-7.1,2.7-10.7,3.8c-0.6,0.2-1.2,0.3-1.7,0.7c-0.3,0.3-1.3,0.8-1-0.6c0.1-0.6-0.5-0.8-0.9-1.2
		c0.4-0.5,1-0.4,1.4-0.4c2.2-0.4,3.9-1.7,5.8-2.6c1.1-0.6,2.1-1.4,3.3-1.7c2.4-0.4,4.5-1.5,6.9-2c0.8-0.2,1.4-0.7,2.1-1
		c1.6-0.6,3.4-0.7,5-1.4c1.7-0.8,3.5-1.5,5.6-1.5c-0.6-0.6-1.3-0.5-1.8-0.5c-1.4-0.1-2.2-1-1.7-2.3c0.2-0.4,0.6-0.9,0.3-1.2
		c-0.3-0.4-1-0.2-1.5-0.1c-0.6,0.1-1.2,0.2-1.8-0.2c-0.8-0.5-2.4,0.9-2.2,1.8c0,0.2,0.1,0.3,0.1,0.5c-0.2,0.5,0.9,1,0.1,1.3
		c-0.5,0.2-0.9-0.6-1.4-0.9c-0.2-0.1-0.3-0.4,0-0.6c0.5-0.3,0.5-0.6,0.3-1.1c-0.3-0.6-0.8,0.4-1.1-0.2c-1.6,0.8-3.5,0.9-5.1,1.8
		c-0.9,0.5-0.7,1.2-0.8,1.9c-0.1,0.5-0.1,1,0.6,1.2c0.4-0.5-0.4-0.8,0.1-1.4c0.4,0.6,0.5,1.2,0.4,1.8c-0.1,0.5-0.5,0.5-0.8,0.1
		c-0.4-0.4-0.8-0.9-1.3-1.5c-0.2,0.9,0.1,1.7,0.6,2.4c-1.3-0.4-1.3-0.4-1.4-2.6c-0.5-0.1-0.3,0.7-0.8,0.7c-0.2-1.5-0.9-0.8-1.6-0.4
		c-2.6,1.3-5.1,3-7.9,4c-0.2,0.1-0.4,0.2-0.5,0.3c-0.8,1.1-1.4,0.3-1.9-0.3c-0.6-0.8-0.5-0.9,0.4-1.1c0.4-0.1,0.6-0.4,0.5-0.8
		c-0.1-0.7,0.3-1,0.8-1.3c1-0.5,1.5-1.5,2.3-2.3c1.3-1.2,2.3-2.6,3.2-4.1c0.3-0.4,0.6-0.6,1-0.6c2.1,0,4.1-0.7,6.2-1
		C31.9,79.5,32.3,79.6,32.8,79.8c0.2,0.5,0,0.8-0.6,0.9c-1.3,0.1-2.3,0.7-3.5,1c-0.6,0.2-1.2,0.2-1.9,0.3c-0.4,0.1-0.5-0.6-1-0.4
		c-0.9,0.3,0.5,0.5,0,0.8c-0.1,0.1-0.2,0.2-0.3,0.2c-1.1,0.7-1.3,1.7-0.8,2.8c0.2,0.5,0.1,0.8-0.1,1.3c0.8-0.5,1.8-0.6,2.6-0.9
		c1.9-0.7,3.5-1.8,5.5-2.3c0.7-0.2,1.4-0.5,2-0.9c0.6-0.3,0.9-0.9,0.8-1.6c-0.1-0.5-0.6-1.1-0.8-0.9C34,80.8,33.5,79.9,32.8,79.8z
		 M49.4,84.3c0.6,0.1,1.1,0.1,1.5-0.2c0.3-0.2,0.9-0.4,0.7-0.8c-0.3-0.4-0.3-1.1-1-1.2c-1.4-0.1-2.7-0.2-4.1-0.2
		c-0.8,0-1.4,1-1.2,1.8c0.2,0.8,0.6,1.4,1.6,1C47.8,84.3,48.6,84.2,49.4,84.3z M19.6,89.2c1.5-0.1,2.6-0.7,3.6-1.5
		c0.7-0.5,0.2-1.2-0.2-1.7c-0.4-0.6-0.8,0.1-1,0.3C21.2,87.1,20.3,87.9,19.6,89.2z M49.5,80.2c-0.9-1.1-1.9-2-2.6-3.2
		c-0.7,2.3-0.7,2.3-0.4,3.3c0.1,0.3,0.2,0.5,0.5,0.4C47.8,80.3,48.6,80.6,49.5,80.2z M41.3,89.5c-0.3-0.5-0.7-0.2-1,0
		c-1.7,0.6-3.2,1.8-5.1,1.8c-0.1,0-0.2,0-0.3,0.1c-0.5,1-1.8,0.3-2.4,1.1c-0.1,0.1-0.4-0.5-0.5,0c-0.1,0.2,0,0.5,0.2,0.7
		s0.4,0,0.6-0.1c1.4-0.5,2.7-0.9,4-1.6c1.2-0.6,2.7-0.9,4-1.3C41,90,41.2,89.8,41.3,89.5z M36.9,81.5c0.5-0.7,0.9-0.7,1.5-0.1
		c0.6,0.7,1,0.6,1.7,0.1c-0.3-0.2-0.7,0.3-1-0.2c-0.2-0.4,0.3-0.4,0.4-0.6c0.2-0.5,0.1-1,0-1.6c-0.3,0.4,0.1,0.7-0.3,0.9
		c-0.6-0.7-1.4-1.1-2.3-0.5C36.2,80.1,36.8,80.8,36.9,81.5z"/>
	<path class="st0" d="M12.8,84.6c-1,0.9-1,2.3-2,3.2C10,88.6,10,90,10.7,91c0.4,0.6,0.5,1.3-0.1,1.6C9.5,93,9.4,94,9,94.8
		c-1,2,0,4.2,2,4.8c0.2,0.1,0.5,0,0.6,0.3c0.1,0.4-0.3,0.5-0.5,0.7c-1.1,0.9-1.7,2.1-2,3.4c-0.4,2,0.9,2.9,2.4,3.3
		c1.1,0.2,1.7,1.1,1.1,2.1c-0.5,0.9-0.2,1.6-0.1,2.4c0.1,0.7,0.4,1.4,0.6,2.1c0.4,1.4,1.2,1.6,2.5,1c0.8-0.3,1.6,0.2,2.3,0.6
		c0.4,0.2,0.8,0.6,1.3,0.7c-0.4,0.7-0.9,0.4-1.5,0.2c0.1,0.2,0.1,0.3,0.2,0.3c1.7,1.1,2.4,2.8,3,4.5s2.1,2.8,2.3,4.7
		c-1.7-0.3-1.7-2.2-3-2.9c0.4,1,0.2,2.1-0.1,2.9c-0.6,1.8-0.7,3.7-1,5.5c-0.4,2.6-0.8,5.1-1,7.7c-0.2,3.1-0.7,6.1-1.3,9.2
		c-0.4,2.4-0.6,4.8-0.9,7.2c-0.2,1.6-0.4,3.2-0.3,4.9c0,0.3-0.1,0.8-0.6,0.8s-0.4-0.5-0.4-0.8c-0.2-2.3,0-4.7,0.3-7
		c0.3-2.2,0.6-4.5,1-6.7c0.3-1.7,0.4-3.4,0.6-5.1c0-0.3,0.3-0.8-0.3-1c-0.4-0.1-0.1-0.3,0.1-0.4c0.8-0.3,0.7-1.1,0.7-1.6
		c0.4-2.9,0.5-5.7,0.9-8.6c0.3-2.8,0.3-5.7,1.1-8.5c0-0.1,0.1-0.3,0-0.3c-0.7-1.4-0.7-3.2-2-4.2c-0.5-0.4-1-0.8-1.9-0.8
		c-1.7,0.1-3.3-1.7-3.4-3.6c0-1-0.4-1.9-0.5-2.9c0-0.3-0.2-0.5-0.5-0.7c-1.3-0.8-2.5-1.9-2.8-3.5c-0.2-1.4-0.5-2.8,0.8-4
		c0.2-0.2,0.7-0.7,0.2-1.2c-2-1.8-2.1-4-1-6.2c0.9-1.7,1.1-3.4,1-5.2c0-1.1,1-2.5,2-2.8c0.3-0.1,0.4-0.3,0.5-0.5
		C11.8,84.9,12.1,84.5,12.8,84.6z"/>
	<path class="st0" d="M133.6,71.4c0.4-0.4,0.8-0.5,1.4-0.3c1.2,0.6,2.6,0.7,4,0.7c1,0,1.9,0.3,2.8,0.9c0.8,0.5,1.6,0.5,2.5,0.5
		c1.9,0,3.8,0.4,5.6,1.2c0.5,0.2,1.1,0.5,1.7,0.4c0.2,0,0.3-0.1,0.5,0c0.6,0.1,0.8-0.3,1-0.9c0.4-1-0.4-2.2,0.6-3.1
		c0.3-0.3-0.2-0.4-0.4-0.6c-1.1-1.1-2.1-2.3-2.5-3.9c1.5,2.2,4.2,3.1,5.7,5.4c-0.6,0-1-0.4-1.5-0.6c-0.3-0.1-0.6-0.4-0.6,0.5
		c0.1,1.1-0.5,2.2-0.3,3.4c0.1,0.3-0.1,0.7,0.2,0.9c1.2,0.9,2.4,1.8,3.8,2.4c-0.6-1.6-1.5-3-1.5-4.7c0-0.3-0.3-0.3-0.5-0.4
		c-0.4-0.2-0.9-0.4-1-1c1-0.2,1.5,0.4,2.1,1c1,0.9,0.5,2.2,1,3.2c0.8,1.8,2,3.3,3.5,4.6c1.6,1.4,3,2.9,4.9,4
		c0.4,0.2,0.1,0.8,0.6,0.9c0.7,0.2,1.5,0.7,2,0.2c0.6-0.5,1.1-1.3,1.3-2.1c0.6-2.1-1-3.3-1.9-4.6c-1.5-2.3-3.1-4.6-4.2-7.2
		c-0.4-1-1.5-1.3-1.9-2.3c-0.1-0.1-0.8-0.1-0.7,0.4c0.1,0.6-0.4,0.8-0.6,1.2c-0.1,0.2-0.2,0.7-0.7,0.4c-0.3-0.2-0.4-0.5-0.3-0.8
		c0.2-0.6,0.5-1.2,0.8-1.7c0.4-0.8,0.3-1.5-0.4-2.1c-0.6-0.5-1.1-1.3-1.2-2.2c0.8,0.7,1.5,1.4,2.3,2.1c2.1,2.2,3.7,4.8,5.2,7.3
		c1.8,2.9,3.6,5.7,4.8,8.9c0.3,0.9,0.5,1.6-0.7,2.1c-0.7,0.3-1.1,1.1-0.6,1.9c1.2,1.7,1.2,2.6,0,4.2c-0.8,1-1.7,2-2.2,3.2
		c-0.2,0.5-0.6,0.8-1.1,0.4s0-0.8,0.3-1c0.6-0.4,0.6-1.2,0.9-1.7c0.5-1,1.6-1.5,2-2.5c0.6-1.4,0.2-1.9-1.2-2.3
		c-1.5-0.4-2.9-1.2-4.1-2.2c-1.2-1.1-2.6-1.9-3.8-2.9c-0.9-0.7-1.4-1.7-2.4-2.2c-0.8-0.4-1.5-1.1-2.4-1.2c-0.3-0.1-0.6-0.4-0.9-0.6
		c-0.3-0.3-0.5,0-0.7,0c-1.7,0.2-1.8,2.1-3.1,2.8c-0.2,0.1-0.5,0.3-0.6,0c-0.2-0.4-0.5-0.7-0.4-1.2c0.1-0.4,0.3-0.8,0.5-1.2
		c0.7-2-1.1-4.2-3.4-4.1c-2.2,0-4.4-0.7-6.5-1.3c-0.4-0.1-0.4-0.8-1-0.8c-0.3,0-0.7-0.4-0.6,0.4s-0.8,0.4-0.9,0.3
		c-1.7-0.8-3.7-0.8-5.3-1.7C133.6,71.6,133.6,71.5,133.6,71.4z"/>
	<path class="st0" d="M111.6,50.3c0,1.9-0.1,3.6,0,5.2c0.1,2.1-0.3,4.1-0.4,6.1c0,0.6-0.6,0.8-1,1c-0.4-0.4-0.2-0.9-0.2-1.3
		c0-3.1,0-6.3-0.1-9.4c-0.1-1.4-0.3-2.8,0-4.2c0-0.2-0.2-0.5,0.2-0.6c0.4,0,0.9,0,1.1,0.5c0.9,1.6,2.3,2.7,3.5,4.1
		c0.6,0.7,0.9,0.9,1.3-0.3c0.5-1.5,1.3-3,2-4.5c0.4-0.8,0.8-1.7,1.9-1.4c0.9,0.3,1.6,0.9,1.7,2.1c0.3,3.9,0.7,7.8,1.1,11.6
		c0,0.4,0.2,0.8-0.4,0.9c-0.6,0-0.9-0.2-1-0.8c0-1.6,0.1-3.3-0.1-4.9c-0.3-2.4-0.4-4.8-1.2-7.1c-0.1-0.2,0-0.6-0.3-0.5
		c-0.2,0-0.4,0.3-0.5,0.5c-0.7,1.9-2.1,3.5-2.7,5.4c-0.4,1.3-0.8,1.3-1.7,0.5C113.7,52.4,112.8,51.4,111.6,50.3z"/>
	<path class="st0" d="M57.7,103.6c-0.3,2-1.9,2.4-3.2,3.1c-1,0.5-2.1,0.2-3.2,0c-0.3-0.1-0.3-0.4-0.4-0.7c-0.5-2.2,0.1-4.4,0.3-6.6
		c0-0.5,2.2-1.1,2.7-0.8c1.5,0.8,3,1.7,3.3,3.6c0,0.2,0.1,0.5,0.4,0.5c0.1,0,0.3-0.3,0.3-0.4c0.2-0.4,0.4-0.9,0.3-1.4
		c-0.2-1.1,0.3-1.3,1.3-1.3s2.1-0.3,3.1,0.2c0.2,0.1,0.6,0,0.7,0.4c0,0.4-0.4,0.3-0.6,0.4c-0.6,0.4-1.3,0.1-2,0.3
		c-0.4,0.1-0.8,0-1,0.5c-0.3,0.7-0.8,1.5,0.7,1.3c0.4-0.1,0.9,0.1,0.9,0.7c0,0.7-0.5,0.5-1,0.5c-0.4,0-1.1-0.2-1.2,0.2
		c-0.2,0.6,0.1,1.3,0.5,1.8c0.3,0.4,0.8,0.2,1.2,0.1c0.3-0.1,0.6-0.2,0.9-0.3c0.3-0.1,0.7-0.3,1,0.1c0.2,0.4,0.1,0.9-0.4,1.1
		c-1,0.6-2.1,1-3.2,0.5c-1.1-0.4-1-1.4-1-2.3C58.1,104.6,58.3,104.2,57.7,103.6z M52.2,104.4c0,0.3,0,0.6-0.1,1
		c-0.1,0.7,0.7,0.8,0.8,0.6c0.5-0.6,1.2-0.5,1.7-0.8c1.9-1,2.3-3.1,0.9-4.6c-0.6-0.6-1.4-0.9-2.1-0.8s-1.2,1-1.1,1.5
		C52.4,102.4,51.8,103.3,52.2,104.4z"/>
	<path class="st0" d="M111.8,40.7c0.3-1,1.3-1.4,2.1-1.7c1.6-0.6,3.4-0.9,5-1.7c3.5-1.8,7.4-2.2,10.9-3.6c2.6-1,5.3-1.9,7.9-2.8
		c2.7-0.8,5.5-1.6,8.1-2.6c1.2-0.5,2.5-0.8,3.7-1.3c0.4-0.2,0.7,0,0.9,0.3c0.2,0.5-0.1,0.8-0.5,0.9c-3.1,0.8-6,2-9,3.1
		c-4.4,1.6-9,2.8-13.4,4.6c-0.3,0.1-0.6,0.2-0.9,0.3c-4.3,0.6-8.2,2.4-12.2,3.8C113.4,40.3,112.7,40.8,111.8,40.7L111.8,40.7z"/>
	<path class="st0" d="M127.8,82.2c2.3,0.6,4.6,1.3,7,1.8c0.8,0.2,1.7,0,2.4,0.2c1.7,0.4,3.4,0.8,5.1,1.3c1.5,0.4,3.2,0.5,4.8,0.8
		c1,0.2,2,0.5,2.8,1.2c0.2,0.2,0.5,0.3,0.8,0.4c1.2,0.3,1.8,1.5,1.3,2.6c-0.3,0.7-0.9,1.3-1.4,1.9c-0.2,0.2-0.4,0.5-0.7,0.2
		c-0.3-0.2-0.2-0.5,0-0.7c0.4-0.5,0.8-1,1.1-1.5c0.2-0.3,0.4-0.6,0.1-0.9s-0.5,0.1-0.8,0.3c-0.9,0.7-1.4,1.6-1.8,2.6
		c-0.1,0.3-0.2,0.9-0.7,0.7c-0.5-0.2-0.3-0.6-0.1-1c0.3-0.8,0.3-1.7,0.1-2.6c-0.2-0.9-0.8-1.2-1.5-1.2c-1.3,0-2.2-0.7-3.3-1.3
		c-1.4-0.8-3.1-1.2-4.6-1.8c-1.9-0.7-3.9-0.1-5.9-0.6c-0.8-0.2-1.7-0.7-2.4-0.5C128.4,84.7,128.7,82.8,127.8,82.2z M148.3,89.1
		c0.4,0.3,0,0.9,0.5,1.1c0.4-0.2,0.7-0.5,0.6-0.8C149.3,88.9,148.7,89.1,148.3,89.1z"/>
	<path class="st0" d="M123.7,84.4c0.7,1.1,2,1.2,2.9,2c0.1,0.1,0.2,0.2,0.3,0.2c0.3,0.1,0.7-0.5,0.8,0.2c0,0.7-0.6,0.4-1,0.5
		c-1.2,0.2-2.1-0.6-3.3-1.1c0.6,1.3,1.7,1.5,2.7,1.9c3.1,1.2,6.4,1.4,9.4,2.7c3.6,1.5,7.6,2.3,11,4.4c0.9,0.5,1.8,1.1,2.7,1.7
		c0.9,0.6,1.7,1.2,2.7,1.6c1.2,0.5,1.3,1.7,1.5,2.8c0.1,0.9-0.6,1.1-1.2,1.5c-0.9,0.6-1.4,0-1.8-0.5c-0.1-0.2-0.1-1.1,0.8-1.3
		c1-0.3,0.4-1.1,0-1.5c-0.9-0.8-1.9-1.6-2.9-2.3c-2.7-1.7-5.6-3-8.5-4.1c-1-0.4-2.2-0.4-3.2-0.8c-3.1-1.4-6.4-2.2-9.8-2.8
		c-0.7-0.1-1.4-1.1-2-1.1c-1.6,0-1.5-1.3-1.9-2.2c-0.1-0.3-0.2-0.8,0.3-0.7C124,85.6,123.3,84.6,123.7,84.4z"/>
	<path class="st0" d="M133.6,71.4c0,0.1,0,0.2,0,0.3c-0.2,1-0.5,2-1.3,2.7c-0.2,0.1-0.3,0.3,0,0.5c0.4,0.4,0.4,0.5-0.1,0.6
		c-0.7,0.2-1.4,0.4-2.2,0.5c-0.2,0-0.5,0-0.6,0.3s0.1,0.5,0.3,0.6c1.1,0.4,1.9,1.2,3,1.5c1,0.3,2,0.7,3.1,1c0.5,0.1,1,0.4,1.5,0.3
		c2.1-0.1,4.1,0.7,6.2,1c0.3,0,0.6,0.2,0.9,0.4c0.9,0.6,1.6,1.6,3.1,1.7c-1.2,0.5-2,0.4-2.5-0.3c-0.9-1.2-2.3-1.3-3.5-1.4
		c-4.6-0.2-8.8-1.6-12.8-3.7c-0.8-0.4-1.5-1-2.2-1.5c-1.3-0.9-1.4-3.5-0.3-4.6c0.2-0.2,0.4-0.6,0.8-0.4c0.3,0.2,0.4,0.6,0.2,0.9
		c-1.3,1.6,0.3,1.9,1.1,2.2c0.9,0.3,1.8,1.3,2.6,1c0.7-0.3,1.1-1.4,1.7-2.2c0.5-0.6,0.2-1.1-0.4-1.3c-0.7-0.2-1.4-0.3-2.1-0.4
		c-0.3-0.1-0.8,0-0.7-0.5c0.1-0.5,0.6-0.8,1-0.6C131.4,70.7,132.5,70.9,133.6,71.4z"/>
	<path class="st0" d="M70.7,64.2c0.3-1.5,1.7-1.8,2.6-2.4c0.5-0.3,1-0.1,1.3,0.4c0.8,1.5,0.8,1.8-0.4,3.2c-0.7,0.7-1.1,1.7-2.1,2
		c-0.4,0.1-0.6,0.6-0.6,1s0.5,0.4,0.8,0.5c1.6,0.3,2.7,1.3,3.9,2.4c-0.7,0.4-1.2,0.7-2,0.1c-0.7-0.6-1.6-1.2-2.7-0.8
		c-0.5,0.2-0.4-0.5-0.8-0.6c-0.3,0.3-0.1,1.1-0.7,0.9c-0.6-0.1-0.7-0.8-0.7-1.3c0-2.4,0.4-4.8,0.2-7.2c0-0.3,0.1-0.5,0.4-0.5
		c0.4,0,0.5,0.2,0.7,0.5C70.8,63.1,70.1,63.6,70.7,64.2z M72.3,65.8c0.1,0,0.2-0.1,0.2-0.2c0.1-0.7,0.7-1.1,1-1.7
		c0.1-0.2,0.2-0.5,0-0.6c-0.2-0.2-0.5,0-0.7,0.1c-0.7,0.4-0.8,1.2-1.1,1.9C71.8,65.5,72,65.7,72.3,65.8z"/>
	<path class="st0" d="M125.2,54.5c-0.3-1.8-0.7-4.3-1.2-6.7c-0.1-0.8,0-1.6-0.4-2.3c-0.2-0.3-0.1-0.6,0.4-0.6
		c1.6-0.1,2.9-1.1,4.4-1.4c0.2,0,0.5-0.2,0.7-0.2c0.4,0.1,1-0.2,1.1,0.4s-0.5,0.6-0.9,0.7c-1.3,0.3-2.3,1.1-3.7,1.3
		c-1,0.1-0.5,1.5-0.5,2.3c0,0.5,0.2,1.1,0.4,1.6c0.2,0.6-0.1,1.6,0.5,1.7c0.8,0.1,1.7-0.3,2.4-0.8c0.2-0.1,0.4-0.3,0.6-0.4
		c0.5-0.1,0.9,0.3,1.1,0.6c0.2,0.4-0.3,0.6-0.6,0.7c-0.9,0.4-1.7,0.8-2.7,1c-0.4,0-0.8,0.1-0.7,0.6c0.1,1.4,0.3,2.9,0.4,4.3
		c0.1,0.6,0.3,0.7,0.9,0.4c0.9-0.5,1.8-0.9,2.8-1.4c0.4-0.2,0.9-0.3,1.1,0.2c0.3,0.6-0.1,0.8-0.6,1c-1.4,0.3-2.6,1.1-3.7,2.1
		c-0.6,0.5-0.9,0.1-1-0.4C125.5,57.8,125.1,56.5,125.2,54.5z"/>
	<path class="st0" d="M136.7,95.4c-0.6,0.1-1.1-0.3-1.6-0.5c-1.5-0.7-2.2-0.6-3.1,0.5c-0.9,1.3-2.4,1.6-3.6,2.5
		c0.9,0.8,2.1,0.8,3.1,1.5c1.1,0.8,2.4,1.1,3.6,1.7c0.7,0.4,1.5,0.5,2.2,0.8c0.3,0.1,0.5,0,0.5,0.5c-0.1,0.5-0.4,0.3-0.6,0.2
		c-2.2-0.5-4.4-1.2-6.4-2.4c-0.7-0.4-1.3-0.4-2-0.6c-2.4-0.7-3.4-2.6-2.7-4.9c0.1-0.2,0.1-0.4,0.2-0.6c0.3-0.6,0-1.5,0.8-1.7
		c1.1-0.3,2.2-0.5,3.2,0.1c1.3,0.7,2.8,1.3,4.2,1.6C135.5,94.3,136.2,94.7,136.7,95.4L136.7,95.4z M131.6,94.6
		c-0.4-0.7-1.4-0.1-1.8-0.7s-0.8-1.3-1.5-0.7c-0.7,0.6-1.6,1.2-1.1,2.4c0.3,0.7,0.6,1.3,1.7,0.9C130,96.1,131.1,95.9,131.6,94.6z"/>
	<path class="st0" d="M139.9,50c0.3-2.8-0.2-5.3-0.9-7.8c-0.1-0.6-0.7-1.4,0.1-1.6c0.9-0.3,0.8,0.7,1,1.3c0.8,2.9,0.7,5.9,1.1,8.9
		c0.1,0.3,0.2,0.7-0.2,1c-0.3,0.2-0.6-0.1-0.9-0.2c-2-1.1-3.2-2.9-4.6-4.6c-0.5-0.6-0.9-1.2-1.6-1.6c-0.5,1.5,0,3,0,4.5
		c0.1,1.4,0.4,2.7,0.8,4c0.1,0.5,0,1-0.1,1.5c0,0.1-0.2,0.2-0.4,0.2c-0.4,0-0.6-0.3-0.6-0.6c-0.1-0.9-0.3-1.9-0.3-2.8
		c-0.1-2.8-1-5.6-1-8.4c0-0.3-0.3-0.9,0.2-1c0.3-0.1,0.7,0.2,0.9,0.6c0.4,0.8,1.2,1.3,1.8,2c1.1,1.1,2.2,2.2,3.1,3.5
		C138.8,49.4,139.4,49.6,139.9,50z"/>
	<path class="st0" d="M142.3,39.9c0.7,0.2,1,0.5,1.2,1.2c0.5,2,0.6,4,0.9,5.9c0.2,1,0.2,2.1,1.1,2.8c0.3,0.3,0.5,0.5,0.8,0
		c0.2-0.3,0.7-0.4,1-0.6c1-0.5,1.5-1.3,1.5-2.3c0-2,0.1-4-0.2-6c-0.1-0.7-0.3-1.2-0.6-1.8c-0.3-0.4-0.4-0.9-0.3-1.4
		c0.1-0.2,0.3-0.3,0.5-0.2c0.5,0.2,0.7,0.6,1,1.1c1,2.1,0.5,4.3,0.7,6.5c0.2,1.7-0.4,3.3-1.3,4.6c-0.7,1-2.3,2-3.6,1
		c-0.6-0.5-1-1.1-1.3-1.8c-0.5-1.2-0.6-2.5-0.7-3.7C142.9,43.4,142.7,41.7,142.3,39.9z"/>
	<path class="st0" d="M50.8,65.3c0.4,1.5,0.1,2.8-1,4c-0.2,0.2-0.4,0.5-0.7,0.6c-1.6,0.6-3.9-0.6-4.4-2.3c-0.7-2.4-0.1-4.8,0.2-7.2
		c0-0.3,0.2-0.8,0.6-0.7c0.4,0.1,0.2,0.5,0.2,0.8c0.1,1.8,0.2,3.5,0.2,5.3c0,0.5,0.2,1.1-0.2,1.6c-0.3,0.3,0,0.8,0.2,0.8
		c0.7,0.1,1.4,0.6,2.1,0.2c0.7-0.3,1-0.8,1-1.7c0-1,0.2-2,0.4-3.1c0.1-0.6-0.3-1.2-0.4-1.8c-0.1-0.4-0.2-1.1,0.3-1.2
		c0.4-0.1,0.7,0.5,0.8,0.9C50.7,62.7,50.9,64,50.8,65.3z"/>
	<path class="st0" d="M64,61.8c-0.4,0-0.9-0.1-1.3-0.1c-0.6,0-1,0.2-1.1,1c-0.2,2.3-0.2,2.3,2,1.9c0.4-0.1,0.8-0.1,1.2-0.1
		c0.3,0,0.7-0.1,0.7,0.4c0,0.4,0,0.7-0.5,0.8c-0.8,0.1-1.7,0.2-2.5,0.3c-0.8,0.1-1.6,0.1-1.5,1.2s0.4,1.5,1.7,1.4
		c0.6,0,1.1-0.1,1.6-0.3c0.5-0.2,1.1-0.2,1.3,0.5c0.2,0.7-0.4,1.1-0.9,1.1c-0.8,0-1.7,0.2-2.5,0.3c-1.2,0.2-1.9-0.5-2.1-2
		c-0.3-1.5,0-2.9,0.4-4.3c0.2-0.9,0.2-1.6,0-2.5c-0.1-0.6,0.1-0.9,0.7-0.9c1.4,0,2.7,0.1,4.1,0.2c0.4,0,1,0.1,1,0.6
		c0,0.6-0.6,0.5-1.1,0.5C64.8,61.9,64.4,61.9,64,61.8L64,61.8z"/>
	<path class="st0" d="M117.8,68c1-0.4,2-0.7,3-1.1s2.1-0.7,3.2-0.9c1.7-0.3,3.3-0.9,5-1.4c2.4-0.8,4.8-1.6,7.2-2.4
		c0.3-0.1,0.8-0.3,1,0.3c0.2,0.6-0.4,0.6-0.7,0.7c-2.9,0.9-5.9,1.8-8.9,2.7c-2.8,0.8-5.6,1.6-8.4,2.5c-2.4,0.8-4.8,1.7-7.3,2.1
		c-0.3,0-0.7,0.3-0.7-0.2c0-0.4,0.4-0.6,0.7-0.4c0.4,0.2,0.6-0.1,0.8-0.3C114.3,68.7,116.1,68.5,117.8,68z"/>
	<path class="st0" d="M57.7,116.1c0-0.3,0-0.7-0.1-1c-0.1-0.5-0.3-1.2,0.2-1.2c0.6-0.1,1.2,0.4,1.2,1.2c0,1.3,0,2.5-0.1,3.8
		c-0.1,0.8-0.1,1.7,0.2,2.5c0.2,0.7-0.1,1.2-0.7,1.3c-0.7,0.1-0.8-0.5-0.8-1.1c-0.1-1.9-0.4-2.1-2.2-1.9c-0.7,0.1-0.8,0.3-0.7,0.9
		c0,0.7,0.3,1.8-0.7,1.8c-0.7,0-0.7-1.2-0.6-1.8c0.3-1.9,0.2-3.7-0.3-5.5c-0.1-0.4,0.2-0.5,0.5-0.4c0.5,0.2,0.8,0.5,0.9,1
		c0,0.3,0,0.6,0.1,1c0.3,1.7,0.5,1.8,2.1,1.6C58,118.1,57.6,117,57.7,116.1z"/>
	<path class="st0" d="M59.6,122c0-2.4,1-4.6,0.9-7c0-0.2,0.1-0.6,0.4-0.4c1,0.8,2.1-0.1,3.2,0.3c0.4,0.1,1,0,1,0.6s-0.6,0.6-1,0.6
		c-0.5,0-1,0-1.4,0.1c-0.9,0.2-1.3,0.9-1.3,1.8c0,1,0.9,0.4,1.4,0.6c0.1,0.1,0.4-0.1,0.7-0.1c0.3,0,0.7-0.2,0.8,0.2
		c0.1,0.4-0.1,0.7-0.5,0.8c-0.6,0.2-1.1,0.6-1.7,0.5c-1.3-0.2-1.2,0.7-1.2,1.5c0,0.5,0.3,0.7,0.8,0.7c0.5-0.1,1-0.2,1.5-0.3
		c0.4-0.1,0.9-0.3,1,0.4c0.1,0.5,0.1,1-0.6,1.1c-1,0.1-2,0.4-2.9,0.4C59.6,123.8,59.7,122.7,59.6,122z"/>
	<path class="st0" d="M49.1,113.2c0.3,0.1,0.7,0.2,1.1,0.3c0.3,0.1,0.7,0.3,0.6,0.7c-0.1,0.5-0.5,0.2-0.8,0.2
		c-1.8,0.2-2.1,1.8-2.7,3c-0.5,0.9-0.1,2,0.9,2.6c0.7,0.4,1.6,0.8,2.4,1.1c0.5,0.2,0.8-0.2,1.1-0.5c0.2-0.1,0.3-0.3,0.5-0.2
		c0.3,0.1,0.2,0.4,0.2,0.6c-0.1,1.3-1.6,2.2-2.8,1.8c-3-1-4.1-3.9-3.7-6.4C46.2,115.1,48,113.2,49.1,113.2z"/>
	<path class="st0" d="M57.4,67.4c-0.7-0.3-1.4-0.3-2.1-0.2c-0.3,0-0.7,0.3-0.9-0.2c-0.1-0.4,0.1-0.8,0.4-1.1
		c0.4-0.3,0.8-0.4,1.2-0.3c0.3,0.1,0.7,0.1,1,0.2c0.7,0.2,1.7-0.3,1.8,1c0.1,1.1-1.1,2.5-2,2.7c-1.2,0.2-2.3,0.6-3.3-0.7
		c-1.3-1.7-1.6-3.4-0.7-5.3c0.4-0.9,1-1.8,1.8-2.5c0.7-0.6,1.5-0.4,2.3-0.3c0.2,0,0.4,0.2,0.4,0.5s-0.3,0.4-0.5,0.4
		c-0.7-0.2-1.4-0.4-1.8,0.4c-0.7,1.2-1.6,2.3-1.4,3.8c0.1,0.5,0.2,1.1,0.4,1.6c0.3,0.6,0.7,1.3,1.5,1.2
		C56.4,68.6,57.1,68.3,57.4,67.4z"/>
	<path class="st0" d="M151.8,30.1c1,3.7,0.3,7.5,0.8,11.2s-0.1,7.4-0.1,11c0,0.7,0,1.4,0,2.2c0,0.4-0.2,0.7-0.6,0.7
		c-0.5,0-0.3-0.4-0.3-0.7c0.1-2.4,0.2-4.8,0.2-7.2c0-5.9-0.1-11.9-0.7-17.8c0-0.2,0-0.5,0-0.7s0.1-0.4,0.3-0.4
		c0.3,0,0.4,0.2,0.5,0.4C151.8,29.2,151.8,29.6,151.8,30.1z"/>
	<path class="st0" d="M42,60.1c-0.7,0-0.8-0.7-1.4-0.8C39.1,59,38.7,60.2,38,61c-0.7,0.7-0.4,1.5,0.2,2.1c1.2,1.3,2.2,2.8,3.2,4.3
		c0.6,1,0.4,1.6-0.6,2.1c-1.6,0.7-2.8,0.3-3.9-1.3c-0.3-0.5-0.6-1-0.8-1.4c-0.2-0.3-0.2-0.5,0.1-0.7c0.3-0.2,0.5,0,0.7,0.3
		c0.5,0.7,1,1.4,1.5,2s1.3,0.9,2,0.4c0.7-0.6,0.3-1.2-0.1-1.8c-0.8-1.4-1.9-2.5-2.9-3.8c-0.8-1-0.9-2.2-0.2-3.2
		c1-1.5,1.8-1.9,3.2-1.7C41.5,58.4,41.7,59.2,42,60.1z"/>
	<path class="st0" d="M65.4,83.2c0.5-1.9,0.2-4.1,2-5.7c0.7-0.6,1-0.6,1.4,0.3c0.4,1,0.3,2.1,0.8,3.1c0,0.1,0.1,0.1,0.1,0.2
		c-0.3,1.6-0.2,2.7,0.3,3.9c0.1,0.4,0.1,0.6-0.2,0.8c-0.5,0.2-0.7,0-0.7-0.5c-0.1-0.9-0.3-1.7-0.4-2.6c-0.1-0.4-0.1-1-0.6-0.9
		c-0.4,0-1,0.3-1.2,0.8c-0.1,0.2,0,0.4-0.1,0.6c-0.1,0.4,0,1.1-0.6,1.1C65.4,84.3,65.3,83.8,65.4,83.2z M67,80.9
		c1.4,0.2,1.3-0.5,1-1.4c-0.1-0.2,0-0.5-0.3-0.6c-0.3,0-0.3,0.3-0.3,0.5C67.3,79.9,67.1,80.4,67,80.9z"/>
	<path class="st0" d="M67.3,118c0.4,0.3,0.2,0.8,0.6,0.8c0-0.6,0.2-1.2-0.6-1.6c-0.3-0.2-0.3-0.6-0.2-1c0.1-0.3,0.3-0.4,0.6-0.4
		c1.3,0,2.6,0,3.9,0c0.3,0,0.7,0.1,0.7,0.5c0,0.5-0.4,0.4-0.7,0.3c-0.5-0.1-0.9,0.1-1.4,0.2s-1.3,0.1-1.2,0.9c0.1,0.6-0.2,1.6,1,1.7
		c0.3,0,0.4,0.2,0.5,0.5c0,0.2-0.1,0.3-0.4,0.4c-1.2,0.3-1.4,1.2-1.3,2.2c0,0.2,0,0.3,0.1,0.5c0,0.6-0.4,0.9-0.9,0.9
		c-0.6,0.1-0.6-0.5-0.6-0.8C67.3,121.4,67.3,119.8,67.3,118z"/>
	<path class="st0" d="M100,127.8c-0.8-0.3-0.5-1-0.7-1.6c-0.1-0.7-0.4-1.5,1-1.7c-1.8-0.7-0.6-2-1-3c-0.6-1.9,0.2-3.8-0.1-5.7
		c-0.2-1,0.7-0.6,1.1-0.7c0.8-0.1,0.3,0.5,0.3,0.8c0,0.9,0,1.7-0.1,2.6c-0.2,2.9,0.5,5.9-0.2,8.7C100.3,127.5,100.2,127.7,100,127.8
		L100,127.8z"/>
	<path class="st0" d="M140.2,59.3c0.6,0.8,1,1.4,1,2.1c0,0.6,0.5,0.5,0.9,0.4c1.5-0.4,2.8,0.7,4.3,0.2c-0.1,0.7-0.5,0.7-0.8,0.7
		c-1.2,0.1-2.4-0.1-3.5-0.4c-0.9-0.2-2.2-0.2-1.8-1.8c-0.2,0.3-0.3,0.5-0.5,0.8c-0.5-0.9-0.6-1.7-0.1-2.5c0.1-0.2,0.2-0.4,0.3-0.4
		c2.2-0.6,4.2-2.1,6.6-0.7c0.6,0.3,1.4,0.3,2.1,0.5c0.2,0,0.4,0.2,0.3,0.4c-0.1,0.3-0.3,0.2-0.5,0.2c-1.3-0.4-2.7,0-3.9-0.4
		c-0.9-0.2-1.6,0.1-2.4,0.4C141.6,59.2,141.1,59.6,140.2,59.3z"/>
	<path class="st0" d="M156.3,91.5c-1.1-0.2-1.8-0.6-2.4-1.2c-0.3-0.3-0.8-0.6-0.5-1.1s0.8-0.2,1.3,0c-0.6-0.6-0.9-1.3-1.9-1.4
		c-0.4,0-0.2-0.4-0.3-0.7c-0.4-0.6-0.9-1.1-1.4-1.6c-0.2-0.2-0.6-0.4-0.2-0.8c0.3-0.3,0.6-0.2,0.9,0.1c0.9,0.9,2,1.7,2.5,2.9
		c0,0.1,0.2,0.2,0.3,0.2c1.8,0.8,2.9,2.7,4.9,3.2c0.1,0,0.2,0.1,0.3,0.2c0.5,0.3,1.3,0.7,0.9,1.3c-0.3,0.4-1-0.2-1.4-0.5
		c-1.1-0.7-2.4-1-3.3-2c-0.2-0.2-0.5-0.3-0.7,0c-0.3,0.4,0.2,0.4,0.3,0.6C155.6,91,155.9,91.1,156.3,91.5z"/>
	<path class="st0" d="M147.6,100.3c-0.5-0.2-0.7,0.1-1,0.4c-0.4,0.4-0.8,0.9-1.2,1.3c-0.3,0.3-0.5,0.7-1,0.5
		c-0.5-0.3-0.5-0.8-0.3-1.3c0-0.1,0.1-0.2,0.1-0.2c0.7-1.9,0.6-2.1-1.3-2.9c-0.6-0.3-1.9-0.4-1.6-1c0.3-0.7,1.2,0.2,1.8,0.4
		c1,0.3,2,0.7,3,0.9c1,0.2,1.3,1.2,2.3,1.5c0.1,0,0.2,0.2,0.2,0.4C148.1,100.5,147.8,100.4,147.6,100.3z"/>
	<path class="st0" d="M60.2,84.1c-0.2,0.6-0.4,1-1.1,1c-0.8,0-1.7-0.1-2.1-0.8c-0.3-0.5-0.7-1-1-1.5c-0.6-1-0.9-2.1-0.4-3.3
		c0.4-1,0.7-2,1.4-2.8c0.6-0.6,1.7-0.6,2.2,0c0.1,0.1,0.1,0.2,0.1,0.3c-0.1,0.2-0.3,0.3-0.5,0.2c-1.2-0.6-1.4,0.5-1.7,1.2
		c-1.2,2.6-0.5,4.7,1.9,6C59.5,84.6,59.7,83.9,60.2,84.1z"/>
	<path class="st0" d="M149.1,13.7c0,0.4-0.2,0.7-0.5,0.7c-1.4,0.2-2.6,1.1-4,1.6c-0.2,0.1-0.4,0.1-0.5-0.1c-0.2-0.3,0-0.5,0.1-0.8
		c0.2-0.3,0.4-0.3,0.7-0.3c0.5,0,1.2,0.3,1.4,0c0.5-0.9,1.4-1.8,1.3-2.9c-0.1-0.9,0.1-1.8,0-2.7c0-0.4-0.4-1.1,0.4-1.1
		c0.5,0,1,0.6,1,1.3c-0.1,1.2-0.1,2.4-0.1,3.6C148.9,13.2,149,13.4,149.1,13.7z"/>
	<path class="st0" d="M66.8,107.7c-1.9,0-2-0.2-1.8-2.2c0.1-1.3,0.6-2.5,0.4-3.8c-0.1-0.3-0.1-0.9,0.3-0.9s1.1,0.2,1,0.8
		c-0.2,1.4,0.2,3-0.7,4.3c-0.2,0.3-0.2,0.6,0.4,0.6s1.1,0.1,1.7,0.2c0.3,0,0.6,0.1,0.6,0.5c0,0.3-0.3,0.4-0.5,0.4
		C67.6,107.7,67.2,107.7,66.8,107.7z"/>
	<path class="st0" d="M71.6,81.3c1.9,0.7,3.8,1.3,5.2,2.9c0.8,0.9,0.6,2-0.5,2.5c-0.9,0.4-1.9,0.7-2.8,1c-0.4,0.1-0.8,0.1-0.9-0.3
		c-0.1-0.3-0.6-0.4-0.4-0.8c0.2-0.3,0.5-0.1,0.8,0c0.5,0.2,1,0.2,1.5,0c0.7-0.3,1.6-0.6,1.6-1.6s-0.8-1.4-1.6-1.7
		C73.5,82.8,72.3,82.3,71.6,81.3L71.6,81.3z"/>
	<path class="st0" d="M100,127.8c1.1,1.1,0.2,2.4,0.3,3.6c0.1,1.5-0.1,3-0.2,4.6c0,0.2,0.1,0.5-0.2,0.6c-0.3,0.1-0.7,0.2-1-0.1
		c-0.3-0.2-0.2-0.5,0-0.7c0.3-0.6-0.1-1.6,0.8-2c0.1,0,0.1-0.3,0.1-0.3c-1.1-0.7-0.3-1.7-0.5-2.6c-0.2-0.7-0.3-1.3,0.8-1.2
		c-0.1-0.6-1-0.5-0.7-1.2C99.4,128,99.6,127.8,100,127.8L100,127.8z"/>
	<path class="st0" d="M149.5,65.6c-1.8-0.1-3.3-1.2-5.4-1.1c0.6,0.2,1,0.3,1.5,0.5c-2.6,0.4-4.4-0.9-6.2-2.1
		c1.2-0.1,2.1,0.7,3.3,0.8c1.8,0.1,3.6,0.2,5.3,0.7c0.1,0,0.3,0,0.5,0C149.9,64.2,149.9,64.2,149.5,65.6z"/>
	<path class="st0" d="M62,81.4c0-1.2,0-2.3,0-3.5c0-0.3-0.1-0.7,0.4-0.7c0.4,0,0.7,0.3,0.6,0.7c-0.1,2.3,0,4.6,0.2,6.9
		c0,0.5-0.2,0.6-0.6,0.7c-0.5,0-0.6-0.3-0.7-0.7C62,83.7,62,82.6,62,81.4L62,81.4z"/>
	<path class="st0" d="M158.5,92.5c0.1,0,0.2,0,0.3,0.1c1,1.3,2.8,1.3,3.9,2.4c0.5,0.5,1,1.1,1.7,1.5c0.3,0.1,0.2,0.4,0.1,0.6
		s-0.3,0.3-0.5,0.2c-0.8-0.3-1.6-0.5-2.2-1.1c-0.8-0.9-1.7-1.5-2.7-2c-0.6-0.3-0.6-0.8-0.7-1.4C158.3,92.8,158.5,92.6,158.5,92.5z"
		/>
	<path class="st0" d="M99.5,138.8c-1.3-0.2-0.4-1.2-0.4-1.8c0-0.3,0.6-0.3,0.9,0s0.3,0.7,0.2,1c-0.3,1.5-0.2,2.9-0.1,4.4
		c0,0.6,0,1.2-0.6,1.7c-0.2-0.6-1.4-0.9,0-1.5c-0.3-0.4-0.2-0.9-0.4-1.4C98.5,140.4,98.8,139.6,99.5,138.8z"/>
	<path class="st0" d="M106.8,58.4c0-4.5,0-9,0-13.4c0.5,0.5,0.5,0.5,0.4,1.2c-0.1,2.7-0.1,5.3,0.1,8c0.1,1.4-0.1,2.8-0.2,4.2
		C107,58.4,106.9,58.4,106.8,58.4z"/>
	<path class="st0" d="M127,82c-0.8,0.4-1.5,0.1-2.1,0.1c-1.7,0-2.3,0.7-2,2.3c0,0.2,0.4,0.5,0,0.7c-0.4,0.1-0.5-0.1-0.7-0.5
		c-0.9-2.4-0.1-3.7,2-3.4c0.4,0,0.7,0.1,1.1,0.2C125.8,81.5,126.3,81.7,127,82z"/>
	<path class="st0" d="M111.7,40.7c-1,1.3-2.5,1.5-3.8,2.1c-0.3,0.1-0.5-0.3-0.6-0.6c-0.1-0.4,0-0.8,0.3-0.9
		C109,40.8,110.3,40.1,111.7,40.7C111.8,40.7,111.7,40.7,111.7,40.7z"/>
	<path class="st0" d="M107.4,66.3c0,1.6,0,3.2,0,4.9c0.7,0,1.3-0.1,1.9-0.4c0.3-0.1,0.6-0.2,0.7,0.1c0.2,0.4-0.2,0.5-0.4,0.5
		c-0.6,0.2-1.1,0.5-1.5,1c-0.2,0.3-0.6,0.4-1,0.3s-0.2-0.5-0.2-0.7c-0.2-1.9,0.1-3.7,0.1-5.6C107.2,66.3,107.3,66.3,107.4,66.3z"/>
	<path class="st0" d="M71.7,81.2c-0.8-0.5-0.5-1.3-0.2-1.8c0.7-1.1,1.8-2,3.2-2.3c0.4-0.1,0.9-0.1,1,0.4c0.1,0.6-0.5,0.5-0.8,0.6
		C73.8,78.3,73,79,72,79.6C71.5,79.9,71.7,80.7,71.7,81.2C71.6,81.3,71.7,81.2,71.7,81.2z"/>
	<path class="st0" d="M152.2,60.3c-1.4-0.2-2.7-0.2-4.1-0.5c-0.8-0.2-1,0.1-1.2,0.7c-0.1,0.6-0.4,1-0.9,1.3c-0.2,0.1-0.3,0.2-0.5,0
		s-0.1-0.4,0-0.5c0.5-0.6,1.4-1.1,0.8-2.2c-0.1-0.2,0.3-0.3,0.4-0.2c1.8,0.3,3.6,1,5.5,1C152.2,60.1,152.2,60.2,152.2,60.3z"/>
	<path class="st0" d="M49.7,94.1c-1.1,0.4-1.7,0.9-2.6,0.7c-0.5-0.1-1.1,0.4-1.5,0.9c-0.1,0.2-0.5,0.4-0.5,0.2
		c0-0.3-0.5-0.8-0.2-0.9c1.3-0.4,2.4-1.5,3.9-1.4C49,93.7,49.2,93.8,49.7,94.1z"/>
	<path class="st0" d="M143.4,104.5c-1.8,0.1-3.3-1-4.9-1.4c-0.3-0.1-0.3-0.4-0.1-0.7c0.1-0.2,0.4-0.3,0.5-0.1
		c0.8,1.3,2.3,0.6,3.3,1.3C142.6,103.9,143.3,103.8,143.4,104.5L143.4,104.5z"/>
	<path class="st0" d="M144.1,37.5c-0.5,0-0.4-0.3-0.4-0.6c0.1-0.9,0.7-1.4,1.3-1.9c0.3-0.2,0.4,0,0.6,0.2
		C145.8,35.7,144.6,37.5,144.1,37.5z"/>
	<path class="st0" d="M149,106.3c0.3,0.2,0.6,0.3,0.9,0.4c0.4,0.3,0.7,0.8,1.2,1.1c0.3,0.2,0.4,0.7,0.2,0.9
		c-0.3,0.4-0.5-0.1-0.7-0.3c-0.6-0.5-0.9-1.3-1.7-1.6c-0.1,0-0.1-0.2-0.1-0.3C148.7,106.4,148.9,106.3,149,106.3z"/>
	<path class="st0" d="M152.1,56.3c-0.6,0.9-1.5,0.9-2.4,1.1c-0.2,0-0.4,0-0.5-0.3c0-0.1,0.1-0.4,0.1-0.4
		C150.3,56.6,151.1,55.8,152.1,56.3z"/>
	<path class="st0" d="M136.7,95.4c1.2-0.3,2.2,0.4,3.3,0.8c0.3,0.1,0.5,0.4,0.7,0.7C139.3,96.6,137.9,96.1,136.7,95.4L136.7,95.4z"
		/>
	<path class="st0" d="M136.1,87.8c-0.1,0.3,0.1,0.6-0.3,0.7c-0.3,0-0.4-0.3-0.5-0.5c-0.2-0.5-0.4-1-0.6-1.6c0-0.1,0.1-0.4,0.2-0.5
		c0.2,0.1,0.4,0.1,0.5,0.2C135.8,86.6,136,87.2,136.1,87.8z"/>
	<path class="st0" d="M149.1,13.7c-0.1-0.2-0.2-0.5-0.3-0.7c0.7-0.2,1.5-0.2,2.3-0.1l0,0C150.7,13.8,149.9,13.8,149.1,13.7z"/>
	<path class="st0" d="M41.5,97.4c0.4-0.9,1.1-0.9,1.7-1.1c0.3-0.1,0.5-0.1,0.6,0.2c0.1,0.3-0.1,0.5-0.3,0.5
		C42.8,97.1,42.2,97.2,41.5,97.4z"/>
	<path class="st0" d="M42.2,94c-1.3,0.2-1.5-0.6-1.8-1.2c-0.3-0.7,0.4-0.8,1-1.2C40.9,92.6,41.2,93.3,42.2,94z"/>
	<path class="st0" d="M35,101.9c1,0.6,1.9,0.9,2.1,2.1C36.3,103.5,35.2,103.3,35,101.9z"/>
	<path class="st0" d="M100,145.3c0,0.4,0,0.8-0.5,0.7c-0.3,0-0.6-0.1-0.5-0.5s0.3-0.8,0.7-0.9C100.2,144.7,100,145.1,100,145.3z"/>
	<path class="st0" d="M31.3,104.9c0.4,0,0.5,0.3,0.5,0.6c0.1,0.5-0.3,0.6-0.7,0.7c-0.3,0.1-0.5-0.1-0.5-0.4
		C30.7,105.4,31,105.1,31.3,104.9z"/>
	<path class="st0" d="M107,60.1c0.3,1.3,0.2,2.6,0,3.9C107,62.7,107,61.4,107,60.1z"/>
</g>
</svg>
