<?xml version="1.0" encoding="utf-8"?>
<!-- Generator: Adobe Illustrator 22.0.1, SVG Export Plug-In . SVG Version: 6.00 Build 0)  -->
<svg version="1.1" id="Layer_1" xmlns="http://www.w3.org/2000/svg" xmlns:xlink="http://www.w3.org/1999/xlink" x="0px" y="0px"
	 viewBox="0 0 283.5 283.5" style="enable-background:new 0 0 283.5 283.5;" xml:space="preserve">
<style type="text/css">
	.st0{fill:#4E5D44;}
</style>
<g>
	<path class="st0" d="M64.7,187.5c0-1.1,0.2-2.1,1-3.1c0.1-0.1,0.2-0.1,0.2-0.2c0-2.1,1.9-3.3,2.6-5.1c1.4-3.6,3.3-6.7,5.1-10
		c2.1-3.8,3.3-8,5.3-11.8c0.8-1.7,1.4-3.6,2.9-4.9c0.5-0.5,0.5-1,0.7-1.5c0.2-0.6,0.2-1.2,1-1.2c0.4,0,0.5-0.4,0.5-0.6
		c0.1-1.8,1-3.2,2-4.5c1-1.5,0.6-3.1,0.5-4.6c-0.4-3.8-0.7-7.6-1.4-11.3c-0.4-1.5-0.7-3-1.5-4.3c-0.4-0.5-0.2-1-0.1-1.5
		c0.1-2.1-0.8-3.3-3.1-3.7c-0.2,0-0.4,0-0.5-0.2c-0.6-1.4-1.9-1.9-3.2-2.1c-0.1,0-0.4-0.1-0.4-0.1c-0.1-1.4-1.7-1.1-2.3-1.9
		c-0.7-0.8-1.8-0.6-2.1,0.6c-0.1,0.5,0,1-0.7,1.1c-0.2,0,0,0.2,0.1,0.4c1.7,1.7,1.7,3.7,0.7,5.5c-0.5,1-1.5,1.4-2.5,1.5
		c-0.8,0.1-1.8,0-2.4-1c-0.8-1.4-1.7-2.9-0.7-4.5c0.2-0.5,0.5-0.7,0.8-1.1c1.9-1,1.7-3,2.1-4.6c0.1-0.4,0-1.4-1.2-1.3
		c-0.6,0.1-0.7-0.7-1.4-0.7c-0.6,0-1.1-0.5-1.2-1c0-0.2-0.1-0.6,0.1-0.6c0.6,0,1.2,0,1.8,0.4c1,0.5,2,1.1,3,1.7
		c0.2,0.1,0.5,0.2,0.7,0c1.5-1.7,3.1-3.3,4.9-4.8c0.5-0.4,1.3-1.3,0.5-2.3c-0.4-0.5-0.2-1.2,0.2-1.7c-1.4-0.2-1.8-0.8-1.5-2.3
		c0.4-2.1,1.5-3.9,2.7-5.8c0.8-1.2,1.7-2.4,2.3-3.7c0.1-0.1,0.1-0.4,0.1-0.4c-1.4-1.1,0.2-1.3,0.6-2s0.8-1.2,0.8-2
		c0-0.5,0.2-0.7,0.6-0.8c0.7-0.6,1.4-1,1.2-2c-0.4-0.5-0.7,0.6-1,0c-0.1-0.4,0.2-0.7,0.5-0.8c1.3-0.7,2.1-2,2.9-3.3
		c0.7-1.4,1.7-2.7,2.1-4.2c0.7-2.6,2.3-4.9,3.4-7.1c1.2-2.5,2.7-5,4-7.5c0.7-1.3,1.4-2.6,2.1-3.9c0.5-0.8,1-1.7,1.8-2.4
		c0.6-0.6,0.6-1.5,1-2.4c0.4-0.7,0.8-1.3,0.6-2.1c-0.1-0.4,0.4-0.2,0.5-0.4c0.7-0.5,1.3-0.7,1.1-1.8c0-0.1,0-0.4,0.1-0.4
		c1.8-1.4,2.1-3.7,3.3-5.6c0.7-1.3,1.7-2.5,2.4-3.8c0.5-0.7,0.6-1.4,1.8-0.7c-1-1.3-0.5-3.3,0.7-4c1.8-1.2,3.7-0.7,5.6-0.7
		c5.5-0.1,11,0,16.6,0c5.3,0,10.8-0.4,16.2,0c2.6,0.2,5.2-0.1,8-0.1c7.7,0.1,15.3-0.7,22.9-0.6c8.7,0.2,17.5,0,26.2,0
		c5.8,0,11.5-0.4,17.3,0c3.7,0.2,7.1-0.2,10.8,0c0.7,0,1.2,0.1,1.9,0.2c1.1,0.2,0.6,1.3,1,2c0.5,0.7,0.5,1.4,1.3,1.8
		c0.2,0.1,0.4,0.6,0.5,0.7c1.3,3.3,2.6,6.5,3.8,9.7c0.6,1.4,1.3,2.5,2.3,3.7c0.6,0.6,0.7,1.8,1.1,2.6c0.5,1.5,1.3,3,2,4.4
		c0.6,1.3,1.8,2.3,1.9,3.9c0,0.5,0.5,0.8,0.7,1.4c2.4,4,4.2,8.6,6.5,12.7c1.8,3.2,3.4,6.5,5.1,9.7c1.9,3.8,3.9,7.7,5.8,11.5
		c1.2,2.4,2.4,4.9,3.2,7.4c0.1,0.4,0.2,0.7,0.6,0.8c1.1,0.7,0.7,1.4,0.4,2.3c-1,2-2.3,3.7-3.7,5.3c-0.7,0.7-2.1,1-3.3,1.2
		c-0.8,0.2-1.8,0.5-2.6,0.8c-1.7,0.8-3.4,0.7-5.1,0.4c-3.2-0.7-6.3-1.3-9.1-2.9c-1.1-0.6-1.8-1.5-2.6-2.3c-0.2,0.4-0.5,0.7-0.4,1.3
		c0.7,4.2,0.7,8.3,0.6,12.4c-0.1,3.4,0.7,6.5,0.8,9.9c0.1,2.7,0.1,5.6,0.2,8.3c0.1,2.6-0.1,5.2,0.1,8c0.2,3.6,0.5,7.1,0,10.8
		c-0.2,2.1,0.1,4.5,0.1,6.7c0,3.1,0,6.3-0.4,9.4c-0.1,1.2,0.1,2.4,0,3.7c-0.1,1.8-0.1,3.6-0.1,5.3c-0.1,2.6-0.2,5.2-0.4,8
		c-0.1,2.7-0.4,5.5-0.2,8.2c0,2.5-0.8,5.1-0.4,7.6c0.4,1.5,0.5,3.2,0.5,4.9c0,0.4,0,0.7,0.4,0.7c1.8,0.2,2.4,2.1,3.9,2.9
		c1.1,0.6,2.1,1.7,3.2,2.3c0.8,0.6,1.8,1.1,2.6,1.7c0.4,0.2,0.7,0.4,0.8,0.7c0,0.7-0.6,0.4-0.8,0.5c-1,0.4-1.9,2.3-1.8,3.8
		c0.1,1.1,0.1,2.3,0.1,3.4c0,0.8-0.5,1.4-1.4,1.5c-1.2,0.1-2.4,0.2-3.7-0.1c-0.7-0.2-1.3,0.2-2.1,0.2c-3.1-0.4-6.1-0.1-9.1-0.2
		c-1.1,0-2.1-0.4-3.3-0.5c-3.7-0.6-7.1-0.1-10.8-0.5c-1.1-0.1-2.1,0.1-3.2,0.8c-0.6,0.5-0.7-0.1-1-0.4s-0.2-0.7-0.7-0.6
		c-2.1,0.7-4.3-0.1-6.4,0.1c-0.8,0.1-1.9-0.5-2.9-0.5c-3.2,0.2-6.4-0.2-9.5-0.1c-2.9,0.1-5.6-0.4-8.4-0.4c-2.1,0.1-4.4-0.4-6.5-0.2
		c-3.3,0.2-6.5-0.1-9.9,0.5c-1.3,0.2-2.5,0-3.8,0.1c-3.2,0-6.5,0.1-9.6,0c-2-0.1-4,0-6.1,0.1c-2.7,0.2-5.6,0.1-8.3,0.1
		c-2.6,0-5.2-0.5-7.8,0.1c-1,0.2-2.1-0.1-3.2-0.1c-2.1,0.1-4.3,0-6.4,0c-0.8,0-1.9,0.6-2.6-0.2c-0.1-0.1-0.4-0.1-0.4,0
		c-1.8,1.4-3.7,0.4-5.5,0.2c-2.4-0.2-4.9,0-7.1,0c-2.6,0-5.1,1-7.8,0.7c-0.8-0.1-1.8-0.4-2.7-0.5c-4.8-0.6-9.5-0.2-14.1-0.4
		c-2,0-3.8-0.4-5.7-0.7c-0.7-0.2-1.1-0.6-1.1-1.3c0-2.9,0-5.8,0-8.7c0-0.7,1.7-2.3,2.3-2.3c0.1,0,0.4,0.1,0.4,0.1
		c0.5,1.4,1.8,1.2,2.7,1.2c2.1,0,4.3,0.5,6.4,0.7c1.3,0.1,2.6-0.2,3.9,0.1c1.5,0.4,3,0,4.5,0.4c2.1,0.5,4.2-0.1,6.3-0.2
		c2.7-0.2,5.3,0,8.1,0c2.5,0,5.1,0.4,7.6,0.5c1.9,0,3.7,0.4,5.3,0.2c2.1-0.1,4.3,0.6,6.4-0.1c2.7,1.5,5.8-0.2,8.8,0.7
		c0.7,0.2,2.1-0.2,3.2-0.2c3.7,0,7.1-0.2,10.8-0.1c3.7,0.1,7.4-0.1,10.9,0.1c4.2,0.2,8.2,0,12.4,0c1.9,0,3.9-0.2,5.8,0.5
		c0.5,0.1,1.1-0.1,1.7-0.2c2.3-0.2,4.8-0.1,7,0c2.1,0.1,4.2,0.4,6.4-0.1c1.8-0.4,3.7,0,5.6,0c1.7,0,3.2,0.7,4.9,0
		c1-0.4,1.9,0.2,2.9,0.4c2.1,0.4,4.2,0.1,6.3,0.2c2.3,0.2,4.5-0.1,6.8,0.5c0.7,0.2,1.5-0.2,2.3-0.2c2.3,0.2,4.6,0.4,6.9,0.2
		c2.7-0.1,5.5-0.4,8.2-0.1c1.4,0.1,3,0.2,4.4-0.1c0.7-0.1,1.2,0.7,2.1,0.2c-1-0.6-1.5-1.5-2.7-1.7c-0.5-0.1-0.7-0.7-1.3-1.1
		c-1.7-1.1-3.3-2.3-5.1-3.1l-0.1-0.1c-0.7-2.1-2.4-1.1-3.7-1.1c-1.2,0-2.4,0-3.7,0c-4-0.1-8.1,0.2-12.2-0.2
		c-1.8-0.2-3.7,0.5-5.3-0.6c-0.5-0.4-0.7,0.4-1,0.5c-1.2,0.2-2.5,0.2-3.7,0.2c-2.4,0-4.9-0.6-7.2-0.8c-2.5-0.4-5,0.7-7.5,0.4
		c-2.3-0.4-4.5,0.4-6.8-0.1c-1.9-0.4-3.7-0.1-5.6-0.1c-6.7-0.1-13.4,0.2-20.2-0.2c-6.7-0.5-13.3-0.4-20-0.4c-3.8,0-7.8,0-11.6-0.2
		c-2.7-0.1-5.6,0.2-8.3,0c-4.4-0.5-8.7,0.2-13.1-0.2c-2.5-0.2-5.1-0.2-7.8,0c-3.3,0.1-6.5,0.4-10,0.2c-0.7,0-1.8,0-1.3-1.3
		c0.1-0.4-0.1-0.6-0.4-0.7c-0.4-0.1-0.7,0-0.8,0.2c-1.8,2.7-5.1,3.3-7.4,5.1c-0.6,0.5-1.2,0.2-1.5-0.4c-0.4-0.6,0.2-0.7,0.6-1
		c1.2-0.7,2.3-1.7,3.7-2.1c0.7-0.2,1.2-0.8,1.8-1.3c1.1-0.7,2.1-1.8,3.4-2.1c0.5-0.1,0.6-0.4,0.4-1c-0.5-1.2,0.1-2.4,0.2-3.7
		c0.1-1.3,0-2.7-0.1-4c-0.1-2.4,0.1-4.8,0.1-7c0-1.4-0.2-2.9,0-4.3c0.1-1.1,0.7-2.1,0.4-3.4c0-0.1,0.1-0.4,0.1-0.4
		c-0.5-1.3,0.2-2.5,0.4-3.7c0.2-1.1,0-2.1-0.1-3.2c-0.2-1.4,0.1-2.7-0.1-4.2c-0.2-2,0-3.9,0-5.9c0-1.3,0.4-2.5,0-3.9
		c-0.4-1.4-0.1-3,0.1-4.4c0.4-1.8,0.4-3.4,0.2-5.1c0-1.1,0.7-2.3-0.4-3.4c0.7-1.9-0.1-3.9,0.7-5.8c0.7-1.8,0-3.6,0.1-5.1
		c0.1-3.4,0.4-6.8,0.6-10.1c0.2-2,0-4,0.7-6.1c0.2-0.6-0.2-1.1-0.2-1.7c0-1.8,0.6-3.7,0.4-5.3c-0.4-1.9,0.4-3.7-0.1-5.5
		c-0.2-0.7,0.1-1.7-0.2-2.5c-0.1-0.2,0.2-0.7-0.1-0.7c-0.4-0.1-0.6,0.1-0.7,0.4c-1.5,1-3.4,1.7-5.1,1.7c-2.1,0-4.3-0.4-6.4-0.6
		s-3.7-1.5-5.3-2.7c0,0.5,0,0.7,0.1,1.2c-1-0.7-1.7-0.4-2.1,0.6c-0.2,0.4-0.7,0.6-1.2,0.7c-1.5,0.7-2.1,2.1-3.2,3.2
		c-0.4,0.4-0.1,0.8,0.4,1.1c1.1,0.7,2.3,1.3,3.4,2.1c2.3,1.8,5.5,2.6,6.5,5.8c0.6,1.9,1.3,3.7,1.4,5.6c0,0.7,0.5,1.2,0.6,1.9
		c0.4,1.1-0.1,2.1,0.4,3.2c0.2,0.5-0.2,1.4,0.8,1.4c0,0.1,0.1,0.4,0,0.5c-0.5,0.7-0.4,1.4-0.2,2.1c0.5,1.5-0.2,3.1,0.5,4.6
		c0.5,1.1,0.4,2.9-0.2,4c-0.5,0.7-1.2,1.7-1.8,2.4c-0.1,0.1-0.4,0.2-0.4,0.5c-0.1,3-3.1,4.3-3.8,6.9c-0.5,1.3-0.8,2.7-1.1,4.2
		c-0.1,0.7-0.8,1.5-1.1,1.5c-1.2,0.2-1,1.3-1.3,1.9c-0.8,1.8-1.5,3.6-2.1,5.3c-0.5,1.1-1.5,2-1.5,3.1c0,0.8-1.2,1.3-0.7,2.1v0.1
		c-1.9,2.4-2.9,5.3-4.5,8c-0.8,1.3-1.9,3.1-2.1,4.9C66.4,186.9,65.7,187.4,64.7,187.5L64.7,187.5z M231.4,37.9
		c-0.7,0.5-1.4,0.7-1.8,1.5c-0.7,0.1-1.2,0.7-1.7,1.3c-1.4,0.2-2.1,1.4-3.3,2.1c-0.6,0.4-1.1,1.2-1.7,0.6c-0.6-0.7,0.5-1.1,0.8-1.4
		c1.2-1,2.5-1.9,3.7-2.9c0.8-0.7,6.4-3.9,7.5-4.4c0.1,0,0.2-0.2,0.4-0.4c0.2-0.8-1.2-2.1-2.1-2.1c-1.3,0.2-2.6,0.2-3.9,0
		c-0.1,0-0.2,0-0.4,0c-2.6-0.2-4.6,1-6.5,2.6c-3.3,1.7-3.3,2.1-1.5,5.5c0.6-0.7,1.2-1.2,1.8-1.9c0.7-0.2,1.4-0.7,2-1.3
		c0.7-0.8,2.1-0.8,2.5-2.1c1.7-0.1,3-1.3,4.5-1.7c0.5-0.1,0.8-0.6,1.1-0.1c0.2,0.6-0.5,0.7-0.7,0.7c-4.2,1.4-7.4,4.4-10.9,7
		c-0.2,0.2-0.5,0.4-0.2,0.6c1.1,1.1,1.1,2.6,1.4,3.9c0.2,1,0.7,1.9,1.7,2.3c0.7,0.2,1-0.7,1.4-1.2c3.2-2.9,6.5-5.5,10.5-7.4
		c1-0.6,1.7-1.3,1-2.5c-0.2-0.7-0.6-1.8-1-1.7c-0.7,0.1-1.9,0.1-2.1,1.1l0,0C232.9,36.9,232.2,37.3,231.4,37.9z M198.5,68.2
		c-0.4,0-0.7,0-1,0.1c0.4,1.1-0.7,1.1-1.2,1.5c-0.2,0.4-0.6,0.6-0.6,1C196.5,69.8,198.2,69.7,198.5,68.2c1-0.1,1.5-0.7,2.1-1.5
		C199.9,67.3,198.6,67,198.5,68.2z M228.4,46.3c-0.8,0-1.4,0.7-1.9,1.3c-0.8,0.6-1.7,1.1-2.1,2.1c0.4,0.2,0.8-0.2,1,0.4
		c-0.1,0.4-0.7,0-0.7,0.6c0.1,1.3,0.4,2.5,0.7,3.7c0.2,0.5,0.6,0.6,0.8,0.2c1.4-1.2,2.9-2.4,4-3.7c1.1-1.1,2.3-1.9,3.4-2.7
		c0.8-0.7,1.7-1.4,2.5-2c0.4-0.2,0.7-0.2,0.7-0.7c0.1-0.2-0.1-0.5-0.4-0.6c-0.5-0.2-0.7,0.1-1,0.4c-0.8,0.7-1.2,1.8-2.3,2
		c-0.1,0-0.2,0-0.2,0c-0.6,0.4-1.1,0.6-1.5,1c-1.7,1.5-3.7,2.7-5.1,4.4c-0.2,0.2-0.5,0.7-0.7,0.4c-0.4-0.4,0.1-0.7,0.4-0.8
		c0.8-1.4,2.1-2.4,3.4-3.6c0.6-0.6,1.3-1,1.8-1.9c-1-0.1-1.5,0.5-2,1.1c-0.8,0.1-1.2,0.8-1.8,1.4c-0.4,0.4-0.7,0.5-1,0.5
		c-0.2,0-0.4-0.2-0.5-0.5c-0.1-0.6,0.5-0.5,0.7-0.7c0.1-0.1,0.2-0.2,0.4-0.4c0.5-0.5,1.1-0.8,1.3-1.5c0.6-0.4,1.4-0.5,1.5-1.3
		c1.9-0.7,2.9-2.7,4.6-3.7c-1.8,1-3.4,2-4.9,3.6C229.1,45.2,228.6,45.7,228.4,46.3z M75.9,107.7c-1.1,0.6-2.5,2.3-2.5,3.3
		c0.4-0.7,0.8-1.1,1.4-1.7C75.5,108.9,76.1,108.5,75.9,107.7c0.6,0.7,1.8,0.2,2.5-0.8C77.5,106.9,76.7,106.9,75.9,107.7z
		 M190.1,62.1L190.1,62.1c1.5-0.6,2.4-1.8,3.4-2.9c0.4-0.4,0.7-0.7,1.1-1.1c0.1,0.4,0.6,0.7,0.7,0.4c0.5-0.7,1-0.4,1.4-0.4
		c0.4-0.4-0.6-0.8,0-0.7c0.7,0,0.7-0.5,1.2-0.7c0.7-0.6,1.5-0.8,2.3-1.3c0.4-0.1,0.7-0.1,0.7,0.1c0.2,0.5-0.4,0.5-0.5,0.7
		c-0.4,0.5-0.8,0.1-1.2,0.5c-1.4,1.8-3.4,3-5.1,4.5c-1.3,1.2-2.9,2-4.2,3.3c-0.6,0.6-1.1,1.4-2.4,0.4c0.6,0.8,0.6,1.5,0.6,2.3
		c0.7-0.6,1.5-0.6,2.3-0.8c0.2,1.1-0.6,1.4-1.3,1.7c-1,0.5-1.2,1.1-0.7,1.9c0.6,1.1,0.4,2.1,0.2,3.2c-0.1,0.7-0.2,1.5,0.4,2.3
		c1-0.5,1.5-1.2,2.1-1.9c-0.5-0.4-1,0.4-1.1-0.4s0.2-1.1,0.7-1.3c0.8-0.5,1.3-1.1,1.3-2.1c0-0.1-0.1-0.2,0.2-0.4
		c0.7-0.1,1.4-0.6,2-1.1c1.4-1.3,2.5-2.9,4.3-3.8c0.4-0.2,0.6-0.7,1-0.5c0.5,0.4,0.1,0.7-0.1,1c-0.1,0.2-0.4,0.7,0.1,0.7
		c0.4,0.1,0.7,0.4,1-0.1c0.8-1.2,2-2.1,3.4-2.6c0.4-0.1,0.6-0.5,0.7,0c0.2,0.5-0.1,0.7-0.5,0.7c-1.1,0.6-1.9,1.5-2.7,2.4
		c0.2,0,0.5,0,0.7-0.1c0.7-0.2,1.2-1,2-1.3c0.6-0.2,0.8-0.5,1.2,0.1c0.5,0.7-0.2,0.7-0.6,0.8c-0.7,0.4-1.1,0.8-1.2,1.7
		c-0.4-0.1-0.7-0.4-1,0c-0.6,0.8-1.7,1.3-2.3,2c-0.2,0.2-0.6,0.5-0.4,1c1.3-0.8,2.6-1.8,3.7-3.1c0.5-0.4,0.8-0.7,1.4-0.8
		c1.1-0.2,1.1-0.7,1-1.5c-0.1-0.7,0-1.2,0.7-1.4c-1-0.7-1.8-1.2-0.8-2.4c0.1-0.2,0-0.6,0-0.8c0-0.8-0.7-1.2-1.3-1.7
		c-0.8-0.5-0.6,0.6-1,0.7c-0.2,0-0.4,0.2-0.5,0.2c-1,0.2-1.4,1.2-2.4,1.5c-0.6,0.2-1.3,1-2,1.4c-1.8,1.3-3.3,3.1-5.2,4.2
		c-0.7,0.4-1.4,0.7-1.8,1.4c-0.1,0.2-0.4,0.4-0.6,0.2c-0.4-0.1-0.2-0.5-0.1-0.7c0.2-0.5,0.5-0.7,0.8-0.8s0.8-0.5,0.7-1.1
		c-0.8-0.1-1.2,1.3-2.1,0.7c0.2-0.6,0.7-1,1-1.3c2.1-2.1,4.9-3.7,7.1-5.8c0.7-0.7,1.8-1.2,3-0.7c0.5,0.2,3-1.1,3.1-1.5
		c0-0.1,0-0.2,0-0.2c-0.7-2-0.7-4-1.1-6.1c-0.4-1.4-0.8-2.9-1-4.2c-0.1-1.1-0.7-2-0.7-3.1c0-0.4-0.1-0.8-0.7-0.7
		c-0.4,0.1-0.5,0-0.7-0.2c-0.2-0.4-0.1-0.7,0.2-0.7c0.6-0.4,0.7-0.8,0.6-1.2c-0.7-0.8-0.4-2.1-0.8-3.1c-0.5-0.7,0-1.8-0.7-2.3
		c-1.1-0.7-1.5,0.6-2.1,1c-2.3,1.7-5.1,2.5-7.1,4.5c-0.4,0.4-0.7,0.5-1.1,0.1c-0.4-0.5,0.1-0.7,0.5-0.8c1-0.8,1.9-1.7,3-2.3
		c1.2-0.7,2.5-1.2,3.7-2.1c0.7-0.6,1.8-0.8,2.6-1.4c0.5-0.2,0.7-0.6,0.4-1.1c-0.4-0.5-0.8-0.7-1.1-0.2c-1.2,1.7-3.3,1.5-4.9,2.9
		c-1.2,1-2.9,1.7-4.3,2.5c-1.8,1.1-3.1,2-2.5,4.4c0.5,2.1,0.6,4.3,0.5,6.5c-0.1,2,0.6,3.9,0.5,6.2c-0.2,1.9-0.1,3.8,0.6,5.7
		c0.1,0.5,0.1,1,0.8,1c0.1,0.1,0.2,0.1,0.2,0.2c-0.1,0.5-0.6,0.7-0.8,0.8s-0.7,0.2-0.5,0.7c0.1,0.2,0.4,0.6,0.6,0.7
		c0.4,0.1,0.7-0.1,0.7-0.4C189,62.9,189.6,62.7,190.1,62.1z M171.4,224.6c0.1-0.6,0.1-1.2,0.2-1.8c0-0.4,0-0.7-0.5-0.7
		c-0.2-0.1-0.5-0.1-0.7,0c-0.2,0.2-0.1,0.6,0,0.7C170.8,223.4,171,224,171.4,224.6c-0.1,1-0.4,1.9,0.5,2.7c0.2,0.2,0.5,0.4,0.7,0.2
		c0.4-0.1,0.2-0.5,0.2-0.7C172.5,225.9,172,225.2,171.4,224.6z M148.4,80.9c1,0.5,1.5-0.1,2.1-0.7c0.7-0.2,1.2-0.5,1.8-0.8
		c2-1.4,4.3-2.5,6.5-3.6c1.7-0.7,2.3-1.3,2.5-3.1c0.5-2.9,0.1-5.7,0.8-8.4c0.4-1.4,0.2-3.1-0.1-4.6c-0.1-0.7-0.5-0.8-1.1-0.6
		c-0.5,0.2-0.7,0.5-1.2,0.6c-2,0.7-3.4,2.4-5.3,3c-0.5,0.1-0.7,0.5-1,1c0.8-0.2,1.7-0.4,2.3-1c0.2-0.2,0.7-0.2,1,0
		c0.1,0.1,0.2,0.4,0,0.5c-0.8,0.4-1.4,1.3-2.3,1.7c-2.4,0.8-4.3,2.5-6.5,4.2c0.8,0.2,1.3-0.2,1.8-0.6c3.2-1.8,6.1-4,9.4-5.5
		c0.2-0.1,0.4-0.4,0.6-0.1s0.2,0.5,0.1,0.7c-0.2,0.5-0.7,0.7-1.2,0.7c-0.8,0.2-1.5,0.7-2.1,1.2c-1,0.8-2,1.5-3.2,2
		c-0.7,0.2-1.3,0.8-2,1.4c1,0.1,1.9-1,2.9-0.4c-3,2.1-5.9,4-9,6.1c-1.2,0.7-2.1,2-3.4,2.4c-1.9,0.6-2.5,2.6-4.4,3.3
		c-0.1,0.1-0.4,0.4-0.4,0.6c-0.1,0.7-0.1,1.3-0.6,1.9c-0.1,0.2,0,0.5,0.1,0.6c0.2,0.1,0.5,0,0.6-0.1c0.7-0.8,1.9-1.1,2.7-1.7
		l0.1,0.1c0.1,0.4,0.1,0.7,0.2,1c-0.2,0.2-0.6,0.4-0.7,0.6c-0.5,0.2-0.7,0.5-1.2,0.7c-1,0.6-2.3,1.1-2.5,2.1
		c-0.4,1.8-0.5,3.7-0.7,5.5c0.7-0.8,1.4-1.4,2.3-2c0.2-0.2,0.7-0.6,0.4-0.8c-0.6-0.5-0.2-0.7,0.1-1c0.4-0.4,0.7-0.6,1.2-0.2
		c0.2,0.1,0.4,0.4,0.7,0.1c1.2-0.8,2.6-1.5,3.7-2.5c0.6-0.5,1.4-0.7,1.5-1.5C146.4,83.2,147.7,82.3,148.4,80.9z M255.2,89.5
		c1.9-0.7,2.6-2.5,3.7-4C257.5,86.6,256.1,88,255.2,89.5c-0.8,0.7-1.8,1.8-2.5,2.9C253.8,92.3,255.2,90.6,255.2,89.5z M156.9,84.6
		c1.2-0.1,2.3-0.6,3.4-1.2c0.4-0.2,0.7-0.5,0.4-0.8c-0.2-0.4-0.7-0.2-1,0c-0.6,0.5-1.1,0.6-1.8,0.5c0-0.7,0.5-1,1.1-1.1
		c1.8-0.6,2.6-1.9,2-3.6c-0.2-0.7,0.6-1.5-0.4-1.9c-0.7-0.4-1.3,0.6-2,0.7c-0.6,0.1-1.1,0.5-1.8,0.7c-0.4,0.1-0.7,0.4-0.8,0.7
		c-0.6,0.7-1.1,1.2-2,1.5c-1,0.4-2.1,0.6-3.1,1.2c-2,1.5-4.3,2.6-6.3,4.2c-1.7,1.2-3.2,2.5-4.9,3.7c-1.7,1.1-2.9,2.5-4.5,3.6
		c-0.4,0.2-0.7,0.5-0.7,0.8c-0.2,1.8-0.4,3.6-0.7,5.2c-0.1,0.5-0.1,1.4,0.6,1.4c1-0.1,2.3,0.1,3.1-0.7c1.5-1.8,3.4-3,5.1-4.6
		c0.6-0.7,1.4-1,1.9-1.8c-0.5-0.1-0.8,0.7-1.2,0c-0.2-0.4-0.4-1.1,0.1-1.3c0.6-0.4,0.8-0.7,1.3-1.2c2.6-2,5.5-3.7,8.4-5.3
		c1.5-0.8,2.7-2.1,4.8-2c0.1,0.4,0.2,0.7-0.2,0.7C157.2,83.7,157.1,84.1,156.9,84.6c-1.8,0.6-3.4,1.3-4.6,2.7
		C154,86.6,155.6,86,156.9,84.6z M143.8,225.5c-0.2,0.7,0,1.4-0.4,2.1c-0.1,0.2,0,0.6,0.4,0.6c0.4,0.1,0.5-0.1,0.5-0.5
		C144.1,227.1,144.4,226.2,143.8,225.5c0-0.6,0-1-0.1-1.5c0-0.5-0.2-1,0.4-1.2c0.7-0.2,0.6,0.6,0.8,0.8c0.2-0.5,0.1-0.8,0.1-1.2
		c-0.1-0.4,0-1-0.6-0.8c-0.6,0.2-1.3-0.1-1.7,0.6C142.5,223.1,142.8,224.8,143.8,225.5z M155.6,46.1c1.5-0.5,3.1-0.8,4.2-2.1l0,0
		c0.8,0.1,1.7-0.4,2.5-0.7c0.2-0.1,0.6-0.1,0.7,0.2c0.1,0.4-0.1,0.5-0.4,0.6c-1.8,0.8-3.3,2.1-5.1,2.7c-0.7,0.2-1.3,0.1-1.9,0.6
		c-2.3,1.8-5,2.9-7.5,4.3c-0.7,0.5-1.9,0.7-2.3,1.7c-0.2,0.5-0.7,0.5-1,0.7c-1.3,0.7-3,1.3-2.9,3.4c0.7-0.2,1.3-0.8,2-1.3
		c2.5-1.4,5.1-3,7.6-4.5c1.3-0.8,3-1,4.2-2c1-0.8,2.3-1.1,3.6-1.7c0.2-0.1,0.6-0.2,0.7,0.1c0.1,0.2-0.1,0.5-0.4,0.6
		c-1,0.4-1.8,1.1-2.6,1.4c-3.3,1.4-6.2,3.7-9.5,5.1c-1.1,0.5-1.8,1.5-2.7,1.9c-1,0.4-1.8,0.8-2.6,1.3c-0.6,0.2-0.7,0.8-0.4,1.4
		c0.4,0.5,0.4,0.7-0.1,1.2c-1,1-1,2.4-1.4,3.7c-0.1,0.6,0.4,0.7,0.7,0.5c1.1-1,2.6-1.7,3.7-2.7l0,0c1.1-0.2,1.9-1.1,2.6-1.9
		c0.2-0.1,0.4-0.2,0.6-0.4c1.8-0.4,3.1-1.8,4.8-2.5c2.1-1,4.5-2.1,6.5-3.4c0.4-0.2,0.7-0.4,1.2-0.5c0.2-0.1,0.5,0.1,0.6,0.4
		c0.1,0.2,0,0.5-0.2,0.6c-2.4,1-4.4,2.9-6.9,3.7c-0.6,0.2-1.3,0.4-1.2,1.2c-0.4,0-0.7,0-1,0.1c-1,0.1-1.2,1.3-2.1,1.5
		c-0.1,0-0.2,0-0.2,0c-1.1,0.5-2.1,0.7-3,1.8c-0.6,0.7-1.1,1-2,1.2c-1.5,0.4-3,1.3-3.8,2.3c-1.1,1.1-0.7,3.1-0.7,4.8l0,0
		c-0.7,1.2-1.1,2.5-1.1,3.9c0,0.5,0,0.8,0.6,0.8c0.7,0,1.5-1.3,1.3-2.1c-0.2-0.7,0.1-1.3,0.7-1.7c1.9-1,3.2-2.9,5.1-3.8
		c0.2-0.1,0.6-0.4,0.4-0.7c-0.2-0.4-0.7-0.2-0.7,0.1c-0.2,0.6-0.7,0.4-1.1,0.5c-0.1-0.1-0.2-0.2-0.4-0.4c0.1-0.1,0.1-0.2,0.2-0.4
		c1.1-0.5,1.8-1.4,2.9-1.8c0.4-0.1,0.8-0.6,0.7-1c-0.2-0.5-0.7,0-1,0.2c-0.6,0.5-1.3,0.6-1.7,1.3c-0.2,0.6-0.7,0.2-1,0
		c-0.1-0.1-0.2-0.2-0.2-0.2c2.6-1.9,5.1-4,8.1-5.1c0.5-0.2,0.7-0.5,0.8-0.8c1.9-0.5,3.4-1.9,5.5-1.8c-1.3,0.6-2.5,1.4-3.7,2.1
		c-0.5,0.2-1.5,0.4-1.2,1c0.2,0.6,1-0.1,1.5-0.4c2.1-1.2,4.4-2.4,6.8-3.3c0.6-0.2,0.7-0.6,0.7-1.1c0.2-1.8,0-3.6,0.4-5.2
		c0.1-0.6,0.1-1.1-0.2-1.7c0.7-0.8,0.7-1.8,0.7-2.7c-0.1-2.5,0.4-5,0.5-7.4c0-0.5,0.4-0.8-0.1-1.2c-0.5-0.4-0.8,0.1-1.2,0.2
		c-2.7,1-5.2,2.7-8,3.9c-2.5,1.1-4.9,2.5-7,4.2c-0.7,0.6-1.8,0.8-2.6,1.2c-0.5,0.2-0.6-0.1-0.7-0.5c0.5-0.6,1.4-0.6,1.8-1
		c1.1-1.7,2.9-2.1,4.3-3c3.7-2,7.2-4.3,11.4-5.5c0.6-0.1,1-0.5,1.5-0.7c0.4-0.2,0.7-0.6,0.7-1c-0.2-0.7-0.7-0.2-1.1-0.1
		c-1.9,0.5-3.6,1.4-5.2,2.1c-3.9,1.8-7.8,3.7-11.4,6.1c-0.7,0.5-0.8,0-0.8-0.6c2.3-1.1,4.3-2.6,6.5-3.7c3.7-1.9,7.5-3.7,11.4-5.1
		c1.1-0.4,1.1-1.1,0.8-1.9c-0.2-0.7-1.1-0.5-1.5-0.2c-2.7,1.5-5.9,2.3-8.6,3.9c-1.5,1-3.3,1.4-4.5,2.6c-1,1-2.1,1.3-3.3,2.1
		c-0.4-0.6-0.1-0.8,0.2-1.1c0.8-0.8,1.9-1.8,3.1-2.1c0.6-0.2,0.7-0.6,0.7-1c3.6-1.4,6.9-3,10.7-4.5c-1.1-0.6-2-0.4-2.7,0
		c-2.9,1.2-5.7,2.4-8.3,4c-0.5,0.2-0.8,0.5-1.2,0.7c-0.2,0.2-0.5,0.7-0.8,0.4c-0.5-0.4-0.5-0.7-0.1-1.2c0.4-0.5,0.7-1,1.2-1.1
		c2.4-0.7,4.6-2,7.2-3c-2.6-0.4-4.6,1-6.5,2c-0.7,0.5-1.8,0.5-2.1,1.4c-1.1,2.4-1.7,5.1-2,7.7c-0.5,1.2-0.8,2.4-0.7,3.7
		c-0.5,0.8-0.6,1.8-0.7,2.6c0,0.4-0.2,0.7,0.2,0.7c0.2,0.1,0.6-0.1,0.7-0.4c1.1-1.3,2.7-1.7,4.3-2.3c0.1,0.1,0.2,0.2,0.4,0.4
		c0,0.6-0.5,0.7-0.8,0.8c-0.8,0.4-1.7,0.8-2.3,1.5c-0.7,0.1-1.4,0.7-2,1.2c-0.1,0.1-0.2,0.4-0.1,0.5c0,0.2,0.4,0.4,0.5,0.1
		c0.6-0.7,1.9-0.6,2.1-1.5c0.2-0.1,0.5-0.2,0.7-0.4c1.4-0.7,2.4-1.9,3.9-2.4C152.7,48.2,154.2,47.4,155.6,46.1L155.6,46.1z
		 M97.6,220.8c-0.8-0.5-1.7,0.1-2.5,0c0.5,0.6,0.6,1,0.6,1.5c0,1.4,0,2.7,0.1,4.2c0,0.4,0,0.7,0.5,0.7c0.2,0,0.5-0.5,0.4-0.7
		c-0.4-1.4,0.1-2.9-0.2-4.2C95.9,221,96.6,220.9,97.6,220.8c0,2.1,0.1,4.3,0,6.4c0,0.7,0.1,0.7,0.7,0.8c0.4,0,0.7,0.1,1-0.1
		c-0.6-1.4-0.8-2.9-1-4.4C98.3,222.6,98.9,221.5,97.6,220.8z M248,79.8c0.7-0.4,1.1-0.8,1.5-1.4c1.3-1.7,2.4-3.6,4.3-4.6
		c0.4-0.2,0.2-0.4,0.1-0.6c-0.1-0.2-0.2-0.5-0.6-0.1c-0.7,0.7-1.8,1.1-2.3,2.1c-0.2,0.5-0.6,1.2-0.8,1.3c-1.4,0.6-1.9,1.9-2.5,3.1
		c-0.7,0.7-1.2,1.5-1.9,2.4c-2.3,2.3-4.3,4.9-6.3,7.4c-0.7,0.7-1.7,1.7-1,3.2c0.7,1.8,1.3,3.4,1.9,5.1c0.2,0.7,0.6,0.7,1.1,0.5
		c0.7-0.4,1.2-0.8,1.4-1.4c0.4-1.2,1.4-1.5,2.1-2.3c0.7,0.4,0.7,0.7,0.2,1.3c-0.5,0.6-1.4,0.7-1.4,1.1c-0.1,0.8-0.7,1.5-1.2,2
		c-1.1,0.7-0.8,1.8-0.7,2.6c0.2,0.7,0.6,1.4,0.8,2.1c0.2,0.6,0.7,1.5,1.4,1.1c0.7-0.4,1.7-0.7,1.9-1.8c0.1-0.6,0.6-0.7,1-0.8
		c1.4-0.2,2.9-0.4,4.2-0.1c1.3,0.2,2.4-0.8,3.8-0.1c1.1,0.7,2.4,0.2,3.7,0.1c1.9-0.1,3.7,0.5,5.5,0.7c-0.8,0.5-1.7,0.7-2.5,0.4
		c-0.5-0.2-0.8-0.2-1.2,0.4c-1.3,2-3.8,2.5-5.3,4.3c0,0.1-0.1,0.1-0.2,0.1c-0.8,0-1.3,0.6-1.9,1.2c-0.4,0.5-0.8,0.8-1.3,0.1
		c-0.2-0.6-0.1-0.7,0.5-1c2-0.8,3.4-2.5,5.1-3.8c0.2-0.2,0.5-0.5,0.4-0.7c-0.1-0.4-0.4-0.4-0.7-0.4c-2.1-0.2-4.3-0.6-5.9,1.3
		c-0.8,1-2.1,1.8-3.2,2.6c0.5,0.4,0.7,0.2,1,0c1.1-0.7,2.1-1.8,3.4-2.1c0.7-0.4,1.4-0.7,2-1.2c0.2-0.2,0.7-0.4,1.1-0.1
		c0.2,0.1,0.2,0.5,0.1,0.6c-0.7,0.2-0.8,1.2-1.5,1.3c-1.8,0.4-2.7,2-4.3,2.6c-0.4,0.1-0.7,0.5-0.5,1c0.2,0.5,0.7,0.7,1.1,0.5
		c0.6-0.1,1.1-0.4,1.7-0.5c-0.7,0.7,0.5,1.3,0,2c0.6,0.2,1-0.1,1.5-0.1c0.4,0,0.7-0.1,1-0.5c0.1-0.1,0.4-0.2,0.5,0
		c0.1,0.2,0.1,0.5,0.1,0.7c0,0.4-0.2,0.4-0.5,0.4c-0.4,0-0.7-0.2-0.8,0.2c0.4,0.1,0.7,0.4,1.1,0.4c0.7-0.1,1.7,0.8,2.3,0.1
		c0.4-0.5,0.7-0.7,1.2-0.7c0.7,0,0.7,0.6,1,1.1c0.6-1.4,0.6-1.4,2.6-2.6c0.1,0,0.1-0.2,0.1-0.4c0-0.4,0.4-0.5,0.5-0.7
		c0.7-1.2,2.1-1.5,3.1-2.5c0.5-0.6,1.7-1.5,2.9-0.8c-0.6,0.5-1.3,0.7-1.1,1.7c0,0.1-0.4,0.4-0.4,0.2c-0.8-0.8-1.3,0.4-1.5,0.6
		c-0.7,0.8-1.8,1.4-2.5,2.3c-0.1,0.1-0.5,0.4-0.2,0.6c0.1,0.2,0.4,0.4,0.6,0.1c1.1-1.2,3-1.2,3.8-2.5c0.7-1,2.1-1.5,1.9-3
		c-0.2-1.2,0.2-2.3-0.2-3.6c-0.5-1.7-0.7-2.5-2.4-3.1c-0.1,0-0.2-0.2-0.4-0.5l0,0c0.6-0.7,0.7-1.3,0.2-2.1c-0.5-0.8-1.1-1.7-1.3-2.5
		c-0.5-1.2-0.8-0.8-1.4-0.4c-1.2,1-2.3,2.1-3.4,3.2c-0.4,0.4-0.1,0.7-0.1,1l0,0c-0.5,0-0.8-0.1-1.2,0.2c-0.2,0.2-0.6,0.2-0.7-0.1
		c-0.1-0.4,0-0.6,0.2-0.7c0.4-0.2,0.8-0.4,1-0.7c0.6-1.5,2.1-2.1,3-3.6c0.4-0.7,1.7-0.6,1.7-1.3c0-0.7-0.7-1.4-1-2.1
		c-0.1-0.2-0.2-0.5-0.4-0.7c-0.4-0.8-0.7-0.8-1.3-0.2c-0.8,1.2-1.8,2.4-2.6,3.7c-0.2,0.4-0.7,0.7-0.2,1.1c0.5,0.2,1-0.1,1.1-0.6
		c0.4-0.8,1-1.4,1.5-2.1c0.2-0.2,0.5-0.7,0.8-0.4c0.4,0.2,0.4,0.7,0.1,1c-1.3,1.4-2.1,3.1-3.7,4.4s-3.4,2.3-4.5,4
		c-0.1,0.2-0.4,0.4-0.6,0.1c-1.1-0.8-1.9-0.5-2.4,0.7c-0.2,0.5-0.7,0.5-1.1,0.2c-0.4-0.4,0.2-0.5,0.4-0.7c0.6-1.3,2.1-1.7,2.7-2.9
		c0.6-1.2,1.3-2,2.3-2.6c0.2-0.1,0.5-0.4,0.6-0.6c0.4-1,1.1-1.5,1.9-2.1c0.6-0.5,1-1,1.4-1.7c0.7-1,0.7-2.4,2-3.1
		c0.2-0.1,0.5-0.5,0.1-0.6c-0.2-0.1-0.7-0.6-0.7,0.2c0,0.2-0.1,0.4-0.4,0.6c-1.3,1.1-2.1,2.5-3.2,3.8c-0.1,0.2-0.2,0.5-0.6,0.2
		c-0.5-0.4-0.7,0.1-0.6,0.5c0.1,0.7-0.6,1-1,1.4c-1.4,1.5-2.9,3.1-4,5c-0.2,0.4-0.4,0.5-0.7,0.4c-0.4-0.1-0.2-0.4-0.1-0.7
		c0.2-0.7,0.7-1.3,1.2-2.1c-1.4,0.6-1.4,2.4-3,2.3l0,0c-0.1-0.8,0.4-1.8-0.5-2.5c-0.1-0.1-0.1-0.5,0-0.5c1.4-0.7,1.4-2.5,2.5-3.6
		c0.6-0.5,0.7-1.1,0.7-2c-0.7,0.8-1.4,1.5-2.1,2.3c-0.8,1.2-1.4,2.9-3.4,3c-0.2-0.6-0.1-1.2,0.4-1.4c1.1-0.5,1.3-1.5,2.1-2.3
		c0.2-0.4,0.7-1.3-0.2-2.1c0.1,0.8-0.6,1.2-0.8,1.7c-0.1,0.2-0.4,0.4-0.6,0.1c-0.1-0.1-0.1-0.5-0.1-0.5c0.7-0.7,0.8-2,1.7-2.6
		c1.5-1.2,2.3-2.9,3.6-4.2c0.2-0.4,0.5-0.7,0.8-0.6c0.6,0.4,0,0.7-0.2,0.8c-1.3,1.2-1.9,2.9-3.1,4.2c-0.2,0.2-0.5,0.4-0.2,0.7
		c0.2,0.4,0.6,0.1,0.7-0.1c0.5-0.5,0.8-1,1.3-1.4c1.1-0.8,2.3-2,2.7-3c0.8-1.9,2.5-2.4,3.8-3.7c0.2-0.2,0.6-0.5,0.5-0.8
		c-0.5-0.8-0.7-1.9-1.4-2.6c-0.5-0.5-1.1-1.3-1.8,0c-0.2,0.6-0.7,1-1.5,0.7c0.1-1.3,1.4-1.9,2-3c-1.8,1.1-3.3,2.3-3.9,4.4
		c0.7-0.5,1-1.4,2.1-1.4c0.1,0.6,0.4,1.1-0.4,1.5c-1,0.7-2,1.4-2.4,2.6c-0.6,1.5-2.1,2.3-2.7,3.7c-0.5,1-1.5,1.4-1.9,2.5
		c-0.1,0.4-0.6,0.2-0.8,0.1c0-0.4,0-0.7,0-1.1c0.2-1,1.5-1.7,1.1-2.9c-0.2-0.7,0.7-1.3,0.2-2.1C247.1,82.1,247.8,81.2,248,79.8z
		 M138.2,224c-0.5,0.8-0.4,1.5,0.7,2.1C138.5,225.3,138.9,224.5,138.2,224c0.1-0.4,0.5-0.7,0.5-1.1c0-0.4-0.5-0.7,0.4-0.8
		c0.6-0.1,0.7,0.4,0.8,0.6c1,1.2,0.4,2.7,1.1,4c0.1,0.2-0.2,0.7,0.4,0.7c0.4,0,0.2-0.6,0.2-0.7c0.1-1.4-1-2.7-0.5-4.2
		c0-0.1-0.1-0.2-0.2-0.4c-0.4-0.5-2.9-0.8-3.2-0.5c-0.5,0.7,0,1.3,0.2,2C138.2,223.7,138.2,223.9,138.2,224z M152.4,227.7
		c-1.1-1.8-0.8-3.6-0.2-5.2c0.4,0.4,0.2,0.7,0.4,1.1c0.1,0.4,0.5,1,0.8,0.6c0.6-0.6,0.5-1.4,0.1-2c-0.6-0.7-0.7,0.2-1.2,0.4
		c-0.2-0.4-0.5-0.7-0.7-0.1c-0.1,0.5-0.1,0.8-0.2,1.3c-0.2-0.5-0.2-0.7-0.2-1.1c-0.1-0.4-0.1-0.7-0.7-0.7c-0.4,0-1,0-1,0.5
		c-0.1,0.7-0.6,1.7,0.7,2.1c0.6,0.2,0.7,0.6,0.2,0.8c-1,0.6-0.7,1.3-0.5,2.1c0.2,0.5,0.6,0.8-0.2,1.5c1.2-0.4,2.1,0,2.9-1
		c0.6,0.2,1,0.5,1.5,0.7c0-0.8,0-1.7-0.7-2.1C153.1,226.9,152.7,227.2,152.4,227.7z M189.1,225.9c0.4,0,0.7-0.1,0.7,0.5
		c0,0.7,0.5,0.8,1,1.1c-0.5-0.7,0.1-1.4,0.1-2.1c-0.1-0.7-0.6-1.4-0.6-2.1c-0.1-0.8-0.4-1.4-1.3-1.3c-0.7,0-1.4-0.5-2.1,0.2
		c-0.2,0.2-0.6,0.5-0.5,0.6c0.7,1.5-0.2,3.4,1.3,4.9c-0.7-0.1-1.3-0.2-1.9-0.5c-0.4-0.1-0.7-0.2-0.7-0.7c0.1-1.1,0.7-2.1-0.1-3.4
		c-0.6-1-0.2-1.2-1.4-0.7c-0.6,0.2-1.2,1.1-1.7-0.2c-0.1-0.2-0.5-0.1-0.6,0c-0.2,0.1-0.5,0.4-0.4,0.7c0.4,0.7,0.1,1.5,0.6,2.3
		c0.1,0.2,0.2,0.6,0,0.7c-0.4,0.4-0.6-0.1-0.7-0.1c-0.4-0.1-0.6-0.1-0.5-0.7c0.2-0.6-0.6-1.2,0.2-1.7c-0.5-0.4,0.1-1.3-1-1.2
		c-0.8,0.1-0.7,0.7-0.7,1.2c0,0.5,0.1,1,0.1,1.4c0.1,0.7,0,1.5-0.6,2.1c-0.1,0.2-0.4,0.5-0.7,0.4c-0.4-0.1-0.1-0.4-0.1-0.6
		c0.1-0.5-0.1-0.6-0.6-0.6c-0.5,0.1-0.2,0.4-0.1,0.7c0.1,0.8,0.6,1.1,1.4,1.1c2.1-0.1,4.2-0.7,6.3-0.2c0.8,0.2,1.8,0.1,2.7-0.2
		c0.4,0.2,0.7,0.8,0.7-0.2C188.3,226.5,188.5,226.1,189.1,225.9L189.1,225.9z M131.3,223.6L131.3,223.6c0.7,1.1,1.1-0.2,1.7-0.4
		c0.1,0.7,0.7,1.2,0.5,2c-0.1,0.7,0.1,1.4,0.1,2.1c0,0.8,0.7,1.1,1.2,1c0.7,0,0.5-0.7,0.4-1c-0.4-1.3,0.1-2.9-1.1-4
		c-0.2-0.2-0.2-0.7-0.2-0.8c0.4-1.1-0.5-1.2-1.2-1.3c-0.7-0.1-1.3,0.2-1.9,0.6c-0.5,0.4-0.7,0.4-0.8-0.1c-0.2-0.6-0.5-0.7-1-0.6
		c-0.6,0.2-0.5,0.7-0.4,1.1c0.2,0.7,0.4,1.7,0.5,2.4c0.1,1.2,0.7,2.3,1,3.6c0.2,0.6,0.7,0.6,1.1,0.4c0.6-0.4,0.2-0.7-0.1-0.8
		c-0.4-0.2-0.6-0.6-0.5-0.8c0.4-0.7,0.1-1.4-0.2-2.1C130.2,223.5,130.8,223.6,131.3,223.6z M247.1,74.8c0.5-0.1,0.7-0.8,1.2-0.1
		c0.2,0.4,0.1,1-0.6,1.1c-0.2,0-0.5,0.2-0.5,0.5c0,1.5-1.5,1.9-2.1,3c-0.8,1.7-2.4,2.7-3.2,4.4c-0.1,0.2-0.5,0.6,0,0.7
		c0.4,0.2,0.5-0.2,0.7-0.4c1.9-1.5,2.9-3.9,4.6-5.6c0.5-0.5,0.8-1,1.3-1.4c1.2-1.2,2-2.9,3.4-3.8c1.5-1,1.5-1,0.7-2.6
		c-0.1-0.1-0.1-0.4-0.1-0.6c-0.1-0.5-0.1-0.8-0.6-1c-0.5-0.1-0.7,0.4-0.8,0.7c-0.2,0.4-0.5,0.7-0.7,0.8c-1,0.6-0.6,2.1-1.9,2.5
		C247.3,73.3,247.2,74.1,247.1,74.8c-1.3,0.4-1.3,1.9-2.1,2.4C246.1,77,246.2,75.6,247.1,74.8z M211,228.1c0.1,0.1,0.4,0.2,0.5,0.2
		c1.4-0.2,2.7-0.4,4.2-0.2c0.5,0,0.6-0.5,0.7-0.8c0.5-1.1-0.1-2.3,0.4-3.6c0.1-0.5-0.2-0.6-0.7-0.7c-0.5-0.1-0.8,0-0.8,0.5
		c0,0.7-0.2,1.7,0.5,2.1c0.5,0.4,0.6,0.7,0.4,1.1c-0.2,0.6-0.7,0.4-1.2,0.2c-0.5-0.1-1.2,0.1-1.3-0.6c-0.2-1.3-0.4-2.6-0.4-3.9
		c0-0.5,0-0.7-0.5-0.7c-0.7,0-0.7,0.4-0.4,0.7c0.1,0.1,0.1,0.4,0,0.5c-1.2,1.2-0.7,2.7-0.5,3.9C212,228.1,211.7,228.1,211,228.1
		c-1-1-1.5-2.1-1.1-3.7c0.1-0.2,0.1-0.5,0.1-0.7c-0.1-0.5-0.2-0.8-0.8-0.7c-0.6,0.1-0.6,0.6-0.5,1.1c0.1,0.4,0.2,0.6,0.4,0.8
		c0.2,0.7-0.5,1-0.8,1.1c-0.6,0.2-0.6-0.5-0.7-0.7c-0.2-0.5-0.2-1-0.2-1.5c0-0.5,0-1-0.6-1s-1,0.2-1.3,0.7c-0.2,0.6-0.5,1.1-0.2,1.7
		c0.2,1.1-0.4,1.1-1.2,1.1c0.2-0.8,0.4-1.8,0.2-2.7c-0.1-0.8-0.7-0.6-1-0.7c-0.7-0.2-0.4,0.5-0.4,0.7c-0.1,0.5-0.1,0.7-0.2,1.2
		c-0.1,0.6-0.1,1.4-0.7,1.2c-0.6-0.1-0.2-1.1-0.4-1.7c0-0.1,0.4-0.2,0.4-0.5c0.1-0.6-0.5-1-0.7-1.4c-0.1-0.2-0.7,0.1-0.7,0.2
		c-0.4,0.4-0.5,0.7-0.2,1.2c0.5,0.8,0.6,2,0.6,3c0,0.7,0.2,0.8,0.8,0.8C204.4,227.9,207.8,227.7,211,228.1z M200.9,73.5
		c0.8-0.7,2-1.3,2.9-2.1c0.6-0.7,1.5-0.6,2.1,0.1c0.8,0.7,0.4,1.3-0.2,2c-0.7,0.7-1.7,1.1-2.1,2.1c-0.1,0.2-0.4,0.4-0.6,0.2
		c-0.7-0.7-0.5,0.4-0.7,0.5c-0.2,0.1-0.4,0.5-0.1,0.7c0.4,0.4,0.7,0,0.8-0.2c0.8-0.7,1.8-1.3,2.6-1.9c0.2-0.1,0.5-0.2,0.7,0
		c0.2,0.1,0.2,0.4,0,0.5c-1,1-1.5,2.5-2.9,2.9c-1.4,0.4-1.2,1-0.8,1.9c1.3-0.7,2.5-1.9,3.8-2.1c1.1-0.4,1.7-0.6,1.5-1.7
		c0,0,0.1,0,0.2-0.1c0.7,0.7,0.1,1.5,0.6,2.3c0.6-0.8,0-4.9-0.8-6.2c0.2,0.7-1,1-0.4,1.5c0.4,0.2,0.5,0.4,0.2,0.7
		c-0.1,0.2-0.4,0.6-0.7,0.5c-0.4-0.1-0.4-0.6-0.4-0.7c0.4-1.9-0.1-3.7,0.1-5.5c0.1-1,0-0.7-0.7-0.8c-2.1-0.4-2.9,1.4-4.4,2.3
		c1,0.5,1.4-0.6,2.1-0.5c-0.4,1.1-1.3,1.7-2.1,2.3C201.7,72.1,200.8,72.4,200.9,73.5c-0.7,0.1-1.4,0.4-1.8,1.3
		C200.1,74.6,200.6,74.2,200.9,73.5z M194,82.4c-0.5-0.5-0.8-0.2-1,0.4c-0.2,0.8-0.8,1-1.5,1.2c-0.5,0.1-0.7,0.1-0.7-0.4
		c0-0.4,0-0.7,0.5-1c0.4-0.1,1.9-1.8,2-2.4c-0.5,0.2-0.7,0.5-1,0.7s-0.5,0.7-0.8,0.2c-0.4-0.4-0.2-0.7,0.1-0.8
		c0.7-0.6,1-1.4,1.5-2.1c0.2-0.4,0.4-0.7,0.6-1.1c-0.2-0.8,0.7-1.4,0.8-2.1c-0.4-0.2-0.6,0-0.7,0.1c-1.3,0.6-2.3,1.5-3.4,2.4
		c-0.2,0.1-0.4,0.5-0.7,0.2c-0.2-0.2,0-0.6,0.2-0.7c0.5-0.5,0.8-0.8,1.3-1.3c0.2-0.2,0.6-0.5,0.4-0.7c-0.4-0.4-0.6,0-0.7,0.2
		c-0.4,0.2-0.6,0.5-0.8,0.6c-1,0.6-1.5,2-0.8,3.2c0.6,1,1.2,0,1.8-0.1c0.2,0,0.5-0.2,0.7,0.1c-0.2,0.7-0.8,1.3-1.4,1.5
		c-1.3,0.6-1.2,1.5-1,2.4c0.2,0.7,0.2,1.5,0.2,2.3c0.1,2-0.1,3.9,0.2,6.2c0.7-0.7,1.1-1.5,1.8-2.1c1.3-1,2.3-2.3,3.3-3.7
		c0.7-0.8,1.1-2.1,2.1-2.6c1.5-1,2.1-2.7,3.7-3.7c0.2-0.1,0.4-0.4,0.1-0.6c-0.1-0.1-0.4-0.1-0.5-0.1c-1,0.6-2.3,1-2.6,1.9
		c-0.7,2-2.6,2.6-3.8,3.9c-0.1,0.2-0.5,0.2-0.6,0.1c-0.4-0.2-0.1-0.5,0.1-0.7C193.3,83.5,193.6,83,194,82.4c1,0,1.3-0.7,1.4-1.7
		C194.5,81,194.4,81.8,194,82.4z M141.6,107.2c0.2,1.1,0.2,2.4,1.8,2.5c2.3,0.2,4.5,0.7,6.9,0.7c0.7,0,1-0.2,0.6-0.8
		c-0.6-0.7-0.2-1,0.5-1.3c1.5-0.8,3.2-1.7,4.8-2.5c1.1-0.7,2.3-1.4,3.7-1.5c0.5,0,0.5-0.4,0.6-0.7c0.5-1.7-0.4-3.3,0.1-5
		c0-0.2-0.1-0.2-0.2-0.2c-1.4-0.2-1.1-1.4-1-2.1c0.1-0.6,0.4-1.1,0-1.4c-0.5-0.5-1,0.1-1.4,0.4c-0.2,0.1-0.5,0.2-0.6,0.4
		c-1.8,1.4-3.7,2.4-5.5,3.6c-0.2,0.1-1.2,0.4-0.4,1.1c0.6,0.5-0.1,0.7-0.5,0.7c-1.7,0.1-3.4,0-5.1,0.4c-1.2,0.2-2.1-0.6-3.6,0.1
		c-1.7,0.7-3,1.9-4.6,2.6c-0.8,0.5-0.8,1.3-0.1,1.9c0.8,0.7,2.1,0.6,3.4-0.5c1.9-1.7,4.3-1.9,6.4-2.9c0.1-0.1,0.4,0,0.5,0.4
		c-1.4,1.2-3.4,1.5-4.8,2.7c-0.7,0.4-1.3,0.7-2,0.8c-0.6,0.2-0.8,0.5-0.8,1.1c0,0.4,0.2,0.6,0.6,0.7
		C141.3,108.3,141.3,107.5,141.6,107.2z M238.3,79.3c0.2-0.1,0.5-0.1,0.6-0.2c0.7-0.6,1.3-1.2,1.9-1.9c0.6-0.7,1.4-1.4,2.1-2.1
		c1.7-1.4,2.6-3.8,5.2-3.8c0.4,0,0.4-0.4,0.6-0.6c0.7-0.7,1-1.5,1.8-2.1c0.7-0.5,0.5-2-0.5-2.7c-0.6-0.5-0.7,0.2-1.1,0.6
		c-1.7,1.4-2.7,3.3-4.3,4.9c-1.7,1.7-3.4,3.1-4.6,5.1c-0.7,1.1-1.5,2.1-2.3,3.1c-0.5,0-0.6,0.8-1.1,0.5c-0.4-0.2,0.1-0.7,0.1-1.1
		s0-0.7-0.2-1c1.3,0.1,1.1-1.1,1.7-1.8c-0.7,0.5-1.4,0.7-1.7,1.8c-0.1,0.1-0.4,0.2-0.5,0.4c-0.4,0.2-0.6,1-1.1,0.5s0.1-0.7,0.4-1.1
		c0.7-1.4,2-2.5,3.2-3.7c1.8-1.5,2.4-3.8,4.2-5.5c-2.1,1.2-3.6,3.2-5.1,4.9c-0.5,0.6-0.8,1.1-1.3,1.7c-0.1-0.1-0.4-0.2-0.4-0.4
		c-0.1-0.7,0.4-1.5,0.8-2c1.8-1.7,3.7-3.4,5.1-5.2c0.8-1.2,2.5-1.8,3.1-3.3l0,0c1.3,1,2.3,0,3.2-0.7c0.7-0.6-0.6-0.8-0.5-1.5
		c0.1-0.5-0.5-0.7-0.2-1.2c0.5-0.1,0.4,0.6,0.8,0.5c-0.7-1.9-1.8-3.7-2.9-5.2c-0.4-0.5-0.6-1-0.7-1.5c-0.5-1.9-0.7-2-2.3-0.8
		c-0.2,0.1-0.5,0.4-0.7,0.5c-2.1,2.1-4.2,4.4-6.4,6.4c-0.4,0.4-0.8,0.5-1.1,0.8c-0.7,1.4-2.1,2.1-3.7,2.5c0.7-1.1,1.3-2.1,2.1-3
		c1.1-1,2.3-2,3.4-3.1c1.5-1.5,3-3.4,4.8-4.6c0.7-0.6,1-1.4,1.9-1.9c0.2-0.1,0.2-0.2,0.1-0.5c-0.7-0.7-0.7-1.8-1.2-2.6
		c-0.2-0.5-0.4-0.6-1-0.2c-1,0.7-1.5,1.8-2.4,2.4c-0.5,0.4-1,0.5-1.4,0.7c-1.4,1.2-2.9,2.3-4.3,3.6c-0.4,0.2-0.6,0.4-1,0.2l0,0
		c0.6-1.8,2.1-2.6,3.4-3.7c1.5-1.3,2.7-3.1,4.8-3.8c0.7-0.2,0.7-1,0.6-1.8c-0.1-0.2-0.2-0.5-0.6-0.4c-2.1,1-4,2.5-5.8,4
		c-2.5,2.1-5.2,3.9-7.5,6.5c-0.5,0.6-0.4,0.7-0.2,1.2c0.5,1.3,0.8,2.7,1.3,4c0.2,0.7,0.7,0.7,1.1,0.2c0.7-1.2,2-1.9,2.9-2.9
		c2.4-2.5,5.1-4.8,7.7-7c0.5-0.4,1.2-0.7,1.5-0.2c0.4,0.5-0.5,0.7-0.7,1c-1.5,1.4-3.3,2.6-4.8,4.2c-1.5,1.7-3.2,3.1-4.8,4.6
		c-2,1.9-2.3,2.4-1.3,4.8c1.1,2.5,2,5.1,2.9,7.7c0.4,0.8,0.6,1.8,0.7,2.6c0.5,1.8,1.1,3.6,1.8,5.2c0.6,1.7,0.5,3.7,2.1,5
		c-0.6,1.4,1.2,2.3,0.6,3.9c1.4-0.8,1.5-2.3,2.5-3.1c0.2-0.2,0-0.7-0.6-0.7c-0.4,0-0.7,0.2-0.7-0.2c-0.1-0.5,0.2-0.6,0.5-0.7
		c0.6-0.7,1.4-1.2,1.5-2.1c-0.5-0.2-0.8,0.5-1.2,0c-0.4-0.5,0.4-0.6,0.6-0.8c0.6-0.7,1.1-1.5,1.5-2.4c0.1-0.2,0.5-0.6,0.1-0.7
		c-0.4-0.1-0.6,0.1-0.7,0.4c-0.7,1.3-2.1,2.1-3,3.3c-0.4,0.5-0.7,0.7-1.1,1.2c-0.2,0.2-0.6,0.4-0.8,0.1c-0.4-0.4,0.1-0.6,0.2-0.7
		C236.9,81.8,237.6,80.5,238.3,79.3z M195.1,100.7L195.1,100.7c0,1,0.2,1.7,1.4,0.8c0.4-0.2,0.7-0.5,1-0.1c0.6,1,1.4,0.7,2.1,0.6
		c2.7-0.1,5.5,0.4,8.2,0.5c0.4,0,0.7,0,0.7,0.4c0,0.5-0.5,0.6-0.7,0.6c-1,0.1-1.9,0.4-2.5,1.2c-0.4,0.5-1,0.7-1.7,0.7
		c-0.8-0.1-1.3,1.5-2.4,0.7c-0.1,0.1-0.2,0.1-0.1,0.2c0.1,1.2-1.3,1.5-1.4,2.7c-0.8-1.4-0.8-1.4,0.2-2.4c0.1-0.1,0.2-0.2,0.4-0.2
		c1-1.4,2.3-2.3,4.2-2.1c0.2,0,0.5,0,0.6-0.2c0.1-0.5-0.2-0.4-0.6-0.5c-1.1-0.2-2.1,0.4-3.3,0.1c-2.9-0.5-4.6,1.3-6.5,2.6
		c-0.2,0.2-0.7,0.6-0.4,0.7c1.1,0.5,1.5,1,1.1,2.1c0,0,0.4,0.2,0.6,0.4c0.4,0.2,0.7,0.5,1,0.7c2.5,1.9,5.5,2.6,8.4,2.5
		c2-0.1,4.2-0.5,5.8-1.9c0.4-0.4,0.7,0,1.1-0.1c-0.2-0.6-0.7-0.7-1.2-0.7c-0.4,0.1-0.8-0.2-0.7-0.4c1-0.6,0.7-2.3,2.4-2.1
		c0.6,0.1,1.2-0.5,1.1-0.7c-0.5-1.3,0.8-2.1,0.8-3.4c0-0.5,0-1.1,0.4-1.2c1-0.6,0.7-1.3,0.5-2.1c-0.5-1.2-0.6-2.4-0.7-3.7
		c-0.1-0.4,0.1-0.7-0.4-0.8c-0.4-0.1-0.6,0.2-0.7,0.6c-1,1.7-3.1,1.5-4.4,2.7c-0.1,0.1-0.4,0.1-0.4,0c-1.1-1-1.2-0.4-1.2,0.7
		c0,0.4-0.4,0.7-0.7,0.5c-0.4-0.1-0.1-0.5,0-0.7c0.4-1.3,1.3-2.1,3-2.1c0.6,0,0.8-0.1,1.1-0.7c0.2-0.7,0.8-1.1,1-1.9
		c0-0.4,0.4-0.6,0.7-0.1c0.1,0.2,0.2,0.7,0.6,0.4c0.2-0.2,0.5-0.6,0.6-0.8c0.1-0.2-0.4-0.5-0.1-0.7c0.1-0.4,0.4-0.7-0.1-0.8
		c-0.6-0.2-0.6,0.4-0.7,0.6c-0.2,0.4-0.7,0.6-1,0.6c-0.2,0-0.6-0.5-0.6-0.7c0.2-1.1-0.7-1.7-1.4-2.1c0.7-0.4,1.1-0.7,1.1-1.3
		c0-0.4,0.2-0.5,0.6-0.6c0.4,0,0.4,0.4,0.5,0.6c0.4,0.7,0.5,1.3,0.1,2.1c1.1-0.5,1.1-1.2,0.8-2c-1-2.7-0.8-5.8-2.1-8.6
		c-0.2-0.7,0.1-1.7-0.6-1.8s-1.2,0.7-1.8,1.1c0,0,0,0.1-0.1,0.1c-0.4,0.4-0.7,0.7-1.1,0.2s0-0.7,0.5-1.1c0.7-0.6,0.7-0.6,0.7-1.3
		c-3,1.7-5.6,3.8-8.3,6.1c-3.2,2.5-6.4,5.1-9.4,7.8c-0.4,0.4-0.7,0.7-0.7,1.1c-0.4,2.9-0.2,5.7,0.5,8.6c0,0.2,0.1,0.6,0.4,0.5
		c0.8-0.2,1.9,0.4,2.5-0.7C193.4,100.6,194.2,100.3,195.1,100.7z M87.6,105.5c-1.3-1.1-1.9,0.2-2.6,0.7c-0.1-0.1-0.2-0.2-0.2-0.4
		c-0.1-0.5-0.4-0.8-0.8-0.7c-0.5,0-0.7,0.2-0.8,0.7c-0.1,0.6,0.1,1,0.6,1.2c0.7,0.6,1.7,0.8,2.3-0.1c0.2-0.5,0.7-0.7,1.2-0.6
		c0.6,0.4,0.4,0.8,0.1,1.4c-0.1,0.2-0.5,0.4-0.1,0.7c0.2,0.2,0.5,0.2,0.7,0.1c0.4-0.2,0.7-0.4,0.8-0.6c0.4-0.7,1-1.1,1.7-1.4
		c1.1-0.7,2.1-1.7,3.3-2.3c0.8-0.5-0.4-1,0.1-1.3c0.7-0.5,0.8,0.7,1.2,0.6c1.1-0.7,2.1-1.1,3.4-1.5c1.5-0.6,3-1.4,4.6-1.9
		c0.4-0.1,0.8-0.4,1.1,0.1c0.2,0.6-0.5,0.7-0.8,0.7c-0.6,0.1-1,0.1-0.7,0.7c0.7,1.7-0.7,2.1-1.4,3c-0.5,0.6-1,0.7-1.2-0.4
		c-0.1-0.6-0.5-1.4-1.2-0.8c-1,0.7-2.4,0.6-3.1,1.9c-0.2,0.4-0.7,0.6-1.2,0.7c-1.8,0.2-3,1.3-4.2,2.7c0.4,0.1,0.6,0.1,0.7,0.1
		c1.3-0.4,2.6-0.5,3.9-0.7c1.3-0.2,3.2,0,3.6-2.1c0-0.2,0.5-0.4,0.7-0.2c2.6,0.2,4.4-1.4,3.9-3.9c0.6,0.2,1.1,0.7,1.3-0.2
		c0.4-1.1,0.8-2.1,1.3-3.1c0.8-1.7-0.8-3.8,1.2-5.1c0.1-1.7,1.3-3.1,1.1-5c0-0.6-0.5-1.3-0.1-1.7c1-1,1-2.3,1.5-3.6
		c0.4-0.7-0.1-1.8,0.6-2.3c1.5-1.2,1.3-3.2,2-4.8c1-2.4,1.5-5,2.5-7.4c0.4-0.7,1-1.4,1-2.1c-0.1-2.1,1.4-3.7,1.7-5.7
		c0.2-2.3,1.9-4.3,2.5-6.5c0.6-1.7,1.1-3.2,1.1-5c0-0.2,0.1-0.4,0.4-0.4c0.7,0,0.8-0.4,0.5-0.8c-0.2-0.4-0.2-0.6,0.1-0.7
		c1.8-1.9,2.6-4.2,3.2-6.5c0.7-2.5,1.9-4.9,2.4-7.5c-0.2,0-0.6,0.1-0.8,0.1c-1.2-0.1-2.5-0.5-3,1.3c-0.1,0.2-0.6,0.7-1,0.5
		c-0.5-0.4,0.5-0.5,0.2-0.8c-0.6,0-1.1,0.2-1.4,0.7c-0.5,0.6-1.1,0.7-1.4,1.7c-0.2,0.6-0.7,0.1-1.2,0c0.1,0.7-0.1,0.8-0.7,1
		c-0.5,0-0.7,0.2-1,0.6c-0.6,0.7-1.2,1.1-2.1,1.1c-0.6,0-1.1,0.2-1.7,0.4c0.7,1.2-0.7,0.8-1,1.2c-1,1.2-2.4,1.7-3.6,2.6
		c-0.8,0.7-1.9,1.8-2.7,1.8c-1.3,0-1.8,0.7-2,1.5c-0.4,1.4-1.3,2.5-1.9,3.8c-0.8,2-2.7,3.7-2,6.3c0.1,0.2-0.2,0.5-0.2,0.7
		c-0.2,1.3-1.9,1.3-2.1,2.5v0.1c-1.7,1.8-2.1,4.2-3.3,6.4c0.8-1.4,3.3-0.7,3.7-2.7c-0.2,0-0.4,0.1-0.5,0.2c-0.1,0.4-0.4,0.7-0.7,0.4
		c-0.4-0.2-0.4-0.7,0-0.8c0.2-0.2,0.5-0.5,0.7-0.6c0.8-0.1,1.4-0.6,1.8-1.3c0.2-0.7,0.7-0.6,1.2-0.2c0.1,0.1,0.2,0.2,0.4,0.4
		c0,0.2,0,0.4,0,0.6l0,0c-1-0.7-1.2,0.2-1.4,0.8c-0.2,1-0.6,2-1.4,2.5c-0.7,0.5-1.7,0.6-2.1,1.1c-0.5,0.5-1.5,0-1.4,1.1
		c-0.7-0.1-1.3,0.7-2,0.2c-0.2,0.6,0.6,0.5,0.5,0.8c-0.1,0.4-0.8,0.7-0.2,1.1c0.7,0.4,1-0.1,1.4-0.7c0.1-0.1,0.4-0.1,0.5,0
		c-0.1,0.8-0.5,1.3-1.4,1.2c-0.7-0.1-1,0.4-1.2,0.8c-0.1,0.4-0.1,0.7-0.5,0.7c-1.7,0.7-2.1,2.1-2.7,3.8c1.1-0.7,2.1-1.4,3.1-2.1
		c0.2-0.1,0.5-0.4,0.7-0.1c0.4,0.4-0.1,0.6-0.2,0.7c-0.8,1-2.1,1.3-2.9,2.4c0.2,0.6,0.8-0.1,1.2,0.5c-0.7,0.4-1.5,0-2.1,0.5
		c0.5,0.4,1.1-0.5,1.4,0.4c-0.7,0.4-1.5,1-2.5,0.4c0.4,1.2-0.7,1.5-0.8,2.3c-0.1,0.2-0.7,0.6-0.1,0.7c1,0.4,0.6,0.8,0.2,1.3
		c-0.5,0.6-1,1.1-1.5,1.7c-0.5,0.5-1.1,0.7-0.2,1.5c0.5,0.4-0.1,0.6-0.4,0.7c-1.2,0.8-2.1,2-2.9,3.6c1,0.1,2.1,0,1.8,1.5
		c0,0,0.1,0.1,0.1,0.2c0.8,0.7,0.4,1-0.2,1.3c-0.5,0.2-1.1,0.5-1.2,0.7c-0.4,0.8-1,0.7-1.8,1c0.2-1.1,2.4-1.8,0.6-3
		c-0.4,0.6,0.6,1,0.4,1.1c-1.3,0.6-1.9,1.3-1.5,2.7c-0.2,0-0.5,0.1-0.6,0.5c0,0.5-0.7,0.7-0.4,1.2c0.4,0.4,0.8,0.2,1.4,0.1
		c0.2,0,0.5-0.1,0.7-0.2c0.7-0.4,1.5-0.1,2.3-0.1c1.1,0,2.5,0.6,3.4-1c0.7-1.2,1.5-2.4,3.1-2.9c0,0,1.4-0.5,0.2-1
		c-0.2-0.1-0.2-0.4-0.1-0.5c0.1-0.4,0.4-0.4,0.7-0.2c0.4,0.1,0.7,0.4,1,0c0.4-0.5-0.4-0.7-0.5-1l0,0c0.6-0.1,1-0.5,1.1-1
		c0.1-0.6,0.5-0.7,1-0.7c0.5,0.4,0.1,0.7,0,1.1c-0.4,1,0.5,0.7,0.7,0.7c0.6-0.1,1-0.5,1.2,0.5c0.2,1-0.6,0.6-0.8,0.7
		c-0.8,0.4-1,1.1-1.1,1.9c0,0.2-0.2,0.6,0.2,0.6c1.1,0.1,0.6,0.5,0.1,0.8c-0.4,0.4-0.7,0.7-1.1,1.1c-0.5,0.4-0.7,0.7-0.4,1.1
		c0.4,0.4,0.8,0.4,1.2-0.1c0.5-0.7,1.2-1.1,2-1.5c0.7-0.5,1.4-0.7,2.1-1.4c0.7-0.7,1.9-1.4,3.1-0.6l0,0c-0.7,1.4-2.4,1.2-3.4,2.1
		c-1,0.8-1.9,1.5-2.9,2c-0.4,0.2,0.2,0.7-0.5,0.7c-1.2,0.4-2.3,0.5-3.4,1.3c-1.8,1.3-3.4,2.6-5.1,3.9c0.6,0.4,0.8,0.2,1.3,0
		c1.2-0.7,2.5-1.5,3.8-2.3c0.4-0.2,0.6-0.6,0.8,0c0.2,0.4,0.1,0.7-0.2,0.8c-0.5,0.2-0.7,1.1-1.3,0.6
		C88.8,104.3,87.7,104.4,87.6,105.5L87.6,105.5z M146.4,33.5c-0.6-0.6-1.3-0.6-2-0.5c-2.1,0.1-4.2,0.4-6.3,0.2c-2.6-0.1-5.1,0-7.8,0
		c-0.7,0-1.3,0.1-1.7,1.1c-0.8,2.6-1.8,5.2-3,8c-2.1,4.8-3.7,9.5-5.2,14.4c-1.1,3.4-2.6,6.5-3.4,10.1c-0.5,1.8-1.4,3.3-1.8,5.1
		c-0.4,1.5-0.7,3.1-1.3,4.4c-1,2-1.5,4.2-2.3,6.3c-0.5,1.1-0.8,2.1-0.8,3.6c0,0.7-0.8,1.3-1.1,2.3c-0.7,3.4-1.3,6.8-2.6,10.1
		c-0.1,0.5-0.2,0.7,0.2,1c0.7,0.2,1.4,0.7,2.3,0.5c4-0.7,8.2-0.7,12.4-0.7c0.7,0,1.3,0,1.9,0.4c-0.1,0.4-0.4,0.4-0.6,0.4
		c-3.7,0.4-7.1,0.6-10.8,0.7c-1.4,0.1-2.9,0.4-4.3,0.5c-0.4,0-0.7,0-0.6,0.6c1.7,3.6,3.7,6.4,8,7c3.4,0.5,6.8,1.4,9.7-1.4
		c0.1-0.1,0.2-0.1,0.4,0c0.7,0.2,1.1-0.4,1.4-0.7c0.6-0.7,1.1-1.4,1.8-2c2-1.7,2.1-3.9,2.7-6.2c0.4-1.3-0.1-2.9,0.5-3.9
		c0.8-1.5,0.8-3.3,1.2-4.9c0.7-3.1,1.1-6.4,1.9-9.5c0.4-1.2,0.2-2.5,0.7-3.7c1.1-3,1.2-6.3,2.1-9.4c0.8-2.4,0.8-5.1,1.4-7.6
		c0.2-1.1,0.8-2.1,1.1-3.3c0.2-2.1,0.7-4.4,1.4-6.5c1.1-2.7,1.1-5.7,1.9-8.4c0.6-2,0.6-4.2,1.7-5.9
		C146.3,34.4,146.7,34.2,146.4,33.5c1.5,1,3,0.5,4.3-0.5C149.2,33.1,147.8,33.2,146.4,33.5z M100.4,107.7c-0.1,0-0.2,0.1-0.4,0.1
		c-0.6,0.4-1,1-0.5,1.4c1.1,0.7,1.1,1.7,1.1,2.7c0,2-0.2,3.8-0.5,5.7c-0.2,2.1-0.2,4.3-0.2,6.5c-0.1,2.9-0.5,5.6-0.7,8.4
		c-0.5,4.9,0.2,9.6-0.5,14.5c-0.2,1.8,0.4,3.6,0,5.1c-0.6,3,0.5,5.9-0.7,8.8c-0.1,0.4,0,0.7,0,1.2c0.1,2.5,0.1,5.1,0.2,7.5
		c0,4-0.6,8.1-0.5,12.2c0,1.8,0.4,3.7,0,5.3c-0.5,3-0.5,5.8-0.6,8.8c-0.1,3.2,0.2,6.4-0.4,9.5c-0.4,1.7-0.1,3.2,0.7,4.6
		c0.2,0.4-0.5,0.2-0.4,0.6c0.6,0.1,1-0.5,1.5-0.4c2.9,0.5,5.6,0.2,8.4,0.2c2.3,0,3-0.7,3-3.1c0-1.8,0-3.6,0.2-5.2
		c0.8-6.8,1.2-13.8,1.2-20.5c0-0.7-0.5-1.5,0-2.3c0.4-0.6,0.2-1.1,0.2-1.7c-0.2-2.9,0.6-5.6,0.4-8.4c0-0.6,0.4-1-0.2-1.4
		c-0.4-0.2-0.2-0.7,0-1c0.5-0.5,0.4-0.7,0.1-1.1c-0.2-0.5-0.1-0.7,0.2-0.8c0.4-0.2,0.4-0.6,0.4-0.8c0-1.5,0.1-3.2-0.2-4.8
		c-0.1-0.7,0.4-1.5,0-2c-0.6-0.7-0.7-1.4-0.4-2c1-1.7-1-3.4,0.4-5.1c0.2-0.2,0-1.1-0.2-1.7c-0.4-0.8,0.2-0.7,0.7-0.8
		c0.7-0.1,0.7,0.1,0.8,0.7c0,0.8,0,1.7-0.1,2.5c-0.5,3.7-0.1,7.2,0,10.9c0.1,3.3,0.1,6.5-0.1,9.9c-0.2,5.2-0.2,10.7-0.7,16
		c-0.7,6.8-0.7,13.7-1,20.4c-0.1,2,0.1,2.3,2.1,2.4c0.5,0,0.7-0.1,1.2-0.1c1.5,0,3.1,0,4.8,0c0.8,0,2.4,0.5,2.4,0.2
		c0.7-1.4,1.5-0.1,2.3-0.1c0.6,0,1,0.2,1.5,0c1.4-0.5,3,0,4.3,0.1c2.3,0.1,4.8,0,7,0.2c1.1,0.1,2.3-0.1,3.4-0.1
		c1.9,0,3.7-0.5,5.6,0.1c0.4,0.1,1.5,0.6,1.7-0.6c0.2-2.3,0.1-4.6,0.2-6.9c0.1-4.4-0.5-8.7,0-13.1c0.4-3.4,0.2-6.7,0.1-10.1
		c0-2.1,0.4-4.5,0-6.7c-0.4-1.8,0.5-3.4,0.4-5.1c-0.2-2.7-0.1-5.3,0-8.1c0.2-4.4-0.2-8.8-0.5-13.2c0-0.6-0.2-0.8-0.7-0.6
		c-1.2,0.7-2.5,0.5-3.7,0.6c-3.8,0.2-7.7,0.6-11.5,0.5c-5.1-0.1-10-0.1-15.1-0.2c-1.2,0-2.4,0.2-3.6-0.6c-0.2-0.2-0.6-0.2-0.8,0
		c-0.6,0.5-0.8,0.1-1-0.4c-0.1-0.7,0.5-0.6,0.7-0.6c1.9-0.1,3.7-0.2,5.6-0.2c7.1-0.1,14.3,0.7,21.4,0.2c2.3-0.1,4.8-0.1,7-0.4
		c2.1-0.2,3.3,0.4,3.2,3c-0.2,4.8,0.1,9.5,0.1,14.1c0,7.1,0.2,14.1,0.1,21.3c-0.1,5.1-0.2,10.1-0.4,15.2c0,3.6,0.5,7,0.1,10.7
		c-0.1,0.8,0.6,1.1,1.3,1.1c1.4,0,2.7-0.1,4.2,0.1c2.3,0.4,4.5,0.1,6.8,0.2c2,0.2,3.9-0.6,5.8,0.4c0.2,0.1,0.5,0,0.7,0
		c2.3-0.1,4.8-0.5,7-0.2c1.9,0.2,3.7-0.2,5.3-0.1c2,0.1,3.9,0,6.1-0.1c3.9-0.2,7.8,0.2,11.8,0.2c3.3,0,6.5,0.2,9.7-0.1
		c0.7-0.1,1.5-0.4,2-0.1c1.2,0.6,2.4,0.4,3.7,0.2c0.6,0,1.1-0.1,1.7,0c2.4,0.4,5,0.6,7.5,0.5c2.1,0,4.3-0.2,6.4,0.1
		c2.3,0.2,4.5-0.1,6.8,0c1.5,0,3.3-0.7,4.5,0.7c0.1,0.1,0.5,0.4,0.6,0.1c0.7-1.4,1.5-0.4,2.4-0.2c-0.1-1.8,0.2-3.4-0.2-5.1
		c-0.4-1.1-0.4-2.1-0.2-3.2c0.6-3.9,0.2-7.8,0.7-11.8c0.1-1,0.4-2.1-0.1-3.4c-0.4-0.8-0.2-2,0.1-3c0.5-1.3,0.5-2.9,0.1-3.8
		c-0.4-1.2-0.1-2.1,0-3.3c0.1-1-0.2-2.1,0-3c0.7-2.5,0.2-5.1,0.5-7.6c0.2-3.6-0.1-6.9,0-10.5c0.1-3.4-0.5-6.9-0.2-10.3
		c0.1-1.2,0.1-2.5-0.1-3.7c-0.5-2.3,0.1-4.6-0.1-6.9c-0.2-2.1-0.7-4.5-0.1-6.8c0.1-0.2-0.1-0.6-0.2-0.7c-0.4-1.2-0.4-2.4-0.4-3.7
		c0-4-0.1-8.1-0.7-12.2c-0.4-1.9-0.5-3.7,0.7-5.3c0.1-0.2,0.2-0.5,0-0.7c-0.2-0.4-0.5,0-0.7,0.1c-1,0.4-1.8,1-2.4,1.9
		c-0.7,0.8-1.7,1.7-2.9,2.1c-3.7,1.5-7.2,2-11,1.1c-3.7-0.8-7.2-2.1-9.6-5.3c-0.7,0.7-0.7,1.9-1.5,2.4c-2.7,1.9-5.2,4-8.8,4.2
		c-3.9,0.1-7.8,0-11-2.7c-0.6-0.5-1.1-0.8-1.8-1.2c-1.5-0.8-2.6-2.1-3.8-3.6c-1.5-1.8-3.2-1.9-4.3,0c-1.2,2.1-3.1,3.4-5,4.8
		c-1.7,1.2-3.7,1.8-5.8,1.2c-1.1-0.4-2.3-0.5-3.6-0.7c-3.1-0.6-5.8-1.7-8-3.9c-1-1-1.5-2.3-2-3.7c-1.1,0.5-1,1.7-1.7,2.1
		c-1.8,1.5-3.1,3.4-5.6,4c-2,0.5-3.8,1.3-5.8,1.1c-1.1-0.1-2.3-0.4-3.4-0.6c-3.4-0.7-6.9-1.3-8.9-4.8c-0.1-0.1-0.2-0.2-0.4-0.2
		c-1-0.2-1.2-1-1.7-1.7c-0.6-0.7-0.8-1.7-1.7-2.3c-1.3,1.5-3,2.7-4,4.3c-1.4,1.9-3.3,2.3-5.2,2.9c-2.9,0.7-5.8,0.4-8.6-0.2
		c-1.3-0.2-2.7-0.2-3.7-1.2c-1.4-1.4-3.2-2.4-4.5-4c-1.3-1.5-1.3-1.4-2.6,0.1c-0.8,1-1.4,2.4-3.1,2.3
		C100.4,106.9,100.4,107.4,100.4,107.7z M187.7,97.9c0-0.6,0.2-1.1,0.1-1.5c-0.4-1.4-0.6-2.7-0.7-4.3c-0.1-1.7,0.4-3.3-0.1-5
		c-0.2-0.8-0.4-1.7,0.2-2.4c0.1-0.1,0.1-0.5,0-0.7c-0.6-1.4-0.1-3-0.7-4.4c-0.6-1.7-0.1-3.7-0.1-5.5c0-1.2,0.7-2.4-0.2-3.7
		c-0.1-0.2-0.1-0.6-0.1-0.8c0.1-1.2,0-2.4,0-3.7c0-0.4,0-0.7-0.5-0.7c-0.7-0.1-0.5-0.6-0.5-1c0.1-1.1,0.7-2.1,0.6-3.3
		c-0.2,0.2-0.5,0.4-0.7,0.5c-0.2,0-0.2-0.2-0.1-0.5c0.5-0.5,0.6-0.8,0-1.3c-0.1-0.1,0-0.4,0-0.6c0.5-0.7,0.5-0.7,0-1.2
		c-0.2-0.4-0.6-0.7-0.4-1.1c0.6-2.1,0.4-4.2,0.2-6.3c-0.1-2-0.1-3.9-0.5-5.9c-0.2-1.5,0.4-3.1,0.1-4.6c-0.4-2-0.4-3.9-0.7-5.9
		c-0.1-0.7-0.4-1.7-1.1-1.8c-2-0.4-4-0.1-6.1-0.1c-2.9,0-5.6,0.4-8.4,0.5c-0.7,0-2.1-0.6-2.1,0.8c-0.2,1.8-0.8,3.4-0.8,5.1
		c0,2.5,0.1,5-0.4,7.5c-0.8,5.5-0.7,11-1,16.6c-0.2,4.4-0.7,8.9-0.7,13.3c0,1.2-0.5,2.4-0.5,3.7c0.1,3.3-0.6,6.5-0.6,9.7
		c0,3.4-0.8,6.8-0.2,10.3c0.2,1,0.7,1.3,1.5,1.2c1.7-0.1,3.2-0.6,4.8-0.7c2.4-0.2,4.9,0,7.2-0.2c1.4-0.1,2.9,0.2,4.3,0
		c0.5,0,0.8,0.1,1.3,0.4c0.4,0.1,0.7,0.1,0.6,0.6c-0.1,0.4-0.5,0.2-0.7,0.2c-5.6,0.2-11.2,0-16.7,0.8c-0.8,0.1-0.8,0.4-0.7,1
		c0.5,3,2.6,4.6,4.9,6.2c2.1,1.5,4.9,1.1,7.4,1.7c1.3,0.4,2.7,0.1,3.9-0.5c3-1.3,5.1-3.7,7.4-6.1c0.6-0.7,0.6-1.3,0.6-2.1
		c-0.1-1.3-1-2.7,0.1-4c0.1-0.2-0.1-0.1-0.2-0.2c-0.7-0.6-0.8-1.1-0.2-2.1C187.6,96.7,186.6,97.6,187.7,97.9z M200.6,32.3
		c0.6,1.8,0.7,3.6,1.1,5.2c1.1,5.2,2.7,10.6,3.7,15.9c0.8,4.8,2.1,9.5,3.4,14.1c1.1,4.8,2.3,9.4,3.2,14c1.3,6.5,3.3,12.9,4.6,19.6
		c0.2,0.8,0.7,1.2,1.5,1.2c1.9,0,3.7-0.1,5.5-0.2c2.7-0.1,5.5,0,8.2-0.2c2.1-0.1,4.4,0.2,6.5,0.1c1-0.1,1.3-0.6,1.2-1.4
		c-0.1-0.5-0.1-1-0.4-1.4c-1.7-4.6-3.3-9.4-5-13.9c-0.2-0.7-0.5-1.4-0.6-2.1c-1-3.2-2-6.5-3-9.6c-0.6-1.8-0.7-3.6-1.5-5.1
		c-1.1-2.3-1.8-4.8-2.5-7c-1.4-4.3-2.4-8.7-4.3-12.8c-0.7-1.5-1.4-3.2-1.9-4.9c-1.1-3.4-2-6.8-3.3-10.1c-0.4-0.7-0.6-1.4-1.7-1.1
		c-0.8,0.2-1.8,0.1-2.6,0C208.7,31.8,204.7,32.4,200.6,32.3z M230,112.1c4.3,0.2,7.6-0.6,10.2-3.3c1.1-1.1,1.4-2.4,0.8-3.7
		c-0.6-1.2-1.3-2.1-3-2c-2.9,0.2-5.7,0.4-8.7,0.2c-3.6-0.1-6.9,0.4-10.3,0.4c-1.4,0-1.5,0.4-1.1,1.5c0.1,0.4,0.1,0.7,0.1,0.8
		c0.4,1.7,1.3,3.2,2.7,3.7C224,111.2,227,112.6,230,112.1z M155.2,95.4c0.7,0.2,0.7-0.7,1.3-0.8c2.4-0.7,3.7-2.1,3.7-4.8
		c0-0.4,0-0.7-0.1-1c-0.1-0.7-0.1-1.5,0.2-2.3c0.2-0.5,0.6-1,0.1-1.4c-0.5-0.5-1-0.1-1.4,0.1c-2.3,1.2-4.5,2.6-6.7,3.9
		c-2.1,1.4-4.3,3.1-6.5,4.4c-0.2,0.1-0.6,0.4-0.7,0.6c-1.7,1.8-3.7,3.1-5.5,4.6c-0.2,0.2-0.7,0.2-0.7,0.7c0.1,0.5,0.6,0.5,1,0.5
		c2.9,0,5.7,0,8.6,0c0.8,0,2,0.1,2.1-1.2c0-0.1,0.4-0.4,0.6-0.4c1-0.4,1.7-1.1,2.4-1.8C153.7,96,154.2,95.4,155.2,95.4z M115.1,35.6
		c-0.8,0.6-1.7,1.2-2.5,1.7c-0.7,0.4-1.3,1-2,1.4c-2.1,1.1-3.9,2.3-5,4.6c-0.1,0.4-0.6,0.7-0.2,1.1c0.5,0.4,0.8,0,1.2-0.4
		c0.5-0.5,1.1-0.8,1.3-1.4c0.5-1.3,1.5-1.9,2.3-2.7c0.6-0.7,1.3-0.6,2-0.8c2.7-1.5,5.3-3.3,8.2-4.6c0.2-0.1,1,0,0.7-0.6
		c-0.1-0.5-0.7-0.4-1-0.4c-2,0-3.9,0.1-6.1,0.1c-0.8,0-1.7-0.1-2,1c-0.5-0.2-0.5-0.8-1-0.7c-0.4,0.1-0.4,0.6-0.4,0.7
		c-0.2,1.5,1.4,0.4,1.7,1.3c-0.5,0.2-1,0.6-1.7,1C112.8,36.8,113.7,35.2,115.1,35.6z M161.9,223.9c0.2,0.6,0.6,0.8,0.5,1.5
		c-0.2,0.7,0,1.3,0.5,1.9c0.5,0.6,0.7,1.1,1.4,0.7c0.7-0.4,0.6-1,0.4-1.7c-0.4-0.8-0.5-1.9-0.4-2.9c0.1-1.7-0.2-2-1.9-1.9
		c-0.5,0-0.8,0.1-1.3,0.1c-1-0.1-1.2,0.6-1,1.2c0.4,1,0.2,2,0.4,3c0.1,0.6,0.1,1-0.5,1.2c-0.6,0.1-1-0.1-1.1-0.7
		c-0.2-0.7-0.5-0.4-0.7-0.1c-0.7,0.6-0.8,1.1,0.2,1.4c0.6,0.2,1.1,0.4,1.8,0.4c1.1,0,1.7-0.4,1.3-1.7
		C161.1,225.8,161.5,224.8,161.9,223.9z M196,32.4c-2.4,0.7-5.1-1.2-7.4,1.2c-0.1,0.1-0.4,0.1-0.5,0.2c-1.8,0.7-2.1,1.2-2.1,3.1
		c0,0.5-0.2,0.8,0.4,1.2c0.6,0.4,0.8-0.2,1.2-0.6C190.3,35.6,192.7,33.4,196,32.4z M251.9,90.8c1.1-0.8,1.9-2,2.7-3
		c1.3-1.5,2.5-3.2,4.3-4.2c0.7-0.5,0.7-0.7,0.4-1.2c-0.2-0.4-0.4-0.7-0.7-1c-0.2-0.2-0.4-0.7-0.7-0.6s-0.2,0.6-0.4,0.7
		c-0.1,0.5-0.4,0.8-0.7,1.2c-1.8,1.4-2.3,3.7-3.8,5.2C252.3,88.8,251.8,89.5,251.9,90.8z M198.3,226.9c-0.1-0.2,0.5-0.7-0.2-1
		c-0.7-0.2-0.7,0.4-1.1,0.7c-0.2,0.4-0.6,0.8-1,0.7c-0.7-0.5-2-0.6-1.9-2c0-0.7-0.1-1.4,0-2.1c0.2-0.7-0.2-1-0.8-1
		c-0.6,0-1.3,0-1.3,0.8c0,1.1,0.1,2.1-0.1,3.3c-0.1,0.5,0.1,0.7,0.7,1.1c1.1,0.6,2.3-0.1,3.4,0.5c0.6,0.4,1.2,0.1,1.8,0
		C198.3,227.8,198.7,227.7,198.3,226.9z M226.2,222.4c0.1,0.7,0.2,1.1,0.1,1.5c-0.1,1.2-0.6,2.3,0.1,3.6c0.4,0.6,0.7,0.7,1.1,0.7
		c0.1,0,0.5-0.1,0.4-0.2c-0.4-0.4-0.5-0.6,0.1-0.6c0.2,0,0.7-0.4,0.7,0.5c-0.1,0.5,0.7,0.7,0.8,0.7c0.5-0.1,0.7-0.7,0.6-1.1
		c-0.5-1.1,0.1-2.3-0.6-3.3c-0.2-0.4-0.5-1.1,0.7-1.3c-0.8-0.1-1.2,0-1.4,0.7s-0.1,1.3-0.1,2.1c0,0.7-0.7,1.2-1.1,1.2
		c-0.5,0-0.2-0.7-0.4-1.1C226.8,224.8,227.7,223.4,226.2,222.4z M92.9,225.2c0,0.7-0.1,1.4,0.2,2.1c0.2,0.5,0.4,1.1,1,1
		c0.7-0.1,0.6-0.7,0.6-1.3c0-0.4,0.1-0.7,0.1-0.8c-0.2-0.7,0.5-1.8-0.5-2.5c-0.7-0.6-1-1-0.1-1.7c0.2-0.2,0.2-0.7,0-0.7
		c-0.5-0.2-0.8-0.4-1.3-0.2c-0.4,0-0.2,0.5-0.2,0.7C92.8,222.8,92.8,224,92.9,225.2z M220.8,224.7c0.1,0.8,0.5,1.8,0.5,2.7
		s0.5,1,1.1,0.8c0.5,0,0.7-0.2,1-0.6c0.7-1.1,0.2-3.2-1-3.9c-0.4-0.2-0.7-0.5-1.2-0.2C220.6,223.7,221,224.2,220.8,224.7z
		 M167.3,222.6c0.5,1.8,1.2,3.4,1.5,5.1c0.1,0.6,0.7,0.6,1.1,0.4c0.5-0.2,0.2-0.6,0.1-0.8c-0.5-1.3-1.1-2.6-0.7-4.2
		c0.1-0.5-0.4-1.3-1.3-1.3C167.2,221.6,167.3,222,167.3,222.6z M79.4,100.2c-0.6-0.1-1,0-0.8,0.5c0.2,0.6,0.1,1.3,0.7,1.7
		c0.5,0.1,1,0,1,0.7c0,0.4,0.4,0.2,0.6,0.1c1-0.2,1.5-1.1,2.1-1.9c0.1-0.1,0.1-0.5-0.1-0.5c-0.6,0.2-1.1-1-1.8-0.1
		c-0.1,0.2-0.7,0.1-0.8-0.2C80.1,100.2,79.6,100.2,79.4,100.2z M84.4,223.1c0.1-0.6,0.1-0.7,0.2-1.1c0.1-0.5,0.4-0.7,0.7-0.7
		c0.6,0,0.5,0.6,0.5,0.8c0,0.5,0,0.7-0.1,1.2c-0.2,1.3-0.1,2.5-0.1,3.8c0,0.4,0,0.7,0.5,0.7c0.4,0,0.4-0.5,0.4-0.7c0-1.3,0-2.7,0-4
		c0-0.7,0-1.2,0.7-1.3c0.5-0.1,0.6-0.2,0.6-0.7c0-0.4-0.2-0.6-0.6-0.7c-1.9-0.6-2.9,0.1-2.7,2C84.3,222.7,84.3,222.7,84.4,223.1z
		 M156.9,228.5c-0.5-0.7-0.8-1.3-0.1-1.9c0.2-0.2,0.2-0.2-0.2-0.5c-0.6-0.2-0.7-0.7-0.7-1.1c0-0.7-0.2-1.4,0-2.1
		c0.1-0.6-0.1-1-0.7-1c-0.7,0-0.7,0.7-0.5,1c0.4,1,0.2,2,0.1,3C154.6,227.4,155.3,228.1,156.9,228.5z M252.7,225.6
		c-0.7,0.5-0.6,1.2-0.7,1.8c-0.1,0.5-0.1,0.8-0.7,1c-0.7,0-0.7-0.5-0.7-0.8c0-0.5,0-1,0-1.4s-0.1-0.7-0.6-0.7
		c-0.4-0.1-0.7-0.2-1.1,0.1c-0.2,0.2-0.2,0.6,0,0.8c0.4,0.6,0.2,1.1,0.4,1.7c0.1,0.6,0.4,1,1,1.1c1.8,0.2,2.1-0.1,2.3-1.9
		C252.5,226.5,252.5,226.1,252.7,225.6z M244.7,226c0.1-0.4,0-0.8-0.6-1.1c-0.5-0.2-0.8-0.2-1.2,0.2c-0.5,0.5-0.5,0.7-0.1,1.3
		c0.4,0.5,0.4,0.8,0.1,1.3c-0.1,0.4-0.6,0.7,0,1c0.5,0.2,1,0.4,1.5,0.1c0.7-0.2,0.2-0.7,0.2-1C244.5,227.4,244.6,226.7,244.7,226z
		 M223.8,32.8c-2-0.7-3.3,0.4-4.6,1.3c-0.4,0.2-0.6,0.7-0.1,0.8c0.4,0.2,0.5,1,1.1,0.4C221.2,34.4,222.5,33.8,223.8,32.8z
		 M102.5,221.4c-0.6,0.4-0.7,0.8-0.5,1.3c0.4,1.3,0.6,2.6,0.6,3.9c0,0.6,0.4,1,0.7,1.3c0.1,0.1,0.4,0.1,0.5,0.1c0,0,0.1-0.2,0.1-0.4
		c-0.4-2-0.7-4-1-6.1C103,221.6,102.9,221.4,102.5,221.4z M243.9,69.7c0.6,0.1,0.7-0.2,1-0.6c0.7-1,1.5-2,2.6-2.7
		c0.5-0.4,0.7-1,1.2-1.4c0.4-0.4,0.5-0.7,0.1-1c-0.5-0.4-0.6,0.1-0.7,0.4c-1.1,1-2,2.1-2.9,3.6C244.6,68.4,243.8,68.8,243.9,69.7z
		 M238.5,224.1c-0.6,0.6-1.5,0-1.5,1.1s0.7,2.1,0.1,3.2c-0.1,0.4,0.4,0.6,0.7,0.6c0.5,0,1,0.1,1.4-0.2
		C238.4,227.3,238.4,225.9,238.5,224.1z M126.5,221.1c-0.6,0.1-0.5,0.7-0.4,1c0.4,1.8,0.7,3.7,1.1,5.3c0,0.2,0.1,0.5,0.4,0.5
		c0.4,0.1,0.5-0.2,0.7-0.5c0.4-0.5,0.1-1-0.1-1.2c-0.7-0.7-0.8-1.4-0.7-2.3c0.1-0.4-0.1-0.6-0.4-0.8c-0.4-0.5-0.5-0.7-0.1-1.3
		C127.7,221.2,127.1,221.2,126.5,221.1z M139.5,100.8c-1.5,0.2-3,0.5-4.5,0.7c-0.4,0-0.7,0.1-0.7,0.6c0,0.5,1.8,1.2,2.1,1
		C137.6,102.6,138.2,101.4,139.5,100.8z M122.3,221.4c-0.6,0.7-0.7,1.2-0.5,2c0.4,1.1,0.1,2.3,0.6,3.4c0.1,0.2,0.2,0.7,0.7,0.6
		c0.4-0.1,0.4-0.4,0.4-0.7C123,224.8,122.9,223.1,122.3,221.4z M158,107c-1.5-0.2-5.1,1.8-5.8,3.1C154.6,109.9,156,108.1,158,107z
		 M91.1,225.4c0,0.2,0,0.4,0,0.5c0,0.5,0,0.8,0.6,0.8c0.7,0,0.5-0.6,0.5-0.8c0-0.6-0.1-1-0.1-1.5c0-1.1-0.8-2.1-0.4-3.3
		c0.1-0.2,0-0.4-0.2-0.5s-0.5,0-0.6,0.2c-0.2,0.4-0.2,0.7-0.1,1C90.9,223.1,91,224.3,91.1,225.4z M100.4,220.9
		c-0.4,0-0.7,0.1-0.7,0.5c0.2,1.9,0.4,3.8,0.7,5.7c0,0.4,0.2,0.7,0.7,0.6c0.4-0.1,0.4-0.6,0.2-0.7c-0.5-0.8-0.2-1.8-0.7-2.6
		c-0.5-0.7-0.7-1.8,0-2.6C100.9,221.2,100.8,220.9,100.4,220.9z M156.9,224.6c0.7-1.2,0.7-0.4,0.8,0.1c0.1,0.4,0,1,0.6,0.8
		c0.5-0.1,0.6-0.7,0.5-1.1c-0.2-0.7-0.4-1.2-0.1-1.9c0.1-0.4,0-0.7-0.5-0.8c-0.4-0.1-0.7,0-0.8,0.4
		C157.2,222.8,156.5,223.4,156.9,224.6z M177,225.6c0.2-0.6-0.5-1.2,0.5-1.4c-0.2-0.7,0.1-1.5-0.5-2.1c-0.4-0.5-0.7-0.2-1.2-0.2
		c-0.4,0.1-0.5,0.5-0.5,0.7C175.8,223.6,176.2,224.8,177,225.6z M87.3,226.7c0,0,0,0.2,0,0.4c0.1,0.5,0.1,0.8,0.7,1
		c0.4,0.1,0.7,0.1,0.8-0.1c0.4-0.6-0.1-0.7-0.4-1.1c-0.4-0.5-0.2-0.6,0.4-0.6c0.5,0,0.4-0.6,0.1-0.7c-0.5-0.5-0.4-1.3-1-1.5
		c-0.1-0.1-0.2,0.2-0.4,0.4C87.6,225,87.5,225.8,87.3,226.7z M247.6,227.9c0-0.7-0.1-1.5-0.1-2.1c0-0.5-0.2-0.7-0.7-0.7
		c-0.5,0.1-0.4,0.5-0.4,0.8c0,0.6,0.5,1.2-0.1,1.8c-0.2,0.4-0.6,0.7-0.2,1c0.4,0.4,0.7,0.6,1.2,0.4
		C247.9,228.7,247.4,228.1,247.6,227.9z M234.1,226.4c0.1,0.5-0.2,1.1,0.1,1.7c0.2,0.4,0.5,0.7,0.8,0.6c0.5-0.1,0.2-0.6,0.1-0.7
		c-0.1-0.7,0-1.3-0.2-2c-0.2-0.7,0.4-1.9-0.4-1.8c-1,0.1-0.5,1.3-0.7,2C234.1,226.2,234.1,226.2,234.1,226.4z M191.6,105.1
		c1.4,0,2.9-0.7,3.8-1.9C192.1,103.6,192.1,103.6,191.6,105.1z M250.2,103.2c-1.8,0.8-3.7,1.4-5.1,3c-0.1,0.1-0.1,0.4,0,0.5
		c0.1,0.2,0.4,0.2,0.6,0.1c0.4-0.2,0.6-0.5,0.8-0.6C247.8,105.3,248.6,103.8,250.2,103.2z M232.8,228.3c-0.1-0.6-0.2-1.1-0.4-1.7
		c-0.1-0.6-0.2-1-0.1-1.5c0-0.5,0.5-1.1-0.2-1.2c-0.7-0.1-0.6,0.6-0.6,1c0,0.1-0.1,0.2-0.1,0.4c-0.2,0.5,0.5,2.7,0.8,3
		C232.4,228.3,232.6,228.3,232.8,228.3z M196.3,225c2.1,0.6,2.1,0.5,2.1-1.3c0-0.1,0-0.2,0-0.2c0.1-0.7-0.1-0.8-0.7-0.8
		c-0.7,0-0.7,0.5-0.6,0.8C197.1,224,197.1,224.6,196.3,225z M233.4,45c1.1-0.7,2.1-1.3,3.3-1.9c0.2-0.1,0.7,0.1,0.5-0.5
		c-0.2-0.4-0.5-1.1-0.8-0.7C235.3,43,233.9,43.5,233.4,45z M146.5,221.6c0.7,1.2,0.7,2.4,0.8,3.7c0,0.4,0.4,0.7,0.7,0.7
		s0.5-0.2,0.2-0.5c-0.6-0.8-0.1-1.8-0.4-2.6C147.7,222.1,147.4,221.6,146.5,221.6z M241.5,229c0.2,0,0.4-0.2,0.5-0.5
		c0.2-1-0.8-1.3-0.8-2.1c0-0.1-0.4-0.2-0.5,0c-0.4,0.5-0.7,1-0.5,1.4C240.4,228.3,240.7,229,241.5,229z M88.1,98.2
		c1.4,0.4,1-1.3,1.8-1.7c0.4-0.1,0.5-0.7,0.6-1c0-0.1,0-0.2-0.1-0.4c-0.1-0.1-0.4-0.1-0.5,0.1c-0.7,1-1.5,1.8-2.7,2.1
		c0.5,0.5,1-0.1,1.4,0.4C88.4,97.9,88.2,98,88.1,98.2z M218.7,223.6c-0.7,0.8-0.1,2-0.6,2.9c-0.2,0.4-0.2,0.7,0.1,0.8
		c0.1,0.1,0.5,0.1,0.7,0c0.4-0.1,0.4-0.5,0.4-0.7C219.2,225.6,218.7,224.8,218.7,223.6z M114.1,224.3c-0.1,0.7,0,1.5,0.8,1.7
		c0.7,0,0.4-0.8,0.5-1.3c0.1-0.7-0.5-1.1-1-1.1C113.7,223.4,114.1,224,114.1,224.3z M238.2,41.2c0.5,1.4-0.7,2.4-0.1,3.7
		C239.5,43.5,239.5,43.5,238.2,41.2z M69.1,121.4c0.5-0.2,1-0.5,1-0.8c-0.1-0.7-1.2-0.7-1.7-1.1c-0.1-0.1-0.4,0.1-0.5,0.4
		C68.6,119.9,68.5,120.9,69.1,121.4z M146.4,91.1c1.8,0.2,1.9-1.5,2.9-1.9C147.9,89.2,147.3,90.3,146.4,91.1z M172.5,221.8
		c0.8,1,0.8,2.3,1.7,3.4C174.2,223.4,173.4,222,172.5,221.8z M250.4,92.4c-0.7,0.6-1.8,2.1-1.9,3C250.2,93.9,250.2,93.9,250.4,92.4z
		 M147.2,69.7c-1.3,0.6-2.1,1.3-3.1,2.1C145.2,71.3,146.6,71.1,147.2,69.7z M77.1,103.4c-0.5,0-0.7,0.2-0.7,0.7c0,0.5,0,1,0.6,1.1
		c0.7,0.1,0.6-0.6,0.7-0.8C78,103.8,77.6,103.6,77.1,103.4z M135.4,222.7c-0.1,0.5,0,0.8,0.5,1.1c0.5,0.1,0.6-0.2,0.5-0.6
		c-0.1-0.6,0.1-1.3-0.7-1.4C135.2,221.7,135.9,222.4,135.4,222.7z M124.8,224.8c-0.4,1.1-0.1,2.1,0.7,3.1
		C126.3,226.6,124.5,226,124.8,224.8z M117.6,223.5c0-0.8,0-1.7,0-2.5c0-0.1-0.4-0.1-0.5,0.1c-0.5,0.7,0,1.5,0.1,2.1
		C117.3,223.4,117.5,223.4,117.6,223.5z M125.7,221.1c-0.4-0.1-0.5-0.2-0.6-0.2c-0.5,0-1-0.1-1.1,0.6c0,0.4-0.2,0.7,0.1,0.8
		c0.7,0.2,0.6-0.6,0.7-0.7C125.1,221.5,125.4,221.4,125.7,221.1z M119.4,221.5c-0.2,1.1-0.2,2.1,0.1,3.3
		C120,223.6,119.3,222.6,119.4,221.5z M244.7,74.7c-0.5,0.5-0.8,0.8-1.2,1.3c-0.2,0.2-0.1,0.5,0.1,0.7c0.1,0.1,0.4,0.1,0.5-0.1
		C244.2,75.9,245.2,75.6,244.7,74.7z M90.1,226.6c0.4-1.2-0.1-1.9-0.4-2.6C89.5,224.8,89.5,225.5,90.1,226.6z M243.5,67.5
		c0.8-0.4,1.3-0.7,1.3-1.3c0-0.4-0.2-0.4-0.5-0.2C243.5,66.1,243.9,66.7,243.5,67.5z M215.1,104.7c0.2,0.6,0.2,1.2,1,1.1
		c0.5,0,0.4-0.5,0.4-0.7C216.2,104,215.4,105,215.1,104.7z M174.4,226.1c-0.4,0-0.2,0.2-0.2,0.5c0,0.1-0.1,0.4-0.2,0.5
		c-0.2,0.5-0.4,1.1,0.4,0.8c0.7-0.1,0.2-1,0.4-1.5C174.6,226.2,174.5,226.2,174.4,226.1z M146.3,227.7c-0.4-0.4,0.1-1.1-0.6-1.2
		c-0.2,0-0.4,0.4-0.4,0.6c0.1,0.5,0.2,0.8,0.6,1.1C146.3,228.1,146.4,227.8,146.3,227.7z M137.2,227.3c-0.1-0.2,0-0.7-0.5-0.7
		c-0.4,0-0.5,0.4-0.5,0.7c0.1,0.4,0.1,0.7,0.6,0.7C137.3,227.9,137.2,227.5,137.2,227.3z"/>
	<path class="st0" d="M26.3,181.1c-0.2-0.1-0.5-0.1-0.6-0.2c-1.8-1.4-4-2.1-5.8-3.6c-0.2-0.2-0.6-0.5-0.6-0.7c0-0.5,0.5-0.2,0.7-0.5
		c0.7-0.5,1.5-0.7,2.1-1.3c0.4-0.2,0.7-0.6,1.1-0.5c0.2,0,0.6-0.2,0.7-0.4c2.1-2.6,5.3-4,8.1-5.8c6.3-3.9,12.6-7.5,18.9-11.5
		c3.1-2,6.4-3.8,9.5-5.9c2-1.3,4-2.4,6.2-3.8c1-0.7,1.9-0.8,3,0.4c0.8,1,2.1,1.9,3.1,2.9c0.5,0.5,0.5,0.7-0.1,1
		c-1.4,0.7-2.6,1.7-4.2,2.1c-1.4,0.5-2.1,1.7-3.4,2.4c-3.1,1.9-5.8,3.9-8.8,5.9c-5.2,3.4-10.6,6.9-15.8,10.3c-4,2.6-8,5.3-12.1,8
		C27.7,180.3,27.3,181,26.3,181.1z M53.5,157c-0.5,0.1-1.1-0.1-1.2,0.2c-0.1,1-1,1.2-1.7,1.5c-1.7,0.7-3.1,2.1-4.9,2.7
		c-0.5,0.1-0.8,0.4-1.1,0.7c-0.4,0.7-0.4,0.7-0.6,0.7c-2.3-0.1-3.6,2.3-5.6,2.7c0,0,0,0.1-0.1,0.1c-1.3,1-2.4,2.1-3.8,3
		c-3.3,2-6.5,4-9.9,6.3c-0.8,0.6-2.5,0.7-2.3,1.8c0.1,1.1,1.9,1.3,2.7,2c0.7,0.5,1.4,0.4,2-0.2c2.6-2.3,5.7-3.8,8.4-5.9
		c1-0.7,2.1-1.5,3.4-1.9c0.4-0.1,0.7-0.4,0.8-0.7c0.7-0.8,1.5-1.4,2.5-1.9c1.9-0.8,3.6-1.9,5.1-3c4-2.9,8.2-5.3,12.2-8.3
		c1.5-1.2,3.3-2.1,5-3.2c1.8-0.8,3.7-1.8,4.9-3.4c0.2-0.4,0.7-0.7,0.1-1.1c-0.7-0.5-1.8-0.8-2.6-0.6c-1.2,0.5-2.5,1.1-3.6,2
		c-1.4,1.2-3.1,2.1-4.6,3.1c-1.7,1-3.4,1.9-5.1,3.1C53.9,157.2,53.7,157.1,53.5,157z"/>
	<path class="st0" d="M64.7,187.6c0.5,0.7,0.6,1.3-0.1,1.9c-0.1,0.1-0.2,0.2-0.4,0.5c-1.4,4-4.6,7.1-6.5,10.9
		c-0.6,1-0.8,2.1-1.3,3.1c-1,2.1-2.9,3.2-5,3.7c-1.9,0.5-3.7,0.1-5.3-1.1c-1.4-1-3.2-1.4-4.8-2.1c-3.2-1.5-6.4-3.1-9.5-4.6
		c-1.4-0.7-3-1-4.3-2c-1.8-1.4-4.2-1-6.1-2.1c-3.7-2.3-7.8-4-11.5-6.4c-1.5-1-3.2-1.9-4.8-2.7c-2.3-1.3-2.3-3.7-2.4-5.9
		c-0.1-1.4,0.5-2.9,1.5-3.9c0.2-0.2,0-0.5,0-0.5c0.4-0.6-0.4-1.5,1.1-1.7c0.8,0,1-1.4,1.3-2.1c0.2-0.6,0.5-1,0.7-1.4
		c0.4-0.7,1.4-0.8,1-2c-0.1-0.4,0.5-0.6,0.7-0.7c0.2-0.2,0.5,0.1,0.7,0.2c0.4,0.4,0.4,0.7,0.1,1.1c-0.6,0.8-1,1.8-1.3,2.6
		c-0.6,1.4-1.7,2.7-2.3,4.2c-0.6,1.1-1,2.1-1.2,3.3c-0.2,0.7-0.7,1.2-0.7,2c0.4,2.1,1.2,4,3.4,4.9c1.7,0.6,3.1,1.5,4.6,2.1
		c1.9,0.7,3.4,2.3,5.2,2.7c1.5,0.5,2.7,1.5,4.2,2c1.4,0.5,2.7,1.4,4.2,2.1c1.5,0.7,2.9,1.8,4.6,1.9c0.7,0,1.1,1.1,2,1.4
		c3,1.1,5.9,2.4,8.8,3.7c1.2,0.6,2.1,1.3,3.4,1.9c1.5,0.7,3.1,1.3,4.9,1.7c2.4,0.6,3.9-0.7,5.2-2.3c1.8-2,3-4.4,4-6.7
		c0.7-1.3,1.1-2.7,2-3.9c0.6-0.7,1.2-1.5,1.7-2.5c0.2-0.5,0.5-0.8,0.6-1.3C63.4,188.5,63.6,187.6,64.7,187.6
		C64.7,187.5,64.7,187.6,64.7,187.6z"/>
	<path class="st0" d="M55.5,179.4c-0.1,2.5,0,5.1-1.3,7.4c-0.6,0.8-1.1,1.8-1.8,2.6c-0.4,0.4-0.7,0.7-1,1.1c-1,2.1-3,2.7-5,2.3
		c-2.9-0.6-4.6-2.4-5.1-5.3c-0.6-2.4,0.4-4.6,1.4-6.7c1.3-2.4,2.9-4.6,5.1-6.2c2-1.2,3.8-0.8,5.8-0.1c0.7,0.4,1.2,1,1.4,1.9
		C55.3,177.3,55.3,178.4,55.5,179.4z M53.6,180.9c0.4-1.2-0.5-2.3-0.7-3.6c-0.2-0.7-1.1-1.4-1.7-1.3c-2.9,0.5-5.1,2.1-6.4,4.6
		c-1.4,2.6-1.2,5.6,0,8.3c0.4,0.8,2.4,2.1,3.1,1.9c1.5-0.7,3.2-1.5,3.9-3.3C52.7,185.5,53.6,183.2,53.6,180.9z"/>
	<path class="st0" d="M34,149.8c0.2-3.3,0.6-6.4,2.5-9.1c2-2.9,5-3.8,8-4.6c1.3-0.4,2.7,0.5,3.9,1.1c1.4,0.7,1.3,2.1,1.5,3.6
		c0.7,5.3-1.5,9.6-5.1,13.3c-1.7,1.7-3.7,2.6-6.1,2.1C35.9,155.2,33.9,152.5,34,149.8z M48.6,143.3c0-1.2-0.4-2.3-0.6-3.6
		c-0.1-1.3-1-1.9-2.1-2c-0.7,0-1.2-0.1-1.9,0.1c-6.1,1.8-8.8,7.2-7.4,12.9c0.7,2.5,3.7,4,6.3,2.6C47,151.4,48,147.6,48.6,143.3z"/>
	<path class="st0" d="M23.8,144.8c-0.7-0.8,0.2-1.4,0.4-2.1c0.4-2,1.7-3.4,2.6-4.9c0.4-0.6,0.6-1,0.7-1.7c0-0.5,0-0.8,0.7-0.5
		c0.1,0.1,0.4,0.1,0.4-0.1c0.2-1.5,1.9-2.5,1.5-4.2c0-0.1,0-0.4,0-0.4c1.5-0.7,1.5-2.5,2.3-3.8c0.7-1.4,1.5-2.9,2.1-4.4
		c0.6-1.5,1.9-2.5,2.6-3.8c0.1-0.2,0.4-0.5,0.7-0.2c0.2,0.2,0.2,0.5,0.2,0.7c-0.8,2.5-1.9,5.1-3.6,7.1c-0.7,0.7-1,1.8-1.1,2.9
		c0,0.1,0.1,0.2,0.1,0.2c-1.5,1-1.7,2.9-2.6,4.2c-0.8,1.2-2,2.3-2,3.9c0,0.4-0.2,0.7-0.6,0.8c-1.1,0.6-1.8,1.4-1.9,2.6
		c0,0.7-0.7,0.6-0.8,1C24.8,143.2,24.4,144.1,23.8,144.8L23.8,144.8z"/>
	<path class="st0" d="M45.3,115.7c-0.5-0.6-0.4-0.8,0.5-1.1c3.1-1,5.9-2.3,9.1-3.3c2.4-0.7,5-0.4,7.1-1.4c0.2-0.1,0.6-0.2,0.7,0.1
		c0.1,0.4-0.1,0.5-0.5,0.6c-1.1,0.4-2,1-3.2,1c-1.5,0-2.9,1-4.2,1.8c-0.2,0.1-0.5,0.5-0.7,0.4c-1.1-0.6-2,0.7-3.1,0.5
		c-0.1,0-0.2,0-0.2,0c0,1.9-1.7,0.4-2.4,1.1C47.9,115.8,46.6,115.7,45.3,115.7C45.4,115.7,45.4,115.7,45.3,115.7z"/>
	<path class="st0" d="M10.3,168c-0.4,0-0.6-0.1-0.7-0.5c0-0.4,0-0.6-0.1-0.8c1.5,0.1,0.8-1.5,1.7-2.1c0.5-0.5,1.4-0.2,1.3-1.2
		c0-0.5,0-1,0.2-1.4c0.7-1.7,1.4-3.4,2.5-4.5c1.5-1.5,1.9-3.7,3.1-5.1c0.4-0.5,0.7-0.4,1-0.2c0.5,0.2,0.5,0.6,0,0.8
		c-0.8,0.7-0.8,1.8-1.3,2.5c-0.7,1.2-1,3-2.5,3.7c-0.1,0.1-0.4,0.1-0.2,0.4c0.5,0.8-0.2,1.5-0.7,2c-1.7,1.7-2.1,3.8-3.2,5.8
		C11.2,167.7,10.6,167.8,10.3,168z"/>
	<path class="st0" d="M23.8,144.9c-0.1,0.5-0.1,1-0.7,1c-0.7,0-0.7,0.4-0.6,0.7c0.1,2.1-2.1,2.7-2.7,4.5c0,0.1-0.4,0.2-0.5,0.1
		c-0.2-0.1-0.2-0.5-0.1-0.6c0.6-1,0.4-2.6,2.1-2.9c0.1,0,0.2,0,0.2-0.2C21.8,145.5,21.8,145.5,23.8,144.9
		C23.8,144.8,23.8,144.9,23.8,144.9z"/>
	<path class="st0" d="M45.4,115.7c-0.7,0.8-2,0.7-2.6,1.5c0,0.1-0.4,0-0.5-0.1c-0.2-0.1-0.1-0.5,0-0.6c0.4-0.6,0.8-0.8,1.5-0.8
		C44.4,115.7,45,115.7,45.4,115.7L45.4,115.7z"/>
	<path class="st0" d="M40.8,115.9c-0.2,0.7-0.8,0.8-0.7,1.5c0.1,0.4-0.1,0.6-0.5,0.7c-0.2,0.1-0.6,0.1-0.7-0.1
		c-0.4-0.4,0.1-0.6,0.2-0.7C39.4,116.4,39.8,116,40.8,115.9z"/>
	<path class="st0" d="M140,81.6c-0.8-1-0.2-1.4,0.6-2.1c2-2,4.6-3.2,6.5-5.1c0.6-0.6,1.4-1,2.1-1.2c1.3-0.5,2.1-1.8,3.4-2.1
		c0.7-0.2,1.2-0.5,1.9,0c-0.8,1.1-2.5,1.1-3.6,2.3c0.7,0.4,1-0.1,1.4-0.2c0.5-0.1,1-0.4,1,0.5c0,0.6,0.5,0.4,0.7,0.2
		c0.8-0.4,1.8-0.7,3-1.2c-0.6,1.2-1.4,1.5-2.1,2c-1.4,1-3,1.9-4.5,2.9c-0.4,0.2-0.7,0.6-0.7,1.1c-0.5,0.4-1,0.5-1.3,1
		c-0.4,0-0.7-0.2-1.1,0c-1.4,1-2.9,2-4.3,3c-1.2,0.8-2.5,1.7-3.4,3.1c-0.2,0.4-0.7,0.7-1.1,0.2c-0.5-0.4-0.1-0.7,0.1-1.1
		c0.2-0.6,0.7-0.8,0.8-1.4c0.2-0.2,0.6-0.4,0.7-0.6c1.3-0.6,2.6-1.2,3.7-2.1c0.1-0.2,0.7-0.1,0.5-0.6c-0.2-0.4-0.7-0.1-0.7,0.1
		c-0.7,1-2.1,0.7-2.7,1.9c0,0-0.5-0.1-0.7-0.2C140.1,81.7,140,81.7,140,81.6z M152.7,74.2c-1.5-0.1-2.3,1.4-3.6,1.9
		C150.6,76.4,151.5,75.1,152.7,74.2z M146.4,77.1c0.5-0.1,0.8-0.4,1-0.8c0-0.2-0.2-0.4-0.5-0.2c-0.5,0.2-1,0.2-1,0.8
		C145.8,77.1,146,77.1,146.4,77.1z M149,76.8c-1.1-0.4-1.3,0.5-1.9,0.8c-0.2,0.1-0.2,0.5,0.1,0.6c0.2,0.1,0.7,0.1,0.7-0.1
		C147.9,77.4,148.4,77.3,149,76.8z M146.4,78.5c-0.8-0.2-1.3,0.5-1.9,0.7c0,0.1,0.1,0.4,0.1,0.4c0.7,0.2,1-0.5,1.4-0.7
		C146.3,78.9,146.3,78.7,146.4,78.5z"/>
	<path class="st0" d="M162.8,50.1c-1.4,1-2.7,2.1-4.3,3c-2.1,1.3-4.6,2.4-6.8,3.7c-1.1,0.7-2.1,1.5-3.3,2.1
		c-0.6,0.2-0.7,0.7-0.7,1.4c-0.2,0.1-0.4,0.2-0.6,0.4c-0.5-0.1-0.8-0.4-1.3,0.2c-0.5,0.6-1.1,1-2,0.8c-0.2,0-0.5-0.1-0.6-0.4
		c0-0.4,0.2-0.4,0.4-0.5c1.9-1.1,3.4-2.6,5.2-3.8c0.7-0.5,1.7-0.4,1.9-1.2c0.4-0.7,1.2-0.7,1.7-1.3c1.7,0.1,2.7-1,3.8-1.8l0,0
		c1.7-0.6,3.1-1.4,4.6-2.1C161.5,50.2,162,50.1,162.8,50.1z"/>
	<path class="st0" d="M236.7,37.2c-3.8,2-7.4,4.5-10.6,7.4c-0.6,0.5-1,1-1.5,1.4c-0.2,0.2-0.5,0.5-0.7,0.2c-0.4-0.2-0.1-0.6,0-0.7
		c0.6-1,1.2-1.8,2.1-2.4c0.7-0.6,1.7-1,1.9-2.1c0.5-0.7,0.8-1.2,1.7-1.3c1,0.1,1.8-0.4,2.3-1.3c0.8-0.2,1.7-0.6,1.9-1.5l0,0
		C234.8,36.8,235.9,35.9,236.7,37.2z"/>
	<path class="st0" d="M188.5,61.6c0.8-0.1,0.8-1,1.2-1.5c0.7-1.3,2.3-1.7,3.3-2.7c1.5-1.8,3.9-2.5,5.7-4.2c0.2-0.2,0.7-0.2,1-0.4
		c0.4-0.1,0.7-0.4,1,0c0.2,0.5-0.4,0.6-0.7,0.7c-1.8,1-3,2.5-4.6,3.7c-0.4,0.2-0.7,0.6-0.8,1c-0.4,0.4-0.7,0.7-1.1,1.1
		c-1.4,0.7-2.9,1.2-3.4,2.9l0,0c-0.5,0-0.8-0.1-1.3-0.4C188.8,61.9,188.7,61.8,188.5,61.6z"/>
	<path class="st0" d="M148.7,48.8c0.1-0.5,0.5-0.8,0.8-1.1c2.4-1.2,4.9-2.4,7.2-3.7c1-0.6,2.1-0.7,3.2-1.2c0.5-0.1,0.8-0.2,1,0.2
		c0.2,0.7-0.5,0.4-0.7,0.6c-0.2,0.2-0.5,0.4-0.6,0.6l0,0c-1.8,0-3,1.2-4.2,2.1l0,0c-0.8,0.1-1.5,0.6-2.1,1c-1.4,0.7-2.6,1.8-4.3,2
		C148.9,48.9,148.7,48.8,148.7,48.8z"/>
	<path class="st0" d="M92.3,89.5c-0.4-0.2-1-0.7,0-0.7c1.3-0.2,2.5-0.7,3.9-0.5c-0.2-0.7-1.2-0.2-1-1c0.1-0.6,0.7-0.2,1-0.5
		c0.7-0.4,1.2-0.2,1.9-0.4c0.7,0,1.5-0.2,2-1.2c0.1,1.1-1.2,2.4-2.4,2.4c-0.6,0-0.8,0.1-1.1,0.7c-0.1,0.4-0.5,0.6-0.7,0.7
		c-1.1,0.2-2.1,0.5-2.7,1.5c-0.2,0.5-0.7,0.4-0.8-0.1C92.5,90.3,92.8,89.9,92.3,89.5z"/>
	<path class="st0" d="M222.6,37.4c-0.5,0-1,0.7-1.3-0.1c-0.2-0.7,0.2-1,0.7-1.1c0.4-0.1,0.6-0.5,0.7-0.7c1.7-0.6,2.7-2,4.5-2.3
		c0.7-0.1,1.3-0.4,1.8-0.7c0.1,0,0.2,0,0.4,0c-0.2,1.1-1.1,1.3-2,1.8C225.6,35,223.9,35.9,222.6,37.4z"/>
	<path class="st0" d="M244.6,88.1c-0.5,1.4-0.7,2.7-2.1,3.7c-0.6,0.5-0.7,1.4-1.5,1.7c-0.2,0-0.5,0.2-0.6,0c-0.2-0.2,0-0.4,0.1-0.6
		c1.2-1.9,2.4-3.8,3.6-5.7c0.2-0.1,0.4-0.2,0.6-0.2C244.6,87.3,244.6,87.8,244.6,88.1z"/>
	<path class="st0" d="M100.3,61.6c0.1-0.7,0.6-1.2,1-1.2c1.2-0.1,1.5-0.7,1-1.9c0.7,0.7,1.3,0.1,2,0.2l0,0c0.1,0.7-0.4,1.2-0.8,1.5
		c-0.8,0.6-1.9,1.1-2.7,1.7C100.4,61.9,100.4,61.8,100.3,61.6z"/>
	<path class="st0" d="M144.2,66.6c-0.8,1.5-2.6,2-3.8,3c-0.1,0.1-0.4,0.1-0.5-0.1c-0.2-0.4,0.1-0.5,0.4-0.7c1.1-1.1,2.5-1.7,3.8-2.5
		C144,66.4,144.1,66.5,144.2,66.6z"/>
	<path class="st0" d="M244.6,86.9c-0.2,0.1-0.4,0.2-0.6,0.2c-0.7-0.1-1.1-0.5-0.5-1c0.7-0.7,1-1.8,2-2.1
		C246.1,85.3,244.8,85.9,244.6,86.9z"/>
	<path class="st0" d="M193,78.1c-0.4,0-0.6,0-0.8,0.1c-0.4,0-0.6-0.1-0.7-0.4c-0.1-0.4,0.2-0.5,0.5-0.6c0.6-0.2,0.8-1.3,1.7-0.4
		C193.4,77.5,193.2,77.9,193,78.1z"/>
	<path class="st0" d="M100.4,107.7c0.4,0,0.7-0.1,0.8,0c0.5,0.2,0.5,0.7,0.2,1c-0.2,0.5-0.6,0.4-0.8,0.1c-0.4-0.2-0.6-0.6-0.6-1
		C100.1,107.7,100.2,107.7,100.4,107.7z"/>
	<path class="st0" d="M144.5,68.5c-0.4,0.7-1.1,0.7-1.7,1c-0.4,0.1-0.7,0.7-0.8,0.1c-0.2-0.5,0.5-0.6,0.7-0.7c0.7-0.1,1-0.7,1.5-0.8
		C144.2,68.3,144.4,68.4,144.5,68.5z"/>
	<path class="st0" d="M171.2,188.4c0-3.4,0.1-6.9,0-10.3c-0.2-4.6,0-9.4-0.2-13.9c-0.2-2.9-0.5-5.8-0.4-8.7c0-0.7,0.2-0.7,0.7-0.6
		c4,0.4,8.1,0.2,12.2,0.4c4.8,0.1,9.5-0.2,14.1-0.2c2.5,0,5.1,0.1,7.6-0.4c3.6-0.6,7-0.4,10.7-0.6c2.1-0.1,4.3-0.4,6.4-0.4
		c3.2,0.1,6.4-0.5,9.5,0c1,0.1,1.4,0.8,1.5,1.9c0.4,4.8,0.2,9.5,0.4,14.3c0.1,7.6,0.1,15.2,0.1,22.7c0,1.2-0.5,1.5-1.5,1.5
		c-6.2,0.1-12.4,0.5-18.4,0.6c-8.7,0.1-17.5-0.5-26.1-0.7c-3.6-0.1-7.1-0.6-10.8,0c-1.5,0.2-3.3-0.1-5,0c-0.7,0-0.8-0.5-0.8-1
		c0-1.5,0-3,0-4.5C171.1,188.4,171.1,188.4,171.2,188.4z M231.9,161.3c-0.4-1.5,0-3.2-0.6-4.9c-0.4-1-0.8-1.2-1.5-1.1
		c-2.7,0.2-5.3-0.1-8.1,0c-8.3,0.4-16.7,0.7-25.1,1c-4.6,0.2-9.3,0.4-13.9,0.1c-3-0.1-6.1-0.1-9-0.2c-1.1,0-1.4,0.5-1.5,1.4
		c0,0.8,0.5,1.7,0.5,2.4c-0.1,3,0,5.8,0,8.8c0,1.5,0.5,3.1-0.1,4.6c0,0.1,0,0.2,0,0.5c0.1,2.3,0.5,4.6,0.1,6.8
		c-0.5,3.4,0.1,6.8-0.4,10.2c-0.1,0.7,0.4,1.2,1.1,1.2c2-0.1,3.9-0.1,5.9-0.4c1.2-0.1,2.5-0.1,3.7,0c1.9,0.1,3.7,0,5.5,0.2
		s3.7,0.2,5.5,0.4c2.3,0.1,4.6,0.1,6.8,0.1c2.1,0,4.3-0.4,6.4,0c1.2,0.2,2.5,0.1,3.7,0.2c0.7,0.1,0.8-1,1.7-0.6
		c0.8,0.6,1.9,0,2.7,0.1c2.1,0.2,4.4,0.4,6.5,0.4c3.1-0.1,6.3,0.1,9.4-0.5c1.5-0.4,1.5-1,1.4-2c-0.2-1.7-0.6-3.3-0.5-5
		c0.1-1.9-0.5-3.7-0.5-5.7C231.9,173.6,231.9,167.4,231.9,161.3z"/>
	<path class="st0" d="M130.7,128.5c1.2-1.7,1.8-3.3,2.5-5.1c0.7-1.9,1.5-3.7,2.4-5.5c0.4-0.7,0.7-1.3,1.5-1.5
		c-0.6-1.1,0.6-1.2,1-1.8c0.4-0.6,1.1-1,2-0.7c0.7,0.4,1,1,1,1.8c-0.2,5.3,0.5,10.8,0.6,16.2c0,2,0.6,4,0.8,6.1c0,0.4,0.6,0.7,0,0.8
		c-0.4,0.1-0.7-0.2-0.8-0.5c-0.7-1-0.7-2.1-0.8-3.3c-1.1-6.4-0.7-12.8-0.8-19.4c0-0.2,0-0.5-0.4-0.7c-1.2,1.5-2.5,3-3.3,4.9
		c-1.1,2.7-2.3,5.3-3.4,8c-0.1,0.4-0.2,0.6-0.5,0.7c-0.4,0.5-0.7,1.2-1.4,1c-0.7-0.1-0.8-0.7-1.2-1.4c-0.8-2.4-0.2-4.9-0.5-7.4
		c-0.1-1.3,0-2.5-0.5-3.7c-0.1-0.4-0.2-0.7-0.7-0.7c-0.5,0-0.6,0.5-0.7,0.7c-0.8,1.7-1.1,3.6-1.7,5.2c-1.2,3.6-2.9,6.9-4.5,10.2
		c-0.7,1.5-1.5,3.1-2.5,4.4c-0.2,0.4-0.6,0.6-1,0.2c-0.4-0.4-0.2-0.7,0-0.8c2.4-3.1,3.6-6.7,5.1-10.1c0.8-1.8,1.4-3.7,2.1-5.3
		c0.5-1,0.5-2.1,0.8-3.1c0.1-0.1,0.1-0.4,0.2-0.6c0.5-1,1.1-1.9,2.1-1.8c1.1,0,1.5,1.1,1.8,2.1c0.4,2.1,0.7,4.4,0.4,6.5
		C130.3,125.8,130.1,127.1,130.7,128.5z"/>
	<path class="st0" d="M194,131.1c-0.4,1.3-0.7,2.6-1,3.9c-0.6,2.1-2.4,3.4-4.6,3c-0.2,0-0.5-0.2-0.7,0c-1.3,1-1.8-0.1-2.1-1
		c-0.6-1.2-0.1-2.5-0.7-3.7c-1.1,1.4-2,2.9-3.1,4.2c-0.4,0.5-0.7,1-1.2,0.7c-0.6-0.2-0.7-0.7-0.7-1.2c-0.2-1.5-0.6-3.1-0.2-4.8
		c0.1-0.5,0.1-1,0.7-0.7c0.6,0.2,0.6,0.7,0.4,1.1c-0.1,0.2-0.2,0.5-0.2,0.6c0.2,0.8-0.4,2.1,0.6,2.4s1.1-1,1.7-1.7
		c0.5-0.6,0.8-1.2,1.3-1.8c0.4-0.5,0.7-0.8,1.3-0.7c0.7,0.2,0.7,0.8,0.8,1.5c0.1,1.1,0.2,2.1,0.2,3.2c0,0.1,0,0.2,0,0.2
		c0.1,0.5,0.1,1,0.7,0.8s0.5-0.6,0.5-1c-0.2-1.7,0.7-2.7,1.8-3.7c0.4-0.2,0.7-0.6,1-0.6c0.5,0,1.1-0.2,1.3,0.4
		c0.4,0.7-0.5,0.7-0.8,0.8c-1.2,0.5-1.5,1.5-2.1,2.5c-0.2,0.4-0.1,0.7,0.1,1c0.4,0.4,0.7,0.2,1,0.1c1.2-0.5,2-1.4,2.3-2.5
		c1.3-4.3,2-8.7,1.4-13.3c-0.1-0.7-0.1-1.3-0.1-2c0-0.2,0-0.6,0.4-0.7c0.4-0.1,0.6,0.1,0.7,0.4c0.2,0.6,0.6,1,0.6,1.7
		c-0.1,5.1,0.5,10.1,1,15.2c0.1,0.7,0.2,1.4,0.6,2.1c0.4,0.6,0.2,1.1-0.4,1.3c-0.7,0.2-0.7-0.5-0.8-0.8
		C194.6,135.7,194.2,133.4,194,131.1z"/>
	<path class="st0" d="M166.3,137.5c-0.4-1.2-0.7-2.3-0.7-3.6c-0.7-4.6-1-9.4-1.3-13.9c0-0.8-0.4-1-1.1-0.8c-2.1,0.4-4.4,0.5-6.4,1.3
		c-0.5,0.2-0.7,0.1-0.8-0.4c-0.1-0.7,0.1-1.1,0.7-1.3c1.5-0.4,3.1-0.8,4.6-1.1c2.6-0.4,5.2-0.6,7.8-0.7c2.1-0.1,4-0.2,6.2-0.4
		c0.5,0,1.2-0.1,1.2,0.5c0.1,0.7-0.7,0.7-1.2,0.7c-2.7,0.4-5.6,0.6-8.3,0.7c-1.2,0.1-1.8,0.4-1.8,1.9c0.1,5,0.7,9.7,1.4,14.6
		c0.1,0.7,0.4,1.7,0.1,2.4C166.6,137.5,166.4,137.5,166.3,137.5z"/>
	<path class="st0" d="M144,175.6c0,2.1-1.2,3.7-3.2,4.4c-1,0.4-2,0-2.7-0.6c-2-1.3-3.2-3.8-1.2-6.1c0.6-0.6,1.1-1.1,1.8-1.5
		c0.8-0.7,2-0.8,3-0.2c1.1,0.7,2.6,1.3,2.5,3.2C144,175.3,144,175.4,144,175.6z M140.1,173.1c-0.7,0-2.1,1.4-2.1,2.1
		c-0.1,1.1,1.3,3.4,2,3.6c1.7,0.1,3-1.1,3.1-2.9C142.9,174.5,141.6,173.1,140.1,173.1z"/>
	<path class="st0" d="M206,137.5c-0.6-0.6-0.5-1.2-0.2-1.8c0.2-0.8,0.4-1.7-0.8-1.9c-0.2,0-0.6-0.1-0.6-0.5c0-0.4,0.4-0.5,0.6-0.5
		c1,0,1.1-0.7,1.1-1.4c-0.2-3.6-0.4-7.1-0.8-10.6c-0.2-1.2-0.1-2.3-0.2-3.6c0-0.4-0.1-0.8,0.5-1c0.6-0.1,0.7,0.5,0.7,0.8
		c0.2,1.9,0.4,3.8,0.5,5.7c0.4,3,0.5,6.1,0.7,9C207.5,134.3,206.3,135.7,206,137.5z"/>
	<path class="st0" d="M213.4,134.3c1.1,0,1.9-0.2,2.5-0.8c0.7-0.7,1.2-0.6,1.4,0.4c0.2,1.1,0.6,2.1,0.7,3.2c0.1,0.4,0.2,0.7-0.4,0.8
		c-0.5,0.1-0.7-0.2-0.8-0.5c-0.1-0.2-0.2-0.6-0.4-0.8c-0.4-1.1-0.8-1.3-1.8-0.6c-0.7,0.6-1.4,1.2-2.3,0.7s-0.7-1.5-0.6-2.3
		c0.1-1.9,2.3-3.7,4-3.4c0.4,0,0.7,0,0.7,0.5c0,0.5-0.4,0.5-0.7,0.6C214.8,132.3,213.8,133,213.4,134.3z"/>
	<path class="st0" d="M177.1,139.1c-1.3,0-1.9-0.7-2.1-1.7c-0.2-0.7-0.1-1.8-1.3-2c-0.2,0-0.5-0.5-0.5-0.7c0-0.4,0.4-0.4,0.7-0.4
		c0.7-0.1,1.1-0.6,1.4-1.2c0.1-0.4,0.5-0.7,0.7-0.8c0.6-0.5,1.2-1.2,2-0.4c0.7,0.7-0.1,1.4-0.7,1.9c-1.1,0.8-1.5,1.9-1.2,3.2
		c0.2,0.8,0.7,1.2,1.5,0.8c0.4-0.1,1-0.6,1.1-0.1c0.2,0.6-0.5,1-0.8,1.2C177.5,139.1,177.4,139.1,177.1,139.1z"/>
	<path class="st0" d="M146.1,132.4c0,0.7,0,1.3,0.1,2.1c0.1,0.5,0.1,1.1-0.6,1.1c-0.6,0-0.8-0.4-0.8-0.8c-0.1-1.4,0-2.9-0.2-4.3
		c-0.1-0.5,0.2-0.8,0.7-0.8c0.6-0.1,0.8,0.4,0.8,0.7C146.3,130.9,146.1,131.6,146.1,132.4z"/>
	<path class="st0" d="M173.1,136.2c-0.1,0.6-0.1,0.8-0.1,1.2c0,0.2-0.1,0.5-0.5,0.5c-0.2,0-0.4-0.2-0.5-0.5
		c-0.5-1.4-0.5-3.1-1.3-4.4c-0.1-0.1,0-0.2,0-0.5c0.2-0.6,0-1.5,0.7-1.5s0.7,0.8,0.7,1.4C172.5,134,172.9,135.3,173.1,136.2z"/>
	<path class="st0" d="M200.6,136.7c-0.2,0.4,0.1,1-0.5,1.1c-0.7,0.1-0.7-0.6-0.7-1c-0.4-1.3-0.5-2.7-0.5-4.2c0-0.4,0-0.7,0.5-0.7
		s0.7,0.4,0.7,0.7C200.3,134,200.5,135.4,200.6,136.7z"/>
	<path class="st0" d="M221.2,137.3c0.7,0,1,0.5,1,0.8c0,0.4,0,0.7-0.6,0.6c-0.5-0.1-0.8-0.2-1-0.8
		C220.6,137.4,221,137.3,221.2,137.3z"/>
	<path class="st0" d="M145.4,127.8c-0.1,0.4-0.2,0.7-0.6,0.6c-0.5,0-0.6-0.5-0.6-0.7c0-0.4,0.1-0.7,0.6-0.6
		C145.2,127.2,145.3,127.4,145.4,127.8z"/>
	<path class="st0" d="M93.8,86.6c-1.4,1.1-3.2,1.8-4.5,3c-0.2,0.1-0.5,0.2-0.6,0c-0.2-0.2-0.2-0.5,0-0.7c0.2-0.2,0.4-0.6,0.7-0.6
		c1.4,0.2,1.7-1.1,2.5-1.8c-0.7-0.4-1.2,0.1-1.5,0.5c-1.2,0.7-2.6,1.2-3.7,2.1c-0.4,0.2-0.7,0.1-0.7-0.2c-0.1-0.4,0-0.7,0.5-0.7
		c1.5-0.1,2.7-1.2,3.9-2c0.5-0.4,0.8-0.7,1.5-1.1c0.7-0.5,1.8-0.6,2.1-1.4c0.1-0.2,0.6-0.6,0.8-0.1c0.2,0.2,0.1,0.6-0.1,0.8
		c-0.2,0.5-0.5,0.8-1,1c-0.5,0.1-0.8,0.2-0.8,0.7C92.9,86.6,93.6,86,93.8,86.6z"/>
	<path class="st0" d="M102.8,51.2c0.7-0.1,1.2-0.6,1.5-1.1c0.7-1,2-1.1,2.9-1.9c0.7-0.6,1.4-1.2,2.3-1.3c0.2,0,0.4-0.1,0.6-0.1
		c0.7-0.1,1.3,0.1,1.7,0.6c0.2,0.6-0.7,0.5-0.8,0.7c-0.4,0.5-0.7,0.5-1.2,0.6c-2.1,0.5-3.9,1.1-5.2,3
		C103.7,52.4,103.3,51.9,102.8,51.2z"/>
	<path class="st0" d="M110.3,54.6c0.4-0.1,0.7-0.2,1-0.2c1.1-0.2,2.1-0.5,2.1-2.1c0.7,1,0.7,1.3,0,1.9c-1,1-2.5,1.2-3.7,1.9
		c-0.6,0.4-1.1,0.7-1.7,1.1c-0.4,0.2-0.7,0.5-1,0c-0.4-0.5,0.2-0.6,0.5-0.7c0.1-0.1,0.4-0.2,0.6-0.4c0.2-0.1,0.5-0.4,0.2-0.7
		c-0.2-0.2-0.5-0.1-0.6,0c-0.5,0.4-0.8,0.7-1.5,0.7c-0.2,0-0.5,0-0.5-0.4c0-0.1,0.2-0.4,0.4-0.4c1.1-0.1,2-1.5,3.3-0.4
		C109.8,55.6,110.3,55,110.3,54.6L110.3,54.6z"/>
	<path class="st0" d="M99.8,70.7c0.1,0.2,0.8-0.4,0.8,0.4c0,0.5-0.7,0.4-0.8,0.7c-0.7,1-2,0.7-2.7,1.5c-0.1,0.1-0.5,0.2-0.6,0
		c-0.2-0.2-0.1-0.6,0-0.7c0.7-0.8,1.3-1.8,2-2.6c0.2-0.2,0.5-0.5,0.7-0.5c0.2,0,0.7,0,0.8,0.4C100.4,70.3,99.5,69.9,99.8,70.7z"/>
	<path class="st0" d="M87.6,105.5c1.4-0.4,2.3-1.4,3.4-2.1c0.4-0.2,0.7-0.5,1.1-0.7c0.2-0.1,0.6-0.2,0.7,0s0,0.5-0.1,0.7
		c-0.6,1.1-1.8,1.5-2.6,2.1c-0.5,0.4-0.8,0.5-1.2,0.7c-0.4,0.2-0.6,0.7-1.1,0.5C87.3,106.3,87.5,105.8,87.6,105.5L87.6,105.5z"/>
	<path class="st0" d="M111.3,44.1c0,0.6-0.4,0.8-0.7,1.1c-1.1,0.7-2.4,0.7-3.2,2c-0.2,0.5-0.7,0.1-1.1,0c-0.4-0.1-0.4-0.5-0.1-0.7
		c1.3-1.3,3.1-2.1,4.9-2.6C111.1,43.8,111.2,43.9,111.3,44.1z"/>
	<path class="st0" d="M99,98.9c-0.5,0-0.7-0.1-0.7-0.5c-0.1-0.4,0.1-0.6,0.5-0.7c0.2-0.1,0.6-0.4,0.8-0.4c1.4-0.1,2.3-1,3.3-1.9
		c0.4-0.4,0.7-0.7,1.1-0.4c0.5,0.5-0.2,0.8-0.5,0.8c-1.4,0.7-2.5,1.8-3.9,2.5C99.2,98.8,99,98.9,99,98.9z"/>
	<path class="st0" d="M115.7,48.3c0,0.4-0.1,0.6-0.5,0.7c-1.2,0.7-2.5,1.4-3.7,2.1c-0.2,0.1-0.4,0.4-0.6,0.1
		c-0.1-0.2-0.1-0.5,0.1-0.7c0.4-0.6,1.3-0.7,1.3-0.8c0.6-1.2,1.9-0.8,2.6-1.5C115.4,48,115.6,47.7,115.7,48.3z"/>
	<path class="st0" d="M103.5,69.7c0.1,0.5-0.2,0.5-0.6,0.5c-0.5,0.1-1.1,0.2-1.1-0.6c0-0.7-0.2-0.7-0.7-0.5
		c-0.2,0.1-0.6,0.4-0.7-0.1c-0.1-0.2,0-0.6,0.2-0.7c0.8-0.2,1.8-0.5,2.5-1c0.2-0.1,0.7-0.1,0.6,0.5c-0.1,0.5-0.8,0.4-0.8,0.8
		C102.9,69.1,103.3,69.4,103.5,69.7z"/>
	<path class="st0" d="M92.6,75.1c0.2-0.4-0.2-1.2,0.7-0.7c0.2,0.1,0.2-0.2,0.1-0.4c-0.7-1.5,0.7-1.8,1.5-2.3c0.2-0.2,0.5-0.4,0.7,0
		c0.1,0.2,0.1,0.6-0.2,0.7c-0.6,0.1-1.1,0.2-0.4,0.8v0.1c-1.2,0.1-0.8,1.4-1.3,2C93.3,75.8,93,75.2,92.6,75.1L92.6,75.1z"/>
	<path class="st0" d="M100.6,66.3c-0.4,0.2-0.6,0.5-0.8,0.6c-1.2,0.5-2.1,1-3.2,1.7c-0.2,0.1-0.4,0.4-0.6,0c-0.1-0.2-0.2-0.6,0-0.7
		c1.2-0.7,2.1-1.7,3.7-2C100.1,65.9,100.4,65.8,100.6,66.3z"/>
	<path class="st0" d="M97.4,60.3c1.4,0.5,2.1-1,3.2-1.3c0.4-0.1,0.6-0.6,1.3-0.5c-1.4,1.4-3.1,2.4-4.2,3.8
		C96.8,61.8,97.9,60.9,97.4,60.3C97.3,60.4,97.4,60.3,97.4,60.3z"/>
	<path class="st0" d="M99.2,90.5c0.1-0.1,0.2-0.2,0.4-0.4c0.7-0.4,1.3-0.7,2-1.1c0.2-0.1,0.5-0.5,0.7-0.1c0.2,0.4,0.5,0.8,0.4,1.2
		c-0.1,0.6-0.5,0.2-0.6-0.1c-0.4,1-1.3,0.5-2,0.8C99.8,91.1,99.3,91,99.2,90.5z"/>
	<path class="st0" d="M98.6,82.2c0,0.1-0.1,0.2-0.2,0.4c-0.7,0.8-2,0.7-2.7,1.5c-0.1,0.1-0.4-0.1-0.4-0.2c0-0.2-0.1-0.7,0.1-0.7
		c0.7-0.7,1.9-1,2.7-1.4C98.4,81.6,98.6,81.8,98.6,82.2z"/>
	<path class="st0" d="M111.3,44.1c-0.1-0.1-0.1-0.2-0.2-0.2c0.1-0.2,0.1-0.6,0.2-0.6c1.4-0.4,2.3-1.9,3.7-2.1c0.1,0,0.4,0,0.6,0.1
		l0,0C114.3,42.4,113,43.5,111.3,44.1z"/>
	<path class="st0" d="M104.1,86.8c-0.2,0.1-0.5,0.2-0.6,0.2c-1.4,0-2.5,0.8-3.7,1.3c-0.2,0.1-0.4,0.2-0.6,0
		c-0.2-0.2-0.1-0.4,0.1-0.6C100.6,86.8,102.3,86.6,104.1,86.8z"/>
	<path class="st0" d="M103.7,64.8c-0.6,0.4-1.4-0.1-1.5,1.1c0,0.2-0.6,0.4-0.7,0.2c-0.5-0.2-0.2-0.6-0.1-0.7
		c0.5-0.7,1.2-0.7,1.8-1.1c0.4-0.2,0.6-0.4,0.8-0.6c0.2-0.1,0.4-0.7,0.8-0.5c0.2,0.1,0.2,0.5,0.1,0.6c-0.2,0.5-0.6,0.8-0.8,1.3
		C104,65,103.9,64.8,103.7,64.8z"/>
	<path class="st0" d="M98.2,92.5c-1.4,0.1-2.1,1.1-3.1,1.9c-0.4,0.4-0.7,0.1-0.8-0.1c-0.2-0.2-0.1-0.7,0.1-0.7
		c1.1-0.2,1.9-1.2,3-1.7C97.6,91.9,97.8,92,98.2,92.5z"/>
	<path class="st0" d="M104,87.8c1.1,0.4,1.7-0.2,2.3-0.7c0.2-0.2,0.6-0.6,0.8-0.4c0.4,0.1,0.4,0.5,0.4,0.7c0,0.6-0.5,0.5-0.7,0.5
		c-0.7,0.1-1,1.1-1.9,0.8C104.4,88.4,104.2,88.2,104,87.8z"/>
	<path class="st0" d="M87.9,90.1c-0.1,0.5-0.4,0.6-0.7,0.6c-0.7,0-1.3,0-1.5,0.8c-0.1,0.4-0.6,0.5-0.7,0.4c-0.4-0.2,0-0.6,0.1-0.7
		c0.6-1,1.5-1.2,2.5-1.3C87.7,89.7,87.9,89.8,87.9,90.1z"/>
	<path class="st0" d="M97.8,74.8c-0.2,1.7-1.8,1.7-2.7,2.4c-0.2,0.1-0.5,0.1-0.6-0.2c-0.1-0.2,0-0.5,0.2-0.6
		C95.9,76,96.8,75.4,97.8,74.8L97.8,74.8z"/>
	<path class="st0" d="M106.8,58.2c0.7-0.1,1.3-0.4,2-0.7c0.2-0.1,0.6-0.7,0.8-0.2c0.2,0.4,0.1,0.7-0.2,1.1
		C108.8,59,107.5,59,106.8,58.2L106.8,58.2z"/>
	<path class="st0" d="M107.5,62.5c0.5-1.7,2.1-1.1,3-2.1c0,0.8-0.5,1.3-1.2,1.4C108.6,61.9,108,62.1,107.5,62.5z"/>
	<path class="st0" d="M110.3,54.6c-0.7,0.2-1-0.4-1.3-0.7c-0.1-0.2,0-0.5,0.2-0.6c0.7-0.4,1.3-0.1,2-0.1c0.2,0,0.1,0.5-0.1,0.6
		C110.6,53.8,110.3,54,110.3,54.6L110.3,54.6z"/>
	<path class="st0" d="M100.4,62.5c0.7-0.4,1.4-0.2,1.9-0.7c0.1-0.1,0.5-0.1,0.6,0c0.2,0.4-0.1,0.5-0.4,0.6c-0.8,0.5-1.8,1-2.7,1.4
		C99.8,63.2,100.4,62.9,100.4,62.5L100.4,62.5z"/>
	<path class="st0" d="M115.5,41.1c0.6-1.2,2-1.7,3.2-0.7C117.5,40.3,116.6,41.2,115.5,41.1L115.5,41.1z"/>
	<path class="st0" d="M93.2,81.1c-0.5-0.1-0.5-0.4-0.2-0.6c0.4-0.5,0.7-0.7,1.3-0.8c0.5-0.1,1-0.7,1.2,0.1c0.4,1-0.6,0.2-0.8,0.5
		C94.1,80.6,93.5,80.9,93.2,81.1z"/>
	<path class="st0" d="M103.5,54.3c-0.4,1.2-0.5,1.3-2.1,2.3C101.4,55.8,101.4,55.8,103.5,54.3z"/>
	<path class="st0" d="M106.3,48.1c-0.8-0.6-1,1.3-2,0.2c-0.2-0.2-0.4-0.6,0-0.7C105,47,105.6,46.9,106.3,48.1z"/>
	<path class="st0" d="M106.8,58.2c-1-0.2-1.8,0.6-2.6,0.6l0,0c0.5-1,1.7-1.5,2.4-1.2C106.9,57.6,106.9,58,106.8,58.2L106.8,58.2z"/>
	<path class="st0" d="M92.6,75.1c0,1.2-0.7,1.8-2.1,1.4C91.4,76.1,91.7,75.2,92.6,75.1L92.6,75.1z"/>
	<path class="st0" d="M83.1,94.3c0.6-0.5,1.1-0.8,1.8-1.3c0.2-0.2,0.6-0.1,0.7,0.1s0,0.5-0.2,0.6C84.5,93.9,84,94.5,83.1,94.3
		L83.1,94.3z"/>
	<path class="st0" d="M106.2,53.1c-0.1,0.6-0.7,0.6-1,0.8c-0.1,0.2-0.4,0.5-0.7,0.4c-0.1,0-0.1-0.2-0.1-0.4c0.4-0.6,0.7-1.2,1.4-1.2
		C106,52.7,106.1,52.8,106.2,53.1z"/>
	<path class="st0" d="M102.8,53.2c-0.2,0.6-0.7,0.7-1.4,1c-0.2,0.1-0.7-0.2-0.6-0.4c0.5-0.5,1-0.7,1.5-1
		C102.5,52.7,102.7,53,102.8,53.2z"/>
	<path class="st0" d="M83.1,94.3c0,0.5,0.8,0.6,0.5,1.2c-0.2,0.4-0.7,0.4-1,0.2c-0.2,0-0.5-0.1-0.5-0.4c0-0.5,0.4-0.5,0.6-0.7
		C82.8,94.6,83,94.4,83.1,94.3L83.1,94.3z"/>
	<path class="st0" d="M87.3,84.3c-0.1,0.6-0.4,1-0.8,1.1c-0.6,0-0.7,0.6-1.2,0.7C85.3,84.7,86.6,84.9,87.3,84.3z"/>
	<path class="st0" d="M92.5,81.8c-0.5,0.1-0.8,0.4-1.3,0.5c-0.4,0.1-0.6-0.1-0.5-0.5c0.2-0.5,0.7-0.6,1.2-0.7
		C92.2,81.1,92.3,81.5,92.5,81.8z"/>
	<path class="st0" d="M84.7,90.3c-0.2,0.4-0.5,0.8-0.8,1c-0.5,0.1-0.4-0.5-0.4-0.7c-0.1-0.7,0.5-0.6,0.8-0.7
		C84.6,89.7,84.7,89.9,84.7,90.3z"/>
	<path class="st0" d="M99.7,94.3c0-0.2,0-0.6,0.1-0.7c0.4-0.4,0.7-0.7,1.2-0.7c0.2,0,0.4,0.1,0.4,0.4c0,0.7-0.6,0.7-1,0.8
		C100.2,94.1,99.9,94.2,99.7,94.3L99.7,94.3z"/>
	<path class="st0" d="M97.8,74.8c0.5-0.7,1.1-1.1,2-1.2C99.2,74.2,99,75.3,97.8,74.8L97.8,74.8z"/>
	<path class="st0" d="M90.2,91.4c-0.5-0.2-0.8-0.5-1.5-0.7c0.7-0.2,1.2-0.7,1.7-0.4C90.9,90.6,90.2,91,90.2,91.4L90.2,91.4z"/>
	<path class="st0" d="M110.4,45.8c0.7-0.1,1.2-0.5,1.7,0c0.1,0.1,0.1,0.4-0.1,0.5C111.3,46.6,110.9,46.4,110.4,45.8z"/>
	<path class="st0" d="M116.9,48.5c-0.2,0-0.5-0.1-0.5-0.4c0-0.5,0.4-0.7,0.7-0.7s0.7,0.2,0.6,0.6C117.8,48.5,117.3,48.2,116.9,48.5z
		"/>
	<path class="st0" d="M120.6,38.5c-0.2,0.5-0.4,0.7-0.7,0.7c-0.2,0-0.7-0.1-0.6-0.5c0.1-0.5,0.6-0.5,0.8-0.7
		C120.4,38.1,120.5,38.2,120.6,38.5z"/>
	<path class="st0" d="M195.3,99c-0.2,0-0.6,0.1-0.7,0c-0.2-0.1,0-0.5,0.2-0.6c0.7-0.5,0.4-1.1,0.6-1.7c0.6-0.2,1.1-0.7,1.5-0.7
		c1.1,0.1,1.2-0.5,1.2-1.2c0-0.2,0.4-0.4,0.1-0.6c-0.2-0.2-0.5,0-0.7,0.1c-1.2,0.4-1.5,1.5-2.1,2.3c-0.7,0.2-0.7,0.2-0.7-0.4
		c0-0.1-0.2-0.2-0.4-0.5c-1-1.3-0.8-1.5,0.7-1.8c-0.1-0.4-1.1-0.4-0.5-0.8c1.9-1.5,3.2-3.6,5.1-4.9c0.2-0.2,0.5-0.4,0.7-0.6
		c0.2-0.2,0.7-0.1,1,0.1c0.4,0.4,0.1,0.6-0.2,0.8c-0.2,0.2-0.5,0.6-0.1,0.7c0.4,0.2,0.5-0.2,0.6-0.4c0.8-1,2.1-1.7,2.6-2.9l0,0
		c2.3,0-0.1,1.3,0.7,1.8c0.7-0.7,1.7-1.1,2.6-1.7c0.2-0.1,0.5-0.4,0.7-0.1c0.2,0.2,0.2,0.6,0,0.7c-0.6,0.7-0.7,2-2.1,1.9
		c-0.5,0-0.8,0.5-1.3,0.7c-0.6,0.4-1,2.1-1.9,0.2c-0.1-0.1-2.1,1.2-2.1,1.4c0,0.1,0,0.2,0.1,0.2c0.2,0.2,0.5,0,0.6-0.1
		c0.5-0.4,0.7-0.7,1.4-0.4c0.2,0.2,0.7-0.1,0.8,0.5c0,0.4-0.4,0.6-0.7,0.7c-0.5,0.2-0.8,0.5-1,1l0,0c-1.4,0.5-2.6,1.1-3.4,2.5
		c-0.2,0.5-0.6,0.8-1,1C196.6,97.3,196,98.2,195.3,99L195.3,99z"/>
	<path class="st0" d="M202.2,93.6c1.4-0.1,2.1-1.4,3.2-2.1c1.7-1.1,2.9-2.7,4.8-3.7c0.1,0,0.2-0.2,0.2-0.2c0-0.2-0.2-0.7,0.4-0.7
		c0.2,0,0.4,0.2,0.5,0.5c0.2,0.4,0,0.8-0.2,1c-1.3,0.5-1.8,1.8-2.7,2.5c-1.3,1.1-2.7,2.1-3.9,3.3c-0.6,0.6-1.1,1-1.4,1.7l0,0
		c-1.3,0.4-2,1.4-2.9,2.1l0,0c-0.7,0.2-1.2,1.1-2.1,1.1c-0.2-0.2-0.5-0.5-0.7-0.7c0.1-0.1,0.1-0.4,0.4-0.5c0.7-0.6,1.3-1.3,2.3-1.3
		c1.4,0,0.4-1.9,1.5-2c0.1,0,0.4-0.2,0.5-0.2C202.1,94.1,202.2,93.8,202.2,93.6L202.2,93.6z"/>
	<path class="st0" d="M202.8,95.6c1.4-0.7,2.6-1.8,3.8-2.6c0.7-0.6,1.5-1.1,2.3-1.5c0.4-0.2,0.6,0,0.7,0.1c0.4,0.5,0.1,0.8-0.4,1.1
		c-1,0.6-1.8,1.3-2.6,1.9c-1.4,1-2.7,2-4,3.2l0,0C202.1,96.9,203,96.4,202.8,95.6L202.8,95.6z"/>
	<path class="st0" d="M209.7,94.1c-0.1,1.1-0.8,1.8-1.7,2.1c-1.2,0.6-1.9,1.7-3,2.3c-0.7,0.5-1.4,0.7-1.9,1.3
		c-0.2,0.4-0.5,0.1-0.6-0.2c-0.1-0.4-0.2-0.7,0.4-0.7c0.8,0.1,1.2-0.5,1.4-1.2c0.1-0.5,0.4-0.7,0.7-0.8c1.3-0.8,2.7-1.7,3.8-2.9
		C209.3,93.7,209.6,93.7,209.7,94.1z"/>
	<path class="st0" d="M207.5,107.7c1-0.7,2.3-0.7,3-1.8c0.2-0.4,0.8-0.5,1.2,0c0.4,0.6-0.2,0.7-0.6,0.7c-0.4,0.1-0.4,0.2-0.2,0.5
		c0.2,0.4,0,0.7-0.2,0.7c-1.1-0.2-1.7,1-2.6,1c-0.5,0-0.5,0.5-0.6,0.7c-0.5,0.6-0.1,2-1.5,1.3l0,0c0.7-0.1,0.2-0.7,0.5-1.1
		c0.2-0.6,0.4-1.1,0.8-1.4C207.3,107.9,207.4,107.8,207.5,107.7z"/>
	<path class="st0" d="M199.9,85.7c0.7-0.7,1.2-1.2,1.9-1.8c1.1-0.7,2-1.7,2.9-2.6c0.2-0.2,0.6-0.6,0.8-0.4c0.5,0.4,0,0.6-0.1,0.8
		c-0.7,1.9-2.7,2.5-3.9,3.9C201.1,86.2,200.6,86,199.9,85.7z"/>
	<path class="st0" d="M202.4,97.7c-0.1,0.6-0.5,0.7-0.8,0.8c-1.2,0.4-2,1.4-2.9,2.1c-0.8,0.7-1-0.5-1.5,0c0.7-1.2,3-1,2.5-3l0,0
		C200.8,98,201.6,97,202.4,97.7L202.4,97.7z"/>
	<path class="st0" d="M207.5,107.7c-0.1,0.1-0.2,0.2-0.4,0.4c-0.5-0.1-0.8-0.2-1.3-0.1c-0.6,0.2-0.7-0.1-1-0.6
		c-0.2-0.6,0.2-0.7,0.6-0.8c0.7-0.4,1.1-1.1,2-0.7c0.4,0.1,1,0.4,0.2,0.7C207.1,106.9,207.9,107.4,207.5,107.7z"/>
	<path class="st0" d="M204.7,108.4c-0.1,0-0.4,0.1-0.6,0.4c-0.8,1-2.1,1.2-3.3,1.9c-0.4,0.2-0.7,0.1-0.7-0.2
		c-0.1-0.5,0.2-0.5,0.6-0.6c0.8-0.6,2.1-0.7,2.6-1.8c0.2-0.4,0.7-0.2,1.1-0.2C204.6,107.8,204.7,107.9,204.7,108.4z"/>
	<path class="st0" d="M204.3,86.6c-0.8,0-1.2,0.8-1.9,1.1c-0.4,0.1-0.6,0.2-0.8,0c-0.4-0.4,0-0.6,0.1-0.7c0.4-0.6,0.7-1.1,1.5-1.1
		c0.2,0,0.6-0.1,0.7-0.4c0.1-0.4,0-1,0.7-0.7c0.6,0.2,0.4,0.7,0.2,1.2C204.6,86.2,204.4,86.5,204.3,86.6L204.3,86.6z"/>
	<path class="st0" d="M197.2,98.2c0.2,0.2,0.5,0.5,0.7,0.7c-0.5,1.2-1.7,1.4-2.6,1.8l0,0c-0.5-0.7,0-1.1,0.4-1.5l0,0
		C196.1,99,196.4,98.1,197.2,98.2z"/>
	<path class="st0" d="M210.6,103.4c-1,0.8-1.1,2.1-2.6,2.1c-0.2,0-0.6,0-0.7-0.2c-0.1-0.4,0.1-0.6,0.4-0.7
		C208.5,104.1,209.1,103.2,210.6,103.4z"/>
	<path class="st0" d="M198.4,105.7c-0.1,0.6-0.6,0.7-0.8,0.8c-0.6,0.2-1.1,0.6-1.7,0.4c-0.4-0.1-0.1-0.6,0-0.8
		c0.4-0.4,0.7-1.2,1.1-0.8C197.6,105.6,198.3,105,198.4,105.7z"/>
	<path class="st0" d="M193.9,97.6c-0.7,0.4-1,1-1.8,1.2c-0.5,0.1-0.7-0.2-0.7-0.6c0.2-0.7,1-0.8,1.5-1.2
		C193.4,96.9,193.6,97.1,193.9,97.6z"/>
	<path class="st0" d="M197.6,88.5c0-1.4,1.3-1.7,2.1-2.1c0.1-0.1,0.5,0,0.6,0.1c0.2,0.2,0,0.5-0.2,0.6
		C199.2,87.5,198.6,88.5,197.6,88.5L197.6,88.5z"/>
	<path class="st0" d="M208.5,85.1c-0.1,0.4-0.2,0.4-0.5,0.4c-0.6,0-0.8,0.5-1,0.8c-0.1,0.5-0.5,0.7-0.8,0.4c-0.6-0.4-0.1-0.7,0.1-1
		c0.5-0.4,0.8-0.7,1.3-1C207.9,84.6,208.4,84.6,208.5,85.1z"/>
	<path class="st0" d="M199.7,103.7c0.6,0,1.1,0.4,1,0.6c-0.5,0.6-1,0.8-1.7,1.1c-0.5,0.1-0.7-0.5-0.6-0.8
		C198.5,103.4,199.3,103.9,199.7,103.7z"/>
	<path class="st0" d="M197.4,88.5c0.2,1-0.7,1.3-1.1,1.8c-0.4,0.4-0.5-0.1-0.5-0.5C196,88.8,196.5,88.5,197.4,88.5
		C197.6,88.5,197.4,88.5,197.4,88.5z"/>
	<path class="st0" d="M205.6,100c-0.5,0.7-1.2,1-1.7,1.8c-0.1,0.1-0.5,0-0.5-0.4c0-0.5,1.4-2,1.9-1.9
		C205.5,99.8,205.6,99.8,205.6,100z"/>
	<path class="st0" d="M211.7,100.9c0-0.1-0.1-0.2-0.1-0.4c0-0.4-0.7-0.6-0.2-1c0.5-0.2,1.1-0.1,1.4,0.4c0.2,0.4-0.4,0.7-0.7,0.7
		C212,100.8,211.9,100.8,211.7,100.9L211.7,100.9z"/>
	<path class="st0" d="M205.9,110.7c-0.4,0.1-0.4,0.6-0.6,0.7c-0.2,0.2-0.5,0.2-0.7,0c-0.2-0.2-0.5-0.5-0.4-0.7
		c0.1-0.4,0.4-0.4,0.7-0.4C205.3,110.3,205.5,110.6,205.9,110.7L205.9,110.7z"/>
	<path class="st0" d="M211.7,100.9c0.1,0.4,0.4,0.7-0.2,0.8c-0.4,0.1-0.6-0.2-0.7-0.5c-0.2-0.2-0.4-0.5-0.1-0.7
		C211.2,100.2,211.5,100.7,211.7,100.9L211.7,100.9z"/>
	<path class="st0" d="M205.5,84.4c-0.2,0-0.6,0-0.6-0.2c0.1-0.6,0.6-0.5,1-0.6c0.2,0,0.6,0,0.6,0.2
		C206.5,84.4,205.9,84.3,205.5,84.4z"/>
	<path class="st0" d="M232.2,68.5c2.9-2.7,5.7-5.5,8.4-8.1c1-1,1.9-2.1,3-3.2c0.2-0.2,0.6-0.5,0.7-0.7c0.5-0.4,0.8-0.5,1.2,0.1
		s0.1,0.8-0.4,1.2c-1.9,1.2-3.3,3.1-4.9,4.6c-1.9,1.8-3.3,3.9-5.8,5.1c-0.4,0.2-0.7,0.5-0.8,0.7C233.4,69,232.9,69,232.2,68.5z"/>
	<path class="st0" d="M231,67.1c-0.1-0.1-0.4-0.1-0.4-0.2c-0.2-0.4,0.1-0.6,0.2-0.7c1.7-2,3.4-3.7,5.1-5.5c2.1-2.1,4.4-4.2,6.7-6.1
		c0.2-0.2,0.6-0.4,0.7-0.5c0.2-0.1,0.5-0.1,0.6,0.1c0.1,0.2,0,0.4-0.1,0.6c-1,1-1.8,2.1-3,3c-2.6,1.7-4.3,4.4-6.7,6.2
		c-1,0.7-1.4,2-2.5,2.6C231.5,66.6,231.3,66.9,231,67.1z"/>
	<path class="st0" d="M247,59.7c0,0.5-0.4,0.7-0.6,0.8c-1.1,1-2.3,2-3.4,3.1c-2,2-4,3.8-5.7,6.1c-0.7,0.8-1.8,1.5-2.3,2.6
		c-0.1,0.4-0.5,0.5-0.7,0.2c-0.5-0.2-0.2-0.7,0-0.8c1.8-1.3,2.7-3.3,4.4-4.8c0.7-0.7,1.3-1.4,1.9-2.1c1.3-1.8,3-3.3,4.9-4.5
		c0.4-0.2,0.5-0.6,0.7-0.7c0.1-0.1,0.4-0.4,0.6-0.2C246.7,59.4,246.8,59.6,247,59.7z"/>
	<path class="st0" d="M231.8,54.7c0,0.5-0.1,0.7-0.5,1.1c-0.6,0.5-1.1,0.8-1.8,1.3c-0.6,0.4-1,1-1.5,1.7
		C228.2,57.2,230.1,55.3,231.8,54.7L231.8,54.7z"/>
	<path class="st0" d="M244.9,63.8c0.2-0.8,0.7-1.4,1.4-1.9c0.2-0.1,0.5-0.4,0.7-0.1c0.2,0.2,0,0.5,0,0.7
		C246.7,63.5,245.9,63.8,244.9,63.8L244.9,63.8z"/>
	<path class="st0" d="M237.8,85.1c-0.5-0.7,0-1.2,0-1.8c0-0.4,0.2-0.5,0.6-0.5c0.4,0,0.5,0.2,0.6,0.5c0.2,0.4-0.1,0.5-0.4,0.6
		C238.4,84.3,238.2,84.8,237.8,85.1z"/>
	<path class="st0" d="M197.9,48.8c0,1.1-0.6,1.5-1.7,2c-1.3,0.6-2.4,1.8-3.6,2.9c-1.1,1.2-2.6,1.8-3.8,2.9c-0.2,0.1-0.5,0.2-0.6,0
		c-0.1-0.2-0.2-0.5-0.1-0.7c0.2-0.6,0.6-1.3,1.1-1.4c1-0.1,1.1-1.7,2.3-1.1c0-1.4,1.4-1.5,2.1-2.1C195.1,50.1,196.3,48.8,197.9,48.8
		L197.9,48.8z"/>
	<path class="st0" d="M199,50.9c-0.7,1.3-1.9,2.1-3,3c-1.4,1.3-3.2,2.3-4.6,3.7c-0.4,0.4-0.6,0.6-1,0.6c-0.5,0-0.8,0.1-1.1-0.4
		c-0.2-0.5,0.1-0.7,0.6-0.8c1.9-1.1,3.4-2.6,5.1-3.8C196.3,52.3,197.4,51.3,199,50.9z"/>
	<path class="st0" d="M192.5,48.5c-0.8-0.2-1.2,0.6-1.8,0.8c-0.4,0.1-0.6,0.6-0.8,0.2c-0.4-0.4,0.1-0.7,0.2-1
		c0.2-0.6,0.7-1.1,1.1-1.2c1.3-0.1,2-1.2,2.7-2c0.4-0.4,0.7-0.6,1.1-0.6c0.7,0,1.3-0.5,1.8-1c0.6-0.7,1.4-1,2.1-1.3
		c0.2-0.1,0.7-0.4,0.8,0c0.2,0.4-0.1,0.6-0.4,0.7c-1.3,1.1-2.6,2.1-4.3,2.9C194,46.6,193.3,47.5,192.5,48.5L192.5,48.5z"/>
	<path class="st0" d="M198.4,45.2c0.2-0.1,1.1,0.5,0.7-0.6c-0.1-0.2,0.5-0.4,0.7-0.5c0.4-0.1,0.6,0.1,0.7,0.4c0.2,0.4,0,0.6-0.2,0.7
		c-0.2,0.2-0.6,0.6-0.8,0.7c-2.1,0.4-3.3,1.7-4.6,3.1c-0.2,0.2-0.7,0.7-1,0.4c-0.4-0.5-0.7-1.2,0-1.5c1.3-0.6,2.3-1.8,3.4-2.5
		C197.8,45.1,198,45.2,198.4,45.2z"/>
	<path class="st0" d="M191.5,44.3c0.4-1.1,1.4-1,2.1-1.8c0.7-0.8,2-1.4,3.2-1.9c0.6-0.2,1.1-0.4,1.4,0c0.4,0.7-0.5,0.7-0.7,1
		c-1.3,0.7-2.6,1.7-3.8,2.6c-0.5,0.4-1-0.2-1.5,0C191.9,44.3,191.6,44.3,191.5,44.3z"/>
	<path class="st0" d="M192.5,48.5c0.6,0,1,0.1,1.1,0.7s-0.4,0.7-0.7,0.8c-0.4,0.1-0.5,0.6-0.8,0.7c-0.5,0.1-0.8,0.7-1.3,0
		c-0.5-0.7,0.4-0.7,0.7-1c0.4-0.2,0.7-0.6,1.1-0.7C193,48.9,192.6,48.8,192.5,48.5L192.5,48.5z"/>
	<path class="st0" d="M196.4,39c-0.7,1-1.8,1.7-2.9,2.1c-0.4,0.1-0.7,0.2-0.8-0.2c-0.1-0.6,0.4-0.5,0.7-0.6c0.5-0.1,1.1-0.4,1.2-0.7
		C194.9,38.6,195.7,38.8,196.4,39L196.4,39z"/>
	<path class="st0" d="M197.9,48.8c0.1-0.7,1.2-1.8,1.9-1.7c0.2,0,0.5,0.2,0.4,0.5C200.1,48.1,198.6,48.8,197.9,48.8L197.9,48.8z"/>
	<path class="st0" d="M201.7,57.6c-0.4,0.1-0.6,0-0.5-0.4c0.2-0.8,1-1,1.7-1.3c0.2-0.1,0.6,0,0.6,0.4
		C203.3,57.5,202.2,57.2,201.7,57.6z"/>
	<path class="st0" d="M191.5,44.3c0.2,0,0.4,0,0.6,0c0.4,0.8-0.5,1.1-0.8,1.5c-0.4,0.4-0.7,0-0.7-0.4c-0.2-0.4-0.2-0.7,0.2-0.8
		C190.8,44.4,191.1,44.4,191.5,44.3z"/>
	<path class="st0" d="M190.7,51.8c-0.4,0.6-1,0.7-1.5,1c-0.2,0.1-0.6-0.4-0.6-0.5c0.5-0.4,0.7-1,1.4-0.8
		C190.4,51.7,190.6,51.5,190.7,51.8z"/>
	<path class="st0" d="M196.4,39c0.5-1.1,1.3-1.3,2.3-1.1C197.9,38.1,197.6,39.3,196.4,39L196.4,39z"/>
	<path class="st0" d="M189.6,46c0.1,0.5-0.1,0.7-0.6,0.7c-0.4,0-0.5-0.2-0.4-0.5c0.1-0.4,0-1,0.6-1S189.5,45.8,189.6,46z"/>
	<path class="st0" d="M259.9,97.5c0.5-0.7,1.7-0.6,2-1.4c0.1-0.1,0.4,0,0.4,0.2c0.1,0.4,0.2,1-0.1,1.1c-1.2,0.1-1.3,1.8-2.5,1.8
		c-0.2,0-0.5,0.7-0.7,1c-0.4,0.4-0.7,0.7-1.1,0.2c-0.5-0.4,0.1-0.7,0.2-0.8C258.7,98.8,259.3,98.2,259.9,97.5L259.9,97.5z"/>
	<path class="st0" d="M266.1,98.2c0,0.8-0.6,1.5-1,2.3c-0.2,0.5-0.8,1.4-1.4,0.1c0.2-0.4,0.5-0.7,0.2-1.1c0.1-0.7,0.5-1.3,1.3-1
		C265.6,98.7,265.7,98.2,266.1,98.2C266,98.2,266.1,98.2,266.1,98.2z"/>
	<path class="st0" d="M244,99.8c0.7-1.5,1.7-2.7,2.9-3.8c0.1-0.1,0.4-0.1,0.5,0c0.2,0.1,0.1,0.4,0.1,0.5c0,0,0,0.1-0.1,0.1
		c-1,1.2-2.1,2.3-3.1,3.6C244.2,99.9,244.1,99.8,244,99.8z"/>
	<path class="st0" d="M261,106.4c-0.1,0.8-2.1,2.1-2.7,1.9c-0.4-0.1-0.4-0.5,0-0.6C259.1,107.4,259.8,106.4,261,106.4L261,106.4z"/>
	<path class="st0" d="M263.8,99.6c0.2,0.5,0,0.7-0.2,1.1c-0.5,0.5-1,0.7-1.5,1c-0.5,0.2-0.7,0-0.8-0.5c-0.2-0.7,0.4-0.5,0.6-0.5
		C262.5,100.5,263,99.8,263.8,99.6z"/>
	<path class="st0" d="M247,101.7c0.1-0.8,0.2-1.3,0.7-1.8c0.4-0.4,0.7-0.7,0.7-1.1s0.1-0.7,0.6-0.5c0.4,0.2,0.4,0.5,0.1,0.7
		C248.7,100,247.9,100.7,247,101.7z"/>
	<path class="st0" d="M247.8,97.5c0.4,1.3,0.4,1.3-1.9,1.7C245.9,98,247.4,98.2,247.8,97.5L247.8,97.5z"/>
	<path class="st0" d="M261,106.4c-0.1-0.2-0.4-0.6-0.1-0.8c0.2-0.2,0.5-0.4,0.7-0.5c0,0,0.2,0.2,0.4,0.4c0.1,0.4,0,0.7-0.4,0.7
		C261.5,106.4,261.2,106.4,261,106.4L261,106.4z"/>
	<path class="st0" d="M152.5,54.5c-0.5,0.7-1.3,0.7-1.7,1.3c-1.1-0.6-1.7,0.4-2.4,0.7c-0.6,0.2-1,0.7-1.5,0.8
		c-0.2,0.1-0.6,0-0.6-0.4c0-0.2,0.1-0.5,0.4-0.6c1.8-0.7,3.2-1.8,4.9-2.5C151.8,54,152.2,54,152.5,54.5z"/>
	<path class="st0" d="M156.3,52.7c-0.7-0.1-1.4,0.7-2.4,0.5c0.7-1.1,1.9-1.2,2.9-1.8c0.1,0,0.2,0.1,0.4,0.1c0.1,0.1,0.1,0.4-0.1,0.5
		C156.8,52.3,156.5,52.4,156.3,52.7L156.3,52.7z"/>
	<path class="st0" d="M144.5,62.5c-0.7,0.1-1.3,0.2-1.9,0.4c-0.2,0-0.6,0-0.6-0.4c0-0.2,0.2-0.4,0.5-0.5
		C143.3,61.8,144,61.9,144.5,62.5L144.5,62.5z"/>
	<path class="st0" d="M150.5,80c-1-0.4-1.4,0.4-2.1,0.7c-0.5,0.5-1,0.6-1.5,0.4c0.1-1,1-1.2,1.7-1.7c0.4-0.6,0.8-0.7,1.3-1
		c1.8-0.5,2.6-2.1,4.4-2.9c1-0.4,1.9-0.8,2.7-1.2c0.5-0.2,1-0.4,1.1,0.2c0.2,0.7-0.5,0.5-0.7,0.6c-1,0.6-2.1,0.8-3,1.9
		c-0.7,0.7-2,1-2.9,1.7C151.1,79.1,150.2,79.2,150.5,80z"/>
	<path class="st0" d="M154.9,70.3c-0.4,0-0.7,0-0.7-0.4c-0.1-0.4,0.4-0.5,0.6-0.5c0.7,0,1.2-0.2,1.5-0.8c0.2-0.5,0.7-0.7,1.2-0.4
		c0.6,0.7-0.4,0.6-0.6,0.8C156.5,70.1,155.6,70.1,154.9,70.3z"/>
	<path class="st0" d="M141.6,107.2c0.1-0.8,0.8-1,1.5-1.3c1.8-1.3,4-1.3,5.7-2.7c1.3-1.1,3-1.1,4.5-1.5c0.2-0.1,0.6-0.2,0.8,0.1
		c-0.2,0.7-1,0.7-1.4,0.8c-2.3,0.8-4.3,2.1-6.5,3.2c-1.1,0.6-2.1,0.7-3.2,1.7C142.8,107.9,142.1,107.7,141.6,107.2z"/>
	<path class="st0" d="M152.1,105.7c-1,1.8-2.6,2.1-4.2,2.6c-0.5,0.1-1-0.5-0.6-0.7c0.6-0.5,1.1-1.5,2.1-1.1
		C150.4,106.9,151,105.7,152.1,105.7z"/>
	<path class="st0" d="M158.4,98.3c-0.8,1-2.3,0.8-3.1,1.9c-0.1,0.2-0.7-0.1-0.8-0.5c-0.1-0.4,0-0.7,0.4-0.7
		C155.9,98.8,156.9,98,158.4,98.3z"/>
	<path class="st0" d="M159.2,78.7c-0.7,1.9-2.3,2-3.4,2.9c-2.1,1.5-4.4,3.2-6.7,4.4c-1.3,0.7-2.3,2.1-3.9,2.3
		c-0.1,0-0.4,0.1-0.4,0.1c-0.5,1.8-2.3,1.5-3.3,2.5c-1.1,1.1-2.1,2.1-3.6,2.9c-0.7,0.4-1.1,1.1-1.8,1.8c-0.4,0.4-0.7,0.5-1.1,0.1
		c-0.5-0.4,0-0.7,0.2-1c0.7-0.7,1.5-1.3,2.4-2c2.1-1.7,4.3-3.2,6.5-4.8c0.8-0.7,2.1-1.1,2.6-2c0.7-1.1,2-1.4,3.1-2.1
		c2.4-1.7,5-3,7.6-4.2C158,79.3,158.5,79.2,159.2,78.7z"/>
	<path class="st0" d="M142.9,92.7c-0.1,0.5-0.4,0.7-0.6,0.7c-1.9,0.4-2.1,2.4-3.8,3.1c-1.2,0.5-2.1,1.4-3.2,2.1
		c-0.4,0.2-0.7,0.2-0.7-0.1c-0.2-0.4,0.1-0.6,0.2-0.7c1-0.8,1.9-1.8,3-2.5c1.4-1,2.6-2.3,4.2-3c0.2-0.1,0.5-0.4,0.7-0.2
		C142.8,92.4,142.8,92.6,142.9,92.7z"/>
	<path class="st0" d="M243.4,94.1c0-0.2,0-0.5,0-0.6c0.2-0.5,0.2-1,0.7-1.3c0,0,0.2,0.1,0.4,0.2c0.1,0.7-0.1,1.2-0.7,1.5
		C243.9,93.9,243.8,93.9,243.4,94.1z"/>
	<path class="st0" d="M145.5,98.4c-0.7-0.5-1.3-0.8-1.8,0.2c-0.2,0.6-0.7,0.4-1.2,0.2c-0.5-0.1-0.7-0.5-0.6-0.8c0-0.4,0-0.5,0.5-0.5
		c0.8,0,1.8-0.4,2.4-1.2c0.8-1.2,2.4-1.9,3.7-2.9c1.1-0.8,2.5-1.5,3.4-2.5c1.4-1.5,3.6-1.7,5.1-2.7c0.2-0.1,0.4,0,0.5,0.1
		c0.2,0.4,0.1,0.7-0.1,0.7c-1.3,0.6-2.1,1.9-3.6,2.3c-0.5,0.1-0.6,0.6-0.8,0.7c-1.7,0.8-3,2.1-4.8,2.9c-1,0.4-1.7,1.7-2.6,2.3
		c-0.1,0.1,0,0.6,0.1,0.8C145.5,98.3,145.5,98.3,145.5,98.4z"/>
	<path class="st0" d="M145.5,98.4c0-0.1,0-0.1,0-0.2c3.9-2.3,7.4-5.3,11.5-7.4c0.2-0.1,0.5-0.4,0.7-0.5c0.6-0.2,1.2-0.6,1.5,0
		c0.4,0.6-0.6,0.7-0.8,1c-0.7,0.7-1.5,1.2-2.6,1.3c-1.2,0.2-1.8,1.2-2.5,2c-1.7,1.4-3.6,2.4-5.3,3.6c-0.2,0.1-0.5,0.1-0.6,0.2
		C146.7,99.8,146.1,99.3,145.5,98.4z"/>
	<path class="st0" d="M200.9,62c0.5,1.1,0,1.5-0.6,2c-0.1,0.1-0.5,0.1-0.5-0.1C199.7,63.1,200.6,62.8,200.9,62z"/>
	<path class="st0" d="M139.6,71.4c0.5-0.5,0.7-0.7,1.2-1.2c0.1-0.1,0.4-0.4,0.6-0.1c0.2,0.2,0,0.4-0.1,0.6
		C140.8,71.3,140.2,71.5,139.6,71.4L139.6,71.4z"/>
	<path class="st0" d="M203.1,227.3c-0.6-0.7-1,0.1-1.4-0.2c0.1-0.6,0.5-1,0.8-1C202.9,226.2,203,226.6,203.1,227.3z"/>
	<path class="st0" d="M183.3,222.9c0.5,0.4,0.4,0.7,0.1,1c-0.6,0.6-0.8,1,0.1,1.4c0.6,0.4,0.2,1.1,0.2,1.5c0,0.4-0.6,0.4-0.7,0.2
		c-0.7-0.2-0.7-0.7-0.7-1.2c-0.1-1,0.1-1.8,0.7-2.5C182.8,223,182.9,222.9,183.3,222.9z"/>
	<path class="st0" d="M146.4,81.7c0,0.4,0,0.8-0.6,0.8c-0.8-0.1-0.8,0.5-1,1c-0.6-0.2-1.2,0.7-1.5,0.2c-0.4-0.5,0.7-0.7,1-1.2
		C144.8,81.8,145.5,81.7,146.4,81.7z"/>
	<path class="st0" d="M140.7,85.3c0.6-0.5,1.1-1.1,2.1-1.1C142.2,85.1,141.4,85.3,140.7,85.3z"/>
	<path class="st0" d="M131.3,223.6c0-0.1-0.1-0.4-0.1-0.5c0-0.5,0.1-0.7,0.6-0.8c0.1,0,0.4,0.1,0.5,0.2c0.2,0.5,0,0.7-0.5,1
		C131.6,223.5,131.5,223.6,131.3,223.6L131.3,223.6z"/>
	<path class="st0" d="M189.1,225.9c-0.7,0.1-0.8-0.4-1.1-0.8s0.1-0.8,0.5-0.8c0.6,0,0.2-1.3,1-0.7c0.6,0.5,0.5,1.1-0.2,1.5
		C188.9,225,189.1,225.5,189.1,225.9L189.1,225.9z"/>
	<path class="st0" d="M44.8,185.5c0.2-3.2,0.8-5.9,3.9-7.4c1.9-1,3.7,0.4,3.4,2.4c-0.1,1.2-0.4,2.4-0.7,3.7c-0.6,2.1-2.5,3.7-5,3.8
		c-0.8,0.1-1.2-0.5-1.4-1.1C45,186.5,45,185.9,44.8,185.5z M50.9,180.7c0-1.3-0.7-1.8-1.4-1.3c-0.4,0.2-0.8,0.5-1.1,0.7
		c-1.1,1.7-1.9,3.4-2.1,5.3c-0.1,0.7,0.4,1.1,1,1.1c0.5,0,0.8-0.2,1.2-0.5C50.5,184.9,49.8,182.3,50.9,180.7z"/>
	<path class="st0" d="M37.8,148.1c0.1-2.4,1.1-4.6,2.6-6.5c1.1-1.2,2.4-1.7,3.9-1.9c0.6-0.1,1,0.4,1.2,0.7c0.7,1.2,1.2,2.4,0.7,3.8
		c-0.7,2.3-1.2,4.8-3.3,6.4c-0.6,0.5-1.2,0.7-1.9,1c-1.7,0.7-3-0.6-3.4-2C37.8,149.4,37.8,148.8,37.8,148.1z M39.3,148.6
		c0.2,0.7-0.2,1.3,0.4,1.8c1,0.7,2.7,0.5,3.3-0.7c0.7-1.5,1.3-3.1,2-4.6c0.5-1.2,0.2-2.5-0.4-3.7c-0.2-0.6-0.6-0.6-1-0.2
		C40.8,143,39.3,145.4,39.3,148.6z"/>
	<path class="st0" d="M217.2,168.3c1.9-1.5,2.7-4,5.1-5.1c-1-0.7-2-0.6-2.7-0.5c-5.6,0.4-11,0.7-16.7,0.5c-5.3-0.2-10.7-0.5-16-0.5
		c-2.7,0-5.5,0.4-8.2-0.1c-0.6-0.1-1,0-1.3,0.6c-0.1,0.4-0.5,0.7-0.7,0.5c-0.4-0.1-0.4-0.5-0.4-0.7c-0.2-1.5-0.2-1.5,1.4-1.5
		c2.1,0,4.4,0,6.5-0.2c2.4-0.4,4.9,0.4,7.4,0.4c3.2,0,6.3-0.1,9.5,0.1c2.7,0.2,5.5,0.4,8.7,0.5c-1.1-0.6-2-0.1-2.9-0.5
		c0.5-0.7,1.1-0.6,1.8-0.6c2.1,0.1,4.4,0.2,6.5-0.2c0.6-0.1,1.1-0.1,1.5,0.1c0.8,0.2,1.8,0.2,2.7-0.1c1.1-0.4,2.3,0,3.6,0.2
		c0.8,0.1,1.7,0,2.4-0.2c1.7-0.6,2.3-0.1,2.3,1.7c0,3,0,5.8,0,8.8c0.1,4.4,0.2,8.8,0.2,13.2c0,0.5,0,0.7-0.1,1.2
		c-0.2,1.7-0.7,1.9-2.3,2.1c-1.4,0.2-3-0.4-4.2,0.7c-0.1,0.1-0.4,0.1-0.4,0.1c-1.9-1.1-3.9-0.2-5.8-0.1c-3.1,0.1-6.2,0.2-9.3,0.2
		c-5.7,0-11.5-0.4-17.2-0.5c-1.9,0-3.8,0.2-5.7,0.4c-2,0-4-0.1-6.1-0.2c-0.6,0-1.1-0.1-1-1c0.4-2.7,0.6-5.3,0.2-8.1
		c-0.4-2.6,0.5-5.2,0.4-8c-0.1-1.8,0-3.6,0.2-5.2c0.1-1.4,0.4-1.7,1.9-2.3c0.4,3.4,0.4,6.7,0.1,10.1c-0.2,3.9-0.1,8,0.2,11.8
		c0.1,0.8,0.5,1.2,1.2,1.2c3.2,0,6.3-0.1,9.5-0.2c1.8,0,3.6-0.2,5.2,0.1c1,0.1,2.1,0.1,3.3,0c1.7-0.2,3.4,0.8,5.1,0
		c3.1,1.2,6.3-0.1,9.4,0.4c0.6,0.1,1.1,0.2,1.4-0.4c0.1-0.1,0.4-0.4,0.5-0.1c0.7,0.7,1.7,0.5,2.4,0.4c2.7-0.5,5.6-0.5,8.3-0.7
		c1-0.1,1.4-0.4,1.3-1.5c-0.2-3.2-0.1-6.5-0.4-9.6c-0.1-2.6,0-5.1,0-7.8c0-0.4,0.1-0.7-0.4-1c-0.7,1.3-2.1,1.8-3.1,3
		c-0.6,0.7-1.5,1.1-2,2c-0.1,0.2-0.5,0.4-0.7,0c-0.2-0.2,0-0.5,0.2-0.7c1.8-1.9,3.4-3.7,5.1-5.6c0.6-0.6,0.7-1.2,0.4-1.7
		c-0.4-0.6-1.1,0.1-1.7-0.1l-0.2,0.1c-0.1,1.9-1.7,2.5-2.9,3.2c-1.3,0.7-1.9,2.3-3.3,3C217.4,168.8,217.3,168.5,217.2,168.3z"/>
	<path class="st0" d="M202.9,168c-0.7,1-1.1,1.9-1.8,2.4c-1.8,1.4-3,3.3-4.6,4.9c-2.6,2.4-5.1,5-7.8,7.4c-0.4,0.2-0.7,0.7-1,0.2
		c-0.5-0.5-0.1-1.1,0.2-1.4c1-0.8,1.9-1.9,2.7-2.9c2.3-2.4,5.1-4.3,7.1-6.9c1.1-1.4,3-2,3.7-3.7c0.1-0.4,0.5-0.4,0.7-0.2
		C202.5,167.9,202.8,167.9,202.9,168z"/>
	<path class="st0" d="M180.1,178.7c-0.5-0.4-0.7-0.5-0.8-0.7c-0.7-0.5-0.7-0.7,0-1.3c2.5-2,5.1-4,7.2-6.4c1.2-1.3,2.6-2.1,4.2-3.1
		c0.1-0.1,0.4-0.1,0.5,0c0.4,0.4,0.1,0.7-0.1,0.7c-0.8,0.7-1.4,1.8-2.4,2.4c-1.5,1-3,2.3-4.3,3.7c-1.2,1.2-2.3,2.4-3.7,3.4
		C180.2,177.9,180.2,178.3,180.1,178.7z"/>
	<path class="st0" d="M225.2,173.3c-0.4,1-1,1.9-1.8,2.4c-1,0.6-1.9,1.4-2.9,2c-0.2,0.1-0.5,0.6-0.7,0.4c-0.4-0.2,0-0.6,0.1-0.7
		c1.1-1.8,2.7-3,4.2-4.3c0.2-0.2,0.6-0.4,0.8-0.1C225.1,172.9,225.2,173,225.2,173.3z"/>
	<path class="st0" d="M186.2,174.9c-0.2,2-1.8,2.7-2.9,3.7c-0.5,0.4-1,1.4-1.7,0.7c-0.6-0.7,0.4-1.2,0.7-1.8
		C183.3,176.4,184.6,175.6,186.2,174.9z"/>
	<path class="st0" d="M217.2,168.3c0.1,0.2,0.2,0.5,0.4,0.6c-0.6,0.7-1.4,1.1-1.9,2c-0.1,0.2-0.7,0.7-1.1,0.4
		c-0.5-0.6-0.1-1.7,0.1-1.9c0.7-0.4,1.2-1,1.9-1.3C216.8,167.9,217,168,217.2,168.3z"/>
	<path class="st0" d="M193.6,184.2c0.7-1.3,1.5-2.1,2.6-2.9c0.2-0.1,0.4-0.4,0.6-0.2c0.2,0.2,0.2,0.5,0.1,0.7
		C196.4,183.1,195.5,184.1,193.6,184.2z"/>
	<path class="st0" d="M223.6,178.4c0.4-0.1,0.7-0.5,1-0.4s0.6,0.2,0.7,0.5c0.2,0.4-0.1,0.6-0.4,0.7c-1,1.1-2.1,1.4-3.6,1
		C222.3,179.7,223.2,179.4,223.6,178.4z"/>
	<path class="st0" d="M190.6,175.3c-1,1.1-1.5,2.6-3.3,3.1C187.7,176.9,189.1,175.8,190.6,175.3z"/>
	<path class="st0" d="M220.7,180.2c-0.7,0-0.6-0.7-0.5-0.8c0.5-1.2,1.7-1.7,2.9-0.8c-0.2,0.5-0.7,0.5-0.8,0.7
		C221.7,179.6,220.8,179.4,220.7,180.2z"/>
</g>
</svg>
