<?xml version="1.0" encoding="utf-8"?>
<!-- Generator: Adobe Illustrator 22.0.1, SVG Export Plug-In . SVG Version: 6.00 Build 0)  -->
<svg version="1.1" id="Layer_1" xmlns="http://www.w3.org/2000/svg" xmlns:xlink="http://www.w3.org/1999/xlink" x="0px" y="0px"
	 viewBox="0 0 151.9 150.4" style="enable-background:new 0 0 151.9 150.4;" xml:space="preserve">
<style type="text/css">
	.st0{fill:#4E5D44;}
	.st1{fill:#E4D3B6;}
</style>
<g>
	<path class="st0" d="M140.7,61.4c-0.7-1.1-1.5-2.2-2.3-3c-0.4-0.4-0.8-0.8-1.2-1.2l-1.2-1c-6-2.2-10.3-6.9-11.3-13.5
		c-0.5-2.9-0.3-6.1-1.7-8.7c-2.3-4.1-3.7-7.1-7.8-9.7c-3.6-2.2-7.9-3.7-12-4.4c-3.8-0.6-8.1-0.6-10.8-3.3c-1.3-1.2-2-2.8-3-4.2
		C87.2,9.3,84.6,8,81,7.3c-3.3-0.6-6.9-2.4-10.3-2.7c-3-0.3-6.3-0.5-9.4-0.5c-1.6,0-3.1,0-4.7,0c-1.5,0-2.9,0.1-4.4,0.2
		C46.5,4.8,41.8,6,39.5,7.9c-0.6,0.4-1.2,0.9-1.8,1.4s-1.2,0.9-1.7,1.4c-1.1,0.9-2.3,1.9-3.3,2.8c-2.1,1.8-4.1,3.8-5.9,5.8
		c-3.7,4-6.8,8.1-9.5,12.5s-4.9,9-6.7,14.1c-0.5,1.3-0.9,2.5-1.2,3.8c-0.3,1.1-0.6,2.1-0.9,3.2C8,53.9,7.8,55,7.6,56
		c-0.2,1-0.4,2.1-0.6,3.1C6.3,63.2,6,67,5.9,70.6c-0.1,3.5,0.1,6.7,0.4,9.7c0.3,2.9,0.8,5.5,1.3,7.8s1.1,4.3,1.7,6.1
		c3-1.1,5.8-2.9,7.6-2.4c1,0.5,1.2,1.3,1,2.2c-0.2,0.9-0.8,1.9-1.3,3.1c-1,2.4-1.7,5.5,1.3,7.7c1.6-0.7,3.2-1.4,4.8-2.1
		c0.3,2.7,0.9,6,2.3,9.9c1.3,3.8,3.5,8.2,6.9,12.7c1,0.8,2.1,1.6,3.2,2.4c1.1,0.8,2.3,1.6,3.5,2.4c2.4,1.5,5,3,7.6,4.3
		s5.3,2.4,8,3.4c1.3,0.5,2.7,0.9,4.1,1.3c0.7,0.2,1.4,0.4,2.1,0.6l2,0.5c5.4,1.3,10.7,1.9,15.5,2.1c1.2,0,2.3,0,3.5,0h1.7
		c0.6,0,1.1-0.1,1.6-0.1c1-0.1,2.1-0.1,3.1-0.3c1-0.1,2.1-0.2,2.9-0.4c-0.4-1.7-0.5-3.4,0.9-4.1c5.9-1.5,12.3-0.9,17.2-1.6
		c0.6-0.4,1.2-0.9,1.8-1.3c0.3-1.1-0.1-2.8-0.3-3.8c0.9-0.2,1.7-0.3,2.5-0.3c0.7,0,1.4,0,2.1,0.1c1.4-1.7,2.5-3.4,3.1-4.9l0.2-0.6
		c0.1-0.2,0.1-0.4,0.1-0.5l0.1-0.3l0.1-0.3c0.1-0.2,0.1-0.4,0.2-0.6c0.4-0.8,1.1-1.8,1.9-2.8c0.9-1.1,1.9-2.2,3.2-3.6
		c1.4-1.5,2.9-3.1,4.3-4.6c1.6-1.8,3.3-3.7,5.1-5.9l1.3-1.7c0.4-0.6,0.9-1.2,1.3-1.8c0.9-1.3,1.7-2.5,2.4-3.8c3-5,5.1-10.5,6.1-15.6
		c0.1-0.6,0.2-1.3,0.3-1.8c0.1-0.6,0.1-1.2,0.2-1.8c0.1-0.6,0.1-1.2,0.1-1.8v-0.9v-0.8c0-1.1-0.1-2.1-0.2-3.2l-0.1-0.8l-0.1-0.7
		l-0.3-1.4C143.5,66.5,142.2,63.8,140.7,61.4z"/>
</g>
<g>
	<path class="st1" d="M75.4,106.9c-10.9,0-21.9,0-32.8,0c-0.5,0-1,0-1.5,0c-2.5-0.2-3.8-1.5-3.6-4.1c0.3-6.3,2.3-12.1,6.1-17.2
		c5.5-7.5,12.8-11.9,22.1-12.9c5.7-0.6,11.4-0.4,17-0.2c4.8,0.2,9.4,1.2,13.6,3.5c10.3,5.7,16.1,14.4,17,26.2
		c0.3,3.3-1.1,4.6-4.4,4.6C97.7,106.9,86.6,106.9,75.4,106.9z M75.3,100c9,0,18,0,27,0c0.8,0,1.7,0,2.5,0c0.9,0,1.4-0.2,1-1.2
		c-0.1-0.3-0.1-0.6-0.2-0.9c-2.8-10.6-12.2-18-23.1-18.2c-4.4-0.1-8.7,0-13.1,0c-2.9,0-5.8,0.4-8.6,1.4c-8.3,2.9-13.5,8.7-15.8,17.2
		c-0.5,1.7-0.4,1.8,1.4,1.8C56.1,100,65.7,100,75.3,100z"/>
	<path class="st1" d="M54.2,49c0.4-12.1,9.6-21,21.3-21c11.7,0,20.7,9.4,20.7,21c0,11.8-9.2,21-20.9,21C63.4,70,54.4,60.7,54.2,49z
		 M75.4,63.2c7.8,0,14-6.2,14-14c0-7.9-6.2-14.2-14-14.3c-7.5-0.1-14.2,6.4-14.1,14.3C61.4,57.1,67.5,63.2,75.4,63.2z"/>
</g>
</svg>
