<?xml version="1.0" encoding="utf-8"?>
<!-- Generator: Adobe Illustrator 22.0.1, SVG Export Plug-In . SVG Version: 6.00 Build 0)  -->
<svg version="1.1" id="Layer_1" xmlns="http://www.w3.org/2000/svg" xmlns:xlink="http://www.w3.org/1999/xlink" x="0px" y="0px"
	 viewBox="0 0 178.6 175.5" style="enable-background:new 0 0 178.6 175.5;" xml:space="preserve">
<style type="text/css">
	.st0{fill:#4E5D45;}
	.st1{fill:#E4D3B6;}
</style>
<g>
	<path class="st0" d="M75.1,20.2c11.9-2.2,22.1-4.8,32.7-2.3c7.9,1.9,15.3,4.7,21.9,9.7c4.5,3.4,7.7,9.1,14.7,8
		c0.9-0.1,2.2,1.2,2.9,2.1c16.9,22.8,32.9,45.7,23.5,76.9c-8.5,28.3-27.5,45.2-55.3,52.2c-17.1,4.3-33.8,3-51.3-3.1
		c-14.3-5-26.2-11.3-36.4-21.8c-4.7-4.8-7.8-10.4-8.6-17.1c-0.4-4.1-1.2-7.9-4.7-10.7c-1.1-0.9-2.2-2.9-1.9-4.1
		c3.3-14.7-9-27.8-3.2-43.4c6-15.8,12.9-30.8,23.9-43.6c3.8-4.4,8.2-8.5,12.6-12.3c8.6-7.5,18.3-6.6,27.9-2.4
		C80.4,11.2,80.4,12.7,75.1,20.2z"/>
</g>
<g>
	<path class="st1" d="M89.5,57.2c2.4-4.8,4.7-9.4,7-14.1c1.6-3.3,2.3-3.5,5.7-2.2c10.8,4.2,21.6,8.3,32.3,12.5
		c3,1.2,3.4,2.1,2.3,5.1c-2.1,5.7-4.8,11.1-7.4,16.5c-0.6,1.4-0.6,2.4,0,3.8c2.6,5.6,5.4,11.1,7.5,16.9c0.9,2.3,0.4,3.4-1.9,4.4
		c-1.6,0.7-3.2,1.4-4.9,1.9c-1.5,0.4-2,1.2-2,2.8c0.1,6.4,0,12.7,0.1,19.1c0,2.1-0.8,3.2-2.7,3.9c-11.5,4.3-23,8.6-34.5,12.9
		c-1.4,0.5-2.7,0.6-4.1,0c-11-4.5-22.1-8.6-33.3-12.6c-3.3-1.2-3.6-1.7-3.6-5.2c0-6,0-12.1,0-18.1c0-1.4-0.4-2.2-1.8-2.7
		c-1.7-0.5-3.4-1.2-5-1.9c-2.3-1-2.7-2.1-1.8-4.4c2.3-5.7,4.8-11.2,7.4-16.7c0.7-1.4,0.7-2.5,0-4c-2.6-5.4-5.1-10.9-7.3-16.5
		c-1.1-2.8-0.7-3.8,2.1-4.9c11.3-4.4,22.5-8.7,33.8-13c2-0.8,3-0.3,4,1.7c2.2,4.4,4.4,8.9,6.6,13.3C88.5,56,88.6,56.7,89.5,57.2z
		 M91.9,101.4c-0.1,0.6-0.1,0.8-0.1,1c0,10.3,0,20.6,0,30.8c0,1.6,0.6,1.6,1.9,1.2c9.4-3.6,18.7-7.1,28.1-10.6
		c1.3-0.5,1.8-1.1,1.8-2.5c-0.1-4.9-0.1-9.8,0-14.6c0-1.7-0.4-2-2-1.3c-6.4,2.6-12.9,5.1-19.4,7.6c-3.2,1.2-4.1,0.8-5.6-2.2
		C95.1,107.7,93.8,104.5,91.9,101.4z M86.8,101.8c-0.1,0-0.2-0.1-0.4-0.1c-1.5,3-2.9,5.9-4.4,8.9c-1.7,3.4-2.4,3.6-5.9,2.3
		c-6.4-2.5-12.8-4.9-19.2-7.4c-1.6-0.6-1.9-0.2-1.9,1.4c0.1,4.8,0.1,9.6,0,14.5c0,1.5,0.5,2.1,1.9,2.6c9.3,3.4,18.7,6.9,28,10.5
		c1.7,0.6,2,0.2,2-1.4c0-8.5,0-17,0-25.4C86.8,105.6,86.8,103.7,86.8,101.8z M77.1,46.1c-0.1,0-0.3,0.1-0.5,0.1
		c-9.5,3.7-19,7.4-28.6,11c-0.9,0.3-1,0.9-0.6,1.6c2,4.5,4,9,6,13.6c0.5,1.1,1.1,1.2,2.1,0.7c1.5-0.6,3-1.1,4.5-1.7c8-3,16-6,24-9
		c0.8-0.3,1.9-0.4,1.2-1.8c-2.3-4.5-4.5-9.1-6.8-13.6C78.2,46.5,77.9,46,77.1,46.1z M131.4,95.6c-0.2-0.5-0.4-1.1-0.6-1.6
		c-1.8-4.1-3.7-8.2-5.5-12.3c-0.6-1.3-1.1-1.5-2.4-1c-9.5,3.6-18.9,7.2-28.5,10.7c-1.5,0.5-1.5,1.2-0.8,2.4
		c1.9,3.6,3.7,7.2,5.5,10.8c2.2,4.2,1.3,3.7,5.4,2.1c8.5-3.2,16.9-6.5,25.3-9.8C130.5,96.6,131.3,96.5,131.4,95.6z M85.5,92.5
		c0-0.9-0.8-0.9-1.4-1.1c-9.5-3.6-19-7.1-28.5-10.7c-1.3-0.5-1.9-0.1-2.4,1c-1.9,4.3-3.8,8.6-5.8,12.8c-0.5,1.1-0.4,1.7,0.9,2.2
		c9.3,3.6,18.6,7.1,27.8,10.8c1.3,0.5,1.8,0.1,2.4-1c2.1-4.3,4.3-8.6,6.4-12.9C85.2,93.2,85.4,92.8,85.5,92.5z M101.6,46
		c-1.1,0-1.2,0.7-1.5,1.3c-2.2,4.3-4.3,8.6-6.5,12.9c-0.6,1.1-0.5,1.6,0.8,2.1c9.5,3.5,19,7,28.5,10.7c1.4,0.5,2.1,0.2,2.6-1.1
		c1.8-4.2,3.6-8.4,5.6-12.5c0.7-1.5,0.2-2-1.1-2.5c-9.1-3.5-18.1-7-27.1-10.5C102.3,46.3,101.9,46.2,101.6,46z M118.6,76.9
		c-0.7-0.4-1-0.5-1.3-0.6c-8-3-16-6-24-9c-1.4-0.5-1.6,0.1-1.6,1.3c0,5.5,0.1,11,0,16.6c0,1.8,0.6,1.7,1.9,1.2
		c3.3-1.3,6.6-2.5,9.9-3.7C108.4,80.8,113.2,78.9,118.6,76.9z M59.9,76.9c8.8,3.3,17.2,6.5,25.6,9.6c1,0.4,1.4,0.1,1.4-1
		c0-5.8,0-11.5,0-17.3c0-1-0.3-1.4-1.4-1C77.1,70.4,68.7,73.6,59.9,76.9z"/>
</g>
</svg>
