<?xml version="1.0" encoding="utf-8"?>
<!-- Generator: Adobe Illustrator 22.0.1, SVG Export Plug-In . SVG Version: 6.00 Build 0)  -->
<svg version="1.1" id="Layer_1" xmlns="http://www.w3.org/2000/svg" xmlns:xlink="http://www.w3.org/1999/xlink" x="0px" y="0px"
	 viewBox="0 0 255.1 255.1" style="enable-background:new 0 0 255.1 255.1;" xml:space="preserve">
<style type="text/css">
	.st0{fill:#4E5D44;}
</style>
<g>
	<path class="st0" d="M188.3,119.5c-0.2,3.8,0,7.2-0.1,10.7c-0.1,6.4,1.1,12.7,1.5,19.1c0.4,8.7,0.6,17.3,0.7,25.9
		c0,2.5,0.8,4.8,0.3,7.1c-0.6,3-0.6,6-0.4,9c0.1,3.8,0.1,7.7,0.8,11.5c0.3,2.2,0.1,2.5-2,3.1c-0.1-0.1-0.2-0.3-0.2-0.4
		c1-4.9-0.1-9.7,0-14.6c0-1.6-0.1-3,0.1-4.6c0.8-5.9,0-11.7,0.1-17.6c0.1-8-0.2-16-1-24c-0.8-8.7-1.2-17.4-1.2-26.2
		c0-0.2,0-0.6,0-0.8c-0.2-0.8,0-1.8-0.9-2.1c-1-0.4-1.2,0.7-1.8,1.2c-0.9,0.8-2,1.7-3.1,1.2c-1.2-0.6-2-1.7-2.1-3.1
		c0-0.4,0-0.9,0.1-1.3c0.3-2.6,0.9-3.1,3.5-2.9c1.3,0.1,2.2-0.4,2.8-1.6c0.7-1.3,0.6-1.8-0.9-2.5c-1.5-0.7-2.9-1.2-4.4-2
		c-4.4-2.4-7.2-6.2-10.3-10c-2.6-3.3-4-6.9-4.9-10.8c-0.6-2.2-1.2-4.5-2.1-6.6c-0.7-1.6-0.9-3.1-0.9-4.8c-0.1-3.7-1.3-7.2-1.1-10.9
		c-1-0.4-1.5,0.1-2,0.4c-0.7,0.3-1.8,0.3-1.8,1.3c-0.1,1.1,1,1,1.7,1.3c0.3,0.1,0.7,0.3,0.8,0.7c1.1,1.6,0.4,5.3-1.2,6.6
		c-1.2,0.9-2.4,0.8-2.9-0.4c-0.8-1.7-2.1-3-2.6-4.9c-0.3-1.7-0.6-1.8-2.2-1.1c-3.8,1.5-7.8,2.5-11.5,4.5c-3.5,1.8-7.3,2.8-11,3.9
		c-2.7,0.8-5.3,1.8-7.8,2.8c-2,0.8-2.2,1.3-1,2.9c1.5,1.8,1.1,3.7,0.4,5.5c-0.3,1-0.9,1.8-2.1,1.7c-1-0.1-1.7-0.7-1.9-1.7
		c-0.3-1.9-1.6-3-2.9-4.6c-0.1,3.3-0.3,6.1-0.3,9c0,1.2,0.2,2.5,0,3.7c-0.2,1.6,0.3,1.8,1.9,1.8c0.9,0,1.8-0.9,3-0.3
		c-1.1,1.3-2.6,1.5-3.8,2c-0.8,0.3-1.2,0.7-1.1,1.6c0.7,4.1-0.3,8.1-0.2,12.3c0.1,4.4-0.1,8.8-1.5,12.9c-1.5,4.7-2.2,9.7-5.2,14
		c-0.4,0.6-0.7,1.2-1,1.9c-1.7,4-4.5,7.2-7.2,10.5c-1.8,2.1-1.2,4,1.2,5c0.8,0.3,1.5,0.6,2.1-0.3c0.8-1.2,2-1.5,3.4-1
		c1.1,0.4,1.5,1.6,1.6,2.7c0.1,1.5-0.9,2.2-2,2.9c-0.8,0.4-1.6,0.3-2.4,0.4c-2.2,0.2-2.2,0.2-2.5,2.5c-0.1,0.7-0.2,1.2-0.7,1.7
		c-1,1-2.4,1-2.8-0.3c-0.7-1.8-1.7-2.2-3.5-1.9c-0.7,0.1-1.3-0.2-2.1-0.3c-6.9-1.6-11.5-5.9-14.4-12c-2.8-6,0.8-13.2,4.5-15.8
		c5-3.7,10.5-6.4,15.6-9.7c1.2-0.8,2.6-1.6,3.8-2.5c1.5-1,2.9-1.8,4.6-2.2c2.1-0.4,3.8-2,5.8-2.6c0.8-0.2,0.7-1,0.8-1.6
		c0.4-1.9,0.3-3.9,0.3-5.9c0-8.6,0-17,0-25.7c0-0.7,0.1-1.3-0.1-1.9c-0.6-1.6-1-3.1,1.2-3.8c0.1,0,0.1-0.3,0.1-0.4
		c-0.1-0.3-0.3-0.4-0.6-0.4c-0.8-0.1-1.3,0.4-2,0.7c-1.1,0.3-2.1,0.2-2.9-0.7c-0.7-0.9-0.3-1.7,0.2-2.5c1.1-1.6,1.6-3.4,1.2-5.3
		c-0.3-3-0.3-6-1.2-9c-1.7-5.7-0.1-10.5,3.8-15.1c2.9-3.4,6.6-5.9,9.6-9.2c2.4-2.6,4.1-5.3,5.8-8.4c0.7-1.3,0.3-2.1-0.7-3.3
		c-2.6-2.8-5.4-5-8.6-7.1c-2.1-1.5-3.8-3.5-5.5-5.3c-1.5-1.5-2.8-2.9-5.2-3.1c-1.7-0.2-1.8-1.2-0.7-2.4s2.2-2.4,3.5-3.4
		c1.5-1.3,2.7-1.2,3.8,0.3c1.3,2,3.1,3.4,5.2,4.6c2.7,1.7,4.4,4.5,6.7,6.6c0.2,0.2,0.4,0.6,0.7,0.8c1.9,1.9,2.5,1.9,4-0.2
		c2.5-3.3,5.2-6.1,8.1-8.8c1.6-1.3,1.6-1.3,3.1-0.1c3.3,2.4,3.3,2.6,0.9,5.9c-1.5,2-2.9,4.1-4.3,6.1c-1.5,2.1-1.5,2.2,0.4,3.9
		c0.1,0.1,0.1,0.1,0.2,0.2c3.1,3.1,6.2,6.2,10,8.6c3.6,2.4,4.5,6.4,5.2,10.5c0.6,4,1.3,8,2.4,12c0.4,1.7,0.6,1.8,2.5,1.1
		c0.2-0.1,0.4-0.2,0.8-0.3c0.9-0.1,2-0.7,2.4,0.4c0.3,1.3-1,1.1-1.8,1.3c-0.9,0.3-1.9,0.4-2.6,1.2c0.6,0.6,0.9,0.2,1.3,0.1
		c2.1-0.6,4.3,0.8,4.3,3c0,3.9,0.4,7.8,1.1,11.7c0.7,3.4,0.9,6.7,2.4,9.8c1,2.2,1.1,4.7,2,6.9c1.6,3.8,3.6,7.1,6.6,9.9
		c1.3,1.2,2.6,2.7,4,3.8c2.2,1.8,5,2.7,7.6,4c0.3,0.2,0.7,0.2,1,0.3c1.6,0,2-2.1,4-1.6c1.5,0.4,2.5-1.1,3.4-2.2
		c1-1.2,1.5-2.7,1.7-4.1c0.3-2,0.2-2.4-1.7-3c-2.6-1-5.3-1.7-8-1.9c-4.4-0.3-8.5-1.2-12.2-3.6c-0.3-0.2-0.7-0.3-0.9-0.6
		c-0.3-0.4-0.2-0.9,0.4-1c0.8-0.1,1.6,0.1,2.4,0.6c3.1,1.9,6.7,2.5,10.3,2.9c2.7,0.3,5.3,0.9,7.8,1.8c0.4,0.1,0.9,0.2,1.2-0.1
		c0.3-0.4,0.1-0.9-0.1-1.2c-0.8-1.6-1.9-2.8-3.3-3.8c-2.9-1.9-6.1-3.3-9.6-3.9c-2.6-0.4-5.2-1-7.5-2c-1.2-0.6-2.7-0.3-4-0.3
		c-0.7,0-1.5,0-2.1-0.1c-0.4-0.1-1.1-0.3-1-1c0.1-0.6,0.7-0.4,1.1-0.4c2.6-0.3,5.2-0.2,7.6,0.7c2.6,0.9,5.2,1.5,7.7,2
		c3.5,0.8,6.4,2.6,9.2,4.6c1.2,0.8,2.2,2,2.7,3.4c1.5,4,3.9,7.6,5.3,11.6c0.9,2.5,0.3,4.9-0.8,7c-2.1,3.9-4.9,7.2-8.6,9.8
		C190.7,120.3,189.7,121.1,188.3,119.5z M132.3,28.8c-0.6,0.3-0.7,0.8-0.8,1.2c-1.3,3.8-3.3,7.1-6.1,9.9c-1.6,1.6-3,3.4-4.6,4.9
		c-4.8,4.8-6.8,10.9-7.8,17.5c-0.2,1.8-0.3,3.5,0.4,5.3c0.9,2,0.9,2.1,3.1,1.2c1.5-0.6,1.9-0.3,2.5,1.1c0.6,1.3,0.7,2.6-0.4,3.7
		c-0.3,0.3-0.6,0.7-0.1,1.1c0.3,0.3,0.7,0.6,1.1,0.4c0.3-0.1,0.7-0.1,1-0.3c4.5-1.8,9-3.1,13.6-4.8c4.5-1.7,8.8-3.8,13.5-5.2
		c1.5-0.4,2.7-1.2,3.9-2.1c-0.8-0.7-1.6-0.7-2.2-0.9c-2-0.7-2.6-2.4-1-3.6c1.7-1.3,1.5-2.4,0.4-3.7c-0.2-0.2-0.3-0.7-0.3-1
		c-1.1-5.2-2.5-10.3-3.5-15.4c-0.6-2.9-1.8-4.9-4.5-6.2C137.9,30.7,134.8,30.3,132.3,28.8z M107,6.8c2.5,1.3,4.5,2.9,6.3,4.9
		c1.7,1.9,3.3,4.1,5.7,5.2c1.9,0.7,3.5,1.9,4.7,3.5c2,2.5,4.8,4,6.9,6.2c0.4,0.4,1.1,0.7,1.7,0.8c2.9,0.7,5.4,2,8.2,3.1
		c3.4,1.3,5.4,3.6,6.1,7.5c0.8,4.7,1.9,9.2,2.9,13.8c0.3,1.6,0.9,2.9,2.5,3.6c0.3,0.1,0.4,0.8,1,0.6c0.7-0.2,0.6-0.9,0.6-1.3
		c-0.1-0.8-0.1-1.6-0.4-2.4c-1.1-3.3-1.5-6.6-1.9-9.9c-0.7-4.8-2.1-9.5-6.8-12c-2.6-1.3-4.5-3.5-6.3-5.7c-2.4-2.7-5-5-8.8-5.5
		c-1.6-0.2-2.9-1.2-4.3-2.2c-2-1.5-3.6-3.5-5.3-5.3c-2.4-2.4-5.3-4-7.6-6.2c-2-1.9-2-1.9-4,0.1C107.7,5.7,107.2,5.9,107,6.8z
		 M107.4,127c-3,1-5.3,2.6-6.9,4.6c-1.6,2-3.8,3.6-5.5,5.3c-1.1,1.1-2.5,1.7-4,1.9c-1.3,0.2-2.9,0.2-4.1,1.1
		c-3.4,2.4-5.3,5.7-6.6,9.5c-0.2,0.8,0,1.5,0.8,1.7c3,0.8,6,1.8,9.1,0.8c0.9-0.2,1.5-0.6,1.7-1.7c0.2-1.8,1.3-2.4,3-1.8
		c0.9,0.3,1.3,0.2,1.8-0.4c1.2-1.8,2.9-3.1,4-5c2.1-3.6,4.4-7.1,5.8-11.2C107,130.3,107.3,128.9,107.4,127z M109.7,118.3
		c-1.6,0.4-2.8,0.9-4,1.1c-2,0.4-3.7,1.2-5.3,2.5c-2.2,1.9-4.7,3.5-7.3,4.8c-4.3,2-8.2,4.6-11.9,7.6c-4.1,3.4-5.8,8.8-4.4,13.4
		c0.2,0.6,0.3,1.2,1.2,1.1c0.7-1.5,1.2-2.9,2-4.4c2.2-4.3,5.3-7.3,10.4-7.8c0.8-0.1,1.6-0.3,2.2-0.8c2-1.6,3.9-3.3,5.7-5.3
		c2.4-2.7,5-5,8.7-5.8c0.8-0.1,1.5-0.3,1.7-1.1C109.1,122,109.6,120.3,109.7,118.3z M109.5,68.8c0.1,0.9-0.1,1.8,0.8,2.1
		c0.7,0.2,1.3-0.3,1.9-0.9c0.7-0.6,0.2-1.3,0-2c-0.7-1.6-0.9-3.1-0.7-4.7c0.7-6.6,2.5-12.7,6.9-17.8c2.2-2.6,4.5-5.2,6.8-7.6
		c2.4-2.5,4.3-5.3,5.3-8.6c0.3-1.2-0.1-2-1.3-2.5c-1.1-0.4-1.3,0.4-1.8,1.1c-1.9,3.5-4,6.8-6.9,9.5c-2,1.9-4.1,3.7-6.2,5.4
		c-2.6,2.2-4.5,5.2-5.9,8.1c-0.7,1.3-0.9,2.8-0.7,4.1c0.2,2,0.6,4,1,6C109.1,63.8,110.8,66.3,109.5,68.8z M197.3,97.8
		c-0.9,3.6-2.1,6.4-5.2,8.5c-0.4,0.3-0.9,0.7-0.8,1.3c0.4,2.9,0.3,5.9,1.1,8.7c0.8,0.1,1.1-0.3,1.6-0.7c1.9-1.6,3.1-3.6,4.4-5.7
		C200.9,105.9,200.5,102,197.3,97.8z M129.6,17c1,0.8,2.1,1.1,3.3,1.3c0.9,0.2,1.8,0.1,2.4-0.8c1.8-2.7,3.8-5.2,5.3-8
		c0.3-0.6,0.9-1.2,0.1-1.9c-0.7-0.6-1.3-0.9-2.1-0.3c-0.6,0.4-1.3,0.3-1.9,0.9C133.8,10.8,131.4,13.6,129.6,17z M93.5,156.6
		c0.1-0.8-0.4-1.7-0.6-2.6c-0.3-1.2-0.8-1.5-1.8-1.1c-3.1,1-6.1,0.4-9.1-0.2c-0.6-0.1-1.1-0.3-1.5,0.1c-0.3,0.4,0,1,0.2,1.5
		c0.7,1.1,1.7,2.1,2.9,2.7c0.8,0.3,1.7,0.7,2.5,1.1c2.1,1.3,4.1,1.2,6.3,0.4C93.3,158.1,93.7,157.8,93.5,156.6z M189.5,107.5
		c-1.5,3.3-1.6,6.1-1.2,9c0.1,0.7,0.7,1,1.1,1.5c0.7,0.6,1.3,0.2,1.3-0.4C190.7,114.3,190.7,111.1,189.5,107.5z M95.9,155.6
		c-0.3,0.6,0.8,0.9,0.1,1.6c-0.9,1-0.3,1.6,0.9,1.5c0.7-0.1,1.5-0.1,2.1-0.2c0.4-0.1,0.9-0.2,1-0.7c0.1-0.7-0.4-0.8-1-1
		C98.1,156.3,97.2,155.5,95.9,155.6z M149.8,60.1c0.9,0,1.2,0,1.7,0s0.9,0.2,1.2,0.3c0.9,0.1,1.6-0.1,1.8-1.1
		c0.2-0.8-0.7-1.6-1.7-1.6C151.5,57.8,150.7,58.7,149.8,60.1z M112.8,74.5c0.3,0.4,0.6,0.9,1,1.2c0.8,0.8,1.5,0.1,2-0.4
		c0.4-0.3,0.7-0.8,0.4-1.5c-0.4-0.9-1.2-0.4-1.8-0.3C113.8,73.7,113.2,73.9,112.8,74.5z M186.2,114.1c0.2-0.7,0.4-1,0.4-1.5
		c0.1-0.6,0.3-1.5-0.4-1.6c-0.9-0.1-1.5,0.8-1.6,1.5C184.6,113.3,185.3,113.8,186.2,114.1z M182,114.1c0-0.4-0.1-1-0.7-0.9
		c-0.7,0.1-1.1,0.6-1.1,1.2c0,0.4,0.1,1,0.7,1C181.8,115.5,181.9,114.8,182,114.1z M116.3,78.7c-0.1-0.4-0.3-0.7-0.7-0.7
		c-0.7,0-0.9,0.4-1,1c0,0.3,0,0.8,0.4,0.8C115.7,79.8,116.2,79.4,116.3,78.7z M117.2,81.4c-0.3,0.3-0.4,0.4-0.4,0.7
		c-0.3,0.7-0.2,1.2,0.3,1.7c0.1,0,0.2,0,0.2,0c0.6-0.4,0-1,0-1.5C117.4,82.1,117.4,81.9,117.2,81.4z M102.1,156.7
		c0.4-0.1,0.8-0.4,0.9-0.9c0.1-0.3-0.1-0.6-0.4-0.4c-0.4,0.2-0.8,0.4-0.8,1C101.7,156.5,101.9,156.6,102.1,156.7z M155.1,65.2
		c0-0.3,0-0.8-0.3-0.9c-0.3-0.1-0.3,0.2-0.3,0.4c0,0.3,0,0.7,0.4,0.8C154.9,65.6,155,65.4,155.1,65.2z M109.3,74.9
		c-0.1-0.3-0.3-0.4-0.6-0.3c-0.2,0.1-0.6,0.3-0.6,0.4c0,0.4,0.4,0.4,0.8,0.3C109.2,75.4,109.3,75.2,109.3,74.9z M94.4,150.1
		c-0.1-0.1-0.2-0.3-0.4-0.4c-0.3-0.1-0.4,0.1-0.4,0.4s0.1,0.7,0.6,0.7C94.3,150.7,94.4,150.4,94.4,150.1z M159.7,59.2
		c0-0.2,0.7,0,0.4-0.6c0,0-0.3,0-0.4,0c-0.2,0.1-0.4,0.3-0.4,0.6C159.2,59.4,159.4,59.5,159.7,59.2z M157,70.4
		c0-0.2-0.1-0.3-0.3-0.2c-0.2,0-0.2,0.2-0.1,0.3c0,0.1,0.1,0.1,0.2,0.1C156.8,70.7,156.9,70.6,157,70.4z"/>
	<path class="st0" d="M140.9,171.6c1.6-0.3,2.6-1.7,4-2.1c1.1-0.3,1.8-0.1,2.1,0.9c0.4,1.5,0.8,2.9,1.1,4.4c0.2,1-0.3,1.7-1.2,2.2
		c-1.3,0.8-2.6,1.6-4,2.2c-1.7,0.7-2.4,1.8-2.5,3.7c-0.2,3.9,0.1,7.8,0.2,11.7c0.1,2,0.1,3.9,0.3,5.9c0.1,0.8-0.2,1.7,0.8,2.4
		c0.9,0.4,0.4,1.2-0.2,1.7c-0.3,0.2-0.8,0.4-1.2,0.4c-6.3,0.8-11.8,3.9-17.3,6.8c-0.9,0.4-1.9,1-2.9,1.5c-3,1.1-5.5-0.7-5.8-3.8
		c-0.6-5.7-1.1-11.3-1.8-16.9c-0.1-1-0.7-1.5-1.7-1.2c-2,0.6-4,1.1-6,1.3c-0.9,0.1-1.2,0.6-1.1,1.5c0.2,2.9,0,5.9,0.8,8.7
		c0.4,1.9,0.2,3.9,0.1,5.8c0,1.3,0,2.7-0.3,4.1c-1.1-2-0.3-4.3-0.6-6.3c-0.3-2.4-0.3-4.6-0.6-6.9c-0.2-2.2-0.7-4.4-0.8-6.6
		s-0.7-4.5,0-6.6c3.3,0.8,6-0.4,8.8-1.6c1-0.4,1.3-1.9,0.9-3.4c-0.2-0.8-0.8-1.5-1-2.1c-0.6-1.7-0.1-2.2,1.6-2.7
		c2.1-0.6,4.6-0.7,6.3-2c2.6-1.9,5.7-2.5,8.5-3.8s5.5-2.7,8.5-4c0.6-0.2,1.1-0.4,1.8-0.7c2.1-0.7,3.3,0.2,3.3,2.5
		C140.8,169.5,140.2,170.5,140.9,171.6z M138.8,181.9c-0.7-0.2-1.3,0.1-2,0.4c-2.9,1.5-5.9,2.5-8.8,3.7c-3.4,1.3-6.7,2.4-10.1,3.4
		c-1.8,0.6-2.7,1.6-2.9,3.4c-0.2,1.5,0,2.8,0.1,4.3c0.4,3.6,1.1,7.2,1.2,10.8c0.1,1.5,1,2.2,1.3,3.4c0.2,0.6,0.8,0.7,1.3,0.6
		c0.6-0.1,1-0.3,1.5-0.7c5.5-3.1,11-6.4,17.5-7.2c0.8-0.1,0.9-0.6,0.9-1.3c0.1-2.7,0.3-5.3,0.2-8c-0.1-3.8-0.9-7.6-0.1-11.4
		C139.1,182.5,139,182.1,138.8,181.9z M145.4,172c-1.6,0.6-2.9,1-4.3,1.6c-2.8,1.2-5.2,3.3-7.9,4.5c-8.7,3.9-17.8,6.7-27,9.4
		c-0.7,0.2-1.3,0.3-2,0.7s-1,1-0.8,1.8c0.2,0.8,0.9,0.7,1.6,0.7c0.9,0,1.8-0.2,2.7-0.4c2-0.6,4-1,5.9-1.6c8.7-2.6,17.4-5.2,25.4-9.5
		c1.9-1,3.8-2,5.7-2.9c0.9-0.4,1.3-1.1,1.1-2.1C145.8,173.5,145.7,173,145.4,172z M114.7,183.3c2.8-0.4,5.3-1.8,8-2.6
		c4.6-1.5,9-3.3,13.3-5.4c2.7-1.3,3.1-2.2,2.6-5c-0.3-1.7-0.9-1.9-2.6-1.2c-6.1,2.2-11.7,5.5-17.7,7.9c-2.7,1.1-4.4,3-3.7,6.1
		C114.6,183.1,114.7,183.2,114.7,183.3z"/>
	<path class="st0" d="M148,230.1c-4.5,3.1-9.4,5.4-14.2,8c-3.3,1.7-6.3,3.5-9.6,5.3c-4.4,2.6-8.6,5-13.2,7c-2.1,0.9-3.9,2.5-6.2,2.9
		c-2.1,0.4-2.8,0.2-2.9-1.8c-0.4-4.8-0.4-9.6,0.1-14.4c0-0.4,0.1-0.9,0.7-1.3c1.1,1.8,1.8,3.5,0.9,5.5c-1.2,3.1-0.3,6.1,0.6,9.1
		c0.3,1.1,1,1.3,2.4,0.7c2-1.1,4-2.4,6.1-3.4c6-2.8,11.8-6.1,17.5-9.6c2.7-1.7,5.7-2.9,8.6-4.3c2.4-1.1,4.6-2.2,6.7-3.8
		c0.7-0.4,1.3-0.8,2.2-0.6C147.8,229.8,147.9,230,148,230.1z"/>
	<path class="st0" d="M147.6,229.7c0.3-0.9,1.1-1.3,1.9-1.8c4.3-2.2,8.5-4.6,12.8-6.4c3.8-1.7,7.6-3.4,11.5-5
		c2.9-1.2,5.3-3.3,7.9-4.9c1.3-0.9,2.8-1.6,4.5-2.2c-0.1,1-0.9,1.5-1.3,1.8c-3.4,2.4-6.6,4.8-10.3,6.6c-3,1.5-6,2.6-9,3.8
		c-4.1,1.6-7.8,3.9-11.7,5.8c-1.9,0.9-3.7,2.2-5.7,2.9C147.9,230,147.8,229.8,147.6,229.7z"/>
	<path class="st0" d="M132.4,85.2c-1.5-2.6-1.8-5.3-1.5-8c0.2-1.7,2.5-2.2,3.5-0.8c1.6,2.5,2.7,5.2,1.8,8.1
		c-0.9,0.2-0.9-0.4-1.1-0.9c-0.3-0.7,0-1.9-1.2-1.7c-1.1,0.2-0.4,1.3-0.7,2C133,84.3,133.2,84.9,132.4,85.2z M133.8,79.4
		c0-0.3-0.1-0.8-0.6-0.8c-0.3,0-0.4,0.2-0.3,0.6c0,0.2,0.2,0.4,0.3,0.6C133.6,79.9,133.8,79.6,133.8,79.4z"/>
	<path class="st0" d="M126.4,78.9c-0.3,1.5,0.6,2.1,1.3,2.8c0.9,0.7,1.7,1.3,2.1,2.4c0.4,1.1,0.2,2.2-0.9,3
		c-0.9,0.7-1.7,0.9-2.7,0.2c-0.8-0.6-1.1-1.2-0.6-2c0.6-0.8,1-0.1,1.6,0.1c0.2,0.1,0.4,0.1,1,0.2c-0.6-1.7-1-3.1-2.6-4
		c-0.7-0.3-1-1-1-1.8c-0.1-1.3,0.3-2.4,1.3-2.6c0.9-0.2,2.5,0.7,2.8,1.6c0.1,0.1,0.1,0.4,0,0.4c-0.2,0.1-0.4,0.3-0.7,0.2
		C127.6,79.4,127.3,78.7,126.4,78.9z"/>
	<path class="st0" d="M147.9,74.3c-0.1,1-1.1,1-1.7,1.3c-0.7,0.4-1,1-0.8,1.8c0.3,0.9,1,0.9,1.8,0.6c0.7-0.2,1.6-0.7,1.8,0.2
		c0.2,0.8-0.8,1-1.3,1.5c-0.3,0.2-0.8,0.4-1.2,0.6c-1.3,0.6-1.8,0.3-2.1-1c-0.4-2-0.9-4-1-6c-0.1-1.6,1.2-2.8,2.8-2.6
		c0.6,0.1,0.8,0.4,0.4,1c-0.1,0.2-0.4,0.3-0.7,0.4c-0.9,0.3-1.5,0.8-1.1,1.8s1.1,0.6,1.8,0.3C147,73.9,147.4,73.7,147.9,74.3z"/>
	<path class="st0" d="M135.6,75c1.3-1.7,3-2.1,4.6-2.6c0.3-0.1,0.8,0,0.9,0.4c0,0.2-0.1,0.7-0.2,0.7c-2,0.9-1.2,2.5-1,3.9
		c0.3,1.3,0.7,2.6,0.9,3.9c0.1,0.4,0,0.9-0.6,1c-0.6,0.1-0.8-0.3-0.9-0.8c-0.3-1.2-0.7-2.5-0.9-3.7C138.3,76.4,137.9,75.2,135.6,75z
		"/>
	<path class="st0" d="M101.7,178.6c1.1,1.9,1.2,3.9,1,5.9C102.1,182.7,101.5,180.8,101.7,178.6z"/>
	<path class="st0" d="M104.2,215.7c0.6,2.1,0.3,4.1,0,6.1C103.7,219.7,103.8,217.7,104.2,215.7z"/>
	<path class="st0" d="M161.3,77.4c-1.7,0.9-2.7,1.5-3.9,2C158.2,77.4,158.3,77.4,161.3,77.4z"/>
	<path class="st0" d="M154.6,80.1c-0.3,1.1-1.3,1.1-2.1,1.6c-0.3,0.2-0.7,0.1-0.9-0.3c-0.1-0.2,0-0.6,0.2-0.7
		C152.7,80.1,153.4,79.8,154.6,80.1z"/>
	<path class="st0" d="M147.2,82.8c-0.4,1-1.2,1.1-1.8,1.5c-0.3,0.2-0.7,0.2-0.8-0.2c-0.1-0.3,0.1-0.7,0.4-0.8
		C145.8,83,146.3,82.7,147.2,82.8z"/>
	<path class="st0" d="M119.5,93.9c-0.6-0.1-0.7-0.2-0.7-0.6c0.1-0.8,0.9-0.7,1.5-0.9c0.2-0.1,0.6,0.1,0.6,0.3
		C120.7,93.8,119.8,93.7,119.5,93.9z"/>
	<path class="st0" d="M147,68.9c-0.1,0.7-0.6,0.7-1,0.9c-0.3,0.2-0.8,0.2-1-0.1c-0.3-0.6,0.1-0.8,0.6-1
		C146.1,68.6,146.4,68.4,147,68.9z"/>
	<path class="st0" d="M133.7,88.3c-0.4,0.9-1,0.9-1.8,0.6C132.4,88.1,132.9,88,133.7,88.3z"/>
	<path class="st0" d="M99.6,173.2c0.8,0.2,1.1,0.7,0.9,1.7C99.8,174.5,99.9,173.7,99.6,173.2L99.6,173.2z"/>
	<path class="st0" d="M124.7,91.8c0,0.3-0.2,0.4-0.6,0.4c-0.2,0-0.6,0-0.4-0.3c0.1-0.2,0.3-0.3,0.6-0.4
		C124.6,91.5,124.7,91.6,124.7,91.8z"/>
	<path class="st0" d="M99.6,173.2c-0.2-0.3-0.6-0.7,0-1.1h0.2C100.3,172.6,99.9,172.8,99.6,173.2L99.6,173.2z"/>
</g>
<g>
	<path class="st0" d="M69.4,105.9c0.8,0,1.7,0,2.5,0c0.3,0,0.6-0.1,0.7,0.2c0.1,0.3-0.3,0.4-0.5,0.5c-2.4,1.8-5.1,2.9-7.8,4
		c-4.4,1.7-8.9,3.6-13.1,5.8c-5.5,3-10.4,6.9-14.9,11.1c-2.8,2.6-5.3,5.5-8,8.3c-0.4,0.5-0.8,0.9-1.5,1.2c-0.7,0.3-1.4,0.4-1.9-0.3
		c-0.5-0.6-0.3-1.3,0.1-1.8c8.5-11.3,18.8-20.1,32-25.3c3.8-1.5,7.6-2.9,11.7-3.6C68.8,105.9,69.1,105.9,69.4,105.9L69.4,105.9z"/>
	<path class="st0" d="M63.2,99.3c0.1,0,0.3,0,0.4,0.1c4.8,1.3,9.7,2.2,14.1,4.7c0.4,0.2,1,0.6,1.3,0.9c1.3,1,1.5,2.1,0.5,3.4
		c-1.1,1.4-2.4,2.7-3.7,3.9c-1.3,1.1-2.6,2.3-3.9,3.4c-0.5,0.5-1,0.7-1.6,0.7c-1.2,0-1.9-1.4-1.1-2.7c0.7-1.1,1.5-1.9,2.5-2.6
		c1.1-1,2.2-2,3.3-3c0.9-0.9,0.9-0.9-0.3-1.6c-2-1-3.9-1.7-6.1-2.3c-1.9-0.6-3.6-1.1-5.3-2c-0.3-0.2-0.5-0.3-0.9-0.5
		c-0.5-0.3-1.1-0.8-0.8-1.5C61.8,99.4,62.5,99.3,63.2,99.3z"/>
</g>
</svg>
