<?xml version="1.0" encoding="utf-8"?>
<!-- Generator: Adobe Illustrator 22.0.1, SVG Export Plug-In . SVG Version: 6.00 Build 0)  -->
<svg version="1.1" id="Layer_1" xmlns="http://www.w3.org/2000/svg" xmlns:xlink="http://www.w3.org/1999/xlink" x="0px" y="0px"
	 viewBox="0 0 151.9 150.4" style="enable-background:new 0 0 151.9 150.4;" xml:space="preserve">
<style type="text/css">
	.st0{fill:#E4D3B6;}
</style>
<g>
	<path class="st0" d="M22.9,127.4c0.5-5.4,2.7-10.2,5.2-14.8C35.6,98.8,45.2,86.3,55,74c4.6-5.8,4.6-3.7-0.1-9.7
		C47.8,55.2,40.6,46.2,33.4,37c-2-2.5-3.7-5.1-2.5-8.7c1.2-3.8,3.3-5.2,7.2-3.8c3.9,1.4,7.4,3.7,10.6,6.4
		c7.2,5.9,13.5,12.6,19.6,19.6c3.5,4.1,3.5,4,7.1,0.3c11-11.4,22.1-22.8,35.5-31.5c2.8-1.8,5.5-3.6,8.8-4.6c2.6-0.8,5.3-1.2,7.3,1.1
		c2.1,2.5,2.7,5.4,1.3,8.5c-1.7,3.7-4.2,6.8-6.8,9.8c-10.2,12.2-21.5,23.3-33,34.2c-2.6,2.5-2.6,4.1-0.5,6.8
		c10.1,13.5,19.6,27.3,27.5,42.3c2.1,4,4.1,8.1,5.2,12.6c1.1,4.7-0.6,8.8-4.6,10.9c-3.9,2-6.9,1.3-10.4-3
		c-6.5-7.7-11.5-16.5-16.8-25.1C83.9,105,79.1,97,74.3,89.1c-2.5-4.1-2.7-4.1-5.6-0.4c-12.3,15.5-23.4,31.7-35.1,47.7
		c-3.4,4.7-6.3,4.4-8.8-1C23.6,132.8,23.5,130.1,22.9,127.4z"/>
</g>
</svg>
