<?xml version="1.0" encoding="utf-8"?>
<!-- Generator: Adobe Illustrator 22.0.1, SVG Export Plug-In . SVG Version: 6.00 Build 0)  -->
<svg version="1.1" id="Layer_1" xmlns="http://www.w3.org/2000/svg" xmlns:xlink="http://www.w3.org/1999/xlink" x="0px" y="0px"
	 viewBox="0 0 255.1 255.1" style="enable-background:new 0 0 255.1 255.1;" xml:space="preserve">
<style type="text/css">
	.st0{fill:#4E5D44;}
</style>
<g>
	<path class="st0" d="M40.7,120.9c-0.1-0.6-0.2-1-0.4-1.6c-0.7-1.9-2.1-3.3-3.7-4.6c-1-0.8-1.9-1.8-3-2.5c-1.4-0.9-2.9-1.4-4.4-2.2
		c-1.3-0.7-2.6-1.4-3.5-2.6c-0.7-0.8-1.8-1.1-2.7-1.8c-0.8-0.6-1.5-1.1-2.1-1.9c-0.3-0.3-0.4-1-0.2-1.3c0.3-0.4,0.9-0.6,1.3-0.6
		c0.9-0.2,2.1-0.1,2.9-0.4c2-0.7,2.5-1.8,1.2-3.6c-1.8-2.7-4.1-4.9-6.4-7.1c-1.2-1.1-2.5-2.4-3.5-3.7c-0.6-0.8-0.9-1.8-1.5-2.7
		c-0.7-1-1.6-2-2.3-3c-0.4-0.6-0.6-1.1-0.8-1.8c-0.9-2.8-1.9-5.4-2.9-8.2c-0.4-1.4-0.9-2.9-1.3-4.2c-0.3-0.8,0.3-0.9,0.9-0.9
		c2.1-0.1,4.3-0.1,6.6-0.4c1.8-0.2,3.5-0.7,5.3-0.8c0.9,0,2,0.6,3,0.9c0.9,0.3,1.8,0.6,2.7,0.9c2.6,0.9,5.1,1.7,7.6,2.6
		c1.4,0.6,2.9,0.9,4.3,1.5c0.8,0.3,1.4,0.6,1.8,1.3s1.2,1.1,2,1.4c2,0.7,4.1,1.4,6.1,1.8c1.2,0.3,2.7,0,4-0.1c1.9-0.1,4-0.2,5.9-0.2
		c1.5,0,2.9,0.2,4.4,0.4c0.6,0,1.2,0,1.8,0.1c1.7,0.3,2.9-0.4,3.8-1.8c0.6-0.9,1.4-1.2,2.4-1.2c1,0.1,2.1,0.3,3.1,0.5
		c1.5,0.3,2.9,0.7,4.4,0.8c1.6,0.1,2.9,0.6,4.1,1.3c1.8,0.9,3,2.6,4.4,4.1c0.9,1,2.4,1.7,3.5,2.5c0.9,0.6,1.8,0.9,2.5,1.7
		s0.9,1.8,1.3,2.8c0.2,0.6,0.2,1.3,0.3,2c0.2,1.4,0.6,2.9,1.2,4.1c0.1,0.1,0.2,0.3,0.3,0.3c1.3,0.6,2.7,1,4.1,1.6
		c0.9,0.4,2-0.1,2.3-1.2c0.4-1.3,0.8-2.7,2.5-2.9c0.9-1.8,2.9-1.1,4.3-1.5c1.7-0.5,3.2,0,4.8,0.6c3.3,1,5.6,3.4,7.5,6.4
		c0.5,0.7,0.8,1.6,1.3,2.2c0.6,0.6,1.3,0.7,1.9,1.2c2.2,1.6,4.8,2.9,5.7,5.6c0.8,2.3,1.6,4.7,0.9,7.2c-0.5,1.9,0.5,3.1,1.8,4.3
		c1.1,0.9,2.2,2,3.8,2.3c0.9,0.2,1.7,1,2.4,0.9c1.1-0.2,2.1,0.3,3,0.6c0.6,0.2,1.1,0.4,1.4,0.8c0.6,0.7,0.9,1.4,0.4,2.5
		c-1,1.8-1.8,3.9-2.8,5.9c0.6,0.2,0.8,0.3,1,0.3c0.9,0,2,0,2.9,0c2.6,0.2,5.1,0.3,7.7,0.6c0.8,0.1,1.7,0.3,2.5,0.4
		c1.4,0.2,2.9,0.3,4.1,0.5c1,0.2,2.1,0.3,3.1,0.9c0.8,0.6,2,0.6,2.9,0.9c0.9,0.3,1.9,0.6,2.9,1c1.1,0.5,2.1,1,3.2,1.4
		c2.2,0.7,4,2.1,5.3,3.9c0.8,0.9,1.6,2,2,3.1c0.4,0.9,0.4,1.8,0.5,2.9c0,0,0.2,0,0.5,0.1c-0.3,0.4-0.5,0.6-0.6,0.9
		c0.9,0.9,0.9,2,0.9,3.2c0,0.9,0.4,1.8,0.6,2.9c0.3,1.1,0.2,2.2,0,3.3c-0.3,1.1-0.8,1.6-1.6,2.2c-0.9,0.8-1.8,1.8-2.9,2.6
		c-0.9,0.6-1.9,1-2.9,1.5c-0.9,0.5-1.8,0.9-2.8,1.2c-2.5,0.9-4.9,1.6-7.4,2.5c-1.3,0.5-2.6,0.8-3.8,1.3c-1.2,0.6-2.3-0.2-2.5-1.8
		c-0.2-1.6-0.3-3-0.5-4.7c-0.2-1.5-0.1-1.4,1.4-1.7c1.5-0.3,2.9-0.9,4.4-1.5c2.2-0.9,4.3-1.9,6.5-2.9c1.4-0.6,2.8-1.3,4.1-2.1
		c0.5-0.3,0.7-0.9,0.8-1.4c0.1-1.2-0.4-2.2-0.9-3.3c-1.3-2.4-3.3-4-5.3-5.4c-1.6-1-3.4-1.8-5.2-2.6c-3.5-1.6-7.2-2.3-11-2.6
		c-2-0.2-4.1-0.4-6.1-0.5c-1.3-0.1-2.7-0.2-3.9,0.1c-0.6,0.1-1.1,1.1-1.3,1.8c-0.6,1.8-1.1,3.5-1.2,5.3c-0.1,1.8,0.6,3.7,1.8,5.1
		c2.1,2.5,3.5,5.1,3.6,8.4c0,0.9,0.1,2,1.1,2.8c0.5,0.3,0.9,0.6,1.2,0.9c1.4,1.8,2.8,3.8,4.1,5.6c0.8,1.2,1.6,2.5,2.4,3.7
		c0.2,0.3,0.4,0.6,0.5,0.8c0.4,1.3,1.5,2,2.9,1.9c2.1-0.3,4.1,0.1,5.3,2c0.3,0.5,0.9,0.7,1.4,0.8c1,0.1,2.1,0.2,3.2-0.5
		c1.2-0.7,2.8-0.6,4.3-0.6c1.3,0.1,2.8,0,4.1-0.6c1.7-0.8,3.4-1.3,5.3-0.6c1.5,0.6,2.3,0.3,3.1-1c1.6-2.4,3.2-4.8,4.8-7.2
		c0.7-1,1.7-2.1,0.6-3.5c-0.2-0.2,0-0.8,0.2-1c0.5-0.7,1-1.4,1.6-2.1c0.1-0.2,0.3-0.4,0.3-0.6c-0.3-1.1,0.5-1.8,1.3-2.4
		c0.8-0.5,1.7-0.7,2.6-0.9c1.2-0.5,2.5-0.9,3.8-1.4c0.6-0.3,1.2-0.4,1.8-0.6c0.8-0.4,1.4-0.9,2.2-1.1c0.8-0.3,1.8-0.5,2.7-0.2
		c2.2,0.7,4.2,1.3,6.5,0.6c0.9-0.4,2.3-0.1,3.3,0.3c0.7,0.3,1.4,1,1.6,1.7c0.8,2.5,0.7,4.1-1.8,6c-1.3,0.9-1.8,2.3-2.5,3.6
		c-0.8,1.6-1.6,3.1-2.8,4.5c-0.8,0.9-1,1.8-1.4,2.9c-0.9,2.4-1.8,4.8-4.6,5.7c-1.2,0.5-2.3,1-2.9,2.3c-0.3,0.6-1,0.8-1.6,1.1
		c-2.8,1.6-5.4,2.7-8.7,1.8c-0.8-0.2-1.7-0.5-2.5-0.5c-0.7,0-1.3,0.3-1.2,1.1c0.2,1.8,1,3,2.5,4.1c0.7,0.6,1.6,0.9,2.2,1.6
		c1,1.2,0.3,2.9-1.6,3.3c-1.8,0.6-3.7,0.9-5.5,1.4c-1,0.3-2.2,0.2-3.1,0.6c-0.6,0.3-1.2,0.9-1.6,1.5c-0.6,1.4-1,2.9-1.5,4.3
		c-0.2,0.6-0.3,1-0.4,1.5c-0.1,0.6,0,1.3-0.8,1.4c-0.7,0.1-1.7,0.3-2-0.1c-1.4-1.3-2.6-2.9-3.8-4.3s-2.5-3-3.7-4.6
		c-0.3-0.4-0.8-0.5-1.2-0.6c-3-1.2-6-0.7-8.9,0.6c-1.5,0.6-3.2,0.8-4.7,1.5c-1.2,0.7-2.5,1.1-3.8,1.3c-3.1,0.5-5.8-0.7-8.1-2.9
		c-0.6-0.6-1.4-1.3-2.2-1.6c-1.5-0.6-3-0.7-4.6-1.1c-0.9-0.3-1.8-0.7-2.8-1.2c-3.2-1.9-6.8-2.8-10.2-4.3c-0.6-0.4-1.3-0.7-1.9-0.9
		c-0.6-0.3-1-0.5-1.6-0.7c-0.2-0.1-0.4-0.3-0.6-0.5c-0.6-0.8-0.9-1.6-1.5-2.4c-1-1.4-2.5-2.1-4.2-1.9c-1.7,0.2-3-0.5-4.5-1.1
		c-0.7-0.4-1.5-0.6-2-1c-1.2-1.2-3-0.9-4.3-2c-1.4-1.3-3-1.4-4.9-1.4c-3-0.1-6.2-0.6-9.2-0.9c-4.7-0.5-8.9-2.1-13.4-3.3
		c-1.9-0.6-3.6-1.7-5.3-2.8c-0.3-0.2-0.4-0.5-0.6-0.7c-0.4-0.3-0.8-0.6-1.1-0.9c-0.7-0.8-1.4-1.5-1.8-2.4c-0.5-0.9-0.7-1.9-0.9-2.9
		c-0.2-1.3-0.2-2.7-0.3-4.1c-0.1-1.4-0.2-2.8-0.2-4.1c0-2.1,1.1-3.6,2.8-4.9c3.3-2.7,7.1-4.5,11.1-6.1c1-0.5,2.3-0.6,3.3-0.9
		c0.3-0.1,0.5-0.4,0.9-0.7c-2-0.4-3.1-1.7-4.4-2.9c-0.9-0.9-1.8-2-2.9-2.9c-0.5-0.5-0.9-0.8-1.4-1c-2-1.1-3.4-2.9-4.8-4.7
		c-0.6-0.7-1.2-1.1-1.8-1.8c-1.4-1.3-2.9-2.5-4.1-3.9c-0.6-0.6-0.9-1.7-1.1-2.6c-0.5-1.3-0.7-2.8-1.1-4.1c-0.6-1.3-1.4-2.5-2.8-2.9
		c-1.4-0.6-1.9-1.8-2.3-3c-0.4-1.1-0.2-2.6-1.4-3.4c-0.7-0.5-1.4-0.9-2-1.3c-0.5-0.4-1-0.9-1.2-1.4c-0.5-1.6-1.6-2.2-2.9-2.3
		s-2-0.9-2.7-1.9c-0.1-0.2-0.3-0.4-0.5-0.6c-1.4-1.3-2.9-2.7-4.2-4.1c-0.5-0.5-0.7-1.2-0.8-1.8c-0.3-1.5-0.4-3-0.6-4.7
		c-0.1-0.4-0.2-0.8-0.5-1c-0.9-0.9-1.4-2-1.5-3.3c-0.1-1.1-0.2-2.4-0.6-3.3c-0.3-0.6-1.3-1.3-2-1.2c-1.7,0.1-2.9-0.5-3.4-2
		c-0.5-1.2-1.6-1.2-2.6-1.7c-0.5-0.2-1-0.2-1.6-0.2c-1.2,0.1-1.5,0.6-1.5,1.8c-0.1,2.6,0.9,4.9,1.2,7.5c0.2,1.3,0.8,2.8,1.3,4
		c0.3,0.6,0.8,0.9,1.2,1.5c0.8,0.9,1.6,1.8,2.5,2.7c1,1,1.9,2.3,3.2,3c0.7,0.5,1,1.3,1.6,1.9s0.9,1.6,1.6,1.9
		c1.7,0.8,1.8,2.4,2.3,3.8c0.6,2,1.4,4,2.9,5.6c0.6,0.6,1.2,1.2,1.9,1.6c2.3,1.1,3.1,3.2,3.9,5.5c0.4,1.2,0.6,2.6,0.7,3.9
		c0.2,0.8,0.2,1.7,0.4,2.5c0.1,0.4,0.5,0.8,0.7,0.8c1.7,0.5,2.4,1.7,2.9,3.2c0.4,1.6,0.9,3,1.2,4.7c0.3,1.3,1.6,1.2,2.4,1.9
		c0.6,0.6,1.5,0.9,2.1,1.4c1.7,1.4,3,2.9,3.4,5.2c0.2,1.7-0.5,3.8-2.7,4.1c-1.8,0.3-3.8-0.9-4.6-2.7c-0.8-1.6-1.4-3.3-2.9-4.5
		c-0.2-0.1-0.4-0.3-0.6-0.4c-1.7-1.1-2.9-2.4-3.8-3.9c-0.6-1-1.5-1.7-2.6-2c-1.5-0.5-2.6-1.4-3.5-2.5c-1-1.1-1-2.5-0.2-3.7
		C40.3,121.7,40.6,121.3,40.7,120.9c0.8,0.2,0.9,0.6,0.5,1.1c-0.2,0.3-0.2,0.6-0.5,0.7c-0.6,0.6-0.6,0.9-0.1,1.6
		c0.2,0.2,0.1,0.6,0.1,0.9c0.2,0.1,0.6,0.3,0.9,0.6c0.6,0.4,1,0.7,1.6,1c0.8,0.5,1.8,0.7,2.5,1.3c1.1,0.9,2,2.1,3.1,3
		c1.9,1.6,3.8,3.2,5,5.5c0.9,1.6,1.6,3.3,4.1,3c1.4-0.2,1.8-0.1,1.7-1.5c-0.2-1.2-0.7-2.4-1.2-3.5c-0.8-1.7-1.9-3-4-3.2
		c-1-0.1-1.7-0.6-2.3-1.3c-0.6-0.6-1.1-1.1-1.1-2.2c0-1.3-0.4-2.6-0.7-3.9c-0.2-0.9-0.7-1.7-1.8-2.1c-0.7-0.3-1.4-1.2-1.7-2
		c-0.5-1.2-0.6-2.7-0.7-4c-0.2-2.2-0.7-4.1-2.9-5.3c0.4-0.2,0.6-0.3,0.6-0.2c-0.7-0.5-1.6-0.9-2.3-1.6c-1.7-1.3-2.7-3.1-3.4-5.1
		c-0.5-0.9-0.9-1.9-1.2-2.9c-0.4-1.2-0.8-2.3-1.9-3c-0.5-0.3-0.8-0.7-1-1.1c-0.6-0.7-0.9-1.7-1.5-2.2c-1.6-1.1-3.1-2.3-4-4.2
		c-0.2-0.5-0.6-0.8-0.9-1c-1.2-0.8-2.3-1.6-2.9-2.9c-0.5-1-0.7-2.2-0.9-3.3c-0.5-1.5-0.6-3-0.6-4.7c-1.3-0.5-0.6-1.5-0.7-2.3
		c-0.4-1.5,0.5-2.8,0.9-4.1c0.1-0.2,0.5-0.4,0.6-0.4c0.9,0,2,0,2.9,0.3c1.6,0.3,3.2,0.6,3.6,2.6c0.1,0.3,0.7,0.7,1,0.6
		c1.8-0.4,3.6,0.6,4.1,2.1c0.4,1.3,0.6,2.8,0.9,4.1c0.2,0.6,0.4,1.1,0.7,1.6c0.9,0.9,1.1,2.1,1.1,3.3c0,0.8-0.3,1.7,0,2.4
		c0.4,0.9,0.1,2.2,1.3,2.9c0.1,0.1,0.2,0.3,0.3,0.5c0.3,0.4,0.5,0.9,0.8,1.1c0.9,0.9,2.1,1.8,3,2.7c0.4,0.4,0.6,0.9,0.9,1.3
		c0.4,0.3,0.9,0.5,1.4,0.6c1.8,0.4,2.6,2,3.8,3c0.6,0.6,1.2,1.3,1.9,1.5c1.2,0.3,1.3,1.4,1.9,2.1c0.6,0.6,0.5,1.7,0.6,2.7
		c0.1,0-0.1,0.1-0.6,0.3c0.8,0.1,1.3,0.2,1,0.9c0.7,0.3,1.3,0.7,1.8,1.3c0.6,0.6,1.5,0.8,1.9,1.5c0.9,1.6,1.4,3.3,1.8,5.2
		c0.2,1,0.5,2.3,1.1,2.9c1.1,1.3,2.7,2.3,4,3.3c0.6,0.5,1,0.9,1.6,1.3c1.2,1.1,1.7,2.9,3.5,3.7c0.5,0.2,0.9,0.4,1.1,0.6
		c1.3,1.1,2.6,2.4,3.8,3.6c0.3,0.3,0.5,0.6,0.7,1c0.6,0.1,2.8,1.9,2.8,2.7c0.4,0.1,0.7,0.1,0.9,0.3c1.8,1.3,3.5,2.9,4.8,4.8
		c0.6,0.9,1.3,1.8,1.8,2.9c0.1,0.2-0.1,0.6-0.1,0.9c1.1,0.6,1.4,1.8,1.6,3c0,0.3-0.1,0.6,0.1,0.7c1.1,0.6,0.9,1.8,1.4,2.8
		c0.6,1,1.3,2.2,0.5,3.5c-0.6,0.8-1,1.7-1.6,2.5c-0.1,0.1-0.4,0-0.6-0.1c0.3,0.3,0.5,0.6,0.6,0.7c-0.4,0.8-0.8,1.5-1,2.3
		c-0.3,0.6-0.6,1.2-0.6,1.8c0.1,0.8,0.6,1.6,1.6,1.7c2.4,0.1,4.7,0.2,7,0.3c2.1,0.1,4.2,0.2,6.4,0.2c5.7,0,11.4-0.1,17.1-0.3
		c2.9-0.1,5.9-0.3,8.8-0.4c0.6,0,1.1,0,1.8,0c-0.3-2.3-0.3-4.4,0.5-6.6c2.3,1.8,4.3,3.4,6.4,5c1.1,0.9,2.3,1.8,3.4,2.8
		c0.3,0.3,0.2,0.8,0.3,1.1c-0.1,0.1-0.3,0.1-0.4,0.2c-2.1-1.7-4.2-3.3-6.4-5c-0.7-0.6-1.5-0.9-2.2-1.5c-0.2,0.1-0.3,0.2-0.5,0.3
		c0.1,1.2,0.2,2.5,0.4,3.7c0.2,0.9-0.3,1.8-0.9,1.5c-2.2-0.7-4.4,0.1-6.6-0.1c-1.2-0.1-2.5,0.3-3.7,0.3c-3,0.1-6.1,0.2-9.1,0.2
		c-0.4,0-0.7,0.2-1.1,0.2c-2.1-0.1-4.2-0.2-6.4-0.2c-3.9-0.1-7.8-0.1-11.7-0.2c-1.9-0.1-3.9-0.5-5.7-0.8c-3.4-0.6-6.8-1.4-10.2-2.1
		c-0.8-0.2-1.6-0.6-2.4-0.7c-2.3-0.5-4.1-1.6-5.8-3c-1-0.9-2.2-1.9-3.2-2.9c-0.1,0-0.2,0-0.3,0c0.2,1.5,0.1,3,0.6,4.4
		c0.6,1.3,1.4,2.6,2.6,3.4c2.4,1.9,4.9,3.6,7.8,4.6c2.9,0.9,6.1,1.7,9.1,2.4c1.8,0.4,3.6,0.5,5.4,0.6c2.1,0.2,4.1,0.4,6.3,0.5
		c1.9,0,3.9-0.2,5.7-0.4c3.1-0.2,6.4,0.3,9.6,0.1c3.4-0.3,6.8-0.1,10.2-0.1c0.8,0,1.5-0.2,2.3-0.2c2.1-0.2,4.1-0.3,6.4-0.5
		c0,0.5,0,0.7,0.1,1.1c-1.5,0-2.9,0.6-4.4,0.5c-1.8-0.2-3.7,0.1-5.5,0.2c-1.2,0.1-2.5,0.2-3.7,0.2c-1.5,0.1-2.9,0.3-4.4,0.3
		c-2.4,0-4.8-0.2-7.2-0.2c-1.7,0-3.4,0.2-5.1,0.3c-0.1,0.1-0.1,0.2-0.2,0.3c0.9,0.5,1.7,0.9,2.6,1.2c1.4,0.6,2.9,0.6,4.1,1.8
		c1,1,2.6,1.4,4.1,1.4c2.8,0,4.9,0.9,6.5,3.3c0.4,0.6,0.8,1,1.3,1.4c1.7,1.4,3.7,2.1,5.7,2.9c2.8,0.9,5.5,1.9,8,3.5
		c0.9,0.6,2,0.7,2.9,1c2.5,0.7,5.2,0.7,6.8,2.9c0.2,0.3,0.6,0.6,0.8,0.8c1,0.9,2.4,1.1,3.6,1.5c1.1,0.4,2.2,0.4,3.2-0.1
		c2.4-1,4.8-1.8,7.3-2.5c1.3-0.4,2.7-0.9,4-1.4c0.2-0.1,0.4-0.1,0.6-0.1c1.5,0.1,2.9,0.1,4.4,0.3c0.8,0.1,1.7,0.3,2.2,0.7
		c0.9,0.9,1.8,2.1,2.7,3.1c0.8,1,1.4,2.3,2.2,3.2c1,1.1,2.3,2.2,3.4,3.2c0.1-0.1-0.1,0.1-0.3,0.4c1.2-0.5,1.3-1.3,1.1-1.9
		c-0.3-1.1,0-2,0.6-2.9s0.9-1.8,1.3-2.7c0.4-1,0.8-2,2-2.2c1-0.2,2.1-0.2,3.1-0.2c0.6,0,1,0,1.5-0.1c1.7-0.6,3.3-1,4.9-1.5
		c0.1-0.4,0.3-0.7,0.4-0.9c-1.4-0.8-2.9-1.5-3.7-3.1c-0.6-1.3-0.9-2.7-1.2-4.1c-0.2-0.8,0.2-1.6,1-1.6c1.8,0,3.6-0.1,5.3,0.2
		c1.9,0.4,3.6-0.1,5.1-1c2-1.2,3.8-2.9,5.6-4.2c0.6-0.5,1.5-0.7,2.1-1.2c1.4-1.4,2.1-3.2,2.6-5.3c0.2-0.7,0.6-1.8,1-1.9
		c0.9-0.4,1.3-0.9,1.7-1.7c0.6-1.2,1.1-2.6,1.8-3.8c0.4-0.7,0.7-1.7,1.2-1.9c2-0.9,2.8-2.4,2.3-4.6c-0.2-0.9-0.9-2.1-1.8-2.2
		c-1.1-0.1-2.3,0.1-3.3,0.1c-0.7,0-1.5,0.2-2.2,0.1c-1.2-0.1-2.4-0.3-3.6-0.5c-0.3-0.1-0.5-0.5-0.7-0.6c-0.1,0.1-0.2,0.5-0.4,0.5
		c-1.2,0.4-2.5,0.7-3.6,1c-0.9,0.4-2,0.6-2.9,0.9c-1.3,0.5-2.7,1-4,1.5c-0.8,0.3-1.2,0.8-1.5,1.6c-0.3,0.7-0.7,1.4-1,2.1
		s-0.8,1.6-0.6,2.2c0.3,1.3-0.4,2.3-0.9,3.2c-1.7,2.8-3.5,5.3-5.3,8.2c-1,1.7-1.8,1.8-3.5,1.3c-0.9-0.2-1.8-0.5-2.8-0.4
		c-0.7,0-1.4,0.5-2.1,0.7c-0.4,0.1-0.7,0.3-1,0.5c-1.2,0.6-2.6,1.1-3.8,0.6c-1.5-0.6-2.8-0.4-4.1,0.3c-2.2,1.1-4.8,0.6-6.4-1.3
		c-0.1-0.2-0.3-0.4-0.5-0.4c-1.1-0.3-2.3-0.8-3.4-0.7c-1.6,0.1-2.5-0.6-3.3-1.6c-0.2-0.2-0.3-0.6-0.5-0.6c-1.4-0.7-1.3-2.4-2.2-3.4
		c-0.6-0.7-0.4-1.7-1.4-2.4c-1.1-0.8-1.7-2.4-2.4-3.5c-0.4-0.2-0.7-0.3-0.9-0.6s-0.4-0.8-0.7-0.9c-1.2-0.6-1.5-1.7-1.6-2.8
		c-0.1-2.5-0.8-4.6-2.4-6.6c-1.3-1.6-2-3.7-2.9-5.5c-0.1-0.2-0.1-0.5-0.2-0.7c-0.3-2.7,0.6-5.1,1.3-7.6c0.5-1.4,0.8-2.9,0.9-4.2
		c0.2-1.1,0-2.3,0.1-3.5c0.2-2.5,1-4.7,2.5-6.6c0.6-0.7,0.1-1.3-0.5-1.7s-1.2-0.6-1.8-0.7c-2.1-0.4-4.1-0.8-5.9-2
		c-1.3-0.9-2.8-1.8-4.1-2.9c-0.1,0.2-0.2,0.5-0.3,0.7c-0.7,3.6-1.2,7.2-2,10.7c-0.6,2.6-1.1,5-1.8,7.6c-0.7,2.8-1.4,5.4-2.2,8.2
		c-0.5,1.6-0.9,3.1-1.3,4.8c-0.3,0.9-1,1-1.8,0.9c-0.7,0-1.5,0-1.8-0.9c-0.6-1.9-2-3.4-2.6-5.4c-0.4-1.7-1.5-3.2-2.2-4.9
		c-0.9-2.2-1.8-4.3-2.8-6.5c-1.4-3.6-2.9-7.2-4.2-10.8c-0.6-1.8-1-3.7-1.4-5.6c-0.6-3.1-0.6-6.3,1-9.2c1.8-3.4,4.4-5.6,8-6.6
		c1.8-0.6,3.5-0.8,5.3-1.2c-0.4-0.8-0.7-1.8-1-2.8c0,0,0-0.1-0.1-0.1c-1.9-1.2-3.1-3.1-5.5-4.1c-1.8-0.7-3.7-0.9-5.6-0.9
		c-1.8,0.1-3.5,0.5-4.8,2c-0.6,0.9-1.2,1.8-1.8,2.7c-0.6,0.9-1.3,1.4-2.4,0.9c-1.8-0.7-3.7-1.5-5.5-2.3c-0.2-0.1-0.5-0.4-0.5-0.6
		c0.2-0.6-0.1-1.8-0.1-2.8c0.1-1.5-0.5-2.9-1-4.1c-0.2-0.4-0.5-0.7-0.8-0.9c-1-0.6-2.2-1.1-3.2-1.8c-1.5-0.9-2.7-2.3-3.8-3.6
		c-1-1.1-2.5-2.1-3.8-2.9c-0.8-0.6-1.9-0.6-2.9-0.8c-1.8-0.5-3.5-0.5-5.2-1.2c-1.5-0.8-3.3,0.1-4.3,1.5c-0.7,0.9-1.3,2-2.9,1.8
		c-1.2-0.2-2.5-0.2-3.7-0.3c-1.4-0.1-2.9-0.2-4.3-0.2c-1.9-0.1-4-0.4-5.8,0c-2.4,0.5-4.5-0.4-6.7-0.6c-0.4-0.1-0.7-0.5-1-0.5
		c-1.8-0.1-3.1-1.1-4.2-2.3c-0.7-0.8-1.6-1.6-2.3-1.6c-1.7,0.1-2.8-0.9-4.1-1.4c-1.4-0.5-2.7-1.2-4.1-1.6c-2.2-0.6-4.4-0.8-6.4-2
		c-0.8-0.6-1.8-0.7-2.9-0.4c-1.4,0.4-2.7,0.5-3.9,0.6C13,67,11.3,67,9.4,67.1c-0.6,0-0.9,0.1-0.7,0.7c0.4,1.1,0.7,2.3,1,3.4
		c0.7,1.8,1.3,3.8,2.2,5.6c0.8,1.7,1.1,3.5,2.5,5c0.6,0.6,1.2,1.3,1.4,2c0.6,1.6,1.4,2.9,2.6,4c1.8,1.8,3.6,3.2,5.3,5
		c1,1,1.9,2.4,2.9,3.7c0.3,0.5,0.5,0.9,0.6,1.3c0.4,0.9,1,1.8,0.3,2.7c-0.8,0.9-1.9,1.5-2.9,1.9c-0.9,0.4-1.9,0.5-2.9,0.6
		c0.1,0.1,0.2,0.3,0.3,0.4c1.8,1.5,3.7,2.9,5.6,4.5c1.1,0.9,2.5,1.6,4,1.9c1.7,0.5,3.2,1.2,4.5,2.6c1.3,1.3,2.6,2.6,3.8,4
		c1,1.2,1.9,2.7,1.4,4.5C41.4,120.9,41.1,120.9,40.7,120.9z M120.4,147.6c0.7-0.6,1.5-0.9,1.8-1.4c0.4-0.8,0.3-1.8,0.5-2.7
		c1-4.1,2.2-8,3.2-12.1c0.6-1.9,1.1-3.9,1.6-5.9c0.7-3.6,1.4-7.2,1.9-10.8c0.4-2.2,0.8-4.4,0.5-6.7c-0.5-3.8-2.3-6.6-5.7-8.5
		c-0.9-0.6-2-1.2-3-1.4c-3.2-0.6-6.4,0.5-8.9,2c-4.2,2.6-5.7,6.7-5.6,11.5c0.1,2.8,1.3,5.1,2.1,7.6c0.8,2.5,1.8,4.9,2.8,7.4
		c0.5,1.2,0.9,2.5,1.4,3.7c0.5,1,1,2.1,1.5,3.1c0.9,2.1,1.6,4.2,2.5,6.4c0.6,1.3,1.1,2.6,1.8,3.9C119,145,119.7,146.2,120.4,147.6z
		 M85.2,143c-2.7,0.9-5,1.8-7.5,2.8c-3.1,1.1-6.3,2.6-8.8,4.8c-1,0.9-1.9,2-2.9,3c-0.6,0.7-0.1,1.7,0.9,2.7c1.6,1.6,3.6,2.3,5.7,2.9
		c2.2,0.7,4.6,1.2,6.8,1.8c1.8,0.5,3.8,0.8,5.8,1.2c0-0.6,0-0.8,0-1.1c0-1.6-0.4-3,1-4.4c0.9-0.9,1.7-2.1,2.4-3.2
		c0.3-0.4,0.3-1,0.2-1.5c-0.3-0.9-0.9-1.6-1.2-2.4c-0.5-0.9-0.9-2-1.3-2.9C86.1,145.5,85.8,144.3,85.2,143z M140.8,134.2
		c0.4,0,0.7,0,1,0.1c3,0.2,6.2,0.3,9.1,0.5c1.3,0.1,2.8,0.3,4.1,0.6c1.7,0.4,3.2,0.7,4.8,1.3c1.7,0.6,3.1,1.4,4.8,2.2
		c1.3,0.6,2.8,1.1,3.8,2c1.6,1.2,2.9,2.9,4.4,4.3c1.2,1.3,2.1,2.9,1.9,4.8c0.5-0.5,0.9-0.8,1.2-1.1c1.6-1.7,1.9-3.9,1.8-6
		c-0.1-1.8-1.8-2.9-2.8-4.4c-0.6-0.8-1.6-1.2-2.6-1.7c-2.6-1.2-5.1-2.6-7.8-3.3c-3.3-0.9-6.7-1.7-10.2-2.2c-2.5-0.4-5-0.4-7.5-0.6
		c-2.1-0.2-4.2-0.4-6.4-0.5C140.8,131.5,140.8,132.9,140.8,134.2z M157.6,159.5c0.2,1.5,0.5,2.9,0.7,4.4c0.1,0.3,0.5,0.7,0.6,0.7
		c1.8-0.4,3.5-0.7,5.2-1.1c1.1-0.4,2.4-0.8,3.4-1.3c1.7-0.8,3.3-1.6,4.9-2.5c1.1-0.6,2.1-1.3,3.2-1.9c1.6-0.9,3.4-1.5,3.4-3.8
		c0-0.7,0.1-1.6-0.3-2.1c-0.6-0.6-0.5-1,0-1.6c-0.2,0-0.3,0-0.5,0c0-0.9-0.1-1.8-0.1-2.8c-0.3,0.4-0.3,0.8-0.6,1
		c-1.4,1.8-2.7,3.6-4.9,4.5c-1.8,0.7-3.2,1.8-5,2.6c-1.7,0.8-3.3,1.6-5.1,2.2C161.2,158.4,159.4,158.9,157.6,159.5z M65,153.6
		c0-0.9,0.2-1.7,1.2-1.8c0.1,0,0.2-0.1,0.2-0.2c0.4-0.5,0.6-0.9,1-1.4c1.8-1.8,4-3,6.2-4.1c2-0.9,4.1-1.6,6.3-2.4
		c1.3-0.5,2.6-0.9,3.9-1.3c0.2-0.1,0.5-0.2,0.9-0.5c-1.3-1.2-2.6-2.4-3.8-3.4c-0.2-0.1-0.6-0.1-0.8,0c-1.9,0.6-4,1-5.7,1.9
		c-2.9,1.5-5.9,3.1-8.7,5.1C63.2,147.2,62.8,151.3,65,153.6z"/>
	<path class="st0" d="M130.8,169.4c0.3,1.5,0.5,2.8,0.7,4.2c0.6-0.7,1-1.3,1.7-1.8c2-1.9,4.1-3.9,6.2-5.9c0.4-0.4,0.6-0.8,0.9-1.1
		c0.2-0.2,0.4-0.3,0.6-0.4c0.1,0.3,0.4,0.6,0.3,0.7c-0.2,0.5-0.4,0.9-0.6,1.2c-1.7,1.8-3.4,3.4-5.1,5.1c-0.9,0.9-1.6,1.8-2.5,2.8
		c-0.6,0.7-1.3,1.3-2.3,2.2c-0.4-2.5-0.6-4.7-0.9-6.9C130.2,169.4,130.5,169.4,130.8,169.4z"/>
	<path class="st0" d="M113.6,111.6c0.2-2.6,0.6-4.5,1.7-6.3c0.8-1.1,1.8-1.5,2.9-1.6c1.9-0.1,3.5,0.7,4.5,2.6c1.3,2.5,1.9,5,1.4,7.7
		c-0.5,2.3-1.4,4.3-3.6,5.3c-1.2,0.6-2.6,0.2-3.7-0.5C113.7,117.3,113.9,114,113.6,111.6z M123.3,111.3c0.1-1.5-0.6-3.2-1.5-4.8
		c-0.6-0.8-1.4-1.5-2.2-1.8c-2.9-0.6-4,1.1-4.7,3.7c-0.5,1.8-0.5,3.5-0.2,5.3c0.3,1.6,0.8,2.9,1.8,3.9c1.8,1.8,4.1,1.3,5.3-0.6
		C123.1,115.5,123.2,113.6,123.3,111.3z"/>
</g>
<path class="st0" d="M184.8,118.7c1.8-4.8,4.1-9.3,6.1-14c0.3-0.7,0.8-1.3,1.8-1c0.9,0.3,1,1.1,0.7,1.9c-0.7,3-2.1,5.9-3.3,8.8
	c-0.4,0.9-0.8,1.9-1.3,2.8c-0.5,0.8-0.4,1.3,0.6,1.4c0.3,0,0.6,0.2,0.8,0.1c-0.9-1-0.8-1.6,0.4-2.5c8.3-6.1,17.5-10.3,27.5-12.8
	c8.1-1.9,16.2-3.4,24.5-4.2c3.4-0.4,6.7-0.6,10.1-0.6c0.4,0,0.7,0,1.4,0.1c-0.9,0.7-1.8,1.1-2.6,1.4c-4.7,1.6-9.6,2.5-14.5,3.3
	c-7.2,1.2-14.5,2.4-21.5,4.4c-7.2,2-14,5.1-20.5,8.8c-1.3,0.7-2.5,1.6-4,2.1c0.2,0.4,0.6,0.4,0.8,0.5c2.1,0.6,4.2,1.2,6.3,2
	c0.7,0.3,1.6,0.6,2.1,1.2c0.8,1,0.6,1.8-0.6,2.1c-0.6,0.2-1.3,0-1.8-0.2c-3.6-1.2-7.3-2.3-11-3.2c-1-0.3-1.6-1-2.1-1.8
	C184.8,119.2,184.8,119,184.8,118.7z"/>
</svg>
