<?xml version="1.0" encoding="utf-8"?>
<!-- Generator: Adobe Illustrator 22.0.1, SVG Export Plug-In . SVG Version: 6.00 Build 0)  -->
<svg version="1.1" id="Layer_1" xmlns="http://www.w3.org/2000/svg" xmlns:xlink="http://www.w3.org/1999/xlink" x="0px" y="0px"
	 viewBox="0 0 151.9 150.4" style="enable-background:new 0 0 151.9 150.4;" xml:space="preserve">
<style type="text/css">
	.st0{fill:#4E5D44;}
	.st1{fill:#E4D3B6;}
</style>
<g>
	<path class="st0" d="M140.7,61.4c-0.7-1.1-1.5-2.2-2.3-3c-0.4-0.4-0.8-0.8-1.2-1.2c0,0-1.2-1-1.2-1c-6-2.2-10.3-6.9-11.3-13.5
		c-0.5-2.9-0.3-6.1-1.7-8.7c-2.3-4.1-3.7-7.1-7.8-9.7c-3.6-2.2-7.9-3.7-12-4.4c-3.8-0.6-8.1-0.6-10.8-3.3c-1.3-1.2-2-2.8-3-4.2
		c-2.2-3.1-4.8-4.4-8.4-5.1c-3.3-0.6-6.9-2.4-10.3-2.7c-3-0.3-6.3-0.5-9.4-0.5c-1.6,0-3.1,0-4.7,0c-1.5,0-2.9,0.1-4.4,0.2
		c-5.7,0.5-10.4,1.7-12.7,3.6c-0.6,0.4-1.2,0.9-1.8,1.4c-0.6,0.5-1.2,0.9-1.7,1.4c-1.1,0.9-2.3,1.9-3.3,2.8
		c-2.1,1.8-4.1,3.8-5.9,5.8c-3.7,4-6.8,8.1-9.5,12.5c-2.7,4.4-4.9,9-6.7,14.1c-0.5,1.3-0.9,2.5-1.2,3.8c-0.3,1.1-0.6,2.1-0.9,3.2
		C8,53.9,7.8,55,7.6,56c-0.2,1-0.4,2.1-0.6,3.1c-0.7,4.1-1,7.9-1.1,11.5c-0.1,3.5,0.1,6.7,0.4,9.7c0.3,2.9,0.8,5.5,1.3,7.8
		c0.5,2.3,1.1,4.3,1.7,6.1c3-1.1,5.8-2.9,7.6-2.4c1,0.5,1.2,1.3,1,2.2c-0.2,0.9-0.8,1.9-1.3,3.1c-1,2.4-1.7,5.5,1.3,7.7
		c1.6-0.7,3.2-1.4,4.8-2.1c0.3,2.7,0.9,6,2.3,9.9c1.3,3.8,3.5,8.2,6.9,12.7c1,0.8,2.1,1.6,3.2,2.4c1.1,0.8,2.3,1.6,3.5,2.4
		c2.4,1.5,5,3,7.6,4.3c2.6,1.3,5.3,2.4,8,3.4c1.3,0.5,2.7,0.9,4.1,1.3c0.7,0.2,1.4,0.4,2.1,0.6l2,0.5c5.4,1.3,10.7,1.9,15.5,2.1
		c1.2,0,2.3,0,3.5,0l1.7,0c0.6,0,1.1-0.1,1.6-0.1c1-0.1,2.1-0.1,3.1-0.3c1-0.1,2.1-0.2,2.9-0.4c-0.4-1.7-0.5-3.4,0.9-4.1
		c5.9-1.5,12.3-0.9,17.2-1.6c0.6-0.4,1.2-0.9,1.8-1.3c0.3-1.1-0.1-2.8-0.3-3.8c0.9-0.2,1.7-0.3,2.5-0.3c0.7,0,1.4,0,2.1,0.1
		c1.4-1.7,2.5-3.4,3.1-4.9l0.2-0.6c0.1-0.2,0.1-0.4,0.1-0.5l0.1-0.3l0.1-0.3c0.1-0.2,0.1-0.4,0.2-0.6c0.4-0.8,1.1-1.8,1.9-2.8
		c0.9-1.1,1.9-2.2,3.2-3.6c1.4-1.5,2.9-3.1,4.3-4.6c1.6-1.8,3.3-3.7,5.1-5.9l1.3-1.7c0.4-0.6,0.9-1.2,1.3-1.8
		c0.9-1.3,1.7-2.5,2.4-3.8c3-5,5.1-10.5,6.1-15.6c0.1-0.6,0.2-1.3,0.3-1.8c0.1-0.6,0.1-1.2,0.2-1.8c0.1-0.6,0.1-1.2,0.1-1.8l0-0.9
		l0-0.8c0-1.1-0.1-2.1-0.2-3.2l-0.1-0.8l-0.1-0.7l-0.3-1.4C143.5,66.5,142.2,63.8,140.7,61.4z"/>
</g>
<path class="st1" d="M81.6,31.1c-4.6-1-8.9-0.9-13.2-0.6c-4.8,0.3-4.8,0.3-2.9,4.6c3.5,8,3,9.6-4.5,14.2
	c-5.8,3.6-11.9,6.9-15.4,13.2c-0.4,0.7-0.9,0.9-1.8,0.5c-0.6-0.3-1.3-1.3-2-0.5c-0.7,0.7-0.2,1.6,0.1,2.4c0.4,1.1,0.9,2.2,1.9,2.9
	c1.7,1.1,2.4,2.5,2.5,4.7c0.1,2.9,1.4,3.6,4.1,2.3c5.3-2.6,10.5-2.5,15.5,0.9c2.6,1.7,5,3.9,7.9,5c1.8,0.7,2.1,1.7,1.8,3.4
	c-0.6,3.7-2.8,6.5-5.3,9.1c-4.4,4.7-7.8,9.9-8.8,16.4c-0.1,0.9-0.1,2.3-1.7,2c-1.3-0.2-2.7-0.5-2.7-2.3c-0.1-2.8-0.8-5.5-1.9-8.1
	c-2.1-4.6-5.7-7.9-9.3-11.3c-1.8-1.7-2.7-3.5-2.8-5.9c-0.1-2.8-1-5.4-2.4-7.7c-2.3-3.8-5.5-7.2-6.8-11.6c-0.2-0.6-0.6-1.4-1.4-1.3
	c-0.9,0.1-0.8,1-0.9,1.7c-0.7,4.3-1.1,8.6-0.5,13c2.9,24.6,24.6,41.3,49,37.6c19.7-3,35.3-20.8,35.6-40.7c0-0.7,0.5-1.8-0.5-2
	c-0.8-0.2-1.3,0.8-1.7,1.4c-3.2,5.6-6.4,11.2-9.5,16.9c-0.8,1.4-1.2,1.3-2.1,0.3c-1.6-2-2.3-4.4-3-6.8c-0.9-3-1.6-6-2.9-8.9
	c-1.1-2.5-3-3.6-5.6-3.9c-2-0.2-4-0.5-6-1c-1.8-0.4-2.9-1.6-3.4-3.4c-1-3.6-0.4-6.9,2.1-9.8c1.8-2.1,4-3.7,6-5.5
	c0.8-0.7,1.6-1.6,1-2.6c-0.6-1-1.5,0-2.3,0.2c-2.6,0.8-3.6,0-3-2.7c0.4-1.8,0.9-3.5,1.2-5.2c0.5-2.7-0.7-4.4-3.3-5.4
	c-1.2-0.5-3.3,0.3-3.5-1.3C78.9,33.7,80.6,32.7,81.6,31.1 M24.7,73.1c0-27,21.6-48.9,48.4-48.9c26.8,0,48.7,22,48.7,49
	c0,26.9-22.1,49.1-48.7,49C46.5,122.1,24.7,100.1,24.7,73.1"/>
</svg>
