<?xml version="1.0" encoding="utf-8"?>
<!-- Generator: Adobe Illustrator 22.0.1, SVG Export Plug-In . SVG Version: 6.00 Build 0)  -->
<svg version="1.1" id="Layer_1" xmlns="http://www.w3.org/2000/svg" xmlns:xlink="http://www.w3.org/1999/xlink" x="0px" y="0px"
	 viewBox="0 0 126.5 110.4" style="enable-background:new 0 0 126.5 110.4;" xml:space="preserve">
<style type="text/css">
	.st0{fill:#4E5D44;}
</style>
<path class="st0" d="M71.6,13.1c-4.6-1-8.9-0.9-13.2-0.6c-4.8,0.3-4.8,0.3-2.9,4.6c3.5,8,3,9.6-4.5,14.2
	c-5.8,3.6-11.9,6.9-15.4,13.2c-0.4,0.7-0.9,0.9-1.8,0.5c-0.6-0.3-1.3-1.3-2-0.5c-0.7,0.7-0.2,1.6,0.1,2.4c0.4,1.1,0.9,2.2,1.9,2.9
	c1.7,1.1,2.4,2.5,2.5,4.7c0.1,2.9,1.4,3.6,4.1,2.3c5.3-2.6,10.5-2.5,15.5,0.9c2.6,1.7,5,3.9,7.9,5c1.8,0.7,2.1,1.7,1.8,3.4
	c-0.6,3.7-2.8,6.5-5.3,9.1c-4.4,4.7-7.8,9.9-8.8,16.4c-0.1,0.9-0.1,2.3-1.7,2c-1.3-0.2-2.7-0.5-2.7-2.3c-0.1-2.8-0.8-5.5-1.9-8.1
	c-2.1-4.6-5.7-7.9-9.3-11.3c-1.8-1.7-2.7-3.5-2.8-5.9c-0.1-2.8-1-5.4-2.4-7.7c-2.3-3.8-5.5-7.2-6.8-11.6c-0.2-0.6-0.6-1.4-1.4-1.3
	c-0.9,0.1-0.8,1-0.9,1.7c-0.7,4.3-1.1,8.6-0.5,13c2.9,24.6,24.6,41.3,49,37.6c19.7-3,35.3-20.8,35.6-40.7c0-0.7,0.5-1.8-0.5-2
	c-0.8-0.2-1.3,0.8-1.7,1.4c-3.2,5.6-6.4,11.2-9.5,16.9c-0.8,1.4-1.2,1.3-2.1,0.3c-1.6-2-2.3-4.4-3-6.8c-0.9-3-1.6-6-2.9-8.9
	c-1.1-2.5-3-3.6-5.6-3.9c-2-0.2-4-0.5-6-1c-1.8-0.4-2.9-1.6-3.4-3.4c-1-3.6-0.4-6.9,2.1-9.8c1.8-2.1,4-3.7,6-5.5
	c0.8-0.7,1.6-1.6,1-2.6c-0.6-1-1.5,0-2.3,0.2c-2.6,0.8-3.6,0-3-2.7c0.4-1.8,0.9-3.5,1.2-5.2c0.5-2.7-0.7-4.4-3.3-5.4
	c-1.2-0.5-3.3,0.3-3.5-1.3C68.9,15.7,70.6,14.7,71.6,13.1 M14.7,55.1c0-27,21.6-48.9,48.4-48.9c26.8,0,48.7,22,48.7,49
	c0,26.9-22.1,49.1-48.7,49C36.5,104.1,14.7,82.1,14.7,55.1"/>
</svg>
