<?xml version="1.0" encoding="utf-8"?>
<!-- Generator: Adobe Illustrator 22.0.1, SVG Export Plug-In . SVG Version: 6.00 Build 0)  -->
<svg version="1.1" id="Layer_1" xmlns="http://www.w3.org/2000/svg" xmlns:xlink="http://www.w3.org/1999/xlink" x="0px" y="0px"
	 viewBox="0 0 182.5 153.7" style="enable-background:new 0 0 182.5 153.7;" xml:space="preserve">
<style type="text/css">
	.st0{fill:#4E5D44;}
	.st1{fill:#E4D3B6;}
</style>
<g>
	<path class="st0" d="M131.6,141.4c-25.2,4.8-49.4,2.9-71.8-10.2c-6.3-3.7-12.9-6.9-19.7-9.7c-5.7-2.4-13-3.7-18.2-7
		c-8.6-5.5-10.2-17-8.9-26.2c1.3-9.2,4.5-18.4,2.5-27.5C14,54,12.9,50.5,14.5,43.5c1.5-6.8,4.2-13.4,7.7-19.4c1.4-2.3,2.9-4.5,5-6.1
		c1.7-1.3,3.7-2.1,5.7-2.8c12.6-4.4,22.8-3.7,35.7-3.8c13.5,0,27-1.9,40.1-4.9c16.5-3.7,37.6,12.1,44.2,22.9
		c1.9,3.1,0.8,4.2-2.1,5.5c-2.1,1-2.9,3.3-1.8,5.6c0.9,2,2.6,2.3,4.7,2.2c7.5-0.5,12.5,3.8,11.5,11.1c-2.1,16.5-0.2,33.9-10.6,48.7
		c-1.8,2.5-2.7,7.1-1.7,9.9c2.4,7.1-0.8,12-5,17.6C145.3,137.1,139.1,139.9,131.6,141.4z"/>
</g>
<path class="st1" d="M60.7,110.7c-3.2,0-4.4-2.4-4.7-4.3c-0.1-0.6-0.1-1.2-0.2-1.7c0-0.2,0-0.4,0-0.6c0.2-4.2,1-8.2,1.6-12.2
	c0.3-1.5,0.5-3.1,0.8-4.6c0.1-0.4,0.1-0.7,0.1-1.1c0.1-0.7,0.1-1.3,0.3-1.8c1.1-3.3-1-5.3-2-6.3c-3.1-2.9-6.1-6-9.1-8.9
	c-0.8-0.8-1.7-1.7-2.5-2.5c-1.2-1.2-2.3-2.6-3.2-4.1c-0.9-1.5-1.1-3-0.7-4.4c0.4-1.4,1.6-2.5,3.1-3.2c2.8-1.2,5.9-1.7,9.1-2.2
	c0.4-0.1,0.9-0.1,1.3-0.2l2.5-0.4c3.2-0.5,6.4-1,9.7-1.5c1.5-0.2,2.5-0.9,3.2-2.3c2.4-4.7,5.2-10.4,8.1-15.9
	c1.2-2.4,2.5-4.1,4.1-5.3c0.8-0.6,1.8-0.9,2.8-0.9c1,0,2,0.3,2.7,0.9c1.5,1.2,2.9,2.9,4,5.1c2.5,4.8,5.2,10,8.1,15.9
	c0.7,1.5,1.8,2.2,3.4,2.5c5.4,0.8,11.1,1.7,17.5,2.8c1.8,0.3,3.5,0.8,5.1,1.5c1.6,0.7,2.7,1.9,3.1,3.3c0.4,1.4,0.1,3-0.9,4.4
	c-1.5,2.3-3.4,4.3-5.3,6.1c-3.7,3.7-6.8,6.8-10.1,10c-1.3,1.2-1.7,2.6-1.5,4.4c0.3,2.2,0.7,4.4,1.1,6.6c0.8,4.4,1.6,8.9,1.8,13.3
	c0.1,2.2,0,3.9-1,5.4c-0.9,1.3-2.3,2-4,2c-0.5,0-1-0.1-1.4-0.2c-2.8-0.6-5.5-1.9-7.7-3.1c-4.7-2.4-9.4-4.8-12.9-6.7
	c-0.7-0.4-1.4-0.5-2-0.5c-0.7,0-1.3,0.2-2,0.5c-4.9,2.5-10.1,5.1-15.7,7.9c-1.5,0.8-3.3,1.6-5.2,1.9
	C61.6,110.7,61.2,110.7,60.7,110.7z M83.3,39.7c-0.1,0.2-0.2,0.3-0.3,0.5c-0.2,0.4-0.4,0.7-0.6,1.1c-0.6,1.1-1.1,2.2-1.7,3.4
	c-1.4,2.8-2.9,5.6-4.3,8.5c-1.5,3.1-3.9,4.8-7.6,5.3c-3.4,0.5-6.9,1-10.3,1.6c-1.5,0.2-3,0.5-4.4,0.7l-2.1,0.3l0.6,2
	c0.3,1,1,1.5,1.3,1.9c0.1,0.1,0.1,0.1,0.2,0.2l1.7,1.7c2.7,2.7,5.4,5.4,8.2,8.1c2.3,2.2,3.1,4.6,2.7,7.4c-0.2,1.5-0.5,3-0.7,4.4
	c-0.2,1.4-0.4,2.7-0.7,4.1c-0.3,1.7-0.5,3.3-0.8,5l-0.7,4.2l2.1,0.1c0,0,0.1,0,0.1,0c1.1,0,1.9-0.4,2.4-0.7c0.1-0.1,0.2-0.1,0.3-0.2
	c1.9-0.9,3.7-1.9,5.5-2.8c2.6-1.4,5.4-2.9,8.2-4c0.9-0.4,1.8-0.5,2.6-0.5c0.8,0,1.7,0.2,2.6,0.5c3.1,1.3,6.2,2.9,9.1,4.4
	c1.6,0.8,3.2,1.7,4.8,2.5c0.1,0,0.1,0.1,0.2,0.1c0.4,0.2,1,0.6,1.9,0.6c0.3,0,0.7-0.1,1-0.2l1.4-0.5l-0.2-1.5l-0.1-0.5
	c-0.1-0.4-0.1-0.8-0.2-1.1c-0.2-1.4-0.4-2.7-0.7-4.1c-0.6-3.4-1.1-6.8-1.6-10.2c-0.3-2.5,0.2-4.4,1.7-6c1.7-1.9,3.5-3.7,5.3-5.5
	c0.8-0.8,1.7-1.7,2.6-2.6c0.9-0.9,1.8-1.9,2.7-2.9c0.4-0.4,0.8-0.9,1.2-1.3l2-2.2l-2.8-0.8c-0.1,0-0.3-0.1-0.6-0.1
	c-2.1-0.3-4.2-0.7-6.2-1c-3-0.4-6.2-0.9-9.2-1.5c-2.9-0.5-4.8-2.1-6.2-4.8c-1-1.9-1.9-3.7-2.8-5.6c-1.1-2.2-2.2-4.4-3.4-6.7
	c0-0.1-0.1-0.1-0.1-0.2c-0.2-0.5-0.6-1.5-1.8-2l-1.6-0.7L83.3,39.7z"/>
</svg>
