<?xml version="1.0" encoding="utf-8"?>
<!-- Generator: Adobe Illustrator 22.0.1, SVG Export Plug-In . SVG Version: 6.00 Build 0)  -->
<svg version="1.1" id="Layer_1" xmlns="http://www.w3.org/2000/svg" xmlns:xlink="http://www.w3.org/1999/xlink" x="0px" y="0px"
	 viewBox="0 0 180 156.9" style="enable-background:new 0 0 180 156.9;" xml:space="preserve">
<style type="text/css">
	.st0{fill:#4E5D44;}
	.st1{fill:#E4D3B6;}
</style>
<path class="st0" d="M156.8,123.2c-10.5,11.5-23.1,19.4-37.6,24.6c-8.1,2.9-15.5,6.7-24.4,7.1c-12.9,0.4-23.7-3.6-34.9-11
	c-7.9-5.2-14.4-13.3-21.7-17c-19.2-9.4-24.2-27.6-29.4-45.3c-3.6-11.9-3.6-20.4,1.5-31c4.5-9.4,11.4-17.4,19.9-23
	c1.4-0.9,3-1.8,4.6-1.8c1.6,0.1,3.5,1.5,3.5,3.2c8.9-4.5,17.8-9.1,26.7-13.6c4.3-2.2,9.7-4.3,13.8-1.5c3.5,2.5,4.5,7.5,4.9,11.9
	c0.6,5.2,24.6-10.3,26.8-13c2.8-3.5,5.7-2.8,9-1.1c25.3,13.5,43.1,34,50.7,63.4C175.2,94.2,168.8,110,156.8,123.2z"/>
<g>
	<path class="st1" d="M48.9,105.1c12.4,1.8,24.8,0.5,37.2,0.9c1.7,0.1,2.4,0.8,2.3,2.4c0,5.8,0,11.7,0,17.5c0,1.7-0.7,2.5-2.5,2.5
		c-5.8,0-11.7,0.1-17.5-0.1c-4.3-0.1-7.7-2-9.9-5.8c-3-5.3-6.1-10.6-9.1-15.8C49.2,106.2,48.7,105.7,48.9,105.1z"/>
	<path class="st1" d="M87.1,35.6c3.3,0,6.6,0,9.8,0c0.4,0,1-0.1,1.2,0.4c0.3,0.5-0.2,0.8-0.5,1.1c-3.4,3.1-5.3,7.1-7.6,10.9
		c-3.7,6.4-7.5,12.8-11.1,19.2c-0.9,1.6-1.8,1.9-3.4,0.9c-5-2.9-10-5.8-15-8.6c-1.6-0.9-2-1.8-1-3.4c2.7-4.4,5.3-8.9,7.8-13.4
		c2.8-5,6.9-7.7,12.9-7.2C82.5,35.7,84.8,35.6,87.1,35.6C87.1,35.6,87.1,35.6,87.1,35.6z"/>
	<path class="st1" d="M133.8,113.4c-4.2-11.7-11.7-21.6-17.4-32.5c-1.2-2.3-1.2-2.5,1.1-3.8c4.8-2.7,9.6-5.5,14.3-8.2
		c2.2-1.3,2.5-1.2,3.8,1.1c2.6,4.5,5.2,9,7.8,13.4c2.7,4.7,2.8,9.2,0,13.9c-2.9,4.8-5.6,9.6-8.3,14.5
		C134.7,112.4,134.5,113.2,133.8,113.4z"/>
	<path class="st1" d="M112.2,124.6c-0.8-0.7-1.6-0.5-2.3-0.5c-3.9,0-7.9,0-11.8,0c-0.7,0-1.4,0-2.1-0.2c-0.8-0.1-1.3-0.6-1.3-1.5
		c0-0.9,0.5-1.5,1.4-1.7c0.7-0.1,1.4-0.2,2.1-0.2c3.5,0,6.9,0,10.4,0c0.8,0,1.7,0.2,2.5-0.6c-0.5-0.9-1.4-0.6-2.1-0.6
		c-4.1,0-8.1,0-12.2,0c-0.7,0-1.3,0-2,0c-1.2-0.1-2.6-0.2-2.5-1.8c0-1.6,1.4-1.6,2.6-1.7c0.7,0,1.3,0,2,0c3.9,0,7.7,0,11.6,0
		c0.7,0,1.6,0.1,2.3-0.5c-0.6-0.9-1.5-0.7-2.2-0.7c-3.2,0-6.4,0-9.6,0c-0.7,0-1.4,0-2.2-0.1c-1.1-0.1-2.2-0.4-2.1-1.8
		c0-1.3,1.1-1.5,2.1-1.6c0.7-0.1,1.4,0,2.2,0c5.2,0,10.5,0,15.7,0c0.8,0,1.7,0.2,2.4-0.6c-0.7-0.9-1.6-0.6-2.4-0.6
		c-1.6-0.1-3.3,0.2-4.9-0.2c-0.9-0.2-1.6-0.7-1.6-1.8c0-0.9,0.7-1.4,1.5-1.6c0.8-0.2,1.6-0.3,2.3-0.3c4,0,8,0,12-0.1
		c0.7,0,1.5,0,1.9,0.7c1.9,3.6,4.2,7.1,3.9,11.5c-0.5,6.1-5,10.5-11.1,10.6c-4.5,0.1-9,0-13.6,0c-0.2,0-0.4,0-0.6,0
		c-1.3-0.1-3,0-3-1.8c0-1.8,1.8-1.6,3-1.7c1.8-0.1,3.7,0,5.5,0C110.8,125.2,111.6,125.4,112.2,124.6z"/>
	<path class="st1" d="M118.8,48.6c-0.4,1,0.3,1.6,0.6,2.2c2,3.6,4.1,7.1,6.2,10.7c0.2,0.4,0.5,0.8,0.6,1.2c0.4,0.9,0.5,1.8-0.5,2.4
		c-1,0.6-1.8,0.1-2.4-0.7c-1.3-2-2.4-4-3.6-6.1c-1-1.7-2-3.4-3-5.1c-0.3-0.6-0.6-1.7-1.5-1.2c-0.7,0.4,0.1,1.2,0.4,1.7
		c2,3.5,4,6.9,6,10.4c0.5,0.8,1,1.7,1.4,2.6c0.5,1,0.7,2.1-0.4,2.8c-1.2,0.7-2-0.2-2.6-1.1c-0.6-0.9-1.1-1.8-1.6-2.7
		c-1.9-3.2-3.7-6.5-5.6-9.7c-0.3-0.5-0.6-0.9-0.9-1.3c-0.2-0.2-0.5-0.4-0.7-0.2c-0.1,0.1-0.2,0.5-0.2,0.7c0.2,0.5,0.5,1.1,0.8,1.6
		c1.8,3.2,3.7,6.3,5.5,9.5c0.3,0.5,0.5,0.9,0.7,1.4c0.4,0.9,0.1,1.7-0.7,2.2c-0.8,0.5-1.5,0.1-2.1-0.5c-0.4-0.5-0.8-1.1-1.1-1.6
		c-2.6-4.5-5.2-8.9-7.8-13.4c-0.3-0.6-0.6-1.2-1-1.7c-0.3-0.4-0.6-1.3-1.2-0.9c-0.6,0.4,0,1.1,0.3,1.6c0.7,1.3,1.5,2.6,2.2,3.9
		c0.6,1.1,1.4,2.4-0.1,3.3c-1.6,0.9-2.3-0.5-3-1.7c-1.6-2.8-3.2-5.6-4.8-8.3c-0.3-0.5-0.5-0.9-0.8-1.3c-2-3-2-3,0-6.1
		c2.2-3.3,4.5-6.5,8.7-7.6c4.5-1.2,9.3,0.4,11.7,4.4c2.7,4.4,5.2,8.9,7.8,13.4c0.1,0.2,0.2,0.5,0.3,0.7c0.3,1,0.5,2-0.6,2.6
		c-1,0.5-1.8-0.2-2.3-1c-1.1-1.8-2.2-3.7-3.3-5.6C120,49.6,119.8,48.9,118.8,48.6z"/>
	<path class="st1" d="M50.1,81c1.1-0.2,1.3-1,1.6-1.7c2.1-3.5,4.2-7.1,6.3-10.7c0.2-0.4,0.5-0.8,0.7-1.2c0.6-0.8,1.3-1.3,2.3-0.8
		c1,0.5,1,1.5,0.6,2.4c-1.1,2.1-2.3,4.1-3.5,6.2c-1,1.7-2,3.4-2.9,5.1c-0.3,0.6-1.2,1.3-0.3,1.8c0.7,0.4,1-0.6,1.3-1.2
		c2-3.4,4-6.9,6-10.4c0.5-0.8,1-1.7,1.5-2.5c0.6-1,1.4-1.7,2.6-1c1.2,0.7,0.8,1.8,0.3,2.8c-0.5,0.9-1,1.8-1.5,2.7
		c-1.9,3.2-3.8,6.4-5.7,9.7c-0.3,0.5-0.5,0.9-0.7,1.4c-0.1,0.2-0.1,0.6,0.2,0.7c0.2,0.1,0.5,0,0.7-0.2c0.4-0.4,0.7-0.9,1-1.5
		c1.9-3.2,3.7-6.3,5.5-9.5c0.3-0.5,0.5-0.9,0.9-1.3c0.6-0.8,1.4-1,2.3-0.4c0.8,0.5,0.9,1.3,0.6,2.1c-0.2,0.6-0.5,1.2-0.9,1.8
		c-2.6,4.5-5.2,8.9-7.8,13.4c-0.3,0.6-0.7,1.1-1,1.7c-0.2,0.5-0.9,1.2-0.2,1.5c0.7,0.3,0.9-0.5,1.2-1c0.8-1.3,1.5-2.6,2.3-3.9
		c0.7-1.1,1.4-2.4,2.9-1.5c1.6,0.9,0.7,2.3,0,3.4c-1.6,2.8-3.3,5.5-4.9,8.3c-0.3,0.5-0.5,0.9-0.8,1.4c-1.6,3.2-1.6,3.2-5.3,3
		c-4-0.3-7.8-0.7-10.8-3.8c-3.3-3.3-4.2-8.2-2-12.3c2.5-4.5,5.2-8.9,7.8-13.4c0.1-0.2,0.3-0.4,0.5-0.6c0.7-0.8,1.5-1.4,2.5-0.7
		c1,0.6,0.7,1.6,0.3,2.5c-1,1.9-2.1,3.7-3.2,5.6C50.4,79.5,49.8,80,50.1,81z"/>
</g>
</svg>
