<?xml version="1.0" encoding="utf-8"?>
<!-- Generator: Adobe Illustrator 22.0.1, SVG Export Plug-In . SVG Version: 6.00 Build 0)  -->
<svg version="1.1" id="Layer_1" xmlns="http://www.w3.org/2000/svg" xmlns:xlink="http://www.w3.org/1999/xlink" x="0px" y="0px"
	 viewBox="0 0 255.1 255.1" style="enable-background:new 0 0 255.1 255.1;" xml:space="preserve">
<style type="text/css">
	.st0{fill:#4E5D44;}
</style>
<g>
	<path class="st0" d="M176.5,142.6c-0.4,0-1.1,0-1.2,0.2c-0.4,0.5,0.2,0.7,0.5,0.8c0.4,0.2,0.8,0.2,1.2,0.2
		c5.4-0.5,10.7,0.4,16.1,0.9c3.3,0.4,6.7,0.2,10.2,0.2c1.3,0,2.8-0.4,4.1,0.2c0.7,0.2,1.6,0.2,2-0.5s0-1.2-0.4-1.7
		c-1.5-2.5-2.9-4.9-4.5-7.3c-4.3-7-7.5-14.4-12.2-21.2c-1.9-2.6-3.7-5.4-5.3-8.3c-2-3.7-1.9-3.7,1.7-5.8c4-2.5,7.7-5.3,11.6-7.7
		c4.7-2.9,9.7-5.2,14.3-8.2c1.1-0.8,1.7-0.2,2.4,0.5c8.8,12,15.7,25,20.8,39c0.5,1.5,1.3,2.9,1.7,4.3c2.6,8.5,0,15.7-4.7,22.7
		c-4.1,6-8.3,11.8-13,17.2c-1.3,1.6-2.4,3.4-3.6,5.3c-3.7,6-8.8,9.7-15.7,11.4c-7.5,1.7-15.1,1.9-22.8,1.7c-2.5,0-5,0-7.5,0.2
		c-2,0.2-2.5,0.7-2.6,2.8c-0.2,2.1-0.2,4.3,0,6.4c0.2,1.9-0.7,3.6-0.8,5.3c0,0.5-0.4,1.1-0.9,1.2c-0.8,0.2-1.1-0.5-1.3-1.1
		c-2.4-7.1-6.5-13.5-9.8-20.2c-3.3-6.5-6.9-12.9-11-18.9c-1.6-2.5-1.5-3.2,0.5-5.6c4.9-6.1,10.6-11.5,15.6-17.5
		c2.5-2.9,5.3-5.4,8.1-8.1c1.1-1.1,2.4-2.1,3-3.6c0.2-0.5,0.9-1.1,1.6-0.8c0.8,0.4,1.6,1.2,1.3,2c-1.5,3.3-0.4,6.9-1.1,10.3
		C174.5,140.1,174.7,141.7,176.5,142.6z M166.4,193.7c0.2,0,0.5-0.2,0.8-0.2c0-1.5,0-2.9,0-4.3c0-1.3,0.4-2.8,0.8-4
		c0.4-1.1,1.2-1.7,2.4-1.7c2.9,0.2,5.7-0.7,8.5-0.7c5.8,0.2,11.6,0.2,17.4-0.5c5.6-0.7,10.9-2,15.2-5.7c5.2-4.3,7.1-8.8,5-15.7
		c-0.2-0.8-0.7-1.6-0.8-2.4c-0.7-3.3-2-6.2-3.3-9.2c-1.2-2.5-1.3-2.4-4.1-2.1c-3.8,0.4-7.5,0.9-11.4,0.7c-6.9-0.4-13.7-1.7-20.5-1.9
		c-3.6,0-4.3-0.9-4.7-4.5c-0.2-1.2,0.2-2.5,0.2-3.8c0.2-1.6,0.4-3,0.2-5c-4.1,4-7.5,7.8-11.4,11.4c-2.6,2.5-4.9,5.6-7.4,8.2
		c-1.6,1.7-3.2,3.4-4.7,5.2c-0.9,0.9-1.1,1.9-0.2,3c3,5,6.4,9.9,8.8,15.4c2,4.1,4.3,7.9,6.4,12C164.4,190,165.5,191.9,166.4,193.7z
		 M220.4,162.5c1.5-1.7,3.4-1.2,4.5-2.9c2-3.4,4.3-6.6,7-9.7c6-7.1,8.1-15.1,4.1-24.1c-3.2-7.4-6.4-15-10.1-22.3
		c-2.5-4.9-5.6-9.5-8.6-14c-1.6-2.4-2-2.4-4.7-0.9c-4.1,2.4-8.3,4.7-12.3,7.1c-3.3,2.1-6.9,3.8-9.7,6.6c-1.5,1.5-1.6,2.4-0.7,4.1
		c0.2,0.5,0.8,0.9,1.2,1.5c2.4,3.2,5.2,6.2,7,9.8c3.8,7.1,8.2,14,12.2,21.2c1.6,2.8,3.3,5.4,4.5,8.3
		C217,152,219.9,156.5,220.4,162.5z"/>
	<path class="st0" d="M86.2,141.1c1.6,0.5,3,0.4,4.3,0.2c7-0.9,14.2-0.2,21.2-0.8c7.4-0.7,15.1,0.2,22.5-1.5c1.3-0.2,2,0.2,2,1.6
		c-0.5,12,0.7,23.8,0.5,35.9c0,0.5,0,1.1,0,1.6c-0.2,2-0.8,2.6-2.8,2.8c-1.6,0-3.2-0.4-4.7-0.4c-6,0-11.8-0.5-17.8-0.8
		c-3.2-0.2-6.2-1.2-9.4-1.2c-4.1-0.2-8.2,0-12.3-0.5c-3.7-0.5-7.3-0.9-10.9-2.2c-2.9-1.1-4.5-3.4-6.1-5.8
		c-5.8-9-10.3-18.7-14.7-28.5c-0.9-2-1.6-4-2.2-6c-0.8-2.4-0.8-4.7-0.8-7.1c0-5.7,0.5-11.4,2.8-16.8c0.4-1.1,0.9-2.1,1.6-3
		c3.4-5.4,5.7-11.6,9.2-16.9c1.6-2.4,1.2-4-1.3-5.6c-2.8-1.7-5.7-3.2-8.3-5.2c-0.7-0.5-1.5-0.8-1.7-2c1.9-0.7,3.7-0.7,5.6-0.7
		c3.7-0.2,7.4-0.2,11,0.5c3.8,0.8,7.7,0.4,11.4,0.2c5.2-0.5,10.3,0,15.5-0.8c0.2,0,0.7,0,0.9,0c3.7-0.5,4.3-0.2,4.3,3.4
		c0.2,2.8,1.2,5,2,7.5c2.4,8.1,5,15.9,7.5,23.8c0.4,1.5,0.8,2.8,1.3,4.3c0.2,0.9,0.5,1.9-0.4,2.6c-0.9,0.7-1.6,0-2.2-0.5
		c-3.3-2.2-6.7-4.3-10.1-6.5c-2.1-1.3-2.8-1.2-4,0.9c-4.7,8.8-9.2,17.5-13.7,26.1C86.4,140.1,86.3,140.5,86.2,141.1z M60.5,139.3
		c0.4,1.9,1.1,3.4,1.7,5c2.4,5,5.3,9.7,7.3,14.8c1.2,3.3,3.3,6.2,5,9.2c1.6,2.5,4,4.3,6.9,5.3c3.3,1.1,6.9,1.5,10.3,1.7
		c8.5,0.8,16.8,1.5,25.3,2.4c4.3,0.5,8.8,0.5,13.3,0.7c2.5,0.2,2.6-0.2,2.9-2.6c0.2-1.9,0.4-3.6,0.4-5.4c0.4-8.2-0.2-16.5,0-24.7
		c0-2.8-0.4-3-3.2-3.2c-2.6,0-5.3-0.2-7.9,0.5c-2.1,0.5-4.3-0.5-6.4-0.2c-6.9,0.8-13.9,0.8-20.8,1.1c-1.9,0-3.6,0.2-5.3,0.5
		c-5.2,0.5-10.5,1.3-15.6-0.4C69.8,142.2,65.3,140.9,60.5,139.3z M64.3,81c2.9,1.7,5.3,2.9,7.5,4.3c1.5,0.9,1.7,2.8,0.4,3.3
		c-1.3,0.5-1.1,0.8-0.4,1.6c0.5,0.7,0,1.3-0.4,2c-1.3,2.2-2.8,4.5-4,6.9c-2.2,4.3-3.8,9.2-6.5,13.3c-3.8,6.2-3.6,12.6-2.6,19.3
		c0.2,1.6,1.1,2.4,2.2,3.2c3.6,2.6,7.7,4,12,5.2c2.4,0.7,4.9,1.5,7.4,1.5c2.5,0,2.8-0.2,3.8-2.5c1.2-2.6,2.5-5.2,3.6-7.8
		c2-4.9,5.6-9,7.4-14c1.3-3.3,3.4-6,5.2-9c0.9-1.6,1.9-1.7,3-0.5c2.4,2.1,5.2,3.6,7.7,5.4c0.5,0.4,0.9,0.9,1.7,0.4
		c0.2-1.2-0.4-2.2-0.7-3.3c-1.1-3.8-2.1-7.8-3.3-11.6c-1.7-5.3-3.2-10.7-4.7-16.1c-0.2-0.8-0.5-1.3-1.5-1.3
		c-1.9-0.2-3.8-0.2-5.7-0.2C91.3,81,86.1,81,80.8,81.3C75.4,81.7,70.3,80.6,64.3,81z"/>
	<path class="st0" d="M118.1,18.4c-0.2,1.1-0.5,2-1.3,2.8c-5.7,5.7-10.2,12.3-14.4,19.2c-3.2,5-6.1,10.2-8.8,15.4
		c-1.5,2.9-1.6,3.3,1.1,4.9c8.8,5.2,17.2,10.7,26.2,15.4c2.1-2.2,2.6-5.2,3.7-7.7c2.4-6,5.2-11.8,8.5-17.4c4.3-7,8.6-14,13.3-20.8
		c2.4-3.4,5.2-6.6,8.3-9.4c3-2.6,6.9-3.7,10.5-5.4c-0.8-0.8-1.9-0.7-2.6-0.7c-8.8-0.4-17.8,0-26.6,1.1c-2.8,0.4-5.7,0.5-8.5,0.9
		c-2.2,0.2-4.5,0.5-6.2,2c-1.5,1.2-1.7-0.2-2.5-0.8c1.6-2.1,4.3-2.4,6.5-2.8c5.7-1.2,11.5-1.2,17.4-1.6c3.7-0.2,7.4-0.2,11.1-0.9
		c0.9-0.2,1.9-0.2,2.8,0c4.3,0.8,8.5,0.8,12.7,0.7c1.9-0.2,3.2,0.5,4.7,1.7c5.2,3.8,8.8,8.8,12.2,14c2.1,3.3,3.6,7,5.8,10.1
		c2.1,2.8,3.6,6,5.7,8.8c1.5,1.9,1.9,2.1,3.6,0.8c3.2-2.1,6.9-3.2,10.2-5.2c1.3-0.8,2.6-1.7,4.1-2.5c0.7-0.4,1.5-0.7,2,0
		c0.7,0.7,0.2,1.3-0.2,2c-2.6,3.8-5.4,7.7-7.4,11.8c-4.7,9.8-10.7,18.9-15.1,29c-0.5,1.2-1.2,1.7-2.6,1.6c-2.6-0.2-5.2-0.9-7.8-1.3
		c-7.9-1.5-15.9-2.4-23.8-3.3c-2.4-0.2-4.7-0.8-7.1-0.2c-1.5,0.4-3.4-0.5-5.3-0.8c-1.1-0.2-1.3-1.2-0.4-1.9c0.9-0.7,2-1.2,2.9-1.9
		c4.1-2.4,7.7-5.6,12-7.5c1.6-0.7,1.6-1.3,0.9-2.6c-2.9-5.8-5.8-11.8-8.8-17.5c-2.1-3.8-4.3-7.7-6.4-11.6c-0.4-0.7-0.7-1.6-1.9-2
		c-1.3,2-2.6,3.8-4,6c-6.7,10.3-13.1,21-17.4,32.7c-0.5,1.3-1.2,2.6-1.9,4.1c-0.5,1.2-1.3,1.6-2.5,1.1c-1.9-0.8-3.7-1.3-5.6-2.4
		c-7.9-4.6-15.7-9.3-23.3-14.1c-1.2-0.8-2.5-1.5-3.3-2.8c2.4-1.7,3.2-4.5,4.3-6.9c3.4-7.1,8.2-13.5,12.6-20.1c0.9-1.5,2-2.8,2.9-4.1
		c1.5-2.2,2.2-5,5.3-6c0.4-0.2,0.7-0.5,0.8-0.9C115.1,20.1,116.5,19.2,118.1,18.4z M211.6,46.6c-2.1-0.2-3.3,0.5-4.7,1.3
		c-2.4,1.5-4.7,2.8-7.1,4.1c-0.9,0.5-1.9,0.8-2.4-0.4c-1.5-3.3-3.8-6.1-5.8-9.2c-3.8-6-7.8-11.8-11.8-17.6c-1.3-2-3.3-3.2-4.9-4.9
		c-0.7-0.8-1.3,0.4-2,0.2c-0.2-0.2-0.5-0.2-0.8-0.5c-1.9-2.1-4.1-2-6.5-1.3c-3.7,0.9-6.7,2.9-9.8,5c-3.2,2.4-4.7,5.8-7.4,8.6
		c-0.5,0.5-0.8,1.2,0.2,1.7c1.2,0.8,1.7,2.1,2.2,3.3c1.9,3.7,3.6,7.4,5.8,10.9c3.2,5.2,6,10.5,8.5,15.9c2.2,4.7,2.1,4.7-2.2,7.5
		c-2.2,1.5-4.7,2.8-7.1,4.3c-0.5,0.2-1.3,0.5-1.2,1.3c0.2,0.9,1.1,0.9,1.7,0.9c2.2,0.2,4.3,0.5,6.6,0.8c8.5,0.8,16.9,2.5,25.3,3.8
		c2.5,0.4,3.3,0.2,4.7-2.2c1.7-3.2,3.4-6.4,5.2-9.5c3.2-6.1,7-11.8,10.2-17.8C209.2,50.8,210.4,48.9,211.6,46.6z"/>
</g>
<image style="overflow:visible;enable-background:new    ;" width="629" height="667" xlink:href="269BB8F0.jpeg"  transform="matrix(0.2389 0 0 0.2389 -8208.9414 -7980.8696)">
</image>
<g>
	<path class="st0" d="M49,190.4c0.8-0.1,1.6-0.3,2.4-0.4c0.2-0.1,0.5-0.2,0.7,0.1c0.2,0.3-0.2,0.5-0.4,0.7c-2,2.1-4.5,3.7-6.9,5.3
		c-4.1,2.5-8.1,5.1-11.8,8.1c-4.8,4-8.9,8.6-12.7,13.6c-2.3,3.1-4.2,6.4-6.3,9.6c-0.3,0.5-0.7,1.1-1.2,1.4c-0.6,0.5-1.3,0.6-2,0.1
		c-0.6-0.5-0.6-1.2-0.2-1.9c6.3-12.6,14.8-23.1,26.8-30.7c3.5-2.2,6.9-4.2,10.7-5.6C48.4,190.5,48.8,190.4,49,190.4L49,190.4z"/>
	<path class="st0" d="M41.8,185c0.2,0,0.3-0.1,0.5,0c5,0.4,10,0.4,14.7,2.1c0.6,0.2,1,0.4,1.6,0.7c1.4,0.8,1.8,1.8,1.1,3.3
		c-0.8,1.6-1.8,3.1-2.9,4.5c-1,1.3-2.2,2.7-3.2,4.1c-0.4,0.5-0.9,0.9-1.5,1c-1.3,0.2-2.1-1.1-1.6-2.4c0.4-1.1,1.2-2.1,1.9-3.1
		c0.9-1.2,1.8-2.3,2.7-3.6c0.8-1.1,0.8-1.1-0.6-1.5c-2.1-0.6-4.2-1-6.4-1.2c-1.9-0.2-3.8-0.4-5.6-1c-0.3-0.1-0.6-0.2-0.9-0.3
		c-0.6-0.2-1.2-0.6-1.1-1.3C40.4,185.4,41.1,185.1,41.8,185z"/>
</g>
</svg>
